%TF.GenerationSoftware,KiCad,Pcbnew,4.0.7-e2-6376~58~ubuntu16.04.1*%
%TF.CreationDate,2018-05-15T17:16:18+03:00*%
%TF.ProjectId,rover_commander,726F7665725F636F6D6D616E6465722E,rev?*%
%TF.FileFunction,Soldermask,Bot*%
%FSLAX46Y46*%
G04 Gerber Fmt 4.6, Leading zero omitted, Abs format (unit mm)*
G04 Created by KiCad (PCBNEW 4.0.7-e2-6376~58~ubuntu16.04.1) date Tue May 15 17:16:18 2018*
%MOMM*%
%LPD*%
G01*
G04 APERTURE LIST*
%ADD10C,0.100000*%
%ADD11R,2.400000X2.400000*%
%ADD12C,2.400000*%
%ADD13R,2.400000X4.200000*%
%ADD14R,2.400000X1.900000*%
%ADD15R,1.600000X1.150000*%
%ADD16R,1.150000X1.600000*%
%ADD17R,1.000000X1.500000*%
%ADD18R,1.300000X1.200000*%
%ADD19R,1.400000X1.400000*%
%ADD20R,2.200000X2.200000*%
%ADD21C,2.200000*%
%ADD22R,1.300000X1.600000*%
%ADD23R,1.600000X1.300000*%
%ADD24R,1.900000X1.000000*%
%ADD25R,1.950000X1.000000*%
%ADD26R,1.200000X1.300000*%
%ADD27C,1.920000*%
%ADD28C,3.100000*%
%ADD29R,2.100000X2.100000*%
%ADD30O,2.100000X2.100000*%
%ADD31R,2.000000X2.000000*%
%ADD32C,2.000000*%
%ADD33R,2.500000X2.100000*%
%ADD34R,1.700000X0.650000*%
%ADD35R,0.650000X1.700000*%
%ADD36R,1.000000X1.950000*%
G04 APERTURE END LIST*
D10*
D11*
X142220000Y-86868000D03*
D12*
X134620000Y-86868000D03*
D13*
X143550000Y-117152000D03*
D14*
X137250000Y-117152000D03*
X137250000Y-114852000D03*
X137250000Y-119452000D03*
D15*
X120904000Y-81534000D03*
X119004000Y-81534000D03*
D16*
X118458000Y-118652000D03*
X118458000Y-116752000D03*
D15*
X113289000Y-81534000D03*
X115189000Y-81534000D03*
D16*
X129872000Y-112712000D03*
X129872000Y-114612000D03*
D15*
X132042000Y-116752000D03*
X130142000Y-116752000D03*
X132042000Y-118600000D03*
X130142000Y-118600000D03*
X169164000Y-106172000D03*
X167264000Y-106172000D03*
X163200000Y-106172000D03*
X165100000Y-106172000D03*
D17*
X113284000Y-116164000D03*
X113284000Y-118364000D03*
D18*
X138208000Y-98486000D03*
X138208000Y-96586000D03*
X140208000Y-97536000D03*
D19*
X139934000Y-83820000D03*
X137434000Y-83820000D03*
D20*
X177000000Y-118540000D03*
D21*
X177000000Y-116000000D03*
X177000000Y-113460000D03*
D20*
X177000000Y-88540000D03*
D21*
X177000000Y-86000000D03*
X177000000Y-83460000D03*
D22*
X119380000Y-85512000D03*
X119380000Y-83312000D03*
X117348000Y-85512000D03*
X117348000Y-83312000D03*
X115316000Y-85512000D03*
X115316000Y-83312000D03*
X113284000Y-85512000D03*
X113284000Y-83312000D03*
X123444000Y-104308000D03*
X123444000Y-102108000D03*
X173736000Y-110068000D03*
X173736000Y-112268000D03*
X116500000Y-101900000D03*
X116500000Y-104100000D03*
X114500000Y-104100000D03*
X114500000Y-101900000D03*
X141224000Y-102784000D03*
X141224000Y-100584000D03*
X136652000Y-102784000D03*
X136652000Y-100584000D03*
X139700000Y-102784000D03*
X139700000Y-100584000D03*
X138176000Y-102784000D03*
X138176000Y-100584000D03*
X135128000Y-102784000D03*
X135128000Y-100584000D03*
X179832000Y-114976000D03*
X179832000Y-112776000D03*
D23*
X169100000Y-100000000D03*
X166900000Y-100000000D03*
D22*
X173736000Y-84836000D03*
X173736000Y-82636000D03*
X173736000Y-91100000D03*
X173736000Y-88900000D03*
D23*
X168600000Y-102000000D03*
X166400000Y-102000000D03*
X117516000Y-113284000D03*
X115316000Y-113284000D03*
X126100000Y-107188000D03*
X123900000Y-107188000D03*
D22*
X112776000Y-106500000D03*
X112776000Y-104300000D03*
X112776000Y-109000000D03*
X112776000Y-111200000D03*
D24*
X122584000Y-89154000D03*
X122584000Y-90424000D03*
X122584000Y-91694000D03*
X122584000Y-92964000D03*
X122584000Y-94234000D03*
X122584000Y-95504000D03*
X122584000Y-96774000D03*
X122584000Y-98044000D03*
X113284000Y-98044000D03*
X113284000Y-96774000D03*
X113284000Y-95504000D03*
X113284000Y-94234000D03*
X113284000Y-92964000D03*
X113284000Y-91694000D03*
X113284000Y-90424000D03*
X113284000Y-89154000D03*
D25*
X120716000Y-105918000D03*
X120716000Y-107188000D03*
X120716000Y-108458000D03*
X120716000Y-109728000D03*
X115316000Y-109728000D03*
X115316000Y-108458000D03*
X115316000Y-107188000D03*
X115316000Y-105918000D03*
D26*
X148270000Y-88868000D03*
X146370000Y-88868000D03*
X147320000Y-86868000D03*
D27*
X173000000Y-102290000D03*
X173000000Y-99750000D03*
X175000000Y-99750000D03*
X175000000Y-102290000D03*
D28*
X177700000Y-107020000D03*
X177700000Y-95020000D03*
D29*
X159004000Y-118872000D03*
D30*
X156464000Y-118872000D03*
X153924000Y-118872000D03*
X151384000Y-118872000D03*
D29*
X109500000Y-89600000D03*
D30*
X109500000Y-92140000D03*
X109500000Y-94680000D03*
X109500000Y-97220000D03*
X109500000Y-99760000D03*
X109500000Y-102300000D03*
X109500000Y-104840000D03*
X109500000Y-107380000D03*
X109500000Y-109920000D03*
X109500000Y-112460000D03*
D31*
X115648000Y-119652000D03*
D32*
X115648000Y-117152000D03*
D31*
X146400000Y-117152000D03*
D32*
X146400000Y-119652000D03*
D16*
X121412000Y-85720000D03*
X121412000Y-83820000D03*
X132080000Y-83820000D03*
X132080000Y-81920000D03*
D33*
X123952000Y-82296000D03*
X129852000Y-82296000D03*
X129852000Y-84996000D03*
X123952000Y-84996000D03*
X169574000Y-111078000D03*
X163674000Y-111078000D03*
X163674000Y-108378000D03*
X169574000Y-108378000D03*
D31*
X120864000Y-103124000D03*
D32*
X118364000Y-103124000D03*
D34*
X135414000Y-91230000D03*
X135414000Y-91730000D03*
X135414000Y-92230000D03*
X135414000Y-92730000D03*
X135414000Y-93230000D03*
X135414000Y-93730000D03*
X135414000Y-94230000D03*
X135414000Y-94730000D03*
X135414000Y-95230000D03*
X135414000Y-95730000D03*
X135414000Y-96230000D03*
X135414000Y-96730000D03*
D35*
X133814000Y-98330000D03*
X133314000Y-98330000D03*
X132814000Y-98330000D03*
X132314000Y-98330000D03*
X131814000Y-98330000D03*
X131314000Y-98330000D03*
X130814000Y-98330000D03*
X130314000Y-98330000D03*
X129814000Y-98330000D03*
X129314000Y-98330000D03*
X128814000Y-98330000D03*
X128314000Y-98330000D03*
D34*
X126714000Y-96730000D03*
X126714000Y-96230000D03*
X126714000Y-95730000D03*
X126714000Y-95230000D03*
X126714000Y-94730000D03*
X126714000Y-94230000D03*
X126714000Y-93730000D03*
X126714000Y-93230000D03*
X126714000Y-92730000D03*
X126714000Y-92230000D03*
X126714000Y-91730000D03*
X126714000Y-91230000D03*
D35*
X128314000Y-89630000D03*
X128814000Y-89630000D03*
X129314000Y-89630000D03*
X129814000Y-89630000D03*
X130314000Y-89630000D03*
X130814000Y-89630000D03*
X131314000Y-89630000D03*
X131814000Y-89630000D03*
X132314000Y-89630000D03*
X132814000Y-89630000D03*
X133314000Y-89630000D03*
X133814000Y-89630000D03*
D22*
X124350000Y-112200000D03*
X127650000Y-112200000D03*
X148950000Y-114400000D03*
X152250000Y-114400000D03*
X159850000Y-114800000D03*
X156550000Y-114800000D03*
D23*
X132300000Y-120400000D03*
X130100000Y-120400000D03*
D22*
X134800000Y-117200000D03*
X134800000Y-119400000D03*
D36*
X155551000Y-82128000D03*
X156821000Y-82128000D03*
X158091000Y-82128000D03*
X159361000Y-82128000D03*
X159361000Y-87528000D03*
X158091000Y-87528000D03*
X156821000Y-87528000D03*
X155551000Y-87528000D03*
D10*
G36*
X161419332Y-102789056D02*
X160924357Y-103284031D01*
X159792986Y-102152660D01*
X160287961Y-101657685D01*
X161419332Y-102789056D01*
X161419332Y-102789056D01*
G37*
G36*
X161065779Y-103142610D02*
X160570804Y-103637585D01*
X159439433Y-102506214D01*
X159934408Y-102011239D01*
X161065779Y-103142610D01*
X161065779Y-103142610D01*
G37*
G36*
X160712225Y-103496163D02*
X160217250Y-103991138D01*
X159085879Y-102859767D01*
X159580854Y-102364792D01*
X160712225Y-103496163D01*
X160712225Y-103496163D01*
G37*
G36*
X160358672Y-103849716D02*
X159863697Y-104344691D01*
X158732326Y-103213320D01*
X159227301Y-102718345D01*
X160358672Y-103849716D01*
X160358672Y-103849716D01*
G37*
G36*
X160005119Y-104203270D02*
X159510144Y-104698245D01*
X158378773Y-103566874D01*
X158873748Y-103071899D01*
X160005119Y-104203270D01*
X160005119Y-104203270D01*
G37*
G36*
X159651565Y-104556823D02*
X159156590Y-105051798D01*
X158025219Y-103920427D01*
X158520194Y-103425452D01*
X159651565Y-104556823D01*
X159651565Y-104556823D01*
G37*
G36*
X159298012Y-104910377D02*
X158803037Y-105405352D01*
X157671666Y-104273981D01*
X158166641Y-103779006D01*
X159298012Y-104910377D01*
X159298012Y-104910377D01*
G37*
G36*
X158944458Y-105263930D02*
X158449483Y-105758905D01*
X157318112Y-104627534D01*
X157813087Y-104132559D01*
X158944458Y-105263930D01*
X158944458Y-105263930D01*
G37*
G36*
X158590905Y-105617483D02*
X158095930Y-106112458D01*
X156964559Y-104981087D01*
X157459534Y-104486112D01*
X158590905Y-105617483D01*
X158590905Y-105617483D01*
G37*
G36*
X158237352Y-105971037D02*
X157742377Y-106466012D01*
X156611006Y-105334641D01*
X157105981Y-104839666D01*
X158237352Y-105971037D01*
X158237352Y-105971037D01*
G37*
G36*
X157883798Y-106324590D02*
X157388823Y-106819565D01*
X156257452Y-105688194D01*
X156752427Y-105193219D01*
X157883798Y-106324590D01*
X157883798Y-106324590D01*
G37*
G36*
X157530245Y-106678144D02*
X157035270Y-107173119D01*
X155903899Y-106041748D01*
X156398874Y-105546773D01*
X157530245Y-106678144D01*
X157530245Y-106678144D01*
G37*
G36*
X157176691Y-107031697D02*
X156681716Y-107526672D01*
X155550345Y-106395301D01*
X156045320Y-105900326D01*
X157176691Y-107031697D01*
X157176691Y-107031697D01*
G37*
G36*
X156823138Y-107385250D02*
X156328163Y-107880225D01*
X155196792Y-106748854D01*
X155691767Y-106253879D01*
X156823138Y-107385250D01*
X156823138Y-107385250D01*
G37*
G36*
X156469585Y-107738804D02*
X155974610Y-108233779D01*
X154843239Y-107102408D01*
X155338214Y-106607433D01*
X156469585Y-107738804D01*
X156469585Y-107738804D01*
G37*
G36*
X156116031Y-108092357D02*
X155621056Y-108587332D01*
X154489685Y-107455961D01*
X154984660Y-106960986D01*
X156116031Y-108092357D01*
X156116031Y-108092357D01*
G37*
G36*
X152226944Y-108587332D02*
X151731969Y-108092357D01*
X152863340Y-106960986D01*
X153358315Y-107455961D01*
X152226944Y-108587332D01*
X152226944Y-108587332D01*
G37*
G36*
X151873390Y-108233779D02*
X151378415Y-107738804D01*
X152509786Y-106607433D01*
X153004761Y-107102408D01*
X151873390Y-108233779D01*
X151873390Y-108233779D01*
G37*
G36*
X151519837Y-107880225D02*
X151024862Y-107385250D01*
X152156233Y-106253879D01*
X152651208Y-106748854D01*
X151519837Y-107880225D01*
X151519837Y-107880225D01*
G37*
G36*
X151166284Y-107526672D02*
X150671309Y-107031697D01*
X151802680Y-105900326D01*
X152297655Y-106395301D01*
X151166284Y-107526672D01*
X151166284Y-107526672D01*
G37*
G36*
X150812730Y-107173119D02*
X150317755Y-106678144D01*
X151449126Y-105546773D01*
X151944101Y-106041748D01*
X150812730Y-107173119D01*
X150812730Y-107173119D01*
G37*
G36*
X150459177Y-106819565D02*
X149964202Y-106324590D01*
X151095573Y-105193219D01*
X151590548Y-105688194D01*
X150459177Y-106819565D01*
X150459177Y-106819565D01*
G37*
G36*
X150105623Y-106466012D02*
X149610648Y-105971037D01*
X150742019Y-104839666D01*
X151236994Y-105334641D01*
X150105623Y-106466012D01*
X150105623Y-106466012D01*
G37*
G36*
X149752070Y-106112458D02*
X149257095Y-105617483D01*
X150388466Y-104486112D01*
X150883441Y-104981087D01*
X149752070Y-106112458D01*
X149752070Y-106112458D01*
G37*
G36*
X149398517Y-105758905D02*
X148903542Y-105263930D01*
X150034913Y-104132559D01*
X150529888Y-104627534D01*
X149398517Y-105758905D01*
X149398517Y-105758905D01*
G37*
G36*
X149044963Y-105405352D02*
X148549988Y-104910377D01*
X149681359Y-103779006D01*
X150176334Y-104273981D01*
X149044963Y-105405352D01*
X149044963Y-105405352D01*
G37*
G36*
X148691410Y-105051798D02*
X148196435Y-104556823D01*
X149327806Y-103425452D01*
X149822781Y-103920427D01*
X148691410Y-105051798D01*
X148691410Y-105051798D01*
G37*
G36*
X148337856Y-104698245D02*
X147842881Y-104203270D01*
X148974252Y-103071899D01*
X149469227Y-103566874D01*
X148337856Y-104698245D01*
X148337856Y-104698245D01*
G37*
G36*
X147984303Y-104344691D02*
X147489328Y-103849716D01*
X148620699Y-102718345D01*
X149115674Y-103213320D01*
X147984303Y-104344691D01*
X147984303Y-104344691D01*
G37*
G36*
X147630750Y-103991138D02*
X147135775Y-103496163D01*
X148267146Y-102364792D01*
X148762121Y-102859767D01*
X147630750Y-103991138D01*
X147630750Y-103991138D01*
G37*
G36*
X147277196Y-103637585D02*
X146782221Y-103142610D01*
X147913592Y-102011239D01*
X148408567Y-102506214D01*
X147277196Y-103637585D01*
X147277196Y-103637585D01*
G37*
G36*
X146923643Y-103284031D02*
X146428668Y-102789056D01*
X147560039Y-101657685D01*
X148055014Y-102152660D01*
X146923643Y-103284031D01*
X146923643Y-103284031D01*
G37*
G36*
X148055014Y-100031340D02*
X147560039Y-100526315D01*
X146428668Y-99394944D01*
X146923643Y-98899969D01*
X148055014Y-100031340D01*
X148055014Y-100031340D01*
G37*
G36*
X148408567Y-99677786D02*
X147913592Y-100172761D01*
X146782221Y-99041390D01*
X147277196Y-98546415D01*
X148408567Y-99677786D01*
X148408567Y-99677786D01*
G37*
G36*
X148762121Y-99324233D02*
X148267146Y-99819208D01*
X147135775Y-98687837D01*
X147630750Y-98192862D01*
X148762121Y-99324233D01*
X148762121Y-99324233D01*
G37*
G36*
X149115674Y-98970680D02*
X148620699Y-99465655D01*
X147489328Y-98334284D01*
X147984303Y-97839309D01*
X149115674Y-98970680D01*
X149115674Y-98970680D01*
G37*
G36*
X149469227Y-98617126D02*
X148974252Y-99112101D01*
X147842881Y-97980730D01*
X148337856Y-97485755D01*
X149469227Y-98617126D01*
X149469227Y-98617126D01*
G37*
G36*
X149822781Y-98263573D02*
X149327806Y-98758548D01*
X148196435Y-97627177D01*
X148691410Y-97132202D01*
X149822781Y-98263573D01*
X149822781Y-98263573D01*
G37*
G36*
X150176334Y-97910019D02*
X149681359Y-98404994D01*
X148549988Y-97273623D01*
X149044963Y-96778648D01*
X150176334Y-97910019D01*
X150176334Y-97910019D01*
G37*
G36*
X150529888Y-97556466D02*
X150034913Y-98051441D01*
X148903542Y-96920070D01*
X149398517Y-96425095D01*
X150529888Y-97556466D01*
X150529888Y-97556466D01*
G37*
G36*
X150883441Y-97202913D02*
X150388466Y-97697888D01*
X149257095Y-96566517D01*
X149752070Y-96071542D01*
X150883441Y-97202913D01*
X150883441Y-97202913D01*
G37*
G36*
X151236994Y-96849359D02*
X150742019Y-97344334D01*
X149610648Y-96212963D01*
X150105623Y-95717988D01*
X151236994Y-96849359D01*
X151236994Y-96849359D01*
G37*
G36*
X151590548Y-96495806D02*
X151095573Y-96990781D01*
X149964202Y-95859410D01*
X150459177Y-95364435D01*
X151590548Y-96495806D01*
X151590548Y-96495806D01*
G37*
G36*
X151944101Y-96142252D02*
X151449126Y-96637227D01*
X150317755Y-95505856D01*
X150812730Y-95010881D01*
X151944101Y-96142252D01*
X151944101Y-96142252D01*
G37*
G36*
X152297655Y-95788699D02*
X151802680Y-96283674D01*
X150671309Y-95152303D01*
X151166284Y-94657328D01*
X152297655Y-95788699D01*
X152297655Y-95788699D01*
G37*
G36*
X152651208Y-95435146D02*
X152156233Y-95930121D01*
X151024862Y-94798750D01*
X151519837Y-94303775D01*
X152651208Y-95435146D01*
X152651208Y-95435146D01*
G37*
G36*
X153004761Y-95081592D02*
X152509786Y-95576567D01*
X151378415Y-94445196D01*
X151873390Y-93950221D01*
X153004761Y-95081592D01*
X153004761Y-95081592D01*
G37*
G36*
X153358315Y-94728039D02*
X152863340Y-95223014D01*
X151731969Y-94091643D01*
X152226944Y-93596668D01*
X153358315Y-94728039D01*
X153358315Y-94728039D01*
G37*
G36*
X154984660Y-95223014D02*
X154489685Y-94728039D01*
X155621056Y-93596668D01*
X156116031Y-94091643D01*
X154984660Y-95223014D01*
X154984660Y-95223014D01*
G37*
G36*
X155338214Y-95576567D02*
X154843239Y-95081592D01*
X155974610Y-93950221D01*
X156469585Y-94445196D01*
X155338214Y-95576567D01*
X155338214Y-95576567D01*
G37*
G36*
X155691767Y-95930121D02*
X155196792Y-95435146D01*
X156328163Y-94303775D01*
X156823138Y-94798750D01*
X155691767Y-95930121D01*
X155691767Y-95930121D01*
G37*
G36*
X156045320Y-96283674D02*
X155550345Y-95788699D01*
X156681716Y-94657328D01*
X157176691Y-95152303D01*
X156045320Y-96283674D01*
X156045320Y-96283674D01*
G37*
G36*
X156398874Y-96637227D02*
X155903899Y-96142252D01*
X157035270Y-95010881D01*
X157530245Y-95505856D01*
X156398874Y-96637227D01*
X156398874Y-96637227D01*
G37*
G36*
X156752427Y-96990781D02*
X156257452Y-96495806D01*
X157388823Y-95364435D01*
X157883798Y-95859410D01*
X156752427Y-96990781D01*
X156752427Y-96990781D01*
G37*
G36*
X157105981Y-97344334D02*
X156611006Y-96849359D01*
X157742377Y-95717988D01*
X158237352Y-96212963D01*
X157105981Y-97344334D01*
X157105981Y-97344334D01*
G37*
G36*
X157459534Y-97697888D02*
X156964559Y-97202913D01*
X158095930Y-96071542D01*
X158590905Y-96566517D01*
X157459534Y-97697888D01*
X157459534Y-97697888D01*
G37*
G36*
X157813087Y-98051441D02*
X157318112Y-97556466D01*
X158449483Y-96425095D01*
X158944458Y-96920070D01*
X157813087Y-98051441D01*
X157813087Y-98051441D01*
G37*
G36*
X158166641Y-98404994D02*
X157671666Y-97910019D01*
X158803037Y-96778648D01*
X159298012Y-97273623D01*
X158166641Y-98404994D01*
X158166641Y-98404994D01*
G37*
G36*
X158520194Y-98758548D02*
X158025219Y-98263573D01*
X159156590Y-97132202D01*
X159651565Y-97627177D01*
X158520194Y-98758548D01*
X158520194Y-98758548D01*
G37*
G36*
X158873748Y-99112101D02*
X158378773Y-98617126D01*
X159510144Y-97485755D01*
X160005119Y-97980730D01*
X158873748Y-99112101D01*
X158873748Y-99112101D01*
G37*
G36*
X159227301Y-99465655D02*
X158732326Y-98970680D01*
X159863697Y-97839309D01*
X160358672Y-98334284D01*
X159227301Y-99465655D01*
X159227301Y-99465655D01*
G37*
G36*
X159580854Y-99819208D02*
X159085879Y-99324233D01*
X160217250Y-98192862D01*
X160712225Y-98687837D01*
X159580854Y-99819208D01*
X159580854Y-99819208D01*
G37*
G36*
X159934408Y-100172761D02*
X159439433Y-99677786D01*
X160570804Y-98546415D01*
X161065779Y-99041390D01*
X159934408Y-100172761D01*
X159934408Y-100172761D01*
G37*
G36*
X160287961Y-100526315D02*
X159792986Y-100031340D01*
X160924357Y-98899969D01*
X161419332Y-99394944D01*
X160287961Y-100526315D01*
X160287961Y-100526315D01*
G37*
M02*
