%TF.GenerationSoftware,KiCad,Pcbnew,4.0.7-e2-6376~58~ubuntu16.04.1*%
%TF.CreationDate,2018-05-15T17:16:18+03:00*%
%TF.ProjectId,rover_commander,726F7665725F636F6D6D616E6465722E,rev?*%
%TF.FileFunction,Paste,Bot*%
%FSLAX46Y46*%
G04 Gerber Fmt 4.6, Leading zero omitted, Abs format (unit mm)*
G04 Created by KiCad (PCBNEW 4.0.7-e2-6376~58~ubuntu16.04.1) date Tue May 15 17:16:18 2018*
%MOMM*%
%LPD*%
G01*
G04 APERTURE LIST*
%ADD10C,0.100000*%
%ADD11R,2.000000X3.800000*%
%ADD12R,2.000000X1.500000*%
%ADD13R,1.200000X0.750000*%
%ADD14R,0.750000X1.200000*%
%ADD15R,0.600000X1.100000*%
%ADD16R,0.900000X0.800000*%
%ADD17R,1.000000X1.000000*%
%ADD18R,0.900000X1.200000*%
%ADD19R,1.200000X0.900000*%
%ADD20R,1.500000X0.600000*%
%ADD21R,1.550000X0.600000*%
%ADD22R,0.800000X0.900000*%
%ADD23R,2.100000X1.700000*%
%ADD24R,1.300000X0.250000*%
%ADD25R,0.250000X1.300000*%
%ADD26R,0.600000X1.550000*%
G04 APERTURE END LIST*
D10*
D11*
X143550000Y-117152000D03*
D12*
X137250000Y-117152000D03*
X137250000Y-114852000D03*
X137250000Y-119452000D03*
D13*
X120904000Y-81534000D03*
X119004000Y-81534000D03*
D14*
X118458000Y-118652000D03*
X118458000Y-116752000D03*
D13*
X113289000Y-81534000D03*
X115189000Y-81534000D03*
D14*
X129872000Y-112712000D03*
X129872000Y-114612000D03*
D13*
X132042000Y-116752000D03*
X130142000Y-116752000D03*
X132042000Y-118600000D03*
X130142000Y-118600000D03*
X169164000Y-106172000D03*
X167264000Y-106172000D03*
X163200000Y-106172000D03*
X165100000Y-106172000D03*
D15*
X113284000Y-116164000D03*
X113284000Y-118364000D03*
D16*
X138208000Y-98486000D03*
X138208000Y-96586000D03*
X140208000Y-97536000D03*
D17*
X139934000Y-83820000D03*
X137434000Y-83820000D03*
D18*
X119380000Y-85512000D03*
X119380000Y-83312000D03*
X117348000Y-85512000D03*
X117348000Y-83312000D03*
X115316000Y-85512000D03*
X115316000Y-83312000D03*
X113284000Y-85512000D03*
X113284000Y-83312000D03*
X123444000Y-104308000D03*
X123444000Y-102108000D03*
X173736000Y-110068000D03*
X173736000Y-112268000D03*
X116500000Y-101900000D03*
X116500000Y-104100000D03*
X114500000Y-104100000D03*
X114500000Y-101900000D03*
X141224000Y-102784000D03*
X141224000Y-100584000D03*
X136652000Y-102784000D03*
X136652000Y-100584000D03*
X139700000Y-102784000D03*
X139700000Y-100584000D03*
X138176000Y-102784000D03*
X138176000Y-100584000D03*
X135128000Y-102784000D03*
X135128000Y-100584000D03*
X179832000Y-114976000D03*
X179832000Y-112776000D03*
D19*
X169100000Y-100000000D03*
X166900000Y-100000000D03*
D18*
X173736000Y-84836000D03*
X173736000Y-82636000D03*
X173736000Y-91100000D03*
X173736000Y-88900000D03*
D19*
X168600000Y-102000000D03*
X166400000Y-102000000D03*
X117516000Y-113284000D03*
X115316000Y-113284000D03*
X126100000Y-107188000D03*
X123900000Y-107188000D03*
D18*
X112776000Y-106500000D03*
X112776000Y-104300000D03*
X112776000Y-109000000D03*
X112776000Y-111200000D03*
D20*
X122584000Y-89154000D03*
X122584000Y-90424000D03*
X122584000Y-91694000D03*
X122584000Y-92964000D03*
X122584000Y-94234000D03*
X122584000Y-95504000D03*
X122584000Y-96774000D03*
X122584000Y-98044000D03*
X113284000Y-98044000D03*
X113284000Y-96774000D03*
X113284000Y-95504000D03*
X113284000Y-94234000D03*
X113284000Y-92964000D03*
X113284000Y-91694000D03*
X113284000Y-90424000D03*
X113284000Y-89154000D03*
D21*
X120716000Y-105918000D03*
X120716000Y-107188000D03*
X120716000Y-108458000D03*
X120716000Y-109728000D03*
X115316000Y-109728000D03*
X115316000Y-108458000D03*
X115316000Y-107188000D03*
X115316000Y-105918000D03*
D22*
X148270000Y-88868000D03*
X146370000Y-88868000D03*
X147320000Y-86868000D03*
D14*
X121412000Y-85720000D03*
X121412000Y-83820000D03*
X132080000Y-83820000D03*
X132080000Y-81920000D03*
D23*
X123952000Y-82296000D03*
X129852000Y-82296000D03*
X129852000Y-84996000D03*
X123952000Y-84996000D03*
X169574000Y-111078000D03*
X163674000Y-111078000D03*
X163674000Y-108378000D03*
X169574000Y-108378000D03*
D24*
X135414000Y-91230000D03*
X135414000Y-91730000D03*
X135414000Y-92230000D03*
X135414000Y-92730000D03*
X135414000Y-93230000D03*
X135414000Y-93730000D03*
X135414000Y-94230000D03*
X135414000Y-94730000D03*
X135414000Y-95230000D03*
X135414000Y-95730000D03*
X135414000Y-96230000D03*
X135414000Y-96730000D03*
D25*
X133814000Y-98330000D03*
X133314000Y-98330000D03*
X132814000Y-98330000D03*
X132314000Y-98330000D03*
X131814000Y-98330000D03*
X131314000Y-98330000D03*
X130814000Y-98330000D03*
X130314000Y-98330000D03*
X129814000Y-98330000D03*
X129314000Y-98330000D03*
X128814000Y-98330000D03*
X128314000Y-98330000D03*
D24*
X126714000Y-96730000D03*
X126714000Y-96230000D03*
X126714000Y-95730000D03*
X126714000Y-95230000D03*
X126714000Y-94730000D03*
X126714000Y-94230000D03*
X126714000Y-93730000D03*
X126714000Y-93230000D03*
X126714000Y-92730000D03*
X126714000Y-92230000D03*
X126714000Y-91730000D03*
X126714000Y-91230000D03*
D25*
X128314000Y-89630000D03*
X128814000Y-89630000D03*
X129314000Y-89630000D03*
X129814000Y-89630000D03*
X130314000Y-89630000D03*
X130814000Y-89630000D03*
X131314000Y-89630000D03*
X131814000Y-89630000D03*
X132314000Y-89630000D03*
X132814000Y-89630000D03*
X133314000Y-89630000D03*
X133814000Y-89630000D03*
D18*
X124350000Y-112200000D03*
X127650000Y-112200000D03*
X148950000Y-114400000D03*
X152250000Y-114400000D03*
X159850000Y-114800000D03*
X156550000Y-114800000D03*
D19*
X132300000Y-120400000D03*
X130100000Y-120400000D03*
D18*
X134800000Y-117200000D03*
X134800000Y-119400000D03*
D26*
X155551000Y-82128000D03*
X156821000Y-82128000D03*
X158091000Y-82128000D03*
X159361000Y-82128000D03*
X159361000Y-87528000D03*
X158091000Y-87528000D03*
X156821000Y-87528000D03*
X155551000Y-87528000D03*
D10*
G36*
X161136489Y-102789056D02*
X160924357Y-103001188D01*
X160075829Y-102152660D01*
X160287961Y-101940528D01*
X161136489Y-102789056D01*
X161136489Y-102789056D01*
G37*
G36*
X160782936Y-103142610D02*
X160570804Y-103354742D01*
X159722276Y-102506214D01*
X159934408Y-102294082D01*
X160782936Y-103142610D01*
X160782936Y-103142610D01*
G37*
G36*
X160429382Y-103496163D02*
X160217250Y-103708295D01*
X159368722Y-102859767D01*
X159580854Y-102647635D01*
X160429382Y-103496163D01*
X160429382Y-103496163D01*
G37*
G36*
X160075829Y-103849716D02*
X159863697Y-104061848D01*
X159015169Y-103213320D01*
X159227301Y-103001188D01*
X160075829Y-103849716D01*
X160075829Y-103849716D01*
G37*
G36*
X159722276Y-104203270D02*
X159510144Y-104415402D01*
X158661616Y-103566874D01*
X158873748Y-103354742D01*
X159722276Y-104203270D01*
X159722276Y-104203270D01*
G37*
G36*
X159368722Y-104556823D02*
X159156590Y-104768955D01*
X158308062Y-103920427D01*
X158520194Y-103708295D01*
X159368722Y-104556823D01*
X159368722Y-104556823D01*
G37*
G36*
X159015169Y-104910377D02*
X158803037Y-105122509D01*
X157954509Y-104273981D01*
X158166641Y-104061849D01*
X159015169Y-104910377D01*
X159015169Y-104910377D01*
G37*
G36*
X158661615Y-105263930D02*
X158449483Y-105476062D01*
X157600955Y-104627534D01*
X157813087Y-104415402D01*
X158661615Y-105263930D01*
X158661615Y-105263930D01*
G37*
G36*
X158308062Y-105617483D02*
X158095930Y-105829615D01*
X157247402Y-104981087D01*
X157459534Y-104768955D01*
X158308062Y-105617483D01*
X158308062Y-105617483D01*
G37*
G36*
X157954509Y-105971037D02*
X157742377Y-106183169D01*
X156893849Y-105334641D01*
X157105981Y-105122509D01*
X157954509Y-105971037D01*
X157954509Y-105971037D01*
G37*
G36*
X157600955Y-106324590D02*
X157388823Y-106536722D01*
X156540295Y-105688194D01*
X156752427Y-105476062D01*
X157600955Y-106324590D01*
X157600955Y-106324590D01*
G37*
G36*
X157247402Y-106678144D02*
X157035270Y-106890276D01*
X156186742Y-106041748D01*
X156398874Y-105829616D01*
X157247402Y-106678144D01*
X157247402Y-106678144D01*
G37*
G36*
X156893848Y-107031697D02*
X156681716Y-107243829D01*
X155833188Y-106395301D01*
X156045320Y-106183169D01*
X156893848Y-107031697D01*
X156893848Y-107031697D01*
G37*
G36*
X156540295Y-107385250D02*
X156328163Y-107597382D01*
X155479635Y-106748854D01*
X155691767Y-106536722D01*
X156540295Y-107385250D01*
X156540295Y-107385250D01*
G37*
G36*
X156186742Y-107738804D02*
X155974610Y-107950936D01*
X155126082Y-107102408D01*
X155338214Y-106890276D01*
X156186742Y-107738804D01*
X156186742Y-107738804D01*
G37*
G36*
X155833188Y-108092357D02*
X155621056Y-108304489D01*
X154772528Y-107455961D01*
X154984660Y-107243829D01*
X155833188Y-108092357D01*
X155833188Y-108092357D01*
G37*
G36*
X152226944Y-108304489D02*
X152014812Y-108092357D01*
X152863340Y-107243829D01*
X153075472Y-107455961D01*
X152226944Y-108304489D01*
X152226944Y-108304489D01*
G37*
G36*
X151873390Y-107950936D02*
X151661258Y-107738804D01*
X152509786Y-106890276D01*
X152721918Y-107102408D01*
X151873390Y-107950936D01*
X151873390Y-107950936D01*
G37*
G36*
X151519837Y-107597382D02*
X151307705Y-107385250D01*
X152156233Y-106536722D01*
X152368365Y-106748854D01*
X151519837Y-107597382D01*
X151519837Y-107597382D01*
G37*
G36*
X151166284Y-107243829D02*
X150954152Y-107031697D01*
X151802680Y-106183169D01*
X152014812Y-106395301D01*
X151166284Y-107243829D01*
X151166284Y-107243829D01*
G37*
G36*
X150812730Y-106890276D02*
X150600598Y-106678144D01*
X151449126Y-105829616D01*
X151661258Y-106041748D01*
X150812730Y-106890276D01*
X150812730Y-106890276D01*
G37*
G36*
X150459177Y-106536722D02*
X150247045Y-106324590D01*
X151095573Y-105476062D01*
X151307705Y-105688194D01*
X150459177Y-106536722D01*
X150459177Y-106536722D01*
G37*
G36*
X150105623Y-106183169D02*
X149893491Y-105971037D01*
X150742019Y-105122509D01*
X150954151Y-105334641D01*
X150105623Y-106183169D01*
X150105623Y-106183169D01*
G37*
G36*
X149752070Y-105829615D02*
X149539938Y-105617483D01*
X150388466Y-104768955D01*
X150600598Y-104981087D01*
X149752070Y-105829615D01*
X149752070Y-105829615D01*
G37*
G36*
X149398517Y-105476062D02*
X149186385Y-105263930D01*
X150034913Y-104415402D01*
X150247045Y-104627534D01*
X149398517Y-105476062D01*
X149398517Y-105476062D01*
G37*
G36*
X149044963Y-105122509D02*
X148832831Y-104910377D01*
X149681359Y-104061849D01*
X149893491Y-104273981D01*
X149044963Y-105122509D01*
X149044963Y-105122509D01*
G37*
G36*
X148691410Y-104768955D02*
X148479278Y-104556823D01*
X149327806Y-103708295D01*
X149539938Y-103920427D01*
X148691410Y-104768955D01*
X148691410Y-104768955D01*
G37*
G36*
X148337856Y-104415402D02*
X148125724Y-104203270D01*
X148974252Y-103354742D01*
X149186384Y-103566874D01*
X148337856Y-104415402D01*
X148337856Y-104415402D01*
G37*
G36*
X147984303Y-104061848D02*
X147772171Y-103849716D01*
X148620699Y-103001188D01*
X148832831Y-103213320D01*
X147984303Y-104061848D01*
X147984303Y-104061848D01*
G37*
G36*
X147630750Y-103708295D02*
X147418618Y-103496163D01*
X148267146Y-102647635D01*
X148479278Y-102859767D01*
X147630750Y-103708295D01*
X147630750Y-103708295D01*
G37*
G36*
X147277196Y-103354742D02*
X147065064Y-103142610D01*
X147913592Y-102294082D01*
X148125724Y-102506214D01*
X147277196Y-103354742D01*
X147277196Y-103354742D01*
G37*
G36*
X146923643Y-103001188D02*
X146711511Y-102789056D01*
X147560039Y-101940528D01*
X147772171Y-102152660D01*
X146923643Y-103001188D01*
X146923643Y-103001188D01*
G37*
G36*
X147772171Y-100031340D02*
X147560039Y-100243472D01*
X146711511Y-99394944D01*
X146923643Y-99182812D01*
X147772171Y-100031340D01*
X147772171Y-100031340D01*
G37*
G36*
X148125724Y-99677786D02*
X147913592Y-99889918D01*
X147065064Y-99041390D01*
X147277196Y-98829258D01*
X148125724Y-99677786D01*
X148125724Y-99677786D01*
G37*
G36*
X148479278Y-99324233D02*
X148267146Y-99536365D01*
X147418618Y-98687837D01*
X147630750Y-98475705D01*
X148479278Y-99324233D01*
X148479278Y-99324233D01*
G37*
G36*
X148832831Y-98970680D02*
X148620699Y-99182812D01*
X147772171Y-98334284D01*
X147984303Y-98122152D01*
X148832831Y-98970680D01*
X148832831Y-98970680D01*
G37*
G36*
X149186384Y-98617126D02*
X148974252Y-98829258D01*
X148125724Y-97980730D01*
X148337856Y-97768598D01*
X149186384Y-98617126D01*
X149186384Y-98617126D01*
G37*
G36*
X149539938Y-98263573D02*
X149327806Y-98475705D01*
X148479278Y-97627177D01*
X148691410Y-97415045D01*
X149539938Y-98263573D01*
X149539938Y-98263573D01*
G37*
G36*
X149893491Y-97910019D02*
X149681359Y-98122151D01*
X148832831Y-97273623D01*
X149044963Y-97061491D01*
X149893491Y-97910019D01*
X149893491Y-97910019D01*
G37*
G36*
X150247045Y-97556466D02*
X150034913Y-97768598D01*
X149186385Y-96920070D01*
X149398517Y-96707938D01*
X150247045Y-97556466D01*
X150247045Y-97556466D01*
G37*
G36*
X150600598Y-97202913D02*
X150388466Y-97415045D01*
X149539938Y-96566517D01*
X149752070Y-96354385D01*
X150600598Y-97202913D01*
X150600598Y-97202913D01*
G37*
G36*
X150954151Y-96849359D02*
X150742019Y-97061491D01*
X149893491Y-96212963D01*
X150105623Y-96000831D01*
X150954151Y-96849359D01*
X150954151Y-96849359D01*
G37*
G36*
X151307705Y-96495806D02*
X151095573Y-96707938D01*
X150247045Y-95859410D01*
X150459177Y-95647278D01*
X151307705Y-96495806D01*
X151307705Y-96495806D01*
G37*
G36*
X151661258Y-96142252D02*
X151449126Y-96354384D01*
X150600598Y-95505856D01*
X150812730Y-95293724D01*
X151661258Y-96142252D01*
X151661258Y-96142252D01*
G37*
G36*
X152014812Y-95788699D02*
X151802680Y-96000831D01*
X150954152Y-95152303D01*
X151166284Y-94940171D01*
X152014812Y-95788699D01*
X152014812Y-95788699D01*
G37*
G36*
X152368365Y-95435146D02*
X152156233Y-95647278D01*
X151307705Y-94798750D01*
X151519837Y-94586618D01*
X152368365Y-95435146D01*
X152368365Y-95435146D01*
G37*
G36*
X152721918Y-95081592D02*
X152509786Y-95293724D01*
X151661258Y-94445196D01*
X151873390Y-94233064D01*
X152721918Y-95081592D01*
X152721918Y-95081592D01*
G37*
G36*
X153075472Y-94728039D02*
X152863340Y-94940171D01*
X152014812Y-94091643D01*
X152226944Y-93879511D01*
X153075472Y-94728039D01*
X153075472Y-94728039D01*
G37*
G36*
X154984660Y-94940171D02*
X154772528Y-94728039D01*
X155621056Y-93879511D01*
X155833188Y-94091643D01*
X154984660Y-94940171D01*
X154984660Y-94940171D01*
G37*
G36*
X155338214Y-95293724D02*
X155126082Y-95081592D01*
X155974610Y-94233064D01*
X156186742Y-94445196D01*
X155338214Y-95293724D01*
X155338214Y-95293724D01*
G37*
G36*
X155691767Y-95647278D02*
X155479635Y-95435146D01*
X156328163Y-94586618D01*
X156540295Y-94798750D01*
X155691767Y-95647278D01*
X155691767Y-95647278D01*
G37*
G36*
X156045320Y-96000831D02*
X155833188Y-95788699D01*
X156681716Y-94940171D01*
X156893848Y-95152303D01*
X156045320Y-96000831D01*
X156045320Y-96000831D01*
G37*
G36*
X156398874Y-96354384D02*
X156186742Y-96142252D01*
X157035270Y-95293724D01*
X157247402Y-95505856D01*
X156398874Y-96354384D01*
X156398874Y-96354384D01*
G37*
G36*
X156752427Y-96707938D02*
X156540295Y-96495806D01*
X157388823Y-95647278D01*
X157600955Y-95859410D01*
X156752427Y-96707938D01*
X156752427Y-96707938D01*
G37*
G36*
X157105981Y-97061491D02*
X156893849Y-96849359D01*
X157742377Y-96000831D01*
X157954509Y-96212963D01*
X157105981Y-97061491D01*
X157105981Y-97061491D01*
G37*
G36*
X157459534Y-97415045D02*
X157247402Y-97202913D01*
X158095930Y-96354385D01*
X158308062Y-96566517D01*
X157459534Y-97415045D01*
X157459534Y-97415045D01*
G37*
G36*
X157813087Y-97768598D02*
X157600955Y-97556466D01*
X158449483Y-96707938D01*
X158661615Y-96920070D01*
X157813087Y-97768598D01*
X157813087Y-97768598D01*
G37*
G36*
X158166641Y-98122151D02*
X157954509Y-97910019D01*
X158803037Y-97061491D01*
X159015169Y-97273623D01*
X158166641Y-98122151D01*
X158166641Y-98122151D01*
G37*
G36*
X158520194Y-98475705D02*
X158308062Y-98263573D01*
X159156590Y-97415045D01*
X159368722Y-97627177D01*
X158520194Y-98475705D01*
X158520194Y-98475705D01*
G37*
G36*
X158873748Y-98829258D02*
X158661616Y-98617126D01*
X159510144Y-97768598D01*
X159722276Y-97980730D01*
X158873748Y-98829258D01*
X158873748Y-98829258D01*
G37*
G36*
X159227301Y-99182812D02*
X159015169Y-98970680D01*
X159863697Y-98122152D01*
X160075829Y-98334284D01*
X159227301Y-99182812D01*
X159227301Y-99182812D01*
G37*
G36*
X159580854Y-99536365D02*
X159368722Y-99324233D01*
X160217250Y-98475705D01*
X160429382Y-98687837D01*
X159580854Y-99536365D01*
X159580854Y-99536365D01*
G37*
G36*
X159934408Y-99889918D02*
X159722276Y-99677786D01*
X160570804Y-98829258D01*
X160782936Y-99041390D01*
X159934408Y-99889918D01*
X159934408Y-99889918D01*
G37*
G36*
X160287961Y-100243472D02*
X160075829Y-100031340D01*
X160924357Y-99182812D01*
X161136489Y-99394944D01*
X160287961Y-100243472D01*
X160287961Y-100243472D01*
G37*
M02*
