%TF.GenerationSoftware,KiCad,Pcbnew,4.0.7-e2-6376~58~ubuntu16.04.1*%
%TF.CreationDate,2018-05-15T11:46:24+03:00*%
%TF.ProjectId,rover_commander,726F7665725F636F6D6D616E6465722E,rev?*%
%TF.FileFunction,Other,Fab,Top*%
%FSLAX46Y46*%
G04 Gerber Fmt 4.6, Leading zero omitted, Abs format (unit mm)*
G04 Created by KiCad (PCBNEW 4.0.7-e2-6376~58~ubuntu16.04.1) date Tue May 15 11:46:24 2018*
%MOMM*%
%LPD*%
G01*
G04 APERTURE LIST*
%ADD10C,0.100000*%
%ADD11C,0.150000*%
%ADD12C,0.075000*%
G04 APERTURE END LIST*
D10*
X144420000Y-86868000D02*
G75*
G03X144420000Y-86868000I-6000000J0D01*
G01*
X139420000Y-86868000D02*
G75*
G03X139420000Y-86868000I-1000000J0D01*
G01*
X121400000Y-87300000D02*
X120600000Y-87300000D01*
X121400000Y-85700000D02*
X121400000Y-87300000D01*
X120600000Y-85700000D02*
X121400000Y-85700000D01*
X120600000Y-87300000D02*
X120600000Y-85700000D01*
X126266000Y-85744000D02*
X126266000Y-84944000D01*
X127866000Y-85744000D02*
X126266000Y-85744000D01*
X127866000Y-84944000D02*
X127866000Y-85744000D01*
X126266000Y-84944000D02*
X127866000Y-84944000D01*
X153400000Y-83950000D02*
X152600000Y-83950000D01*
X153400000Y-82350000D02*
X153400000Y-83950000D01*
X152600000Y-82350000D02*
X153400000Y-82350000D01*
X152600000Y-83950000D02*
X152600000Y-82350000D01*
X151800000Y-83950000D02*
X151000000Y-83950000D01*
X151800000Y-82350000D02*
X151800000Y-83950000D01*
X151000000Y-82350000D02*
X151800000Y-82350000D01*
X151000000Y-83950000D02*
X151000000Y-82350000D01*
X150200000Y-83950000D02*
X149400000Y-83950000D01*
X150200000Y-82350000D02*
X150200000Y-83950000D01*
X149400000Y-82350000D02*
X150200000Y-82350000D01*
X149400000Y-83950000D02*
X149400000Y-82350000D01*
X148600000Y-83950000D02*
X147800000Y-83950000D01*
X148600000Y-82350000D02*
X148600000Y-83950000D01*
X147800000Y-82350000D02*
X148600000Y-82350000D01*
X147800000Y-83950000D02*
X147800000Y-82350000D01*
X119400000Y-87300000D02*
X118600000Y-87300000D01*
X119400000Y-85700000D02*
X119400000Y-87300000D01*
X118600000Y-85700000D02*
X119400000Y-85700000D01*
X118600000Y-87300000D02*
X118600000Y-85700000D01*
X126266000Y-87776000D02*
X126266000Y-86976000D01*
X127866000Y-87776000D02*
X126266000Y-87776000D01*
X127866000Y-86976000D02*
X127866000Y-87776000D01*
X126266000Y-86976000D02*
X127866000Y-86976000D01*
X118150000Y-96650000D02*
X118950000Y-96650000D01*
X118150000Y-98250000D02*
X118150000Y-96650000D01*
X118950000Y-98250000D02*
X118150000Y-98250000D01*
X118950000Y-96650000D02*
X118950000Y-98250000D01*
X126956000Y-84054000D02*
X126956000Y-81554000D01*
X130156000Y-84054000D02*
X126956000Y-84054000D01*
X130156000Y-81554000D02*
X130156000Y-84054000D01*
X126956000Y-81554000D02*
X130156000Y-81554000D01*
X129814000Y-92380000D02*
X132314000Y-92380000D01*
X129814000Y-95580000D02*
X129814000Y-92380000D01*
X132314000Y-95580000D02*
X129814000Y-95580000D01*
X132314000Y-92380000D02*
X132314000Y-95580000D01*
X178469666Y-118500016D02*
G75*
G03X175530306Y-118500000I-1469666J2500016D01*
G01*
X179500000Y-116000000D02*
G75*
G03X179500000Y-116000000I-2500000J0D01*
G01*
X175530306Y-118500000D02*
X178469694Y-118500000D01*
X178469666Y-88500016D02*
G75*
G03X175530306Y-88500000I-1469666J2500016D01*
G01*
X179500000Y-86000000D02*
G75*
G03X179500000Y-86000000I-2500000J0D01*
G01*
X175530306Y-88500000D02*
X178469694Y-88500000D01*
X146000000Y-84200000D02*
X145200000Y-84200000D01*
X146000000Y-82600000D02*
X146000000Y-84200000D01*
X145200000Y-82600000D02*
X146000000Y-82600000D01*
X145200000Y-84200000D02*
X145200000Y-82600000D01*
X117900000Y-108800000D02*
X117100000Y-108800000D01*
X117900000Y-107200000D02*
X117900000Y-108800000D01*
X117100000Y-107200000D02*
X117900000Y-107200000D01*
X117100000Y-108800000D02*
X117100000Y-107200000D01*
X145800000Y-107100000D02*
X146600000Y-107100000D01*
X145800000Y-108700000D02*
X145800000Y-107100000D01*
X146600000Y-108700000D02*
X145800000Y-108700000D01*
X146600000Y-107100000D02*
X146600000Y-108700000D01*
X160274000Y-118237000D02*
X160274000Y-120142000D01*
X160274000Y-120142000D02*
X150114000Y-120142000D01*
X150114000Y-120142000D02*
X150114000Y-117602000D01*
X150114000Y-117602000D02*
X159639000Y-117602000D01*
X159639000Y-117602000D02*
X160274000Y-118237000D01*
X108865000Y-88330000D02*
X110770000Y-88330000D01*
X110770000Y-88330000D02*
X110770000Y-113730000D01*
X110770000Y-113730000D02*
X108230000Y-113730000D01*
X108230000Y-113730000D02*
X108230000Y-88965000D01*
X108230000Y-88965000D02*
X108865000Y-88330000D01*
X118148000Y-118402000D02*
G75*
G03X118148000Y-118402000I-2500000J0D01*
G01*
X115648000Y-121852000D02*
X115648000Y-120652000D01*
X114998000Y-121252000D02*
X116298000Y-121252000D01*
X148900000Y-118402000D02*
G75*
G03X148900000Y-118402000I-2500000J0D01*
G01*
X146400000Y-114952000D02*
X146400000Y-116152000D01*
X147050000Y-115552000D02*
X145750000Y-115552000D01*
X156064000Y-84968000D02*
X156864000Y-84968000D01*
X156064000Y-86568000D02*
X156064000Y-84968000D01*
X156864000Y-86568000D02*
X156064000Y-86568000D01*
X156864000Y-84968000D02*
X156864000Y-86568000D01*
X159112000Y-85052000D02*
X159912000Y-85052000D01*
X159112000Y-86652000D02*
X159112000Y-85052000D01*
X159912000Y-86652000D02*
X159112000Y-86652000D01*
X159912000Y-85052000D02*
X159912000Y-86652000D01*
X122114000Y-103124000D02*
G75*
G03X122114000Y-103124000I-2500000J0D01*
G01*
X123064000Y-103124000D02*
X121864000Y-103124000D01*
X122464000Y-103774000D02*
X122464000Y-102474000D01*
X130420000Y-110216000D02*
X121270000Y-110216000D01*
X121270000Y-110216000D02*
X121270000Y-120416000D01*
X121270000Y-120416000D02*
X130420000Y-120416000D01*
X130420000Y-120416000D02*
X130420000Y-110216000D01*
X121270000Y-110216000D02*
X120851000Y-110216000D01*
X120851000Y-110216000D02*
X120000000Y-111159000D01*
X120000000Y-111159000D02*
X120000000Y-119473000D01*
X120000000Y-119473000D02*
X120851000Y-120416000D01*
X120851000Y-120416000D02*
X121270000Y-120416000D01*
X113000000Y-99300000D02*
X113000000Y-94700000D01*
X113000000Y-94700000D02*
X116000000Y-94700000D01*
X116000000Y-99300000D02*
X113000000Y-99300000D01*
X116000000Y-99300000D02*
X116000000Y-94700000D01*
X114498980Y-96350560D02*
X114498980Y-95448860D01*
X114498980Y-97501180D02*
X114498980Y-98499400D01*
X115299080Y-96350560D02*
X113698880Y-96350560D01*
X113749680Y-97501180D02*
X115299080Y-97501180D01*
X114498980Y-96350560D02*
X113749680Y-97501180D01*
X114498980Y-96350560D02*
X115299080Y-97501180D01*
X116000000Y-102200000D02*
X116000000Y-106800000D01*
X116000000Y-106800000D02*
X113000000Y-106800000D01*
X113000000Y-102200000D02*
X116000000Y-102200000D01*
X113000000Y-102200000D02*
X113000000Y-106800000D01*
X114501020Y-105149440D02*
X114501020Y-106051140D01*
X114501020Y-103998820D02*
X114501020Y-103000600D01*
X113700920Y-105149440D02*
X115301120Y-105149440D01*
X115250320Y-103998820D02*
X113700920Y-103998820D01*
X114501020Y-105149440D02*
X115250320Y-103998820D01*
X114501020Y-105149440D02*
X113700920Y-103998820D01*
X139350000Y-104000000D02*
X138850000Y-104000000D01*
X139350000Y-103600000D02*
X139950000Y-104000000D01*
X139350000Y-104400000D02*
X139350000Y-103600000D01*
X139950000Y-104000000D02*
X139350000Y-104400000D01*
X139950000Y-104000000D02*
X139950000Y-103450000D01*
X139950000Y-104000000D02*
X139950000Y-104550000D01*
X140350000Y-104000000D02*
X139950000Y-104000000D01*
X141000000Y-103100000D02*
X141000000Y-104900000D01*
X138200000Y-103100000D02*
X141000000Y-103100000D01*
X138200000Y-104900000D02*
X138200000Y-103100000D01*
X141000000Y-104900000D02*
X138200000Y-104900000D01*
X151750000Y-89154000D02*
X151250000Y-89154000D01*
X151750000Y-88754000D02*
X152350000Y-89154000D01*
X151750000Y-89554000D02*
X151750000Y-88754000D01*
X152350000Y-89154000D02*
X151750000Y-89554000D01*
X152350000Y-89154000D02*
X152350000Y-88604000D01*
X152350000Y-89154000D02*
X152350000Y-89704000D01*
X152750000Y-89154000D02*
X152350000Y-89154000D01*
X153400000Y-88254000D02*
X153400000Y-90054000D01*
X150600000Y-88254000D02*
X153400000Y-88254000D01*
X150600000Y-90054000D02*
X150600000Y-88254000D01*
X153400000Y-90054000D02*
X150600000Y-90054000D01*
X160100000Y-96400000D02*
X160100000Y-95600000D01*
X161700000Y-96400000D02*
X160100000Y-96400000D01*
X161700000Y-95600000D02*
X161700000Y-96400000D01*
X160100000Y-95600000D02*
X161700000Y-95600000D01*
D11*
X136491429Y-79396571D02*
X136634286Y-79444190D01*
X136681905Y-79491810D01*
X136729524Y-79587048D01*
X136729524Y-79729905D01*
X136681905Y-79825143D01*
X136634286Y-79872762D01*
X136539048Y-79920381D01*
X136158095Y-79920381D01*
X136158095Y-78920381D01*
X136491429Y-78920381D01*
X136586667Y-78968000D01*
X136634286Y-79015619D01*
X136681905Y-79110857D01*
X136681905Y-79206095D01*
X136634286Y-79301333D01*
X136586667Y-79348952D01*
X136491429Y-79396571D01*
X136158095Y-79396571D01*
X137586667Y-79253714D02*
X137586667Y-79920381D01*
X137158095Y-79253714D02*
X137158095Y-79777524D01*
X137205714Y-79872762D01*
X137300952Y-79920381D01*
X137443810Y-79920381D01*
X137539048Y-79872762D01*
X137586667Y-79825143D01*
X137967619Y-79253714D02*
X138491429Y-79253714D01*
X137967619Y-79920381D01*
X138491429Y-79920381D01*
X138777143Y-79253714D02*
X139300953Y-79253714D01*
X138777143Y-79920381D01*
X139300953Y-79920381D01*
X140062858Y-79872762D02*
X139967620Y-79920381D01*
X139777143Y-79920381D01*
X139681905Y-79872762D01*
X139634286Y-79777524D01*
X139634286Y-79396571D01*
X139681905Y-79301333D01*
X139777143Y-79253714D01*
X139967620Y-79253714D01*
X140062858Y-79301333D01*
X140110477Y-79396571D01*
X140110477Y-79491810D01*
X139634286Y-79587048D01*
X140539048Y-79920381D02*
X140539048Y-79253714D01*
X140539048Y-79444190D02*
X140586667Y-79348952D01*
X140634286Y-79301333D01*
X140729524Y-79253714D01*
X140824763Y-79253714D01*
X141849048Y-89479429D02*
X142610953Y-89479429D01*
X142230001Y-89860381D02*
X142230001Y-89098476D01*
X137539048Y-90796571D02*
X137681905Y-90844190D01*
X137729524Y-90891810D01*
X137777143Y-90987048D01*
X137777143Y-91129905D01*
X137729524Y-91225143D01*
X137681905Y-91272762D01*
X137586667Y-91320381D01*
X137205714Y-91320381D01*
X137205714Y-90320381D01*
X137539048Y-90320381D01*
X137634286Y-90368000D01*
X137681905Y-90415619D01*
X137729524Y-90510857D01*
X137729524Y-90606095D01*
X137681905Y-90701333D01*
X137634286Y-90748952D01*
X137539048Y-90796571D01*
X137205714Y-90796571D01*
X138110476Y-90320381D02*
X138777143Y-90320381D01*
X138110476Y-91320381D01*
X138777143Y-91320381D01*
X139681905Y-91320381D02*
X139110476Y-91320381D01*
X139396190Y-91320381D02*
X139396190Y-90320381D01*
X139300952Y-90463238D01*
X139205714Y-90558476D01*
X139110476Y-90606095D01*
X122952381Y-87904762D02*
X122952381Y-88476191D01*
X122952381Y-88190477D02*
X121952381Y-88190477D01*
X122095238Y-88285715D01*
X122190476Y-88380953D01*
X122238095Y-88476191D01*
X121952381Y-87285715D02*
X121952381Y-87190476D01*
X122000000Y-87095238D01*
X122047619Y-87047619D01*
X122142857Y-87000000D01*
X122333333Y-86952381D01*
X122571429Y-86952381D01*
X122761905Y-87000000D01*
X122857143Y-87047619D01*
X122904762Y-87095238D01*
X122952381Y-87190476D01*
X122952381Y-87285715D01*
X122904762Y-87380953D01*
X122857143Y-87428572D01*
X122761905Y-87476191D01*
X122571429Y-87523810D01*
X122333333Y-87523810D01*
X122142857Y-87476191D01*
X122047619Y-87428572D01*
X122000000Y-87380953D01*
X121952381Y-87285715D01*
X121952381Y-86333334D02*
X121952381Y-86238095D01*
X122000000Y-86142857D01*
X122047619Y-86095238D01*
X122142857Y-86047619D01*
X122333333Y-86000000D01*
X122571429Y-86000000D01*
X122761905Y-86047619D01*
X122857143Y-86095238D01*
X122904762Y-86142857D01*
X122952381Y-86238095D01*
X122952381Y-86333334D01*
X122904762Y-86428572D01*
X122857143Y-86476191D01*
X122761905Y-86523810D01*
X122571429Y-86571429D01*
X122333333Y-86571429D01*
X122142857Y-86523810D01*
X122047619Y-86476191D01*
X122000000Y-86428572D01*
X121952381Y-86333334D01*
X122285714Y-85571429D02*
X122952381Y-85571429D01*
X122380952Y-85571429D02*
X122333333Y-85523810D01*
X122285714Y-85428572D01*
X122285714Y-85285714D01*
X122333333Y-85190476D01*
X122428571Y-85142857D01*
X122952381Y-85142857D01*
X122285714Y-84809524D02*
X122285714Y-84428572D01*
X122952381Y-84666667D02*
X122095238Y-84666667D01*
X122000000Y-84619048D01*
X121952381Y-84523810D01*
X121952381Y-84428572D01*
X120107143Y-86666666D02*
X120154762Y-86714285D01*
X120202381Y-86857142D01*
X120202381Y-86952380D01*
X120154762Y-87095238D01*
X120059524Y-87190476D01*
X119964286Y-87238095D01*
X119773810Y-87285714D01*
X119630952Y-87285714D01*
X119440476Y-87238095D01*
X119345238Y-87190476D01*
X119250000Y-87095238D01*
X119202381Y-86952380D01*
X119202381Y-86857142D01*
X119250000Y-86714285D01*
X119297619Y-86666666D01*
X120202381Y-85714285D02*
X120202381Y-86285714D01*
X120202381Y-86000000D02*
X119202381Y-86000000D01*
X119345238Y-86095238D01*
X119440476Y-86190476D01*
X119488095Y-86285714D01*
X125661238Y-87296381D02*
X125089809Y-87296381D01*
X125375523Y-87296381D02*
X125375523Y-86296381D01*
X125280285Y-86439238D01*
X125185047Y-86534476D01*
X125089809Y-86582095D01*
X126280285Y-86296381D02*
X126375524Y-86296381D01*
X126470762Y-86344000D01*
X126518381Y-86391619D01*
X126566000Y-86486857D01*
X126613619Y-86677333D01*
X126613619Y-86915429D01*
X126566000Y-87105905D01*
X126518381Y-87201143D01*
X126470762Y-87248762D01*
X126375524Y-87296381D01*
X126280285Y-87296381D01*
X126185047Y-87248762D01*
X126137428Y-87201143D01*
X126089809Y-87105905D01*
X126042190Y-86915429D01*
X126042190Y-86677333D01*
X126089809Y-86486857D01*
X126137428Y-86391619D01*
X126185047Y-86344000D01*
X126280285Y-86296381D01*
X127232666Y-86296381D02*
X127327905Y-86296381D01*
X127423143Y-86344000D01*
X127470762Y-86391619D01*
X127518381Y-86486857D01*
X127566000Y-86677333D01*
X127566000Y-86915429D01*
X127518381Y-87105905D01*
X127470762Y-87201143D01*
X127423143Y-87248762D01*
X127327905Y-87296381D01*
X127232666Y-87296381D01*
X127137428Y-87248762D01*
X127089809Y-87201143D01*
X127042190Y-87105905D01*
X126994571Y-86915429D01*
X126994571Y-86677333D01*
X127042190Y-86486857D01*
X127089809Y-86391619D01*
X127137428Y-86344000D01*
X127232666Y-86296381D01*
X127994571Y-86629714D02*
X127994571Y-87296381D01*
X127994571Y-86724952D02*
X128042190Y-86677333D01*
X128137428Y-86629714D01*
X128280286Y-86629714D01*
X128375524Y-86677333D01*
X128423143Y-86772571D01*
X128423143Y-87296381D01*
X128756476Y-86629714D02*
X129137428Y-86629714D01*
X128899333Y-87296381D02*
X128899333Y-86439238D01*
X128946952Y-86344000D01*
X129042190Y-86296381D01*
X129137428Y-86296381D01*
X126899334Y-84451143D02*
X126851715Y-84498762D01*
X126708858Y-84546381D01*
X126613620Y-84546381D01*
X126470762Y-84498762D01*
X126375524Y-84403524D01*
X126327905Y-84308286D01*
X126280286Y-84117810D01*
X126280286Y-83974952D01*
X126327905Y-83784476D01*
X126375524Y-83689238D01*
X126470762Y-83594000D01*
X126613620Y-83546381D01*
X126708858Y-83546381D01*
X126851715Y-83594000D01*
X126899334Y-83641619D01*
X127470762Y-83974952D02*
X127375524Y-83927333D01*
X127327905Y-83879714D01*
X127280286Y-83784476D01*
X127280286Y-83736857D01*
X127327905Y-83641619D01*
X127375524Y-83594000D01*
X127470762Y-83546381D01*
X127661239Y-83546381D01*
X127756477Y-83594000D01*
X127804096Y-83641619D01*
X127851715Y-83736857D01*
X127851715Y-83784476D01*
X127804096Y-83879714D01*
X127756477Y-83927333D01*
X127661239Y-83974952D01*
X127470762Y-83974952D01*
X127375524Y-84022571D01*
X127327905Y-84070190D01*
X127280286Y-84165429D01*
X127280286Y-84355905D01*
X127327905Y-84451143D01*
X127375524Y-84498762D01*
X127470762Y-84546381D01*
X127661239Y-84546381D01*
X127756477Y-84498762D01*
X127804096Y-84451143D01*
X127851715Y-84355905D01*
X127851715Y-84165429D01*
X127804096Y-84070190D01*
X127756477Y-84022571D01*
X127661239Y-83974952D01*
X154952381Y-84554762D02*
X154952381Y-85126191D01*
X154952381Y-84840477D02*
X153952381Y-84840477D01*
X154095238Y-84935715D01*
X154190476Y-85030953D01*
X154238095Y-85126191D01*
X153952381Y-83935715D02*
X153952381Y-83840476D01*
X154000000Y-83745238D01*
X154047619Y-83697619D01*
X154142857Y-83650000D01*
X154333333Y-83602381D01*
X154571429Y-83602381D01*
X154761905Y-83650000D01*
X154857143Y-83697619D01*
X154904762Y-83745238D01*
X154952381Y-83840476D01*
X154952381Y-83935715D01*
X154904762Y-84030953D01*
X154857143Y-84078572D01*
X154761905Y-84126191D01*
X154571429Y-84173810D01*
X154333333Y-84173810D01*
X154142857Y-84126191D01*
X154047619Y-84078572D01*
X154000000Y-84030953D01*
X153952381Y-83935715D01*
X153952381Y-82983334D02*
X153952381Y-82888095D01*
X154000000Y-82792857D01*
X154047619Y-82745238D01*
X154142857Y-82697619D01*
X154333333Y-82650000D01*
X154571429Y-82650000D01*
X154761905Y-82697619D01*
X154857143Y-82745238D01*
X154904762Y-82792857D01*
X154952381Y-82888095D01*
X154952381Y-82983334D01*
X154904762Y-83078572D01*
X154857143Y-83126191D01*
X154761905Y-83173810D01*
X154571429Y-83221429D01*
X154333333Y-83221429D01*
X154142857Y-83173810D01*
X154047619Y-83126191D01*
X154000000Y-83078572D01*
X153952381Y-82983334D01*
X154285714Y-82221429D02*
X154952381Y-82221429D01*
X154380952Y-82221429D02*
X154333333Y-82173810D01*
X154285714Y-82078572D01*
X154285714Y-81935714D01*
X154333333Y-81840476D01*
X154428571Y-81792857D01*
X154952381Y-81792857D01*
X154285714Y-81459524D02*
X154285714Y-81078572D01*
X154952381Y-81316667D02*
X154095238Y-81316667D01*
X154000000Y-81269048D01*
X153952381Y-81173810D01*
X153952381Y-81078572D01*
X152107143Y-83792857D02*
X152154762Y-83840476D01*
X152202381Y-83983333D01*
X152202381Y-84078571D01*
X152154762Y-84221429D01*
X152059524Y-84316667D01*
X151964286Y-84364286D01*
X151773810Y-84411905D01*
X151630952Y-84411905D01*
X151440476Y-84364286D01*
X151345238Y-84316667D01*
X151250000Y-84221429D01*
X151202381Y-84078571D01*
X151202381Y-83983333D01*
X151250000Y-83840476D01*
X151297619Y-83792857D01*
X152202381Y-82840476D02*
X152202381Y-83411905D01*
X152202381Y-83126191D02*
X151202381Y-83126191D01*
X151345238Y-83221429D01*
X151440476Y-83316667D01*
X151488095Y-83411905D01*
X152202381Y-81888095D02*
X152202381Y-82459524D01*
X152202381Y-82173810D02*
X151202381Y-82173810D01*
X151345238Y-82269048D01*
X151440476Y-82364286D01*
X151488095Y-82459524D01*
X153352381Y-84554762D02*
X153352381Y-85126191D01*
X153352381Y-84840477D02*
X152352381Y-84840477D01*
X152495238Y-84935715D01*
X152590476Y-85030953D01*
X152638095Y-85126191D01*
X152352381Y-83935715D02*
X152352381Y-83840476D01*
X152400000Y-83745238D01*
X152447619Y-83697619D01*
X152542857Y-83650000D01*
X152733333Y-83602381D01*
X152971429Y-83602381D01*
X153161905Y-83650000D01*
X153257143Y-83697619D01*
X153304762Y-83745238D01*
X153352381Y-83840476D01*
X153352381Y-83935715D01*
X153304762Y-84030953D01*
X153257143Y-84078572D01*
X153161905Y-84126191D01*
X152971429Y-84173810D01*
X152733333Y-84173810D01*
X152542857Y-84126191D01*
X152447619Y-84078572D01*
X152400000Y-84030953D01*
X152352381Y-83935715D01*
X152352381Y-82983334D02*
X152352381Y-82888095D01*
X152400000Y-82792857D01*
X152447619Y-82745238D01*
X152542857Y-82697619D01*
X152733333Y-82650000D01*
X152971429Y-82650000D01*
X153161905Y-82697619D01*
X153257143Y-82745238D01*
X153304762Y-82792857D01*
X153352381Y-82888095D01*
X153352381Y-82983334D01*
X153304762Y-83078572D01*
X153257143Y-83126191D01*
X153161905Y-83173810D01*
X152971429Y-83221429D01*
X152733333Y-83221429D01*
X152542857Y-83173810D01*
X152447619Y-83126191D01*
X152400000Y-83078572D01*
X152352381Y-82983334D01*
X152685714Y-82221429D02*
X153352381Y-82221429D01*
X152780952Y-82221429D02*
X152733333Y-82173810D01*
X152685714Y-82078572D01*
X152685714Y-81935714D01*
X152733333Y-81840476D01*
X152828571Y-81792857D01*
X153352381Y-81792857D01*
X152685714Y-81459524D02*
X152685714Y-81078572D01*
X153352381Y-81316667D02*
X152495238Y-81316667D01*
X152400000Y-81269048D01*
X152352381Y-81173810D01*
X152352381Y-81078572D01*
X150507143Y-83792857D02*
X150554762Y-83840476D01*
X150602381Y-83983333D01*
X150602381Y-84078571D01*
X150554762Y-84221429D01*
X150459524Y-84316667D01*
X150364286Y-84364286D01*
X150173810Y-84411905D01*
X150030952Y-84411905D01*
X149840476Y-84364286D01*
X149745238Y-84316667D01*
X149650000Y-84221429D01*
X149602381Y-84078571D01*
X149602381Y-83983333D01*
X149650000Y-83840476D01*
X149697619Y-83792857D01*
X150602381Y-82840476D02*
X150602381Y-83411905D01*
X150602381Y-83126191D02*
X149602381Y-83126191D01*
X149745238Y-83221429D01*
X149840476Y-83316667D01*
X149888095Y-83411905D01*
X149935714Y-81983333D02*
X150602381Y-81983333D01*
X149554762Y-82221429D02*
X150269048Y-82459524D01*
X150269048Y-81840476D01*
X151752381Y-84554762D02*
X151752381Y-85126191D01*
X151752381Y-84840477D02*
X150752381Y-84840477D01*
X150895238Y-84935715D01*
X150990476Y-85030953D01*
X151038095Y-85126191D01*
X150752381Y-83935715D02*
X150752381Y-83840476D01*
X150800000Y-83745238D01*
X150847619Y-83697619D01*
X150942857Y-83650000D01*
X151133333Y-83602381D01*
X151371429Y-83602381D01*
X151561905Y-83650000D01*
X151657143Y-83697619D01*
X151704762Y-83745238D01*
X151752381Y-83840476D01*
X151752381Y-83935715D01*
X151704762Y-84030953D01*
X151657143Y-84078572D01*
X151561905Y-84126191D01*
X151371429Y-84173810D01*
X151133333Y-84173810D01*
X150942857Y-84126191D01*
X150847619Y-84078572D01*
X150800000Y-84030953D01*
X150752381Y-83935715D01*
X150752381Y-82983334D02*
X150752381Y-82888095D01*
X150800000Y-82792857D01*
X150847619Y-82745238D01*
X150942857Y-82697619D01*
X151133333Y-82650000D01*
X151371429Y-82650000D01*
X151561905Y-82697619D01*
X151657143Y-82745238D01*
X151704762Y-82792857D01*
X151752381Y-82888095D01*
X151752381Y-82983334D01*
X151704762Y-83078572D01*
X151657143Y-83126191D01*
X151561905Y-83173810D01*
X151371429Y-83221429D01*
X151133333Y-83221429D01*
X150942857Y-83173810D01*
X150847619Y-83126191D01*
X150800000Y-83078572D01*
X150752381Y-82983334D01*
X151085714Y-82221429D02*
X151752381Y-82221429D01*
X151180952Y-82221429D02*
X151133333Y-82173810D01*
X151085714Y-82078572D01*
X151085714Y-81935714D01*
X151133333Y-81840476D01*
X151228571Y-81792857D01*
X151752381Y-81792857D01*
X151085714Y-81459524D02*
X151085714Y-81078572D01*
X151752381Y-81316667D02*
X150895238Y-81316667D01*
X150800000Y-81269048D01*
X150752381Y-81173810D01*
X150752381Y-81078572D01*
X148907143Y-83792857D02*
X148954762Y-83840476D01*
X149002381Y-83983333D01*
X149002381Y-84078571D01*
X148954762Y-84221429D01*
X148859524Y-84316667D01*
X148764286Y-84364286D01*
X148573810Y-84411905D01*
X148430952Y-84411905D01*
X148240476Y-84364286D01*
X148145238Y-84316667D01*
X148050000Y-84221429D01*
X148002381Y-84078571D01*
X148002381Y-83983333D01*
X148050000Y-83840476D01*
X148097619Y-83792857D01*
X149002381Y-82840476D02*
X149002381Y-83411905D01*
X149002381Y-83126191D02*
X148002381Y-83126191D01*
X148145238Y-83221429D01*
X148240476Y-83316667D01*
X148288095Y-83411905D01*
X148002381Y-81983333D02*
X148002381Y-82173810D01*
X148050000Y-82269048D01*
X148097619Y-82316667D01*
X148240476Y-82411905D01*
X148430952Y-82459524D01*
X148811905Y-82459524D01*
X148907143Y-82411905D01*
X148954762Y-82364286D01*
X149002381Y-82269048D01*
X149002381Y-82078571D01*
X148954762Y-81983333D01*
X148907143Y-81935714D01*
X148811905Y-81888095D01*
X148573810Y-81888095D01*
X148478571Y-81935714D01*
X148430952Y-81983333D01*
X148383333Y-82078571D01*
X148383333Y-82269048D01*
X148430952Y-82364286D01*
X148478571Y-82411905D01*
X148573810Y-82459524D01*
X150152381Y-84554762D02*
X150152381Y-85126191D01*
X150152381Y-84840477D02*
X149152381Y-84840477D01*
X149295238Y-84935715D01*
X149390476Y-85030953D01*
X149438095Y-85126191D01*
X149152381Y-83935715D02*
X149152381Y-83840476D01*
X149200000Y-83745238D01*
X149247619Y-83697619D01*
X149342857Y-83650000D01*
X149533333Y-83602381D01*
X149771429Y-83602381D01*
X149961905Y-83650000D01*
X150057143Y-83697619D01*
X150104762Y-83745238D01*
X150152381Y-83840476D01*
X150152381Y-83935715D01*
X150104762Y-84030953D01*
X150057143Y-84078572D01*
X149961905Y-84126191D01*
X149771429Y-84173810D01*
X149533333Y-84173810D01*
X149342857Y-84126191D01*
X149247619Y-84078572D01*
X149200000Y-84030953D01*
X149152381Y-83935715D01*
X149152381Y-82983334D02*
X149152381Y-82888095D01*
X149200000Y-82792857D01*
X149247619Y-82745238D01*
X149342857Y-82697619D01*
X149533333Y-82650000D01*
X149771429Y-82650000D01*
X149961905Y-82697619D01*
X150057143Y-82745238D01*
X150104762Y-82792857D01*
X150152381Y-82888095D01*
X150152381Y-82983334D01*
X150104762Y-83078572D01*
X150057143Y-83126191D01*
X149961905Y-83173810D01*
X149771429Y-83221429D01*
X149533333Y-83221429D01*
X149342857Y-83173810D01*
X149247619Y-83126191D01*
X149200000Y-83078572D01*
X149152381Y-82983334D01*
X149485714Y-82221429D02*
X150152381Y-82221429D01*
X149580952Y-82221429D02*
X149533333Y-82173810D01*
X149485714Y-82078572D01*
X149485714Y-81935714D01*
X149533333Y-81840476D01*
X149628571Y-81792857D01*
X150152381Y-81792857D01*
X149485714Y-81459524D02*
X149485714Y-81078572D01*
X150152381Y-81316667D02*
X149295238Y-81316667D01*
X149200000Y-81269048D01*
X149152381Y-81173810D01*
X149152381Y-81078572D01*
X147307143Y-83792857D02*
X147354762Y-83840476D01*
X147402381Y-83983333D01*
X147402381Y-84078571D01*
X147354762Y-84221429D01*
X147259524Y-84316667D01*
X147164286Y-84364286D01*
X146973810Y-84411905D01*
X146830952Y-84411905D01*
X146640476Y-84364286D01*
X146545238Y-84316667D01*
X146450000Y-84221429D01*
X146402381Y-84078571D01*
X146402381Y-83983333D01*
X146450000Y-83840476D01*
X146497619Y-83792857D01*
X147402381Y-82840476D02*
X147402381Y-83411905D01*
X147402381Y-83126191D02*
X146402381Y-83126191D01*
X146545238Y-83221429D01*
X146640476Y-83316667D01*
X146688095Y-83411905D01*
X146402381Y-82507143D02*
X146402381Y-81840476D01*
X147402381Y-82269048D01*
X120952381Y-87904762D02*
X120952381Y-88476191D01*
X120952381Y-88190477D02*
X119952381Y-88190477D01*
X120095238Y-88285715D01*
X120190476Y-88380953D01*
X120238095Y-88476191D01*
X119952381Y-87285715D02*
X119952381Y-87190476D01*
X120000000Y-87095238D01*
X120047619Y-87047619D01*
X120142857Y-87000000D01*
X120333333Y-86952381D01*
X120571429Y-86952381D01*
X120761905Y-87000000D01*
X120857143Y-87047619D01*
X120904762Y-87095238D01*
X120952381Y-87190476D01*
X120952381Y-87285715D01*
X120904762Y-87380953D01*
X120857143Y-87428572D01*
X120761905Y-87476191D01*
X120571429Y-87523810D01*
X120333333Y-87523810D01*
X120142857Y-87476191D01*
X120047619Y-87428572D01*
X120000000Y-87380953D01*
X119952381Y-87285715D01*
X119952381Y-86333334D02*
X119952381Y-86238095D01*
X120000000Y-86142857D01*
X120047619Y-86095238D01*
X120142857Y-86047619D01*
X120333333Y-86000000D01*
X120571429Y-86000000D01*
X120761905Y-86047619D01*
X120857143Y-86095238D01*
X120904762Y-86142857D01*
X120952381Y-86238095D01*
X120952381Y-86333334D01*
X120904762Y-86428572D01*
X120857143Y-86476191D01*
X120761905Y-86523810D01*
X120571429Y-86571429D01*
X120333333Y-86571429D01*
X120142857Y-86523810D01*
X120047619Y-86476191D01*
X120000000Y-86428572D01*
X119952381Y-86333334D01*
X120285714Y-85571429D02*
X120952381Y-85571429D01*
X120380952Y-85571429D02*
X120333333Y-85523810D01*
X120285714Y-85428572D01*
X120285714Y-85285714D01*
X120333333Y-85190476D01*
X120428571Y-85142857D01*
X120952381Y-85142857D01*
X120285714Y-84809524D02*
X120285714Y-84428572D01*
X120952381Y-84666667D02*
X120095238Y-84666667D01*
X120000000Y-84619048D01*
X119952381Y-84523810D01*
X119952381Y-84428572D01*
X118107143Y-87142857D02*
X118154762Y-87190476D01*
X118202381Y-87333333D01*
X118202381Y-87428571D01*
X118154762Y-87571429D01*
X118059524Y-87666667D01*
X117964286Y-87714286D01*
X117773810Y-87761905D01*
X117630952Y-87761905D01*
X117440476Y-87714286D01*
X117345238Y-87666667D01*
X117250000Y-87571429D01*
X117202381Y-87428571D01*
X117202381Y-87333333D01*
X117250000Y-87190476D01*
X117297619Y-87142857D01*
X118202381Y-86190476D02*
X118202381Y-86761905D01*
X118202381Y-86476191D02*
X117202381Y-86476191D01*
X117345238Y-86571429D01*
X117440476Y-86666667D01*
X117488095Y-86761905D01*
X117630952Y-85619048D02*
X117583333Y-85714286D01*
X117535714Y-85761905D01*
X117440476Y-85809524D01*
X117392857Y-85809524D01*
X117297619Y-85761905D01*
X117250000Y-85714286D01*
X117202381Y-85619048D01*
X117202381Y-85428571D01*
X117250000Y-85333333D01*
X117297619Y-85285714D01*
X117392857Y-85238095D01*
X117440476Y-85238095D01*
X117535714Y-85285714D01*
X117583333Y-85333333D01*
X117630952Y-85428571D01*
X117630952Y-85619048D01*
X117678571Y-85714286D01*
X117726190Y-85761905D01*
X117821429Y-85809524D01*
X118011905Y-85809524D01*
X118107143Y-85761905D01*
X118154762Y-85714286D01*
X118202381Y-85619048D01*
X118202381Y-85428571D01*
X118154762Y-85333333D01*
X118107143Y-85285714D01*
X118011905Y-85238095D01*
X117821429Y-85238095D01*
X117726190Y-85285714D01*
X117678571Y-85333333D01*
X117630952Y-85428571D01*
X125661238Y-89328381D02*
X125089809Y-89328381D01*
X125375523Y-89328381D02*
X125375523Y-88328381D01*
X125280285Y-88471238D01*
X125185047Y-88566476D01*
X125089809Y-88614095D01*
X126280285Y-88328381D02*
X126375524Y-88328381D01*
X126470762Y-88376000D01*
X126518381Y-88423619D01*
X126566000Y-88518857D01*
X126613619Y-88709333D01*
X126613619Y-88947429D01*
X126566000Y-89137905D01*
X126518381Y-89233143D01*
X126470762Y-89280762D01*
X126375524Y-89328381D01*
X126280285Y-89328381D01*
X126185047Y-89280762D01*
X126137428Y-89233143D01*
X126089809Y-89137905D01*
X126042190Y-88947429D01*
X126042190Y-88709333D01*
X126089809Y-88518857D01*
X126137428Y-88423619D01*
X126185047Y-88376000D01*
X126280285Y-88328381D01*
X127232666Y-88328381D02*
X127327905Y-88328381D01*
X127423143Y-88376000D01*
X127470762Y-88423619D01*
X127518381Y-88518857D01*
X127566000Y-88709333D01*
X127566000Y-88947429D01*
X127518381Y-89137905D01*
X127470762Y-89233143D01*
X127423143Y-89280762D01*
X127327905Y-89328381D01*
X127232666Y-89328381D01*
X127137428Y-89280762D01*
X127089809Y-89233143D01*
X127042190Y-89137905D01*
X126994571Y-88947429D01*
X126994571Y-88709333D01*
X127042190Y-88518857D01*
X127089809Y-88423619D01*
X127137428Y-88376000D01*
X127232666Y-88328381D01*
X127994571Y-88661714D02*
X127994571Y-89328381D01*
X127994571Y-88756952D02*
X128042190Y-88709333D01*
X128137428Y-88661714D01*
X128280286Y-88661714D01*
X128375524Y-88709333D01*
X128423143Y-88804571D01*
X128423143Y-89328381D01*
X128756476Y-88661714D02*
X129137428Y-88661714D01*
X128899333Y-89328381D02*
X128899333Y-88471238D01*
X128946952Y-88376000D01*
X129042190Y-88328381D01*
X129137428Y-88328381D01*
X126423143Y-86483143D02*
X126375524Y-86530762D01*
X126232667Y-86578381D01*
X126137429Y-86578381D01*
X125994571Y-86530762D01*
X125899333Y-86435524D01*
X125851714Y-86340286D01*
X125804095Y-86149810D01*
X125804095Y-86006952D01*
X125851714Y-85816476D01*
X125899333Y-85721238D01*
X125994571Y-85626000D01*
X126137429Y-85578381D01*
X126232667Y-85578381D01*
X126375524Y-85626000D01*
X126423143Y-85673619D01*
X127375524Y-86578381D02*
X126804095Y-86578381D01*
X127089809Y-86578381D02*
X127089809Y-85578381D01*
X126994571Y-85721238D01*
X126899333Y-85816476D01*
X126804095Y-85864095D01*
X127851714Y-86578381D02*
X128042190Y-86578381D01*
X128137429Y-86530762D01*
X128185048Y-86483143D01*
X128280286Y-86340286D01*
X128327905Y-86149810D01*
X128327905Y-85768857D01*
X128280286Y-85673619D01*
X128232667Y-85626000D01*
X128137429Y-85578381D01*
X127946952Y-85578381D01*
X127851714Y-85626000D01*
X127804095Y-85673619D01*
X127756476Y-85768857D01*
X127756476Y-86006952D01*
X127804095Y-86102190D01*
X127851714Y-86149810D01*
X127946952Y-86197429D01*
X128137429Y-86197429D01*
X128232667Y-86149810D01*
X128280286Y-86102190D01*
X128327905Y-86006952D01*
X117502381Y-98521428D02*
X117502381Y-99092857D01*
X117502381Y-98807143D02*
X116502381Y-98807143D01*
X116645238Y-98902381D01*
X116740476Y-98997619D01*
X116788095Y-99092857D01*
X116502381Y-97902381D02*
X116502381Y-97807142D01*
X116550000Y-97711904D01*
X116597619Y-97664285D01*
X116692857Y-97616666D01*
X116883333Y-97569047D01*
X117121429Y-97569047D01*
X117311905Y-97616666D01*
X117407143Y-97664285D01*
X117454762Y-97711904D01*
X117502381Y-97807142D01*
X117502381Y-97902381D01*
X117454762Y-97997619D01*
X117407143Y-98045238D01*
X117311905Y-98092857D01*
X117121429Y-98140476D01*
X116883333Y-98140476D01*
X116692857Y-98092857D01*
X116597619Y-98045238D01*
X116550000Y-97997619D01*
X116502381Y-97902381D01*
X116835714Y-97140476D02*
X117835714Y-97140476D01*
X116883333Y-97140476D02*
X116835714Y-97045238D01*
X116835714Y-96854761D01*
X116883333Y-96759523D01*
X116930952Y-96711904D01*
X117026190Y-96664285D01*
X117311905Y-96664285D01*
X117407143Y-96711904D01*
X117454762Y-96759523D01*
X117502381Y-96854761D01*
X117502381Y-97045238D01*
X117454762Y-97140476D01*
X116978571Y-95902380D02*
X116978571Y-96235714D01*
X117502381Y-96235714D02*
X116502381Y-96235714D01*
X116502381Y-95759523D01*
X120157143Y-98092857D02*
X120204762Y-98140476D01*
X120252381Y-98283333D01*
X120252381Y-98378571D01*
X120204762Y-98521429D01*
X120109524Y-98616667D01*
X120014286Y-98664286D01*
X119823810Y-98711905D01*
X119680952Y-98711905D01*
X119490476Y-98664286D01*
X119395238Y-98616667D01*
X119300000Y-98521429D01*
X119252381Y-98378571D01*
X119252381Y-98283333D01*
X119300000Y-98140476D01*
X119347619Y-98092857D01*
X119347619Y-97711905D02*
X119300000Y-97664286D01*
X119252381Y-97569048D01*
X119252381Y-97330952D01*
X119300000Y-97235714D01*
X119347619Y-97188095D01*
X119442857Y-97140476D01*
X119538095Y-97140476D01*
X119680952Y-97188095D01*
X120252381Y-97759524D01*
X120252381Y-97140476D01*
X119347619Y-96759524D02*
X119300000Y-96711905D01*
X119252381Y-96616667D01*
X119252381Y-96378571D01*
X119300000Y-96283333D01*
X119347619Y-96235714D01*
X119442857Y-96188095D01*
X119538095Y-96188095D01*
X119680952Y-96235714D01*
X120252381Y-96807143D01*
X120252381Y-96188095D01*
X127270286Y-85289714D02*
X127270286Y-85956381D01*
X127032190Y-84908762D02*
X126794095Y-85623048D01*
X127413143Y-85623048D01*
X128365524Y-85956381D02*
X128032190Y-85480190D01*
X127794095Y-85956381D02*
X127794095Y-84956381D01*
X128175048Y-84956381D01*
X128270286Y-85004000D01*
X128317905Y-85051619D01*
X128365524Y-85146857D01*
X128365524Y-85289714D01*
X128317905Y-85384952D01*
X128270286Y-85432571D01*
X128175048Y-85480190D01*
X127794095Y-85480190D01*
X128698857Y-84956381D02*
X129365524Y-84956381D01*
X128936952Y-85956381D01*
X129746476Y-85956381D02*
X129746476Y-84956381D01*
X130317905Y-85956381D02*
X129889333Y-85384952D01*
X130317905Y-84956381D02*
X129746476Y-85527810D01*
D12*
X128472667Y-83030190D02*
X128234572Y-83030190D01*
X128234572Y-82530190D01*
X128901238Y-83030190D02*
X128615524Y-83030190D01*
X128758381Y-83030190D02*
X128758381Y-82530190D01*
X128710762Y-82601619D01*
X128663143Y-82649238D01*
X128615524Y-82673048D01*
D11*
X128149714Y-95265714D02*
X128816381Y-95265714D01*
X127768762Y-95503810D02*
X128483048Y-95741905D01*
X128483048Y-95122857D01*
X128816381Y-94170476D02*
X128340190Y-94503810D01*
X128816381Y-94741905D02*
X127816381Y-94741905D01*
X127816381Y-94360952D01*
X127864000Y-94265714D01*
X127911619Y-94218095D01*
X128006857Y-94170476D01*
X128149714Y-94170476D01*
X128244952Y-94218095D01*
X128292571Y-94265714D01*
X128340190Y-94360952D01*
X128340190Y-94741905D01*
X127816381Y-93837143D02*
X127816381Y-93170476D01*
X128816381Y-93599048D01*
X128816381Y-92789524D02*
X127816381Y-92789524D01*
X128816381Y-92218095D02*
X128244952Y-92646667D01*
X127816381Y-92218095D02*
X128387810Y-92789524D01*
D12*
X131290190Y-94063333D02*
X131290190Y-94301428D01*
X130790190Y-94301428D01*
X130837810Y-93920476D02*
X130814000Y-93896666D01*
X130790190Y-93849047D01*
X130790190Y-93730000D01*
X130814000Y-93682381D01*
X130837810Y-93658571D01*
X130885429Y-93634762D01*
X130933048Y-93634762D01*
X131004476Y-93658571D01*
X131290190Y-93944285D01*
X131290190Y-93634762D01*
D11*
X182452381Y-120600000D02*
X182452381Y-121076191D01*
X181452381Y-121076191D01*
X181928571Y-120266667D02*
X181928571Y-119933333D01*
X182452381Y-119790476D02*
X182452381Y-120266667D01*
X181452381Y-120266667D01*
X181452381Y-119790476D01*
X182452381Y-119361905D02*
X181452381Y-119361905D01*
X181452381Y-119123810D01*
X181500000Y-118980952D01*
X181595238Y-118885714D01*
X181690476Y-118838095D01*
X181880952Y-118790476D01*
X182023810Y-118790476D01*
X182214286Y-118838095D01*
X182309524Y-118885714D01*
X182404762Y-118980952D01*
X182452381Y-119123810D01*
X182452381Y-119361905D01*
X182547619Y-118600000D02*
X182547619Y-117838095D01*
X182452381Y-117600000D02*
X181452381Y-117600000D01*
X181452381Y-117361905D01*
X181500000Y-117219047D01*
X181595238Y-117123809D01*
X181690476Y-117076190D01*
X181880952Y-117028571D01*
X182023810Y-117028571D01*
X182214286Y-117076190D01*
X182309524Y-117123809D01*
X182404762Y-117219047D01*
X182452381Y-117361905D01*
X182452381Y-117600000D01*
X181785714Y-116171428D02*
X182452381Y-116171428D01*
X181785714Y-116600000D02*
X182309524Y-116600000D01*
X182404762Y-116552381D01*
X182452381Y-116457143D01*
X182452381Y-116314285D01*
X182404762Y-116219047D01*
X182357143Y-116171428D01*
X182452381Y-115266666D02*
X181928571Y-115266666D01*
X181833333Y-115314285D01*
X181785714Y-115409523D01*
X181785714Y-115600000D01*
X181833333Y-115695238D01*
X182404762Y-115266666D02*
X182452381Y-115361904D01*
X182452381Y-115600000D01*
X182404762Y-115695238D01*
X182309524Y-115742857D01*
X182214286Y-115742857D01*
X182119048Y-115695238D01*
X182071429Y-115600000D01*
X182071429Y-115361904D01*
X182023810Y-115266666D01*
X182452381Y-114647619D02*
X182404762Y-114742857D01*
X182309524Y-114790476D01*
X181452381Y-114790476D01*
X182547619Y-114504761D02*
X182547619Y-113742856D01*
X182357143Y-112933332D02*
X182404762Y-112980951D01*
X182452381Y-113123808D01*
X182452381Y-113219046D01*
X182404762Y-113361904D01*
X182309524Y-113457142D01*
X182214286Y-113504761D01*
X182023810Y-113552380D01*
X181880952Y-113552380D01*
X181690476Y-113504761D01*
X181595238Y-113457142D01*
X181500000Y-113361904D01*
X181452381Y-113219046D01*
X181452381Y-113123808D01*
X181500000Y-112980951D01*
X181547619Y-112933332D01*
X182166667Y-112552380D02*
X182166667Y-112076189D01*
X182452381Y-112647618D02*
X181452381Y-112314285D01*
X182452381Y-111980951D01*
X182357143Y-111076189D02*
X182404762Y-111123808D01*
X182452381Y-111266665D01*
X182452381Y-111361903D01*
X182404762Y-111504761D01*
X182309524Y-111599999D01*
X182214286Y-111647618D01*
X182023810Y-111695237D01*
X181880952Y-111695237D01*
X181690476Y-111647618D01*
X181595238Y-111599999D01*
X181500000Y-111504761D01*
X181452381Y-111361903D01*
X181452381Y-111266665D01*
X181500000Y-111123808D01*
X181547619Y-111076189D01*
X181412381Y-94380953D02*
X181412381Y-94857144D01*
X180412381Y-94857144D01*
X180888571Y-94047620D02*
X180888571Y-93714286D01*
X181412381Y-93571429D02*
X181412381Y-94047620D01*
X180412381Y-94047620D01*
X180412381Y-93571429D01*
X181412381Y-93142858D02*
X180412381Y-93142858D01*
X180412381Y-92904763D01*
X180460000Y-92761905D01*
X180555238Y-92666667D01*
X180650476Y-92619048D01*
X180840952Y-92571429D01*
X180983810Y-92571429D01*
X181174286Y-92619048D01*
X181269524Y-92666667D01*
X181364762Y-92761905D01*
X181412381Y-92904763D01*
X181412381Y-93142858D01*
X181507619Y-92380953D02*
X181507619Y-91619048D01*
X181412381Y-91380953D02*
X180412381Y-91380953D01*
X180412381Y-91142858D01*
X180460000Y-91000000D01*
X180555238Y-90904762D01*
X180650476Y-90857143D01*
X180840952Y-90809524D01*
X180983810Y-90809524D01*
X181174286Y-90857143D01*
X181269524Y-90904762D01*
X181364762Y-91000000D01*
X181412381Y-91142858D01*
X181412381Y-91380953D01*
X180745714Y-89952381D02*
X181412381Y-89952381D01*
X180745714Y-90380953D02*
X181269524Y-90380953D01*
X181364762Y-90333334D01*
X181412381Y-90238096D01*
X181412381Y-90095238D01*
X181364762Y-90000000D01*
X181317143Y-89952381D01*
X181412381Y-89047619D02*
X180888571Y-89047619D01*
X180793333Y-89095238D01*
X180745714Y-89190476D01*
X180745714Y-89380953D01*
X180793333Y-89476191D01*
X181364762Y-89047619D02*
X181412381Y-89142857D01*
X181412381Y-89380953D01*
X181364762Y-89476191D01*
X181269524Y-89523810D01*
X181174286Y-89523810D01*
X181079048Y-89476191D01*
X181031429Y-89380953D01*
X181031429Y-89142857D01*
X180983810Y-89047619D01*
X181412381Y-88428572D02*
X181364762Y-88523810D01*
X181269524Y-88571429D01*
X180412381Y-88571429D01*
X181507619Y-88285714D02*
X181507619Y-87523809D01*
X181126667Y-87333333D02*
X181126667Y-86857142D01*
X181412381Y-87428571D02*
X180412381Y-87095238D01*
X181412381Y-86761904D01*
X181317143Y-85857142D02*
X181364762Y-85904761D01*
X181412381Y-86047618D01*
X181412381Y-86142856D01*
X181364762Y-86285714D01*
X181269524Y-86380952D01*
X181174286Y-86428571D01*
X180983810Y-86476190D01*
X180840952Y-86476190D01*
X180650476Y-86428571D01*
X180555238Y-86380952D01*
X180460000Y-86285714D01*
X180412381Y-86142856D01*
X180412381Y-86047618D01*
X180460000Y-85904761D01*
X180507619Y-85857142D01*
X181126667Y-85476190D02*
X181126667Y-84999999D01*
X181412381Y-85571428D02*
X180412381Y-85238095D01*
X181412381Y-84904761D01*
X180412381Y-83333332D02*
X180412381Y-83809523D01*
X180888571Y-83857142D01*
X180840952Y-83809523D01*
X180793333Y-83714285D01*
X180793333Y-83476189D01*
X180840952Y-83380951D01*
X180888571Y-83333332D01*
X180983810Y-83285713D01*
X181221905Y-83285713D01*
X181317143Y-83333332D01*
X181364762Y-83380951D01*
X181412381Y-83476189D01*
X181412381Y-83714285D01*
X181364762Y-83809523D01*
X181317143Y-83857142D01*
X181412381Y-82857142D02*
X180745714Y-82857142D01*
X180840952Y-82857142D02*
X180793333Y-82809523D01*
X180745714Y-82714285D01*
X180745714Y-82571427D01*
X180793333Y-82476189D01*
X180888571Y-82428570D01*
X181412381Y-82428570D01*
X180888571Y-82428570D02*
X180793333Y-82380951D01*
X180745714Y-82285713D01*
X180745714Y-82142856D01*
X180793333Y-82047618D01*
X180888571Y-81999999D01*
X181412381Y-81999999D01*
X181412381Y-81523809D02*
X180745714Y-81523809D01*
X180840952Y-81523809D02*
X180793333Y-81476190D01*
X180745714Y-81380952D01*
X180745714Y-81238094D01*
X180793333Y-81142856D01*
X180888571Y-81095237D01*
X181412381Y-81095237D01*
X180888571Y-81095237D02*
X180793333Y-81047618D01*
X180745714Y-80952380D01*
X180745714Y-80809523D01*
X180793333Y-80714285D01*
X180888571Y-80666666D01*
X181412381Y-80666666D01*
X181412381Y-78857142D02*
X180936190Y-79190476D01*
X181412381Y-79428571D02*
X180412381Y-79428571D01*
X180412381Y-79047618D01*
X180460000Y-78952380D01*
X180507619Y-78904761D01*
X180602857Y-78857142D01*
X180745714Y-78857142D01*
X180840952Y-78904761D01*
X180888571Y-78952380D01*
X180936190Y-79047618D01*
X180936190Y-79428571D01*
X180460000Y-77142856D02*
X180412381Y-77238094D01*
X180412381Y-77380951D01*
X180460000Y-77523809D01*
X180555238Y-77619047D01*
X180650476Y-77666666D01*
X180840952Y-77714285D01*
X180983810Y-77714285D01*
X181174286Y-77666666D01*
X181269524Y-77619047D01*
X181364762Y-77523809D01*
X181412381Y-77380951D01*
X181412381Y-77285713D01*
X181364762Y-77142856D01*
X181317143Y-77095237D01*
X180983810Y-77095237D01*
X180983810Y-77285713D01*
X146935714Y-84090476D02*
X147602381Y-84090476D01*
X146554762Y-84328572D02*
X147269048Y-84566667D01*
X147269048Y-83947619D01*
X147602381Y-83566667D02*
X146602381Y-83566667D01*
X147221429Y-83471429D02*
X147602381Y-83185714D01*
X146935714Y-83185714D02*
X147316667Y-83566667D01*
X146602381Y-82852381D02*
X146602381Y-82185714D01*
X147602381Y-82614286D01*
D12*
X145780952Y-83466666D02*
X145590476Y-83600000D01*
X145780952Y-83695238D02*
X145380952Y-83695238D01*
X145380952Y-83542857D01*
X145400000Y-83504762D01*
X145419048Y-83485714D01*
X145457143Y-83466666D01*
X145514286Y-83466666D01*
X145552381Y-83485714D01*
X145571429Y-83504762D01*
X145590476Y-83542857D01*
X145590476Y-83695238D01*
X145419048Y-83314286D02*
X145400000Y-83295238D01*
X145380952Y-83257143D01*
X145380952Y-83161905D01*
X145400000Y-83123809D01*
X145419048Y-83104762D01*
X145457143Y-83085714D01*
X145495238Y-83085714D01*
X145552381Y-83104762D01*
X145780952Y-83333333D01*
X145780952Y-83085714D01*
D11*
X119502381Y-108595238D02*
X119502381Y-108404762D01*
X119454762Y-108309523D01*
X119407143Y-108261904D01*
X119264286Y-108166666D01*
X119073810Y-108119047D01*
X118692857Y-108119047D01*
X118597619Y-108166666D01*
X118550000Y-108214285D01*
X118502381Y-108309523D01*
X118502381Y-108500000D01*
X118550000Y-108595238D01*
X118597619Y-108642857D01*
X118692857Y-108690476D01*
X118930952Y-108690476D01*
X119026190Y-108642857D01*
X119073810Y-108595238D01*
X119121429Y-108500000D01*
X119121429Y-108309523D01*
X119073810Y-108214285D01*
X119026190Y-108166666D01*
X118930952Y-108119047D01*
X119502381Y-107690476D02*
X118502381Y-107690476D01*
X119121429Y-107595238D02*
X119502381Y-107309523D01*
X118835714Y-107309523D02*
X119216667Y-107690476D01*
D12*
X117680952Y-108257142D02*
X117490476Y-108390476D01*
X117680952Y-108485714D02*
X117280952Y-108485714D01*
X117280952Y-108333333D01*
X117300000Y-108295238D01*
X117319048Y-108276190D01*
X117357143Y-108257142D01*
X117414286Y-108257142D01*
X117452381Y-108276190D01*
X117471429Y-108295238D01*
X117490476Y-108333333D01*
X117490476Y-108485714D01*
X117319048Y-108104762D02*
X117300000Y-108085714D01*
X117280952Y-108047619D01*
X117280952Y-107952381D01*
X117300000Y-107914285D01*
X117319048Y-107895238D01*
X117357143Y-107876190D01*
X117395238Y-107876190D01*
X117452381Y-107895238D01*
X117680952Y-108123809D01*
X117680952Y-107876190D01*
X117680952Y-107495238D02*
X117680952Y-107723810D01*
X117680952Y-107609524D02*
X117280952Y-107609524D01*
X117338095Y-107647619D01*
X117376190Y-107685714D01*
X117395238Y-107723810D01*
D11*
X144197619Y-108590476D02*
X144150000Y-108542857D01*
X144102381Y-108447619D01*
X144102381Y-108209523D01*
X144150000Y-108114285D01*
X144197619Y-108066666D01*
X144292857Y-108019047D01*
X144388095Y-108019047D01*
X144530952Y-108066666D01*
X145102381Y-108638095D01*
X145102381Y-108019047D01*
X145102381Y-107590476D02*
X144102381Y-107590476D01*
X144721429Y-107495238D02*
X145102381Y-107209523D01*
X144435714Y-107209523D02*
X144816667Y-107590476D01*
D12*
X146380952Y-108157142D02*
X146190476Y-108290476D01*
X146380952Y-108385714D02*
X145980952Y-108385714D01*
X145980952Y-108233333D01*
X146000000Y-108195238D01*
X146019048Y-108176190D01*
X146057143Y-108157142D01*
X146114286Y-108157142D01*
X146152381Y-108176190D01*
X146171429Y-108195238D01*
X146190476Y-108233333D01*
X146190476Y-108385714D01*
X146019048Y-108004762D02*
X146000000Y-107985714D01*
X145980952Y-107947619D01*
X145980952Y-107852381D01*
X146000000Y-107814285D01*
X146019048Y-107795238D01*
X146057143Y-107776190D01*
X146095238Y-107776190D01*
X146152381Y-107795238D01*
X146380952Y-108023809D01*
X146380952Y-107776190D01*
X145980952Y-107642857D02*
X145980952Y-107395238D01*
X146133333Y-107528571D01*
X146133333Y-107471429D01*
X146152381Y-107433333D01*
X146171429Y-107414286D01*
X146209524Y-107395238D01*
X146304762Y-107395238D01*
X146342857Y-107414286D01*
X146361905Y-107433333D01*
X146380952Y-107471429D01*
X146380952Y-107585714D01*
X146361905Y-107623810D01*
X146342857Y-107642857D01*
D11*
X177152381Y-103162857D02*
X177961905Y-103162857D01*
X178057143Y-103115238D01*
X178104762Y-103067619D01*
X178152381Y-102972381D01*
X178152381Y-102781904D01*
X178104762Y-102686666D01*
X178057143Y-102639047D01*
X177961905Y-102591428D01*
X177152381Y-102591428D01*
X178104762Y-102162857D02*
X178152381Y-102020000D01*
X178152381Y-101781904D01*
X178104762Y-101686666D01*
X178057143Y-101639047D01*
X177961905Y-101591428D01*
X177866667Y-101591428D01*
X177771429Y-101639047D01*
X177723810Y-101686666D01*
X177676190Y-101781904D01*
X177628571Y-101972381D01*
X177580952Y-102067619D01*
X177533333Y-102115238D01*
X177438095Y-102162857D01*
X177342857Y-102162857D01*
X177247619Y-102115238D01*
X177200000Y-102067619D01*
X177152381Y-101972381D01*
X177152381Y-101734285D01*
X177200000Y-101591428D01*
X177628571Y-100829523D02*
X177676190Y-100686666D01*
X177723810Y-100639047D01*
X177819048Y-100591428D01*
X177961905Y-100591428D01*
X178057143Y-100639047D01*
X178104762Y-100686666D01*
X178152381Y-100781904D01*
X178152381Y-101162857D01*
X177152381Y-101162857D01*
X177152381Y-100829523D01*
X177200000Y-100734285D01*
X177247619Y-100686666D01*
X177342857Y-100639047D01*
X177438095Y-100639047D01*
X177533333Y-100686666D01*
X177580952Y-100734285D01*
X177628571Y-100829523D01*
X177628571Y-101162857D01*
X178247619Y-100400952D02*
X178247619Y-99639047D01*
X177628571Y-99067618D02*
X177676190Y-98924761D01*
X177723810Y-98877142D01*
X177819048Y-98829523D01*
X177961905Y-98829523D01*
X178057143Y-98877142D01*
X178104762Y-98924761D01*
X178152381Y-99019999D01*
X178152381Y-99400952D01*
X177152381Y-99400952D01*
X177152381Y-99067618D01*
X177200000Y-98972380D01*
X177247619Y-98924761D01*
X177342857Y-98877142D01*
X177438095Y-98877142D01*
X177533333Y-98924761D01*
X177580952Y-98972380D01*
X177628571Y-99067618D01*
X177628571Y-99400952D01*
X149506381Y-129681525D02*
X148506381Y-129681525D01*
X149506381Y-129110096D01*
X148506381Y-129110096D01*
X148506381Y-128443430D02*
X148506381Y-128252953D01*
X148554000Y-128157715D01*
X148649238Y-128062477D01*
X148839714Y-128014858D01*
X149173048Y-128014858D01*
X149363524Y-128062477D01*
X149458762Y-128157715D01*
X149506381Y-128252953D01*
X149506381Y-128443430D01*
X149458762Y-128538668D01*
X149363524Y-128633906D01*
X149173048Y-128681525D01*
X148839714Y-128681525D01*
X148649238Y-128633906D01*
X148554000Y-128538668D01*
X148506381Y-128443430D01*
X148506381Y-127729144D02*
X148506381Y-127157715D01*
X149506381Y-127443430D02*
X148506381Y-127443430D01*
X149601619Y-127062477D02*
X149601619Y-126300572D01*
X148982571Y-125729143D02*
X148982571Y-126062477D01*
X149506381Y-126062477D02*
X148506381Y-126062477D01*
X148506381Y-125586286D01*
X149506381Y-125205334D02*
X148506381Y-125205334D01*
X148506381Y-124872001D02*
X148506381Y-124300572D01*
X149506381Y-124586287D02*
X148506381Y-124586287D01*
X148506381Y-124110096D02*
X148506381Y-123538667D01*
X149506381Y-123824382D02*
X148506381Y-123824382D01*
X148982571Y-123205334D02*
X148982571Y-122872000D01*
X149506381Y-122729143D02*
X149506381Y-123205334D01*
X148506381Y-123205334D01*
X148506381Y-122729143D01*
X149506381Y-122300572D02*
X148506381Y-122300572D01*
X148506381Y-122062477D01*
X148554000Y-121919619D01*
X148649238Y-121824381D01*
X148744476Y-121776762D01*
X148934952Y-121729143D01*
X149077810Y-121729143D01*
X149268286Y-121776762D01*
X149363524Y-121824381D01*
X149458762Y-121919619D01*
X149506381Y-122062477D01*
X149506381Y-122300572D01*
X149601619Y-121538667D02*
X149601619Y-120776762D01*
X149458762Y-120586286D02*
X149506381Y-120443429D01*
X149506381Y-120205333D01*
X149458762Y-120110095D01*
X149411143Y-120062476D01*
X149315905Y-120014857D01*
X149220667Y-120014857D01*
X149125429Y-120062476D01*
X149077810Y-120110095D01*
X149030190Y-120205333D01*
X148982571Y-120395810D01*
X148934952Y-120491048D01*
X148887333Y-120538667D01*
X148792095Y-120586286D01*
X148696857Y-120586286D01*
X148601619Y-120538667D01*
X148554000Y-120491048D01*
X148506381Y-120395810D01*
X148506381Y-120157714D01*
X148554000Y-120014857D01*
X148506381Y-119681524D02*
X149506381Y-119443429D01*
X148792095Y-119252952D01*
X149506381Y-119062476D01*
X148506381Y-118824381D01*
X149506381Y-118443429D02*
X148506381Y-118443429D01*
X148506381Y-118205334D01*
X148554000Y-118062476D01*
X148649238Y-117967238D01*
X148744476Y-117919619D01*
X148934952Y-117872000D01*
X149077810Y-117872000D01*
X149268286Y-117919619D01*
X149363524Y-117967238D01*
X149458762Y-118062476D01*
X149506381Y-118205334D01*
X149506381Y-118443429D01*
X149601619Y-117681524D02*
X149601619Y-116919619D01*
X149411143Y-116110095D02*
X149458762Y-116157714D01*
X149506381Y-116300571D01*
X149506381Y-116395809D01*
X149458762Y-116538667D01*
X149363524Y-116633905D01*
X149268286Y-116681524D01*
X149077810Y-116729143D01*
X148934952Y-116729143D01*
X148744476Y-116681524D01*
X148649238Y-116633905D01*
X148554000Y-116538667D01*
X148506381Y-116395809D01*
X148506381Y-116300571D01*
X148554000Y-116157714D01*
X148601619Y-116110095D01*
X149506381Y-115538667D02*
X149458762Y-115633905D01*
X149411143Y-115681524D01*
X149315905Y-115729143D01*
X149030190Y-115729143D01*
X148934952Y-115681524D01*
X148887333Y-115633905D01*
X148839714Y-115538667D01*
X148839714Y-115395809D01*
X148887333Y-115300571D01*
X148934952Y-115252952D01*
X149030190Y-115205333D01*
X149315905Y-115205333D01*
X149411143Y-115252952D01*
X149458762Y-115300571D01*
X149506381Y-115395809D01*
X149506381Y-115538667D01*
X148839714Y-114776762D02*
X149506381Y-114776762D01*
X148934952Y-114776762D02*
X148887333Y-114729143D01*
X148839714Y-114633905D01*
X148839714Y-114491047D01*
X148887333Y-114395809D01*
X148982571Y-114348190D01*
X149506381Y-114348190D01*
X148839714Y-113872000D02*
X149506381Y-113872000D01*
X148934952Y-113872000D02*
X148887333Y-113824381D01*
X148839714Y-113729143D01*
X148839714Y-113586285D01*
X148887333Y-113491047D01*
X148982571Y-113443428D01*
X149506381Y-113443428D01*
X149601619Y-113205333D02*
X149601619Y-112443428D01*
X148506381Y-112014857D02*
X148506381Y-111919618D01*
X148554000Y-111824380D01*
X148601619Y-111776761D01*
X148696857Y-111729142D01*
X148887333Y-111681523D01*
X149125429Y-111681523D01*
X149315905Y-111729142D01*
X149411143Y-111776761D01*
X149458762Y-111824380D01*
X149506381Y-111919618D01*
X149506381Y-112014857D01*
X149458762Y-112110095D01*
X149411143Y-112157714D01*
X149315905Y-112205333D01*
X149125429Y-112252952D01*
X148887333Y-112252952D01*
X148696857Y-112205333D01*
X148601619Y-112157714D01*
X148554000Y-112110095D01*
X148506381Y-112014857D01*
X149506381Y-110729142D02*
X149506381Y-111300571D01*
X149506381Y-111014857D02*
X148506381Y-111014857D01*
X148649238Y-111110095D01*
X148744476Y-111205333D01*
X148792095Y-111300571D01*
X149506381Y-110395809D02*
X148839714Y-109871999D01*
X148839714Y-110395809D02*
X149506381Y-109871999D01*
X148506381Y-109300571D02*
X148506381Y-109205332D01*
X148554000Y-109110094D01*
X148601619Y-109062475D01*
X148696857Y-109014856D01*
X148887333Y-108967237D01*
X149125429Y-108967237D01*
X149315905Y-109014856D01*
X149411143Y-109062475D01*
X149458762Y-109110094D01*
X149506381Y-109205332D01*
X149506381Y-109300571D01*
X149458762Y-109395809D01*
X149411143Y-109443428D01*
X149315905Y-109491047D01*
X149125429Y-109538666D01*
X148887333Y-109538666D01*
X148696857Y-109491047D01*
X148601619Y-109443428D01*
X148554000Y-109395809D01*
X148506381Y-109300571D01*
X148839714Y-108110094D02*
X149506381Y-108110094D01*
X148458762Y-108348190D02*
X149173048Y-108586285D01*
X149173048Y-107967237D01*
X153884476Y-118324381D02*
X154551143Y-119324381D01*
X154551143Y-118324381D02*
X153884476Y-119324381D01*
X154932095Y-119324381D02*
X154932095Y-118324381D01*
X155313048Y-118324381D01*
X155408286Y-118372000D01*
X155455905Y-118419619D01*
X155503524Y-118514857D01*
X155503524Y-118657714D01*
X155455905Y-118752952D01*
X155408286Y-118800571D01*
X155313048Y-118848190D01*
X154932095Y-118848190D01*
X155884476Y-118419619D02*
X155932095Y-118372000D01*
X156027333Y-118324381D01*
X156265429Y-118324381D01*
X156360667Y-118372000D01*
X156408286Y-118419619D01*
X156455905Y-118514857D01*
X156455905Y-118610095D01*
X156408286Y-118752952D01*
X155836857Y-119324381D01*
X156455905Y-119324381D01*
X106832381Y-111791906D02*
X105832381Y-111791906D01*
X106832381Y-111220477D01*
X105832381Y-111220477D01*
X105832381Y-110553811D02*
X105832381Y-110363334D01*
X105880000Y-110268096D01*
X105975238Y-110172858D01*
X106165714Y-110125239D01*
X106499048Y-110125239D01*
X106689524Y-110172858D01*
X106784762Y-110268096D01*
X106832381Y-110363334D01*
X106832381Y-110553811D01*
X106784762Y-110649049D01*
X106689524Y-110744287D01*
X106499048Y-110791906D01*
X106165714Y-110791906D01*
X105975238Y-110744287D01*
X105880000Y-110649049D01*
X105832381Y-110553811D01*
X105832381Y-109839525D02*
X105832381Y-109268096D01*
X106832381Y-109553811D02*
X105832381Y-109553811D01*
X106927619Y-109172858D02*
X106927619Y-108410953D01*
X106308571Y-107839524D02*
X106308571Y-108172858D01*
X106832381Y-108172858D02*
X105832381Y-108172858D01*
X105832381Y-107696667D01*
X106832381Y-107315715D02*
X105832381Y-107315715D01*
X105832381Y-106982382D02*
X105832381Y-106410953D01*
X106832381Y-106696668D02*
X105832381Y-106696668D01*
X105832381Y-106220477D02*
X105832381Y-105649048D01*
X106832381Y-105934763D02*
X105832381Y-105934763D01*
X106308571Y-105315715D02*
X106308571Y-104982381D01*
X106832381Y-104839524D02*
X106832381Y-105315715D01*
X105832381Y-105315715D01*
X105832381Y-104839524D01*
X106832381Y-104410953D02*
X105832381Y-104410953D01*
X105832381Y-104172858D01*
X105880000Y-104030000D01*
X105975238Y-103934762D01*
X106070476Y-103887143D01*
X106260952Y-103839524D01*
X106403810Y-103839524D01*
X106594286Y-103887143D01*
X106689524Y-103934762D01*
X106784762Y-104030000D01*
X106832381Y-104172858D01*
X106832381Y-104410953D01*
X106927619Y-103649048D02*
X106927619Y-102887143D01*
X106737143Y-102077619D02*
X106784762Y-102125238D01*
X106832381Y-102268095D01*
X106832381Y-102363333D01*
X106784762Y-102506191D01*
X106689524Y-102601429D01*
X106594286Y-102649048D01*
X106403810Y-102696667D01*
X106260952Y-102696667D01*
X106070476Y-102649048D01*
X105975238Y-102601429D01*
X105880000Y-102506191D01*
X105832381Y-102363333D01*
X105832381Y-102268095D01*
X105880000Y-102125238D01*
X105927619Y-102077619D01*
X106832381Y-101506191D02*
X106784762Y-101601429D01*
X106737143Y-101649048D01*
X106641905Y-101696667D01*
X106356190Y-101696667D01*
X106260952Y-101649048D01*
X106213333Y-101601429D01*
X106165714Y-101506191D01*
X106165714Y-101363333D01*
X106213333Y-101268095D01*
X106260952Y-101220476D01*
X106356190Y-101172857D01*
X106641905Y-101172857D01*
X106737143Y-101220476D01*
X106784762Y-101268095D01*
X106832381Y-101363333D01*
X106832381Y-101506191D01*
X106165714Y-100744286D02*
X106832381Y-100744286D01*
X106260952Y-100744286D02*
X106213333Y-100696667D01*
X106165714Y-100601429D01*
X106165714Y-100458571D01*
X106213333Y-100363333D01*
X106308571Y-100315714D01*
X106832381Y-100315714D01*
X106165714Y-99839524D02*
X106832381Y-99839524D01*
X106260952Y-99839524D02*
X106213333Y-99791905D01*
X106165714Y-99696667D01*
X106165714Y-99553809D01*
X106213333Y-99458571D01*
X106308571Y-99410952D01*
X106832381Y-99410952D01*
X106927619Y-99172857D02*
X106927619Y-98410952D01*
X105832381Y-97982381D02*
X105832381Y-97887142D01*
X105880000Y-97791904D01*
X105927619Y-97744285D01*
X106022857Y-97696666D01*
X106213333Y-97649047D01*
X106451429Y-97649047D01*
X106641905Y-97696666D01*
X106737143Y-97744285D01*
X106784762Y-97791904D01*
X106832381Y-97887142D01*
X106832381Y-97982381D01*
X106784762Y-98077619D01*
X106737143Y-98125238D01*
X106641905Y-98172857D01*
X106451429Y-98220476D01*
X106213333Y-98220476D01*
X106022857Y-98172857D01*
X105927619Y-98125238D01*
X105880000Y-98077619D01*
X105832381Y-97982381D01*
X106832381Y-96696666D02*
X106832381Y-97268095D01*
X106832381Y-96982381D02*
X105832381Y-96982381D01*
X105975238Y-97077619D01*
X106070476Y-97172857D01*
X106118095Y-97268095D01*
X106832381Y-96363333D02*
X106165714Y-95839523D01*
X106165714Y-96363333D02*
X106832381Y-95839523D01*
X106832381Y-94934761D02*
X106832381Y-95506190D01*
X106832381Y-95220476D02*
X105832381Y-95220476D01*
X105975238Y-95315714D01*
X106070476Y-95410952D01*
X106118095Y-95506190D01*
X105832381Y-94315714D02*
X105832381Y-94220475D01*
X105880000Y-94125237D01*
X105927619Y-94077618D01*
X106022857Y-94029999D01*
X106213333Y-93982380D01*
X106451429Y-93982380D01*
X106641905Y-94029999D01*
X106737143Y-94077618D01*
X106784762Y-94125237D01*
X106832381Y-94220475D01*
X106832381Y-94315714D01*
X106784762Y-94410952D01*
X106737143Y-94458571D01*
X106641905Y-94506190D01*
X106451429Y-94553809D01*
X106213333Y-94553809D01*
X106022857Y-94506190D01*
X105927619Y-94458571D01*
X105880000Y-94410952D01*
X105832381Y-94315714D01*
X106927619Y-93791904D02*
X106927619Y-93029999D01*
X105832381Y-92601428D02*
X105832381Y-92410951D01*
X105880000Y-92315713D01*
X105975238Y-92220475D01*
X106165714Y-92172856D01*
X106499048Y-92172856D01*
X106689524Y-92220475D01*
X106784762Y-92315713D01*
X106832381Y-92410951D01*
X106832381Y-92601428D01*
X106784762Y-92696666D01*
X106689524Y-92791904D01*
X106499048Y-92839523D01*
X106165714Y-92839523D01*
X105975238Y-92791904D01*
X105880000Y-92696666D01*
X105832381Y-92601428D01*
X106308571Y-91410951D02*
X106356190Y-91268094D01*
X106403810Y-91220475D01*
X106499048Y-91172856D01*
X106641905Y-91172856D01*
X106737143Y-91220475D01*
X106784762Y-91268094D01*
X106832381Y-91363332D01*
X106832381Y-91744285D01*
X105832381Y-91744285D01*
X105832381Y-91410951D01*
X105880000Y-91315713D01*
X105927619Y-91268094D01*
X106022857Y-91220475D01*
X106118095Y-91220475D01*
X106213333Y-91268094D01*
X106260952Y-91315713D01*
X106308571Y-91410951D01*
X106308571Y-91744285D01*
X106832381Y-90744285D02*
X105832381Y-90744285D01*
X105832381Y-90506190D01*
X105880000Y-90363332D01*
X105975238Y-90268094D01*
X106070476Y-90220475D01*
X106260952Y-90172856D01*
X106403810Y-90172856D01*
X106594286Y-90220475D01*
X106689524Y-90268094D01*
X106784762Y-90363332D01*
X106832381Y-90506190D01*
X106832381Y-90744285D01*
X105927619Y-89791904D02*
X105880000Y-89744285D01*
X105832381Y-89649047D01*
X105832381Y-89410951D01*
X105880000Y-89315713D01*
X105927619Y-89268094D01*
X106022857Y-89220475D01*
X106118095Y-89220475D01*
X106260952Y-89268094D01*
X106832381Y-89839523D01*
X106832381Y-89220475D01*
X108952381Y-102339524D02*
X109952381Y-101672857D01*
X108952381Y-101672857D02*
X109952381Y-102339524D01*
X109952381Y-101291905D02*
X108952381Y-101291905D01*
X108952381Y-100910952D01*
X109000000Y-100815714D01*
X109047619Y-100768095D01*
X109142857Y-100720476D01*
X109285714Y-100720476D01*
X109380952Y-100768095D01*
X109428571Y-100815714D01*
X109476190Y-100910952D01*
X109476190Y-101291905D01*
X108952381Y-100387143D02*
X108952381Y-99768095D01*
X109333333Y-100101429D01*
X109333333Y-99958571D01*
X109380952Y-99863333D01*
X109428571Y-99815714D01*
X109523810Y-99768095D01*
X109761905Y-99768095D01*
X109857143Y-99815714D01*
X109904762Y-99863333D01*
X109952381Y-99958571D01*
X109952381Y-100244286D01*
X109904762Y-100339524D01*
X109857143Y-100387143D01*
X110981333Y-121739619D02*
X111028952Y-121692000D01*
X111124190Y-121644381D01*
X111362286Y-121644381D01*
X111457524Y-121692000D01*
X111505143Y-121739619D01*
X111552762Y-121834857D01*
X111552762Y-121930095D01*
X111505143Y-122072952D01*
X110933714Y-122644381D01*
X111552762Y-122644381D01*
X111933714Y-121739619D02*
X111981333Y-121692000D01*
X112076571Y-121644381D01*
X112314667Y-121644381D01*
X112409905Y-121692000D01*
X112457524Y-121739619D01*
X112505143Y-121834857D01*
X112505143Y-121930095D01*
X112457524Y-122072952D01*
X111886095Y-122644381D01*
X112505143Y-122644381D01*
X113124190Y-121644381D02*
X113219429Y-121644381D01*
X113314667Y-121692000D01*
X113362286Y-121739619D01*
X113409905Y-121834857D01*
X113457524Y-122025333D01*
X113457524Y-122263429D01*
X113409905Y-122453905D01*
X113362286Y-122549143D01*
X113314667Y-122596762D01*
X113219429Y-122644381D01*
X113124190Y-122644381D01*
X113028952Y-122596762D01*
X112981333Y-122549143D01*
X112933714Y-122453905D01*
X112886095Y-122263429D01*
X112886095Y-122025333D01*
X112933714Y-121834857D01*
X112981333Y-121739619D01*
X113028952Y-121692000D01*
X113124190Y-121644381D01*
X114314667Y-121977714D02*
X114314667Y-122644381D01*
X113886095Y-121977714D02*
X113886095Y-122501524D01*
X113933714Y-122596762D01*
X114028952Y-122644381D01*
X114171810Y-122644381D01*
X114267048Y-122596762D01*
X114314667Y-122549143D01*
X115124191Y-122120571D02*
X114790857Y-122120571D01*
X114790857Y-122644381D02*
X114790857Y-121644381D01*
X115267048Y-121644381D01*
X116314667Y-122644381D02*
X116838477Y-121977714D01*
X116314667Y-121977714D02*
X116838477Y-122644381D01*
X117886096Y-121644381D02*
X118505144Y-121644381D01*
X118171810Y-122025333D01*
X118314668Y-122025333D01*
X118409906Y-122072952D01*
X118457525Y-122120571D01*
X118505144Y-122215810D01*
X118505144Y-122453905D01*
X118457525Y-122549143D01*
X118409906Y-122596762D01*
X118314668Y-122644381D01*
X118028953Y-122644381D01*
X117933715Y-122596762D01*
X117886096Y-122549143D01*
X119124191Y-121644381D02*
X119219430Y-121644381D01*
X119314668Y-121692000D01*
X119362287Y-121739619D01*
X119409906Y-121834857D01*
X119457525Y-122025333D01*
X119457525Y-122263429D01*
X119409906Y-122453905D01*
X119362287Y-122549143D01*
X119314668Y-122596762D01*
X119219430Y-122644381D01*
X119124191Y-122644381D01*
X119028953Y-122596762D01*
X118981334Y-122549143D01*
X118933715Y-122453905D01*
X118886096Y-122263429D01*
X118886096Y-122025333D01*
X118933715Y-121834857D01*
X118981334Y-121739619D01*
X119028953Y-121692000D01*
X119124191Y-121644381D01*
X119743239Y-121644381D02*
X120076572Y-122644381D01*
X120409906Y-121644381D01*
X116005143Y-118568666D02*
X116052762Y-118616285D01*
X116100381Y-118759142D01*
X116100381Y-118854380D01*
X116052762Y-118997238D01*
X115957524Y-119092476D01*
X115862286Y-119140095D01*
X115671810Y-119187714D01*
X115528952Y-119187714D01*
X115338476Y-119140095D01*
X115243238Y-119092476D01*
X115148000Y-118997238D01*
X115100381Y-118854380D01*
X115100381Y-118759142D01*
X115148000Y-118616285D01*
X115195619Y-118568666D01*
X115195619Y-118187714D02*
X115148000Y-118140095D01*
X115100381Y-118044857D01*
X115100381Y-117806761D01*
X115148000Y-117711523D01*
X115195619Y-117663904D01*
X115290857Y-117616285D01*
X115386095Y-117616285D01*
X115528952Y-117663904D01*
X116100381Y-118235333D01*
X116100381Y-117616285D01*
X142375714Y-122354381D02*
X143042381Y-122354381D01*
X141994762Y-122592477D02*
X142709048Y-122830572D01*
X142709048Y-122211524D01*
X142947143Y-121830572D02*
X142994762Y-121782953D01*
X143042381Y-121830572D01*
X142994762Y-121878191D01*
X142947143Y-121830572D01*
X143042381Y-121830572D01*
X142042381Y-121449620D02*
X142042381Y-120782953D01*
X143042381Y-121211525D01*
X142375714Y-119973429D02*
X143042381Y-119973429D01*
X142375714Y-120402001D02*
X142899524Y-120402001D01*
X142994762Y-120354382D01*
X143042381Y-120259144D01*
X143042381Y-120116286D01*
X142994762Y-120021048D01*
X142947143Y-119973429D01*
X142518571Y-119163905D02*
X142518571Y-119497239D01*
X143042381Y-119497239D02*
X142042381Y-119497239D01*
X142042381Y-119021048D01*
X143042381Y-117973429D02*
X142375714Y-117449619D01*
X142375714Y-117973429D02*
X143042381Y-117449619D01*
X143042381Y-115782952D02*
X143042381Y-116354381D01*
X143042381Y-116068667D02*
X142042381Y-116068667D01*
X142185238Y-116163905D01*
X142280476Y-116259143D01*
X142328095Y-116354381D01*
X142042381Y-115163905D02*
X142042381Y-115068666D01*
X142090000Y-114973428D01*
X142137619Y-114925809D01*
X142232857Y-114878190D01*
X142423333Y-114830571D01*
X142661429Y-114830571D01*
X142851905Y-114878190D01*
X142947143Y-114925809D01*
X142994762Y-114973428D01*
X143042381Y-115068666D01*
X143042381Y-115163905D01*
X142994762Y-115259143D01*
X142947143Y-115306762D01*
X142851905Y-115354381D01*
X142661429Y-115402000D01*
X142423333Y-115402000D01*
X142232857Y-115354381D01*
X142137619Y-115306762D01*
X142090000Y-115259143D01*
X142042381Y-115163905D01*
X142042381Y-114544857D02*
X143042381Y-114211524D01*
X142042381Y-113878190D01*
X146757143Y-119044857D02*
X146804762Y-119092476D01*
X146852381Y-119235333D01*
X146852381Y-119330571D01*
X146804762Y-119473429D01*
X146709524Y-119568667D01*
X146614286Y-119616286D01*
X146423810Y-119663905D01*
X146280952Y-119663905D01*
X146090476Y-119616286D01*
X145995238Y-119568667D01*
X145900000Y-119473429D01*
X145852381Y-119330571D01*
X145852381Y-119235333D01*
X145900000Y-119092476D01*
X145947619Y-119044857D01*
X146852381Y-118092476D02*
X146852381Y-118663905D01*
X146852381Y-118378191D02*
X145852381Y-118378191D01*
X145995238Y-118473429D01*
X146090476Y-118568667D01*
X146138095Y-118663905D01*
X145947619Y-117711524D02*
X145900000Y-117663905D01*
X145852381Y-117568667D01*
X145852381Y-117330571D01*
X145900000Y-117235333D01*
X145947619Y-117187714D01*
X146042857Y-117140095D01*
X146138095Y-117140095D01*
X146280952Y-117187714D01*
X146852381Y-117759143D01*
X146852381Y-117140095D01*
X155366381Y-86839428D02*
X155366381Y-87410857D01*
X155366381Y-87125143D02*
X154366381Y-87125143D01*
X154509238Y-87220381D01*
X154604476Y-87315619D01*
X154652095Y-87410857D01*
X154366381Y-86220381D02*
X154366381Y-86125142D01*
X154414000Y-86029904D01*
X154461619Y-85982285D01*
X154556857Y-85934666D01*
X154747333Y-85887047D01*
X154985429Y-85887047D01*
X155175905Y-85934666D01*
X155271143Y-85982285D01*
X155318762Y-86029904D01*
X155366381Y-86125142D01*
X155366381Y-86220381D01*
X155318762Y-86315619D01*
X155271143Y-86363238D01*
X155175905Y-86410857D01*
X154985429Y-86458476D01*
X154747333Y-86458476D01*
X154556857Y-86410857D01*
X154461619Y-86363238D01*
X154414000Y-86315619D01*
X154366381Y-86220381D01*
X154366381Y-85268000D02*
X154366381Y-85172761D01*
X154414000Y-85077523D01*
X154461619Y-85029904D01*
X154556857Y-84982285D01*
X154747333Y-84934666D01*
X154985429Y-84934666D01*
X155175905Y-84982285D01*
X155271143Y-85029904D01*
X155318762Y-85077523D01*
X155366381Y-85172761D01*
X155366381Y-85268000D01*
X155318762Y-85363238D01*
X155271143Y-85410857D01*
X155175905Y-85458476D01*
X154985429Y-85506095D01*
X154747333Y-85506095D01*
X154556857Y-85458476D01*
X154461619Y-85410857D01*
X154414000Y-85363238D01*
X154366381Y-85268000D01*
X155366381Y-84506095D02*
X154366381Y-84506095D01*
X154985429Y-84410857D02*
X155366381Y-84125142D01*
X154699714Y-84125142D02*
X155080667Y-84506095D01*
D12*
X156644952Y-86025142D02*
X156454476Y-86158476D01*
X156644952Y-86253714D02*
X156244952Y-86253714D01*
X156244952Y-86101333D01*
X156264000Y-86063238D01*
X156283048Y-86044190D01*
X156321143Y-86025142D01*
X156378286Y-86025142D01*
X156416381Y-86044190D01*
X156435429Y-86063238D01*
X156454476Y-86101333D01*
X156454476Y-86253714D01*
X156283048Y-85872762D02*
X156264000Y-85853714D01*
X156244952Y-85815619D01*
X156244952Y-85720381D01*
X156264000Y-85682285D01*
X156283048Y-85663238D01*
X156321143Y-85644190D01*
X156359238Y-85644190D01*
X156416381Y-85663238D01*
X156644952Y-85891809D01*
X156644952Y-85644190D01*
X156244952Y-85301333D02*
X156244952Y-85377524D01*
X156264000Y-85415619D01*
X156283048Y-85434667D01*
X156340190Y-85472762D01*
X156416381Y-85491810D01*
X156568762Y-85491810D01*
X156606857Y-85472762D01*
X156625905Y-85453714D01*
X156644952Y-85415619D01*
X156644952Y-85339429D01*
X156625905Y-85301333D01*
X156606857Y-85282286D01*
X156568762Y-85263238D01*
X156473524Y-85263238D01*
X156435429Y-85282286D01*
X156416381Y-85301333D01*
X156397333Y-85339429D01*
X156397333Y-85415619D01*
X156416381Y-85453714D01*
X156435429Y-85472762D01*
X156473524Y-85491810D01*
D11*
X158414381Y-86923428D02*
X158414381Y-87494857D01*
X158414381Y-87209143D02*
X157414381Y-87209143D01*
X157557238Y-87304381D01*
X157652476Y-87399619D01*
X157700095Y-87494857D01*
X157414381Y-86304381D02*
X157414381Y-86209142D01*
X157462000Y-86113904D01*
X157509619Y-86066285D01*
X157604857Y-86018666D01*
X157795333Y-85971047D01*
X158033429Y-85971047D01*
X158223905Y-86018666D01*
X158319143Y-86066285D01*
X158366762Y-86113904D01*
X158414381Y-86209142D01*
X158414381Y-86304381D01*
X158366762Y-86399619D01*
X158319143Y-86447238D01*
X158223905Y-86494857D01*
X158033429Y-86542476D01*
X157795333Y-86542476D01*
X157604857Y-86494857D01*
X157509619Y-86447238D01*
X157462000Y-86399619D01*
X157414381Y-86304381D01*
X157414381Y-85352000D02*
X157414381Y-85256761D01*
X157462000Y-85161523D01*
X157509619Y-85113904D01*
X157604857Y-85066285D01*
X157795333Y-85018666D01*
X158033429Y-85018666D01*
X158223905Y-85066285D01*
X158319143Y-85113904D01*
X158366762Y-85161523D01*
X158414381Y-85256761D01*
X158414381Y-85352000D01*
X158366762Y-85447238D01*
X158319143Y-85494857D01*
X158223905Y-85542476D01*
X158033429Y-85590095D01*
X157795333Y-85590095D01*
X157604857Y-85542476D01*
X157509619Y-85494857D01*
X157462000Y-85447238D01*
X157414381Y-85352000D01*
X158414381Y-84590095D02*
X157414381Y-84590095D01*
X158033429Y-84494857D02*
X158414381Y-84209142D01*
X157747714Y-84209142D02*
X158128667Y-84590095D01*
D12*
X159692952Y-86109142D02*
X159502476Y-86242476D01*
X159692952Y-86337714D02*
X159292952Y-86337714D01*
X159292952Y-86185333D01*
X159312000Y-86147238D01*
X159331048Y-86128190D01*
X159369143Y-86109142D01*
X159426286Y-86109142D01*
X159464381Y-86128190D01*
X159483429Y-86147238D01*
X159502476Y-86185333D01*
X159502476Y-86337714D01*
X159331048Y-85956762D02*
X159312000Y-85937714D01*
X159292952Y-85899619D01*
X159292952Y-85804381D01*
X159312000Y-85766285D01*
X159331048Y-85747238D01*
X159369143Y-85728190D01*
X159407238Y-85728190D01*
X159464381Y-85747238D01*
X159692952Y-85975809D01*
X159692952Y-85728190D01*
X159292952Y-85594857D02*
X159292952Y-85328190D01*
X159692952Y-85499619D01*
D11*
X115423523Y-98861619D02*
X115471142Y-98814000D01*
X115566380Y-98766381D01*
X115804476Y-98766381D01*
X115899714Y-98814000D01*
X115947333Y-98861619D01*
X115994952Y-98956857D01*
X115994952Y-99052095D01*
X115947333Y-99194952D01*
X115375904Y-99766381D01*
X115994952Y-99766381D01*
X116375904Y-98861619D02*
X116423523Y-98814000D01*
X116518761Y-98766381D01*
X116756857Y-98766381D01*
X116852095Y-98814000D01*
X116899714Y-98861619D01*
X116947333Y-98956857D01*
X116947333Y-99052095D01*
X116899714Y-99194952D01*
X116328285Y-99766381D01*
X116947333Y-99766381D01*
X117804476Y-99099714D02*
X117804476Y-99766381D01*
X117375904Y-99099714D02*
X117375904Y-99623524D01*
X117423523Y-99718762D01*
X117518761Y-99766381D01*
X117661619Y-99766381D01*
X117756857Y-99718762D01*
X117804476Y-99671143D01*
X118614000Y-99242571D02*
X118280666Y-99242571D01*
X118280666Y-99766381D02*
X118280666Y-98766381D01*
X118756857Y-98766381D01*
X119804476Y-99766381D02*
X120328286Y-99099714D01*
X119804476Y-99099714D02*
X120328286Y-99766381D01*
X121994953Y-99766381D02*
X121423524Y-99766381D01*
X121709238Y-99766381D02*
X121709238Y-98766381D01*
X121614000Y-98909238D01*
X121518762Y-99004476D01*
X121423524Y-99052095D01*
X122614000Y-98766381D02*
X122709239Y-98766381D01*
X122804477Y-98814000D01*
X122852096Y-98861619D01*
X122899715Y-98956857D01*
X122947334Y-99147333D01*
X122947334Y-99385429D01*
X122899715Y-99575905D01*
X122852096Y-99671143D01*
X122804477Y-99718762D01*
X122709239Y-99766381D01*
X122614000Y-99766381D01*
X122518762Y-99718762D01*
X122471143Y-99671143D01*
X122423524Y-99575905D01*
X122375905Y-99385429D01*
X122375905Y-99147333D01*
X122423524Y-98956857D01*
X122471143Y-98861619D01*
X122518762Y-98814000D01*
X122614000Y-98766381D01*
X123233048Y-98766381D02*
X123566381Y-99766381D01*
X123899715Y-98766381D01*
X118971143Y-103481143D02*
X118923524Y-103528762D01*
X118780667Y-103576381D01*
X118685429Y-103576381D01*
X118542571Y-103528762D01*
X118447333Y-103433524D01*
X118399714Y-103338286D01*
X118352095Y-103147810D01*
X118352095Y-103004952D01*
X118399714Y-102814476D01*
X118447333Y-102719238D01*
X118542571Y-102624000D01*
X118685429Y-102576381D01*
X118780667Y-102576381D01*
X118923524Y-102624000D01*
X118971143Y-102671619D01*
X119923524Y-103576381D02*
X119352095Y-103576381D01*
X119637809Y-103576381D02*
X119637809Y-102576381D01*
X119542571Y-102719238D01*
X119447333Y-102814476D01*
X119352095Y-102862095D01*
X120828286Y-102576381D02*
X120352095Y-102576381D01*
X120304476Y-103052571D01*
X120352095Y-103004952D01*
X120447333Y-102957333D01*
X120685429Y-102957333D01*
X120780667Y-103004952D01*
X120828286Y-103052571D01*
X120875905Y-103147810D01*
X120875905Y-103385905D01*
X120828286Y-103481143D01*
X120780667Y-103528762D01*
X120685429Y-103576381D01*
X120447333Y-103576381D01*
X120352095Y-103528762D01*
X120304476Y-103481143D01*
X112304762Y-102047619D02*
X112352381Y-101904762D01*
X112352381Y-101666666D01*
X112304762Y-101571428D01*
X112257143Y-101523809D01*
X112161905Y-101476190D01*
X112066667Y-101476190D01*
X111971429Y-101523809D01*
X111923810Y-101571428D01*
X111876190Y-101666666D01*
X111828571Y-101857143D01*
X111780952Y-101952381D01*
X111733333Y-102000000D01*
X111638095Y-102047619D01*
X111542857Y-102047619D01*
X111447619Y-102000000D01*
X111400000Y-101952381D01*
X111352381Y-101857143D01*
X111352381Y-101619047D01*
X111400000Y-101476190D01*
X112352381Y-101047619D02*
X111352381Y-101047619D01*
X112066667Y-100714285D01*
X111352381Y-100380952D01*
X112352381Y-100380952D01*
X112066667Y-99952381D02*
X112066667Y-99476190D01*
X112352381Y-100047619D02*
X111352381Y-99714286D01*
X112352381Y-99380952D01*
X111352381Y-98761904D02*
X112066667Y-98761904D01*
X112209524Y-98809524D01*
X112304762Y-98904762D01*
X112352381Y-99047619D01*
X112352381Y-99142857D01*
X111352381Y-98380952D02*
X111352381Y-97761904D01*
X111733333Y-98095238D01*
X111733333Y-97952380D01*
X111780952Y-97857142D01*
X111828571Y-97809523D01*
X111923810Y-97761904D01*
X112161905Y-97761904D01*
X112257143Y-97809523D01*
X112304762Y-97857142D01*
X112352381Y-97952380D01*
X112352381Y-98238095D01*
X112304762Y-98333333D01*
X112257143Y-98380952D01*
X111352381Y-97428571D02*
X111352381Y-96809523D01*
X111733333Y-97142857D01*
X111733333Y-96999999D01*
X111780952Y-96904761D01*
X111828571Y-96857142D01*
X111923810Y-96809523D01*
X112161905Y-96809523D01*
X112257143Y-96857142D01*
X112304762Y-96904761D01*
X112352381Y-96999999D01*
X112352381Y-97285714D01*
X112304762Y-97380952D01*
X112257143Y-97428571D01*
X112257143Y-95809523D02*
X112304762Y-95857142D01*
X112352381Y-95999999D01*
X112352381Y-96095237D01*
X112304762Y-96238095D01*
X112209524Y-96333333D01*
X112114286Y-96380952D01*
X111923810Y-96428571D01*
X111780952Y-96428571D01*
X111590476Y-96380952D01*
X111495238Y-96333333D01*
X111400000Y-96238095D01*
X111352381Y-96095237D01*
X111352381Y-95999999D01*
X111400000Y-95857142D01*
X111447619Y-95809523D01*
X112066667Y-95428571D02*
X112066667Y-94952380D01*
X112352381Y-95523809D02*
X111352381Y-95190476D01*
X112352381Y-94857142D01*
X111971429Y-94523809D02*
X111971429Y-93761904D01*
X111352381Y-93428571D02*
X111352381Y-92857142D01*
X112352381Y-93142857D02*
X111352381Y-93142857D01*
X112352381Y-91952380D02*
X111876190Y-92285714D01*
X112352381Y-92523809D02*
X111352381Y-92523809D01*
X111352381Y-92142856D01*
X111400000Y-92047618D01*
X111447619Y-91999999D01*
X111542857Y-91952380D01*
X111685714Y-91952380D01*
X111780952Y-91999999D01*
X111828571Y-92047618D01*
X111876190Y-92142856D01*
X111876190Y-92523809D01*
X117452381Y-97738095D02*
X116452381Y-97738095D01*
X116452381Y-97500000D01*
X116500000Y-97357142D01*
X116595238Y-97261904D01*
X116690476Y-97214285D01*
X116880952Y-97166666D01*
X117023810Y-97166666D01*
X117214286Y-97214285D01*
X117309524Y-97261904D01*
X117404762Y-97357142D01*
X117452381Y-97500000D01*
X117452381Y-97738095D01*
X116452381Y-96833333D02*
X116452381Y-96166666D01*
X117452381Y-96595238D01*
X117504762Y-109547619D02*
X117552381Y-109404762D01*
X117552381Y-109166666D01*
X117504762Y-109071428D01*
X117457143Y-109023809D01*
X117361905Y-108976190D01*
X117266667Y-108976190D01*
X117171429Y-109023809D01*
X117123810Y-109071428D01*
X117076190Y-109166666D01*
X117028571Y-109357143D01*
X116980952Y-109452381D01*
X116933333Y-109500000D01*
X116838095Y-109547619D01*
X116742857Y-109547619D01*
X116647619Y-109500000D01*
X116600000Y-109452381D01*
X116552381Y-109357143D01*
X116552381Y-109119047D01*
X116600000Y-108976190D01*
X117552381Y-108547619D02*
X116552381Y-108547619D01*
X117266667Y-108214285D01*
X116552381Y-107880952D01*
X117552381Y-107880952D01*
X117266667Y-107452381D02*
X117266667Y-106976190D01*
X117552381Y-107547619D02*
X116552381Y-107214286D01*
X117552381Y-106880952D01*
X116552381Y-106261904D02*
X117266667Y-106261904D01*
X117409524Y-106309524D01*
X117504762Y-106404762D01*
X117552381Y-106547619D01*
X117552381Y-106642857D01*
X116552381Y-105880952D02*
X116552381Y-105261904D01*
X116933333Y-105595238D01*
X116933333Y-105452380D01*
X116980952Y-105357142D01*
X117028571Y-105309523D01*
X117123810Y-105261904D01*
X117361905Y-105261904D01*
X117457143Y-105309523D01*
X117504762Y-105357142D01*
X117552381Y-105452380D01*
X117552381Y-105738095D01*
X117504762Y-105833333D01*
X117457143Y-105880952D01*
X116552381Y-104928571D02*
X116552381Y-104309523D01*
X116933333Y-104642857D01*
X116933333Y-104499999D01*
X116980952Y-104404761D01*
X117028571Y-104357142D01*
X117123810Y-104309523D01*
X117361905Y-104309523D01*
X117457143Y-104357142D01*
X117504762Y-104404761D01*
X117552381Y-104499999D01*
X117552381Y-104785714D01*
X117504762Y-104880952D01*
X117457143Y-104928571D01*
X117457143Y-103309523D02*
X117504762Y-103357142D01*
X117552381Y-103499999D01*
X117552381Y-103595237D01*
X117504762Y-103738095D01*
X117409524Y-103833333D01*
X117314286Y-103880952D01*
X117123810Y-103928571D01*
X116980952Y-103928571D01*
X116790476Y-103880952D01*
X116695238Y-103833333D01*
X116600000Y-103738095D01*
X116552381Y-103595237D01*
X116552381Y-103499999D01*
X116600000Y-103357142D01*
X116647619Y-103309523D01*
X117266667Y-102928571D02*
X117266667Y-102452380D01*
X117552381Y-103023809D02*
X116552381Y-102690476D01*
X117552381Y-102357142D01*
X117171429Y-102023809D02*
X117171429Y-101261904D01*
X116552381Y-100928571D02*
X116552381Y-100357142D01*
X117552381Y-100642857D02*
X116552381Y-100642857D01*
X117552381Y-99452380D02*
X117076190Y-99785714D01*
X117552381Y-100023809D02*
X116552381Y-100023809D01*
X116552381Y-99642856D01*
X116600000Y-99547618D01*
X116647619Y-99499999D01*
X116742857Y-99452380D01*
X116885714Y-99452380D01*
X116980952Y-99499999D01*
X117028571Y-99547618D01*
X117076190Y-99642856D01*
X117076190Y-100023809D01*
X112452381Y-105238095D02*
X111452381Y-105238095D01*
X111452381Y-105000000D01*
X111500000Y-104857142D01*
X111595238Y-104761904D01*
X111690476Y-104714285D01*
X111880952Y-104666666D01*
X112023810Y-104666666D01*
X112214286Y-104714285D01*
X112309524Y-104761904D01*
X112404762Y-104857142D01*
X112452381Y-105000000D01*
X112452381Y-105238095D01*
X111880952Y-104095238D02*
X111833333Y-104190476D01*
X111785714Y-104238095D01*
X111690476Y-104285714D01*
X111642857Y-104285714D01*
X111547619Y-104238095D01*
X111500000Y-104190476D01*
X111452381Y-104095238D01*
X111452381Y-103904761D01*
X111500000Y-103809523D01*
X111547619Y-103761904D01*
X111642857Y-103714285D01*
X111690476Y-103714285D01*
X111785714Y-103761904D01*
X111833333Y-103809523D01*
X111880952Y-103904761D01*
X111880952Y-104095238D01*
X111928571Y-104190476D01*
X111976190Y-104238095D01*
X112071429Y-104285714D01*
X112261905Y-104285714D01*
X112357143Y-104238095D01*
X112404762Y-104190476D01*
X112452381Y-104095238D01*
X112452381Y-103904761D01*
X112404762Y-103809523D01*
X112357143Y-103761904D01*
X112261905Y-103714285D01*
X112071429Y-103714285D01*
X111976190Y-103761904D01*
X111928571Y-103809523D01*
X111880952Y-103904761D01*
X134219048Y-102352381D02*
X133647619Y-102352381D01*
X133933333Y-102352381D02*
X133933333Y-101352381D01*
X133838095Y-101495238D01*
X133742857Y-101590476D01*
X133647619Y-101638095D01*
X134647619Y-102352381D02*
X134647619Y-101352381D01*
X135219048Y-102352381D01*
X135219048Y-101352381D01*
X136171429Y-101352381D02*
X135695238Y-101352381D01*
X135647619Y-101828571D01*
X135695238Y-101780952D01*
X135790476Y-101733333D01*
X136028572Y-101733333D01*
X136123810Y-101780952D01*
X136171429Y-101828571D01*
X136219048Y-101923810D01*
X136219048Y-102161905D01*
X136171429Y-102257143D01*
X136123810Y-102304762D01*
X136028572Y-102352381D01*
X135790476Y-102352381D01*
X135695238Y-102304762D01*
X135647619Y-102257143D01*
X136790476Y-101780952D02*
X136695238Y-101733333D01*
X136647619Y-101685714D01*
X136600000Y-101590476D01*
X136600000Y-101542857D01*
X136647619Y-101447619D01*
X136695238Y-101400000D01*
X136790476Y-101352381D01*
X136980953Y-101352381D01*
X137076191Y-101400000D01*
X137123810Y-101447619D01*
X137171429Y-101542857D01*
X137171429Y-101590476D01*
X137123810Y-101685714D01*
X137076191Y-101733333D01*
X136980953Y-101780952D01*
X136790476Y-101780952D01*
X136695238Y-101828571D01*
X136647619Y-101876190D01*
X136600000Y-101971429D01*
X136600000Y-102161905D01*
X136647619Y-102257143D01*
X136695238Y-102304762D01*
X136790476Y-102352381D01*
X136980953Y-102352381D01*
X137076191Y-102304762D01*
X137123810Y-102257143D01*
X137171429Y-102161905D01*
X137171429Y-101971429D01*
X137123810Y-101876190D01*
X137076191Y-101828571D01*
X136980953Y-101780952D01*
X138123810Y-102352381D02*
X137552381Y-102352381D01*
X137838095Y-102352381D02*
X137838095Y-101352381D01*
X137742857Y-101495238D01*
X137647619Y-101590476D01*
X137552381Y-101638095D01*
X138600000Y-102352381D02*
X138790476Y-102352381D01*
X138885715Y-102304762D01*
X138933334Y-102257143D01*
X139028572Y-102114286D01*
X139076191Y-101923810D01*
X139076191Y-101542857D01*
X139028572Y-101447619D01*
X138980953Y-101400000D01*
X138885715Y-101352381D01*
X138695238Y-101352381D01*
X138600000Y-101400000D01*
X138552381Y-101447619D01*
X138504762Y-101542857D01*
X138504762Y-101780952D01*
X138552381Y-101876190D01*
X138600000Y-101923810D01*
X138695238Y-101971429D01*
X138885715Y-101971429D01*
X138980953Y-101923810D01*
X139028572Y-101876190D01*
X139076191Y-101780952D01*
X139504762Y-102352381D02*
X139504762Y-101352381D01*
X139504762Y-101828571D02*
X140076191Y-101828571D01*
X140076191Y-102352381D02*
X140076191Y-101352381D01*
X140457143Y-101352381D02*
X140695238Y-102352381D01*
X140885715Y-101638095D01*
X141076191Y-102352381D01*
X141314286Y-101352381D01*
X141695238Y-101971429D02*
X142457143Y-101971429D01*
X142838095Y-101352381D02*
X143504762Y-101352381D01*
X143076190Y-102352381D01*
X143885714Y-101971429D02*
X144647619Y-101971429D01*
X145457143Y-101828571D02*
X145123809Y-101828571D01*
X145123809Y-102352381D02*
X145123809Y-101352381D01*
X145600000Y-101352381D01*
X138861905Y-106452381D02*
X138861905Y-105452381D01*
X139100000Y-105452381D01*
X139242858Y-105500000D01*
X139338096Y-105595238D01*
X139385715Y-105690476D01*
X139433334Y-105880952D01*
X139433334Y-106023810D01*
X139385715Y-106214286D01*
X139338096Y-106309524D01*
X139242858Y-106404762D01*
X139100000Y-106452381D01*
X138861905Y-106452381D01*
X139909524Y-106452381D02*
X140100000Y-106452381D01*
X140195239Y-106404762D01*
X140242858Y-106357143D01*
X140338096Y-106214286D01*
X140385715Y-106023810D01*
X140385715Y-105642857D01*
X140338096Y-105547619D01*
X140290477Y-105500000D01*
X140195239Y-105452381D01*
X140004762Y-105452381D01*
X139909524Y-105500000D01*
X139861905Y-105547619D01*
X139814286Y-105642857D01*
X139814286Y-105880952D01*
X139861905Y-105976190D01*
X139909524Y-106023810D01*
X140004762Y-106071429D01*
X140195239Y-106071429D01*
X140290477Y-106023810D01*
X140338096Y-105976190D01*
X140385715Y-105880952D01*
X146619048Y-87506381D02*
X146047619Y-87506381D01*
X146333333Y-87506381D02*
X146333333Y-86506381D01*
X146238095Y-86649238D01*
X146142857Y-86744476D01*
X146047619Y-86792095D01*
X147047619Y-87506381D02*
X147047619Y-86506381D01*
X147619048Y-87506381D01*
X147619048Y-86506381D01*
X148571429Y-86506381D02*
X148095238Y-86506381D01*
X148047619Y-86982571D01*
X148095238Y-86934952D01*
X148190476Y-86887333D01*
X148428572Y-86887333D01*
X148523810Y-86934952D01*
X148571429Y-86982571D01*
X148619048Y-87077810D01*
X148619048Y-87315905D01*
X148571429Y-87411143D01*
X148523810Y-87458762D01*
X148428572Y-87506381D01*
X148190476Y-87506381D01*
X148095238Y-87458762D01*
X148047619Y-87411143D01*
X149190476Y-86934952D02*
X149095238Y-86887333D01*
X149047619Y-86839714D01*
X149000000Y-86744476D01*
X149000000Y-86696857D01*
X149047619Y-86601619D01*
X149095238Y-86554000D01*
X149190476Y-86506381D01*
X149380953Y-86506381D01*
X149476191Y-86554000D01*
X149523810Y-86601619D01*
X149571429Y-86696857D01*
X149571429Y-86744476D01*
X149523810Y-86839714D01*
X149476191Y-86887333D01*
X149380953Y-86934952D01*
X149190476Y-86934952D01*
X149095238Y-86982571D01*
X149047619Y-87030190D01*
X149000000Y-87125429D01*
X149000000Y-87315905D01*
X149047619Y-87411143D01*
X149095238Y-87458762D01*
X149190476Y-87506381D01*
X149380953Y-87506381D01*
X149476191Y-87458762D01*
X149523810Y-87411143D01*
X149571429Y-87315905D01*
X149571429Y-87125429D01*
X149523810Y-87030190D01*
X149476191Y-86982571D01*
X149380953Y-86934952D01*
X150523810Y-87506381D02*
X149952381Y-87506381D01*
X150238095Y-87506381D02*
X150238095Y-86506381D01*
X150142857Y-86649238D01*
X150047619Y-86744476D01*
X149952381Y-86792095D01*
X151000000Y-87506381D02*
X151190476Y-87506381D01*
X151285715Y-87458762D01*
X151333334Y-87411143D01*
X151428572Y-87268286D01*
X151476191Y-87077810D01*
X151476191Y-86696857D01*
X151428572Y-86601619D01*
X151380953Y-86554000D01*
X151285715Y-86506381D01*
X151095238Y-86506381D01*
X151000000Y-86554000D01*
X150952381Y-86601619D01*
X150904762Y-86696857D01*
X150904762Y-86934952D01*
X150952381Y-87030190D01*
X151000000Y-87077810D01*
X151095238Y-87125429D01*
X151285715Y-87125429D01*
X151380953Y-87077810D01*
X151428572Y-87030190D01*
X151476191Y-86934952D01*
X151904762Y-87506381D02*
X151904762Y-86506381D01*
X151904762Y-86982571D02*
X152476191Y-86982571D01*
X152476191Y-87506381D02*
X152476191Y-86506381D01*
X152857143Y-86506381D02*
X153095238Y-87506381D01*
X153285715Y-86792095D01*
X153476191Y-87506381D01*
X153714286Y-86506381D01*
X154095238Y-87125429D02*
X154857143Y-87125429D01*
X155238095Y-86506381D02*
X155904762Y-86506381D01*
X155476190Y-87506381D01*
X156285714Y-87125429D02*
X157047619Y-87125429D01*
X157857143Y-86982571D02*
X157523809Y-86982571D01*
X157523809Y-87506381D02*
X157523809Y-86506381D01*
X158000000Y-86506381D01*
X150785714Y-91606381D02*
X150785714Y-90606381D01*
X151023809Y-90606381D01*
X151166667Y-90654000D01*
X151261905Y-90749238D01*
X151309524Y-90844476D01*
X151357143Y-91034952D01*
X151357143Y-91177810D01*
X151309524Y-91368286D01*
X151261905Y-91463524D01*
X151166667Y-91558762D01*
X151023809Y-91606381D01*
X150785714Y-91606381D01*
X152309524Y-91606381D02*
X151738095Y-91606381D01*
X152023809Y-91606381D02*
X152023809Y-90606381D01*
X151928571Y-90749238D01*
X151833333Y-90844476D01*
X151738095Y-90892095D01*
X152928571Y-90606381D02*
X153023810Y-90606381D01*
X153119048Y-90654000D01*
X153166667Y-90701619D01*
X153214286Y-90796857D01*
X153261905Y-90987333D01*
X153261905Y-91225429D01*
X153214286Y-91415905D01*
X153166667Y-91511143D01*
X153119048Y-91558762D01*
X153023810Y-91606381D01*
X152928571Y-91606381D01*
X152833333Y-91558762D01*
X152785714Y-91511143D01*
X152738095Y-91415905D01*
X152690476Y-91225429D01*
X152690476Y-90987333D01*
X152738095Y-90796857D01*
X152785714Y-90701619D01*
X152833333Y-90654000D01*
X152928571Y-90606381D01*
X166300000Y-97490476D02*
X166252381Y-97585714D01*
X166252381Y-97728571D01*
X166300000Y-97871429D01*
X166395238Y-97966667D01*
X166490476Y-98014286D01*
X166680952Y-98061905D01*
X166823810Y-98061905D01*
X167014286Y-98014286D01*
X167109524Y-97966667D01*
X167204762Y-97871429D01*
X167252381Y-97728571D01*
X167252381Y-97633333D01*
X167204762Y-97490476D01*
X167157143Y-97442857D01*
X166823810Y-97442857D01*
X166823810Y-97633333D01*
X167204762Y-97061905D02*
X167252381Y-96919048D01*
X167252381Y-96680952D01*
X167204762Y-96585714D01*
X167157143Y-96538095D01*
X167061905Y-96490476D01*
X166966667Y-96490476D01*
X166871429Y-96538095D01*
X166823810Y-96585714D01*
X166776190Y-96680952D01*
X166728571Y-96871429D01*
X166680952Y-96966667D01*
X166633333Y-97014286D01*
X166538095Y-97061905D01*
X166442857Y-97061905D01*
X166347619Y-97014286D01*
X166300000Y-96966667D01*
X166252381Y-96871429D01*
X166252381Y-96633333D01*
X166300000Y-96490476D01*
X166347619Y-96109524D02*
X166300000Y-96061905D01*
X166252381Y-95966667D01*
X166252381Y-95728571D01*
X166300000Y-95633333D01*
X166347619Y-95585714D01*
X166442857Y-95538095D01*
X166538095Y-95538095D01*
X166680952Y-95585714D01*
X167252381Y-96157143D01*
X167252381Y-95538095D01*
X159828572Y-98002381D02*
X159257143Y-98002381D01*
X159542857Y-98002381D02*
X159542857Y-97002381D01*
X159447619Y-97145238D01*
X159352381Y-97240476D01*
X159257143Y-97288095D01*
X160447619Y-97002381D02*
X160542858Y-97002381D01*
X160638096Y-97050000D01*
X160685715Y-97097619D01*
X160733334Y-97192857D01*
X160780953Y-97383333D01*
X160780953Y-97621429D01*
X160733334Y-97811905D01*
X160685715Y-97907143D01*
X160638096Y-97954762D01*
X160542858Y-98002381D01*
X160447619Y-98002381D01*
X160352381Y-97954762D01*
X160304762Y-97907143D01*
X160257143Y-97811905D01*
X160209524Y-97621429D01*
X160209524Y-97383333D01*
X160257143Y-97192857D01*
X160304762Y-97097619D01*
X160352381Y-97050000D01*
X160447619Y-97002381D01*
X161400000Y-97002381D02*
X161495239Y-97002381D01*
X161590477Y-97050000D01*
X161638096Y-97097619D01*
X161685715Y-97192857D01*
X161733334Y-97383333D01*
X161733334Y-97621429D01*
X161685715Y-97811905D01*
X161638096Y-97907143D01*
X161590477Y-97954762D01*
X161495239Y-98002381D01*
X161400000Y-98002381D01*
X161304762Y-97954762D01*
X161257143Y-97907143D01*
X161209524Y-97811905D01*
X161161905Y-97621429D01*
X161161905Y-97383333D01*
X161209524Y-97192857D01*
X161257143Y-97097619D01*
X161304762Y-97050000D01*
X161400000Y-97002381D01*
X162161905Y-98002381D02*
X162161905Y-97002381D01*
X162257143Y-97621429D02*
X162542858Y-98002381D01*
X162542858Y-97335714D02*
X162161905Y-97716667D01*
D12*
X160642858Y-96180952D02*
X160509524Y-95990476D01*
X160414286Y-96180952D02*
X160414286Y-95780952D01*
X160566667Y-95780952D01*
X160604762Y-95800000D01*
X160623810Y-95819048D01*
X160642858Y-95857143D01*
X160642858Y-95914286D01*
X160623810Y-95952381D01*
X160604762Y-95971429D01*
X160566667Y-95990476D01*
X160414286Y-95990476D01*
X160776191Y-95780952D02*
X161023810Y-95780952D01*
X160890477Y-95933333D01*
X160947619Y-95933333D01*
X160985715Y-95952381D01*
X161004762Y-95971429D01*
X161023810Y-96009524D01*
X161023810Y-96104762D01*
X161004762Y-96142857D01*
X160985715Y-96161905D01*
X160947619Y-96180952D01*
X160833334Y-96180952D01*
X160795238Y-96161905D01*
X160776191Y-96142857D01*
X161271429Y-95780952D02*
X161309524Y-95780952D01*
X161347619Y-95800000D01*
X161366667Y-95819048D01*
X161385714Y-95857143D01*
X161404762Y-95933333D01*
X161404762Y-96028571D01*
X161385714Y-96104762D01*
X161366667Y-96142857D01*
X161347619Y-96161905D01*
X161309524Y-96180952D01*
X161271429Y-96180952D01*
X161233333Y-96161905D01*
X161214286Y-96142857D01*
X161195238Y-96104762D01*
X161176190Y-96028571D01*
X161176190Y-95933333D01*
X161195238Y-95857143D01*
X161214286Y-95819048D01*
X161233333Y-95800000D01*
X161271429Y-95780952D01*
M02*
