%TF.GenerationSoftware,KiCad,Pcbnew,4.0.7-e2-6376~58~ubuntu16.04.1*%
%TF.CreationDate,2017-12-07T11:47:19+02:00*%
%TF.ProjectId,Rover_Commander_v3.1a,526F7665725F436F6D6D616E6465725F,rev?*%
%TF.FileFunction,Legend,Bot*%
%FSLAX46Y46*%
G04 Gerber Fmt 4.6, Leading zero omitted, Abs format (unit mm)*
G04 Created by KiCad (PCBNEW 4.0.7-e2-6376~58~ubuntu16.04.1) date Thu Dec  7 11:47:19 2017*
%MOMM*%
%LPD*%
G01*
G04 APERTURE LIST*
%ADD10C,0.100000*%
%ADD11C,0.150000*%
%ADD12C,0.120000*%
%ADD13R,2.400000X2.400000*%
%ADD14C,2.400000*%
%ADD15R,2.400000X4.200000*%
%ADD16R,2.400000X1.900000*%
%ADD17R,1.600000X1.150000*%
%ADD18R,1.150000X1.600000*%
%ADD19R,1.000000X1.500000*%
%ADD20R,0.750000X0.750000*%
%ADD21R,1.300000X1.200000*%
%ADD22R,1.500000X1.000000*%
%ADD23R,1.400000X1.400000*%
%ADD24R,2.200000X2.200000*%
%ADD25C,2.200000*%
%ADD26R,1.300000X1.600000*%
%ADD27R,1.600000X1.300000*%
%ADD28R,1.900000X1.000000*%
%ADD29R,1.950000X1.000000*%
%ADD30R,1.200000X1.300000*%
%ADD31C,1.920000*%
%ADD32C,3.100000*%
%ADD33R,2.100000X2.100000*%
%ADD34O,2.100000X2.100000*%
%ADD35R,2.000000X2.000000*%
%ADD36C,2.000000*%
%ADD37R,2.500000X2.100000*%
%ADD38R,0.950000X2.150000*%
%ADD39R,1.700000X0.650000*%
%ADD40R,0.650000X1.700000*%
G04 APERTURE END LIST*
D10*
D11*
X161242555Y-101092000D02*
X160535448Y-101799107D01*
X153924000Y-93773445D02*
X153163860Y-94533585D01*
X146605445Y-101092000D02*
X147365585Y-100331860D01*
X153924000Y-108410555D02*
X154684140Y-107650415D01*
X161242555Y-101092000D02*
X160482415Y-100331860D01*
X153924000Y-108410555D02*
X153163860Y-107650415D01*
X146605445Y-101092000D02*
X147365585Y-101852140D01*
X153924000Y-93773445D02*
X154684140Y-94533585D01*
X160535448Y-101799107D02*
X161260233Y-102523891D01*
D12*
X140012000Y-113742000D02*
X140012000Y-115002000D01*
X140012000Y-120562000D02*
X140012000Y-119302000D01*
X136252000Y-113742000D02*
X140012000Y-113742000D01*
X134002000Y-120562000D02*
X140012000Y-120562000D01*
X120304000Y-80934000D02*
X119604000Y-80934000D01*
X119604000Y-82134000D02*
X120304000Y-82134000D01*
X119058000Y-118052000D02*
X119058000Y-117352000D01*
X117858000Y-117352000D02*
X117858000Y-118052000D01*
X113889000Y-82134000D02*
X114589000Y-82134000D01*
X114589000Y-80934000D02*
X113889000Y-80934000D01*
X129272000Y-113312000D02*
X129272000Y-114012000D01*
X130472000Y-114012000D02*
X130472000Y-113312000D01*
X131442000Y-116152000D02*
X130742000Y-116152000D01*
X130742000Y-117352000D02*
X131442000Y-117352000D01*
X131442000Y-118692000D02*
X130742000Y-118692000D01*
X130742000Y-119892000D02*
X131442000Y-119892000D01*
X145704000Y-118588000D02*
X145704000Y-119288000D01*
X146904000Y-119288000D02*
X146904000Y-118588000D01*
X147736000Y-118588000D02*
X147736000Y-119288000D01*
X148936000Y-119288000D02*
X148936000Y-118588000D01*
X147412000Y-116424000D02*
X148112000Y-116424000D01*
X148112000Y-115224000D02*
X147412000Y-115224000D01*
X168564000Y-105572000D02*
X167864000Y-105572000D01*
X167864000Y-106772000D02*
X168564000Y-106772000D01*
X163800000Y-106772000D02*
X164500000Y-106772000D01*
X164500000Y-105572000D02*
X163800000Y-105572000D01*
X113834000Y-119064000D02*
X112734000Y-119064000D01*
X113834000Y-119064000D02*
X113834000Y-116564000D01*
X112734000Y-119064000D02*
X112734000Y-116564000D01*
X131530000Y-115212000D02*
X131530000Y-113512000D01*
X132630000Y-115212000D02*
X131530000Y-115212000D01*
X132630000Y-113512000D02*
X132630000Y-115212000D01*
X139968000Y-95956000D02*
X139968000Y-96886000D01*
X139968000Y-99116000D02*
X139968000Y-98186000D01*
X139968000Y-99116000D02*
X137808000Y-99116000D01*
X139968000Y-95956000D02*
X138508000Y-95956000D01*
X148550000Y-112500000D02*
X148550000Y-114200000D01*
X147450000Y-112500000D02*
X148550000Y-112500000D01*
X147450000Y-114200000D02*
X147450000Y-112500000D01*
X156780000Y-116374000D02*
X156780000Y-115274000D01*
X156780000Y-116374000D02*
X159280000Y-116374000D01*
X156780000Y-115274000D02*
X159280000Y-115274000D01*
X140584000Y-82970000D02*
X140584000Y-84670000D01*
X140584000Y-84670000D02*
X137434000Y-84670000D01*
X140584000Y-82970000D02*
X137434000Y-82970000D01*
X118700000Y-83912000D02*
X118700000Y-84912000D01*
X120060000Y-84912000D02*
X120060000Y-83912000D01*
X116668000Y-83912000D02*
X116668000Y-84912000D01*
X118028000Y-84912000D02*
X118028000Y-83912000D01*
X114636000Y-83912000D02*
X114636000Y-84912000D01*
X115996000Y-84912000D02*
X115996000Y-83912000D01*
X112604000Y-83912000D02*
X112604000Y-84912000D01*
X113964000Y-84912000D02*
X113964000Y-83912000D01*
X122764000Y-102708000D02*
X122764000Y-103708000D01*
X124124000Y-103708000D02*
X124124000Y-102708000D01*
X174416000Y-111668000D02*
X174416000Y-110668000D01*
X173056000Y-110668000D02*
X173056000Y-111668000D01*
X117180000Y-103500000D02*
X117180000Y-102500000D01*
X115820000Y-102500000D02*
X115820000Y-103500000D01*
X113820000Y-102500000D02*
X113820000Y-103500000D01*
X115180000Y-103500000D02*
X115180000Y-102500000D01*
X140544000Y-101184000D02*
X140544000Y-102184000D01*
X141904000Y-102184000D02*
X141904000Y-101184000D01*
X135972000Y-101184000D02*
X135972000Y-102184000D01*
X137332000Y-102184000D02*
X137332000Y-101184000D01*
X139020000Y-101184000D02*
X139020000Y-102184000D01*
X140380000Y-102184000D02*
X140380000Y-101184000D01*
X137496000Y-101184000D02*
X137496000Y-102184000D01*
X138856000Y-102184000D02*
X138856000Y-101184000D01*
X134448000Y-101184000D02*
X134448000Y-102184000D01*
X135808000Y-102184000D02*
X135808000Y-101184000D01*
X179152000Y-113376000D02*
X179152000Y-114376000D01*
X180512000Y-114376000D02*
X180512000Y-113376000D01*
X167500000Y-100680000D02*
X168500000Y-100680000D01*
X168500000Y-99320000D02*
X167500000Y-99320000D01*
X173056000Y-83236000D02*
X173056000Y-84236000D01*
X174416000Y-84236000D02*
X174416000Y-83236000D01*
X173056000Y-89500000D02*
X173056000Y-90500000D01*
X174416000Y-90500000D02*
X174416000Y-89500000D01*
X167000000Y-102680000D02*
X168000000Y-102680000D01*
X168000000Y-101320000D02*
X167000000Y-101320000D01*
X115916000Y-113964000D02*
X116916000Y-113964000D01*
X116916000Y-112604000D02*
X115916000Y-112604000D01*
X126076000Y-107868000D02*
X127076000Y-107868000D01*
X127076000Y-106508000D02*
X126076000Y-106508000D01*
X112096000Y-104900000D02*
X112096000Y-105900000D01*
X113456000Y-105900000D02*
X113456000Y-104900000D01*
X113456000Y-110600000D02*
X113456000Y-109600000D01*
X112096000Y-109600000D02*
X112096000Y-110600000D01*
D11*
X121809000Y-87024000D02*
X121809000Y-88549000D01*
X114059000Y-87024000D02*
X114059000Y-88629000D01*
X114059000Y-100174000D02*
X114059000Y-98569000D01*
X121809000Y-100174000D02*
X121809000Y-98569000D01*
X121809000Y-87024000D02*
X114059000Y-87024000D01*
X121809000Y-100174000D02*
X114059000Y-100174000D01*
X121809000Y-88549000D02*
X123334000Y-88549000D01*
X120091000Y-105248000D02*
X120091000Y-105298000D01*
X115941000Y-105248000D02*
X115941000Y-105393000D01*
X115941000Y-110398000D02*
X115941000Y-110253000D01*
X120091000Y-110398000D02*
X120091000Y-110253000D01*
X120091000Y-105248000D02*
X115941000Y-105248000D01*
X120091000Y-110398000D02*
X115941000Y-110398000D01*
X120091000Y-105298000D02*
X121491000Y-105298000D01*
D12*
X145740000Y-87108000D02*
X146670000Y-87108000D01*
X148900000Y-87108000D02*
X147970000Y-87108000D01*
X148900000Y-87108000D02*
X148900000Y-89268000D01*
X145740000Y-87108000D02*
X145740000Y-88568000D01*
X122012000Y-85120000D02*
X122012000Y-84420000D01*
X120812000Y-84420000D02*
X120812000Y-85120000D01*
X132680000Y-83220000D02*
X132680000Y-82520000D01*
X131480000Y-82520000D02*
X131480000Y-83220000D01*
X123202000Y-86046000D02*
X123202000Y-86346000D01*
X123202000Y-86346000D02*
X130602000Y-86346000D01*
X130602000Y-86346000D02*
X130602000Y-86046000D01*
X122702000Y-81246000D02*
X123202000Y-81246000D01*
X123202000Y-81246000D02*
X123202000Y-80946000D01*
X123202000Y-80946000D02*
X130602000Y-80946000D01*
X130602000Y-80946000D02*
X130602000Y-81246000D01*
X122702000Y-83346000D02*
X123202000Y-83346000D01*
X123202000Y-83346000D02*
X123202000Y-83946000D01*
X130602000Y-83946000D02*
X130602000Y-83346000D01*
X170324000Y-107328000D02*
X170324000Y-107028000D01*
X170324000Y-107028000D02*
X162924000Y-107028000D01*
X162924000Y-107028000D02*
X162924000Y-107328000D01*
X170824000Y-112128000D02*
X170324000Y-112128000D01*
X170324000Y-112128000D02*
X170324000Y-112428000D01*
X170324000Y-112428000D02*
X162924000Y-112428000D01*
X162924000Y-112428000D02*
X162924000Y-112128000D01*
X170824000Y-110028000D02*
X170324000Y-110028000D01*
X170324000Y-110028000D02*
X170324000Y-109428000D01*
X162924000Y-109428000D02*
X162924000Y-110028000D01*
D11*
X154275000Y-83102000D02*
X154930000Y-83102000D01*
X154275000Y-88602000D02*
X155025000Y-88602000D01*
X160685000Y-88602000D02*
X159935000Y-88602000D01*
X160685000Y-83102000D02*
X159935000Y-83102000D01*
X154275000Y-83102000D02*
X154275000Y-88602000D01*
X160685000Y-83102000D02*
X160685000Y-88602000D01*
X154930000Y-83102000D02*
X154930000Y-81352000D01*
X134689000Y-90355000D02*
X134689000Y-90805000D01*
X127439000Y-90355000D02*
X127439000Y-90880000D01*
X127439000Y-97605000D02*
X127439000Y-97080000D01*
X134689000Y-97605000D02*
X134689000Y-97080000D01*
X134689000Y-90355000D02*
X134164000Y-90355000D01*
X134689000Y-97605000D02*
X134164000Y-97605000D01*
X127439000Y-97605000D02*
X127964000Y-97605000D01*
X127439000Y-90355000D02*
X127964000Y-90355000D01*
X134689000Y-90805000D02*
X136064000Y-90805000D01*
X159941142Y-96152354D02*
X159368722Y-96724774D01*
X159267707Y-96758446D01*
X159200364Y-96758446D01*
X159099349Y-96724774D01*
X158964661Y-96590086D01*
X158930989Y-96489071D01*
X158930989Y-96421728D01*
X158964661Y-96320713D01*
X159537081Y-95748293D01*
X158863646Y-95074858D02*
X159200364Y-95411576D01*
X158897318Y-95781964D01*
X158897318Y-95714621D01*
X158863647Y-95613606D01*
X158695287Y-95445247D01*
X158594272Y-95411575D01*
X158526929Y-95411575D01*
X158425913Y-95445247D01*
X158257554Y-95613606D01*
X158223883Y-95714621D01*
X158223883Y-95781964D01*
X158257554Y-95882980D01*
X158425914Y-96051339D01*
X158526929Y-96085011D01*
X158594272Y-96085011D01*
X138761905Y-111952381D02*
X138761905Y-112761905D01*
X138714286Y-112857143D01*
X138666667Y-112904762D01*
X138571429Y-112952381D01*
X138380952Y-112952381D01*
X138285714Y-112904762D01*
X138238095Y-112857143D01*
X138190476Y-112761905D01*
X138190476Y-111952381D01*
X137285714Y-112285714D02*
X137285714Y-112952381D01*
X137523810Y-111904762D02*
X137761905Y-112619048D01*
X137142857Y-112619048D01*
X117166666Y-81357143D02*
X117214285Y-81404762D01*
X117357142Y-81452381D01*
X117452380Y-81452381D01*
X117595238Y-81404762D01*
X117690476Y-81309524D01*
X117738095Y-81214286D01*
X117785714Y-81023810D01*
X117785714Y-80880952D01*
X117738095Y-80690476D01*
X117690476Y-80595238D01*
X117595238Y-80500000D01*
X117452380Y-80452381D01*
X117357142Y-80452381D01*
X117214285Y-80500000D01*
X117166666Y-80547619D01*
X116833333Y-80452381D02*
X116214285Y-80452381D01*
X116547619Y-80833333D01*
X116404761Y-80833333D01*
X116309523Y-80880952D01*
X116261904Y-80928571D01*
X116214285Y-81023810D01*
X116214285Y-81261905D01*
X116261904Y-81357143D01*
X116309523Y-81404762D01*
X116404761Y-81452381D01*
X116690476Y-81452381D01*
X116785714Y-81404762D01*
X116833333Y-81357143D01*
X120357143Y-117535334D02*
X120404762Y-117487715D01*
X120452381Y-117344858D01*
X120452381Y-117249620D01*
X120404762Y-117106762D01*
X120309524Y-117011524D01*
X120214286Y-116963905D01*
X120023810Y-116916286D01*
X119880952Y-116916286D01*
X119690476Y-116963905D01*
X119595238Y-117011524D01*
X119500000Y-117106762D01*
X119452381Y-117249620D01*
X119452381Y-117344858D01*
X119500000Y-117487715D01*
X119547619Y-117535334D01*
X119785714Y-118392477D02*
X120452381Y-118392477D01*
X119404762Y-118154381D02*
X120119048Y-117916286D01*
X120119048Y-118535334D01*
X114405666Y-80857143D02*
X114453285Y-80904762D01*
X114596142Y-80952381D01*
X114691380Y-80952381D01*
X114834238Y-80904762D01*
X114929476Y-80809524D01*
X114977095Y-80714286D01*
X115024714Y-80523810D01*
X115024714Y-80380952D01*
X114977095Y-80190476D01*
X114929476Y-80095238D01*
X114834238Y-80000000D01*
X114691380Y-79952381D01*
X114596142Y-79952381D01*
X114453285Y-80000000D01*
X114405666Y-80047619D01*
X113500904Y-79952381D02*
X113977095Y-79952381D01*
X114024714Y-80428571D01*
X113977095Y-80380952D01*
X113881857Y-80333333D01*
X113643761Y-80333333D01*
X113548523Y-80380952D01*
X113500904Y-80428571D01*
X113453285Y-80523810D01*
X113453285Y-80761905D01*
X113500904Y-80857143D01*
X113548523Y-80904762D01*
X113643761Y-80952381D01*
X113881857Y-80952381D01*
X113977095Y-80904762D01*
X114024714Y-80857143D01*
X128979143Y-113495334D02*
X129026762Y-113447715D01*
X129074381Y-113304858D01*
X129074381Y-113209620D01*
X129026762Y-113066762D01*
X128931524Y-112971524D01*
X128836286Y-112923905D01*
X128645810Y-112876286D01*
X128502952Y-112876286D01*
X128312476Y-112923905D01*
X128217238Y-112971524D01*
X128122000Y-113066762D01*
X128074381Y-113209620D01*
X128074381Y-113304858D01*
X128122000Y-113447715D01*
X128169619Y-113495334D01*
X128074381Y-114352477D02*
X128074381Y-114162000D01*
X128122000Y-114066762D01*
X128169619Y-114019143D01*
X128312476Y-113923905D01*
X128502952Y-113876286D01*
X128883905Y-113876286D01*
X128979143Y-113923905D01*
X129026762Y-113971524D01*
X129074381Y-114066762D01*
X129074381Y-114257239D01*
X129026762Y-114352477D01*
X128979143Y-114400096D01*
X128883905Y-114447715D01*
X128645810Y-114447715D01*
X128550571Y-114400096D01*
X128502952Y-114352477D01*
X128455333Y-114257239D01*
X128455333Y-114066762D01*
X128502952Y-113971524D01*
X128550571Y-113923905D01*
X128645810Y-113876286D01*
X128166666Y-116857143D02*
X128214285Y-116904762D01*
X128357142Y-116952381D01*
X128452380Y-116952381D01*
X128595238Y-116904762D01*
X128690476Y-116809524D01*
X128738095Y-116714286D01*
X128785714Y-116523810D01*
X128785714Y-116380952D01*
X128738095Y-116190476D01*
X128690476Y-116095238D01*
X128595238Y-116000000D01*
X128452380Y-115952381D01*
X128357142Y-115952381D01*
X128214285Y-116000000D01*
X128166666Y-116047619D01*
X127833333Y-115952381D02*
X127166666Y-115952381D01*
X127595238Y-116952381D01*
X128142857Y-119857143D02*
X128190476Y-119904762D01*
X128333333Y-119952381D01*
X128428571Y-119952381D01*
X128571429Y-119904762D01*
X128666667Y-119809524D01*
X128714286Y-119714286D01*
X128761905Y-119523810D01*
X128761905Y-119380952D01*
X128714286Y-119190476D01*
X128666667Y-119095238D01*
X128571429Y-119000000D01*
X128428571Y-118952381D01*
X128333333Y-118952381D01*
X128190476Y-119000000D01*
X128142857Y-119047619D01*
X127190476Y-119952381D02*
X127761905Y-119952381D01*
X127476191Y-119952381D02*
X127476191Y-118952381D01*
X127571429Y-119095238D01*
X127666667Y-119190476D01*
X127761905Y-119238095D01*
X126571429Y-118952381D02*
X126476190Y-118952381D01*
X126380952Y-119000000D01*
X126333333Y-119047619D01*
X126285714Y-119142857D01*
X126238095Y-119333333D01*
X126238095Y-119571429D01*
X126285714Y-119761905D01*
X126333333Y-119857143D01*
X126380952Y-119904762D01*
X126476190Y-119952381D01*
X126571429Y-119952381D01*
X126666667Y-119904762D01*
X126714286Y-119857143D01*
X126761905Y-119761905D01*
X126809524Y-119571429D01*
X126809524Y-119333333D01*
X126761905Y-119142857D01*
X126714286Y-119047619D01*
X126666667Y-119000000D01*
X126571429Y-118952381D01*
X145411143Y-118295143D02*
X145458762Y-118247524D01*
X145506381Y-118104667D01*
X145506381Y-118009429D01*
X145458762Y-117866571D01*
X145363524Y-117771333D01*
X145268286Y-117723714D01*
X145077810Y-117676095D01*
X144934952Y-117676095D01*
X144744476Y-117723714D01*
X144649238Y-117771333D01*
X144554000Y-117866571D01*
X144506381Y-118009429D01*
X144506381Y-118104667D01*
X144554000Y-118247524D01*
X144601619Y-118295143D01*
X145506381Y-119247524D02*
X145506381Y-118676095D01*
X145506381Y-118961809D02*
X144506381Y-118961809D01*
X144649238Y-118866571D01*
X144744476Y-118771333D01*
X144792095Y-118676095D01*
X144839714Y-120104667D02*
X145506381Y-120104667D01*
X144458762Y-119866571D02*
X145173048Y-119628476D01*
X145173048Y-120247524D01*
X147443143Y-118295143D02*
X147490762Y-118247524D01*
X147538381Y-118104667D01*
X147538381Y-118009429D01*
X147490762Y-117866571D01*
X147395524Y-117771333D01*
X147300286Y-117723714D01*
X147109810Y-117676095D01*
X146966952Y-117676095D01*
X146776476Y-117723714D01*
X146681238Y-117771333D01*
X146586000Y-117866571D01*
X146538381Y-118009429D01*
X146538381Y-118104667D01*
X146586000Y-118247524D01*
X146633619Y-118295143D01*
X147538381Y-119247524D02*
X147538381Y-118676095D01*
X147538381Y-118961809D02*
X146538381Y-118961809D01*
X146681238Y-118866571D01*
X146776476Y-118771333D01*
X146824095Y-118676095D01*
X146538381Y-120104667D02*
X146538381Y-119914190D01*
X146586000Y-119818952D01*
X146633619Y-119771333D01*
X146776476Y-119676095D01*
X146966952Y-119628476D01*
X147347905Y-119628476D01*
X147443143Y-119676095D01*
X147490762Y-119723714D01*
X147538381Y-119818952D01*
X147538381Y-120009429D01*
X147490762Y-120104667D01*
X147443143Y-120152286D01*
X147347905Y-120199905D01*
X147109810Y-120199905D01*
X147014571Y-120152286D01*
X146966952Y-120104667D01*
X146919333Y-120009429D01*
X146919333Y-119818952D01*
X146966952Y-119723714D01*
X147014571Y-119676095D01*
X147109810Y-119628476D01*
X148404857Y-117431143D02*
X148452476Y-117478762D01*
X148595333Y-117526381D01*
X148690571Y-117526381D01*
X148833429Y-117478762D01*
X148928667Y-117383524D01*
X148976286Y-117288286D01*
X149023905Y-117097810D01*
X149023905Y-116954952D01*
X148976286Y-116764476D01*
X148928667Y-116669238D01*
X148833429Y-116574000D01*
X148690571Y-116526381D01*
X148595333Y-116526381D01*
X148452476Y-116574000D01*
X148404857Y-116621619D01*
X147452476Y-117526381D02*
X148023905Y-117526381D01*
X147738191Y-117526381D02*
X147738191Y-116526381D01*
X147833429Y-116669238D01*
X147928667Y-116764476D01*
X148023905Y-116812095D01*
X147119143Y-116526381D02*
X146452476Y-116526381D01*
X146881048Y-117526381D01*
X172142857Y-106357143D02*
X172190476Y-106404762D01*
X172333333Y-106452381D01*
X172428571Y-106452381D01*
X172571429Y-106404762D01*
X172666667Y-106309524D01*
X172714286Y-106214286D01*
X172761905Y-106023810D01*
X172761905Y-105880952D01*
X172714286Y-105690476D01*
X172666667Y-105595238D01*
X172571429Y-105500000D01*
X172428571Y-105452381D01*
X172333333Y-105452381D01*
X172190476Y-105500000D01*
X172142857Y-105547619D01*
X171761905Y-105547619D02*
X171714286Y-105500000D01*
X171619048Y-105452381D01*
X171380952Y-105452381D01*
X171285714Y-105500000D01*
X171238095Y-105547619D01*
X171190476Y-105642857D01*
X171190476Y-105738095D01*
X171238095Y-105880952D01*
X171809524Y-106452381D01*
X171190476Y-106452381D01*
X170571429Y-105452381D02*
X170476190Y-105452381D01*
X170380952Y-105500000D01*
X170333333Y-105547619D01*
X170285714Y-105642857D01*
X170238095Y-105833333D01*
X170238095Y-106071429D01*
X170285714Y-106261905D01*
X170333333Y-106357143D01*
X170380952Y-106404762D01*
X170476190Y-106452381D01*
X170571429Y-106452381D01*
X170666667Y-106404762D01*
X170714286Y-106357143D01*
X170761905Y-106261905D01*
X170809524Y-106071429D01*
X170809524Y-105833333D01*
X170761905Y-105642857D01*
X170714286Y-105547619D01*
X170666667Y-105500000D01*
X170571429Y-105452381D01*
X164642857Y-104857143D02*
X164690476Y-104904762D01*
X164833333Y-104952381D01*
X164928571Y-104952381D01*
X165071429Y-104904762D01*
X165166667Y-104809524D01*
X165214286Y-104714286D01*
X165261905Y-104523810D01*
X165261905Y-104380952D01*
X165214286Y-104190476D01*
X165166667Y-104095238D01*
X165071429Y-104000000D01*
X164928571Y-103952381D01*
X164833333Y-103952381D01*
X164690476Y-104000000D01*
X164642857Y-104047619D01*
X164261905Y-104047619D02*
X164214286Y-104000000D01*
X164119048Y-103952381D01*
X163880952Y-103952381D01*
X163785714Y-104000000D01*
X163738095Y-104047619D01*
X163690476Y-104142857D01*
X163690476Y-104238095D01*
X163738095Y-104380952D01*
X164309524Y-104952381D01*
X163690476Y-104952381D01*
X162738095Y-104952381D02*
X163309524Y-104952381D01*
X163023810Y-104952381D02*
X163023810Y-103952381D01*
X163119048Y-104095238D01*
X163214286Y-104190476D01*
X163309524Y-104238095D01*
X115452381Y-114761905D02*
X114452381Y-114761905D01*
X114452381Y-115000000D01*
X114500000Y-115142858D01*
X114595238Y-115238096D01*
X114690476Y-115285715D01*
X114880952Y-115333334D01*
X115023810Y-115333334D01*
X115214286Y-115285715D01*
X115309524Y-115238096D01*
X115404762Y-115142858D01*
X115452381Y-115000000D01*
X115452381Y-114761905D01*
X115452381Y-116285715D02*
X115452381Y-115714286D01*
X115452381Y-116000000D02*
X114452381Y-116000000D01*
X114595238Y-115904762D01*
X114690476Y-115809524D01*
X114738095Y-115714286D01*
X132952381Y-110761905D02*
X131952381Y-110761905D01*
X131952381Y-111000000D01*
X132000000Y-111142858D01*
X132095238Y-111238096D01*
X132190476Y-111285715D01*
X132380952Y-111333334D01*
X132523810Y-111333334D01*
X132714286Y-111285715D01*
X132809524Y-111238096D01*
X132904762Y-111142858D01*
X132952381Y-111000000D01*
X132952381Y-110761905D01*
X132047619Y-111714286D02*
X132000000Y-111761905D01*
X131952381Y-111857143D01*
X131952381Y-112095239D01*
X132000000Y-112190477D01*
X132047619Y-112238096D01*
X132142857Y-112285715D01*
X132238095Y-112285715D01*
X132380952Y-112238096D01*
X132952381Y-111666667D01*
X132952381Y-112285715D01*
X142738095Y-98952381D02*
X142738095Y-97952381D01*
X142500000Y-97952381D01*
X142357142Y-98000000D01*
X142261904Y-98095238D01*
X142214285Y-98190476D01*
X142166666Y-98380952D01*
X142166666Y-98523810D01*
X142214285Y-98714286D01*
X142261904Y-98809524D01*
X142357142Y-98904762D01*
X142500000Y-98952381D01*
X142738095Y-98952381D01*
X141833333Y-97952381D02*
X141214285Y-97952381D01*
X141547619Y-98333333D01*
X141404761Y-98333333D01*
X141309523Y-98380952D01*
X141261904Y-98428571D01*
X141214285Y-98523810D01*
X141214285Y-98761905D01*
X141261904Y-98857143D01*
X141309523Y-98904762D01*
X141404761Y-98952381D01*
X141690476Y-98952381D01*
X141785714Y-98904762D01*
X141833333Y-98857143D01*
X149744381Y-112738905D02*
X148744381Y-112738905D01*
X148744381Y-112977000D01*
X148792000Y-113119858D01*
X148887238Y-113215096D01*
X148982476Y-113262715D01*
X149172952Y-113310334D01*
X149315810Y-113310334D01*
X149506286Y-113262715D01*
X149601524Y-113215096D01*
X149696762Y-113119858D01*
X149744381Y-112977000D01*
X149744381Y-112738905D01*
X149077714Y-114167477D02*
X149744381Y-114167477D01*
X148696762Y-113929381D02*
X149411048Y-113691286D01*
X149411048Y-114310334D01*
X159318095Y-117776381D02*
X159318095Y-116776381D01*
X159080000Y-116776381D01*
X158937142Y-116824000D01*
X158841904Y-116919238D01*
X158794285Y-117014476D01*
X158746666Y-117204952D01*
X158746666Y-117347810D01*
X158794285Y-117538286D01*
X158841904Y-117633524D01*
X158937142Y-117728762D01*
X159080000Y-117776381D01*
X159318095Y-117776381D01*
X157841904Y-116776381D02*
X158318095Y-116776381D01*
X158365714Y-117252571D01*
X158318095Y-117204952D01*
X158222857Y-117157333D01*
X157984761Y-117157333D01*
X157889523Y-117204952D01*
X157841904Y-117252571D01*
X157794285Y-117347810D01*
X157794285Y-117585905D01*
X157841904Y-117681143D01*
X157889523Y-117728762D01*
X157984761Y-117776381D01*
X158222857Y-117776381D01*
X158318095Y-117728762D01*
X158365714Y-117681143D01*
X139422095Y-82422381D02*
X139422095Y-81422381D01*
X139184000Y-81422381D01*
X139041142Y-81470000D01*
X138945904Y-81565238D01*
X138898285Y-81660476D01*
X138850666Y-81850952D01*
X138850666Y-81993810D01*
X138898285Y-82184286D01*
X138945904Y-82279524D01*
X139041142Y-82374762D01*
X139184000Y-82422381D01*
X139422095Y-82422381D01*
X137993523Y-81422381D02*
X138184000Y-81422381D01*
X138279238Y-81470000D01*
X138326857Y-81517619D01*
X138422095Y-81660476D01*
X138469714Y-81850952D01*
X138469714Y-82231905D01*
X138422095Y-82327143D01*
X138374476Y-82374762D01*
X138279238Y-82422381D01*
X138088761Y-82422381D01*
X137993523Y-82374762D01*
X137945904Y-82327143D01*
X137898285Y-82231905D01*
X137898285Y-81993810D01*
X137945904Y-81898571D01*
X137993523Y-81850952D01*
X138088761Y-81803333D01*
X138279238Y-81803333D01*
X138374476Y-81850952D01*
X138422095Y-81898571D01*
X138469714Y-81993810D01*
X121452381Y-87333334D02*
X120976190Y-87000000D01*
X121452381Y-86761905D02*
X120452381Y-86761905D01*
X120452381Y-87142858D01*
X120500000Y-87238096D01*
X120547619Y-87285715D01*
X120642857Y-87333334D01*
X120785714Y-87333334D01*
X120880952Y-87285715D01*
X120928571Y-87238096D01*
X120976190Y-87142858D01*
X120976190Y-86761905D01*
X121452381Y-88285715D02*
X121452381Y-87714286D01*
X121452381Y-88000000D02*
X120452381Y-88000000D01*
X120595238Y-87904762D01*
X120690476Y-87809524D01*
X120738095Y-87714286D01*
X117952381Y-87333334D02*
X117476190Y-87000000D01*
X117952381Y-86761905D02*
X116952381Y-86761905D01*
X116952381Y-87142858D01*
X117000000Y-87238096D01*
X117047619Y-87285715D01*
X117142857Y-87333334D01*
X117285714Y-87333334D01*
X117380952Y-87285715D01*
X117428571Y-87238096D01*
X117476190Y-87142858D01*
X117476190Y-86761905D01*
X116952381Y-87666667D02*
X116952381Y-88285715D01*
X117333333Y-87952381D01*
X117333333Y-88095239D01*
X117380952Y-88190477D01*
X117428571Y-88238096D01*
X117523810Y-88285715D01*
X117761905Y-88285715D01*
X117857143Y-88238096D01*
X117904762Y-88190477D01*
X117952381Y-88095239D01*
X117952381Y-87809524D01*
X117904762Y-87714286D01*
X117857143Y-87666667D01*
X115952381Y-87333334D02*
X115476190Y-87000000D01*
X115952381Y-86761905D02*
X114952381Y-86761905D01*
X114952381Y-87142858D01*
X115000000Y-87238096D01*
X115047619Y-87285715D01*
X115142857Y-87333334D01*
X115285714Y-87333334D01*
X115380952Y-87285715D01*
X115428571Y-87238096D01*
X115476190Y-87142858D01*
X115476190Y-86761905D01*
X115285714Y-88190477D02*
X115952381Y-88190477D01*
X114904762Y-87952381D02*
X115619048Y-87714286D01*
X115619048Y-88333334D01*
X113952381Y-87333334D02*
X113476190Y-87000000D01*
X113952381Y-86761905D02*
X112952381Y-86761905D01*
X112952381Y-87142858D01*
X113000000Y-87238096D01*
X113047619Y-87285715D01*
X113142857Y-87333334D01*
X113285714Y-87333334D01*
X113380952Y-87285715D01*
X113428571Y-87238096D01*
X113476190Y-87142858D01*
X113476190Y-86761905D01*
X112952381Y-88238096D02*
X112952381Y-87761905D01*
X113428571Y-87714286D01*
X113380952Y-87761905D01*
X113333333Y-87857143D01*
X113333333Y-88095239D01*
X113380952Y-88190477D01*
X113428571Y-88238096D01*
X113523810Y-88285715D01*
X113761905Y-88285715D01*
X113857143Y-88238096D01*
X113904762Y-88190477D01*
X113952381Y-88095239D01*
X113952381Y-87857143D01*
X113904762Y-87761905D01*
X113857143Y-87714286D01*
X125346381Y-103041334D02*
X124870190Y-102708000D01*
X125346381Y-102469905D02*
X124346381Y-102469905D01*
X124346381Y-102850858D01*
X124394000Y-102946096D01*
X124441619Y-102993715D01*
X124536857Y-103041334D01*
X124679714Y-103041334D01*
X124774952Y-102993715D01*
X124822571Y-102946096D01*
X124870190Y-102850858D01*
X124870190Y-102469905D01*
X124346381Y-103898477D02*
X124346381Y-103708000D01*
X124394000Y-103612762D01*
X124441619Y-103565143D01*
X124584476Y-103469905D01*
X124774952Y-103422286D01*
X125155905Y-103422286D01*
X125251143Y-103469905D01*
X125298762Y-103517524D01*
X125346381Y-103612762D01*
X125346381Y-103803239D01*
X125298762Y-103898477D01*
X125251143Y-103946096D01*
X125155905Y-103993715D01*
X124917810Y-103993715D01*
X124822571Y-103946096D01*
X124774952Y-103898477D01*
X124727333Y-103803239D01*
X124727333Y-103612762D01*
X124774952Y-103517524D01*
X124822571Y-103469905D01*
X124917810Y-103422286D01*
X172738381Y-111001334D02*
X172262190Y-110668000D01*
X172738381Y-110429905D02*
X171738381Y-110429905D01*
X171738381Y-110810858D01*
X171786000Y-110906096D01*
X171833619Y-110953715D01*
X171928857Y-111001334D01*
X172071714Y-111001334D01*
X172166952Y-110953715D01*
X172214571Y-110906096D01*
X172262190Y-110810858D01*
X172262190Y-110429905D01*
X171738381Y-111334667D02*
X171738381Y-112001334D01*
X172738381Y-111572762D01*
X116452381Y-99709334D02*
X115976190Y-99376000D01*
X116452381Y-99137905D02*
X115452381Y-99137905D01*
X115452381Y-99518858D01*
X115500000Y-99614096D01*
X115547619Y-99661715D01*
X115642857Y-99709334D01*
X115785714Y-99709334D01*
X115880952Y-99661715D01*
X115928571Y-99614096D01*
X115976190Y-99518858D01*
X115976190Y-99137905D01*
X115880952Y-100280762D02*
X115833333Y-100185524D01*
X115785714Y-100137905D01*
X115690476Y-100090286D01*
X115642857Y-100090286D01*
X115547619Y-100137905D01*
X115500000Y-100185524D01*
X115452381Y-100280762D01*
X115452381Y-100471239D01*
X115500000Y-100566477D01*
X115547619Y-100614096D01*
X115642857Y-100661715D01*
X115690476Y-100661715D01*
X115785714Y-100614096D01*
X115833333Y-100566477D01*
X115880952Y-100471239D01*
X115880952Y-100280762D01*
X115928571Y-100185524D01*
X115976190Y-100137905D01*
X116071429Y-100090286D01*
X116261905Y-100090286D01*
X116357143Y-100137905D01*
X116404762Y-100185524D01*
X116452381Y-100280762D01*
X116452381Y-100471239D01*
X116404762Y-100566477D01*
X116357143Y-100614096D01*
X116261905Y-100661715D01*
X116071429Y-100661715D01*
X115976190Y-100614096D01*
X115928571Y-100566477D01*
X115880952Y-100471239D01*
X114452381Y-99833334D02*
X113976190Y-99500000D01*
X114452381Y-99261905D02*
X113452381Y-99261905D01*
X113452381Y-99642858D01*
X113500000Y-99738096D01*
X113547619Y-99785715D01*
X113642857Y-99833334D01*
X113785714Y-99833334D01*
X113880952Y-99785715D01*
X113928571Y-99738096D01*
X113976190Y-99642858D01*
X113976190Y-99261905D01*
X114452381Y-100309524D02*
X114452381Y-100500000D01*
X114404762Y-100595239D01*
X114357143Y-100642858D01*
X114214286Y-100738096D01*
X114023810Y-100785715D01*
X113642857Y-100785715D01*
X113547619Y-100738096D01*
X113500000Y-100690477D01*
X113452381Y-100595239D01*
X113452381Y-100404762D01*
X113500000Y-100309524D01*
X113547619Y-100261905D01*
X113642857Y-100214286D01*
X113880952Y-100214286D01*
X113976190Y-100261905D01*
X114023810Y-100309524D01*
X114071429Y-100404762D01*
X114071429Y-100595239D01*
X114023810Y-100690477D01*
X113976190Y-100738096D01*
X113880952Y-100785715D01*
X141452381Y-104357143D02*
X140976190Y-104023809D01*
X141452381Y-103785714D02*
X140452381Y-103785714D01*
X140452381Y-104166667D01*
X140500000Y-104261905D01*
X140547619Y-104309524D01*
X140642857Y-104357143D01*
X140785714Y-104357143D01*
X140880952Y-104309524D01*
X140928571Y-104261905D01*
X140976190Y-104166667D01*
X140976190Y-103785714D01*
X141452381Y-105309524D02*
X141452381Y-104738095D01*
X141452381Y-105023809D02*
X140452381Y-105023809D01*
X140595238Y-104928571D01*
X140690476Y-104833333D01*
X140738095Y-104738095D01*
X140452381Y-105928571D02*
X140452381Y-106023810D01*
X140500000Y-106119048D01*
X140547619Y-106166667D01*
X140642857Y-106214286D01*
X140833333Y-106261905D01*
X141071429Y-106261905D01*
X141261905Y-106214286D01*
X141357143Y-106166667D01*
X141404762Y-106119048D01*
X141452381Y-106023810D01*
X141452381Y-105928571D01*
X141404762Y-105833333D01*
X141357143Y-105785714D01*
X141261905Y-105738095D01*
X141071429Y-105690476D01*
X140833333Y-105690476D01*
X140642857Y-105738095D01*
X140547619Y-105785714D01*
X140500000Y-105833333D01*
X140452381Y-105928571D01*
X136952381Y-104357143D02*
X136476190Y-104023809D01*
X136952381Y-103785714D02*
X135952381Y-103785714D01*
X135952381Y-104166667D01*
X136000000Y-104261905D01*
X136047619Y-104309524D01*
X136142857Y-104357143D01*
X136285714Y-104357143D01*
X136380952Y-104309524D01*
X136428571Y-104261905D01*
X136476190Y-104166667D01*
X136476190Y-103785714D01*
X136952381Y-105309524D02*
X136952381Y-104738095D01*
X136952381Y-105023809D02*
X135952381Y-105023809D01*
X136095238Y-104928571D01*
X136190476Y-104833333D01*
X136238095Y-104738095D01*
X136952381Y-106261905D02*
X136952381Y-105690476D01*
X136952381Y-105976190D02*
X135952381Y-105976190D01*
X136095238Y-105880952D01*
X136190476Y-105785714D01*
X136238095Y-105690476D01*
X139952381Y-104357143D02*
X139476190Y-104023809D01*
X139952381Y-103785714D02*
X138952381Y-103785714D01*
X138952381Y-104166667D01*
X139000000Y-104261905D01*
X139047619Y-104309524D01*
X139142857Y-104357143D01*
X139285714Y-104357143D01*
X139380952Y-104309524D01*
X139428571Y-104261905D01*
X139476190Y-104166667D01*
X139476190Y-103785714D01*
X139952381Y-105309524D02*
X139952381Y-104738095D01*
X139952381Y-105023809D02*
X138952381Y-105023809D01*
X139095238Y-104928571D01*
X139190476Y-104833333D01*
X139238095Y-104738095D01*
X139047619Y-105690476D02*
X139000000Y-105738095D01*
X138952381Y-105833333D01*
X138952381Y-106071429D01*
X139000000Y-106166667D01*
X139047619Y-106214286D01*
X139142857Y-106261905D01*
X139238095Y-106261905D01*
X139380952Y-106214286D01*
X139952381Y-105642857D01*
X139952381Y-106261905D01*
X138452381Y-104357143D02*
X137976190Y-104023809D01*
X138452381Y-103785714D02*
X137452381Y-103785714D01*
X137452381Y-104166667D01*
X137500000Y-104261905D01*
X137547619Y-104309524D01*
X137642857Y-104357143D01*
X137785714Y-104357143D01*
X137880952Y-104309524D01*
X137928571Y-104261905D01*
X137976190Y-104166667D01*
X137976190Y-103785714D01*
X138452381Y-105309524D02*
X138452381Y-104738095D01*
X138452381Y-105023809D02*
X137452381Y-105023809D01*
X137595238Y-104928571D01*
X137690476Y-104833333D01*
X137738095Y-104738095D01*
X137452381Y-105642857D02*
X137452381Y-106261905D01*
X137833333Y-105928571D01*
X137833333Y-106071429D01*
X137880952Y-106166667D01*
X137928571Y-106214286D01*
X138023810Y-106261905D01*
X138261905Y-106261905D01*
X138357143Y-106214286D01*
X138404762Y-106166667D01*
X138452381Y-106071429D01*
X138452381Y-105785714D01*
X138404762Y-105690476D01*
X138357143Y-105642857D01*
X135452381Y-104357143D02*
X134976190Y-104023809D01*
X135452381Y-103785714D02*
X134452381Y-103785714D01*
X134452381Y-104166667D01*
X134500000Y-104261905D01*
X134547619Y-104309524D01*
X134642857Y-104357143D01*
X134785714Y-104357143D01*
X134880952Y-104309524D01*
X134928571Y-104261905D01*
X134976190Y-104166667D01*
X134976190Y-103785714D01*
X135452381Y-105309524D02*
X135452381Y-104738095D01*
X135452381Y-105023809D02*
X134452381Y-105023809D01*
X134595238Y-104928571D01*
X134690476Y-104833333D01*
X134738095Y-104738095D01*
X134785714Y-106166667D02*
X135452381Y-106166667D01*
X134404762Y-105928571D02*
X135119048Y-105690476D01*
X135119048Y-106309524D01*
X181734381Y-113233143D02*
X181258190Y-112899809D01*
X181734381Y-112661714D02*
X180734381Y-112661714D01*
X180734381Y-113042667D01*
X180782000Y-113137905D01*
X180829619Y-113185524D01*
X180924857Y-113233143D01*
X181067714Y-113233143D01*
X181162952Y-113185524D01*
X181210571Y-113137905D01*
X181258190Y-113042667D01*
X181258190Y-112661714D01*
X181734381Y-114185524D02*
X181734381Y-113614095D01*
X181734381Y-113899809D02*
X180734381Y-113899809D01*
X180877238Y-113804571D01*
X180972476Y-113709333D01*
X181020095Y-113614095D01*
X180734381Y-115090286D02*
X180734381Y-114614095D01*
X181210571Y-114566476D01*
X181162952Y-114614095D01*
X181115333Y-114709333D01*
X181115333Y-114947429D01*
X181162952Y-115042667D01*
X181210571Y-115090286D01*
X181305810Y-115137905D01*
X181543905Y-115137905D01*
X181639143Y-115090286D01*
X181686762Y-115042667D01*
X181734381Y-114947429D01*
X181734381Y-114709333D01*
X181686762Y-114614095D01*
X181639143Y-114566476D01*
X165410857Y-99820381D02*
X165744191Y-99344190D01*
X165982286Y-99820381D02*
X165982286Y-98820381D01*
X165601333Y-98820381D01*
X165506095Y-98868000D01*
X165458476Y-98915619D01*
X165410857Y-99010857D01*
X165410857Y-99153714D01*
X165458476Y-99248952D01*
X165506095Y-99296571D01*
X165601333Y-99344190D01*
X165982286Y-99344190D01*
X164458476Y-99820381D02*
X165029905Y-99820381D01*
X164744191Y-99820381D02*
X164744191Y-98820381D01*
X164839429Y-98963238D01*
X164934667Y-99058476D01*
X165029905Y-99106095D01*
X163601333Y-98820381D02*
X163791810Y-98820381D01*
X163887048Y-98868000D01*
X163934667Y-98915619D01*
X164029905Y-99058476D01*
X164077524Y-99248952D01*
X164077524Y-99629905D01*
X164029905Y-99725143D01*
X163982286Y-99772762D01*
X163887048Y-99820381D01*
X163696571Y-99820381D01*
X163601333Y-99772762D01*
X163553714Y-99725143D01*
X163506095Y-99629905D01*
X163506095Y-99391810D01*
X163553714Y-99296571D01*
X163601333Y-99248952D01*
X163696571Y-99201333D01*
X163887048Y-99201333D01*
X163982286Y-99248952D01*
X164029905Y-99296571D01*
X164077524Y-99391810D01*
X175638381Y-83093143D02*
X175162190Y-82759809D01*
X175638381Y-82521714D02*
X174638381Y-82521714D01*
X174638381Y-82902667D01*
X174686000Y-82997905D01*
X174733619Y-83045524D01*
X174828857Y-83093143D01*
X174971714Y-83093143D01*
X175066952Y-83045524D01*
X175114571Y-82997905D01*
X175162190Y-82902667D01*
X175162190Y-82521714D01*
X175638381Y-84045524D02*
X175638381Y-83474095D01*
X175638381Y-83759809D02*
X174638381Y-83759809D01*
X174781238Y-83664571D01*
X174876476Y-83569333D01*
X174924095Y-83474095D01*
X174638381Y-84378857D02*
X174638381Y-85045524D01*
X175638381Y-84616952D01*
X175638381Y-89357143D02*
X175162190Y-89023809D01*
X175638381Y-88785714D02*
X174638381Y-88785714D01*
X174638381Y-89166667D01*
X174686000Y-89261905D01*
X174733619Y-89309524D01*
X174828857Y-89357143D01*
X174971714Y-89357143D01*
X175066952Y-89309524D01*
X175114571Y-89261905D01*
X175162190Y-89166667D01*
X175162190Y-88785714D01*
X175638381Y-90309524D02*
X175638381Y-89738095D01*
X175638381Y-90023809D02*
X174638381Y-90023809D01*
X174781238Y-89928571D01*
X174876476Y-89833333D01*
X174924095Y-89738095D01*
X175066952Y-90880952D02*
X175019333Y-90785714D01*
X174971714Y-90738095D01*
X174876476Y-90690476D01*
X174828857Y-90690476D01*
X174733619Y-90738095D01*
X174686000Y-90785714D01*
X174638381Y-90880952D01*
X174638381Y-91071429D01*
X174686000Y-91166667D01*
X174733619Y-91214286D01*
X174828857Y-91261905D01*
X174876476Y-91261905D01*
X174971714Y-91214286D01*
X175019333Y-91166667D01*
X175066952Y-91071429D01*
X175066952Y-90880952D01*
X175114571Y-90785714D01*
X175162190Y-90738095D01*
X175257429Y-90690476D01*
X175447905Y-90690476D01*
X175543143Y-90738095D01*
X175590762Y-90785714D01*
X175638381Y-90880952D01*
X175638381Y-91071429D01*
X175590762Y-91166667D01*
X175543143Y-91214286D01*
X175447905Y-91261905D01*
X175257429Y-91261905D01*
X175162190Y-91214286D01*
X175114571Y-91166667D01*
X175066952Y-91071429D01*
X168142857Y-101002381D02*
X168476191Y-100526190D01*
X168714286Y-101002381D02*
X168714286Y-100002381D01*
X168333333Y-100002381D01*
X168238095Y-100050000D01*
X168190476Y-100097619D01*
X168142857Y-100192857D01*
X168142857Y-100335714D01*
X168190476Y-100430952D01*
X168238095Y-100478571D01*
X168333333Y-100526190D01*
X168714286Y-100526190D01*
X167190476Y-101002381D02*
X167761905Y-101002381D01*
X167476191Y-101002381D02*
X167476191Y-100002381D01*
X167571429Y-100145238D01*
X167666667Y-100240476D01*
X167761905Y-100288095D01*
X166714286Y-101002381D02*
X166523810Y-101002381D01*
X166428571Y-100954762D01*
X166380952Y-100907143D01*
X166285714Y-100764286D01*
X166238095Y-100573810D01*
X166238095Y-100192857D01*
X166285714Y-100097619D01*
X166333333Y-100050000D01*
X166428571Y-100002381D01*
X166619048Y-100002381D01*
X166714286Y-100050000D01*
X166761905Y-100097619D01*
X166809524Y-100192857D01*
X166809524Y-100430952D01*
X166761905Y-100526190D01*
X166714286Y-100573810D01*
X166619048Y-100621429D01*
X166428571Y-100621429D01*
X166333333Y-100573810D01*
X166285714Y-100526190D01*
X166238095Y-100430952D01*
X117058857Y-112286381D02*
X117392191Y-111810190D01*
X117630286Y-112286381D02*
X117630286Y-111286381D01*
X117249333Y-111286381D01*
X117154095Y-111334000D01*
X117106476Y-111381619D01*
X117058857Y-111476857D01*
X117058857Y-111619714D01*
X117106476Y-111714952D01*
X117154095Y-111762571D01*
X117249333Y-111810190D01*
X117630286Y-111810190D01*
X116677905Y-111381619D02*
X116630286Y-111334000D01*
X116535048Y-111286381D01*
X116296952Y-111286381D01*
X116201714Y-111334000D01*
X116154095Y-111381619D01*
X116106476Y-111476857D01*
X116106476Y-111572095D01*
X116154095Y-111714952D01*
X116725524Y-112286381D01*
X116106476Y-112286381D01*
X115487429Y-111286381D02*
X115392190Y-111286381D01*
X115296952Y-111334000D01*
X115249333Y-111381619D01*
X115201714Y-111476857D01*
X115154095Y-111667333D01*
X115154095Y-111905429D01*
X115201714Y-112095905D01*
X115249333Y-112191143D01*
X115296952Y-112238762D01*
X115392190Y-112286381D01*
X115487429Y-112286381D01*
X115582667Y-112238762D01*
X115630286Y-112191143D01*
X115677905Y-112095905D01*
X115725524Y-111905429D01*
X115725524Y-111667333D01*
X115677905Y-111476857D01*
X115630286Y-111381619D01*
X115582667Y-111334000D01*
X115487429Y-111286381D01*
X127218857Y-106190381D02*
X127552191Y-105714190D01*
X127790286Y-106190381D02*
X127790286Y-105190381D01*
X127409333Y-105190381D01*
X127314095Y-105238000D01*
X127266476Y-105285619D01*
X127218857Y-105380857D01*
X127218857Y-105523714D01*
X127266476Y-105618952D01*
X127314095Y-105666571D01*
X127409333Y-105714190D01*
X127790286Y-105714190D01*
X126837905Y-105285619D02*
X126790286Y-105238000D01*
X126695048Y-105190381D01*
X126456952Y-105190381D01*
X126361714Y-105238000D01*
X126314095Y-105285619D01*
X126266476Y-105380857D01*
X126266476Y-105476095D01*
X126314095Y-105618952D01*
X126885524Y-106190381D01*
X126266476Y-106190381D01*
X125885524Y-105285619D02*
X125837905Y-105238000D01*
X125742667Y-105190381D01*
X125504571Y-105190381D01*
X125409333Y-105238000D01*
X125361714Y-105285619D01*
X125314095Y-105380857D01*
X125314095Y-105476095D01*
X125361714Y-105618952D01*
X125933143Y-106190381D01*
X125314095Y-106190381D01*
X111952381Y-104993143D02*
X111476190Y-104659809D01*
X111952381Y-104421714D02*
X110952381Y-104421714D01*
X110952381Y-104802667D01*
X111000000Y-104897905D01*
X111047619Y-104945524D01*
X111142857Y-104993143D01*
X111285714Y-104993143D01*
X111380952Y-104945524D01*
X111428571Y-104897905D01*
X111476190Y-104802667D01*
X111476190Y-104421714D01*
X111047619Y-105374095D02*
X111000000Y-105421714D01*
X110952381Y-105516952D01*
X110952381Y-105755048D01*
X111000000Y-105850286D01*
X111047619Y-105897905D01*
X111142857Y-105945524D01*
X111238095Y-105945524D01*
X111380952Y-105897905D01*
X111952381Y-105326476D01*
X111952381Y-105945524D01*
X111285714Y-106802667D02*
X111952381Y-106802667D01*
X110904762Y-106564571D02*
X111619048Y-106326476D01*
X111619048Y-106945524D01*
X111778381Y-109457143D02*
X111302190Y-109123809D01*
X111778381Y-108885714D02*
X110778381Y-108885714D01*
X110778381Y-109266667D01*
X110826000Y-109361905D01*
X110873619Y-109409524D01*
X110968857Y-109457143D01*
X111111714Y-109457143D01*
X111206952Y-109409524D01*
X111254571Y-109361905D01*
X111302190Y-109266667D01*
X111302190Y-108885714D01*
X110873619Y-109838095D02*
X110826000Y-109885714D01*
X110778381Y-109980952D01*
X110778381Y-110219048D01*
X110826000Y-110314286D01*
X110873619Y-110361905D01*
X110968857Y-110409524D01*
X111064095Y-110409524D01*
X111206952Y-110361905D01*
X111778381Y-109790476D01*
X111778381Y-110409524D01*
X110778381Y-111314286D02*
X110778381Y-110838095D01*
X111254571Y-110790476D01*
X111206952Y-110838095D01*
X111159333Y-110933333D01*
X111159333Y-111171429D01*
X111206952Y-111266667D01*
X111254571Y-111314286D01*
X111349810Y-111361905D01*
X111587905Y-111361905D01*
X111683143Y-111314286D01*
X111730762Y-111266667D01*
X111778381Y-111171429D01*
X111778381Y-110933333D01*
X111730762Y-110838095D01*
X111683143Y-110790476D01*
X125761905Y-88952381D02*
X125761905Y-89761905D01*
X125714286Y-89857143D01*
X125666667Y-89904762D01*
X125571429Y-89952381D01*
X125380952Y-89952381D01*
X125285714Y-89904762D01*
X125238095Y-89857143D01*
X125190476Y-89761905D01*
X125190476Y-88952381D01*
X124809524Y-88952381D02*
X124190476Y-88952381D01*
X124523810Y-89333333D01*
X124380952Y-89333333D01*
X124285714Y-89380952D01*
X124238095Y-89428571D01*
X124190476Y-89523810D01*
X124190476Y-89761905D01*
X124238095Y-89857143D01*
X124285714Y-89904762D01*
X124380952Y-89952381D01*
X124666667Y-89952381D01*
X124761905Y-89904762D01*
X124809524Y-89857143D01*
X117761905Y-103952381D02*
X117761905Y-104761905D01*
X117714286Y-104857143D01*
X117666667Y-104904762D01*
X117571429Y-104952381D01*
X117380952Y-104952381D01*
X117285714Y-104904762D01*
X117238095Y-104857143D01*
X117190476Y-104761905D01*
X117190476Y-103952381D01*
X116285714Y-103952381D02*
X116476191Y-103952381D01*
X116571429Y-104000000D01*
X116619048Y-104047619D01*
X116714286Y-104190476D01*
X116761905Y-104380952D01*
X116761905Y-104761905D01*
X116714286Y-104857143D01*
X116666667Y-104904762D01*
X116571429Y-104952381D01*
X116380952Y-104952381D01*
X116285714Y-104904762D01*
X116238095Y-104857143D01*
X116190476Y-104761905D01*
X116190476Y-104523810D01*
X116238095Y-104428571D01*
X116285714Y-104380952D01*
X116380952Y-104333333D01*
X116571429Y-104333333D01*
X116666667Y-104380952D01*
X116714286Y-104428571D01*
X116761905Y-104523810D01*
X149272381Y-86677524D02*
X150272381Y-87010857D01*
X149272381Y-87344191D01*
X149272381Y-87534667D02*
X149272381Y-88106096D01*
X150272381Y-87820381D02*
X149272381Y-87820381D01*
X150272381Y-88963239D02*
X150272381Y-88391810D01*
X150272381Y-88677524D02*
X149272381Y-88677524D01*
X149415238Y-88582286D01*
X149510476Y-88487048D01*
X149558095Y-88391810D01*
X123357143Y-87333334D02*
X123404762Y-87285715D01*
X123452381Y-87142858D01*
X123452381Y-87047620D01*
X123404762Y-86904762D01*
X123309524Y-86809524D01*
X123214286Y-86761905D01*
X123023810Y-86714286D01*
X122880952Y-86714286D01*
X122690476Y-86761905D01*
X122595238Y-86809524D01*
X122500000Y-86904762D01*
X122452381Y-87047620D01*
X122452381Y-87142858D01*
X122500000Y-87285715D01*
X122547619Y-87333334D01*
X123452381Y-87809524D02*
X123452381Y-88000000D01*
X123404762Y-88095239D01*
X123357143Y-88142858D01*
X123214286Y-88238096D01*
X123023810Y-88285715D01*
X122642857Y-88285715D01*
X122547619Y-88238096D01*
X122500000Y-88190477D01*
X122452381Y-88095239D01*
X122452381Y-87904762D01*
X122500000Y-87809524D01*
X122547619Y-87761905D01*
X122642857Y-87714286D01*
X122880952Y-87714286D01*
X122976190Y-87761905D01*
X123023810Y-87809524D01*
X123071429Y-87904762D01*
X123071429Y-88095239D01*
X123023810Y-88190477D01*
X122976190Y-88238096D01*
X122880952Y-88285715D01*
X133687143Y-82227143D02*
X133734762Y-82179524D01*
X133782381Y-82036667D01*
X133782381Y-81941429D01*
X133734762Y-81798571D01*
X133639524Y-81703333D01*
X133544286Y-81655714D01*
X133353810Y-81608095D01*
X133210952Y-81608095D01*
X133020476Y-81655714D01*
X132925238Y-81703333D01*
X132830000Y-81798571D01*
X132782381Y-81941429D01*
X132782381Y-82036667D01*
X132830000Y-82179524D01*
X132877619Y-82227143D01*
X133782381Y-83179524D02*
X133782381Y-82608095D01*
X133782381Y-82893809D02*
X132782381Y-82893809D01*
X132925238Y-82798571D01*
X133020476Y-82703333D01*
X133068095Y-82608095D01*
X132782381Y-83512857D02*
X132782381Y-84131905D01*
X133163333Y-83798571D01*
X133163333Y-83941429D01*
X133210952Y-84036667D01*
X133258571Y-84084286D01*
X133353810Y-84131905D01*
X133591905Y-84131905D01*
X133687143Y-84084286D01*
X133734762Y-84036667D01*
X133782381Y-83941429D01*
X133782381Y-83655714D01*
X133734762Y-83560476D01*
X133687143Y-83512857D01*
X126997238Y-87893619D02*
X127092476Y-87846000D01*
X127187714Y-87750762D01*
X127330571Y-87607905D01*
X127425810Y-87560286D01*
X127521048Y-87560286D01*
X127473429Y-87798381D02*
X127568667Y-87750762D01*
X127663905Y-87655524D01*
X127711524Y-87465048D01*
X127711524Y-87131714D01*
X127663905Y-86941238D01*
X127568667Y-86846000D01*
X127473429Y-86798381D01*
X127282952Y-86798381D01*
X127187714Y-86846000D01*
X127092476Y-86941238D01*
X127044857Y-87131714D01*
X127044857Y-87465048D01*
X127092476Y-87655524D01*
X127187714Y-87750762D01*
X127282952Y-87798381D01*
X127473429Y-87798381D01*
X126092476Y-87798381D02*
X126663905Y-87798381D01*
X126378191Y-87798381D02*
X126378191Y-86798381D01*
X126473429Y-86941238D01*
X126568667Y-87036476D01*
X126663905Y-87084095D01*
X167095238Y-114047619D02*
X167190476Y-114000000D01*
X167285714Y-113904762D01*
X167428571Y-113761905D01*
X167523810Y-113714286D01*
X167619048Y-113714286D01*
X167571429Y-113952381D02*
X167666667Y-113904762D01*
X167761905Y-113809524D01*
X167809524Y-113619048D01*
X167809524Y-113285714D01*
X167761905Y-113095238D01*
X167666667Y-113000000D01*
X167571429Y-112952381D01*
X167380952Y-112952381D01*
X167285714Y-113000000D01*
X167190476Y-113095238D01*
X167142857Y-113285714D01*
X167142857Y-113619048D01*
X167190476Y-113809524D01*
X167285714Y-113904762D01*
X167380952Y-113952381D01*
X167571429Y-113952381D01*
X166761905Y-113047619D02*
X166714286Y-113000000D01*
X166619048Y-112952381D01*
X166380952Y-112952381D01*
X166285714Y-113000000D01*
X166238095Y-113047619D01*
X166190476Y-113142857D01*
X166190476Y-113238095D01*
X166238095Y-113380952D01*
X166809524Y-113952381D01*
X166190476Y-113952381D01*
X152802381Y-85090095D02*
X153611905Y-85090095D01*
X153707143Y-85137714D01*
X153754762Y-85185333D01*
X153802381Y-85280571D01*
X153802381Y-85471048D01*
X153754762Y-85566286D01*
X153707143Y-85613905D01*
X153611905Y-85661524D01*
X152802381Y-85661524D01*
X152802381Y-86042476D02*
X152802381Y-86709143D01*
X153802381Y-86280571D01*
X127261905Y-98952381D02*
X127261905Y-99761905D01*
X127214286Y-99857143D01*
X127166667Y-99904762D01*
X127071429Y-99952381D01*
X126880952Y-99952381D01*
X126785714Y-99904762D01*
X126738095Y-99857143D01*
X126690476Y-99761905D01*
X126690476Y-98952381D01*
X125690476Y-99952381D02*
X126261905Y-99952381D01*
X125976191Y-99952381D02*
X125976191Y-98952381D01*
X126071429Y-99095238D01*
X126166667Y-99190476D01*
X126261905Y-99238095D01*
%LPC*%
D13*
X142220000Y-86868000D03*
D14*
X134620000Y-86868000D03*
D10*
G36*
X161330943Y-102736023D02*
X160871324Y-103195642D01*
X159881375Y-102205693D01*
X160340994Y-101746074D01*
X161330943Y-102736023D01*
X161330943Y-102736023D01*
G37*
G36*
X160977390Y-103089577D02*
X160517771Y-103549196D01*
X159527822Y-102559247D01*
X159987441Y-102099628D01*
X160977390Y-103089577D01*
X160977390Y-103089577D01*
G37*
G36*
X160623836Y-103443130D02*
X160164217Y-103902749D01*
X159174268Y-102912800D01*
X159633887Y-102453181D01*
X160623836Y-103443130D01*
X160623836Y-103443130D01*
G37*
G36*
X160270283Y-103796683D02*
X159810664Y-104256302D01*
X158820715Y-103266353D01*
X159280334Y-102806734D01*
X160270283Y-103796683D01*
X160270283Y-103796683D01*
G37*
G36*
X159916730Y-104150237D02*
X159457111Y-104609856D01*
X158467162Y-103619907D01*
X158926781Y-103160288D01*
X159916730Y-104150237D01*
X159916730Y-104150237D01*
G37*
G36*
X159563176Y-104503790D02*
X159103557Y-104963409D01*
X158113608Y-103973460D01*
X158573227Y-103513841D01*
X159563176Y-104503790D01*
X159563176Y-104503790D01*
G37*
G36*
X159209623Y-104857344D02*
X158750004Y-105316963D01*
X157760055Y-104327014D01*
X158219674Y-103867395D01*
X159209623Y-104857344D01*
X159209623Y-104857344D01*
G37*
G36*
X158856069Y-105210897D02*
X158396450Y-105670516D01*
X157406501Y-104680567D01*
X157866120Y-104220948D01*
X158856069Y-105210897D01*
X158856069Y-105210897D01*
G37*
G36*
X158502516Y-105564450D02*
X158042897Y-106024069D01*
X157052948Y-105034120D01*
X157512567Y-104574501D01*
X158502516Y-105564450D01*
X158502516Y-105564450D01*
G37*
G36*
X158148963Y-105918004D02*
X157689344Y-106377623D01*
X156699395Y-105387674D01*
X157159014Y-104928055D01*
X158148963Y-105918004D01*
X158148963Y-105918004D01*
G37*
G36*
X157795409Y-106271557D02*
X157335790Y-106731176D01*
X156345841Y-105741227D01*
X156805460Y-105281608D01*
X157795409Y-106271557D01*
X157795409Y-106271557D01*
G37*
G36*
X157441856Y-106625111D02*
X156982237Y-107084730D01*
X155992288Y-106094781D01*
X156451907Y-105635162D01*
X157441856Y-106625111D01*
X157441856Y-106625111D01*
G37*
G36*
X157088302Y-106978664D02*
X156628683Y-107438283D01*
X155638734Y-106448334D01*
X156098353Y-105988715D01*
X157088302Y-106978664D01*
X157088302Y-106978664D01*
G37*
G36*
X156734749Y-107332217D02*
X156275130Y-107791836D01*
X155285181Y-106801887D01*
X155744800Y-106342268D01*
X156734749Y-107332217D01*
X156734749Y-107332217D01*
G37*
G36*
X156381196Y-107685771D02*
X155921577Y-108145390D01*
X154931628Y-107155441D01*
X155391247Y-106695822D01*
X156381196Y-107685771D01*
X156381196Y-107685771D01*
G37*
G36*
X156027642Y-108039324D02*
X155568023Y-108498943D01*
X154578074Y-107508994D01*
X155037693Y-107049375D01*
X156027642Y-108039324D01*
X156027642Y-108039324D01*
G37*
G36*
X152279977Y-108498943D02*
X151820358Y-108039324D01*
X152810307Y-107049375D01*
X153269926Y-107508994D01*
X152279977Y-108498943D01*
X152279977Y-108498943D01*
G37*
G36*
X151926423Y-108145390D02*
X151466804Y-107685771D01*
X152456753Y-106695822D01*
X152916372Y-107155441D01*
X151926423Y-108145390D01*
X151926423Y-108145390D01*
G37*
G36*
X151572870Y-107791836D02*
X151113251Y-107332217D01*
X152103200Y-106342268D01*
X152562819Y-106801887D01*
X151572870Y-107791836D01*
X151572870Y-107791836D01*
G37*
G36*
X151219317Y-107438283D02*
X150759698Y-106978664D01*
X151749647Y-105988715D01*
X152209266Y-106448334D01*
X151219317Y-107438283D01*
X151219317Y-107438283D01*
G37*
G36*
X150865763Y-107084730D02*
X150406144Y-106625111D01*
X151396093Y-105635162D01*
X151855712Y-106094781D01*
X150865763Y-107084730D01*
X150865763Y-107084730D01*
G37*
G36*
X150512210Y-106731176D02*
X150052591Y-106271557D01*
X151042540Y-105281608D01*
X151502159Y-105741227D01*
X150512210Y-106731176D01*
X150512210Y-106731176D01*
G37*
G36*
X150158656Y-106377623D02*
X149699037Y-105918004D01*
X150688986Y-104928055D01*
X151148605Y-105387674D01*
X150158656Y-106377623D01*
X150158656Y-106377623D01*
G37*
G36*
X149805103Y-106024069D02*
X149345484Y-105564450D01*
X150335433Y-104574501D01*
X150795052Y-105034120D01*
X149805103Y-106024069D01*
X149805103Y-106024069D01*
G37*
G36*
X149451550Y-105670516D02*
X148991931Y-105210897D01*
X149981880Y-104220948D01*
X150441499Y-104680567D01*
X149451550Y-105670516D01*
X149451550Y-105670516D01*
G37*
G36*
X149097996Y-105316963D02*
X148638377Y-104857344D01*
X149628326Y-103867395D01*
X150087945Y-104327014D01*
X149097996Y-105316963D01*
X149097996Y-105316963D01*
G37*
G36*
X148744443Y-104963409D02*
X148284824Y-104503790D01*
X149274773Y-103513841D01*
X149734392Y-103973460D01*
X148744443Y-104963409D01*
X148744443Y-104963409D01*
G37*
G36*
X148390889Y-104609856D02*
X147931270Y-104150237D01*
X148921219Y-103160288D01*
X149380838Y-103619907D01*
X148390889Y-104609856D01*
X148390889Y-104609856D01*
G37*
G36*
X148037336Y-104256302D02*
X147577717Y-103796683D01*
X148567666Y-102806734D01*
X149027285Y-103266353D01*
X148037336Y-104256302D01*
X148037336Y-104256302D01*
G37*
G36*
X147683783Y-103902749D02*
X147224164Y-103443130D01*
X148214113Y-102453181D01*
X148673732Y-102912800D01*
X147683783Y-103902749D01*
X147683783Y-103902749D01*
G37*
G36*
X147330229Y-103549196D02*
X146870610Y-103089577D01*
X147860559Y-102099628D01*
X148320178Y-102559247D01*
X147330229Y-103549196D01*
X147330229Y-103549196D01*
G37*
G36*
X146976676Y-103195642D02*
X146517057Y-102736023D01*
X147507006Y-101746074D01*
X147966625Y-102205693D01*
X146976676Y-103195642D01*
X146976676Y-103195642D01*
G37*
G36*
X147966625Y-99978307D02*
X147507006Y-100437926D01*
X146517057Y-99447977D01*
X146976676Y-98988358D01*
X147966625Y-99978307D01*
X147966625Y-99978307D01*
G37*
G36*
X148320178Y-99624753D02*
X147860559Y-100084372D01*
X146870610Y-99094423D01*
X147330229Y-98634804D01*
X148320178Y-99624753D01*
X148320178Y-99624753D01*
G37*
G36*
X148673732Y-99271200D02*
X148214113Y-99730819D01*
X147224164Y-98740870D01*
X147683783Y-98281251D01*
X148673732Y-99271200D01*
X148673732Y-99271200D01*
G37*
G36*
X149027285Y-98917647D02*
X148567666Y-99377266D01*
X147577717Y-98387317D01*
X148037336Y-97927698D01*
X149027285Y-98917647D01*
X149027285Y-98917647D01*
G37*
G36*
X149380838Y-98564093D02*
X148921219Y-99023712D01*
X147931270Y-98033763D01*
X148390889Y-97574144D01*
X149380838Y-98564093D01*
X149380838Y-98564093D01*
G37*
G36*
X149734392Y-98210540D02*
X149274773Y-98670159D01*
X148284824Y-97680210D01*
X148744443Y-97220591D01*
X149734392Y-98210540D01*
X149734392Y-98210540D01*
G37*
G36*
X150087945Y-97856986D02*
X149628326Y-98316605D01*
X148638377Y-97326656D01*
X149097996Y-96867037D01*
X150087945Y-97856986D01*
X150087945Y-97856986D01*
G37*
G36*
X150441499Y-97503433D02*
X149981880Y-97963052D01*
X148991931Y-96973103D01*
X149451550Y-96513484D01*
X150441499Y-97503433D01*
X150441499Y-97503433D01*
G37*
G36*
X150795052Y-97149880D02*
X150335433Y-97609499D01*
X149345484Y-96619550D01*
X149805103Y-96159931D01*
X150795052Y-97149880D01*
X150795052Y-97149880D01*
G37*
G36*
X151148605Y-96796326D02*
X150688986Y-97255945D01*
X149699037Y-96265996D01*
X150158656Y-95806377D01*
X151148605Y-96796326D01*
X151148605Y-96796326D01*
G37*
G36*
X151502159Y-96442773D02*
X151042540Y-96902392D01*
X150052591Y-95912443D01*
X150512210Y-95452824D01*
X151502159Y-96442773D01*
X151502159Y-96442773D01*
G37*
G36*
X151855712Y-96089219D02*
X151396093Y-96548838D01*
X150406144Y-95558889D01*
X150865763Y-95099270D01*
X151855712Y-96089219D01*
X151855712Y-96089219D01*
G37*
G36*
X152209266Y-95735666D02*
X151749647Y-96195285D01*
X150759698Y-95205336D01*
X151219317Y-94745717D01*
X152209266Y-95735666D01*
X152209266Y-95735666D01*
G37*
G36*
X152562819Y-95382113D02*
X152103200Y-95841732D01*
X151113251Y-94851783D01*
X151572870Y-94392164D01*
X152562819Y-95382113D01*
X152562819Y-95382113D01*
G37*
G36*
X152916372Y-95028559D02*
X152456753Y-95488178D01*
X151466804Y-94498229D01*
X151926423Y-94038610D01*
X152916372Y-95028559D01*
X152916372Y-95028559D01*
G37*
G36*
X153269926Y-94675006D02*
X152810307Y-95134625D01*
X151820358Y-94144676D01*
X152279977Y-93685057D01*
X153269926Y-94675006D01*
X153269926Y-94675006D01*
G37*
G36*
X155037693Y-95134625D02*
X154578074Y-94675006D01*
X155568023Y-93685057D01*
X156027642Y-94144676D01*
X155037693Y-95134625D01*
X155037693Y-95134625D01*
G37*
G36*
X155391247Y-95488178D02*
X154931628Y-95028559D01*
X155921577Y-94038610D01*
X156381196Y-94498229D01*
X155391247Y-95488178D01*
X155391247Y-95488178D01*
G37*
G36*
X155744800Y-95841732D02*
X155285181Y-95382113D01*
X156275130Y-94392164D01*
X156734749Y-94851783D01*
X155744800Y-95841732D01*
X155744800Y-95841732D01*
G37*
G36*
X156098353Y-96195285D02*
X155638734Y-95735666D01*
X156628683Y-94745717D01*
X157088302Y-95205336D01*
X156098353Y-96195285D01*
X156098353Y-96195285D01*
G37*
G36*
X156451907Y-96548838D02*
X155992288Y-96089219D01*
X156982237Y-95099270D01*
X157441856Y-95558889D01*
X156451907Y-96548838D01*
X156451907Y-96548838D01*
G37*
G36*
X156805460Y-96902392D02*
X156345841Y-96442773D01*
X157335790Y-95452824D01*
X157795409Y-95912443D01*
X156805460Y-96902392D01*
X156805460Y-96902392D01*
G37*
G36*
X157159014Y-97255945D02*
X156699395Y-96796326D01*
X157689344Y-95806377D01*
X158148963Y-96265996D01*
X157159014Y-97255945D01*
X157159014Y-97255945D01*
G37*
G36*
X157512567Y-97609499D02*
X157052948Y-97149880D01*
X158042897Y-96159931D01*
X158502516Y-96619550D01*
X157512567Y-97609499D01*
X157512567Y-97609499D01*
G37*
G36*
X157866120Y-97963052D02*
X157406501Y-97503433D01*
X158396450Y-96513484D01*
X158856069Y-96973103D01*
X157866120Y-97963052D01*
X157866120Y-97963052D01*
G37*
G36*
X158219674Y-98316605D02*
X157760055Y-97856986D01*
X158750004Y-96867037D01*
X159209623Y-97326656D01*
X158219674Y-98316605D01*
X158219674Y-98316605D01*
G37*
G36*
X158573227Y-98670159D02*
X158113608Y-98210540D01*
X159103557Y-97220591D01*
X159563176Y-97680210D01*
X158573227Y-98670159D01*
X158573227Y-98670159D01*
G37*
G36*
X158926781Y-99023712D02*
X158467162Y-98564093D01*
X159457111Y-97574144D01*
X159916730Y-98033763D01*
X158926781Y-99023712D01*
X158926781Y-99023712D01*
G37*
G36*
X159280334Y-99377266D02*
X158820715Y-98917647D01*
X159810664Y-97927698D01*
X160270283Y-98387317D01*
X159280334Y-99377266D01*
X159280334Y-99377266D01*
G37*
G36*
X159633887Y-99730819D02*
X159174268Y-99271200D01*
X160164217Y-98281251D01*
X160623836Y-98740870D01*
X159633887Y-99730819D01*
X159633887Y-99730819D01*
G37*
G36*
X159987441Y-100084372D02*
X159527822Y-99624753D01*
X160517771Y-98634804D01*
X160977390Y-99094423D01*
X159987441Y-100084372D01*
X159987441Y-100084372D01*
G37*
G36*
X160340994Y-100437926D02*
X159881375Y-99978307D01*
X160871324Y-98988358D01*
X161330943Y-99447977D01*
X160340994Y-100437926D01*
X160340994Y-100437926D01*
G37*
D15*
X141252000Y-117152000D03*
D16*
X134952000Y-117152000D03*
X134952000Y-114852000D03*
X134952000Y-119452000D03*
D17*
X120904000Y-81534000D03*
X119004000Y-81534000D03*
D18*
X118458000Y-118652000D03*
X118458000Y-116752000D03*
D17*
X113289000Y-81534000D03*
X115189000Y-81534000D03*
D18*
X129872000Y-112712000D03*
X129872000Y-114612000D03*
D17*
X132042000Y-116752000D03*
X130142000Y-116752000D03*
X132042000Y-119292000D03*
X130142000Y-119292000D03*
D18*
X146304000Y-117988000D03*
X146304000Y-119888000D03*
X148336000Y-117988000D03*
X148336000Y-119888000D03*
D17*
X146812000Y-115824000D03*
X148712000Y-115824000D03*
X169164000Y-106172000D03*
X167264000Y-106172000D03*
X163200000Y-106172000D03*
X165100000Y-106172000D03*
D19*
X113284000Y-116164000D03*
X113284000Y-118364000D03*
D20*
X132080000Y-113487000D03*
X132080000Y-114937000D03*
D21*
X138208000Y-98486000D03*
X138208000Y-96586000D03*
X140208000Y-97536000D03*
D20*
X148000000Y-114225000D03*
X148000000Y-112775000D03*
D22*
X159680000Y-115824000D03*
X157480000Y-115824000D03*
D23*
X139934000Y-83820000D03*
X137434000Y-83820000D03*
D24*
X177000000Y-118540000D03*
D25*
X177000000Y-116000000D03*
X177000000Y-113460000D03*
D24*
X177000000Y-88540000D03*
D25*
X177000000Y-86000000D03*
X177000000Y-83460000D03*
D26*
X119380000Y-85512000D03*
X119380000Y-83312000D03*
X117348000Y-85512000D03*
X117348000Y-83312000D03*
X115316000Y-85512000D03*
X115316000Y-83312000D03*
X113284000Y-85512000D03*
X113284000Y-83312000D03*
X123444000Y-104308000D03*
X123444000Y-102108000D03*
X173736000Y-110068000D03*
X173736000Y-112268000D03*
X116500000Y-101900000D03*
X116500000Y-104100000D03*
X114500000Y-104100000D03*
X114500000Y-101900000D03*
X141224000Y-102784000D03*
X141224000Y-100584000D03*
X136652000Y-102784000D03*
X136652000Y-100584000D03*
X139700000Y-102784000D03*
X139700000Y-100584000D03*
X138176000Y-102784000D03*
X138176000Y-100584000D03*
X135128000Y-102784000D03*
X135128000Y-100584000D03*
X179832000Y-114976000D03*
X179832000Y-112776000D03*
D27*
X169100000Y-100000000D03*
X166900000Y-100000000D03*
D26*
X173736000Y-84836000D03*
X173736000Y-82636000D03*
X173736000Y-91100000D03*
X173736000Y-88900000D03*
D27*
X168600000Y-102000000D03*
X166400000Y-102000000D03*
X117516000Y-113284000D03*
X115316000Y-113284000D03*
X127676000Y-107188000D03*
X125476000Y-107188000D03*
D26*
X112776000Y-106500000D03*
X112776000Y-104300000D03*
X112776000Y-109000000D03*
X112776000Y-111200000D03*
D28*
X122584000Y-89154000D03*
X122584000Y-90424000D03*
X122584000Y-91694000D03*
X122584000Y-92964000D03*
X122584000Y-94234000D03*
X122584000Y-95504000D03*
X122584000Y-96774000D03*
X122584000Y-98044000D03*
X113284000Y-98044000D03*
X113284000Y-96774000D03*
X113284000Y-95504000D03*
X113284000Y-94234000D03*
X113284000Y-92964000D03*
X113284000Y-91694000D03*
X113284000Y-90424000D03*
X113284000Y-89154000D03*
D29*
X120716000Y-105918000D03*
X120716000Y-107188000D03*
X120716000Y-108458000D03*
X120716000Y-109728000D03*
X115316000Y-109728000D03*
X115316000Y-108458000D03*
X115316000Y-107188000D03*
X115316000Y-105918000D03*
D30*
X148270000Y-88868000D03*
X146370000Y-88868000D03*
X147320000Y-86868000D03*
D31*
X173000000Y-102290000D03*
X173000000Y-99750000D03*
X175000000Y-99750000D03*
X175000000Y-102290000D03*
D32*
X177700000Y-107020000D03*
X177700000Y-95020000D03*
D33*
X159004000Y-118872000D03*
D34*
X156464000Y-118872000D03*
X153924000Y-118872000D03*
X151384000Y-118872000D03*
D33*
X109500000Y-89600000D03*
D34*
X109500000Y-92140000D03*
X109500000Y-94680000D03*
X109500000Y-97220000D03*
X109500000Y-99760000D03*
X109500000Y-102300000D03*
X109500000Y-104840000D03*
X109500000Y-107380000D03*
X109500000Y-109920000D03*
X109500000Y-112460000D03*
D35*
X115648000Y-119652000D03*
D36*
X115648000Y-117152000D03*
D35*
X144112000Y-117152000D03*
D36*
X144112000Y-119652000D03*
D18*
X121412000Y-85720000D03*
X121412000Y-83820000D03*
X132080000Y-83820000D03*
X132080000Y-81920000D03*
D37*
X123952000Y-82296000D03*
X129852000Y-82296000D03*
X129852000Y-84996000D03*
X123952000Y-84996000D03*
X169574000Y-111078000D03*
X163674000Y-111078000D03*
X163674000Y-108378000D03*
X169574000Y-108378000D03*
D38*
X155575000Y-82152000D03*
X156845000Y-82152000D03*
X158115000Y-82152000D03*
X159385000Y-82152000D03*
X159385000Y-89552000D03*
X158115000Y-89552000D03*
X156845000Y-89552000D03*
X155575000Y-89552000D03*
D35*
X120864000Y-103124000D03*
D36*
X118364000Y-103124000D03*
D39*
X135414000Y-91230000D03*
X135414000Y-91730000D03*
X135414000Y-92230000D03*
X135414000Y-92730000D03*
X135414000Y-93230000D03*
X135414000Y-93730000D03*
X135414000Y-94230000D03*
X135414000Y-94730000D03*
X135414000Y-95230000D03*
X135414000Y-95730000D03*
X135414000Y-96230000D03*
X135414000Y-96730000D03*
D40*
X133814000Y-98330000D03*
X133314000Y-98330000D03*
X132814000Y-98330000D03*
X132314000Y-98330000D03*
X131814000Y-98330000D03*
X131314000Y-98330000D03*
X130814000Y-98330000D03*
X130314000Y-98330000D03*
X129814000Y-98330000D03*
X129314000Y-98330000D03*
X128814000Y-98330000D03*
X128314000Y-98330000D03*
D39*
X126714000Y-96730000D03*
X126714000Y-96230000D03*
X126714000Y-95730000D03*
X126714000Y-95230000D03*
X126714000Y-94730000D03*
X126714000Y-94230000D03*
X126714000Y-93730000D03*
X126714000Y-93230000D03*
X126714000Y-92730000D03*
X126714000Y-92230000D03*
X126714000Y-91730000D03*
X126714000Y-91230000D03*
D40*
X128314000Y-89630000D03*
X128814000Y-89630000D03*
X129314000Y-89630000D03*
X129814000Y-89630000D03*
X130314000Y-89630000D03*
X130814000Y-89630000D03*
X131314000Y-89630000D03*
X131814000Y-89630000D03*
X132314000Y-89630000D03*
X132814000Y-89630000D03*
X133314000Y-89630000D03*
X133814000Y-89630000D03*
M02*
