M48
;DRILL file {KiCad 4.0.7-e2-6376~58~ubuntu16.04.1} date Thu Dec  7 11:47:21 2017
;FORMAT={3:3/ absolute / metric / suppress leading zeros}
FMAT,2
METRIC,TZ
T1C0.400
T2C0.900
T3C1.000
T4C2.300
%
G90
G05
M71
T1
X112833Y-107809
X114076Y-109701
X117348Y-81788
X120971Y-89916
X120971Y-95504
X121513Y-82638
X123500Y-87000
X124815Y-93117
X124968Y-99060
X125374Y-100679
X125503Y-103499
X126190Y-104609
X126492Y-89916
X127000Y-98552
X127349Y-105128
X127450Y-100317
X128016Y-102676
X128459Y-99897
X128524Y-92964
X128524Y-96012
X129540Y-87884
X130500Y-87085
X131064Y-87884
X131572Y-111586
X131887Y-101552
X132105Y-87813
X133176Y-102028
X133439Y-95231
X133500Y-97000
X133525Y-93836
X133535Y-99983
X133604Y-81788
X134112Y-101600
X136652Y-88392
X136652Y-90424
X136652Y-99061
X137160Y-96011
X137668Y-115316
X137672Y-90729
X138842Y-91447
X139005Y-121020
X139494Y-106006
X140500Y-106500
X141732Y-97536
X142000Y-89500
X142240Y-91440
X142500Y-104500
X143417Y-101718
X144300Y-98833
X145000Y-85500
X145327Y-95465
X145482Y-96326
X145500Y-81500
X145500Y-102000
X145500Y-93000
X147002Y-91994
X147501Y-109500
X148844Y-95504
X149500Y-93500
X149501Y-109505
X150000Y-108500
X150746Y-115826
X150876Y-92964
X150993Y-112470
X151835Y-105228
X152000Y-103000
X152604Y-91907
X152660Y-109938
X154000Y-89500
X154414Y-115799
X154825Y-86360
X155000Y-101234
X155599Y-97201
X156464Y-98552
X157054Y-99404
X157663Y-109489
X157988Y-84328
X158496Y-87884
X158496Y-114300
X158760Y-91440
X158887Y-95387
X159000Y-107000
X160528Y-83312
X160588Y-110804
X161544Y-98044
X161688Y-109361
X161706Y-106701
X162052Y-88900
X162052Y-102311
X162560Y-99568
X162655Y-94322
X163909Y-104440
X164693Y-98128
X165065Y-104431
X166729Y-94910
X167132Y-110744
X167758Y-95463
X168148Y-104581
X174244Y-96012
X177292Y-98044
T2
X115648Y-117152
X115648Y-119652
X118364Y-103124
X120864Y-103124
X144112Y-117152
X144112Y-119652
X173000Y-99750
X173000Y-102290
X175000Y-99750
X175000Y-102290
X177000Y-83460
X177000Y-86000
X177000Y-88540
X177000Y-113460
X177000Y-116000
X177000Y-118540
T3
X109500Y-89600
X109500Y-92140
X109500Y-94680
X109500Y-97220
X109500Y-99760
X109500Y-102300
X109500Y-104840
X109500Y-107380
X109500Y-109920
X109500Y-112460
X134620Y-86868
X142220Y-86868
X151384Y-118872
X153924Y-118872
X156464Y-118872
X159004Y-118872
T4
X177700Y-95020
X177700Y-107020
T0
M30
