%FSLAX45Y45*%
G04 Gerber Fmt 4.5, Leading zero omitted, Abs format (unit mm)*
G04 Created by KiCad (PCBNEW 4.0.7-e2-6376~58~ubuntu16.04.1) date Thu Dec  7 11:47:21 2017*
%MOMM*%
%LPD*%
G01*
G04 APERTURE LIST*
%ADD10C,0.127000*%
%ADD11C,0.150000*%
%ADD12C,0.200000*%
%ADD13C,0.300000*%
G04 APERTURE END LIST*
D10*
D11*
X17100000Y-8700000D02*
X17100000Y-8000000D01*
X16200000Y-8700000D02*
X17100000Y-8700000D01*
X16200000Y-8000000D02*
X16200000Y-8700000D01*
X17100000Y-11500000D02*
X17100000Y-12200000D01*
X16200000Y-11500000D02*
X17100000Y-11500000D01*
X16200000Y-12200000D02*
X16200000Y-11500000D01*
X11100000Y-11500000D02*
X11100000Y-12200000D01*
X10700000Y-11500000D02*
X11100000Y-11500000D01*
X11130000Y-8720000D02*
X10700000Y-8720000D01*
X11130000Y-8000000D02*
X11130000Y-8720000D01*
X17100000Y-8000000D02*
X18400000Y-8000000D01*
X16200000Y-12200000D02*
X11100000Y-12200000D01*
X10700000Y-11500000D02*
X10700000Y-8720000D01*
X18400000Y-12200000D02*
X17100000Y-12200000D01*
X18400000Y-8000000D02*
X18400000Y-12200000D01*
X11130000Y-8000000D02*
X16200000Y-8000000D01*
D12*
X11263251Y-10760948D02*
X11303251Y-10800948D01*
X11303251Y-10760948D02*
X11263251Y-10800948D01*
X11387601Y-10950112D02*
X11427601Y-10990112D01*
X11427601Y-10950112D02*
X11387601Y-10990112D01*
X11714800Y-8158800D02*
X11754800Y-8198800D01*
X11754800Y-8158800D02*
X11714800Y-8198800D01*
X12077100Y-8971600D02*
X12117100Y-9011600D01*
X12117100Y-8971600D02*
X12077100Y-9011600D01*
X12077100Y-9530400D02*
X12117100Y-9570400D01*
X12117100Y-9530400D02*
X12077100Y-9570400D01*
X12131290Y-8243845D02*
X12171290Y-8283845D01*
X12171290Y-8243845D02*
X12131290Y-8283845D01*
X12330000Y-8680000D02*
X12370000Y-8720000D01*
X12370000Y-8680000D02*
X12330000Y-8720000D01*
X12461541Y-9291659D02*
X12501541Y-9331659D01*
X12501541Y-9291659D02*
X12461541Y-9331659D01*
X12476800Y-9886000D02*
X12516800Y-9926000D01*
X12516800Y-9886000D02*
X12476800Y-9926000D01*
X12517386Y-10047883D02*
X12557386Y-10087883D01*
X12557386Y-10047883D02*
X12517386Y-10087883D01*
X12530252Y-10329881D02*
X12570252Y-10369881D01*
X12570252Y-10329881D02*
X12530252Y-10369881D01*
X12599019Y-10440851D02*
X12639019Y-10480851D01*
X12639019Y-10440851D02*
X12599019Y-10480851D01*
X12629200Y-8971600D02*
X12669200Y-9011600D01*
X12669200Y-8971600D02*
X12629200Y-9011600D01*
X12680000Y-9835200D02*
X12720000Y-9875200D01*
X12720000Y-9835200D02*
X12680000Y-9875200D01*
X12714869Y-10492823D02*
X12754869Y-10532823D01*
X12754869Y-10492823D02*
X12714869Y-10532823D01*
X12724974Y-10011652D02*
X12764974Y-10051652D01*
X12764974Y-10011652D02*
X12724974Y-10051652D01*
X12781600Y-10247557D02*
X12821600Y-10287557D01*
X12821600Y-10247557D02*
X12781600Y-10287557D01*
X12825882Y-9969701D02*
X12865882Y-10009701D01*
X12865882Y-9969701D02*
X12825882Y-10009701D01*
X12832400Y-9276400D02*
X12872400Y-9316400D01*
X12872400Y-9276400D02*
X12832400Y-9316400D01*
X12832400Y-9581200D02*
X12872400Y-9621200D01*
X12872400Y-9581200D02*
X12832400Y-9621200D01*
X12934000Y-8768400D02*
X12974000Y-8808400D01*
X12974000Y-8768400D02*
X12934000Y-8808400D01*
X13030000Y-8688500D02*
X13070000Y-8728500D01*
X13070000Y-8688500D02*
X13030000Y-8728500D01*
X13086400Y-8768400D02*
X13126400Y-8808400D01*
X13126400Y-8768400D02*
X13086400Y-8808400D01*
X13137200Y-11138600D02*
X13177200Y-11178600D01*
X13177200Y-11138600D02*
X13137200Y-11178600D01*
X13168742Y-10135159D02*
X13208742Y-10175159D01*
X13208742Y-10135159D02*
X13168742Y-10175159D01*
X13190540Y-8761288D02*
X13230540Y-8801288D01*
X13230540Y-8761288D02*
X13190540Y-8801288D01*
X13297650Y-10182750D02*
X13337650Y-10222750D01*
X13337650Y-10182750D02*
X13297650Y-10222750D01*
X13323920Y-9503110D02*
X13363920Y-9543110D01*
X13363920Y-9503110D02*
X13323920Y-9543110D01*
X13330000Y-9680000D02*
X13370000Y-9720000D01*
X13370000Y-9680000D02*
X13330000Y-9720000D01*
X13332493Y-9363594D02*
X13372493Y-9403594D01*
X13372493Y-9363594D02*
X13332493Y-9403594D01*
X13333451Y-9978286D02*
X13373451Y-10018286D01*
X13373451Y-9978286D02*
X13333451Y-10018286D01*
X13340400Y-8158800D02*
X13380400Y-8198800D01*
X13380400Y-8158800D02*
X13340400Y-8198800D01*
X13391200Y-10140000D02*
X13431200Y-10180000D01*
X13431200Y-10140000D02*
X13391200Y-10180000D01*
X13645200Y-8819200D02*
X13685200Y-8859200D01*
X13685200Y-8819200D02*
X13645200Y-8859200D01*
X13645200Y-9022400D02*
X13685200Y-9062400D01*
X13685200Y-9022400D02*
X13645200Y-9062400D01*
X13645200Y-9886100D02*
X13685200Y-9926100D01*
X13685200Y-9886100D02*
X13645200Y-9926100D01*
X13696000Y-9581100D02*
X13736000Y-9621100D01*
X13736000Y-9581100D02*
X13696000Y-9621100D01*
X13746800Y-11511600D02*
X13786800Y-11551600D01*
X13786800Y-11511600D02*
X13746800Y-11551600D01*
X13747175Y-9052919D02*
X13787175Y-9092919D01*
X13787175Y-9052919D02*
X13747175Y-9092919D01*
X13864248Y-9124723D02*
X13904248Y-9164723D01*
X13904248Y-9124723D02*
X13864248Y-9164723D01*
X13880454Y-12082018D02*
X13920454Y-12122018D01*
X13920454Y-12082018D02*
X13880454Y-12122018D01*
X13929377Y-10580610D02*
X13969377Y-10620610D01*
X13969377Y-10580610D02*
X13929377Y-10620610D01*
X14030000Y-10630000D02*
X14070000Y-10670000D01*
X14070000Y-10630000D02*
X14030000Y-10670000D01*
X14153200Y-9733600D02*
X14193200Y-9773600D01*
X14193200Y-9733600D02*
X14153200Y-9773600D01*
X14180000Y-8930000D02*
X14220000Y-8970000D01*
X14220000Y-8930000D02*
X14180000Y-8970000D01*
X14204000Y-9123999D02*
X14244000Y-9163999D01*
X14244000Y-9123999D02*
X14204000Y-9163999D01*
X14230000Y-10430000D02*
X14270000Y-10470000D01*
X14270000Y-10430000D02*
X14230000Y-10470000D01*
X14321735Y-10151792D02*
X14361735Y-10191792D01*
X14361735Y-10151792D02*
X14321735Y-10191792D01*
X14410048Y-9863329D02*
X14450048Y-9903329D01*
X14450048Y-9863329D02*
X14410048Y-9903329D01*
X14480000Y-8530000D02*
X14520000Y-8570000D01*
X14520000Y-8530000D02*
X14480000Y-8570000D01*
X14512708Y-9526492D02*
X14552708Y-9566492D01*
X14552708Y-9526492D02*
X14512708Y-9566492D01*
X14528152Y-9612648D02*
X14568152Y-9652648D01*
X14568152Y-9612648D02*
X14528152Y-9652648D01*
X14530000Y-8130000D02*
X14570000Y-8170000D01*
X14570000Y-8130000D02*
X14530000Y-8170000D01*
X14530000Y-10180000D02*
X14570000Y-10220000D01*
X14570000Y-10180000D02*
X14530000Y-10220000D01*
X14530046Y-9280024D02*
X14570046Y-9320024D01*
X14570046Y-9280024D02*
X14530046Y-9320024D01*
X14680211Y-9179366D02*
X14720211Y-9219366D01*
X14720211Y-9179366D02*
X14680211Y-9219366D01*
X14730075Y-10930001D02*
X14770075Y-10970001D01*
X14770075Y-10930001D02*
X14730075Y-10970001D01*
X14864400Y-9530400D02*
X14904400Y-9570400D01*
X14904400Y-9530400D02*
X14864400Y-9570400D01*
X14930000Y-9330000D02*
X14970000Y-9370000D01*
X14970000Y-9330000D02*
X14930000Y-9370000D01*
X14930101Y-10930545D02*
X14970101Y-10970545D01*
X14970101Y-10930545D02*
X14930101Y-10970545D01*
X14980000Y-10830000D02*
X15020000Y-10870000D01*
X15020000Y-10830000D02*
X14980000Y-10870000D01*
X15054615Y-11562616D02*
X15094615Y-11602616D01*
X15094615Y-11562616D02*
X15054615Y-11602616D01*
X15067600Y-9276400D02*
X15107600Y-9316400D01*
X15107600Y-9276400D02*
X15067600Y-9316400D01*
X15079279Y-11227028D02*
X15119279Y-11267028D01*
X15119279Y-11227028D02*
X15079279Y-11267028D01*
X15163493Y-10502839D02*
X15203493Y-10542839D01*
X15203493Y-10502839D02*
X15163493Y-10542839D01*
X15180000Y-10280000D02*
X15220000Y-10320000D01*
X15220000Y-10280000D02*
X15180000Y-10320000D01*
X15240369Y-9170719D02*
X15280369Y-9210719D01*
X15280369Y-9170719D02*
X15240369Y-9210719D01*
X15246024Y-10973823D02*
X15286024Y-11013823D01*
X15286024Y-10973823D02*
X15246024Y-11013823D01*
X15380000Y-8930000D02*
X15420000Y-8970000D01*
X15420000Y-8930000D02*
X15380000Y-8970000D01*
X15421405Y-11559930D02*
X15461405Y-11599930D01*
X15461405Y-11559930D02*
X15421405Y-11599930D01*
X15462500Y-8616000D02*
X15502500Y-8656000D01*
X15502500Y-8616000D02*
X15462500Y-8656000D01*
X15480046Y-10103446D02*
X15520046Y-10143446D01*
X15520046Y-10103446D02*
X15480046Y-10143446D01*
X15539915Y-9700133D02*
X15579915Y-9740133D01*
X15579915Y-9700133D02*
X15539915Y-9740133D01*
X15626400Y-9835200D02*
X15666400Y-9875200D01*
X15666400Y-9835200D02*
X15626400Y-9875200D01*
X15685425Y-9920399D02*
X15725425Y-9960399D01*
X15725425Y-9920399D02*
X15685425Y-9960399D01*
X15746338Y-10928926D02*
X15786338Y-10968926D01*
X15786338Y-10928926D02*
X15746338Y-10968926D01*
X15778800Y-8412800D02*
X15818800Y-8452800D01*
X15818800Y-8412800D02*
X15778800Y-8452800D01*
X15829600Y-8768400D02*
X15869600Y-8808400D01*
X15869600Y-8768400D02*
X15829600Y-8808400D01*
X15829600Y-11410000D02*
X15869600Y-11450000D01*
X15869600Y-11410000D02*
X15829600Y-11450000D01*
X15856000Y-9124000D02*
X15896000Y-9164000D01*
X15896000Y-9124000D02*
X15856000Y-9164000D01*
X15868677Y-9518677D02*
X15908677Y-9558677D01*
X15908677Y-9518677D02*
X15868677Y-9558677D01*
X15880000Y-10680000D02*
X15920000Y-10720000D01*
X15920000Y-10680000D02*
X15880000Y-10720000D01*
X16032800Y-8311200D02*
X16072800Y-8351200D01*
X16072800Y-8311200D02*
X16032800Y-8351200D01*
X16038809Y-11060409D02*
X16078809Y-11100409D01*
X16078809Y-11060409D02*
X16038809Y-11100409D01*
X16134400Y-9784400D02*
X16174400Y-9824400D01*
X16174400Y-9784400D02*
X16134400Y-9824400D01*
X16148781Y-10916150D02*
X16188781Y-10956150D01*
X16188781Y-10916150D02*
X16148781Y-10956150D01*
X16150559Y-10650146D02*
X16190559Y-10690146D01*
X16190559Y-10650146D02*
X16150559Y-10690146D01*
X16185200Y-8870000D02*
X16225200Y-8910000D01*
X16225200Y-8870000D02*
X16185200Y-8910000D01*
X16185200Y-10211081D02*
X16225200Y-10251081D01*
X16225200Y-10211081D02*
X16185200Y-10251081D01*
X16236000Y-9936800D02*
X16276000Y-9976800D01*
X16276000Y-9936800D02*
X16236000Y-9976800D01*
X16245506Y-9412181D02*
X16285506Y-9452181D01*
X16285506Y-9412181D02*
X16245506Y-9452181D01*
X16370906Y-10424004D02*
X16410906Y-10464004D01*
X16410906Y-10424004D02*
X16370906Y-10464004D01*
X16449305Y-9792837D02*
X16489305Y-9832837D01*
X16489305Y-9792837D02*
X16449305Y-9832837D01*
X16486537Y-10423115D02*
X16526537Y-10463115D01*
X16526537Y-10423115D02*
X16486537Y-10463115D01*
X16652882Y-9470951D02*
X16692882Y-9510951D01*
X16692882Y-9470951D02*
X16652882Y-9510951D01*
X16693200Y-11054400D02*
X16733200Y-11094400D01*
X16733200Y-11054400D02*
X16693200Y-11094400D01*
X16755844Y-9526300D02*
X16795845Y-9566300D01*
X16795845Y-9526300D02*
X16755844Y-9566300D01*
X16794800Y-10438100D02*
X16834800Y-10478100D01*
X16834800Y-10438100D02*
X16794800Y-10478100D01*
X17404400Y-9581200D02*
X17444400Y-9621200D01*
X17444400Y-9581200D02*
X17404400Y-9621200D01*
X17709200Y-9784400D02*
X17749200Y-9824400D01*
X17749200Y-9784400D02*
X17709200Y-9824400D01*
X11609800Y-11715200D02*
G75*
G03X11609800Y-11715200I-45000J0D01*
G01*
X11609800Y-11965200D02*
G75*
G03X11609800Y-11965200I-45000J0D01*
G01*
X11881400Y-10312400D02*
G75*
G03X11881400Y-10312400I-45000J0D01*
G01*
X12131400Y-10312400D02*
G75*
G03X12131400Y-10312400I-45000J0D01*
G01*
X14456200Y-11715200D02*
G75*
G03X14456200Y-11715200I-45000J0D01*
G01*
X14456200Y-11965200D02*
G75*
G03X14456200Y-11965200I-45000J0D01*
G01*
X17345000Y-9975000D02*
G75*
G03X17345000Y-9975000I-45000J0D01*
G01*
X17345000Y-10229000D02*
G75*
G03X17345000Y-10229000I-45000J0D01*
G01*
X17545000Y-9975000D02*
G75*
G03X17545000Y-9975000I-45000J0D01*
G01*
X17545000Y-10229000D02*
G75*
G03X17545000Y-10229000I-45000J0D01*
G01*
X17745000Y-8346000D02*
G75*
G03X17745000Y-8346000I-45000J0D01*
G01*
X17745000Y-8600000D02*
G75*
G03X17745000Y-8600000I-45000J0D01*
G01*
X17745000Y-8854000D02*
G75*
G03X17745000Y-8854000I-45000J0D01*
G01*
X17745000Y-11346000D02*
G75*
G03X17745000Y-11346000I-45000J0D01*
G01*
X17745000Y-11600000D02*
G75*
G03X17745000Y-11600000I-45000J0D01*
G01*
X17745000Y-11854000D02*
G75*
G03X17745000Y-11854000I-45000J0D01*
G01*
X10950000Y-8910000D02*
X10950000Y-9010000D01*
X10900000Y-8960000D02*
X11000000Y-8960000D01*
X10950000Y-9164000D02*
X10950000Y-9264000D01*
X10900000Y-9214000D02*
X11000000Y-9214000D01*
X10950000Y-9418000D02*
X10950000Y-9518000D01*
X10900000Y-9468000D02*
X11000000Y-9468000D01*
X10950000Y-9672000D02*
X10950000Y-9772000D01*
X10900000Y-9722000D02*
X11000000Y-9722000D01*
X10950000Y-9926000D02*
X10950000Y-10026000D01*
X10900000Y-9976000D02*
X11000000Y-9976000D01*
X10950000Y-10180000D02*
X10950000Y-10280000D01*
X10900000Y-10230000D02*
X11000000Y-10230000D01*
X10950000Y-10434000D02*
X10950000Y-10534000D01*
X10900000Y-10484000D02*
X11000000Y-10484000D01*
X10950000Y-10688000D02*
X10950000Y-10788000D01*
X10900000Y-10738000D02*
X11000000Y-10738000D01*
X10950000Y-10942000D02*
X10950000Y-11042000D01*
X10900000Y-10992000D02*
X11000000Y-10992000D01*
X10950000Y-11196000D02*
X10950000Y-11296000D01*
X10900000Y-11246000D02*
X11000000Y-11246000D01*
X13462000Y-8636800D02*
X13462000Y-8736800D01*
X13412000Y-8686800D02*
X13512000Y-8686800D01*
X14222000Y-8636800D02*
X14222000Y-8736800D01*
X14172000Y-8686800D02*
X14272000Y-8686800D01*
X15138400Y-11837200D02*
X15138400Y-11937200D01*
X15088400Y-11887200D02*
X15188400Y-11887200D01*
X15392400Y-11837200D02*
X15392400Y-11937200D01*
X15342400Y-11887200D02*
X15442400Y-11887200D01*
X15646400Y-11837200D02*
X15646400Y-11937200D01*
X15596400Y-11887200D02*
X15696400Y-11887200D01*
X15900400Y-11837200D02*
X15900400Y-11937200D01*
X15850400Y-11887200D02*
X15950400Y-11887200D01*
X17851318Y-9583318D02*
X17851318Y-9420682D01*
X17688682Y-9420682D01*
X17688682Y-9583318D01*
X17851318Y-9583318D01*
X17851318Y-10783318D02*
X17851318Y-10620682D01*
X17688682Y-10620682D01*
X17688682Y-10783318D01*
X17851318Y-10783318D01*
D13*
X10963929Y-12673214D02*
X10963929Y-12373214D01*
X11035357Y-12373214D01*
X11078214Y-12387500D01*
X11106786Y-12416071D01*
X11121071Y-12444643D01*
X11135357Y-12501786D01*
X11135357Y-12544643D01*
X11121071Y-12601786D01*
X11106786Y-12630357D01*
X11078214Y-12658929D01*
X11035357Y-12673214D01*
X10963929Y-12673214D01*
X11263928Y-12673214D02*
X11263928Y-12473214D01*
X11263928Y-12530357D02*
X11278214Y-12501786D01*
X11292500Y-12487500D01*
X11321071Y-12473214D01*
X11349643Y-12473214D01*
X11449643Y-12673214D02*
X11449643Y-12473214D01*
X11449643Y-12373214D02*
X11435357Y-12387500D01*
X11449643Y-12401786D01*
X11463928Y-12387500D01*
X11449643Y-12373214D01*
X11449643Y-12401786D01*
X11635357Y-12673214D02*
X11606786Y-12658929D01*
X11592500Y-12630357D01*
X11592500Y-12373214D01*
X11792500Y-12673214D02*
X11763928Y-12658929D01*
X11749643Y-12630357D01*
X11749643Y-12373214D01*
X12135357Y-12673214D02*
X12135357Y-12373214D01*
X12235357Y-12587500D01*
X12335357Y-12373214D01*
X12335357Y-12673214D01*
X12606786Y-12673214D02*
X12606786Y-12516071D01*
X12592500Y-12487500D01*
X12563928Y-12473214D01*
X12506786Y-12473214D01*
X12478214Y-12487500D01*
X12606786Y-12658929D02*
X12578214Y-12673214D01*
X12506786Y-12673214D01*
X12478214Y-12658929D01*
X12463928Y-12630357D01*
X12463928Y-12601786D01*
X12478214Y-12573214D01*
X12506786Y-12558929D01*
X12578214Y-12558929D01*
X12606786Y-12544643D01*
X12749643Y-12473214D02*
X12749643Y-12773214D01*
X12749643Y-12487500D02*
X12778214Y-12473214D01*
X12835357Y-12473214D01*
X12863928Y-12487500D01*
X12878214Y-12501786D01*
X12892500Y-12530357D01*
X12892500Y-12616071D01*
X12878214Y-12644643D01*
X12863928Y-12658929D01*
X12835357Y-12673214D01*
X12778214Y-12673214D01*
X12749643Y-12658929D01*
X13021071Y-12644643D02*
X13035357Y-12658929D01*
X13021071Y-12673214D01*
X13006786Y-12658929D01*
X13021071Y-12644643D01*
X13021071Y-12673214D01*
X13021071Y-12487500D02*
X13035357Y-12501786D01*
X13021071Y-12516071D01*
X13006786Y-12501786D01*
X13021071Y-12487500D01*
X13021071Y-12516071D01*
X10652500Y-13147500D02*
X10692500Y-13187500D01*
X10692500Y-13147500D02*
X10652500Y-13187500D01*
X11021071Y-13003214D02*
X11049643Y-13003214D01*
X11078214Y-13017500D01*
X11092500Y-13031786D01*
X11106786Y-13060357D01*
X11121071Y-13117500D01*
X11121071Y-13188929D01*
X11106786Y-13246071D01*
X11092500Y-13274643D01*
X11078214Y-13288929D01*
X11049643Y-13303214D01*
X11021071Y-13303214D01*
X10992500Y-13288929D01*
X10978214Y-13274643D01*
X10963929Y-13246071D01*
X10949643Y-13188929D01*
X10949643Y-13117500D01*
X10963929Y-13060357D01*
X10978214Y-13031786D01*
X10992500Y-13017500D01*
X11021071Y-13003214D01*
X11249643Y-13274643D02*
X11263928Y-13288929D01*
X11249643Y-13303214D01*
X11235357Y-13288929D01*
X11249643Y-13274643D01*
X11249643Y-13303214D01*
X11521071Y-13103214D02*
X11521071Y-13303214D01*
X11449643Y-12988929D02*
X11378214Y-13203214D01*
X11563928Y-13203214D01*
X11735357Y-13003214D02*
X11763928Y-13003214D01*
X11792500Y-13017500D01*
X11806786Y-13031786D01*
X11821071Y-13060357D01*
X11835357Y-13117500D01*
X11835357Y-13188929D01*
X11821071Y-13246071D01*
X11806786Y-13274643D01*
X11792500Y-13288929D01*
X11763928Y-13303214D01*
X11735357Y-13303214D01*
X11706786Y-13288929D01*
X11692500Y-13274643D01*
X11678214Y-13246071D01*
X11663928Y-13188929D01*
X11663928Y-13117500D01*
X11678214Y-13060357D01*
X11692500Y-13031786D01*
X11706786Y-13017500D01*
X11735357Y-13003214D01*
X11963928Y-13303214D02*
X11963928Y-13103214D01*
X11963928Y-13131786D02*
X11978214Y-13117500D01*
X12006786Y-13103214D01*
X12049643Y-13103214D01*
X12078214Y-13117500D01*
X12092500Y-13146071D01*
X12092500Y-13303214D01*
X12092500Y-13146071D02*
X12106786Y-13117500D01*
X12135357Y-13103214D01*
X12178214Y-13103214D01*
X12206786Y-13117500D01*
X12221071Y-13146071D01*
X12221071Y-13303214D01*
X12363928Y-13303214D02*
X12363928Y-13103214D01*
X12363928Y-13131786D02*
X12378214Y-13117500D01*
X12406786Y-13103214D01*
X12449643Y-13103214D01*
X12478214Y-13117500D01*
X12492500Y-13146071D01*
X12492500Y-13303214D01*
X12492500Y-13146071D02*
X12506786Y-13117500D01*
X12535357Y-13103214D01*
X12578214Y-13103214D01*
X12606786Y-13117500D01*
X12621071Y-13146071D01*
X12621071Y-13303214D01*
X13206786Y-12988929D02*
X12949643Y-13374643D01*
X13592500Y-13003214D02*
X13621071Y-13003214D01*
X13649643Y-13017500D01*
X13663928Y-13031786D01*
X13678214Y-13060357D01*
X13692500Y-13117500D01*
X13692500Y-13188929D01*
X13678214Y-13246071D01*
X13663928Y-13274643D01*
X13649643Y-13288929D01*
X13621071Y-13303214D01*
X13592500Y-13303214D01*
X13563928Y-13288929D01*
X13549643Y-13274643D01*
X13535357Y-13246071D01*
X13521071Y-13188929D01*
X13521071Y-13117500D01*
X13535357Y-13060357D01*
X13549643Y-13031786D01*
X13563928Y-13017500D01*
X13592500Y-13003214D01*
X13821071Y-13274643D02*
X13835357Y-13288929D01*
X13821071Y-13303214D01*
X13806786Y-13288929D01*
X13821071Y-13274643D01*
X13821071Y-13303214D01*
X14021071Y-13003214D02*
X14049643Y-13003214D01*
X14078214Y-13017500D01*
X14092500Y-13031786D01*
X14106785Y-13060357D01*
X14121071Y-13117500D01*
X14121071Y-13188929D01*
X14106785Y-13246071D01*
X14092500Y-13274643D01*
X14078214Y-13288929D01*
X14049643Y-13303214D01*
X14021071Y-13303214D01*
X13992500Y-13288929D01*
X13978214Y-13274643D01*
X13963928Y-13246071D01*
X13949643Y-13188929D01*
X13949643Y-13117500D01*
X13963928Y-13060357D01*
X13978214Y-13031786D01*
X13992500Y-13017500D01*
X14021071Y-13003214D01*
X14406785Y-13303214D02*
X14235357Y-13303214D01*
X14321071Y-13303214D02*
X14321071Y-13003214D01*
X14292500Y-13046071D01*
X14263928Y-13074643D01*
X14235357Y-13088929D01*
X14663928Y-13003214D02*
X14606785Y-13003214D01*
X14578214Y-13017500D01*
X14563928Y-13031786D01*
X14535357Y-13074643D01*
X14521071Y-13131786D01*
X14521071Y-13246071D01*
X14535357Y-13274643D01*
X14549643Y-13288929D01*
X14578214Y-13303214D01*
X14635357Y-13303214D01*
X14663928Y-13288929D01*
X14678214Y-13274643D01*
X14692500Y-13246071D01*
X14692500Y-13174643D01*
X14678214Y-13146071D01*
X14663928Y-13131786D01*
X14635357Y-13117500D01*
X14578214Y-13117500D01*
X14549643Y-13131786D01*
X14535357Y-13146071D01*
X14521071Y-13174643D01*
X14806786Y-13003214D02*
X14806786Y-13060357D01*
X14921071Y-13003214D02*
X14921071Y-13060357D01*
X15363928Y-13417500D02*
X15349643Y-13403214D01*
X15321071Y-13360357D01*
X15306785Y-13331786D01*
X15292500Y-13288929D01*
X15278214Y-13217500D01*
X15278214Y-13160357D01*
X15292500Y-13088929D01*
X15306785Y-13046071D01*
X15321071Y-13017500D01*
X15349643Y-12974643D01*
X15363928Y-12960357D01*
X15635357Y-13303214D02*
X15463928Y-13303214D01*
X15549643Y-13303214D02*
X15549643Y-13003214D01*
X15521071Y-13046071D01*
X15492500Y-13074643D01*
X15463928Y-13088929D01*
X15821071Y-13003214D02*
X15849643Y-13003214D01*
X15878214Y-13017500D01*
X15892500Y-13031786D01*
X15906785Y-13060357D01*
X15921071Y-13117500D01*
X15921071Y-13188929D01*
X15906785Y-13246071D01*
X15892500Y-13274643D01*
X15878214Y-13288929D01*
X15849643Y-13303214D01*
X15821071Y-13303214D01*
X15792500Y-13288929D01*
X15778214Y-13274643D01*
X15763928Y-13246071D01*
X15749643Y-13188929D01*
X15749643Y-13117500D01*
X15763928Y-13060357D01*
X15778214Y-13031786D01*
X15792500Y-13017500D01*
X15821071Y-13003214D01*
X16106785Y-13003214D02*
X16135357Y-13003214D01*
X16163928Y-13017500D01*
X16178214Y-13031786D01*
X16192500Y-13060357D01*
X16206785Y-13117500D01*
X16206785Y-13188929D01*
X16192500Y-13246071D01*
X16178214Y-13274643D01*
X16163928Y-13288929D01*
X16135357Y-13303214D01*
X16106785Y-13303214D01*
X16078214Y-13288929D01*
X16063928Y-13274643D01*
X16049643Y-13246071D01*
X16035357Y-13188929D01*
X16035357Y-13117500D01*
X16049643Y-13060357D01*
X16063928Y-13031786D01*
X16078214Y-13017500D01*
X16106785Y-13003214D01*
X16563928Y-13303214D02*
X16563928Y-13003214D01*
X16692500Y-13303214D02*
X16692500Y-13146071D01*
X16678214Y-13117500D01*
X16649643Y-13103214D01*
X16606785Y-13103214D01*
X16578214Y-13117500D01*
X16563928Y-13131786D01*
X16878214Y-13303214D02*
X16849643Y-13288929D01*
X16835357Y-13274643D01*
X16821071Y-13246071D01*
X16821071Y-13160357D01*
X16835357Y-13131786D01*
X16849643Y-13117500D01*
X16878214Y-13103214D01*
X16921071Y-13103214D01*
X16949643Y-13117500D01*
X16963928Y-13131786D01*
X16978214Y-13160357D01*
X16978214Y-13246071D01*
X16963928Y-13274643D01*
X16949643Y-13288929D01*
X16921071Y-13303214D01*
X16878214Y-13303214D01*
X17149643Y-13303214D02*
X17121071Y-13288929D01*
X17106786Y-13260357D01*
X17106786Y-13003214D01*
X17378214Y-13288929D02*
X17349643Y-13303214D01*
X17292500Y-13303214D01*
X17263929Y-13288929D01*
X17249643Y-13260357D01*
X17249643Y-13146071D01*
X17263929Y-13117500D01*
X17292500Y-13103214D01*
X17349643Y-13103214D01*
X17378214Y-13117500D01*
X17392500Y-13146071D01*
X17392500Y-13174643D01*
X17249643Y-13203214D01*
X17506786Y-13288929D02*
X17535357Y-13303214D01*
X17592500Y-13303214D01*
X17621071Y-13288929D01*
X17635357Y-13260357D01*
X17635357Y-13246071D01*
X17621071Y-13217500D01*
X17592500Y-13203214D01*
X17549643Y-13203214D01*
X17521071Y-13188929D01*
X17506786Y-13160357D01*
X17506786Y-13146071D01*
X17521071Y-13117500D01*
X17549643Y-13103214D01*
X17592500Y-13103214D01*
X17621071Y-13117500D01*
X17735357Y-13417500D02*
X17749643Y-13403214D01*
X17778214Y-13360357D01*
X17792500Y-13331786D01*
X17806786Y-13288929D01*
X17821071Y-13217500D01*
X17821071Y-13160357D01*
X17806786Y-13088929D01*
X17792500Y-13046071D01*
X17778214Y-13017500D01*
X17749643Y-12974643D01*
X17735357Y-12960357D01*
X10692500Y-13563500D02*
G75*
G03X10692500Y-13563500I-45000J0D01*
G01*
X11021071Y-13399214D02*
X11049643Y-13399214D01*
X11078214Y-13413500D01*
X11092500Y-13427786D01*
X11106786Y-13456357D01*
X11121071Y-13513500D01*
X11121071Y-13584929D01*
X11106786Y-13642071D01*
X11092500Y-13670643D01*
X11078214Y-13684929D01*
X11049643Y-13699214D01*
X11021071Y-13699214D01*
X10992500Y-13684929D01*
X10978214Y-13670643D01*
X10963929Y-13642071D01*
X10949643Y-13584929D01*
X10949643Y-13513500D01*
X10963929Y-13456357D01*
X10978214Y-13427786D01*
X10992500Y-13413500D01*
X11021071Y-13399214D01*
X11249643Y-13670643D02*
X11263928Y-13684929D01*
X11249643Y-13699214D01*
X11235357Y-13684929D01*
X11249643Y-13670643D01*
X11249643Y-13699214D01*
X11406786Y-13699214D02*
X11463928Y-13699214D01*
X11492500Y-13684929D01*
X11506786Y-13670643D01*
X11535357Y-13627786D01*
X11549643Y-13570643D01*
X11549643Y-13456357D01*
X11535357Y-13427786D01*
X11521071Y-13413500D01*
X11492500Y-13399214D01*
X11435357Y-13399214D01*
X11406786Y-13413500D01*
X11392500Y-13427786D01*
X11378214Y-13456357D01*
X11378214Y-13527786D01*
X11392500Y-13556357D01*
X11406786Y-13570643D01*
X11435357Y-13584929D01*
X11492500Y-13584929D01*
X11521071Y-13570643D01*
X11535357Y-13556357D01*
X11549643Y-13527786D01*
X11735357Y-13399214D02*
X11763928Y-13399214D01*
X11792500Y-13413500D01*
X11806786Y-13427786D01*
X11821071Y-13456357D01*
X11835357Y-13513500D01*
X11835357Y-13584929D01*
X11821071Y-13642071D01*
X11806786Y-13670643D01*
X11792500Y-13684929D01*
X11763928Y-13699214D01*
X11735357Y-13699214D01*
X11706786Y-13684929D01*
X11692500Y-13670643D01*
X11678214Y-13642071D01*
X11663928Y-13584929D01*
X11663928Y-13513500D01*
X11678214Y-13456357D01*
X11692500Y-13427786D01*
X11706786Y-13413500D01*
X11735357Y-13399214D01*
X11963928Y-13699214D02*
X11963928Y-13499214D01*
X11963928Y-13527786D02*
X11978214Y-13513500D01*
X12006786Y-13499214D01*
X12049643Y-13499214D01*
X12078214Y-13513500D01*
X12092500Y-13542071D01*
X12092500Y-13699214D01*
X12092500Y-13542071D02*
X12106786Y-13513500D01*
X12135357Y-13499214D01*
X12178214Y-13499214D01*
X12206786Y-13513500D01*
X12221071Y-13542071D01*
X12221071Y-13699214D01*
X12363928Y-13699214D02*
X12363928Y-13499214D01*
X12363928Y-13527786D02*
X12378214Y-13513500D01*
X12406786Y-13499214D01*
X12449643Y-13499214D01*
X12478214Y-13513500D01*
X12492500Y-13542071D01*
X12492500Y-13699214D01*
X12492500Y-13542071D02*
X12506786Y-13513500D01*
X12535357Y-13499214D01*
X12578214Y-13499214D01*
X12606786Y-13513500D01*
X12621071Y-13542071D01*
X12621071Y-13699214D01*
X13206786Y-13384929D02*
X12949643Y-13770643D01*
X13592500Y-13399214D02*
X13621071Y-13399214D01*
X13649643Y-13413500D01*
X13663928Y-13427786D01*
X13678214Y-13456357D01*
X13692500Y-13513500D01*
X13692500Y-13584929D01*
X13678214Y-13642071D01*
X13663928Y-13670643D01*
X13649643Y-13684929D01*
X13621071Y-13699214D01*
X13592500Y-13699214D01*
X13563928Y-13684929D01*
X13549643Y-13670643D01*
X13535357Y-13642071D01*
X13521071Y-13584929D01*
X13521071Y-13513500D01*
X13535357Y-13456357D01*
X13549643Y-13427786D01*
X13563928Y-13413500D01*
X13592500Y-13399214D01*
X13821071Y-13670643D02*
X13835357Y-13684929D01*
X13821071Y-13699214D01*
X13806786Y-13684929D01*
X13821071Y-13670643D01*
X13821071Y-13699214D01*
X14021071Y-13399214D02*
X14049643Y-13399214D01*
X14078214Y-13413500D01*
X14092500Y-13427786D01*
X14106785Y-13456357D01*
X14121071Y-13513500D01*
X14121071Y-13584929D01*
X14106785Y-13642071D01*
X14092500Y-13670643D01*
X14078214Y-13684929D01*
X14049643Y-13699214D01*
X14021071Y-13699214D01*
X13992500Y-13684929D01*
X13978214Y-13670643D01*
X13963928Y-13642071D01*
X13949643Y-13584929D01*
X13949643Y-13513500D01*
X13963928Y-13456357D01*
X13978214Y-13427786D01*
X13992500Y-13413500D01*
X14021071Y-13399214D01*
X14221071Y-13399214D02*
X14406785Y-13399214D01*
X14306785Y-13513500D01*
X14349643Y-13513500D01*
X14378214Y-13527786D01*
X14392500Y-13542071D01*
X14406785Y-13570643D01*
X14406785Y-13642071D01*
X14392500Y-13670643D01*
X14378214Y-13684929D01*
X14349643Y-13699214D01*
X14263928Y-13699214D01*
X14235357Y-13684929D01*
X14221071Y-13670643D01*
X14678214Y-13399214D02*
X14535357Y-13399214D01*
X14521071Y-13542071D01*
X14535357Y-13527786D01*
X14563928Y-13513500D01*
X14635357Y-13513500D01*
X14663928Y-13527786D01*
X14678214Y-13542071D01*
X14692500Y-13570643D01*
X14692500Y-13642071D01*
X14678214Y-13670643D01*
X14663928Y-13684929D01*
X14635357Y-13699214D01*
X14563928Y-13699214D01*
X14535357Y-13684929D01*
X14521071Y-13670643D01*
X14806786Y-13399214D02*
X14806786Y-13456357D01*
X14921071Y-13399214D02*
X14921071Y-13456357D01*
X15363928Y-13813500D02*
X15349643Y-13799214D01*
X15321071Y-13756357D01*
X15306785Y-13727786D01*
X15292500Y-13684929D01*
X15278214Y-13613500D01*
X15278214Y-13556357D01*
X15292500Y-13484929D01*
X15306785Y-13442071D01*
X15321071Y-13413500D01*
X15349643Y-13370643D01*
X15363928Y-13356357D01*
X15635357Y-13699214D02*
X15463928Y-13699214D01*
X15549643Y-13699214D02*
X15549643Y-13399214D01*
X15521071Y-13442071D01*
X15492500Y-13470643D01*
X15463928Y-13484929D01*
X15892500Y-13399214D02*
X15835357Y-13399214D01*
X15806785Y-13413500D01*
X15792500Y-13427786D01*
X15763928Y-13470643D01*
X15749643Y-13527786D01*
X15749643Y-13642071D01*
X15763928Y-13670643D01*
X15778214Y-13684929D01*
X15806785Y-13699214D01*
X15863928Y-13699214D01*
X15892500Y-13684929D01*
X15906785Y-13670643D01*
X15921071Y-13642071D01*
X15921071Y-13570643D01*
X15906785Y-13542071D01*
X15892500Y-13527786D01*
X15863928Y-13513500D01*
X15806785Y-13513500D01*
X15778214Y-13527786D01*
X15763928Y-13542071D01*
X15749643Y-13570643D01*
X16278214Y-13699214D02*
X16278214Y-13399214D01*
X16406785Y-13699214D02*
X16406785Y-13542071D01*
X16392500Y-13513500D01*
X16363928Y-13499214D01*
X16321071Y-13499214D01*
X16292500Y-13513500D01*
X16278214Y-13527786D01*
X16592500Y-13699214D02*
X16563928Y-13684929D01*
X16549643Y-13670643D01*
X16535357Y-13642071D01*
X16535357Y-13556357D01*
X16549643Y-13527786D01*
X16563928Y-13513500D01*
X16592500Y-13499214D01*
X16635357Y-13499214D01*
X16663928Y-13513500D01*
X16678214Y-13527786D01*
X16692500Y-13556357D01*
X16692500Y-13642071D01*
X16678214Y-13670643D01*
X16663928Y-13684929D01*
X16635357Y-13699214D01*
X16592500Y-13699214D01*
X16863928Y-13699214D02*
X16835357Y-13684929D01*
X16821071Y-13656357D01*
X16821071Y-13399214D01*
X17092500Y-13684929D02*
X17063929Y-13699214D01*
X17006786Y-13699214D01*
X16978214Y-13684929D01*
X16963929Y-13656357D01*
X16963929Y-13542071D01*
X16978214Y-13513500D01*
X17006786Y-13499214D01*
X17063929Y-13499214D01*
X17092500Y-13513500D01*
X17106786Y-13542071D01*
X17106786Y-13570643D01*
X16963929Y-13599214D01*
X17221071Y-13684929D02*
X17249643Y-13699214D01*
X17306786Y-13699214D01*
X17335357Y-13684929D01*
X17349643Y-13656357D01*
X17349643Y-13642071D01*
X17335357Y-13613500D01*
X17306786Y-13599214D01*
X17263929Y-13599214D01*
X17235357Y-13584929D01*
X17221071Y-13556357D01*
X17221071Y-13542071D01*
X17235357Y-13513500D01*
X17263929Y-13499214D01*
X17306786Y-13499214D01*
X17335357Y-13513500D01*
X17449643Y-13813500D02*
X17463929Y-13799214D01*
X17492500Y-13756357D01*
X17506786Y-13727786D01*
X17521071Y-13684929D01*
X17535357Y-13613500D01*
X17535357Y-13556357D01*
X17521071Y-13484929D01*
X17506786Y-13442071D01*
X17492500Y-13413500D01*
X17463929Y-13370643D01*
X17449643Y-13356357D01*
X10642500Y-13909500D02*
X10642500Y-14009500D01*
X10592500Y-13959500D02*
X10692500Y-13959500D01*
X11121071Y-14095214D02*
X10949643Y-14095214D01*
X11035357Y-14095214D02*
X11035357Y-13795214D01*
X11006786Y-13838071D01*
X10978214Y-13866643D01*
X10949643Y-13880929D01*
X11249643Y-14066643D02*
X11263928Y-14080929D01*
X11249643Y-14095214D01*
X11235357Y-14080929D01*
X11249643Y-14066643D01*
X11249643Y-14095214D01*
X11449643Y-13795214D02*
X11478214Y-13795214D01*
X11506786Y-13809500D01*
X11521071Y-13823786D01*
X11535357Y-13852357D01*
X11549643Y-13909500D01*
X11549643Y-13980929D01*
X11535357Y-14038071D01*
X11521071Y-14066643D01*
X11506786Y-14080929D01*
X11478214Y-14095214D01*
X11449643Y-14095214D01*
X11421071Y-14080929D01*
X11406786Y-14066643D01*
X11392500Y-14038071D01*
X11378214Y-13980929D01*
X11378214Y-13909500D01*
X11392500Y-13852357D01*
X11406786Y-13823786D01*
X11421071Y-13809500D01*
X11449643Y-13795214D01*
X11735357Y-13795214D02*
X11763928Y-13795214D01*
X11792500Y-13809500D01*
X11806786Y-13823786D01*
X11821071Y-13852357D01*
X11835357Y-13909500D01*
X11835357Y-13980929D01*
X11821071Y-14038071D01*
X11806786Y-14066643D01*
X11792500Y-14080929D01*
X11763928Y-14095214D01*
X11735357Y-14095214D01*
X11706786Y-14080929D01*
X11692500Y-14066643D01*
X11678214Y-14038071D01*
X11663928Y-13980929D01*
X11663928Y-13909500D01*
X11678214Y-13852357D01*
X11692500Y-13823786D01*
X11706786Y-13809500D01*
X11735357Y-13795214D01*
X11963928Y-14095214D02*
X11963928Y-13895214D01*
X11963928Y-13923786D02*
X11978214Y-13909500D01*
X12006786Y-13895214D01*
X12049643Y-13895214D01*
X12078214Y-13909500D01*
X12092500Y-13938071D01*
X12092500Y-14095214D01*
X12092500Y-13938071D02*
X12106786Y-13909500D01*
X12135357Y-13895214D01*
X12178214Y-13895214D01*
X12206786Y-13909500D01*
X12221071Y-13938071D01*
X12221071Y-14095214D01*
X12363928Y-14095214D02*
X12363928Y-13895214D01*
X12363928Y-13923786D02*
X12378214Y-13909500D01*
X12406786Y-13895214D01*
X12449643Y-13895214D01*
X12478214Y-13909500D01*
X12492500Y-13938071D01*
X12492500Y-14095214D01*
X12492500Y-13938071D02*
X12506786Y-13909500D01*
X12535357Y-13895214D01*
X12578214Y-13895214D01*
X12606786Y-13909500D01*
X12621071Y-13938071D01*
X12621071Y-14095214D01*
X13206786Y-13780929D02*
X12949643Y-14166643D01*
X13592500Y-13795214D02*
X13621071Y-13795214D01*
X13649643Y-13809500D01*
X13663928Y-13823786D01*
X13678214Y-13852357D01*
X13692500Y-13909500D01*
X13692500Y-13980929D01*
X13678214Y-14038071D01*
X13663928Y-14066643D01*
X13649643Y-14080929D01*
X13621071Y-14095214D01*
X13592500Y-14095214D01*
X13563928Y-14080929D01*
X13549643Y-14066643D01*
X13535357Y-14038071D01*
X13521071Y-13980929D01*
X13521071Y-13909500D01*
X13535357Y-13852357D01*
X13549643Y-13823786D01*
X13563928Y-13809500D01*
X13592500Y-13795214D01*
X13821071Y-14066643D02*
X13835357Y-14080929D01*
X13821071Y-14095214D01*
X13806786Y-14080929D01*
X13821071Y-14066643D01*
X13821071Y-14095214D01*
X14021071Y-13795214D02*
X14049643Y-13795214D01*
X14078214Y-13809500D01*
X14092500Y-13823786D01*
X14106785Y-13852357D01*
X14121071Y-13909500D01*
X14121071Y-13980929D01*
X14106785Y-14038071D01*
X14092500Y-14066643D01*
X14078214Y-14080929D01*
X14049643Y-14095214D01*
X14021071Y-14095214D01*
X13992500Y-14080929D01*
X13978214Y-14066643D01*
X13963928Y-14038071D01*
X13949643Y-13980929D01*
X13949643Y-13909500D01*
X13963928Y-13852357D01*
X13978214Y-13823786D01*
X13992500Y-13809500D01*
X14021071Y-13795214D01*
X14221071Y-13795214D02*
X14406785Y-13795214D01*
X14306785Y-13909500D01*
X14349643Y-13909500D01*
X14378214Y-13923786D01*
X14392500Y-13938071D01*
X14406785Y-13966643D01*
X14406785Y-14038071D01*
X14392500Y-14066643D01*
X14378214Y-14080929D01*
X14349643Y-14095214D01*
X14263928Y-14095214D01*
X14235357Y-14080929D01*
X14221071Y-14066643D01*
X14549643Y-14095214D02*
X14606785Y-14095214D01*
X14635357Y-14080929D01*
X14649643Y-14066643D01*
X14678214Y-14023786D01*
X14692500Y-13966643D01*
X14692500Y-13852357D01*
X14678214Y-13823786D01*
X14663928Y-13809500D01*
X14635357Y-13795214D01*
X14578214Y-13795214D01*
X14549643Y-13809500D01*
X14535357Y-13823786D01*
X14521071Y-13852357D01*
X14521071Y-13923786D01*
X14535357Y-13952357D01*
X14549643Y-13966643D01*
X14578214Y-13980929D01*
X14635357Y-13980929D01*
X14663928Y-13966643D01*
X14678214Y-13952357D01*
X14692500Y-13923786D01*
X14806786Y-13795214D02*
X14806786Y-13852357D01*
X14921071Y-13795214D02*
X14921071Y-13852357D01*
X15363928Y-14209500D02*
X15349643Y-14195214D01*
X15321071Y-14152357D01*
X15306785Y-14123786D01*
X15292500Y-14080929D01*
X15278214Y-14009500D01*
X15278214Y-13952357D01*
X15292500Y-13880929D01*
X15306785Y-13838071D01*
X15321071Y-13809500D01*
X15349643Y-13766643D01*
X15363928Y-13752357D01*
X15635357Y-14095214D02*
X15463928Y-14095214D01*
X15549643Y-14095214D02*
X15549643Y-13795214D01*
X15521071Y-13838071D01*
X15492500Y-13866643D01*
X15463928Y-13880929D01*
X15892500Y-13795214D02*
X15835357Y-13795214D01*
X15806785Y-13809500D01*
X15792500Y-13823786D01*
X15763928Y-13866643D01*
X15749643Y-13923786D01*
X15749643Y-14038071D01*
X15763928Y-14066643D01*
X15778214Y-14080929D01*
X15806785Y-14095214D01*
X15863928Y-14095214D01*
X15892500Y-14080929D01*
X15906785Y-14066643D01*
X15921071Y-14038071D01*
X15921071Y-13966643D01*
X15906785Y-13938071D01*
X15892500Y-13923786D01*
X15863928Y-13909500D01*
X15806785Y-13909500D01*
X15778214Y-13923786D01*
X15763928Y-13938071D01*
X15749643Y-13966643D01*
X16278214Y-14095214D02*
X16278214Y-13795214D01*
X16406785Y-14095214D02*
X16406785Y-13938071D01*
X16392500Y-13909500D01*
X16363928Y-13895214D01*
X16321071Y-13895214D01*
X16292500Y-13909500D01*
X16278214Y-13923786D01*
X16592500Y-14095214D02*
X16563928Y-14080929D01*
X16549643Y-14066643D01*
X16535357Y-14038071D01*
X16535357Y-13952357D01*
X16549643Y-13923786D01*
X16563928Y-13909500D01*
X16592500Y-13895214D01*
X16635357Y-13895214D01*
X16663928Y-13909500D01*
X16678214Y-13923786D01*
X16692500Y-13952357D01*
X16692500Y-14038071D01*
X16678214Y-14066643D01*
X16663928Y-14080929D01*
X16635357Y-14095214D01*
X16592500Y-14095214D01*
X16863928Y-14095214D02*
X16835357Y-14080929D01*
X16821071Y-14052357D01*
X16821071Y-13795214D01*
X17092500Y-14080929D02*
X17063929Y-14095214D01*
X17006786Y-14095214D01*
X16978214Y-14080929D01*
X16963929Y-14052357D01*
X16963929Y-13938071D01*
X16978214Y-13909500D01*
X17006786Y-13895214D01*
X17063929Y-13895214D01*
X17092500Y-13909500D01*
X17106786Y-13938071D01*
X17106786Y-13966643D01*
X16963929Y-13995214D01*
X17221071Y-14080929D02*
X17249643Y-14095214D01*
X17306786Y-14095214D01*
X17335357Y-14080929D01*
X17349643Y-14052357D01*
X17349643Y-14038071D01*
X17335357Y-14009500D01*
X17306786Y-13995214D01*
X17263929Y-13995214D01*
X17235357Y-13980929D01*
X17221071Y-13952357D01*
X17221071Y-13938071D01*
X17235357Y-13909500D01*
X17263929Y-13895214D01*
X17306786Y-13895214D01*
X17335357Y-13909500D01*
X17449643Y-14209500D02*
X17463929Y-14195214D01*
X17492500Y-14152357D01*
X17506786Y-14123786D01*
X17521071Y-14080929D01*
X17535357Y-14009500D01*
X17535357Y-13952357D01*
X17521071Y-13880929D01*
X17506786Y-13838071D01*
X17492500Y-13809500D01*
X17463929Y-13766643D01*
X17449643Y-13752357D01*
X10658818Y-14436818D02*
X10658818Y-14274182D01*
X10496182Y-14274182D01*
X10496182Y-14436818D01*
X10658818Y-14436818D01*
X10949643Y-14219786D02*
X10963929Y-14205500D01*
X10992500Y-14191214D01*
X11063929Y-14191214D01*
X11092500Y-14205500D01*
X11106786Y-14219786D01*
X11121071Y-14248357D01*
X11121071Y-14276929D01*
X11106786Y-14319786D01*
X10935357Y-14491214D01*
X11121071Y-14491214D01*
X11249643Y-14462643D02*
X11263928Y-14476929D01*
X11249643Y-14491214D01*
X11235357Y-14476929D01*
X11249643Y-14462643D01*
X11249643Y-14491214D01*
X11363928Y-14191214D02*
X11549643Y-14191214D01*
X11449643Y-14305500D01*
X11492500Y-14305500D01*
X11521071Y-14319786D01*
X11535357Y-14334071D01*
X11549643Y-14362643D01*
X11549643Y-14434071D01*
X11535357Y-14462643D01*
X11521071Y-14476929D01*
X11492500Y-14491214D01*
X11406786Y-14491214D01*
X11378214Y-14476929D01*
X11363928Y-14462643D01*
X11735357Y-14191214D02*
X11763928Y-14191214D01*
X11792500Y-14205500D01*
X11806786Y-14219786D01*
X11821071Y-14248357D01*
X11835357Y-14305500D01*
X11835357Y-14376929D01*
X11821071Y-14434071D01*
X11806786Y-14462643D01*
X11792500Y-14476929D01*
X11763928Y-14491214D01*
X11735357Y-14491214D01*
X11706786Y-14476929D01*
X11692500Y-14462643D01*
X11678214Y-14434071D01*
X11663928Y-14376929D01*
X11663928Y-14305500D01*
X11678214Y-14248357D01*
X11692500Y-14219786D01*
X11706786Y-14205500D01*
X11735357Y-14191214D01*
X11963928Y-14491214D02*
X11963928Y-14291214D01*
X11963928Y-14319786D02*
X11978214Y-14305500D01*
X12006786Y-14291214D01*
X12049643Y-14291214D01*
X12078214Y-14305500D01*
X12092500Y-14334071D01*
X12092500Y-14491214D01*
X12092500Y-14334071D02*
X12106786Y-14305500D01*
X12135357Y-14291214D01*
X12178214Y-14291214D01*
X12206786Y-14305500D01*
X12221071Y-14334071D01*
X12221071Y-14491214D01*
X12363928Y-14491214D02*
X12363928Y-14291214D01*
X12363928Y-14319786D02*
X12378214Y-14305500D01*
X12406786Y-14291214D01*
X12449643Y-14291214D01*
X12478214Y-14305500D01*
X12492500Y-14334071D01*
X12492500Y-14491214D01*
X12492500Y-14334071D02*
X12506786Y-14305500D01*
X12535357Y-14291214D01*
X12578214Y-14291214D01*
X12606786Y-14305500D01*
X12621071Y-14334071D01*
X12621071Y-14491214D01*
X13206786Y-14176929D02*
X12949643Y-14562643D01*
X13592500Y-14191214D02*
X13621071Y-14191214D01*
X13649643Y-14205500D01*
X13663928Y-14219786D01*
X13678214Y-14248357D01*
X13692500Y-14305500D01*
X13692500Y-14376929D01*
X13678214Y-14434071D01*
X13663928Y-14462643D01*
X13649643Y-14476929D01*
X13621071Y-14491214D01*
X13592500Y-14491214D01*
X13563928Y-14476929D01*
X13549643Y-14462643D01*
X13535357Y-14434071D01*
X13521071Y-14376929D01*
X13521071Y-14305500D01*
X13535357Y-14248357D01*
X13549643Y-14219786D01*
X13563928Y-14205500D01*
X13592500Y-14191214D01*
X13821071Y-14462643D02*
X13835357Y-14476929D01*
X13821071Y-14491214D01*
X13806786Y-14476929D01*
X13821071Y-14462643D01*
X13821071Y-14491214D01*
X14021071Y-14191214D02*
X14049643Y-14191214D01*
X14078214Y-14205500D01*
X14092500Y-14219786D01*
X14106785Y-14248357D01*
X14121071Y-14305500D01*
X14121071Y-14376929D01*
X14106785Y-14434071D01*
X14092500Y-14462643D01*
X14078214Y-14476929D01*
X14049643Y-14491214D01*
X14021071Y-14491214D01*
X13992500Y-14476929D01*
X13978214Y-14462643D01*
X13963928Y-14434071D01*
X13949643Y-14376929D01*
X13949643Y-14305500D01*
X13963928Y-14248357D01*
X13978214Y-14219786D01*
X13992500Y-14205500D01*
X14021071Y-14191214D01*
X14263928Y-14491214D02*
X14321071Y-14491214D01*
X14349643Y-14476929D01*
X14363928Y-14462643D01*
X14392500Y-14419786D01*
X14406785Y-14362643D01*
X14406785Y-14248357D01*
X14392500Y-14219786D01*
X14378214Y-14205500D01*
X14349643Y-14191214D01*
X14292500Y-14191214D01*
X14263928Y-14205500D01*
X14249643Y-14219786D01*
X14235357Y-14248357D01*
X14235357Y-14319786D01*
X14249643Y-14348357D01*
X14263928Y-14362643D01*
X14292500Y-14376929D01*
X14349643Y-14376929D01*
X14378214Y-14362643D01*
X14392500Y-14348357D01*
X14406785Y-14319786D01*
X14692500Y-14491214D02*
X14521071Y-14491214D01*
X14606785Y-14491214D02*
X14606785Y-14191214D01*
X14578214Y-14234071D01*
X14549643Y-14262643D01*
X14521071Y-14276929D01*
X14806786Y-14191214D02*
X14806786Y-14248357D01*
X14921071Y-14191214D02*
X14921071Y-14248357D01*
X15363928Y-14605500D02*
X15349643Y-14591214D01*
X15321071Y-14548357D01*
X15306785Y-14519786D01*
X15292500Y-14476929D01*
X15278214Y-14405500D01*
X15278214Y-14348357D01*
X15292500Y-14276929D01*
X15306785Y-14234071D01*
X15321071Y-14205500D01*
X15349643Y-14162643D01*
X15363928Y-14148357D01*
X15463928Y-14219786D02*
X15478214Y-14205500D01*
X15506785Y-14191214D01*
X15578214Y-14191214D01*
X15606785Y-14205500D01*
X15621071Y-14219786D01*
X15635357Y-14248357D01*
X15635357Y-14276929D01*
X15621071Y-14319786D01*
X15449643Y-14491214D01*
X15635357Y-14491214D01*
X15992500Y-14491214D02*
X15992500Y-14191214D01*
X16121071Y-14491214D02*
X16121071Y-14334071D01*
X16106785Y-14305500D01*
X16078214Y-14291214D01*
X16035357Y-14291214D01*
X16006785Y-14305500D01*
X15992500Y-14319786D01*
X16306785Y-14491214D02*
X16278214Y-14476929D01*
X16263928Y-14462643D01*
X16249643Y-14434071D01*
X16249643Y-14348357D01*
X16263928Y-14319786D01*
X16278214Y-14305500D01*
X16306785Y-14291214D01*
X16349643Y-14291214D01*
X16378214Y-14305500D01*
X16392500Y-14319786D01*
X16406785Y-14348357D01*
X16406785Y-14434071D01*
X16392500Y-14462643D01*
X16378214Y-14476929D01*
X16349643Y-14491214D01*
X16306785Y-14491214D01*
X16578214Y-14491214D02*
X16549643Y-14476929D01*
X16535357Y-14448357D01*
X16535357Y-14191214D01*
X16806786Y-14476929D02*
X16778214Y-14491214D01*
X16721071Y-14491214D01*
X16692500Y-14476929D01*
X16678214Y-14448357D01*
X16678214Y-14334071D01*
X16692500Y-14305500D01*
X16721071Y-14291214D01*
X16778214Y-14291214D01*
X16806786Y-14305500D01*
X16821071Y-14334071D01*
X16821071Y-14362643D01*
X16678214Y-14391214D01*
X16935357Y-14476929D02*
X16963929Y-14491214D01*
X17021071Y-14491214D01*
X17049643Y-14476929D01*
X17063929Y-14448357D01*
X17063929Y-14434071D01*
X17049643Y-14405500D01*
X17021071Y-14391214D01*
X16978214Y-14391214D01*
X16949643Y-14376929D01*
X16935357Y-14348357D01*
X16935357Y-14334071D01*
X16949643Y-14305500D01*
X16978214Y-14291214D01*
X17021071Y-14291214D01*
X17049643Y-14305500D01*
X17163928Y-14605500D02*
X17178214Y-14591214D01*
X17206786Y-14548357D01*
X17221071Y-14519786D01*
X17235357Y-14476929D01*
X17249643Y-14405500D01*
X17249643Y-14348357D01*
X17235357Y-14276929D01*
X17221071Y-14234071D01*
X17206786Y-14205500D01*
X17178214Y-14162643D01*
X17163928Y-14148357D01*
M02*
