%TF.GenerationSoftware,KiCad,Pcbnew,4.0.7-e2-6376~58~ubuntu16.04.1*%
%TF.CreationDate,2018-05-15T11:46:24+03:00*%
%TF.ProjectId,rover_commander,726F7665725F636F6D6D616E6465722E,rev?*%
%TF.FileFunction,Soldermask,Bot*%
%FSLAX46Y46*%
G04 Gerber Fmt 4.6, Leading zero omitted, Abs format (unit mm)*
G04 Created by KiCad (PCBNEW 4.0.7-e2-6376~58~ubuntu16.04.1) date Tue May 15 11:46:24 2018*
%MOMM*%
%LPD*%
G01*
G04 APERTURE LIST*
%ADD10C,0.100000*%
%ADD11R,2.400000X2.400000*%
%ADD12C,2.400000*%
%ADD13R,2.400000X4.200000*%
%ADD14R,2.400000X1.900000*%
%ADD15R,1.600000X1.150000*%
%ADD16R,1.150000X1.600000*%
%ADD17R,1.000000X1.500000*%
%ADD18R,1.300000X1.200000*%
%ADD19R,1.400000X1.400000*%
%ADD20R,2.200000X2.200000*%
%ADD21C,2.200000*%
%ADD22R,1.300000X1.600000*%
%ADD23R,1.600000X1.300000*%
%ADD24R,1.900000X1.000000*%
%ADD25R,1.950000X1.000000*%
%ADD26R,1.200000X1.300000*%
%ADD27C,1.920000*%
%ADD28C,3.100000*%
%ADD29R,2.100000X2.100000*%
%ADD30O,2.100000X2.100000*%
%ADD31R,2.000000X2.000000*%
%ADD32C,2.000000*%
%ADD33R,2.500000X2.100000*%
%ADD34R,1.700000X0.650000*%
%ADD35R,0.650000X1.700000*%
%ADD36R,1.000000X1.950000*%
G04 APERTURE END LIST*
D10*
D11*
X142220000Y-86868000D03*
D12*
X134620000Y-86868000D03*
D10*
G36*
X161330943Y-102736023D02*
X160871324Y-103195642D01*
X159881375Y-102205693D01*
X160340994Y-101746074D01*
X161330943Y-102736023D01*
X161330943Y-102736023D01*
G37*
G36*
X160977390Y-103089577D02*
X160517771Y-103549196D01*
X159527822Y-102559247D01*
X159987441Y-102099628D01*
X160977390Y-103089577D01*
X160977390Y-103089577D01*
G37*
G36*
X160623836Y-103443130D02*
X160164217Y-103902749D01*
X159174268Y-102912800D01*
X159633887Y-102453181D01*
X160623836Y-103443130D01*
X160623836Y-103443130D01*
G37*
G36*
X160270283Y-103796683D02*
X159810664Y-104256302D01*
X158820715Y-103266353D01*
X159280334Y-102806734D01*
X160270283Y-103796683D01*
X160270283Y-103796683D01*
G37*
G36*
X159916730Y-104150237D02*
X159457111Y-104609856D01*
X158467162Y-103619907D01*
X158926781Y-103160288D01*
X159916730Y-104150237D01*
X159916730Y-104150237D01*
G37*
G36*
X159563176Y-104503790D02*
X159103557Y-104963409D01*
X158113608Y-103973460D01*
X158573227Y-103513841D01*
X159563176Y-104503790D01*
X159563176Y-104503790D01*
G37*
G36*
X159209623Y-104857344D02*
X158750004Y-105316963D01*
X157760055Y-104327014D01*
X158219674Y-103867395D01*
X159209623Y-104857344D01*
X159209623Y-104857344D01*
G37*
G36*
X158856069Y-105210897D02*
X158396450Y-105670516D01*
X157406501Y-104680567D01*
X157866120Y-104220948D01*
X158856069Y-105210897D01*
X158856069Y-105210897D01*
G37*
G36*
X158502516Y-105564450D02*
X158042897Y-106024069D01*
X157052948Y-105034120D01*
X157512567Y-104574501D01*
X158502516Y-105564450D01*
X158502516Y-105564450D01*
G37*
G36*
X158148963Y-105918004D02*
X157689344Y-106377623D01*
X156699395Y-105387674D01*
X157159014Y-104928055D01*
X158148963Y-105918004D01*
X158148963Y-105918004D01*
G37*
G36*
X157795409Y-106271557D02*
X157335790Y-106731176D01*
X156345841Y-105741227D01*
X156805460Y-105281608D01*
X157795409Y-106271557D01*
X157795409Y-106271557D01*
G37*
G36*
X157441856Y-106625111D02*
X156982237Y-107084730D01*
X155992288Y-106094781D01*
X156451907Y-105635162D01*
X157441856Y-106625111D01*
X157441856Y-106625111D01*
G37*
G36*
X157088302Y-106978664D02*
X156628683Y-107438283D01*
X155638734Y-106448334D01*
X156098353Y-105988715D01*
X157088302Y-106978664D01*
X157088302Y-106978664D01*
G37*
G36*
X156734749Y-107332217D02*
X156275130Y-107791836D01*
X155285181Y-106801887D01*
X155744800Y-106342268D01*
X156734749Y-107332217D01*
X156734749Y-107332217D01*
G37*
G36*
X156381196Y-107685771D02*
X155921577Y-108145390D01*
X154931628Y-107155441D01*
X155391247Y-106695822D01*
X156381196Y-107685771D01*
X156381196Y-107685771D01*
G37*
G36*
X156027642Y-108039324D02*
X155568023Y-108498943D01*
X154578074Y-107508994D01*
X155037693Y-107049375D01*
X156027642Y-108039324D01*
X156027642Y-108039324D01*
G37*
G36*
X152279977Y-108498943D02*
X151820358Y-108039324D01*
X152810307Y-107049375D01*
X153269926Y-107508994D01*
X152279977Y-108498943D01*
X152279977Y-108498943D01*
G37*
G36*
X151926423Y-108145390D02*
X151466804Y-107685771D01*
X152456753Y-106695822D01*
X152916372Y-107155441D01*
X151926423Y-108145390D01*
X151926423Y-108145390D01*
G37*
G36*
X151572870Y-107791836D02*
X151113251Y-107332217D01*
X152103200Y-106342268D01*
X152562819Y-106801887D01*
X151572870Y-107791836D01*
X151572870Y-107791836D01*
G37*
G36*
X151219317Y-107438283D02*
X150759698Y-106978664D01*
X151749647Y-105988715D01*
X152209266Y-106448334D01*
X151219317Y-107438283D01*
X151219317Y-107438283D01*
G37*
G36*
X150865763Y-107084730D02*
X150406144Y-106625111D01*
X151396093Y-105635162D01*
X151855712Y-106094781D01*
X150865763Y-107084730D01*
X150865763Y-107084730D01*
G37*
G36*
X150512210Y-106731176D02*
X150052591Y-106271557D01*
X151042540Y-105281608D01*
X151502159Y-105741227D01*
X150512210Y-106731176D01*
X150512210Y-106731176D01*
G37*
G36*
X150158656Y-106377623D02*
X149699037Y-105918004D01*
X150688986Y-104928055D01*
X151148605Y-105387674D01*
X150158656Y-106377623D01*
X150158656Y-106377623D01*
G37*
G36*
X149805103Y-106024069D02*
X149345484Y-105564450D01*
X150335433Y-104574501D01*
X150795052Y-105034120D01*
X149805103Y-106024069D01*
X149805103Y-106024069D01*
G37*
G36*
X149451550Y-105670516D02*
X148991931Y-105210897D01*
X149981880Y-104220948D01*
X150441499Y-104680567D01*
X149451550Y-105670516D01*
X149451550Y-105670516D01*
G37*
G36*
X149097996Y-105316963D02*
X148638377Y-104857344D01*
X149628326Y-103867395D01*
X150087945Y-104327014D01*
X149097996Y-105316963D01*
X149097996Y-105316963D01*
G37*
G36*
X148744443Y-104963409D02*
X148284824Y-104503790D01*
X149274773Y-103513841D01*
X149734392Y-103973460D01*
X148744443Y-104963409D01*
X148744443Y-104963409D01*
G37*
G36*
X148390889Y-104609856D02*
X147931270Y-104150237D01*
X148921219Y-103160288D01*
X149380838Y-103619907D01*
X148390889Y-104609856D01*
X148390889Y-104609856D01*
G37*
G36*
X148037336Y-104256302D02*
X147577717Y-103796683D01*
X148567666Y-102806734D01*
X149027285Y-103266353D01*
X148037336Y-104256302D01*
X148037336Y-104256302D01*
G37*
G36*
X147683783Y-103902749D02*
X147224164Y-103443130D01*
X148214113Y-102453181D01*
X148673732Y-102912800D01*
X147683783Y-103902749D01*
X147683783Y-103902749D01*
G37*
G36*
X147330229Y-103549196D02*
X146870610Y-103089577D01*
X147860559Y-102099628D01*
X148320178Y-102559247D01*
X147330229Y-103549196D01*
X147330229Y-103549196D01*
G37*
G36*
X146976676Y-103195642D02*
X146517057Y-102736023D01*
X147507006Y-101746074D01*
X147966625Y-102205693D01*
X146976676Y-103195642D01*
X146976676Y-103195642D01*
G37*
G36*
X147966625Y-99978307D02*
X147507006Y-100437926D01*
X146517057Y-99447977D01*
X146976676Y-98988358D01*
X147966625Y-99978307D01*
X147966625Y-99978307D01*
G37*
G36*
X148320178Y-99624753D02*
X147860559Y-100084372D01*
X146870610Y-99094423D01*
X147330229Y-98634804D01*
X148320178Y-99624753D01*
X148320178Y-99624753D01*
G37*
G36*
X148673732Y-99271200D02*
X148214113Y-99730819D01*
X147224164Y-98740870D01*
X147683783Y-98281251D01*
X148673732Y-99271200D01*
X148673732Y-99271200D01*
G37*
G36*
X149027285Y-98917647D02*
X148567666Y-99377266D01*
X147577717Y-98387317D01*
X148037336Y-97927698D01*
X149027285Y-98917647D01*
X149027285Y-98917647D01*
G37*
G36*
X149380838Y-98564093D02*
X148921219Y-99023712D01*
X147931270Y-98033763D01*
X148390889Y-97574144D01*
X149380838Y-98564093D01*
X149380838Y-98564093D01*
G37*
G36*
X149734392Y-98210540D02*
X149274773Y-98670159D01*
X148284824Y-97680210D01*
X148744443Y-97220591D01*
X149734392Y-98210540D01*
X149734392Y-98210540D01*
G37*
G36*
X150087945Y-97856986D02*
X149628326Y-98316605D01*
X148638377Y-97326656D01*
X149097996Y-96867037D01*
X150087945Y-97856986D01*
X150087945Y-97856986D01*
G37*
G36*
X150441499Y-97503433D02*
X149981880Y-97963052D01*
X148991931Y-96973103D01*
X149451550Y-96513484D01*
X150441499Y-97503433D01*
X150441499Y-97503433D01*
G37*
G36*
X150795052Y-97149880D02*
X150335433Y-97609499D01*
X149345484Y-96619550D01*
X149805103Y-96159931D01*
X150795052Y-97149880D01*
X150795052Y-97149880D01*
G37*
G36*
X151148605Y-96796326D02*
X150688986Y-97255945D01*
X149699037Y-96265996D01*
X150158656Y-95806377D01*
X151148605Y-96796326D01*
X151148605Y-96796326D01*
G37*
G36*
X151502159Y-96442773D02*
X151042540Y-96902392D01*
X150052591Y-95912443D01*
X150512210Y-95452824D01*
X151502159Y-96442773D01*
X151502159Y-96442773D01*
G37*
G36*
X151855712Y-96089219D02*
X151396093Y-96548838D01*
X150406144Y-95558889D01*
X150865763Y-95099270D01*
X151855712Y-96089219D01*
X151855712Y-96089219D01*
G37*
G36*
X152209266Y-95735666D02*
X151749647Y-96195285D01*
X150759698Y-95205336D01*
X151219317Y-94745717D01*
X152209266Y-95735666D01*
X152209266Y-95735666D01*
G37*
G36*
X152562819Y-95382113D02*
X152103200Y-95841732D01*
X151113251Y-94851783D01*
X151572870Y-94392164D01*
X152562819Y-95382113D01*
X152562819Y-95382113D01*
G37*
G36*
X152916372Y-95028559D02*
X152456753Y-95488178D01*
X151466804Y-94498229D01*
X151926423Y-94038610D01*
X152916372Y-95028559D01*
X152916372Y-95028559D01*
G37*
G36*
X153269926Y-94675006D02*
X152810307Y-95134625D01*
X151820358Y-94144676D01*
X152279977Y-93685057D01*
X153269926Y-94675006D01*
X153269926Y-94675006D01*
G37*
G36*
X155037693Y-95134625D02*
X154578074Y-94675006D01*
X155568023Y-93685057D01*
X156027642Y-94144676D01*
X155037693Y-95134625D01*
X155037693Y-95134625D01*
G37*
G36*
X155391247Y-95488178D02*
X154931628Y-95028559D01*
X155921577Y-94038610D01*
X156381196Y-94498229D01*
X155391247Y-95488178D01*
X155391247Y-95488178D01*
G37*
G36*
X155744800Y-95841732D02*
X155285181Y-95382113D01*
X156275130Y-94392164D01*
X156734749Y-94851783D01*
X155744800Y-95841732D01*
X155744800Y-95841732D01*
G37*
G36*
X156098353Y-96195285D02*
X155638734Y-95735666D01*
X156628683Y-94745717D01*
X157088302Y-95205336D01*
X156098353Y-96195285D01*
X156098353Y-96195285D01*
G37*
G36*
X156451907Y-96548838D02*
X155992288Y-96089219D01*
X156982237Y-95099270D01*
X157441856Y-95558889D01*
X156451907Y-96548838D01*
X156451907Y-96548838D01*
G37*
G36*
X156805460Y-96902392D02*
X156345841Y-96442773D01*
X157335790Y-95452824D01*
X157795409Y-95912443D01*
X156805460Y-96902392D01*
X156805460Y-96902392D01*
G37*
G36*
X157159014Y-97255945D02*
X156699395Y-96796326D01*
X157689344Y-95806377D01*
X158148963Y-96265996D01*
X157159014Y-97255945D01*
X157159014Y-97255945D01*
G37*
G36*
X157512567Y-97609499D02*
X157052948Y-97149880D01*
X158042897Y-96159931D01*
X158502516Y-96619550D01*
X157512567Y-97609499D01*
X157512567Y-97609499D01*
G37*
G36*
X157866120Y-97963052D02*
X157406501Y-97503433D01*
X158396450Y-96513484D01*
X158856069Y-96973103D01*
X157866120Y-97963052D01*
X157866120Y-97963052D01*
G37*
G36*
X158219674Y-98316605D02*
X157760055Y-97856986D01*
X158750004Y-96867037D01*
X159209623Y-97326656D01*
X158219674Y-98316605D01*
X158219674Y-98316605D01*
G37*
G36*
X158573227Y-98670159D02*
X158113608Y-98210540D01*
X159103557Y-97220591D01*
X159563176Y-97680210D01*
X158573227Y-98670159D01*
X158573227Y-98670159D01*
G37*
G36*
X158926781Y-99023712D02*
X158467162Y-98564093D01*
X159457111Y-97574144D01*
X159916730Y-98033763D01*
X158926781Y-99023712D01*
X158926781Y-99023712D01*
G37*
G36*
X159280334Y-99377266D02*
X158820715Y-98917647D01*
X159810664Y-97927698D01*
X160270283Y-98387317D01*
X159280334Y-99377266D01*
X159280334Y-99377266D01*
G37*
G36*
X159633887Y-99730819D02*
X159174268Y-99271200D01*
X160164217Y-98281251D01*
X160623836Y-98740870D01*
X159633887Y-99730819D01*
X159633887Y-99730819D01*
G37*
G36*
X159987441Y-100084372D02*
X159527822Y-99624753D01*
X160517771Y-98634804D01*
X160977390Y-99094423D01*
X159987441Y-100084372D01*
X159987441Y-100084372D01*
G37*
G36*
X160340994Y-100437926D02*
X159881375Y-99978307D01*
X160871324Y-98988358D01*
X161330943Y-99447977D01*
X160340994Y-100437926D01*
X160340994Y-100437926D01*
G37*
D13*
X143550000Y-117152000D03*
D14*
X137250000Y-117152000D03*
X137250000Y-114852000D03*
X137250000Y-119452000D03*
D15*
X120904000Y-81534000D03*
X119004000Y-81534000D03*
D16*
X118458000Y-118652000D03*
X118458000Y-116752000D03*
D15*
X113289000Y-81534000D03*
X115189000Y-81534000D03*
D16*
X129872000Y-112712000D03*
X129872000Y-114612000D03*
D15*
X132042000Y-116752000D03*
X130142000Y-116752000D03*
X132042000Y-118600000D03*
X130142000Y-118600000D03*
X169164000Y-106172000D03*
X167264000Y-106172000D03*
X163200000Y-106172000D03*
X165100000Y-106172000D03*
D17*
X113284000Y-116164000D03*
X113284000Y-118364000D03*
D18*
X138208000Y-98486000D03*
X138208000Y-96586000D03*
X140208000Y-97536000D03*
D19*
X139934000Y-83820000D03*
X137434000Y-83820000D03*
D20*
X177000000Y-118540000D03*
D21*
X177000000Y-116000000D03*
X177000000Y-113460000D03*
D20*
X177000000Y-88540000D03*
D21*
X177000000Y-86000000D03*
X177000000Y-83460000D03*
D22*
X119380000Y-85512000D03*
X119380000Y-83312000D03*
X117348000Y-85512000D03*
X117348000Y-83312000D03*
X115316000Y-85512000D03*
X115316000Y-83312000D03*
X113284000Y-85512000D03*
X113284000Y-83312000D03*
X123444000Y-104308000D03*
X123444000Y-102108000D03*
X173736000Y-110068000D03*
X173736000Y-112268000D03*
X116500000Y-101900000D03*
X116500000Y-104100000D03*
X114500000Y-104100000D03*
X114500000Y-101900000D03*
X141224000Y-102784000D03*
X141224000Y-100584000D03*
X136652000Y-102784000D03*
X136652000Y-100584000D03*
X139700000Y-102784000D03*
X139700000Y-100584000D03*
X138176000Y-102784000D03*
X138176000Y-100584000D03*
X135128000Y-102784000D03*
X135128000Y-100584000D03*
X179832000Y-114976000D03*
X179832000Y-112776000D03*
D23*
X169100000Y-100000000D03*
X166900000Y-100000000D03*
D22*
X173736000Y-84836000D03*
X173736000Y-82636000D03*
X173736000Y-91100000D03*
X173736000Y-88900000D03*
D23*
X168600000Y-102000000D03*
X166400000Y-102000000D03*
X117516000Y-113284000D03*
X115316000Y-113284000D03*
X126100000Y-107188000D03*
X123900000Y-107188000D03*
D22*
X112776000Y-106500000D03*
X112776000Y-104300000D03*
X112776000Y-109000000D03*
X112776000Y-111200000D03*
D24*
X122584000Y-89154000D03*
X122584000Y-90424000D03*
X122584000Y-91694000D03*
X122584000Y-92964000D03*
X122584000Y-94234000D03*
X122584000Y-95504000D03*
X122584000Y-96774000D03*
X122584000Y-98044000D03*
X113284000Y-98044000D03*
X113284000Y-96774000D03*
X113284000Y-95504000D03*
X113284000Y-94234000D03*
X113284000Y-92964000D03*
X113284000Y-91694000D03*
X113284000Y-90424000D03*
X113284000Y-89154000D03*
D25*
X120716000Y-105918000D03*
X120716000Y-107188000D03*
X120716000Y-108458000D03*
X120716000Y-109728000D03*
X115316000Y-109728000D03*
X115316000Y-108458000D03*
X115316000Y-107188000D03*
X115316000Y-105918000D03*
D26*
X148270000Y-88868000D03*
X146370000Y-88868000D03*
X147320000Y-86868000D03*
D27*
X173000000Y-102290000D03*
X173000000Y-99750000D03*
X175000000Y-99750000D03*
X175000000Y-102290000D03*
D28*
X177700000Y-107020000D03*
X177700000Y-95020000D03*
D29*
X159004000Y-118872000D03*
D30*
X156464000Y-118872000D03*
X153924000Y-118872000D03*
X151384000Y-118872000D03*
D29*
X109500000Y-89600000D03*
D30*
X109500000Y-92140000D03*
X109500000Y-94680000D03*
X109500000Y-97220000D03*
X109500000Y-99760000D03*
X109500000Y-102300000D03*
X109500000Y-104840000D03*
X109500000Y-107380000D03*
X109500000Y-109920000D03*
X109500000Y-112460000D03*
D31*
X115648000Y-119652000D03*
D32*
X115648000Y-117152000D03*
D31*
X146400000Y-117152000D03*
D32*
X146400000Y-119652000D03*
D16*
X121412000Y-85720000D03*
X121412000Y-83820000D03*
X132080000Y-83820000D03*
X132080000Y-81920000D03*
D33*
X123952000Y-82296000D03*
X129852000Y-82296000D03*
X129852000Y-84996000D03*
X123952000Y-84996000D03*
X169574000Y-111078000D03*
X163674000Y-111078000D03*
X163674000Y-108378000D03*
X169574000Y-108378000D03*
D31*
X120864000Y-103124000D03*
D32*
X118364000Y-103124000D03*
D34*
X135414000Y-91230000D03*
X135414000Y-91730000D03*
X135414000Y-92230000D03*
X135414000Y-92730000D03*
X135414000Y-93230000D03*
X135414000Y-93730000D03*
X135414000Y-94230000D03*
X135414000Y-94730000D03*
X135414000Y-95230000D03*
X135414000Y-95730000D03*
X135414000Y-96230000D03*
X135414000Y-96730000D03*
D35*
X133814000Y-98330000D03*
X133314000Y-98330000D03*
X132814000Y-98330000D03*
X132314000Y-98330000D03*
X131814000Y-98330000D03*
X131314000Y-98330000D03*
X130814000Y-98330000D03*
X130314000Y-98330000D03*
X129814000Y-98330000D03*
X129314000Y-98330000D03*
X128814000Y-98330000D03*
X128314000Y-98330000D03*
D34*
X126714000Y-96730000D03*
X126714000Y-96230000D03*
X126714000Y-95730000D03*
X126714000Y-95230000D03*
X126714000Y-94730000D03*
X126714000Y-94230000D03*
X126714000Y-93730000D03*
X126714000Y-93230000D03*
X126714000Y-92730000D03*
X126714000Y-92230000D03*
X126714000Y-91730000D03*
X126714000Y-91230000D03*
D35*
X128314000Y-89630000D03*
X128814000Y-89630000D03*
X129314000Y-89630000D03*
X129814000Y-89630000D03*
X130314000Y-89630000D03*
X130814000Y-89630000D03*
X131314000Y-89630000D03*
X131814000Y-89630000D03*
X132314000Y-89630000D03*
X132814000Y-89630000D03*
X133314000Y-89630000D03*
X133814000Y-89630000D03*
D22*
X124350000Y-112200000D03*
X127650000Y-112200000D03*
X148950000Y-114400000D03*
X152250000Y-114400000D03*
X159850000Y-114800000D03*
X156550000Y-114800000D03*
D23*
X132300000Y-120400000D03*
X130100000Y-120400000D03*
D22*
X134800000Y-117200000D03*
X134800000Y-119400000D03*
D36*
X155551000Y-82128000D03*
X156821000Y-82128000D03*
X158091000Y-82128000D03*
X159361000Y-82128000D03*
X159361000Y-87528000D03*
X158091000Y-87528000D03*
X156821000Y-87528000D03*
X155551000Y-87528000D03*
M02*
