%TF.GenerationSoftware,KiCad,Pcbnew,4.0.7-e2-6376~58~ubuntu16.04.1*%
%TF.CreationDate,2018-05-15T11:46:24+03:00*%
%TF.ProjectId,rover_commander,726F7665725F636F6D6D616E6465722E,rev?*%
%TF.FileFunction,Legend,Top*%
%FSLAX46Y46*%
G04 Gerber Fmt 4.6, Leading zero omitted, Abs format (unit mm)*
G04 Created by KiCad (PCBNEW 4.0.7-e2-6376~58~ubuntu16.04.1) date Tue May 15 11:46:24 2018*
%MOMM*%
%LPD*%
G01*
G04 APERTURE LIST*
%ADD10C,0.100000*%
%ADD11C,0.300000*%
%ADD12C,0.120000*%
%ADD13C,0.200000*%
%ADD14C,0.254000*%
%ADD15C,0.150000*%
%ADD16R,2.400000X2.400000*%
%ADD17C,2.400000*%
%ADD18R,1.150000X1.600000*%
%ADD19R,1.600000X1.150000*%
%ADD20R,2.400000X2.900000*%
%ADD21R,2.900000X2.400000*%
%ADD22R,2.200000X2.200000*%
%ADD23C,2.200000*%
%ADD24R,1.300000X1.600000*%
%ADD25C,1.920000*%
%ADD26C,3.100000*%
%ADD27R,2.100000X2.100000*%
%ADD28O,2.100000X2.100000*%
%ADD29R,2.000000X2.000000*%
%ADD30C,2.000000*%
%ADD31R,4.150000X1.450000*%
%ADD32R,8.700000X10.900000*%
%ADD33R,2.200000X2.900000*%
%ADD34R,1.670000X1.370000*%
%ADD35R,1.600000X1.300000*%
G04 APERTURE END LIST*
D10*
D11*
X111285714Y-111678571D02*
X111785714Y-113178571D01*
X112285714Y-111678571D01*
X112785714Y-113178571D02*
X112785714Y-111678571D01*
X112785714Y-112250000D02*
X112928571Y-112178571D01*
X113214285Y-112178571D01*
X113357142Y-112250000D01*
X113428571Y-112321429D01*
X113500000Y-112464286D01*
X113500000Y-112892857D01*
X113428571Y-113035714D01*
X113357142Y-113107143D01*
X113214285Y-113178571D01*
X112928571Y-113178571D01*
X112785714Y-113107143D01*
X114785714Y-113178571D02*
X114785714Y-112392857D01*
X114714285Y-112250000D01*
X114571428Y-112178571D01*
X114285714Y-112178571D01*
X114142857Y-112250000D01*
X114785714Y-113107143D02*
X114642857Y-113178571D01*
X114285714Y-113178571D01*
X114142857Y-113107143D01*
X114071428Y-112964286D01*
X114071428Y-112821429D01*
X114142857Y-112678571D01*
X114285714Y-112607143D01*
X114642857Y-112607143D01*
X114785714Y-112535714D01*
X115285714Y-112178571D02*
X115857143Y-112178571D01*
X115500000Y-111678571D02*
X115500000Y-112964286D01*
X115571428Y-113107143D01*
X115714286Y-113178571D01*
X115857143Y-113178571D01*
X116142857Y-112178571D02*
X116714286Y-112178571D01*
X116357143Y-111678571D02*
X116357143Y-112964286D01*
X116428571Y-113107143D01*
X116571429Y-113178571D01*
X116714286Y-113178571D01*
X111571429Y-105403571D02*
X111571429Y-103903571D01*
X111571429Y-104617857D02*
X112428572Y-104617857D01*
X112428572Y-105403571D02*
X112428572Y-103903571D01*
X112464286Y-107953571D02*
X111750000Y-107953571D01*
X111750000Y-106453571D01*
D12*
X144520000Y-86868000D02*
G75*
G03X144520000Y-86868000I-6100000J0D01*
G01*
X120400000Y-86850000D02*
X120400000Y-86150000D01*
X121600000Y-86150000D02*
X121600000Y-86850000D01*
X126716000Y-84744000D02*
X127416000Y-84744000D01*
X127416000Y-85944000D02*
X126716000Y-85944000D01*
X152400000Y-83500000D02*
X152400000Y-82800000D01*
X153600000Y-82800000D02*
X153600000Y-83500000D01*
X150800000Y-83500000D02*
X150800000Y-82800000D01*
X152000000Y-82800000D02*
X152000000Y-83500000D01*
X149200000Y-83500000D02*
X149200000Y-82800000D01*
X150400000Y-82800000D02*
X150400000Y-83500000D01*
X147600000Y-83500000D02*
X147600000Y-82800000D01*
X148800000Y-82800000D02*
X148800000Y-83500000D01*
X118400000Y-86850000D02*
X118400000Y-86150000D01*
X119600000Y-86150000D02*
X119600000Y-86850000D01*
X126716000Y-86776000D02*
X127416000Y-86776000D01*
X127416000Y-87976000D02*
X126716000Y-87976000D01*
X119150000Y-97100000D02*
X119150000Y-97800000D01*
X117950000Y-97800000D02*
X117950000Y-97100000D01*
X129556000Y-84284000D02*
X127556000Y-84284000D01*
X127556000Y-81324000D02*
X129556000Y-81324000D01*
X129584000Y-94980000D02*
X129584000Y-92980000D01*
X132544000Y-92980000D02*
X132544000Y-94980000D01*
X175919173Y-113212185D02*
G75*
G03X175455170Y-118560000I1080827J-2787815D01*
G01*
X178080827Y-113212185D02*
G75*
G02X178544830Y-118560000I-1080827J-2787815D01*
G01*
X175919571Y-113745521D02*
G75*
G03X175920000Y-118254684I1080429J-2254479D01*
G01*
X178080429Y-113745521D02*
G75*
G02X178080000Y-118254684I-1080429J-2254479D01*
G01*
X175455000Y-118560000D02*
X175920000Y-118560000D01*
X178080000Y-118560000D02*
X178545000Y-118560000D01*
X175919173Y-83212185D02*
G75*
G03X175455170Y-88560000I1080827J-2787815D01*
G01*
X178080827Y-83212185D02*
G75*
G02X178544830Y-88560000I-1080827J-2787815D01*
G01*
X175919571Y-83745521D02*
G75*
G03X175920000Y-88254684I1080429J-2254479D01*
G01*
X178080429Y-83745521D02*
G75*
G02X178080000Y-88254684I-1080429J-2254479D01*
G01*
X175455000Y-88560000D02*
X175920000Y-88560000D01*
X178080000Y-88560000D02*
X178545000Y-88560000D01*
X146280000Y-82900000D02*
X146280000Y-83900000D01*
X144920000Y-83900000D02*
X144920000Y-82900000D01*
X118180000Y-107500000D02*
X118180000Y-108500000D01*
X116820000Y-108500000D02*
X116820000Y-107500000D01*
X145520000Y-108400000D02*
X145520000Y-107400000D01*
X146880000Y-107400000D02*
X146880000Y-108400000D01*
X179350000Y-107120000D02*
X187990000Y-107120000D01*
X170970000Y-107120000D02*
X176050000Y-107120000D01*
X179350000Y-94920000D02*
X187990000Y-94920000D01*
X170970000Y-94920000D02*
X176050000Y-94920000D01*
X187990000Y-94920000D02*
X187990000Y-107120000D01*
X170970000Y-107120000D02*
X170970000Y-94920000D01*
X150054000Y-117542000D02*
X150054000Y-120202000D01*
X157734000Y-117542000D02*
X150054000Y-117542000D01*
X157734000Y-120202000D02*
X150054000Y-120202000D01*
X157734000Y-117542000D02*
X157734000Y-120202000D01*
X159004000Y-117542000D02*
X160334000Y-117542000D01*
X160334000Y-117542000D02*
X160334000Y-118872000D01*
X108170000Y-113790000D02*
X110830000Y-113790000D01*
X108170000Y-90870000D02*
X108170000Y-113790000D01*
X110830000Y-90870000D02*
X110830000Y-113790000D01*
X108170000Y-90870000D02*
X110830000Y-90870000D01*
X108170000Y-89600000D02*
X108170000Y-88270000D01*
X108170000Y-88270000D02*
X109500000Y-88270000D01*
X114468277Y-116096278D02*
G75*
G03X114468000Y-120707580I1179723J-2305722D01*
G01*
X116827723Y-116096278D02*
G75*
G02X116828000Y-120707580I-1179723J-2305722D01*
G01*
X116827723Y-116096278D02*
G75*
G03X114468000Y-116096420I-1179723J-2305722D01*
G01*
X113098000Y-118402000D02*
X118198000Y-118402000D01*
X113098000Y-118362000D02*
X118198000Y-118362000D01*
X113099000Y-118322000D02*
X118197000Y-118322000D01*
X113100000Y-118282000D02*
X118196000Y-118282000D01*
X113102000Y-118242000D02*
X118194000Y-118242000D01*
X113105000Y-118202000D02*
X118191000Y-118202000D01*
X113109000Y-118162000D02*
X118187000Y-118162000D01*
X113113000Y-118122000D02*
X114668000Y-118122000D01*
X116628000Y-118122000D02*
X118183000Y-118122000D01*
X113117000Y-118082000D02*
X114668000Y-118082000D01*
X116628000Y-118082000D02*
X118179000Y-118082000D01*
X113123000Y-118042000D02*
X114668000Y-118042000D01*
X116628000Y-118042000D02*
X118173000Y-118042000D01*
X113129000Y-118002000D02*
X114668000Y-118002000D01*
X116628000Y-118002000D02*
X118167000Y-118002000D01*
X113135000Y-117962000D02*
X114668000Y-117962000D01*
X116628000Y-117962000D02*
X118161000Y-117962000D01*
X113142000Y-117922000D02*
X114668000Y-117922000D01*
X116628000Y-117922000D02*
X118154000Y-117922000D01*
X113150000Y-117882000D02*
X114668000Y-117882000D01*
X116628000Y-117882000D02*
X118146000Y-117882000D01*
X113159000Y-117842000D02*
X114668000Y-117842000D01*
X116628000Y-117842000D02*
X118137000Y-117842000D01*
X113168000Y-117802000D02*
X114668000Y-117802000D01*
X116628000Y-117802000D02*
X118128000Y-117802000D01*
X113178000Y-117762000D02*
X114668000Y-117762000D01*
X116628000Y-117762000D02*
X118118000Y-117762000D01*
X113188000Y-117722000D02*
X114668000Y-117722000D01*
X116628000Y-117722000D02*
X118108000Y-117722000D01*
X113200000Y-117681000D02*
X114668000Y-117681000D01*
X116628000Y-117681000D02*
X118096000Y-117681000D01*
X113212000Y-117641000D02*
X114668000Y-117641000D01*
X116628000Y-117641000D02*
X118084000Y-117641000D01*
X113224000Y-117601000D02*
X114668000Y-117601000D01*
X116628000Y-117601000D02*
X118072000Y-117601000D01*
X113238000Y-117561000D02*
X114668000Y-117561000D01*
X116628000Y-117561000D02*
X118058000Y-117561000D01*
X113252000Y-117521000D02*
X114668000Y-117521000D01*
X116628000Y-117521000D02*
X118044000Y-117521000D01*
X113266000Y-117481000D02*
X114668000Y-117481000D01*
X116628000Y-117481000D02*
X118030000Y-117481000D01*
X113282000Y-117441000D02*
X114668000Y-117441000D01*
X116628000Y-117441000D02*
X118014000Y-117441000D01*
X113298000Y-117401000D02*
X114668000Y-117401000D01*
X116628000Y-117401000D02*
X117998000Y-117401000D01*
X113315000Y-117361000D02*
X114668000Y-117361000D01*
X116628000Y-117361000D02*
X117981000Y-117361000D01*
X113333000Y-117321000D02*
X114668000Y-117321000D01*
X116628000Y-117321000D02*
X117963000Y-117321000D01*
X113352000Y-117281000D02*
X114668000Y-117281000D01*
X116628000Y-117281000D02*
X117944000Y-117281000D01*
X113372000Y-117241000D02*
X114668000Y-117241000D01*
X116628000Y-117241000D02*
X117924000Y-117241000D01*
X113392000Y-117201000D02*
X114668000Y-117201000D01*
X116628000Y-117201000D02*
X117904000Y-117201000D01*
X113414000Y-117161000D02*
X114668000Y-117161000D01*
X116628000Y-117161000D02*
X117882000Y-117161000D01*
X113436000Y-117121000D02*
X114668000Y-117121000D01*
X116628000Y-117121000D02*
X117860000Y-117121000D01*
X113459000Y-117081000D02*
X114668000Y-117081000D01*
X116628000Y-117081000D02*
X117837000Y-117081000D01*
X113483000Y-117041000D02*
X114668000Y-117041000D01*
X116628000Y-117041000D02*
X117813000Y-117041000D01*
X113508000Y-117001000D02*
X114668000Y-117001000D01*
X116628000Y-117001000D02*
X117788000Y-117001000D01*
X113535000Y-116961000D02*
X114668000Y-116961000D01*
X116628000Y-116961000D02*
X117761000Y-116961000D01*
X113562000Y-116921000D02*
X114668000Y-116921000D01*
X116628000Y-116921000D02*
X117734000Y-116921000D01*
X113590000Y-116881000D02*
X114668000Y-116881000D01*
X116628000Y-116881000D02*
X117706000Y-116881000D01*
X113620000Y-116841000D02*
X114668000Y-116841000D01*
X116628000Y-116841000D02*
X117676000Y-116841000D01*
X113651000Y-116801000D02*
X114668000Y-116801000D01*
X116628000Y-116801000D02*
X117645000Y-116801000D01*
X113683000Y-116761000D02*
X114668000Y-116761000D01*
X116628000Y-116761000D02*
X117613000Y-116761000D01*
X113716000Y-116721000D02*
X114668000Y-116721000D01*
X116628000Y-116721000D02*
X117580000Y-116721000D01*
X113751000Y-116681000D02*
X114668000Y-116681000D01*
X116628000Y-116681000D02*
X117545000Y-116681000D01*
X113787000Y-116641000D02*
X114668000Y-116641000D01*
X116628000Y-116641000D02*
X117509000Y-116641000D01*
X113825000Y-116601000D02*
X114668000Y-116601000D01*
X116628000Y-116601000D02*
X117471000Y-116601000D01*
X113865000Y-116561000D02*
X114668000Y-116561000D01*
X116628000Y-116561000D02*
X117431000Y-116561000D01*
X113906000Y-116521000D02*
X114668000Y-116521000D01*
X116628000Y-116521000D02*
X117390000Y-116521000D01*
X113949000Y-116481000D02*
X114668000Y-116481000D01*
X116628000Y-116481000D02*
X117347000Y-116481000D01*
X113994000Y-116441000D02*
X114668000Y-116441000D01*
X116628000Y-116441000D02*
X117302000Y-116441000D01*
X114042000Y-116401000D02*
X114668000Y-116401000D01*
X116628000Y-116401000D02*
X117254000Y-116401000D01*
X114092000Y-116361000D02*
X114668000Y-116361000D01*
X116628000Y-116361000D02*
X117204000Y-116361000D01*
X114144000Y-116321000D02*
X114668000Y-116321000D01*
X116628000Y-116321000D02*
X117152000Y-116321000D01*
X114200000Y-116281000D02*
X114668000Y-116281000D01*
X116628000Y-116281000D02*
X117096000Y-116281000D01*
X114258000Y-116241000D02*
X114668000Y-116241000D01*
X116628000Y-116241000D02*
X117038000Y-116241000D01*
X114321000Y-116201000D02*
X114668000Y-116201000D01*
X116628000Y-116201000D02*
X116975000Y-116201000D01*
X114387000Y-116161000D02*
X116909000Y-116161000D01*
X114459000Y-116121000D02*
X116837000Y-116121000D01*
X114536000Y-116081000D02*
X116760000Y-116081000D01*
X114620000Y-116041000D02*
X116676000Y-116041000D01*
X114714000Y-116001000D02*
X116582000Y-116001000D01*
X114819000Y-115961000D02*
X116477000Y-115961000D01*
X114941000Y-115921000D02*
X116355000Y-115921000D01*
X115089000Y-115881000D02*
X116207000Y-115881000D01*
X115294000Y-115841000D02*
X116002000Y-115841000D01*
X115648000Y-121852000D02*
X115648000Y-120652000D01*
X114998000Y-121252000D02*
X116298000Y-121252000D01*
X147579723Y-120707722D02*
G75*
G03X147580000Y-116096420I-1179723J2305722D01*
G01*
X145220277Y-120707722D02*
G75*
G02X145220000Y-116096420I1179723J2305722D01*
G01*
X145220277Y-120707722D02*
G75*
G03X147580000Y-120707580I1179723J2305722D01*
G01*
X148950000Y-118402000D02*
X143850000Y-118402000D01*
X148950000Y-118442000D02*
X143850000Y-118442000D01*
X148949000Y-118482000D02*
X143851000Y-118482000D01*
X148948000Y-118522000D02*
X143852000Y-118522000D01*
X148946000Y-118562000D02*
X143854000Y-118562000D01*
X148943000Y-118602000D02*
X143857000Y-118602000D01*
X148939000Y-118642000D02*
X143861000Y-118642000D01*
X148935000Y-118682000D02*
X147380000Y-118682000D01*
X145420000Y-118682000D02*
X143865000Y-118682000D01*
X148931000Y-118722000D02*
X147380000Y-118722000D01*
X145420000Y-118722000D02*
X143869000Y-118722000D01*
X148925000Y-118762000D02*
X147380000Y-118762000D01*
X145420000Y-118762000D02*
X143875000Y-118762000D01*
X148919000Y-118802000D02*
X147380000Y-118802000D01*
X145420000Y-118802000D02*
X143881000Y-118802000D01*
X148913000Y-118842000D02*
X147380000Y-118842000D01*
X145420000Y-118842000D02*
X143887000Y-118842000D01*
X148906000Y-118882000D02*
X147380000Y-118882000D01*
X145420000Y-118882000D02*
X143894000Y-118882000D01*
X148898000Y-118922000D02*
X147380000Y-118922000D01*
X145420000Y-118922000D02*
X143902000Y-118922000D01*
X148889000Y-118962000D02*
X147380000Y-118962000D01*
X145420000Y-118962000D02*
X143911000Y-118962000D01*
X148880000Y-119002000D02*
X147380000Y-119002000D01*
X145420000Y-119002000D02*
X143920000Y-119002000D01*
X148870000Y-119042000D02*
X147380000Y-119042000D01*
X145420000Y-119042000D02*
X143930000Y-119042000D01*
X148860000Y-119082000D02*
X147380000Y-119082000D01*
X145420000Y-119082000D02*
X143940000Y-119082000D01*
X148848000Y-119123000D02*
X147380000Y-119123000D01*
X145420000Y-119123000D02*
X143952000Y-119123000D01*
X148836000Y-119163000D02*
X147380000Y-119163000D01*
X145420000Y-119163000D02*
X143964000Y-119163000D01*
X148824000Y-119203000D02*
X147380000Y-119203000D01*
X145420000Y-119203000D02*
X143976000Y-119203000D01*
X148810000Y-119243000D02*
X147380000Y-119243000D01*
X145420000Y-119243000D02*
X143990000Y-119243000D01*
X148796000Y-119283000D02*
X147380000Y-119283000D01*
X145420000Y-119283000D02*
X144004000Y-119283000D01*
X148782000Y-119323000D02*
X147380000Y-119323000D01*
X145420000Y-119323000D02*
X144018000Y-119323000D01*
X148766000Y-119363000D02*
X147380000Y-119363000D01*
X145420000Y-119363000D02*
X144034000Y-119363000D01*
X148750000Y-119403000D02*
X147380000Y-119403000D01*
X145420000Y-119403000D02*
X144050000Y-119403000D01*
X148733000Y-119443000D02*
X147380000Y-119443000D01*
X145420000Y-119443000D02*
X144067000Y-119443000D01*
X148715000Y-119483000D02*
X147380000Y-119483000D01*
X145420000Y-119483000D02*
X144085000Y-119483000D01*
X148696000Y-119523000D02*
X147380000Y-119523000D01*
X145420000Y-119523000D02*
X144104000Y-119523000D01*
X148676000Y-119563000D02*
X147380000Y-119563000D01*
X145420000Y-119563000D02*
X144124000Y-119563000D01*
X148656000Y-119603000D02*
X147380000Y-119603000D01*
X145420000Y-119603000D02*
X144144000Y-119603000D01*
X148634000Y-119643000D02*
X147380000Y-119643000D01*
X145420000Y-119643000D02*
X144166000Y-119643000D01*
X148612000Y-119683000D02*
X147380000Y-119683000D01*
X145420000Y-119683000D02*
X144188000Y-119683000D01*
X148589000Y-119723000D02*
X147380000Y-119723000D01*
X145420000Y-119723000D02*
X144211000Y-119723000D01*
X148565000Y-119763000D02*
X147380000Y-119763000D01*
X145420000Y-119763000D02*
X144235000Y-119763000D01*
X148540000Y-119803000D02*
X147380000Y-119803000D01*
X145420000Y-119803000D02*
X144260000Y-119803000D01*
X148513000Y-119843000D02*
X147380000Y-119843000D01*
X145420000Y-119843000D02*
X144287000Y-119843000D01*
X148486000Y-119883000D02*
X147380000Y-119883000D01*
X145420000Y-119883000D02*
X144314000Y-119883000D01*
X148458000Y-119923000D02*
X147380000Y-119923000D01*
X145420000Y-119923000D02*
X144342000Y-119923000D01*
X148428000Y-119963000D02*
X147380000Y-119963000D01*
X145420000Y-119963000D02*
X144372000Y-119963000D01*
X148397000Y-120003000D02*
X147380000Y-120003000D01*
X145420000Y-120003000D02*
X144403000Y-120003000D01*
X148365000Y-120043000D02*
X147380000Y-120043000D01*
X145420000Y-120043000D02*
X144435000Y-120043000D01*
X148332000Y-120083000D02*
X147380000Y-120083000D01*
X145420000Y-120083000D02*
X144468000Y-120083000D01*
X148297000Y-120123000D02*
X147380000Y-120123000D01*
X145420000Y-120123000D02*
X144503000Y-120123000D01*
X148261000Y-120163000D02*
X147380000Y-120163000D01*
X145420000Y-120163000D02*
X144539000Y-120163000D01*
X148223000Y-120203000D02*
X147380000Y-120203000D01*
X145420000Y-120203000D02*
X144577000Y-120203000D01*
X148183000Y-120243000D02*
X147380000Y-120243000D01*
X145420000Y-120243000D02*
X144617000Y-120243000D01*
X148142000Y-120283000D02*
X147380000Y-120283000D01*
X145420000Y-120283000D02*
X144658000Y-120283000D01*
X148099000Y-120323000D02*
X147380000Y-120323000D01*
X145420000Y-120323000D02*
X144701000Y-120323000D01*
X148054000Y-120363000D02*
X147380000Y-120363000D01*
X145420000Y-120363000D02*
X144746000Y-120363000D01*
X148006000Y-120403000D02*
X147380000Y-120403000D01*
X145420000Y-120403000D02*
X144794000Y-120403000D01*
X147956000Y-120443000D02*
X147380000Y-120443000D01*
X145420000Y-120443000D02*
X144844000Y-120443000D01*
X147904000Y-120483000D02*
X147380000Y-120483000D01*
X145420000Y-120483000D02*
X144896000Y-120483000D01*
X147848000Y-120523000D02*
X147380000Y-120523000D01*
X145420000Y-120523000D02*
X144952000Y-120523000D01*
X147790000Y-120563000D02*
X147380000Y-120563000D01*
X145420000Y-120563000D02*
X145010000Y-120563000D01*
X147727000Y-120603000D02*
X147380000Y-120603000D01*
X145420000Y-120603000D02*
X145073000Y-120603000D01*
X147661000Y-120643000D02*
X145139000Y-120643000D01*
X147589000Y-120683000D02*
X145211000Y-120683000D01*
X147512000Y-120723000D02*
X145288000Y-120723000D01*
X147428000Y-120763000D02*
X145372000Y-120763000D01*
X147334000Y-120803000D02*
X145466000Y-120803000D01*
X147229000Y-120843000D02*
X145571000Y-120843000D01*
X147107000Y-120883000D02*
X145693000Y-120883000D01*
X146959000Y-120923000D02*
X145841000Y-120923000D01*
X146754000Y-120963000D02*
X146046000Y-120963000D01*
X146400000Y-114952000D02*
X146400000Y-116152000D01*
X147050000Y-115552000D02*
X145750000Y-115552000D01*
X155784000Y-86268000D02*
X155784000Y-85268000D01*
X157144000Y-85268000D02*
X157144000Y-86268000D01*
X158832000Y-86352000D02*
X158832000Y-85352000D01*
X160192000Y-85352000D02*
X160192000Y-86352000D01*
X117308278Y-104303723D02*
G75*
G03X121919580Y-104304000I2305722J1179723D01*
G01*
X117308278Y-101944277D02*
G75*
G02X121919580Y-101944000I2305722J-1179723D01*
G01*
X117308278Y-101944277D02*
G75*
G03X117308420Y-104304000I2305722J-1179723D01*
G01*
X119614000Y-105674000D02*
X119614000Y-100574000D01*
X119574000Y-105674000D02*
X119574000Y-100574000D01*
X119534000Y-105673000D02*
X119534000Y-100575000D01*
X119494000Y-105672000D02*
X119494000Y-100576000D01*
X119454000Y-105670000D02*
X119454000Y-100578000D01*
X119414000Y-105667000D02*
X119414000Y-100581000D01*
X119374000Y-105663000D02*
X119374000Y-100585000D01*
X119334000Y-105659000D02*
X119334000Y-104104000D01*
X119334000Y-102144000D02*
X119334000Y-100589000D01*
X119294000Y-105655000D02*
X119294000Y-104104000D01*
X119294000Y-102144000D02*
X119294000Y-100593000D01*
X119254000Y-105649000D02*
X119254000Y-104104000D01*
X119254000Y-102144000D02*
X119254000Y-100599000D01*
X119214000Y-105643000D02*
X119214000Y-104104000D01*
X119214000Y-102144000D02*
X119214000Y-100605000D01*
X119174000Y-105637000D02*
X119174000Y-104104000D01*
X119174000Y-102144000D02*
X119174000Y-100611000D01*
X119134000Y-105630000D02*
X119134000Y-104104000D01*
X119134000Y-102144000D02*
X119134000Y-100618000D01*
X119094000Y-105622000D02*
X119094000Y-104104000D01*
X119094000Y-102144000D02*
X119094000Y-100626000D01*
X119054000Y-105613000D02*
X119054000Y-104104000D01*
X119054000Y-102144000D02*
X119054000Y-100635000D01*
X119014000Y-105604000D02*
X119014000Y-104104000D01*
X119014000Y-102144000D02*
X119014000Y-100644000D01*
X118974000Y-105594000D02*
X118974000Y-104104000D01*
X118974000Y-102144000D02*
X118974000Y-100654000D01*
X118934000Y-105584000D02*
X118934000Y-104104000D01*
X118934000Y-102144000D02*
X118934000Y-100664000D01*
X118893000Y-105572000D02*
X118893000Y-104104000D01*
X118893000Y-102144000D02*
X118893000Y-100676000D01*
X118853000Y-105560000D02*
X118853000Y-104104000D01*
X118853000Y-102144000D02*
X118853000Y-100688000D01*
X118813000Y-105548000D02*
X118813000Y-104104000D01*
X118813000Y-102144000D02*
X118813000Y-100700000D01*
X118773000Y-105534000D02*
X118773000Y-104104000D01*
X118773000Y-102144000D02*
X118773000Y-100714000D01*
X118733000Y-105520000D02*
X118733000Y-104104000D01*
X118733000Y-102144000D02*
X118733000Y-100728000D01*
X118693000Y-105506000D02*
X118693000Y-104104000D01*
X118693000Y-102144000D02*
X118693000Y-100742000D01*
X118653000Y-105490000D02*
X118653000Y-104104000D01*
X118653000Y-102144000D02*
X118653000Y-100758000D01*
X118613000Y-105474000D02*
X118613000Y-104104000D01*
X118613000Y-102144000D02*
X118613000Y-100774000D01*
X118573000Y-105457000D02*
X118573000Y-104104000D01*
X118573000Y-102144000D02*
X118573000Y-100791000D01*
X118533000Y-105439000D02*
X118533000Y-104104000D01*
X118533000Y-102144000D02*
X118533000Y-100809000D01*
X118493000Y-105420000D02*
X118493000Y-104104000D01*
X118493000Y-102144000D02*
X118493000Y-100828000D01*
X118453000Y-105400000D02*
X118453000Y-104104000D01*
X118453000Y-102144000D02*
X118453000Y-100848000D01*
X118413000Y-105380000D02*
X118413000Y-104104000D01*
X118413000Y-102144000D02*
X118413000Y-100868000D01*
X118373000Y-105358000D02*
X118373000Y-104104000D01*
X118373000Y-102144000D02*
X118373000Y-100890000D01*
X118333000Y-105336000D02*
X118333000Y-104104000D01*
X118333000Y-102144000D02*
X118333000Y-100912000D01*
X118293000Y-105313000D02*
X118293000Y-104104000D01*
X118293000Y-102144000D02*
X118293000Y-100935000D01*
X118253000Y-105289000D02*
X118253000Y-104104000D01*
X118253000Y-102144000D02*
X118253000Y-100959000D01*
X118213000Y-105264000D02*
X118213000Y-104104000D01*
X118213000Y-102144000D02*
X118213000Y-100984000D01*
X118173000Y-105237000D02*
X118173000Y-104104000D01*
X118173000Y-102144000D02*
X118173000Y-101011000D01*
X118133000Y-105210000D02*
X118133000Y-104104000D01*
X118133000Y-102144000D02*
X118133000Y-101038000D01*
X118093000Y-105182000D02*
X118093000Y-104104000D01*
X118093000Y-102144000D02*
X118093000Y-101066000D01*
X118053000Y-105152000D02*
X118053000Y-104104000D01*
X118053000Y-102144000D02*
X118053000Y-101096000D01*
X118013000Y-105121000D02*
X118013000Y-104104000D01*
X118013000Y-102144000D02*
X118013000Y-101127000D01*
X117973000Y-105089000D02*
X117973000Y-104104000D01*
X117973000Y-102144000D02*
X117973000Y-101159000D01*
X117933000Y-105056000D02*
X117933000Y-104104000D01*
X117933000Y-102144000D02*
X117933000Y-101192000D01*
X117893000Y-105021000D02*
X117893000Y-104104000D01*
X117893000Y-102144000D02*
X117893000Y-101227000D01*
X117853000Y-104985000D02*
X117853000Y-104104000D01*
X117853000Y-102144000D02*
X117853000Y-101263000D01*
X117813000Y-104947000D02*
X117813000Y-104104000D01*
X117813000Y-102144000D02*
X117813000Y-101301000D01*
X117773000Y-104907000D02*
X117773000Y-104104000D01*
X117773000Y-102144000D02*
X117773000Y-101341000D01*
X117733000Y-104866000D02*
X117733000Y-104104000D01*
X117733000Y-102144000D02*
X117733000Y-101382000D01*
X117693000Y-104823000D02*
X117693000Y-104104000D01*
X117693000Y-102144000D02*
X117693000Y-101425000D01*
X117653000Y-104778000D02*
X117653000Y-104104000D01*
X117653000Y-102144000D02*
X117653000Y-101470000D01*
X117613000Y-104730000D02*
X117613000Y-104104000D01*
X117613000Y-102144000D02*
X117613000Y-101518000D01*
X117573000Y-104680000D02*
X117573000Y-104104000D01*
X117573000Y-102144000D02*
X117573000Y-101568000D01*
X117533000Y-104628000D02*
X117533000Y-104104000D01*
X117533000Y-102144000D02*
X117533000Y-101620000D01*
X117493000Y-104572000D02*
X117493000Y-104104000D01*
X117493000Y-102144000D02*
X117493000Y-101676000D01*
X117453000Y-104514000D02*
X117453000Y-104104000D01*
X117453000Y-102144000D02*
X117453000Y-101734000D01*
X117413000Y-104451000D02*
X117413000Y-104104000D01*
X117413000Y-102144000D02*
X117413000Y-101797000D01*
X117373000Y-104385000D02*
X117373000Y-101863000D01*
X117333000Y-104313000D02*
X117333000Y-101935000D01*
X117293000Y-104236000D02*
X117293000Y-102012000D01*
X117253000Y-104152000D02*
X117253000Y-102096000D01*
X117213000Y-104058000D02*
X117213000Y-102190000D01*
X117173000Y-103953000D02*
X117173000Y-102295000D01*
X117133000Y-103831000D02*
X117133000Y-102417000D01*
X117093000Y-103683000D02*
X117093000Y-102565000D01*
X117053000Y-103478000D02*
X117053000Y-102770000D01*
X123064000Y-103124000D02*
X121864000Y-103124000D01*
X122464000Y-103774000D02*
X122464000Y-102474000D01*
D13*
X128112000Y-110216000D02*
X131812000Y-110216000D01*
X131812000Y-110216000D02*
X131812000Y-120416000D01*
X131812000Y-120416000D02*
X128112000Y-120416000D01*
D14*
X135837000Y-118916000D02*
G75*
G03X135837000Y-118916000I-125000J0D01*
G01*
D12*
X116150000Y-93600000D02*
X112850000Y-93600000D01*
X112850000Y-93600000D02*
X112850000Y-99000000D01*
X116150000Y-93600000D02*
X116150000Y-99000000D01*
X112850000Y-107900000D02*
X116150000Y-107900000D01*
X116150000Y-107900000D02*
X116150000Y-102500000D01*
X112850000Y-107900000D02*
X112850000Y-102500000D01*
X141850000Y-105000000D02*
X141850000Y-103000000D01*
X141850000Y-103000000D02*
X137950000Y-103000000D01*
X141850000Y-105000000D02*
X137950000Y-105000000D01*
X154250000Y-90154000D02*
X154250000Y-88154000D01*
X154250000Y-88154000D02*
X150350000Y-88154000D01*
X154250000Y-90154000D02*
X150350000Y-90154000D01*
X165890000Y-98070000D02*
X165890000Y-95530000D01*
X164110000Y-95530000D02*
X164110000Y-98070000D01*
X164110000Y-95530000D02*
X165890000Y-95530000D01*
X165890000Y-98070000D02*
X164110000Y-98070000D01*
X161400000Y-96680000D02*
X160400000Y-96680000D01*
X160400000Y-95320000D02*
X161400000Y-95320000D01*
D15*
X137539048Y-93996571D02*
X137681905Y-94044190D01*
X137729524Y-94091810D01*
X137777143Y-94187048D01*
X137777143Y-94329905D01*
X137729524Y-94425143D01*
X137681905Y-94472762D01*
X137586667Y-94520381D01*
X137205714Y-94520381D01*
X137205714Y-93520381D01*
X137539048Y-93520381D01*
X137634286Y-93568000D01*
X137681905Y-93615619D01*
X137729524Y-93710857D01*
X137729524Y-93806095D01*
X137681905Y-93901333D01*
X137634286Y-93948952D01*
X137539048Y-93996571D01*
X137205714Y-93996571D01*
X138110476Y-93520381D02*
X138777143Y-93520381D01*
X138110476Y-94520381D01*
X138777143Y-94520381D01*
X139681905Y-94520381D02*
X139110476Y-94520381D01*
X139396190Y-94520381D02*
X139396190Y-93520381D01*
X139300952Y-93663238D01*
X139205714Y-93758476D01*
X139110476Y-93806095D01*
X141849048Y-89479429D02*
X142610953Y-89479429D01*
X142230001Y-89860381D02*
X142230001Y-89098476D01*
X120107143Y-86666666D02*
X120154762Y-86714285D01*
X120202381Y-86857142D01*
X120202381Y-86952380D01*
X120154762Y-87095238D01*
X120059524Y-87190476D01*
X119964286Y-87238095D01*
X119773810Y-87285714D01*
X119630952Y-87285714D01*
X119440476Y-87238095D01*
X119345238Y-87190476D01*
X119250000Y-87095238D01*
X119202381Y-86952380D01*
X119202381Y-86857142D01*
X119250000Y-86714285D01*
X119297619Y-86666666D01*
X120202381Y-85714285D02*
X120202381Y-86285714D01*
X120202381Y-86000000D02*
X119202381Y-86000000D01*
X119345238Y-86095238D01*
X119440476Y-86190476D01*
X119488095Y-86285714D01*
X123833334Y-85357143D02*
X123785715Y-85404762D01*
X123642858Y-85452381D01*
X123547620Y-85452381D01*
X123404762Y-85404762D01*
X123309524Y-85309524D01*
X123261905Y-85214286D01*
X123214286Y-85023810D01*
X123214286Y-84880952D01*
X123261905Y-84690476D01*
X123309524Y-84595238D01*
X123404762Y-84500000D01*
X123547620Y-84452381D01*
X123642858Y-84452381D01*
X123785715Y-84500000D01*
X123833334Y-84547619D01*
X124404762Y-84880952D02*
X124309524Y-84833333D01*
X124261905Y-84785714D01*
X124214286Y-84690476D01*
X124214286Y-84642857D01*
X124261905Y-84547619D01*
X124309524Y-84500000D01*
X124404762Y-84452381D01*
X124595239Y-84452381D01*
X124690477Y-84500000D01*
X124738096Y-84547619D01*
X124785715Y-84642857D01*
X124785715Y-84690476D01*
X124738096Y-84785714D01*
X124690477Y-84833333D01*
X124595239Y-84880952D01*
X124404762Y-84880952D01*
X124309524Y-84928571D01*
X124261905Y-84976190D01*
X124214286Y-85071429D01*
X124214286Y-85261905D01*
X124261905Y-85357143D01*
X124309524Y-85404762D01*
X124404762Y-85452381D01*
X124595239Y-85452381D01*
X124690477Y-85404762D01*
X124738096Y-85357143D01*
X124785715Y-85261905D01*
X124785715Y-85071429D01*
X124738096Y-84976190D01*
X124690477Y-84928571D01*
X124595239Y-84880952D01*
X153357143Y-87042857D02*
X153404762Y-87090476D01*
X153452381Y-87233333D01*
X153452381Y-87328571D01*
X153404762Y-87471429D01*
X153309524Y-87566667D01*
X153214286Y-87614286D01*
X153023810Y-87661905D01*
X152880952Y-87661905D01*
X152690476Y-87614286D01*
X152595238Y-87566667D01*
X152500000Y-87471429D01*
X152452381Y-87328571D01*
X152452381Y-87233333D01*
X152500000Y-87090476D01*
X152547619Y-87042857D01*
X153452381Y-86090476D02*
X153452381Y-86661905D01*
X153452381Y-86376191D02*
X152452381Y-86376191D01*
X152595238Y-86471429D01*
X152690476Y-86566667D01*
X152738095Y-86661905D01*
X153452381Y-85138095D02*
X153452381Y-85709524D01*
X153452381Y-85423810D02*
X152452381Y-85423810D01*
X152595238Y-85519048D01*
X152690476Y-85614286D01*
X152738095Y-85709524D01*
X151757143Y-87042857D02*
X151804762Y-87090476D01*
X151852381Y-87233333D01*
X151852381Y-87328571D01*
X151804762Y-87471429D01*
X151709524Y-87566667D01*
X151614286Y-87614286D01*
X151423810Y-87661905D01*
X151280952Y-87661905D01*
X151090476Y-87614286D01*
X150995238Y-87566667D01*
X150900000Y-87471429D01*
X150852381Y-87328571D01*
X150852381Y-87233333D01*
X150900000Y-87090476D01*
X150947619Y-87042857D01*
X151852381Y-86090476D02*
X151852381Y-86661905D01*
X151852381Y-86376191D02*
X150852381Y-86376191D01*
X150995238Y-86471429D01*
X151090476Y-86566667D01*
X151138095Y-86661905D01*
X151185714Y-85233333D02*
X151852381Y-85233333D01*
X150804762Y-85471429D02*
X151519048Y-85709524D01*
X151519048Y-85090476D01*
X150157143Y-87042857D02*
X150204762Y-87090476D01*
X150252381Y-87233333D01*
X150252381Y-87328571D01*
X150204762Y-87471429D01*
X150109524Y-87566667D01*
X150014286Y-87614286D01*
X149823810Y-87661905D01*
X149680952Y-87661905D01*
X149490476Y-87614286D01*
X149395238Y-87566667D01*
X149300000Y-87471429D01*
X149252381Y-87328571D01*
X149252381Y-87233333D01*
X149300000Y-87090476D01*
X149347619Y-87042857D01*
X150252381Y-86090476D02*
X150252381Y-86661905D01*
X150252381Y-86376191D02*
X149252381Y-86376191D01*
X149395238Y-86471429D01*
X149490476Y-86566667D01*
X149538095Y-86661905D01*
X149252381Y-85233333D02*
X149252381Y-85423810D01*
X149300000Y-85519048D01*
X149347619Y-85566667D01*
X149490476Y-85661905D01*
X149680952Y-85709524D01*
X150061905Y-85709524D01*
X150157143Y-85661905D01*
X150204762Y-85614286D01*
X150252381Y-85519048D01*
X150252381Y-85328571D01*
X150204762Y-85233333D01*
X150157143Y-85185714D01*
X150061905Y-85138095D01*
X149823810Y-85138095D01*
X149728571Y-85185714D01*
X149680952Y-85233333D01*
X149633333Y-85328571D01*
X149633333Y-85519048D01*
X149680952Y-85614286D01*
X149728571Y-85661905D01*
X149823810Y-85709524D01*
X148557143Y-87042857D02*
X148604762Y-87090476D01*
X148652381Y-87233333D01*
X148652381Y-87328571D01*
X148604762Y-87471429D01*
X148509524Y-87566667D01*
X148414286Y-87614286D01*
X148223810Y-87661905D01*
X148080952Y-87661905D01*
X147890476Y-87614286D01*
X147795238Y-87566667D01*
X147700000Y-87471429D01*
X147652381Y-87328571D01*
X147652381Y-87233333D01*
X147700000Y-87090476D01*
X147747619Y-87042857D01*
X148652381Y-86090476D02*
X148652381Y-86661905D01*
X148652381Y-86376191D02*
X147652381Y-86376191D01*
X147795238Y-86471429D01*
X147890476Y-86566667D01*
X147938095Y-86661905D01*
X147652381Y-85757143D02*
X147652381Y-85090476D01*
X148652381Y-85519048D01*
X118107143Y-87142857D02*
X118154762Y-87190476D01*
X118202381Y-87333333D01*
X118202381Y-87428571D01*
X118154762Y-87571429D01*
X118059524Y-87666667D01*
X117964286Y-87714286D01*
X117773810Y-87761905D01*
X117630952Y-87761905D01*
X117440476Y-87714286D01*
X117345238Y-87666667D01*
X117250000Y-87571429D01*
X117202381Y-87428571D01*
X117202381Y-87333333D01*
X117250000Y-87190476D01*
X117297619Y-87142857D01*
X118202381Y-86190476D02*
X118202381Y-86761905D01*
X118202381Y-86476191D02*
X117202381Y-86476191D01*
X117345238Y-86571429D01*
X117440476Y-86666667D01*
X117488095Y-86761905D01*
X117630952Y-85619048D02*
X117583333Y-85714286D01*
X117535714Y-85761905D01*
X117440476Y-85809524D01*
X117392857Y-85809524D01*
X117297619Y-85761905D01*
X117250000Y-85714286D01*
X117202381Y-85619048D01*
X117202381Y-85428571D01*
X117250000Y-85333333D01*
X117297619Y-85285714D01*
X117392857Y-85238095D01*
X117440476Y-85238095D01*
X117535714Y-85285714D01*
X117583333Y-85333333D01*
X117630952Y-85428571D01*
X117630952Y-85619048D01*
X117678571Y-85714286D01*
X117726190Y-85761905D01*
X117821429Y-85809524D01*
X118011905Y-85809524D01*
X118107143Y-85761905D01*
X118154762Y-85714286D01*
X118202381Y-85619048D01*
X118202381Y-85428571D01*
X118154762Y-85333333D01*
X118107143Y-85285714D01*
X118011905Y-85238095D01*
X117821429Y-85238095D01*
X117726190Y-85285714D01*
X117678571Y-85333333D01*
X117630952Y-85428571D01*
X122857143Y-87357143D02*
X122809524Y-87404762D01*
X122666667Y-87452381D01*
X122571429Y-87452381D01*
X122428571Y-87404762D01*
X122333333Y-87309524D01*
X122285714Y-87214286D01*
X122238095Y-87023810D01*
X122238095Y-86880952D01*
X122285714Y-86690476D01*
X122333333Y-86595238D01*
X122428571Y-86500000D01*
X122571429Y-86452381D01*
X122666667Y-86452381D01*
X122809524Y-86500000D01*
X122857143Y-86547619D01*
X123809524Y-87452381D02*
X123238095Y-87452381D01*
X123523809Y-87452381D02*
X123523809Y-86452381D01*
X123428571Y-86595238D01*
X123333333Y-86690476D01*
X123238095Y-86738095D01*
X124285714Y-87452381D02*
X124476190Y-87452381D01*
X124571429Y-87404762D01*
X124619048Y-87357143D01*
X124714286Y-87214286D01*
X124761905Y-87023810D01*
X124761905Y-86642857D01*
X124714286Y-86547619D01*
X124666667Y-86500000D01*
X124571429Y-86452381D01*
X124380952Y-86452381D01*
X124285714Y-86500000D01*
X124238095Y-86547619D01*
X124190476Y-86642857D01*
X124190476Y-86880952D01*
X124238095Y-86976190D01*
X124285714Y-87023810D01*
X124380952Y-87071429D01*
X124571429Y-87071429D01*
X124666667Y-87023810D01*
X124714286Y-86976190D01*
X124761905Y-86880952D01*
X120357143Y-98092857D02*
X120404762Y-98140476D01*
X120452381Y-98283333D01*
X120452381Y-98378571D01*
X120404762Y-98521429D01*
X120309524Y-98616667D01*
X120214286Y-98664286D01*
X120023810Y-98711905D01*
X119880952Y-98711905D01*
X119690476Y-98664286D01*
X119595238Y-98616667D01*
X119500000Y-98521429D01*
X119452381Y-98378571D01*
X119452381Y-98283333D01*
X119500000Y-98140476D01*
X119547619Y-98092857D01*
X119547619Y-97711905D02*
X119500000Y-97664286D01*
X119452381Y-97569048D01*
X119452381Y-97330952D01*
X119500000Y-97235714D01*
X119547619Y-97188095D01*
X119642857Y-97140476D01*
X119738095Y-97140476D01*
X119880952Y-97188095D01*
X120452381Y-97759524D01*
X120452381Y-97140476D01*
X119547619Y-96759524D02*
X119500000Y-96711905D01*
X119452381Y-96616667D01*
X119452381Y-96378571D01*
X119500000Y-96283333D01*
X119547619Y-96235714D01*
X119642857Y-96188095D01*
X119738095Y-96188095D01*
X119880952Y-96235714D01*
X120452381Y-96807143D01*
X120452381Y-96188095D01*
X124333334Y-82452381D02*
X123857143Y-82452381D01*
X123857143Y-81452381D01*
X125190477Y-82452381D02*
X124619048Y-82452381D01*
X124904762Y-82452381D02*
X124904762Y-81452381D01*
X124809524Y-81595238D01*
X124714286Y-81690476D01*
X124619048Y-81738095D01*
X134216381Y-94146666D02*
X134216381Y-94622857D01*
X133216381Y-94622857D01*
X133311619Y-93860952D02*
X133264000Y-93813333D01*
X133216381Y-93718095D01*
X133216381Y-93479999D01*
X133264000Y-93384761D01*
X133311619Y-93337142D01*
X133406857Y-93289523D01*
X133502095Y-93289523D01*
X133644952Y-93337142D01*
X134216381Y-93908571D01*
X134216381Y-93289523D01*
X173492381Y-117119047D02*
X173492381Y-117595238D01*
X172492381Y-117595238D01*
X172968571Y-116785714D02*
X172968571Y-116452380D01*
X173492381Y-116309523D02*
X173492381Y-116785714D01*
X172492381Y-116785714D01*
X172492381Y-116309523D01*
X173492381Y-115880952D02*
X172492381Y-115880952D01*
X172492381Y-115642857D01*
X172540000Y-115499999D01*
X172635238Y-115404761D01*
X172730476Y-115357142D01*
X172920952Y-115309523D01*
X173063810Y-115309523D01*
X173254286Y-115357142D01*
X173349524Y-115404761D01*
X173444762Y-115499999D01*
X173492381Y-115642857D01*
X173492381Y-115880952D01*
X173492381Y-114357142D02*
X173492381Y-114928571D01*
X173492381Y-114642857D02*
X172492381Y-114642857D01*
X172635238Y-114738095D01*
X172730476Y-114833333D01*
X172778095Y-114928571D01*
X173492381Y-87119047D02*
X173492381Y-87595238D01*
X172492381Y-87595238D01*
X172968571Y-86785714D02*
X172968571Y-86452380D01*
X173492381Y-86309523D02*
X173492381Y-86785714D01*
X172492381Y-86785714D01*
X172492381Y-86309523D01*
X173492381Y-85880952D02*
X172492381Y-85880952D01*
X172492381Y-85642857D01*
X172540000Y-85499999D01*
X172635238Y-85404761D01*
X172730476Y-85357142D01*
X172920952Y-85309523D01*
X173063810Y-85309523D01*
X173254286Y-85357142D01*
X173349524Y-85404761D01*
X173444762Y-85499999D01*
X173492381Y-85642857D01*
X173492381Y-85880952D01*
X172587619Y-84928571D02*
X172540000Y-84880952D01*
X172492381Y-84785714D01*
X172492381Y-84547618D01*
X172540000Y-84452380D01*
X172587619Y-84404761D01*
X172682857Y-84357142D01*
X172778095Y-84357142D01*
X172920952Y-84404761D01*
X173492381Y-84976190D01*
X173492381Y-84357142D01*
X146052381Y-86566666D02*
X145576190Y-86900000D01*
X146052381Y-87138095D02*
X145052381Y-87138095D01*
X145052381Y-86757142D01*
X145100000Y-86661904D01*
X145147619Y-86614285D01*
X145242857Y-86566666D01*
X145385714Y-86566666D01*
X145480952Y-86614285D01*
X145528571Y-86661904D01*
X145576190Y-86757142D01*
X145576190Y-87138095D01*
X145147619Y-86185714D02*
X145100000Y-86138095D01*
X145052381Y-86042857D01*
X145052381Y-85804761D01*
X145100000Y-85709523D01*
X145147619Y-85661904D01*
X145242857Y-85614285D01*
X145338095Y-85614285D01*
X145480952Y-85661904D01*
X146052381Y-86233333D01*
X146052381Y-85614285D01*
X116452381Y-111042857D02*
X115976190Y-111376191D01*
X116452381Y-111614286D02*
X115452381Y-111614286D01*
X115452381Y-111233333D01*
X115500000Y-111138095D01*
X115547619Y-111090476D01*
X115642857Y-111042857D01*
X115785714Y-111042857D01*
X115880952Y-111090476D01*
X115928571Y-111138095D01*
X115976190Y-111233333D01*
X115976190Y-111614286D01*
X115547619Y-110661905D02*
X115500000Y-110614286D01*
X115452381Y-110519048D01*
X115452381Y-110280952D01*
X115500000Y-110185714D01*
X115547619Y-110138095D01*
X115642857Y-110090476D01*
X115738095Y-110090476D01*
X115880952Y-110138095D01*
X116452381Y-110709524D01*
X116452381Y-110090476D01*
X116452381Y-109138095D02*
X116452381Y-109709524D01*
X116452381Y-109423810D02*
X115452381Y-109423810D01*
X115595238Y-109519048D01*
X115690476Y-109614286D01*
X115738095Y-109709524D01*
X148102381Y-108542857D02*
X147626190Y-108876191D01*
X148102381Y-109114286D02*
X147102381Y-109114286D01*
X147102381Y-108733333D01*
X147150000Y-108638095D01*
X147197619Y-108590476D01*
X147292857Y-108542857D01*
X147435714Y-108542857D01*
X147530952Y-108590476D01*
X147578571Y-108638095D01*
X147626190Y-108733333D01*
X147626190Y-109114286D01*
X147197619Y-108161905D02*
X147150000Y-108114286D01*
X147102381Y-108019048D01*
X147102381Y-107780952D01*
X147150000Y-107685714D01*
X147197619Y-107638095D01*
X147292857Y-107590476D01*
X147388095Y-107590476D01*
X147530952Y-107638095D01*
X148102381Y-108209524D01*
X148102381Y-107590476D01*
X147102381Y-107257143D02*
X147102381Y-106638095D01*
X147483333Y-106971429D01*
X147483333Y-106828571D01*
X147530952Y-106733333D01*
X147578571Y-106685714D01*
X147673810Y-106638095D01*
X147911905Y-106638095D01*
X148007143Y-106685714D01*
X148054762Y-106733333D01*
X148102381Y-106828571D01*
X148102381Y-107114286D01*
X148054762Y-107209524D01*
X148007143Y-107257143D01*
X178452381Y-102329524D02*
X179452381Y-101662857D01*
X178452381Y-101662857D02*
X179452381Y-102329524D01*
X179452381Y-101281905D02*
X178452381Y-101281905D01*
X178452381Y-100900952D01*
X178500000Y-100805714D01*
X178547619Y-100758095D01*
X178642857Y-100710476D01*
X178785714Y-100710476D01*
X178880952Y-100758095D01*
X178928571Y-100805714D01*
X178976190Y-100900952D01*
X178976190Y-101281905D01*
X179452381Y-99758095D02*
X179452381Y-100329524D01*
X179452381Y-100043810D02*
X178452381Y-100043810D01*
X178595238Y-100139048D01*
X178690476Y-100234286D01*
X178738095Y-100329524D01*
X153690476Y-115952381D02*
X154357143Y-116952381D01*
X154357143Y-115952381D02*
X153690476Y-116952381D01*
X154738095Y-116952381D02*
X154738095Y-115952381D01*
X155119048Y-115952381D01*
X155214286Y-116000000D01*
X155261905Y-116047619D01*
X155309524Y-116142857D01*
X155309524Y-116285714D01*
X155261905Y-116380952D01*
X155214286Y-116428571D01*
X155119048Y-116476190D01*
X154738095Y-116476190D01*
X155690476Y-116047619D02*
X155738095Y-116000000D01*
X155833333Y-115952381D01*
X156071429Y-115952381D01*
X156166667Y-116000000D01*
X156214286Y-116047619D01*
X156261905Y-116142857D01*
X156261905Y-116238095D01*
X156214286Y-116380952D01*
X155642857Y-116952381D01*
X156261905Y-116952381D01*
X109190476Y-87452381D02*
X109857143Y-88452381D01*
X109857143Y-87452381D02*
X109190476Y-88452381D01*
X110238095Y-88452381D02*
X110238095Y-87452381D01*
X110619048Y-87452381D01*
X110714286Y-87500000D01*
X110761905Y-87547619D01*
X110809524Y-87642857D01*
X110809524Y-87785714D01*
X110761905Y-87880952D01*
X110714286Y-87928571D01*
X110619048Y-87976190D01*
X110238095Y-87976190D01*
X111142857Y-87452381D02*
X111761905Y-87452381D01*
X111428571Y-87833333D01*
X111571429Y-87833333D01*
X111666667Y-87880952D01*
X111714286Y-87928571D01*
X111761905Y-88023810D01*
X111761905Y-88261905D01*
X111714286Y-88357143D01*
X111666667Y-88404762D01*
X111571429Y-88452381D01*
X111285714Y-88452381D01*
X111190476Y-88404762D01*
X111142857Y-88357143D01*
X112857143Y-120166666D02*
X112904762Y-120214285D01*
X112952381Y-120357142D01*
X112952381Y-120452380D01*
X112904762Y-120595238D01*
X112809524Y-120690476D01*
X112714286Y-120738095D01*
X112523810Y-120785714D01*
X112380952Y-120785714D01*
X112190476Y-120738095D01*
X112095238Y-120690476D01*
X112000000Y-120595238D01*
X111952381Y-120452380D01*
X111952381Y-120357142D01*
X112000000Y-120214285D01*
X112047619Y-120166666D01*
X112047619Y-119785714D02*
X112000000Y-119738095D01*
X111952381Y-119642857D01*
X111952381Y-119404761D01*
X112000000Y-119309523D01*
X112047619Y-119261904D01*
X112142857Y-119214285D01*
X112238095Y-119214285D01*
X112380952Y-119261904D01*
X112952381Y-119833333D01*
X112952381Y-119214285D01*
X150567143Y-119044857D02*
X150614762Y-119092476D01*
X150662381Y-119235333D01*
X150662381Y-119330571D01*
X150614762Y-119473429D01*
X150519524Y-119568667D01*
X150424286Y-119616286D01*
X150233810Y-119663905D01*
X150090952Y-119663905D01*
X149900476Y-119616286D01*
X149805238Y-119568667D01*
X149710000Y-119473429D01*
X149662381Y-119330571D01*
X149662381Y-119235333D01*
X149710000Y-119092476D01*
X149757619Y-119044857D01*
X150662381Y-118092476D02*
X150662381Y-118663905D01*
X150662381Y-118378191D02*
X149662381Y-118378191D01*
X149805238Y-118473429D01*
X149900476Y-118568667D01*
X149948095Y-118663905D01*
X149757619Y-117711524D02*
X149710000Y-117663905D01*
X149662381Y-117568667D01*
X149662381Y-117330571D01*
X149710000Y-117235333D01*
X149757619Y-117187714D01*
X149852857Y-117140095D01*
X149948095Y-117140095D01*
X150090952Y-117187714D01*
X150662381Y-117759143D01*
X150662381Y-117140095D01*
X157052381Y-89842857D02*
X156576190Y-90176191D01*
X157052381Y-90414286D02*
X156052381Y-90414286D01*
X156052381Y-90033333D01*
X156100000Y-89938095D01*
X156147619Y-89890476D01*
X156242857Y-89842857D01*
X156385714Y-89842857D01*
X156480952Y-89890476D01*
X156528571Y-89938095D01*
X156576190Y-90033333D01*
X156576190Y-90414286D01*
X156147619Y-89461905D02*
X156100000Y-89414286D01*
X156052381Y-89319048D01*
X156052381Y-89080952D01*
X156100000Y-88985714D01*
X156147619Y-88938095D01*
X156242857Y-88890476D01*
X156338095Y-88890476D01*
X156480952Y-88938095D01*
X157052381Y-89509524D01*
X157052381Y-88890476D01*
X156052381Y-88033333D02*
X156052381Y-88223810D01*
X156100000Y-88319048D01*
X156147619Y-88366667D01*
X156290476Y-88461905D01*
X156480952Y-88509524D01*
X156861905Y-88509524D01*
X156957143Y-88461905D01*
X157004762Y-88414286D01*
X157052381Y-88319048D01*
X157052381Y-88128571D01*
X157004762Y-88033333D01*
X156957143Y-87985714D01*
X156861905Y-87938095D01*
X156623810Y-87938095D01*
X156528571Y-87985714D01*
X156480952Y-88033333D01*
X156433333Y-88128571D01*
X156433333Y-88319048D01*
X156480952Y-88414286D01*
X156528571Y-88461905D01*
X156623810Y-88509524D01*
X160052381Y-90042857D02*
X159576190Y-90376191D01*
X160052381Y-90614286D02*
X159052381Y-90614286D01*
X159052381Y-90233333D01*
X159100000Y-90138095D01*
X159147619Y-90090476D01*
X159242857Y-90042857D01*
X159385714Y-90042857D01*
X159480952Y-90090476D01*
X159528571Y-90138095D01*
X159576190Y-90233333D01*
X159576190Y-90614286D01*
X159147619Y-89661905D02*
X159100000Y-89614286D01*
X159052381Y-89519048D01*
X159052381Y-89280952D01*
X159100000Y-89185714D01*
X159147619Y-89138095D01*
X159242857Y-89090476D01*
X159338095Y-89090476D01*
X159480952Y-89138095D01*
X160052381Y-89709524D01*
X160052381Y-89090476D01*
X159052381Y-88757143D02*
X159052381Y-88090476D01*
X160052381Y-88519048D01*
X121857143Y-100857143D02*
X121809524Y-100904762D01*
X121666667Y-100952381D01*
X121571429Y-100952381D01*
X121428571Y-100904762D01*
X121333333Y-100809524D01*
X121285714Y-100714286D01*
X121238095Y-100523810D01*
X121238095Y-100380952D01*
X121285714Y-100190476D01*
X121333333Y-100095238D01*
X121428571Y-100000000D01*
X121571429Y-99952381D01*
X121666667Y-99952381D01*
X121809524Y-100000000D01*
X121857143Y-100047619D01*
X122809524Y-100952381D02*
X122238095Y-100952381D01*
X122523809Y-100952381D02*
X122523809Y-99952381D01*
X122428571Y-100095238D01*
X122333333Y-100190476D01*
X122238095Y-100238095D01*
X123714286Y-99952381D02*
X123238095Y-99952381D01*
X123190476Y-100428571D01*
X123238095Y-100380952D01*
X123333333Y-100333333D01*
X123571429Y-100333333D01*
X123666667Y-100380952D01*
X123714286Y-100428571D01*
X123761905Y-100523810D01*
X123761905Y-100761905D01*
X123714286Y-100857143D01*
X123666667Y-100904762D01*
X123571429Y-100952381D01*
X123333333Y-100952381D01*
X123238095Y-100904762D01*
X123190476Y-100857143D01*
D14*
X126744381Y-114620524D02*
X126744381Y-115648619D01*
X126804857Y-115769571D01*
X126865333Y-115830048D01*
X126986286Y-115890524D01*
X127228190Y-115890524D01*
X127349143Y-115830048D01*
X127409619Y-115769571D01*
X127470095Y-115648619D01*
X127470095Y-114620524D01*
X128014381Y-114741476D02*
X128074857Y-114681000D01*
X128195809Y-114620524D01*
X128498190Y-114620524D01*
X128619143Y-114681000D01*
X128679619Y-114741476D01*
X128740095Y-114862429D01*
X128740095Y-114983381D01*
X128679619Y-115164810D01*
X127953905Y-115890524D01*
X128740095Y-115890524D01*
D15*
X117452381Y-96238095D02*
X116452381Y-96238095D01*
X116452381Y-96000000D01*
X116500000Y-95857142D01*
X116595238Y-95761904D01*
X116690476Y-95714285D01*
X116880952Y-95666666D01*
X117023810Y-95666666D01*
X117214286Y-95714285D01*
X117309524Y-95761904D01*
X117404762Y-95857142D01*
X117452381Y-96000000D01*
X117452381Y-96238095D01*
X116452381Y-95333333D02*
X116452381Y-94666666D01*
X117452381Y-95095238D01*
X114952381Y-109738095D02*
X113952381Y-109738095D01*
X113952381Y-109500000D01*
X114000000Y-109357142D01*
X114095238Y-109261904D01*
X114190476Y-109214285D01*
X114380952Y-109166666D01*
X114523810Y-109166666D01*
X114714286Y-109214285D01*
X114809524Y-109261904D01*
X114904762Y-109357142D01*
X114952381Y-109500000D01*
X114952381Y-109738095D01*
X114380952Y-108595238D02*
X114333333Y-108690476D01*
X114285714Y-108738095D01*
X114190476Y-108785714D01*
X114142857Y-108785714D01*
X114047619Y-108738095D01*
X114000000Y-108690476D01*
X113952381Y-108595238D01*
X113952381Y-108404761D01*
X114000000Y-108309523D01*
X114047619Y-108261904D01*
X114142857Y-108214285D01*
X114190476Y-108214285D01*
X114285714Y-108261904D01*
X114333333Y-108309523D01*
X114380952Y-108404761D01*
X114380952Y-108595238D01*
X114428571Y-108690476D01*
X114476190Y-108738095D01*
X114571429Y-108785714D01*
X114761905Y-108785714D01*
X114857143Y-108738095D01*
X114904762Y-108690476D01*
X114952381Y-108595238D01*
X114952381Y-108404761D01*
X114904762Y-108309523D01*
X114857143Y-108261904D01*
X114761905Y-108214285D01*
X114571429Y-108214285D01*
X114476190Y-108261904D01*
X114428571Y-108309523D01*
X114380952Y-108404761D01*
X138861905Y-106452381D02*
X138861905Y-105452381D01*
X139100000Y-105452381D01*
X139242858Y-105500000D01*
X139338096Y-105595238D01*
X139385715Y-105690476D01*
X139433334Y-105880952D01*
X139433334Y-106023810D01*
X139385715Y-106214286D01*
X139338096Y-106309524D01*
X139242858Y-106404762D01*
X139100000Y-106452381D01*
X138861905Y-106452381D01*
X139909524Y-106452381D02*
X140100000Y-106452381D01*
X140195239Y-106404762D01*
X140242858Y-106357143D01*
X140338096Y-106214286D01*
X140385715Y-106023810D01*
X140385715Y-105642857D01*
X140338096Y-105547619D01*
X140290477Y-105500000D01*
X140195239Y-105452381D01*
X140004762Y-105452381D01*
X139909524Y-105500000D01*
X139861905Y-105547619D01*
X139814286Y-105642857D01*
X139814286Y-105880952D01*
X139861905Y-105976190D01*
X139909524Y-106023810D01*
X140004762Y-106071429D01*
X140195239Y-106071429D01*
X140290477Y-106023810D01*
X140338096Y-105976190D01*
X140385715Y-105880952D01*
X150785714Y-91606381D02*
X150785714Y-90606381D01*
X151023809Y-90606381D01*
X151166667Y-90654000D01*
X151261905Y-90749238D01*
X151309524Y-90844476D01*
X151357143Y-91034952D01*
X151357143Y-91177810D01*
X151309524Y-91368286D01*
X151261905Y-91463524D01*
X151166667Y-91558762D01*
X151023809Y-91606381D01*
X150785714Y-91606381D01*
X152309524Y-91606381D02*
X151738095Y-91606381D01*
X152023809Y-91606381D02*
X152023809Y-90606381D01*
X151928571Y-90749238D01*
X151833333Y-90844476D01*
X151738095Y-90892095D01*
X152928571Y-90606381D02*
X153023810Y-90606381D01*
X153119048Y-90654000D01*
X153166667Y-90701619D01*
X153214286Y-90796857D01*
X153261905Y-90987333D01*
X153261905Y-91225429D01*
X153214286Y-91415905D01*
X153166667Y-91511143D01*
X153119048Y-91558762D01*
X153023810Y-91606381D01*
X152928571Y-91606381D01*
X152833333Y-91558762D01*
X152785714Y-91511143D01*
X152738095Y-91415905D01*
X152690476Y-91225429D01*
X152690476Y-90987333D01*
X152738095Y-90796857D01*
X152785714Y-90701619D01*
X152833333Y-90654000D01*
X152928571Y-90606381D01*
X162672381Y-97133333D02*
X163386667Y-97133333D01*
X163529524Y-97180953D01*
X163624762Y-97276191D01*
X163672381Y-97419048D01*
X163672381Y-97514286D01*
X163672381Y-96133333D02*
X163672381Y-96704762D01*
X163672381Y-96419048D02*
X162672381Y-96419048D01*
X162815238Y-96514286D01*
X162910476Y-96609524D01*
X162958095Y-96704762D01*
X160257143Y-95002381D02*
X159923809Y-94526190D01*
X159685714Y-95002381D02*
X159685714Y-94002381D01*
X160066667Y-94002381D01*
X160161905Y-94050000D01*
X160209524Y-94097619D01*
X160257143Y-94192857D01*
X160257143Y-94335714D01*
X160209524Y-94430952D01*
X160161905Y-94478571D01*
X160066667Y-94526190D01*
X159685714Y-94526190D01*
X160590476Y-94002381D02*
X161209524Y-94002381D01*
X160876190Y-94383333D01*
X161019048Y-94383333D01*
X161114286Y-94430952D01*
X161161905Y-94478571D01*
X161209524Y-94573810D01*
X161209524Y-94811905D01*
X161161905Y-94907143D01*
X161114286Y-94954762D01*
X161019048Y-95002381D01*
X160733333Y-95002381D01*
X160638095Y-94954762D01*
X160590476Y-94907143D01*
X161828571Y-94002381D02*
X161923810Y-94002381D01*
X162019048Y-94050000D01*
X162066667Y-94097619D01*
X162114286Y-94192857D01*
X162161905Y-94383333D01*
X162161905Y-94621429D01*
X162114286Y-94811905D01*
X162066667Y-94907143D01*
X162019048Y-94954762D01*
X161923810Y-95002381D01*
X161828571Y-95002381D01*
X161733333Y-94954762D01*
X161685714Y-94907143D01*
X161638095Y-94811905D01*
X161590476Y-94621429D01*
X161590476Y-94383333D01*
X161638095Y-94192857D01*
X161685714Y-94097619D01*
X161733333Y-94050000D01*
X161828571Y-94002381D01*
%LPC*%
D16*
X142220000Y-86868000D03*
D17*
X134620000Y-86868000D03*
D18*
X121000000Y-87450000D03*
X121000000Y-85550000D03*
D19*
X126116000Y-85344000D03*
X128016000Y-85344000D03*
D18*
X153000000Y-84100000D03*
X153000000Y-82200000D03*
X151400000Y-84100000D03*
X151400000Y-82200000D03*
X149800000Y-84100000D03*
X149800000Y-82200000D03*
X148200000Y-84100000D03*
X148200000Y-82200000D03*
X119000000Y-87450000D03*
X119000000Y-85550000D03*
D19*
X126116000Y-87376000D03*
X128016000Y-87376000D03*
D18*
X118550000Y-96500000D03*
X118550000Y-98400000D03*
D20*
X126556000Y-82804000D03*
X130556000Y-82804000D03*
D21*
X131064000Y-91980000D03*
X131064000Y-95980000D03*
D22*
X177000000Y-118540000D03*
D23*
X177000000Y-116000000D03*
X177000000Y-113460000D03*
D22*
X177000000Y-88540000D03*
D23*
X177000000Y-86000000D03*
X177000000Y-83460000D03*
D24*
X145600000Y-84500000D03*
X145600000Y-82300000D03*
X117500000Y-109100000D03*
X117500000Y-106900000D03*
X146200000Y-106800000D03*
X146200000Y-109000000D03*
D25*
X173000000Y-102290000D03*
X173000000Y-99750000D03*
X175000000Y-99750000D03*
X175000000Y-102290000D03*
D26*
X177700000Y-107020000D03*
X177700000Y-95020000D03*
D27*
X159004000Y-118872000D03*
D28*
X156464000Y-118872000D03*
X153924000Y-118872000D03*
X151384000Y-118872000D03*
D27*
X109500000Y-89600000D03*
D28*
X109500000Y-92140000D03*
X109500000Y-94680000D03*
X109500000Y-97220000D03*
X109500000Y-99760000D03*
X109500000Y-102300000D03*
X109500000Y-104840000D03*
X109500000Y-107380000D03*
X109500000Y-109920000D03*
X109500000Y-112460000D03*
D29*
X115648000Y-119652000D03*
D30*
X115648000Y-117152000D03*
D29*
X146400000Y-117152000D03*
D30*
X146400000Y-119652000D03*
D24*
X156464000Y-84668000D03*
X156464000Y-86868000D03*
X159512000Y-84752000D03*
X159512000Y-86952000D03*
D29*
X120864000Y-103124000D03*
D30*
X118364000Y-103124000D03*
D31*
X134112000Y-117856000D03*
X134112000Y-112776000D03*
D32*
X123612000Y-115316000D03*
D33*
X114500000Y-95000000D03*
X114500000Y-99000000D03*
X114500000Y-106500000D03*
X114500000Y-102500000D03*
D24*
X141250000Y-104000000D03*
X137950000Y-104000000D03*
X153650000Y-89154000D03*
X150350000Y-89154000D03*
D34*
X165000000Y-97440000D03*
X165000000Y-96160000D03*
D35*
X159800000Y-96000000D03*
X162000000Y-96000000D03*
M02*
