%TF.GenerationSoftware,KiCad,Pcbnew,4.0.7-e2-6376~58~ubuntu16.04.1*%
%TF.CreationDate,2017-12-07T11:47:19+02:00*%
%TF.ProjectId,Rover_Commander_v3.1a,526F7665725F436F6D6D616E6465725F,rev?*%
%TF.FileFunction,Other,Fab,Bot*%
%FSLAX46Y46*%
G04 Gerber Fmt 4.6, Leading zero omitted, Abs format (unit mm)*
G04 Created by KiCad (PCBNEW 4.0.7-e2-6376~58~ubuntu16.04.1) date Thu Dec  7 11:47:19 2017*
%MOMM*%
%LPD*%
G01*
G04 APERTURE LIST*
%ADD10C,0.100000*%
%ADD11C,0.150000*%
%ADD12C,0.120000*%
%ADD13C,0.075000*%
G04 APERTURE END LIST*
D10*
D11*
X160287961Y-100384893D02*
X153924000Y-94020932D01*
X153924000Y-94020932D02*
X146852932Y-101092000D01*
X146852932Y-101092000D02*
X153924000Y-108163068D01*
X153924000Y-108163068D02*
X160287961Y-101799107D01*
X160287961Y-101799107D02*
X160287961Y-100384893D01*
D10*
X136252000Y-119502000D02*
X137252000Y-120502000D01*
X136252000Y-119502000D02*
X136252000Y-113802000D01*
X137252000Y-120502000D02*
X139952000Y-120502000D01*
X136252000Y-113802000D02*
X139952000Y-113802000D01*
X139952000Y-120502000D02*
X139952000Y-113802000D01*
X120754000Y-81934000D02*
X120754000Y-81134000D01*
X119154000Y-81934000D02*
X120754000Y-81934000D01*
X119154000Y-81134000D02*
X119154000Y-81934000D01*
X120754000Y-81134000D02*
X119154000Y-81134000D01*
X118058000Y-118502000D02*
X118858000Y-118502000D01*
X118058000Y-116902000D02*
X118058000Y-118502000D01*
X118858000Y-116902000D02*
X118058000Y-116902000D01*
X118858000Y-118502000D02*
X118858000Y-116902000D01*
X113439000Y-81134000D02*
X113439000Y-81934000D01*
X115039000Y-81134000D02*
X113439000Y-81134000D01*
X115039000Y-81934000D02*
X115039000Y-81134000D01*
X113439000Y-81934000D02*
X115039000Y-81934000D01*
X130272000Y-112862000D02*
X129472000Y-112862000D01*
X130272000Y-114462000D02*
X130272000Y-112862000D01*
X129472000Y-114462000D02*
X130272000Y-114462000D01*
X129472000Y-112862000D02*
X129472000Y-114462000D01*
X131892000Y-117152000D02*
X131892000Y-116352000D01*
X130292000Y-117152000D02*
X131892000Y-117152000D01*
X130292000Y-116352000D02*
X130292000Y-117152000D01*
X131892000Y-116352000D02*
X130292000Y-116352000D01*
X131892000Y-119692000D02*
X131892000Y-118892000D01*
X130292000Y-119692000D02*
X131892000Y-119692000D01*
X130292000Y-118892000D02*
X130292000Y-119692000D01*
X131892000Y-118892000D02*
X130292000Y-118892000D01*
X146704000Y-118138000D02*
X145904000Y-118138000D01*
X146704000Y-119738000D02*
X146704000Y-118138000D01*
X145904000Y-119738000D02*
X146704000Y-119738000D01*
X145904000Y-118138000D02*
X145904000Y-119738000D01*
X148736000Y-118138000D02*
X147936000Y-118138000D01*
X148736000Y-119738000D02*
X148736000Y-118138000D01*
X147936000Y-119738000D02*
X148736000Y-119738000D01*
X147936000Y-118138000D02*
X147936000Y-119738000D01*
X146962000Y-115424000D02*
X146962000Y-116224000D01*
X148562000Y-115424000D02*
X146962000Y-115424000D01*
X148562000Y-116224000D02*
X148562000Y-115424000D01*
X146962000Y-116224000D02*
X148562000Y-116224000D01*
X169014000Y-106572000D02*
X169014000Y-105772000D01*
X167414000Y-106572000D02*
X169014000Y-106572000D01*
X167414000Y-105772000D02*
X167414000Y-106572000D01*
X169014000Y-105772000D02*
X167414000Y-105772000D01*
X163350000Y-105772000D02*
X163350000Y-106572000D01*
X164950000Y-105772000D02*
X163350000Y-105772000D01*
X164950000Y-106572000D02*
X164950000Y-105772000D01*
X163350000Y-106572000D02*
X164950000Y-106572000D01*
X112884000Y-117914000D02*
X113684000Y-117914000D01*
X112884000Y-116614000D02*
X112884000Y-117914000D01*
X113684000Y-116614000D02*
X112884000Y-116614000D01*
X113684000Y-117914000D02*
X113684000Y-116614000D01*
X113284000Y-117464000D02*
X113509000Y-117064000D01*
X113284000Y-117464000D02*
X113284000Y-117739000D01*
X113059000Y-117064000D02*
X113284000Y-117464000D01*
X113509000Y-117064000D02*
X113059000Y-117064000D01*
X113559000Y-117464000D02*
X113009000Y-117464000D01*
X113284000Y-117064000D02*
X113284000Y-116814000D01*
X131680000Y-114862000D02*
X132480000Y-114862000D01*
X131680000Y-113562000D02*
X131680000Y-114862000D01*
X132480000Y-113562000D02*
X131680000Y-113562000D01*
X132480000Y-114862000D02*
X132480000Y-113562000D01*
X132080000Y-114412000D02*
X132305000Y-114012000D01*
X132080000Y-114412000D02*
X132080000Y-114687000D01*
X131855000Y-114012000D02*
X132080000Y-114412000D01*
X132305000Y-114012000D02*
X131855000Y-114012000D01*
X132355000Y-114412000D02*
X131805000Y-114412000D01*
X132080000Y-114012000D02*
X132080000Y-113762000D01*
X138508000Y-98486000D02*
X138508000Y-96036000D01*
X139058000Y-99056000D02*
X139908000Y-99056000D01*
X138508000Y-98486000D02*
X139058000Y-99056000D01*
X139908000Y-99056000D02*
X139908000Y-96016000D01*
X138508000Y-96016000D02*
X139908000Y-96016000D01*
X148400000Y-112850000D02*
X147600000Y-112850000D01*
X148400000Y-114150000D02*
X148400000Y-112850000D01*
X147600000Y-114150000D02*
X148400000Y-114150000D01*
X147600000Y-112850000D02*
X147600000Y-114150000D01*
X148000000Y-113300000D02*
X147775000Y-113700000D01*
X148000000Y-113300000D02*
X148000000Y-113025000D01*
X148225000Y-113700000D02*
X148000000Y-113300000D01*
X147775000Y-113700000D02*
X148225000Y-113700000D01*
X147725000Y-113300000D02*
X148275000Y-113300000D01*
X148000000Y-113700000D02*
X148000000Y-113950000D01*
X157930000Y-115424000D02*
X157930000Y-116224000D01*
X159230000Y-115424000D02*
X157930000Y-115424000D01*
X159230000Y-116224000D02*
X159230000Y-115424000D01*
X157930000Y-116224000D02*
X159230000Y-116224000D01*
X158380000Y-115824000D02*
X158780000Y-116049000D01*
X158380000Y-115824000D02*
X158105000Y-115824000D01*
X158780000Y-115599000D02*
X158380000Y-115824000D01*
X158780000Y-116049000D02*
X158780000Y-115599000D01*
X158380000Y-116099000D02*
X158380000Y-115549000D01*
X158780000Y-115824000D02*
X159030000Y-115824000D01*
X138484000Y-83820000D02*
X138234000Y-83820000D01*
X138484000Y-84170000D02*
X138984000Y-83820000D01*
X138484000Y-83470000D02*
X138484000Y-84170000D01*
X138984000Y-83820000D02*
X138484000Y-83470000D01*
X138984000Y-83820000D02*
X139184000Y-83820000D01*
X138984000Y-83470000D02*
X138984000Y-84170000D01*
X139584000Y-84520000D02*
X139584000Y-83120000D01*
X137784000Y-84520000D02*
X139584000Y-84520000D01*
X137784000Y-83120000D02*
X137784000Y-84520000D01*
X139584000Y-83120000D02*
X137784000Y-83120000D01*
X118980000Y-85212000D02*
X119780000Y-85212000D01*
X118980000Y-83612000D02*
X118980000Y-85212000D01*
X119780000Y-83612000D02*
X118980000Y-83612000D01*
X119780000Y-85212000D02*
X119780000Y-83612000D01*
X116948000Y-85212000D02*
X117748000Y-85212000D01*
X116948000Y-83612000D02*
X116948000Y-85212000D01*
X117748000Y-83612000D02*
X116948000Y-83612000D01*
X117748000Y-85212000D02*
X117748000Y-83612000D01*
X114916000Y-85212000D02*
X115716000Y-85212000D01*
X114916000Y-83612000D02*
X114916000Y-85212000D01*
X115716000Y-83612000D02*
X114916000Y-83612000D01*
X115716000Y-85212000D02*
X115716000Y-83612000D01*
X112884000Y-85212000D02*
X113684000Y-85212000D01*
X112884000Y-83612000D02*
X112884000Y-85212000D01*
X113684000Y-83612000D02*
X112884000Y-83612000D01*
X113684000Y-85212000D02*
X113684000Y-83612000D01*
X123044000Y-104008000D02*
X123844000Y-104008000D01*
X123044000Y-102408000D02*
X123044000Y-104008000D01*
X123844000Y-102408000D02*
X123044000Y-102408000D01*
X123844000Y-104008000D02*
X123844000Y-102408000D01*
X174136000Y-110368000D02*
X173336000Y-110368000D01*
X174136000Y-111968000D02*
X174136000Y-110368000D01*
X173336000Y-111968000D02*
X174136000Y-111968000D01*
X173336000Y-110368000D02*
X173336000Y-111968000D01*
X116900000Y-102200000D02*
X116100000Y-102200000D01*
X116900000Y-103800000D02*
X116900000Y-102200000D01*
X116100000Y-103800000D02*
X116900000Y-103800000D01*
X116100000Y-102200000D02*
X116100000Y-103800000D01*
X114100000Y-103800000D02*
X114900000Y-103800000D01*
X114100000Y-102200000D02*
X114100000Y-103800000D01*
X114900000Y-102200000D02*
X114100000Y-102200000D01*
X114900000Y-103800000D02*
X114900000Y-102200000D01*
X140824000Y-102484000D02*
X141624000Y-102484000D01*
X140824000Y-100884000D02*
X140824000Y-102484000D01*
X141624000Y-100884000D02*
X140824000Y-100884000D01*
X141624000Y-102484000D02*
X141624000Y-100884000D01*
X136252000Y-102484000D02*
X137052000Y-102484000D01*
X136252000Y-100884000D02*
X136252000Y-102484000D01*
X137052000Y-100884000D02*
X136252000Y-100884000D01*
X137052000Y-102484000D02*
X137052000Y-100884000D01*
X139300000Y-102484000D02*
X140100000Y-102484000D01*
X139300000Y-100884000D02*
X139300000Y-102484000D01*
X140100000Y-100884000D02*
X139300000Y-100884000D01*
X140100000Y-102484000D02*
X140100000Y-100884000D01*
X137776000Y-102484000D02*
X138576000Y-102484000D01*
X137776000Y-100884000D02*
X137776000Y-102484000D01*
X138576000Y-100884000D02*
X137776000Y-100884000D01*
X138576000Y-102484000D02*
X138576000Y-100884000D01*
X134728000Y-102484000D02*
X135528000Y-102484000D01*
X134728000Y-100884000D02*
X134728000Y-102484000D01*
X135528000Y-100884000D02*
X134728000Y-100884000D01*
X135528000Y-102484000D02*
X135528000Y-100884000D01*
X179432000Y-114676000D02*
X180232000Y-114676000D01*
X179432000Y-113076000D02*
X179432000Y-114676000D01*
X180232000Y-113076000D02*
X179432000Y-113076000D01*
X180232000Y-114676000D02*
X180232000Y-113076000D01*
X168800000Y-100400000D02*
X168800000Y-99600000D01*
X167200000Y-100400000D02*
X168800000Y-100400000D01*
X167200000Y-99600000D02*
X167200000Y-100400000D01*
X168800000Y-99600000D02*
X167200000Y-99600000D01*
X173336000Y-84536000D02*
X174136000Y-84536000D01*
X173336000Y-82936000D02*
X173336000Y-84536000D01*
X174136000Y-82936000D02*
X173336000Y-82936000D01*
X174136000Y-84536000D02*
X174136000Y-82936000D01*
X173336000Y-90800000D02*
X174136000Y-90800000D01*
X173336000Y-89200000D02*
X173336000Y-90800000D01*
X174136000Y-89200000D02*
X173336000Y-89200000D01*
X174136000Y-90800000D02*
X174136000Y-89200000D01*
X168300000Y-102400000D02*
X168300000Y-101600000D01*
X166700000Y-102400000D02*
X168300000Y-102400000D01*
X166700000Y-101600000D02*
X166700000Y-102400000D01*
X168300000Y-101600000D02*
X166700000Y-101600000D01*
X117216000Y-113684000D02*
X117216000Y-112884000D01*
X115616000Y-113684000D02*
X117216000Y-113684000D01*
X115616000Y-112884000D02*
X115616000Y-113684000D01*
X117216000Y-112884000D02*
X115616000Y-112884000D01*
X127376000Y-107588000D02*
X127376000Y-106788000D01*
X125776000Y-107588000D02*
X127376000Y-107588000D01*
X125776000Y-106788000D02*
X125776000Y-107588000D01*
X127376000Y-106788000D02*
X125776000Y-106788000D01*
X112376000Y-106200000D02*
X113176000Y-106200000D01*
X112376000Y-104600000D02*
X112376000Y-106200000D01*
X113176000Y-104600000D02*
X112376000Y-104600000D01*
X113176000Y-106200000D02*
X113176000Y-104600000D01*
X113176000Y-109300000D02*
X112376000Y-109300000D01*
X113176000Y-110900000D02*
X113176000Y-109300000D01*
X112376000Y-110900000D02*
X113176000Y-110900000D01*
X112376000Y-109300000D02*
X112376000Y-110900000D01*
D11*
X120684000Y-87199000D02*
X114184000Y-87199000D01*
X114184000Y-87199000D02*
X114184000Y-99999000D01*
X114184000Y-99999000D02*
X121684000Y-99999000D01*
X121684000Y-99999000D02*
X121684000Y-88199000D01*
X121684000Y-88199000D02*
X120684000Y-87199000D01*
D10*
X118966000Y-105373000D02*
X116066000Y-105373000D01*
X116066000Y-105373000D02*
X116066000Y-110273000D01*
X116066000Y-110273000D02*
X119966000Y-110273000D01*
X119966000Y-110273000D02*
X119966000Y-106373000D01*
X119966000Y-106373000D02*
X118966000Y-105373000D01*
X148270000Y-88568000D02*
X145820000Y-88568000D01*
X148840000Y-88018000D02*
X148840000Y-87168000D01*
X148270000Y-88568000D02*
X148840000Y-88018000D01*
X148840000Y-87168000D02*
X145800000Y-87168000D01*
X145800000Y-88568000D02*
X145800000Y-87168000D01*
X121012000Y-85570000D02*
X121812000Y-85570000D01*
X121012000Y-83970000D02*
X121012000Y-85570000D01*
X121812000Y-83970000D02*
X121012000Y-83970000D01*
X121812000Y-85570000D02*
X121812000Y-83970000D01*
X131680000Y-83670000D02*
X132480000Y-83670000D01*
X131680000Y-82070000D02*
X131680000Y-83670000D01*
X132480000Y-82070000D02*
X131680000Y-82070000D01*
X132480000Y-83670000D02*
X132480000Y-82070000D01*
X123602000Y-86146000D02*
X130202000Y-86146000D01*
X130202000Y-86146000D02*
X130402000Y-85946000D01*
X130402000Y-85946000D02*
X130402000Y-81346000D01*
X130402000Y-81346000D02*
X130202000Y-81146000D01*
X130202000Y-81146000D02*
X123602000Y-81146000D01*
X123602000Y-81146000D02*
X123402000Y-81346000D01*
X123402000Y-81346000D02*
X123402000Y-85946000D01*
X123402000Y-85946000D02*
X123602000Y-86146000D01*
X123402000Y-82146000D02*
X124402000Y-81146000D01*
X169924000Y-107228000D02*
X163324000Y-107228000D01*
X163324000Y-107228000D02*
X163124000Y-107428000D01*
X163124000Y-107428000D02*
X163124000Y-112028000D01*
X163124000Y-112028000D02*
X163324000Y-112228000D01*
X163324000Y-112228000D02*
X169924000Y-112228000D01*
X169924000Y-112228000D02*
X170124000Y-112028000D01*
X170124000Y-112028000D02*
X170124000Y-107428000D01*
X170124000Y-107428000D02*
X169924000Y-107228000D01*
X170124000Y-111228000D02*
X169124000Y-112228000D01*
D11*
X154380000Y-84202000D02*
X154380000Y-88502000D01*
X154380000Y-88502000D02*
X160580000Y-88502000D01*
X160580000Y-88502000D02*
X160580000Y-83202000D01*
X160580000Y-83202000D02*
X155380000Y-83202000D01*
X155380000Y-83202000D02*
X154380000Y-84202000D01*
X133564000Y-90480000D02*
X127564000Y-90480000D01*
X127564000Y-90480000D02*
X127564000Y-97480000D01*
X127564000Y-97480000D02*
X134564000Y-97480000D01*
X134564000Y-97480000D02*
X134564000Y-91480000D01*
X134564000Y-91480000D02*
X133564000Y-90480000D01*
X152671411Y-110594169D02*
X152536724Y-110526826D01*
X152368365Y-110358466D01*
X152334693Y-110257451D01*
X152334693Y-110190108D01*
X152368365Y-110089093D01*
X152435708Y-110021749D01*
X152536723Y-109988077D01*
X152604067Y-109988077D01*
X152705083Y-110021748D01*
X152873442Y-110122764D01*
X152974457Y-110156436D01*
X153041801Y-110156436D01*
X153142816Y-110122764D01*
X153210159Y-110055421D01*
X153243831Y-109954406D01*
X153243831Y-109887062D01*
X153210159Y-109786047D01*
X153041800Y-109617688D01*
X152907113Y-109550344D01*
X152738755Y-109314642D02*
X152334693Y-108910581D01*
X151829617Y-109819719D02*
X152536724Y-109112612D01*
X151391884Y-109381986D02*
X152098991Y-108674879D01*
X151358212Y-108944253D01*
X151627586Y-108203474D01*
X150920480Y-108910581D01*
X151358213Y-107934100D02*
X150920480Y-107496367D01*
X150886809Y-108001444D01*
X150785793Y-107900428D01*
X150684778Y-107866756D01*
X150617434Y-107866756D01*
X150516418Y-107900429D01*
X150348060Y-108068787D01*
X150314388Y-108169802D01*
X150314388Y-108237146D01*
X150348060Y-108338161D01*
X150550091Y-108540192D01*
X150651106Y-108573864D01*
X150718449Y-108573864D01*
X150583762Y-107294337D02*
X150583762Y-107226994D01*
X150550091Y-107125979D01*
X150381731Y-106957619D01*
X150280716Y-106923947D01*
X150213373Y-106923947D01*
X150112358Y-106957619D01*
X150045014Y-107024963D01*
X149977671Y-107159650D01*
X149977671Y-107967772D01*
X149539938Y-107530039D01*
X149371579Y-106620901D02*
X149607282Y-106856604D01*
X149236892Y-107226994D02*
X149943999Y-106519887D01*
X149607281Y-106183169D01*
X148260411Y-106250512D02*
X148664472Y-106654574D01*
X148462442Y-106452543D02*
X149169549Y-105745437D01*
X149135877Y-105913795D01*
X149135877Y-106048482D01*
X149169549Y-106149497D01*
X148529786Y-105105673D02*
X148462441Y-105038329D01*
X148361426Y-105004657D01*
X148294083Y-105004657D01*
X148193068Y-105038329D01*
X148024709Y-105139344D01*
X147856350Y-105307704D01*
X147755335Y-105476062D01*
X147721663Y-105577077D01*
X147721663Y-105644421D01*
X147755335Y-105745436D01*
X147822679Y-105812780D01*
X147923694Y-105846452D01*
X147991037Y-105846452D01*
X148092053Y-105812780D01*
X148260411Y-105711765D01*
X148428770Y-105543406D01*
X148529786Y-105375047D01*
X148563457Y-105274032D01*
X148563457Y-105206688D01*
X148529786Y-105105673D01*
X148058381Y-104634269D02*
X147586976Y-104162864D01*
X147182915Y-105173017D01*
X146206434Y-104196536D02*
X146778855Y-104095520D01*
X146610496Y-104600597D02*
X147317602Y-103893490D01*
X147048228Y-103624116D01*
X146947213Y-103590444D01*
X146879869Y-103590444D01*
X146778854Y-103624116D01*
X146677839Y-103725131D01*
X146644167Y-103826146D01*
X146644167Y-103893489D01*
X146677839Y-103994505D01*
X146947213Y-104263879D01*
X145566671Y-103422085D02*
X145566671Y-103489429D01*
X145634014Y-103624116D01*
X145701358Y-103691459D01*
X145836045Y-103758803D01*
X145970732Y-103758803D01*
X146071747Y-103725131D01*
X146240106Y-103624116D01*
X146341122Y-103523100D01*
X146442137Y-103354742D01*
X146475809Y-103253727D01*
X146475809Y-103119040D01*
X146408464Y-102984352D01*
X146341121Y-102917009D01*
X146206434Y-102849665D01*
X146139091Y-102849665D01*
X146004404Y-102580292D02*
X145600343Y-102176230D01*
X145095267Y-103085368D02*
X145802374Y-102378261D01*
X144724877Y-102714979D02*
X144825892Y-101873184D01*
X145196282Y-102243574D02*
X144354488Y-102344589D01*
X153934102Y-100024606D02*
X154506522Y-100597026D01*
X154540194Y-100698041D01*
X154540194Y-100765384D01*
X154506522Y-100866399D01*
X154371834Y-101001087D01*
X154270819Y-101034759D01*
X154203476Y-101034759D01*
X154102461Y-101001087D01*
X153530041Y-100428667D01*
X152856606Y-101102102D02*
X153193324Y-100765384D01*
X153563712Y-101068430D01*
X153496369Y-101068430D01*
X153395354Y-101102101D01*
X153226995Y-101270461D01*
X153193323Y-101371476D01*
X153193323Y-101438819D01*
X153226995Y-101539835D01*
X153395354Y-101708194D01*
X153496369Y-101741865D01*
X153563712Y-101741865D01*
X153664728Y-101708194D01*
X153833087Y-101539834D01*
X153866759Y-101438819D01*
X153866759Y-101371476D01*
X145697238Y-113104381D02*
X146173429Y-113104381D01*
X146173429Y-112104381D01*
X145363905Y-113104381D02*
X145363905Y-112104381D01*
X145125810Y-112104381D01*
X144982952Y-112152000D01*
X144887714Y-112247238D01*
X144840095Y-112342476D01*
X144792476Y-112532952D01*
X144792476Y-112675810D01*
X144840095Y-112866286D01*
X144887714Y-112961524D01*
X144982952Y-113056762D01*
X145125810Y-113104381D01*
X145363905Y-113104381D01*
X143840095Y-113104381D02*
X144411524Y-113104381D01*
X144125810Y-113104381D02*
X144125810Y-112104381D01*
X144221048Y-112247238D01*
X144316286Y-112342476D01*
X144411524Y-112390095D01*
X142887714Y-113104381D02*
X143459143Y-113104381D01*
X143173429Y-113104381D02*
X143173429Y-112104381D01*
X143268667Y-112247238D01*
X143363905Y-112342476D01*
X143459143Y-112390095D01*
X141935333Y-113104381D02*
X142506762Y-113104381D01*
X142221048Y-113104381D02*
X142221048Y-112104381D01*
X142316286Y-112247238D01*
X142411524Y-112342476D01*
X142506762Y-112390095D01*
X141602000Y-112104381D02*
X140935333Y-112104381D01*
X141363905Y-113104381D01*
X140602000Y-113056762D02*
X140459143Y-113104381D01*
X140221047Y-113104381D01*
X140125809Y-113056762D01*
X140078190Y-113009143D01*
X140030571Y-112913905D01*
X140030571Y-112818667D01*
X140078190Y-112723429D01*
X140125809Y-112675810D01*
X140221047Y-112628190D01*
X140411524Y-112580571D01*
X140506762Y-112532952D01*
X140554381Y-112485333D01*
X140602000Y-112390095D01*
X140602000Y-112294857D01*
X140554381Y-112199619D01*
X140506762Y-112152000D01*
X140411524Y-112104381D01*
X140173428Y-112104381D01*
X140030571Y-112152000D01*
X139697238Y-112104381D02*
X139078190Y-112104381D01*
X139411524Y-112485333D01*
X139268666Y-112485333D01*
X139173428Y-112532952D01*
X139125809Y-112580571D01*
X139078190Y-112675810D01*
X139078190Y-112913905D01*
X139125809Y-113009143D01*
X139173428Y-113056762D01*
X139268666Y-113104381D01*
X139554381Y-113104381D01*
X139649619Y-113056762D01*
X139697238Y-113009143D01*
X138744857Y-112104381D02*
X138125809Y-112104381D01*
X138459143Y-112485333D01*
X138316285Y-112485333D01*
X138221047Y-112532952D01*
X138173428Y-112580571D01*
X138125809Y-112675810D01*
X138125809Y-112913905D01*
X138173428Y-113009143D01*
X138221047Y-113056762D01*
X138316285Y-113104381D01*
X138602000Y-113104381D01*
X138697238Y-113056762D01*
X138744857Y-113009143D01*
X137840095Y-112104381D02*
X137268666Y-112104381D01*
X137554381Y-113104381D02*
X137554381Y-112104381D01*
X136363904Y-113104381D02*
X136697238Y-112628190D01*
X136935333Y-113104381D02*
X136935333Y-112104381D01*
X136554380Y-112104381D01*
X136459142Y-112152000D01*
X136411523Y-112199619D01*
X136363904Y-112294857D01*
X136363904Y-112437714D01*
X136411523Y-112532952D01*
X136459142Y-112580571D01*
X136554380Y-112628190D01*
X136935333Y-112628190D01*
X136173428Y-113199619D02*
X135411523Y-113199619D01*
X135221047Y-113056762D02*
X135078190Y-113104381D01*
X134840094Y-113104381D01*
X134744856Y-113056762D01*
X134697237Y-113009143D01*
X134649618Y-112913905D01*
X134649618Y-112818667D01*
X134697237Y-112723429D01*
X134744856Y-112675810D01*
X134840094Y-112628190D01*
X135030571Y-112580571D01*
X135125809Y-112532952D01*
X135173428Y-112485333D01*
X135221047Y-112390095D01*
X135221047Y-112294857D01*
X135173428Y-112199619D01*
X135125809Y-112152000D01*
X135030571Y-112104381D01*
X134792475Y-112104381D01*
X134649618Y-112152000D01*
X134030571Y-112104381D02*
X133840094Y-112104381D01*
X133744856Y-112152000D01*
X133649618Y-112247238D01*
X133601999Y-112437714D01*
X133601999Y-112771048D01*
X133649618Y-112961524D01*
X133744856Y-113056762D01*
X133840094Y-113104381D01*
X134030571Y-113104381D01*
X134125809Y-113056762D01*
X134221047Y-112961524D01*
X134268666Y-112771048D01*
X134268666Y-112437714D01*
X134221047Y-112247238D01*
X134125809Y-112152000D01*
X134030571Y-112104381D01*
X133316285Y-112104381D02*
X132744856Y-112104381D01*
X133030571Y-113104381D02*
X133030571Y-112104381D01*
X132459142Y-112199619D02*
X132411523Y-112152000D01*
X132316285Y-112104381D01*
X132078189Y-112104381D01*
X131982951Y-112152000D01*
X131935332Y-112199619D01*
X131887713Y-112294857D01*
X131887713Y-112390095D01*
X131935332Y-112532952D01*
X132506761Y-113104381D01*
X131887713Y-113104381D01*
X131506761Y-112199619D02*
X131459142Y-112152000D01*
X131363904Y-112104381D01*
X131125808Y-112104381D01*
X131030570Y-112152000D01*
X130982951Y-112199619D01*
X130935332Y-112294857D01*
X130935332Y-112390095D01*
X130982951Y-112532952D01*
X131554380Y-113104381D01*
X130935332Y-113104381D01*
X130601999Y-112104381D02*
X129982951Y-112104381D01*
X130316285Y-112485333D01*
X130173427Y-112485333D01*
X130078189Y-112532952D01*
X130030570Y-112580571D01*
X129982951Y-112675810D01*
X129982951Y-112913905D01*
X130030570Y-113009143D01*
X130078189Y-113056762D01*
X130173427Y-113104381D01*
X130459142Y-113104381D01*
X130554380Y-113056762D01*
X130601999Y-113009143D01*
D12*
X137663905Y-116542476D02*
X138311524Y-116542476D01*
X138387714Y-116580571D01*
X138425810Y-116618667D01*
X138463905Y-116694857D01*
X138463905Y-116847238D01*
X138425810Y-116923429D01*
X138387714Y-116961524D01*
X138311524Y-116999619D01*
X137663905Y-116999619D01*
X137930571Y-117723428D02*
X138463905Y-117723428D01*
X137625810Y-117532952D02*
X138197238Y-117342476D01*
X138197238Y-117837714D01*
D11*
X121358762Y-83486381D02*
X121930191Y-83486381D01*
X121644477Y-83486381D02*
X121644477Y-82486381D01*
X121739715Y-82629238D01*
X121834953Y-82724476D01*
X121930191Y-82772095D01*
X120739715Y-82486381D02*
X120644476Y-82486381D01*
X120549238Y-82534000D01*
X120501619Y-82581619D01*
X120454000Y-82676857D01*
X120406381Y-82867333D01*
X120406381Y-83105429D01*
X120454000Y-83295905D01*
X120501619Y-83391143D01*
X120549238Y-83438762D01*
X120644476Y-83486381D01*
X120739715Y-83486381D01*
X120834953Y-83438762D01*
X120882572Y-83391143D01*
X120930191Y-83295905D01*
X120977810Y-83105429D01*
X120977810Y-82867333D01*
X120930191Y-82676857D01*
X120882572Y-82581619D01*
X120834953Y-82534000D01*
X120739715Y-82486381D01*
X119787334Y-82486381D02*
X119692095Y-82486381D01*
X119596857Y-82534000D01*
X119549238Y-82581619D01*
X119501619Y-82676857D01*
X119454000Y-82867333D01*
X119454000Y-83105429D01*
X119501619Y-83295905D01*
X119549238Y-83391143D01*
X119596857Y-83438762D01*
X119692095Y-83486381D01*
X119787334Y-83486381D01*
X119882572Y-83438762D01*
X119930191Y-83391143D01*
X119977810Y-83295905D01*
X120025429Y-83105429D01*
X120025429Y-82867333D01*
X119977810Y-82676857D01*
X119930191Y-82581619D01*
X119882572Y-82534000D01*
X119787334Y-82486381D01*
X119025429Y-82819714D02*
X119025429Y-83486381D01*
X119025429Y-82914952D02*
X118977810Y-82867333D01*
X118882572Y-82819714D01*
X118739714Y-82819714D01*
X118644476Y-82867333D01*
X118596857Y-82962571D01*
X118596857Y-83486381D01*
X118263524Y-82819714D02*
X117882572Y-82819714D01*
X118120667Y-83486381D02*
X118120667Y-82629238D01*
X118073048Y-82534000D01*
X117977810Y-82486381D01*
X117882572Y-82486381D01*
X120120666Y-80641143D02*
X120168285Y-80688762D01*
X120311142Y-80736381D01*
X120406380Y-80736381D01*
X120549238Y-80688762D01*
X120644476Y-80593524D01*
X120692095Y-80498286D01*
X120739714Y-80307810D01*
X120739714Y-80164952D01*
X120692095Y-79974476D01*
X120644476Y-79879238D01*
X120549238Y-79784000D01*
X120406380Y-79736381D01*
X120311142Y-79736381D01*
X120168285Y-79784000D01*
X120120666Y-79831619D01*
X119787333Y-79736381D02*
X119168285Y-79736381D01*
X119501619Y-80117333D01*
X119358761Y-80117333D01*
X119263523Y-80164952D01*
X119215904Y-80212571D01*
X119168285Y-80307810D01*
X119168285Y-80545905D01*
X119215904Y-80641143D01*
X119263523Y-80688762D01*
X119358761Y-80736381D01*
X119644476Y-80736381D01*
X119739714Y-80688762D01*
X119787333Y-80641143D01*
X116410381Y-115582952D02*
X116410381Y-115678191D01*
X116458000Y-115773429D01*
X116505619Y-115821048D01*
X116600857Y-115868667D01*
X116791333Y-115916286D01*
X117029429Y-115916286D01*
X117219905Y-115868667D01*
X117315143Y-115821048D01*
X117362762Y-115773429D01*
X117410381Y-115678191D01*
X117410381Y-115582952D01*
X117362762Y-115487714D01*
X117315143Y-115440095D01*
X117219905Y-115392476D01*
X117029429Y-115344857D01*
X116791333Y-115344857D01*
X116600857Y-115392476D01*
X116505619Y-115440095D01*
X116458000Y-115487714D01*
X116410381Y-115582952D01*
X117315143Y-116344857D02*
X117362762Y-116392476D01*
X117410381Y-116344857D01*
X117362762Y-116297238D01*
X117315143Y-116344857D01*
X117410381Y-116344857D01*
X116410381Y-116725809D02*
X116410381Y-117344857D01*
X116791333Y-117011523D01*
X116791333Y-117154381D01*
X116838952Y-117249619D01*
X116886571Y-117297238D01*
X116981810Y-117344857D01*
X117219905Y-117344857D01*
X117315143Y-117297238D01*
X117362762Y-117249619D01*
X117410381Y-117154381D01*
X117410381Y-116868666D01*
X117362762Y-116773428D01*
X117315143Y-116725809D01*
X116410381Y-117678190D02*
X116410381Y-118297238D01*
X116791333Y-117963904D01*
X116791333Y-118106762D01*
X116838952Y-118202000D01*
X116886571Y-118249619D01*
X116981810Y-118297238D01*
X117219905Y-118297238D01*
X117315143Y-118249619D01*
X117362762Y-118202000D01*
X117410381Y-118106762D01*
X117410381Y-117821047D01*
X117362762Y-117725809D01*
X117315143Y-117678190D01*
X116743714Y-119154381D02*
X117410381Y-119154381D01*
X116743714Y-118725809D02*
X117267524Y-118725809D01*
X117362762Y-118773428D01*
X117410381Y-118868666D01*
X117410381Y-119011524D01*
X117362762Y-119106762D01*
X117315143Y-119154381D01*
X116886571Y-119963905D02*
X116886571Y-119630571D01*
X117410381Y-119630571D02*
X116410381Y-119630571D01*
X116410381Y-120106762D01*
X120065143Y-117535334D02*
X120112762Y-117487715D01*
X120160381Y-117344858D01*
X120160381Y-117249620D01*
X120112762Y-117106762D01*
X120017524Y-117011524D01*
X119922286Y-116963905D01*
X119731810Y-116916286D01*
X119588952Y-116916286D01*
X119398476Y-116963905D01*
X119303238Y-117011524D01*
X119208000Y-117106762D01*
X119160381Y-117249620D01*
X119160381Y-117344858D01*
X119208000Y-117487715D01*
X119255619Y-117535334D01*
X119493714Y-118392477D02*
X120160381Y-118392477D01*
X119112762Y-118154381D02*
X119827048Y-117916286D01*
X119827048Y-118535334D01*
X115643762Y-80486381D02*
X116215191Y-80486381D01*
X115929477Y-80486381D02*
X115929477Y-79486381D01*
X116024715Y-79629238D01*
X116119953Y-79724476D01*
X116215191Y-79772095D01*
X115024715Y-79486381D02*
X114929476Y-79486381D01*
X114834238Y-79534000D01*
X114786619Y-79581619D01*
X114739000Y-79676857D01*
X114691381Y-79867333D01*
X114691381Y-80105429D01*
X114739000Y-80295905D01*
X114786619Y-80391143D01*
X114834238Y-80438762D01*
X114929476Y-80486381D01*
X115024715Y-80486381D01*
X115119953Y-80438762D01*
X115167572Y-80391143D01*
X115215191Y-80295905D01*
X115262810Y-80105429D01*
X115262810Y-79867333D01*
X115215191Y-79676857D01*
X115167572Y-79581619D01*
X115119953Y-79534000D01*
X115024715Y-79486381D01*
X114072334Y-79486381D02*
X113977095Y-79486381D01*
X113881857Y-79534000D01*
X113834238Y-79581619D01*
X113786619Y-79676857D01*
X113739000Y-79867333D01*
X113739000Y-80105429D01*
X113786619Y-80295905D01*
X113834238Y-80391143D01*
X113881857Y-80438762D01*
X113977095Y-80486381D01*
X114072334Y-80486381D01*
X114167572Y-80438762D01*
X114215191Y-80391143D01*
X114262810Y-80295905D01*
X114310429Y-80105429D01*
X114310429Y-79867333D01*
X114262810Y-79676857D01*
X114215191Y-79581619D01*
X114167572Y-79534000D01*
X114072334Y-79486381D01*
X113310429Y-79819714D02*
X113310429Y-80486381D01*
X113310429Y-79914952D02*
X113262810Y-79867333D01*
X113167572Y-79819714D01*
X113024714Y-79819714D01*
X112929476Y-79867333D01*
X112881857Y-79962571D01*
X112881857Y-80486381D01*
X112548524Y-79819714D02*
X112167572Y-79819714D01*
X112405667Y-80486381D02*
X112405667Y-79629238D01*
X112358048Y-79534000D01*
X112262810Y-79486381D01*
X112167572Y-79486381D01*
X114405666Y-83141143D02*
X114453285Y-83188762D01*
X114596142Y-83236381D01*
X114691380Y-83236381D01*
X114834238Y-83188762D01*
X114929476Y-83093524D01*
X114977095Y-82998286D01*
X115024714Y-82807810D01*
X115024714Y-82664952D01*
X114977095Y-82474476D01*
X114929476Y-82379238D01*
X114834238Y-82284000D01*
X114691380Y-82236381D01*
X114596142Y-82236381D01*
X114453285Y-82284000D01*
X114405666Y-82331619D01*
X113500904Y-82236381D02*
X113977095Y-82236381D01*
X114024714Y-82712571D01*
X113977095Y-82664952D01*
X113881857Y-82617333D01*
X113643761Y-82617333D01*
X113548523Y-82664952D01*
X113500904Y-82712571D01*
X113453285Y-82807810D01*
X113453285Y-83045905D01*
X113500904Y-83141143D01*
X113548523Y-83188762D01*
X113643761Y-83236381D01*
X113881857Y-83236381D01*
X113977095Y-83188762D01*
X114024714Y-83141143D01*
X130824381Y-112019143D02*
X130824381Y-112114382D01*
X130872000Y-112209620D01*
X130919619Y-112257239D01*
X131014857Y-112304858D01*
X131205333Y-112352477D01*
X131443429Y-112352477D01*
X131633905Y-112304858D01*
X131729143Y-112257239D01*
X131776762Y-112209620D01*
X131824381Y-112114382D01*
X131824381Y-112019143D01*
X131776762Y-111923905D01*
X131729143Y-111876286D01*
X131633905Y-111828667D01*
X131443429Y-111781048D01*
X131205333Y-111781048D01*
X131014857Y-111828667D01*
X130919619Y-111876286D01*
X130872000Y-111923905D01*
X130824381Y-112019143D01*
X131729143Y-112781048D02*
X131776762Y-112828667D01*
X131824381Y-112781048D01*
X131776762Y-112733429D01*
X131729143Y-112781048D01*
X131824381Y-112781048D01*
X131824381Y-113781048D02*
X131824381Y-113209619D01*
X131824381Y-113495333D02*
X130824381Y-113495333D01*
X130967238Y-113400095D01*
X131062476Y-113304857D01*
X131110095Y-113209619D01*
X131157714Y-114638191D02*
X131824381Y-114638191D01*
X131157714Y-114209619D02*
X131681524Y-114209619D01*
X131776762Y-114257238D01*
X131824381Y-114352476D01*
X131824381Y-114495334D01*
X131776762Y-114590572D01*
X131729143Y-114638191D01*
X131300571Y-115447715D02*
X131300571Y-115114381D01*
X131824381Y-115114381D02*
X130824381Y-115114381D01*
X130824381Y-115590572D01*
X128979143Y-113495334D02*
X129026762Y-113447715D01*
X129074381Y-113304858D01*
X129074381Y-113209620D01*
X129026762Y-113066762D01*
X128931524Y-112971524D01*
X128836286Y-112923905D01*
X128645810Y-112876286D01*
X128502952Y-112876286D01*
X128312476Y-112923905D01*
X128217238Y-112971524D01*
X128122000Y-113066762D01*
X128074381Y-113209620D01*
X128074381Y-113304858D01*
X128122000Y-113447715D01*
X128169619Y-113495334D01*
X128074381Y-114352477D02*
X128074381Y-114162000D01*
X128122000Y-114066762D01*
X128169619Y-114019143D01*
X128312476Y-113923905D01*
X128502952Y-113876286D01*
X128883905Y-113876286D01*
X128979143Y-113923905D01*
X129026762Y-113971524D01*
X129074381Y-114066762D01*
X129074381Y-114257239D01*
X129026762Y-114352477D01*
X128979143Y-114400096D01*
X128883905Y-114447715D01*
X128645810Y-114447715D01*
X128550571Y-114400096D01*
X128502952Y-114352477D01*
X128455333Y-114257239D01*
X128455333Y-114066762D01*
X128502952Y-113971524D01*
X128550571Y-113923905D01*
X128645810Y-113876286D01*
X132639619Y-118704381D02*
X133211048Y-118704381D01*
X132925334Y-118704381D02*
X132925334Y-117704381D01*
X133020572Y-117847238D01*
X133115810Y-117942476D01*
X133211048Y-117990095D01*
X132020572Y-117704381D02*
X131925333Y-117704381D01*
X131830095Y-117752000D01*
X131782476Y-117799619D01*
X131734857Y-117894857D01*
X131687238Y-118085333D01*
X131687238Y-118323429D01*
X131734857Y-118513905D01*
X131782476Y-118609143D01*
X131830095Y-118656762D01*
X131925333Y-118704381D01*
X132020572Y-118704381D01*
X132115810Y-118656762D01*
X132163429Y-118609143D01*
X132211048Y-118513905D01*
X132258667Y-118323429D01*
X132258667Y-118085333D01*
X132211048Y-117894857D01*
X132163429Y-117799619D01*
X132115810Y-117752000D01*
X132020572Y-117704381D01*
X131068191Y-117704381D02*
X130972952Y-117704381D01*
X130877714Y-117752000D01*
X130830095Y-117799619D01*
X130782476Y-117894857D01*
X130734857Y-118085333D01*
X130734857Y-118323429D01*
X130782476Y-118513905D01*
X130830095Y-118609143D01*
X130877714Y-118656762D01*
X130972952Y-118704381D01*
X131068191Y-118704381D01*
X131163429Y-118656762D01*
X131211048Y-118609143D01*
X131258667Y-118513905D01*
X131306286Y-118323429D01*
X131306286Y-118085333D01*
X131258667Y-117894857D01*
X131211048Y-117799619D01*
X131163429Y-117752000D01*
X131068191Y-117704381D01*
X130306286Y-118037714D02*
X130306286Y-118704381D01*
X130306286Y-118132952D02*
X130258667Y-118085333D01*
X130163429Y-118037714D01*
X130020571Y-118037714D01*
X129925333Y-118085333D01*
X129877714Y-118180571D01*
X129877714Y-118704381D01*
X129068190Y-118180571D02*
X129401524Y-118180571D01*
X129401524Y-118704381D02*
X129401524Y-117704381D01*
X128925333Y-117704381D01*
X131258666Y-116181143D02*
X131306285Y-116228762D01*
X131449142Y-116276381D01*
X131544380Y-116276381D01*
X131687238Y-116228762D01*
X131782476Y-116133524D01*
X131830095Y-116038286D01*
X131877714Y-115847810D01*
X131877714Y-115704952D01*
X131830095Y-115514476D01*
X131782476Y-115419238D01*
X131687238Y-115324000D01*
X131544380Y-115276381D01*
X131449142Y-115276381D01*
X131306285Y-115324000D01*
X131258666Y-115371619D01*
X130925333Y-115276381D02*
X130258666Y-115276381D01*
X130687238Y-116276381D01*
X132163428Y-121244381D02*
X132734857Y-121244381D01*
X132449143Y-121244381D02*
X132449143Y-120244381D01*
X132544381Y-120387238D01*
X132639619Y-120482476D01*
X132734857Y-120530095D01*
X131544381Y-120244381D02*
X131449142Y-120244381D01*
X131353904Y-120292000D01*
X131306285Y-120339619D01*
X131258666Y-120434857D01*
X131211047Y-120625333D01*
X131211047Y-120863429D01*
X131258666Y-121053905D01*
X131306285Y-121149143D01*
X131353904Y-121196762D01*
X131449142Y-121244381D01*
X131544381Y-121244381D01*
X131639619Y-121196762D01*
X131687238Y-121149143D01*
X131734857Y-121053905D01*
X131782476Y-120863429D01*
X131782476Y-120625333D01*
X131734857Y-120434857D01*
X131687238Y-120339619D01*
X131639619Y-120292000D01*
X131544381Y-120244381D01*
X130353904Y-120577714D02*
X130353904Y-121244381D01*
X130782476Y-120577714D02*
X130782476Y-121101524D01*
X130734857Y-121196762D01*
X130639619Y-121244381D01*
X130496761Y-121244381D01*
X130401523Y-121196762D01*
X130353904Y-121149143D01*
X129544380Y-120720571D02*
X129877714Y-120720571D01*
X129877714Y-121244381D02*
X129877714Y-120244381D01*
X129401523Y-120244381D01*
X131734857Y-118399143D02*
X131782476Y-118446762D01*
X131925333Y-118494381D01*
X132020571Y-118494381D01*
X132163429Y-118446762D01*
X132258667Y-118351524D01*
X132306286Y-118256286D01*
X132353905Y-118065810D01*
X132353905Y-117922952D01*
X132306286Y-117732476D01*
X132258667Y-117637238D01*
X132163429Y-117542000D01*
X132020571Y-117494381D01*
X131925333Y-117494381D01*
X131782476Y-117542000D01*
X131734857Y-117589619D01*
X130782476Y-118494381D02*
X131353905Y-118494381D01*
X131068191Y-118494381D02*
X131068191Y-117494381D01*
X131163429Y-117637238D01*
X131258667Y-117732476D01*
X131353905Y-117780095D01*
X130163429Y-117494381D02*
X130068190Y-117494381D01*
X129972952Y-117542000D01*
X129925333Y-117589619D01*
X129877714Y-117684857D01*
X129830095Y-117875333D01*
X129830095Y-118113429D01*
X129877714Y-118303905D01*
X129925333Y-118399143D01*
X129972952Y-118446762D01*
X130068190Y-118494381D01*
X130163429Y-118494381D01*
X130258667Y-118446762D01*
X130306286Y-118399143D01*
X130353905Y-118303905D01*
X130401524Y-118113429D01*
X130401524Y-117875333D01*
X130353905Y-117684857D01*
X130306286Y-117589619D01*
X130258667Y-117542000D01*
X130163429Y-117494381D01*
X148256381Y-117533238D02*
X148256381Y-116961809D01*
X148256381Y-117247523D02*
X147256381Y-117247523D01*
X147399238Y-117152285D01*
X147494476Y-117057047D01*
X147542095Y-116961809D01*
X147256381Y-118152285D02*
X147256381Y-118247524D01*
X147304000Y-118342762D01*
X147351619Y-118390381D01*
X147446857Y-118438000D01*
X147637333Y-118485619D01*
X147875429Y-118485619D01*
X148065905Y-118438000D01*
X148161143Y-118390381D01*
X148208762Y-118342762D01*
X148256381Y-118247524D01*
X148256381Y-118152285D01*
X148208762Y-118057047D01*
X148161143Y-118009428D01*
X148065905Y-117961809D01*
X147875429Y-117914190D01*
X147637333Y-117914190D01*
X147446857Y-117961809D01*
X147351619Y-118009428D01*
X147304000Y-118057047D01*
X147256381Y-118152285D01*
X147256381Y-119104666D02*
X147256381Y-119199905D01*
X147304000Y-119295143D01*
X147351619Y-119342762D01*
X147446857Y-119390381D01*
X147637333Y-119438000D01*
X147875429Y-119438000D01*
X148065905Y-119390381D01*
X148161143Y-119342762D01*
X148208762Y-119295143D01*
X148256381Y-119199905D01*
X148256381Y-119104666D01*
X148208762Y-119009428D01*
X148161143Y-118961809D01*
X148065905Y-118914190D01*
X147875429Y-118866571D01*
X147637333Y-118866571D01*
X147446857Y-118914190D01*
X147351619Y-118961809D01*
X147304000Y-119009428D01*
X147256381Y-119104666D01*
X147589714Y-119866571D02*
X148256381Y-119866571D01*
X147684952Y-119866571D02*
X147637333Y-119914190D01*
X147589714Y-120009428D01*
X147589714Y-120152286D01*
X147637333Y-120247524D01*
X147732571Y-120295143D01*
X148256381Y-120295143D01*
X147589714Y-120628476D02*
X147589714Y-121009428D01*
X148256381Y-120771333D02*
X147399238Y-120771333D01*
X147304000Y-120818952D01*
X147256381Y-120914190D01*
X147256381Y-121009428D01*
X145411143Y-118295143D02*
X145458762Y-118247524D01*
X145506381Y-118104667D01*
X145506381Y-118009429D01*
X145458762Y-117866571D01*
X145363524Y-117771333D01*
X145268286Y-117723714D01*
X145077810Y-117676095D01*
X144934952Y-117676095D01*
X144744476Y-117723714D01*
X144649238Y-117771333D01*
X144554000Y-117866571D01*
X144506381Y-118009429D01*
X144506381Y-118104667D01*
X144554000Y-118247524D01*
X144601619Y-118295143D01*
X145506381Y-119247524D02*
X145506381Y-118676095D01*
X145506381Y-118961809D02*
X144506381Y-118961809D01*
X144649238Y-118866571D01*
X144744476Y-118771333D01*
X144792095Y-118676095D01*
X144839714Y-120104667D02*
X145506381Y-120104667D01*
X144458762Y-119866571D02*
X145173048Y-119628476D01*
X145173048Y-120247524D01*
X150288381Y-117533238D02*
X150288381Y-116961809D01*
X150288381Y-117247523D02*
X149288381Y-117247523D01*
X149431238Y-117152285D01*
X149526476Y-117057047D01*
X149574095Y-116961809D01*
X149288381Y-118152285D02*
X149288381Y-118247524D01*
X149336000Y-118342762D01*
X149383619Y-118390381D01*
X149478857Y-118438000D01*
X149669333Y-118485619D01*
X149907429Y-118485619D01*
X150097905Y-118438000D01*
X150193143Y-118390381D01*
X150240762Y-118342762D01*
X150288381Y-118247524D01*
X150288381Y-118152285D01*
X150240762Y-118057047D01*
X150193143Y-118009428D01*
X150097905Y-117961809D01*
X149907429Y-117914190D01*
X149669333Y-117914190D01*
X149478857Y-117961809D01*
X149383619Y-118009428D01*
X149336000Y-118057047D01*
X149288381Y-118152285D01*
X149288381Y-119104666D02*
X149288381Y-119199905D01*
X149336000Y-119295143D01*
X149383619Y-119342762D01*
X149478857Y-119390381D01*
X149669333Y-119438000D01*
X149907429Y-119438000D01*
X150097905Y-119390381D01*
X150193143Y-119342762D01*
X150240762Y-119295143D01*
X150288381Y-119199905D01*
X150288381Y-119104666D01*
X150240762Y-119009428D01*
X150193143Y-118961809D01*
X150097905Y-118914190D01*
X149907429Y-118866571D01*
X149669333Y-118866571D01*
X149478857Y-118914190D01*
X149383619Y-118961809D01*
X149336000Y-119009428D01*
X149288381Y-119104666D01*
X149621714Y-119866571D02*
X150288381Y-119866571D01*
X149716952Y-119866571D02*
X149669333Y-119914190D01*
X149621714Y-120009428D01*
X149621714Y-120152286D01*
X149669333Y-120247524D01*
X149764571Y-120295143D01*
X150288381Y-120295143D01*
X149621714Y-120628476D02*
X149621714Y-121009428D01*
X150288381Y-120771333D02*
X149431238Y-120771333D01*
X149336000Y-120818952D01*
X149288381Y-120914190D01*
X149288381Y-121009428D01*
X147443143Y-118295143D02*
X147490762Y-118247524D01*
X147538381Y-118104667D01*
X147538381Y-118009429D01*
X147490762Y-117866571D01*
X147395524Y-117771333D01*
X147300286Y-117723714D01*
X147109810Y-117676095D01*
X146966952Y-117676095D01*
X146776476Y-117723714D01*
X146681238Y-117771333D01*
X146586000Y-117866571D01*
X146538381Y-118009429D01*
X146538381Y-118104667D01*
X146586000Y-118247524D01*
X146633619Y-118295143D01*
X147538381Y-119247524D02*
X147538381Y-118676095D01*
X147538381Y-118961809D02*
X146538381Y-118961809D01*
X146681238Y-118866571D01*
X146776476Y-118771333D01*
X146824095Y-118676095D01*
X146538381Y-120104667D02*
X146538381Y-119914190D01*
X146586000Y-119818952D01*
X146633619Y-119771333D01*
X146776476Y-119676095D01*
X146966952Y-119628476D01*
X147347905Y-119628476D01*
X147443143Y-119676095D01*
X147490762Y-119723714D01*
X147538381Y-119818952D01*
X147538381Y-120009429D01*
X147490762Y-120104667D01*
X147443143Y-120152286D01*
X147347905Y-120199905D01*
X147109810Y-120199905D01*
X147014571Y-120152286D01*
X146966952Y-120104667D01*
X146919333Y-120009429D01*
X146919333Y-119818952D01*
X146966952Y-119723714D01*
X147014571Y-119676095D01*
X147109810Y-119628476D01*
X149166762Y-114776381D02*
X149738191Y-114776381D01*
X149452477Y-114776381D02*
X149452477Y-113776381D01*
X149547715Y-113919238D01*
X149642953Y-114014476D01*
X149738191Y-114062095D01*
X148547715Y-113776381D02*
X148452476Y-113776381D01*
X148357238Y-113824000D01*
X148309619Y-113871619D01*
X148262000Y-113966857D01*
X148214381Y-114157333D01*
X148214381Y-114395429D01*
X148262000Y-114585905D01*
X148309619Y-114681143D01*
X148357238Y-114728762D01*
X148452476Y-114776381D01*
X148547715Y-114776381D01*
X148642953Y-114728762D01*
X148690572Y-114681143D01*
X148738191Y-114585905D01*
X148785810Y-114395429D01*
X148785810Y-114157333D01*
X148738191Y-113966857D01*
X148690572Y-113871619D01*
X148642953Y-113824000D01*
X148547715Y-113776381D01*
X147595334Y-113776381D02*
X147500095Y-113776381D01*
X147404857Y-113824000D01*
X147357238Y-113871619D01*
X147309619Y-113966857D01*
X147262000Y-114157333D01*
X147262000Y-114395429D01*
X147309619Y-114585905D01*
X147357238Y-114681143D01*
X147404857Y-114728762D01*
X147500095Y-114776381D01*
X147595334Y-114776381D01*
X147690572Y-114728762D01*
X147738191Y-114681143D01*
X147785810Y-114585905D01*
X147833429Y-114395429D01*
X147833429Y-114157333D01*
X147785810Y-113966857D01*
X147738191Y-113871619D01*
X147690572Y-113824000D01*
X147595334Y-113776381D01*
X146833429Y-114109714D02*
X146833429Y-114776381D01*
X146833429Y-114204952D02*
X146785810Y-114157333D01*
X146690572Y-114109714D01*
X146547714Y-114109714D01*
X146452476Y-114157333D01*
X146404857Y-114252571D01*
X146404857Y-114776381D01*
X146071524Y-114109714D02*
X145690572Y-114109714D01*
X145928667Y-114776381D02*
X145928667Y-113919238D01*
X145881048Y-113824000D01*
X145785810Y-113776381D01*
X145690572Y-113776381D01*
X148404857Y-117431143D02*
X148452476Y-117478762D01*
X148595333Y-117526381D01*
X148690571Y-117526381D01*
X148833429Y-117478762D01*
X148928667Y-117383524D01*
X148976286Y-117288286D01*
X149023905Y-117097810D01*
X149023905Y-116954952D01*
X148976286Y-116764476D01*
X148928667Y-116669238D01*
X148833429Y-116574000D01*
X148690571Y-116526381D01*
X148595333Y-116526381D01*
X148452476Y-116574000D01*
X148404857Y-116621619D01*
X147452476Y-117526381D02*
X148023905Y-117526381D01*
X147738191Y-117526381D02*
X147738191Y-116526381D01*
X147833429Y-116669238D01*
X147928667Y-116764476D01*
X148023905Y-116812095D01*
X147119143Y-116526381D02*
X146452476Y-116526381D01*
X146881048Y-117526381D01*
X169142571Y-108124381D02*
X169714000Y-108124381D01*
X169428286Y-108124381D02*
X169428286Y-107124381D01*
X169523524Y-107267238D01*
X169618762Y-107362476D01*
X169714000Y-107410095D01*
X168761619Y-107219619D02*
X168714000Y-107172000D01*
X168618762Y-107124381D01*
X168380666Y-107124381D01*
X168285428Y-107172000D01*
X168237809Y-107219619D01*
X168190190Y-107314857D01*
X168190190Y-107410095D01*
X168237809Y-107552952D01*
X168809238Y-108124381D01*
X168190190Y-108124381D01*
X167761619Y-107457714D02*
X167761619Y-108457714D01*
X167761619Y-107505333D02*
X167666381Y-107457714D01*
X167475904Y-107457714D01*
X167380666Y-107505333D01*
X167333047Y-107552952D01*
X167285428Y-107648190D01*
X167285428Y-107933905D01*
X167333047Y-108029143D01*
X167380666Y-108076762D01*
X167475904Y-108124381D01*
X167666381Y-108124381D01*
X167761619Y-108076762D01*
X166999714Y-107457714D02*
X166618762Y-107457714D01*
X166856857Y-108124381D02*
X166856857Y-107267238D01*
X166809238Y-107172000D01*
X166714000Y-107124381D01*
X166618762Y-107124381D01*
X168856857Y-105279143D02*
X168904476Y-105326762D01*
X169047333Y-105374381D01*
X169142571Y-105374381D01*
X169285429Y-105326762D01*
X169380667Y-105231524D01*
X169428286Y-105136286D01*
X169475905Y-104945810D01*
X169475905Y-104802952D01*
X169428286Y-104612476D01*
X169380667Y-104517238D01*
X169285429Y-104422000D01*
X169142571Y-104374381D01*
X169047333Y-104374381D01*
X168904476Y-104422000D01*
X168856857Y-104469619D01*
X168475905Y-104469619D02*
X168428286Y-104422000D01*
X168333048Y-104374381D01*
X168094952Y-104374381D01*
X167999714Y-104422000D01*
X167952095Y-104469619D01*
X167904476Y-104564857D01*
X167904476Y-104660095D01*
X167952095Y-104802952D01*
X168523524Y-105374381D01*
X167904476Y-105374381D01*
X167285429Y-104374381D02*
X167190190Y-104374381D01*
X167094952Y-104422000D01*
X167047333Y-104469619D01*
X166999714Y-104564857D01*
X166952095Y-104755333D01*
X166952095Y-104993429D01*
X166999714Y-105183905D01*
X167047333Y-105279143D01*
X167094952Y-105326762D01*
X167190190Y-105374381D01*
X167285429Y-105374381D01*
X167380667Y-105326762D01*
X167428286Y-105279143D01*
X167475905Y-105183905D01*
X167523524Y-104993429D01*
X167523524Y-104755333D01*
X167475905Y-104564857D01*
X167428286Y-104469619D01*
X167380667Y-104422000D01*
X167285429Y-104374381D01*
X165078571Y-105124381D02*
X165650000Y-105124381D01*
X165364286Y-105124381D02*
X165364286Y-104124381D01*
X165459524Y-104267238D01*
X165554762Y-104362476D01*
X165650000Y-104410095D01*
X164697619Y-104219619D02*
X164650000Y-104172000D01*
X164554762Y-104124381D01*
X164316666Y-104124381D01*
X164221428Y-104172000D01*
X164173809Y-104219619D01*
X164126190Y-104314857D01*
X164126190Y-104410095D01*
X164173809Y-104552952D01*
X164745238Y-105124381D01*
X164126190Y-105124381D01*
X163697619Y-104457714D02*
X163697619Y-105457714D01*
X163697619Y-104505333D02*
X163602381Y-104457714D01*
X163411904Y-104457714D01*
X163316666Y-104505333D01*
X163269047Y-104552952D01*
X163221428Y-104648190D01*
X163221428Y-104933905D01*
X163269047Y-105029143D01*
X163316666Y-105076762D01*
X163411904Y-105124381D01*
X163602381Y-105124381D01*
X163697619Y-105076762D01*
X162935714Y-104457714D02*
X162554762Y-104457714D01*
X162792857Y-105124381D02*
X162792857Y-104267238D01*
X162745238Y-104172000D01*
X162650000Y-104124381D01*
X162554762Y-104124381D01*
X164792857Y-107779143D02*
X164840476Y-107826762D01*
X164983333Y-107874381D01*
X165078571Y-107874381D01*
X165221429Y-107826762D01*
X165316667Y-107731524D01*
X165364286Y-107636286D01*
X165411905Y-107445810D01*
X165411905Y-107302952D01*
X165364286Y-107112476D01*
X165316667Y-107017238D01*
X165221429Y-106922000D01*
X165078571Y-106874381D01*
X164983333Y-106874381D01*
X164840476Y-106922000D01*
X164792857Y-106969619D01*
X164411905Y-106969619D02*
X164364286Y-106922000D01*
X164269048Y-106874381D01*
X164030952Y-106874381D01*
X163935714Y-106922000D01*
X163888095Y-106969619D01*
X163840476Y-107064857D01*
X163840476Y-107160095D01*
X163888095Y-107302952D01*
X164459524Y-107874381D01*
X163840476Y-107874381D01*
X162888095Y-107874381D02*
X163459524Y-107874381D01*
X163173810Y-107874381D02*
X163173810Y-106874381D01*
X163269048Y-107017238D01*
X163364286Y-107112476D01*
X163459524Y-107160095D01*
X112136381Y-111644952D02*
X111136381Y-111644952D01*
X111136381Y-112025905D01*
X111184000Y-112121143D01*
X111231619Y-112168762D01*
X111326857Y-112216381D01*
X111469714Y-112216381D01*
X111564952Y-112168762D01*
X111612571Y-112121143D01*
X111660190Y-112025905D01*
X111660190Y-111644952D01*
X112136381Y-112644952D02*
X111136381Y-112644952D01*
X111850667Y-112978286D01*
X111136381Y-113311619D01*
X112136381Y-113311619D01*
X112136381Y-114264000D02*
X112136381Y-113787809D01*
X111136381Y-113787809D01*
X112136381Y-115073524D02*
X112136381Y-114597333D01*
X111136381Y-114597333D01*
X111469714Y-115835429D02*
X112136381Y-115835429D01*
X111088762Y-115597333D02*
X111803048Y-115359238D01*
X111803048Y-115978286D01*
X112136381Y-116883048D02*
X112136381Y-116311619D01*
X112136381Y-116597333D02*
X111136381Y-116597333D01*
X111279238Y-116502095D01*
X111374476Y-116406857D01*
X111422095Y-116311619D01*
X111469714Y-117740191D02*
X112136381Y-117740191D01*
X111088762Y-117502095D02*
X111803048Y-117264000D01*
X111803048Y-117883048D01*
X111564952Y-118406857D02*
X111517333Y-118311619D01*
X111469714Y-118264000D01*
X111374476Y-118216381D01*
X111326857Y-118216381D01*
X111231619Y-118264000D01*
X111184000Y-118311619D01*
X111136381Y-118406857D01*
X111136381Y-118597334D01*
X111184000Y-118692572D01*
X111231619Y-118740191D01*
X111326857Y-118787810D01*
X111374476Y-118787810D01*
X111469714Y-118740191D01*
X111517333Y-118692572D01*
X111564952Y-118597334D01*
X111564952Y-118406857D01*
X111612571Y-118311619D01*
X111660190Y-118264000D01*
X111755429Y-118216381D01*
X111945905Y-118216381D01*
X112041143Y-118264000D01*
X112088762Y-118311619D01*
X112136381Y-118406857D01*
X112136381Y-118597334D01*
X112088762Y-118692572D01*
X112041143Y-118740191D01*
X111945905Y-118787810D01*
X111755429Y-118787810D01*
X111660190Y-118740191D01*
X111612571Y-118692572D01*
X111564952Y-118597334D01*
X112136381Y-119692572D02*
X112136381Y-119216381D01*
X111136381Y-119216381D01*
X112041143Y-120025905D02*
X112088762Y-120073524D01*
X112136381Y-120025905D01*
X112088762Y-119978286D01*
X112041143Y-120025905D01*
X112136381Y-120025905D01*
X112136381Y-121025905D02*
X112136381Y-120454476D01*
X112136381Y-120740190D02*
X111136381Y-120740190D01*
X111279238Y-120644952D01*
X111374476Y-120549714D01*
X111422095Y-120454476D01*
X112136381Y-121978286D02*
X112136381Y-121406857D01*
X112136381Y-121692571D02*
X111136381Y-121692571D01*
X111279238Y-121597333D01*
X111374476Y-121502095D01*
X111422095Y-121406857D01*
X111136381Y-122883048D02*
X111136381Y-122406857D01*
X111612571Y-122359238D01*
X111564952Y-122406857D01*
X111517333Y-122502095D01*
X111517333Y-122740191D01*
X111564952Y-122835429D01*
X111612571Y-122883048D01*
X111707810Y-122930667D01*
X111945905Y-122930667D01*
X112041143Y-122883048D01*
X112088762Y-122835429D01*
X112136381Y-122740191D01*
X112136381Y-122502095D01*
X112088762Y-122406857D01*
X112041143Y-122359238D01*
X115236381Y-116525905D02*
X114236381Y-116525905D01*
X114236381Y-116764000D01*
X114284000Y-116906858D01*
X114379238Y-117002096D01*
X114474476Y-117049715D01*
X114664952Y-117097334D01*
X114807810Y-117097334D01*
X114998286Y-117049715D01*
X115093524Y-117002096D01*
X115188762Y-116906858D01*
X115236381Y-116764000D01*
X115236381Y-116525905D01*
X115236381Y-118049715D02*
X115236381Y-117478286D01*
X115236381Y-117764000D02*
X114236381Y-117764000D01*
X114379238Y-117668762D01*
X114474476Y-117573524D01*
X114522095Y-117478286D01*
X131032381Y-108592952D02*
X130032381Y-108592952D01*
X130032381Y-108973905D01*
X130080000Y-109069143D01*
X130127619Y-109116762D01*
X130222857Y-109164381D01*
X130365714Y-109164381D01*
X130460952Y-109116762D01*
X130508571Y-109069143D01*
X130556190Y-108973905D01*
X130556190Y-108592952D01*
X131032381Y-109592952D02*
X130032381Y-109592952D01*
X130746667Y-109926286D01*
X130032381Y-110259619D01*
X131032381Y-110259619D01*
X131032381Y-111212000D02*
X131032381Y-110735809D01*
X130032381Y-110735809D01*
X131032381Y-112021524D02*
X131032381Y-111545333D01*
X130032381Y-111545333D01*
X130365714Y-112783429D02*
X131032381Y-112783429D01*
X129984762Y-112545333D02*
X130699048Y-112307238D01*
X130699048Y-112926286D01*
X131032381Y-113831048D02*
X131032381Y-113259619D01*
X131032381Y-113545333D02*
X130032381Y-113545333D01*
X130175238Y-113450095D01*
X130270476Y-113354857D01*
X130318095Y-113259619D01*
X130365714Y-114688191D02*
X131032381Y-114688191D01*
X129984762Y-114450095D02*
X130699048Y-114212000D01*
X130699048Y-114831048D01*
X130460952Y-115354857D02*
X130413333Y-115259619D01*
X130365714Y-115212000D01*
X130270476Y-115164381D01*
X130222857Y-115164381D01*
X130127619Y-115212000D01*
X130080000Y-115259619D01*
X130032381Y-115354857D01*
X130032381Y-115545334D01*
X130080000Y-115640572D01*
X130127619Y-115688191D01*
X130222857Y-115735810D01*
X130270476Y-115735810D01*
X130365714Y-115688191D01*
X130413333Y-115640572D01*
X130460952Y-115545334D01*
X130460952Y-115354857D01*
X130508571Y-115259619D01*
X130556190Y-115212000D01*
X130651429Y-115164381D01*
X130841905Y-115164381D01*
X130937143Y-115212000D01*
X130984762Y-115259619D01*
X131032381Y-115354857D01*
X131032381Y-115545334D01*
X130984762Y-115640572D01*
X130937143Y-115688191D01*
X130841905Y-115735810D01*
X130651429Y-115735810D01*
X130556190Y-115688191D01*
X130508571Y-115640572D01*
X130460952Y-115545334D01*
X131032381Y-116640572D02*
X131032381Y-116164381D01*
X130032381Y-116164381D01*
X130937143Y-116973905D02*
X130984762Y-117021524D01*
X131032381Y-116973905D01*
X130984762Y-116926286D01*
X130937143Y-116973905D01*
X131032381Y-116973905D01*
X131032381Y-117973905D02*
X131032381Y-117402476D01*
X131032381Y-117688190D02*
X130032381Y-117688190D01*
X130175238Y-117592952D01*
X130270476Y-117497714D01*
X130318095Y-117402476D01*
X131032381Y-118926286D02*
X131032381Y-118354857D01*
X131032381Y-118640571D02*
X130032381Y-118640571D01*
X130175238Y-118545333D01*
X130270476Y-118450095D01*
X130318095Y-118354857D01*
X130032381Y-119831048D02*
X130032381Y-119354857D01*
X130508571Y-119307238D01*
X130460952Y-119354857D01*
X130413333Y-119450095D01*
X130413333Y-119688191D01*
X130460952Y-119783429D01*
X130508571Y-119831048D01*
X130603810Y-119878667D01*
X130841905Y-119878667D01*
X130937143Y-119831048D01*
X130984762Y-119783429D01*
X131032381Y-119688191D01*
X131032381Y-119450095D01*
X130984762Y-119354857D01*
X130937143Y-119307238D01*
X133548381Y-113473905D02*
X132548381Y-113473905D01*
X132548381Y-113712000D01*
X132596000Y-113854858D01*
X132691238Y-113950096D01*
X132786476Y-113997715D01*
X132976952Y-114045334D01*
X133119810Y-114045334D01*
X133310286Y-113997715D01*
X133405524Y-113950096D01*
X133500762Y-113854858D01*
X133548381Y-113712000D01*
X133548381Y-113473905D01*
X132643619Y-114426286D02*
X132596000Y-114473905D01*
X132548381Y-114569143D01*
X132548381Y-114807239D01*
X132596000Y-114902477D01*
X132643619Y-114950096D01*
X132738857Y-114997715D01*
X132834095Y-114997715D01*
X132976952Y-114950096D01*
X133548381Y-114378667D01*
X133548381Y-114997715D01*
X141327047Y-94964571D02*
X141184190Y-95012190D01*
X141136571Y-95059810D01*
X141088952Y-95155048D01*
X141088952Y-95297905D01*
X141136571Y-95393143D01*
X141184190Y-95440762D01*
X141279428Y-95488381D01*
X141660381Y-95488381D01*
X141660381Y-94488381D01*
X141327047Y-94488381D01*
X141231809Y-94536000D01*
X141184190Y-94583619D01*
X141136571Y-94678857D01*
X141136571Y-94774095D01*
X141184190Y-94869333D01*
X141231809Y-94916952D01*
X141327047Y-94964571D01*
X141660381Y-94964571D01*
X140708000Y-95202667D02*
X140231809Y-95202667D01*
X140803238Y-95488381D02*
X140469905Y-94488381D01*
X140136571Y-95488381D01*
X139946095Y-94488381D02*
X139374666Y-94488381D01*
X139660381Y-95488381D02*
X139660381Y-94488381D01*
X138565142Y-94488381D02*
X139041333Y-94488381D01*
X139088952Y-94964571D01*
X139041333Y-94916952D01*
X138946095Y-94869333D01*
X138707999Y-94869333D01*
X138612761Y-94916952D01*
X138565142Y-94964571D01*
X138517523Y-95059810D01*
X138517523Y-95297905D01*
X138565142Y-95393143D01*
X138612761Y-95440762D01*
X138707999Y-95488381D01*
X138946095Y-95488381D01*
X139041333Y-95440762D01*
X139088952Y-95393143D01*
X137660380Y-94821714D02*
X137660380Y-95488381D01*
X137898476Y-94440762D02*
X138136571Y-95155048D01*
X137517523Y-95155048D01*
X137184190Y-95202667D02*
X136707999Y-95202667D01*
X137279428Y-95488381D02*
X136946095Y-94488381D01*
X136612761Y-95488381D01*
D13*
X139434190Y-97166953D02*
X138934190Y-97166953D01*
X138934190Y-97286000D01*
X138958000Y-97357429D01*
X139005619Y-97405048D01*
X139053238Y-97428857D01*
X139148476Y-97452667D01*
X139219905Y-97452667D01*
X139315143Y-97428857D01*
X139362762Y-97405048D01*
X139410381Y-97357429D01*
X139434190Y-97286000D01*
X139434190Y-97166953D01*
X138934190Y-97619334D02*
X138934190Y-97928857D01*
X139124667Y-97762191D01*
X139124667Y-97833619D01*
X139148476Y-97881238D01*
X139172286Y-97905048D01*
X139219905Y-97928857D01*
X139338952Y-97928857D01*
X139386571Y-97905048D01*
X139410381Y-97881238D01*
X139434190Y-97833619D01*
X139434190Y-97690762D01*
X139410381Y-97643143D01*
X139386571Y-97619334D01*
D11*
X149952381Y-107880952D02*
X148952381Y-107880952D01*
X148952381Y-108261905D01*
X149000000Y-108357143D01*
X149047619Y-108404762D01*
X149142857Y-108452381D01*
X149285714Y-108452381D01*
X149380952Y-108404762D01*
X149428571Y-108357143D01*
X149476190Y-108261905D01*
X149476190Y-107880952D01*
X149952381Y-108880952D02*
X148952381Y-108880952D01*
X149666667Y-109214286D01*
X148952381Y-109547619D01*
X149952381Y-109547619D01*
X149952381Y-110500000D02*
X149952381Y-110023809D01*
X148952381Y-110023809D01*
X149952381Y-111309524D02*
X149952381Y-110833333D01*
X148952381Y-110833333D01*
X149285714Y-112071429D02*
X149952381Y-112071429D01*
X148904762Y-111833333D02*
X149619048Y-111595238D01*
X149619048Y-112214286D01*
X149952381Y-113119048D02*
X149952381Y-112547619D01*
X149952381Y-112833333D02*
X148952381Y-112833333D01*
X149095238Y-112738095D01*
X149190476Y-112642857D01*
X149238095Y-112547619D01*
X149285714Y-113976191D02*
X149952381Y-113976191D01*
X148904762Y-113738095D02*
X149619048Y-113500000D01*
X149619048Y-114119048D01*
X149380952Y-114642857D02*
X149333333Y-114547619D01*
X149285714Y-114500000D01*
X149190476Y-114452381D01*
X149142857Y-114452381D01*
X149047619Y-114500000D01*
X149000000Y-114547619D01*
X148952381Y-114642857D01*
X148952381Y-114833334D01*
X149000000Y-114928572D01*
X149047619Y-114976191D01*
X149142857Y-115023810D01*
X149190476Y-115023810D01*
X149285714Y-114976191D01*
X149333333Y-114928572D01*
X149380952Y-114833334D01*
X149380952Y-114642857D01*
X149428571Y-114547619D01*
X149476190Y-114500000D01*
X149571429Y-114452381D01*
X149761905Y-114452381D01*
X149857143Y-114500000D01*
X149904762Y-114547619D01*
X149952381Y-114642857D01*
X149952381Y-114833334D01*
X149904762Y-114928572D01*
X149857143Y-114976191D01*
X149761905Y-115023810D01*
X149571429Y-115023810D01*
X149476190Y-114976191D01*
X149428571Y-114928572D01*
X149380952Y-114833334D01*
X149952381Y-115928572D02*
X149952381Y-115452381D01*
X148952381Y-115452381D01*
X149857143Y-116261905D02*
X149904762Y-116309524D01*
X149952381Y-116261905D01*
X149904762Y-116214286D01*
X149857143Y-116261905D01*
X149952381Y-116261905D01*
X149952381Y-117261905D02*
X149952381Y-116690476D01*
X149952381Y-116976190D02*
X148952381Y-116976190D01*
X149095238Y-116880952D01*
X149190476Y-116785714D01*
X149238095Y-116690476D01*
X149952381Y-118214286D02*
X149952381Y-117642857D01*
X149952381Y-117928571D02*
X148952381Y-117928571D01*
X149095238Y-117833333D01*
X149190476Y-117738095D01*
X149238095Y-117642857D01*
X148952381Y-119119048D02*
X148952381Y-118642857D01*
X149428571Y-118595238D01*
X149380952Y-118642857D01*
X149333333Y-118738095D01*
X149333333Y-118976191D01*
X149380952Y-119071429D01*
X149428571Y-119119048D01*
X149523810Y-119166667D01*
X149761905Y-119166667D01*
X149857143Y-119119048D01*
X149904762Y-119071429D01*
X149952381Y-118976191D01*
X149952381Y-118738095D01*
X149904762Y-118642857D01*
X149857143Y-118595238D01*
X149468381Y-112761905D02*
X148468381Y-112761905D01*
X148468381Y-113000000D01*
X148516000Y-113142858D01*
X148611238Y-113238096D01*
X148706476Y-113285715D01*
X148896952Y-113333334D01*
X149039810Y-113333334D01*
X149230286Y-113285715D01*
X149325524Y-113238096D01*
X149420762Y-113142858D01*
X149468381Y-113000000D01*
X149468381Y-112761905D01*
X148801714Y-114190477D02*
X149468381Y-114190477D01*
X148420762Y-113952381D02*
X149135048Y-113714286D01*
X149135048Y-114333334D01*
X164199048Y-114676381D02*
X164199048Y-113676381D01*
X163818095Y-113676381D01*
X163722857Y-113724000D01*
X163675238Y-113771619D01*
X163627619Y-113866857D01*
X163627619Y-114009714D01*
X163675238Y-114104952D01*
X163722857Y-114152571D01*
X163818095Y-114200190D01*
X164199048Y-114200190D01*
X163199048Y-114676381D02*
X163199048Y-113676381D01*
X162865714Y-114390667D01*
X162532381Y-113676381D01*
X162532381Y-114676381D01*
X161580000Y-114676381D02*
X162056191Y-114676381D01*
X162056191Y-113676381D01*
X160770476Y-114676381D02*
X161246667Y-114676381D01*
X161246667Y-113676381D01*
X160008571Y-114009714D02*
X160008571Y-114676381D01*
X160246667Y-113628762D02*
X160484762Y-114343048D01*
X159865714Y-114343048D01*
X158960952Y-114676381D02*
X159532381Y-114676381D01*
X159246667Y-114676381D02*
X159246667Y-113676381D01*
X159341905Y-113819238D01*
X159437143Y-113914476D01*
X159532381Y-113962095D01*
X158103809Y-114009714D02*
X158103809Y-114676381D01*
X158341905Y-113628762D02*
X158580000Y-114343048D01*
X157960952Y-114343048D01*
X157437143Y-114104952D02*
X157532381Y-114057333D01*
X157580000Y-114009714D01*
X157627619Y-113914476D01*
X157627619Y-113866857D01*
X157580000Y-113771619D01*
X157532381Y-113724000D01*
X157437143Y-113676381D01*
X157246666Y-113676381D01*
X157151428Y-113724000D01*
X157103809Y-113771619D01*
X157056190Y-113866857D01*
X157056190Y-113914476D01*
X157103809Y-114009714D01*
X157151428Y-114057333D01*
X157246666Y-114104952D01*
X157437143Y-114104952D01*
X157532381Y-114152571D01*
X157580000Y-114200190D01*
X157627619Y-114295429D01*
X157627619Y-114485905D01*
X157580000Y-114581143D01*
X157532381Y-114628762D01*
X157437143Y-114676381D01*
X157246666Y-114676381D01*
X157151428Y-114628762D01*
X157103809Y-114581143D01*
X157056190Y-114485905D01*
X157056190Y-114295429D01*
X157103809Y-114200190D01*
X157151428Y-114152571D01*
X157246666Y-114104952D01*
X156151428Y-114676381D02*
X156627619Y-114676381D01*
X156627619Y-113676381D01*
X155818095Y-114581143D02*
X155770476Y-114628762D01*
X155818095Y-114676381D01*
X155865714Y-114628762D01*
X155818095Y-114581143D01*
X155818095Y-114676381D01*
X154818095Y-114676381D02*
X155389524Y-114676381D01*
X155103810Y-114676381D02*
X155103810Y-113676381D01*
X155199048Y-113819238D01*
X155294286Y-113914476D01*
X155389524Y-113962095D01*
X153865714Y-114676381D02*
X154437143Y-114676381D01*
X154151429Y-114676381D02*
X154151429Y-113676381D01*
X154246667Y-113819238D01*
X154341905Y-113914476D01*
X154437143Y-113962095D01*
X152960952Y-113676381D02*
X153437143Y-113676381D01*
X153484762Y-114152571D01*
X153437143Y-114104952D01*
X153341905Y-114057333D01*
X153103809Y-114057333D01*
X153008571Y-114104952D01*
X152960952Y-114152571D01*
X152913333Y-114247810D01*
X152913333Y-114485905D01*
X152960952Y-114581143D01*
X153008571Y-114628762D01*
X153103809Y-114676381D01*
X153341905Y-114676381D01*
X153437143Y-114628762D01*
X153484762Y-114581143D01*
X159318095Y-117776381D02*
X159318095Y-116776381D01*
X159080000Y-116776381D01*
X158937142Y-116824000D01*
X158841904Y-116919238D01*
X158794285Y-117014476D01*
X158746666Y-117204952D01*
X158746666Y-117347810D01*
X158794285Y-117538286D01*
X158841904Y-117633524D01*
X158937142Y-117728762D01*
X159080000Y-117776381D01*
X159318095Y-117776381D01*
X157841904Y-116776381D02*
X158318095Y-116776381D01*
X158365714Y-117252571D01*
X158318095Y-117204952D01*
X158222857Y-117157333D01*
X157984761Y-117157333D01*
X157889523Y-117204952D01*
X157841904Y-117252571D01*
X157794285Y-117347810D01*
X157794285Y-117585905D01*
X157841904Y-117681143D01*
X157889523Y-117728762D01*
X157984761Y-117776381D01*
X158222857Y-117776381D01*
X158318095Y-117728762D01*
X158365714Y-117681143D01*
X148131620Y-86172381D02*
X148131620Y-85172381D01*
X147798286Y-85886667D01*
X147464953Y-85172381D01*
X147464953Y-86172381D01*
X146560191Y-85505714D02*
X146560191Y-86172381D01*
X146798287Y-85124762D02*
X147036382Y-85839048D01*
X146417334Y-85839048D01*
X144941143Y-85648571D02*
X144798286Y-85696190D01*
X144750667Y-85743810D01*
X144703048Y-85839048D01*
X144703048Y-85981905D01*
X144750667Y-86077143D01*
X144798286Y-86124762D01*
X144893524Y-86172381D01*
X145274477Y-86172381D01*
X145274477Y-85172381D01*
X144941143Y-85172381D01*
X144845905Y-85220000D01*
X144798286Y-85267619D01*
X144750667Y-85362857D01*
X144750667Y-85458095D01*
X144798286Y-85553333D01*
X144845905Y-85600952D01*
X144941143Y-85648571D01*
X145274477Y-85648571D01*
X144322096Y-85886667D02*
X143845905Y-85886667D01*
X144417334Y-86172381D02*
X144084001Y-85172381D01*
X143750667Y-86172381D01*
X143560191Y-85172381D02*
X143226858Y-86172381D01*
X142893524Y-85172381D01*
X142036381Y-86172381D02*
X142607810Y-86172381D01*
X142322096Y-86172381D02*
X142322096Y-85172381D01*
X142417334Y-85315238D01*
X142512572Y-85410476D01*
X142607810Y-85458095D01*
X141179238Y-85172381D02*
X141369715Y-85172381D01*
X141464953Y-85220000D01*
X141512572Y-85267619D01*
X141607810Y-85410476D01*
X141655429Y-85600952D01*
X141655429Y-85981905D01*
X141607810Y-86077143D01*
X141560191Y-86124762D01*
X141464953Y-86172381D01*
X141274476Y-86172381D01*
X141179238Y-86124762D01*
X141131619Y-86077143D01*
X141084000Y-85981905D01*
X141084000Y-85743810D01*
X141131619Y-85648571D01*
X141179238Y-85600952D01*
X141274476Y-85553333D01*
X141464953Y-85553333D01*
X141560191Y-85600952D01*
X141607810Y-85648571D01*
X141655429Y-85743810D01*
X140750667Y-85172381D02*
X140512572Y-86172381D01*
X140322095Y-85458095D01*
X140131619Y-86172381D01*
X139893524Y-85172381D01*
X138607810Y-86172381D02*
X138703048Y-86124762D01*
X138750667Y-86077143D01*
X138798286Y-85981905D01*
X138798286Y-85696190D01*
X138750667Y-85600952D01*
X138703048Y-85553333D01*
X138607810Y-85505714D01*
X138464952Y-85505714D01*
X138369714Y-85553333D01*
X138322095Y-85600952D01*
X138274476Y-85696190D01*
X138274476Y-85981905D01*
X138322095Y-86077143D01*
X138369714Y-86124762D01*
X138464952Y-86172381D01*
X138607810Y-86172381D01*
X137845905Y-86172381D02*
X137845905Y-85505714D01*
X137845905Y-85696190D02*
X137798286Y-85600952D01*
X137750667Y-85553333D01*
X137655429Y-85505714D01*
X137560190Y-85505714D01*
X135941142Y-86172381D02*
X136512571Y-86172381D01*
X136226857Y-86172381D02*
X136226857Y-85172381D01*
X136322095Y-85315238D01*
X136417333Y-85410476D01*
X136512571Y-85458095D01*
X135512571Y-86172381D02*
X135512571Y-85172381D01*
X134941142Y-86172381D01*
X134941142Y-85172381D01*
X134036380Y-85505714D02*
X134036380Y-86172381D01*
X134274476Y-85124762D02*
X134512571Y-85839048D01*
X133893523Y-85839048D01*
X132988761Y-86172381D02*
X133560190Y-86172381D01*
X133274476Y-86172381D02*
X133274476Y-85172381D01*
X133369714Y-85315238D01*
X133464952Y-85410476D01*
X133560190Y-85458095D01*
X132131618Y-85505714D02*
X132131618Y-86172381D01*
X132369714Y-85124762D02*
X132607809Y-85839048D01*
X131988761Y-85839048D01*
X131464952Y-85600952D02*
X131560190Y-85553333D01*
X131607809Y-85505714D01*
X131655428Y-85410476D01*
X131655428Y-85362857D01*
X131607809Y-85267619D01*
X131560190Y-85220000D01*
X131464952Y-85172381D01*
X131274475Y-85172381D01*
X131179237Y-85220000D01*
X131131618Y-85267619D01*
X131083999Y-85362857D01*
X131083999Y-85410476D01*
X131131618Y-85505714D01*
X131179237Y-85553333D01*
X131274475Y-85600952D01*
X131464952Y-85600952D01*
X131560190Y-85648571D01*
X131607809Y-85696190D01*
X131655428Y-85791429D01*
X131655428Y-85981905D01*
X131607809Y-86077143D01*
X131560190Y-86124762D01*
X131464952Y-86172381D01*
X131274475Y-86172381D01*
X131179237Y-86124762D01*
X131131618Y-86077143D01*
X131083999Y-85981905D01*
X131083999Y-85791429D01*
X131131618Y-85696190D01*
X131179237Y-85648571D01*
X131274475Y-85600952D01*
X130750666Y-85172381D02*
X130512571Y-86172381D01*
X130322094Y-85458095D01*
X130131618Y-86172381D01*
X129893523Y-85172381D01*
X129560190Y-86124762D02*
X129417333Y-86172381D01*
X129179237Y-86172381D01*
X129083999Y-86124762D01*
X129036380Y-86077143D01*
X128988761Y-85981905D01*
X128988761Y-85886667D01*
X129036380Y-85791429D01*
X129083999Y-85743810D01*
X129179237Y-85696190D01*
X129369714Y-85648571D01*
X129464952Y-85600952D01*
X129512571Y-85553333D01*
X129560190Y-85458095D01*
X129560190Y-85362857D01*
X129512571Y-85267619D01*
X129464952Y-85220000D01*
X129369714Y-85172381D01*
X129131618Y-85172381D01*
X128988761Y-85220000D01*
X139422095Y-82422381D02*
X139422095Y-81422381D01*
X139184000Y-81422381D01*
X139041142Y-81470000D01*
X138945904Y-81565238D01*
X138898285Y-81660476D01*
X138850666Y-81850952D01*
X138850666Y-81993810D01*
X138898285Y-82184286D01*
X138945904Y-82279524D01*
X139041142Y-82374762D01*
X139184000Y-82422381D01*
X139422095Y-82422381D01*
X137993523Y-81422381D02*
X138184000Y-81422381D01*
X138279238Y-81470000D01*
X138326857Y-81517619D01*
X138422095Y-81660476D01*
X138469714Y-81850952D01*
X138469714Y-82231905D01*
X138422095Y-82327143D01*
X138374476Y-82374762D01*
X138279238Y-82422381D01*
X138088761Y-82422381D01*
X137993523Y-82374762D01*
X137945904Y-82327143D01*
X137898285Y-82231905D01*
X137898285Y-81993810D01*
X137945904Y-81898571D01*
X137993523Y-81850952D01*
X138088761Y-81803333D01*
X138279238Y-81803333D01*
X138374476Y-81850952D01*
X138422095Y-81898571D01*
X138469714Y-81993810D01*
X117615714Y-79959620D02*
X118282381Y-79959620D01*
X117234762Y-79721524D02*
X117949048Y-79483429D01*
X117949048Y-80102477D01*
X118282381Y-80531048D02*
X118282381Y-80721524D01*
X118234762Y-80816763D01*
X118187143Y-80864382D01*
X118044286Y-80959620D01*
X117853810Y-81007239D01*
X117472857Y-81007239D01*
X117377619Y-80959620D01*
X117330000Y-80912001D01*
X117282381Y-80816763D01*
X117282381Y-80626286D01*
X117330000Y-80531048D01*
X117377619Y-80483429D01*
X117472857Y-80435810D01*
X117710952Y-80435810D01*
X117806190Y-80483429D01*
X117853810Y-80531048D01*
X117901429Y-80626286D01*
X117901429Y-80816763D01*
X117853810Y-80912001D01*
X117806190Y-80959620D01*
X117710952Y-81007239D01*
X118187143Y-81435810D02*
X118234762Y-81483429D01*
X118282381Y-81435810D01*
X118234762Y-81388191D01*
X118187143Y-81435810D01*
X118282381Y-81435810D01*
X118282381Y-81959619D02*
X118282381Y-82150095D01*
X118234762Y-82245334D01*
X118187143Y-82292953D01*
X118044286Y-82388191D01*
X117853810Y-82435810D01*
X117472857Y-82435810D01*
X117377619Y-82388191D01*
X117330000Y-82340572D01*
X117282381Y-82245334D01*
X117282381Y-82054857D01*
X117330000Y-81959619D01*
X117377619Y-81912000D01*
X117472857Y-81864381D01*
X117710952Y-81864381D01*
X117806190Y-81912000D01*
X117853810Y-81959619D01*
X117901429Y-82054857D01*
X117901429Y-82245334D01*
X117853810Y-82340572D01*
X117806190Y-82388191D01*
X117710952Y-82435810D01*
X117282381Y-83816762D02*
X117282381Y-84007239D01*
X117330000Y-84102477D01*
X117425238Y-84197715D01*
X117615714Y-84245334D01*
X117949048Y-84245334D01*
X118139524Y-84197715D01*
X118234762Y-84102477D01*
X118282381Y-84007239D01*
X118282381Y-83816762D01*
X118234762Y-83721524D01*
X118139524Y-83626286D01*
X117949048Y-83578667D01*
X117615714Y-83578667D01*
X117425238Y-83626286D01*
X117330000Y-83721524D01*
X117282381Y-83816762D01*
X118282381Y-84673905D02*
X117282381Y-84673905D01*
X118282381Y-85102477D02*
X117758571Y-85102477D01*
X117663333Y-85054858D01*
X117615714Y-84959620D01*
X117615714Y-84816762D01*
X117663333Y-84721524D01*
X117710952Y-84673905D01*
X118282381Y-85578667D02*
X117615714Y-85578667D01*
X117710952Y-85578667D02*
X117663333Y-85626286D01*
X117615714Y-85721524D01*
X117615714Y-85864382D01*
X117663333Y-85959620D01*
X117758571Y-86007239D01*
X118282381Y-86007239D01*
X117758571Y-86007239D02*
X117663333Y-86054858D01*
X117615714Y-86150096D01*
X117615714Y-86292953D01*
X117663333Y-86388191D01*
X117758571Y-86435810D01*
X118282381Y-86435810D01*
X118282381Y-88197715D02*
X118282381Y-87626286D01*
X118282381Y-87912000D02*
X117282381Y-87912000D01*
X117425238Y-87816762D01*
X117520476Y-87721524D01*
X117568095Y-87626286D01*
X118282381Y-88578667D02*
X117282381Y-89340572D01*
X117282381Y-88721524D02*
X117330000Y-88816762D01*
X117425238Y-88864381D01*
X117520476Y-88816762D01*
X117568095Y-88721524D01*
X117520476Y-88626286D01*
X117425238Y-88578667D01*
X117330000Y-88626286D01*
X117282381Y-88721524D01*
X118234762Y-89292953D02*
X118139524Y-89340572D01*
X118044286Y-89292953D01*
X117996667Y-89197715D01*
X118044286Y-89102477D01*
X118139524Y-89054858D01*
X118234762Y-89102477D01*
X118282381Y-89197715D01*
X118234762Y-89292953D01*
D13*
X119560952Y-84345334D02*
X119370476Y-84212000D01*
X119560952Y-84116762D02*
X119160952Y-84116762D01*
X119160952Y-84269143D01*
X119180000Y-84307238D01*
X119199048Y-84326286D01*
X119237143Y-84345334D01*
X119294286Y-84345334D01*
X119332381Y-84326286D01*
X119351429Y-84307238D01*
X119370476Y-84269143D01*
X119370476Y-84116762D01*
X119560952Y-84726286D02*
X119560952Y-84497714D01*
X119560952Y-84612000D02*
X119160952Y-84612000D01*
X119218095Y-84573905D01*
X119256190Y-84535810D01*
X119275238Y-84497714D01*
D11*
X115583714Y-79959620D02*
X116250381Y-79959620D01*
X115202762Y-79721524D02*
X115917048Y-79483429D01*
X115917048Y-80102477D01*
X116250381Y-80531048D02*
X116250381Y-80721524D01*
X116202762Y-80816763D01*
X116155143Y-80864382D01*
X116012286Y-80959620D01*
X115821810Y-81007239D01*
X115440857Y-81007239D01*
X115345619Y-80959620D01*
X115298000Y-80912001D01*
X115250381Y-80816763D01*
X115250381Y-80626286D01*
X115298000Y-80531048D01*
X115345619Y-80483429D01*
X115440857Y-80435810D01*
X115678952Y-80435810D01*
X115774190Y-80483429D01*
X115821810Y-80531048D01*
X115869429Y-80626286D01*
X115869429Y-80816763D01*
X115821810Y-80912001D01*
X115774190Y-80959620D01*
X115678952Y-81007239D01*
X116155143Y-81435810D02*
X116202762Y-81483429D01*
X116250381Y-81435810D01*
X116202762Y-81388191D01*
X116155143Y-81435810D01*
X116250381Y-81435810D01*
X116250381Y-81959619D02*
X116250381Y-82150095D01*
X116202762Y-82245334D01*
X116155143Y-82292953D01*
X116012286Y-82388191D01*
X115821810Y-82435810D01*
X115440857Y-82435810D01*
X115345619Y-82388191D01*
X115298000Y-82340572D01*
X115250381Y-82245334D01*
X115250381Y-82054857D01*
X115298000Y-81959619D01*
X115345619Y-81912000D01*
X115440857Y-81864381D01*
X115678952Y-81864381D01*
X115774190Y-81912000D01*
X115821810Y-81959619D01*
X115869429Y-82054857D01*
X115869429Y-82245334D01*
X115821810Y-82340572D01*
X115774190Y-82388191D01*
X115678952Y-82435810D01*
X115250381Y-83816762D02*
X115250381Y-84007239D01*
X115298000Y-84102477D01*
X115393238Y-84197715D01*
X115583714Y-84245334D01*
X115917048Y-84245334D01*
X116107524Y-84197715D01*
X116202762Y-84102477D01*
X116250381Y-84007239D01*
X116250381Y-83816762D01*
X116202762Y-83721524D01*
X116107524Y-83626286D01*
X115917048Y-83578667D01*
X115583714Y-83578667D01*
X115393238Y-83626286D01*
X115298000Y-83721524D01*
X115250381Y-83816762D01*
X116250381Y-84673905D02*
X115250381Y-84673905D01*
X116250381Y-85102477D02*
X115726571Y-85102477D01*
X115631333Y-85054858D01*
X115583714Y-84959620D01*
X115583714Y-84816762D01*
X115631333Y-84721524D01*
X115678952Y-84673905D01*
X116250381Y-85578667D02*
X115583714Y-85578667D01*
X115678952Y-85578667D02*
X115631333Y-85626286D01*
X115583714Y-85721524D01*
X115583714Y-85864382D01*
X115631333Y-85959620D01*
X115726571Y-86007239D01*
X116250381Y-86007239D01*
X115726571Y-86007239D02*
X115631333Y-86054858D01*
X115583714Y-86150096D01*
X115583714Y-86292953D01*
X115631333Y-86388191D01*
X115726571Y-86435810D01*
X116250381Y-86435810D01*
X116250381Y-88197715D02*
X116250381Y-87626286D01*
X116250381Y-87912000D02*
X115250381Y-87912000D01*
X115393238Y-87816762D01*
X115488476Y-87721524D01*
X115536095Y-87626286D01*
X116250381Y-88578667D02*
X115250381Y-89340572D01*
X115250381Y-88721524D02*
X115298000Y-88816762D01*
X115393238Y-88864381D01*
X115488476Y-88816762D01*
X115536095Y-88721524D01*
X115488476Y-88626286D01*
X115393238Y-88578667D01*
X115298000Y-88626286D01*
X115250381Y-88721524D01*
X116202762Y-89292953D02*
X116107524Y-89340572D01*
X116012286Y-89292953D01*
X115964667Y-89197715D01*
X116012286Y-89102477D01*
X116107524Y-89054858D01*
X116202762Y-89102477D01*
X116250381Y-89197715D01*
X116202762Y-89292953D01*
D13*
X117528952Y-84345334D02*
X117338476Y-84212000D01*
X117528952Y-84116762D02*
X117128952Y-84116762D01*
X117128952Y-84269143D01*
X117148000Y-84307238D01*
X117167048Y-84326286D01*
X117205143Y-84345334D01*
X117262286Y-84345334D01*
X117300381Y-84326286D01*
X117319429Y-84307238D01*
X117338476Y-84269143D01*
X117338476Y-84116762D01*
X117128952Y-84478667D02*
X117128952Y-84726286D01*
X117281333Y-84592953D01*
X117281333Y-84650095D01*
X117300381Y-84688191D01*
X117319429Y-84707238D01*
X117357524Y-84726286D01*
X117452762Y-84726286D01*
X117490857Y-84707238D01*
X117509905Y-84688191D01*
X117528952Y-84650095D01*
X117528952Y-84535810D01*
X117509905Y-84497714D01*
X117490857Y-84478667D01*
D11*
X113551714Y-79959620D02*
X114218381Y-79959620D01*
X113170762Y-79721524D02*
X113885048Y-79483429D01*
X113885048Y-80102477D01*
X114218381Y-80531048D02*
X114218381Y-80721524D01*
X114170762Y-80816763D01*
X114123143Y-80864382D01*
X113980286Y-80959620D01*
X113789810Y-81007239D01*
X113408857Y-81007239D01*
X113313619Y-80959620D01*
X113266000Y-80912001D01*
X113218381Y-80816763D01*
X113218381Y-80626286D01*
X113266000Y-80531048D01*
X113313619Y-80483429D01*
X113408857Y-80435810D01*
X113646952Y-80435810D01*
X113742190Y-80483429D01*
X113789810Y-80531048D01*
X113837429Y-80626286D01*
X113837429Y-80816763D01*
X113789810Y-80912001D01*
X113742190Y-80959620D01*
X113646952Y-81007239D01*
X114123143Y-81435810D02*
X114170762Y-81483429D01*
X114218381Y-81435810D01*
X114170762Y-81388191D01*
X114123143Y-81435810D01*
X114218381Y-81435810D01*
X114218381Y-81959619D02*
X114218381Y-82150095D01*
X114170762Y-82245334D01*
X114123143Y-82292953D01*
X113980286Y-82388191D01*
X113789810Y-82435810D01*
X113408857Y-82435810D01*
X113313619Y-82388191D01*
X113266000Y-82340572D01*
X113218381Y-82245334D01*
X113218381Y-82054857D01*
X113266000Y-81959619D01*
X113313619Y-81912000D01*
X113408857Y-81864381D01*
X113646952Y-81864381D01*
X113742190Y-81912000D01*
X113789810Y-81959619D01*
X113837429Y-82054857D01*
X113837429Y-82245334D01*
X113789810Y-82340572D01*
X113742190Y-82388191D01*
X113646952Y-82435810D01*
X113218381Y-83816762D02*
X113218381Y-84007239D01*
X113266000Y-84102477D01*
X113361238Y-84197715D01*
X113551714Y-84245334D01*
X113885048Y-84245334D01*
X114075524Y-84197715D01*
X114170762Y-84102477D01*
X114218381Y-84007239D01*
X114218381Y-83816762D01*
X114170762Y-83721524D01*
X114075524Y-83626286D01*
X113885048Y-83578667D01*
X113551714Y-83578667D01*
X113361238Y-83626286D01*
X113266000Y-83721524D01*
X113218381Y-83816762D01*
X114218381Y-84673905D02*
X113218381Y-84673905D01*
X114218381Y-85102477D02*
X113694571Y-85102477D01*
X113599333Y-85054858D01*
X113551714Y-84959620D01*
X113551714Y-84816762D01*
X113599333Y-84721524D01*
X113646952Y-84673905D01*
X114218381Y-85578667D02*
X113551714Y-85578667D01*
X113646952Y-85578667D02*
X113599333Y-85626286D01*
X113551714Y-85721524D01*
X113551714Y-85864382D01*
X113599333Y-85959620D01*
X113694571Y-86007239D01*
X114218381Y-86007239D01*
X113694571Y-86007239D02*
X113599333Y-86054858D01*
X113551714Y-86150096D01*
X113551714Y-86292953D01*
X113599333Y-86388191D01*
X113694571Y-86435810D01*
X114218381Y-86435810D01*
X114218381Y-88197715D02*
X114218381Y-87626286D01*
X114218381Y-87912000D02*
X113218381Y-87912000D01*
X113361238Y-87816762D01*
X113456476Y-87721524D01*
X113504095Y-87626286D01*
X114218381Y-88578667D02*
X113218381Y-89340572D01*
X113218381Y-88721524D02*
X113266000Y-88816762D01*
X113361238Y-88864381D01*
X113456476Y-88816762D01*
X113504095Y-88721524D01*
X113456476Y-88626286D01*
X113361238Y-88578667D01*
X113266000Y-88626286D01*
X113218381Y-88721524D01*
X114170762Y-89292953D02*
X114075524Y-89340572D01*
X113980286Y-89292953D01*
X113932667Y-89197715D01*
X113980286Y-89102477D01*
X114075524Y-89054858D01*
X114170762Y-89102477D01*
X114218381Y-89197715D01*
X114170762Y-89292953D01*
D13*
X115496952Y-84345334D02*
X115306476Y-84212000D01*
X115496952Y-84116762D02*
X115096952Y-84116762D01*
X115096952Y-84269143D01*
X115116000Y-84307238D01*
X115135048Y-84326286D01*
X115173143Y-84345334D01*
X115230286Y-84345334D01*
X115268381Y-84326286D01*
X115287429Y-84307238D01*
X115306476Y-84269143D01*
X115306476Y-84116762D01*
X115230286Y-84688191D02*
X115496952Y-84688191D01*
X115077905Y-84592953D02*
X115363619Y-84497714D01*
X115363619Y-84745334D01*
D11*
X111519714Y-79959620D02*
X112186381Y-79959620D01*
X111138762Y-79721524D02*
X111853048Y-79483429D01*
X111853048Y-80102477D01*
X112186381Y-80531048D02*
X112186381Y-80721524D01*
X112138762Y-80816763D01*
X112091143Y-80864382D01*
X111948286Y-80959620D01*
X111757810Y-81007239D01*
X111376857Y-81007239D01*
X111281619Y-80959620D01*
X111234000Y-80912001D01*
X111186381Y-80816763D01*
X111186381Y-80626286D01*
X111234000Y-80531048D01*
X111281619Y-80483429D01*
X111376857Y-80435810D01*
X111614952Y-80435810D01*
X111710190Y-80483429D01*
X111757810Y-80531048D01*
X111805429Y-80626286D01*
X111805429Y-80816763D01*
X111757810Y-80912001D01*
X111710190Y-80959620D01*
X111614952Y-81007239D01*
X112091143Y-81435810D02*
X112138762Y-81483429D01*
X112186381Y-81435810D01*
X112138762Y-81388191D01*
X112091143Y-81435810D01*
X112186381Y-81435810D01*
X112186381Y-81959619D02*
X112186381Y-82150095D01*
X112138762Y-82245334D01*
X112091143Y-82292953D01*
X111948286Y-82388191D01*
X111757810Y-82435810D01*
X111376857Y-82435810D01*
X111281619Y-82388191D01*
X111234000Y-82340572D01*
X111186381Y-82245334D01*
X111186381Y-82054857D01*
X111234000Y-81959619D01*
X111281619Y-81912000D01*
X111376857Y-81864381D01*
X111614952Y-81864381D01*
X111710190Y-81912000D01*
X111757810Y-81959619D01*
X111805429Y-82054857D01*
X111805429Y-82245334D01*
X111757810Y-82340572D01*
X111710190Y-82388191D01*
X111614952Y-82435810D01*
X111186381Y-83816762D02*
X111186381Y-84007239D01*
X111234000Y-84102477D01*
X111329238Y-84197715D01*
X111519714Y-84245334D01*
X111853048Y-84245334D01*
X112043524Y-84197715D01*
X112138762Y-84102477D01*
X112186381Y-84007239D01*
X112186381Y-83816762D01*
X112138762Y-83721524D01*
X112043524Y-83626286D01*
X111853048Y-83578667D01*
X111519714Y-83578667D01*
X111329238Y-83626286D01*
X111234000Y-83721524D01*
X111186381Y-83816762D01*
X112186381Y-84673905D02*
X111186381Y-84673905D01*
X112186381Y-85102477D02*
X111662571Y-85102477D01*
X111567333Y-85054858D01*
X111519714Y-84959620D01*
X111519714Y-84816762D01*
X111567333Y-84721524D01*
X111614952Y-84673905D01*
X112186381Y-85578667D02*
X111519714Y-85578667D01*
X111614952Y-85578667D02*
X111567333Y-85626286D01*
X111519714Y-85721524D01*
X111519714Y-85864382D01*
X111567333Y-85959620D01*
X111662571Y-86007239D01*
X112186381Y-86007239D01*
X111662571Y-86007239D02*
X111567333Y-86054858D01*
X111519714Y-86150096D01*
X111519714Y-86292953D01*
X111567333Y-86388191D01*
X111662571Y-86435810D01*
X112186381Y-86435810D01*
X112186381Y-88197715D02*
X112186381Y-87626286D01*
X112186381Y-87912000D02*
X111186381Y-87912000D01*
X111329238Y-87816762D01*
X111424476Y-87721524D01*
X111472095Y-87626286D01*
X112186381Y-88578667D02*
X111186381Y-89340572D01*
X111186381Y-88721524D02*
X111234000Y-88816762D01*
X111329238Y-88864381D01*
X111424476Y-88816762D01*
X111472095Y-88721524D01*
X111424476Y-88626286D01*
X111329238Y-88578667D01*
X111234000Y-88626286D01*
X111186381Y-88721524D01*
X112138762Y-89292953D02*
X112043524Y-89340572D01*
X111948286Y-89292953D01*
X111900667Y-89197715D01*
X111948286Y-89102477D01*
X112043524Y-89054858D01*
X112138762Y-89102477D01*
X112186381Y-89197715D01*
X112138762Y-89292953D01*
D13*
X113464952Y-84345334D02*
X113274476Y-84212000D01*
X113464952Y-84116762D02*
X113064952Y-84116762D01*
X113064952Y-84269143D01*
X113084000Y-84307238D01*
X113103048Y-84326286D01*
X113141143Y-84345334D01*
X113198286Y-84345334D01*
X113236381Y-84326286D01*
X113255429Y-84307238D01*
X113274476Y-84269143D01*
X113274476Y-84116762D01*
X113064952Y-84707238D02*
X113064952Y-84516762D01*
X113255429Y-84497714D01*
X113236381Y-84516762D01*
X113217333Y-84554857D01*
X113217333Y-84650095D01*
X113236381Y-84688191D01*
X113255429Y-84707238D01*
X113293524Y-84726286D01*
X113388762Y-84726286D01*
X113426857Y-84707238D01*
X113445905Y-84688191D01*
X113464952Y-84650095D01*
X113464952Y-84554857D01*
X113445905Y-84516762D01*
X113426857Y-84497714D01*
D11*
X121441619Y-101088952D02*
X121394000Y-101136571D01*
X121346381Y-101231809D01*
X121346381Y-101469905D01*
X121394000Y-101565143D01*
X121441619Y-101612762D01*
X121536857Y-101660381D01*
X121632095Y-101660381D01*
X121774952Y-101612762D01*
X122346381Y-101041333D01*
X122346381Y-101660381D01*
X122346381Y-102088952D02*
X121346381Y-102088952D01*
X121965429Y-102184190D02*
X122346381Y-102469905D01*
X121679714Y-102469905D02*
X122060667Y-102088952D01*
X122346381Y-104184191D02*
X122346381Y-103612762D01*
X122346381Y-103898476D02*
X121346381Y-103898476D01*
X121489238Y-103803238D01*
X121584476Y-103708000D01*
X121632095Y-103612762D01*
X122346381Y-104565143D02*
X121346381Y-105327048D01*
X121346381Y-104708000D02*
X121394000Y-104803238D01*
X121489238Y-104850857D01*
X121584476Y-104803238D01*
X121632095Y-104708000D01*
X121584476Y-104612762D01*
X121489238Y-104565143D01*
X121394000Y-104612762D01*
X121346381Y-104708000D01*
X122298762Y-105279429D02*
X122203524Y-105327048D01*
X122108286Y-105279429D01*
X122060667Y-105184191D01*
X122108286Y-105088953D01*
X122203524Y-105041334D01*
X122298762Y-105088953D01*
X122346381Y-105184191D01*
X122298762Y-105279429D01*
D13*
X123624952Y-103141334D02*
X123434476Y-103008000D01*
X123624952Y-102912762D02*
X123224952Y-102912762D01*
X123224952Y-103065143D01*
X123244000Y-103103238D01*
X123263048Y-103122286D01*
X123301143Y-103141334D01*
X123358286Y-103141334D01*
X123396381Y-103122286D01*
X123415429Y-103103238D01*
X123434476Y-103065143D01*
X123434476Y-102912762D01*
X123224952Y-103484191D02*
X123224952Y-103408000D01*
X123244000Y-103369905D01*
X123263048Y-103350857D01*
X123320190Y-103312762D01*
X123396381Y-103293714D01*
X123548762Y-103293714D01*
X123586857Y-103312762D01*
X123605905Y-103331810D01*
X123624952Y-103369905D01*
X123624952Y-103446095D01*
X123605905Y-103484191D01*
X123586857Y-103503238D01*
X123548762Y-103522286D01*
X123453524Y-103522286D01*
X123415429Y-103503238D01*
X123396381Y-103484191D01*
X123377333Y-103446095D01*
X123377333Y-103369905D01*
X123396381Y-103331810D01*
X123415429Y-103312762D01*
X123453524Y-103293714D01*
D11*
X174833619Y-109929905D02*
X174786000Y-109977524D01*
X174738381Y-110072762D01*
X174738381Y-110310858D01*
X174786000Y-110406096D01*
X174833619Y-110453715D01*
X174928857Y-110501334D01*
X175024095Y-110501334D01*
X175166952Y-110453715D01*
X175738381Y-109882286D01*
X175738381Y-110501334D01*
X174738381Y-111120381D02*
X174738381Y-111215620D01*
X174786000Y-111310858D01*
X174833619Y-111358477D01*
X174928857Y-111406096D01*
X175119333Y-111453715D01*
X175357429Y-111453715D01*
X175547905Y-111406096D01*
X175643143Y-111358477D01*
X175690762Y-111310858D01*
X175738381Y-111215620D01*
X175738381Y-111120381D01*
X175690762Y-111025143D01*
X175643143Y-110977524D01*
X175547905Y-110929905D01*
X175357429Y-110882286D01*
X175119333Y-110882286D01*
X174928857Y-110929905D01*
X174833619Y-110977524D01*
X174786000Y-111025143D01*
X174738381Y-111120381D01*
X174738381Y-112072762D02*
X174738381Y-112168001D01*
X174786000Y-112263239D01*
X174833619Y-112310858D01*
X174928857Y-112358477D01*
X175119333Y-112406096D01*
X175357429Y-112406096D01*
X175547905Y-112358477D01*
X175643143Y-112310858D01*
X175690762Y-112263239D01*
X175738381Y-112168001D01*
X175738381Y-112072762D01*
X175690762Y-111977524D01*
X175643143Y-111929905D01*
X175547905Y-111882286D01*
X175357429Y-111834667D01*
X175119333Y-111834667D01*
X174928857Y-111882286D01*
X174833619Y-111929905D01*
X174786000Y-111977524D01*
X174738381Y-112072762D01*
D13*
X173916952Y-111101334D02*
X173726476Y-110968000D01*
X173916952Y-110872762D02*
X173516952Y-110872762D01*
X173516952Y-111025143D01*
X173536000Y-111063238D01*
X173555048Y-111082286D01*
X173593143Y-111101334D01*
X173650286Y-111101334D01*
X173688381Y-111082286D01*
X173707429Y-111063238D01*
X173726476Y-111025143D01*
X173726476Y-110872762D01*
X173516952Y-111234667D02*
X173516952Y-111501334D01*
X173916952Y-111329905D01*
D11*
X117502381Y-102190476D02*
X117502381Y-102857143D01*
X118502381Y-102428571D01*
X117502381Y-103714286D02*
X117502381Y-103238095D01*
X117978571Y-103190476D01*
X117930952Y-103238095D01*
X117883333Y-103333333D01*
X117883333Y-103571429D01*
X117930952Y-103666667D01*
X117978571Y-103714286D01*
X118073810Y-103761905D01*
X118311905Y-103761905D01*
X118407143Y-103714286D01*
X118454762Y-103666667D01*
X118502381Y-103571429D01*
X118502381Y-103333333D01*
X118454762Y-103238095D01*
X118407143Y-103190476D01*
D13*
X116680952Y-102933334D02*
X116490476Y-102800000D01*
X116680952Y-102704762D02*
X116280952Y-102704762D01*
X116280952Y-102857143D01*
X116300000Y-102895238D01*
X116319048Y-102914286D01*
X116357143Y-102933334D01*
X116414286Y-102933334D01*
X116452381Y-102914286D01*
X116471429Y-102895238D01*
X116490476Y-102857143D01*
X116490476Y-102704762D01*
X116452381Y-103161905D02*
X116433333Y-103123810D01*
X116414286Y-103104762D01*
X116376190Y-103085714D01*
X116357143Y-103085714D01*
X116319048Y-103104762D01*
X116300000Y-103123810D01*
X116280952Y-103161905D01*
X116280952Y-103238095D01*
X116300000Y-103276191D01*
X116319048Y-103295238D01*
X116357143Y-103314286D01*
X116376190Y-103314286D01*
X116414286Y-103295238D01*
X116433333Y-103276191D01*
X116452381Y-103238095D01*
X116452381Y-103161905D01*
X116471429Y-103123810D01*
X116490476Y-103104762D01*
X116528571Y-103085714D01*
X116604762Y-103085714D01*
X116642857Y-103104762D01*
X116661905Y-103123810D01*
X116680952Y-103161905D01*
X116680952Y-103238095D01*
X116661905Y-103276191D01*
X116642857Y-103295238D01*
X116604762Y-103314286D01*
X116528571Y-103314286D01*
X116490476Y-103295238D01*
X116471429Y-103276191D01*
X116452381Y-103238095D01*
D11*
X112402381Y-102190476D02*
X112402381Y-102857143D01*
X113402381Y-102428571D01*
X112402381Y-103714286D02*
X112402381Y-103238095D01*
X112878571Y-103190476D01*
X112830952Y-103238095D01*
X112783333Y-103333333D01*
X112783333Y-103571429D01*
X112830952Y-103666667D01*
X112878571Y-103714286D01*
X112973810Y-103761905D01*
X113211905Y-103761905D01*
X113307143Y-103714286D01*
X113354762Y-103666667D01*
X113402381Y-103571429D01*
X113402381Y-103333333D01*
X113354762Y-103238095D01*
X113307143Y-103190476D01*
D13*
X114680952Y-102933334D02*
X114490476Y-102800000D01*
X114680952Y-102704762D02*
X114280952Y-102704762D01*
X114280952Y-102857143D01*
X114300000Y-102895238D01*
X114319048Y-102914286D01*
X114357143Y-102933334D01*
X114414286Y-102933334D01*
X114452381Y-102914286D01*
X114471429Y-102895238D01*
X114490476Y-102857143D01*
X114490476Y-102704762D01*
X114680952Y-103123810D02*
X114680952Y-103200000D01*
X114661905Y-103238095D01*
X114642857Y-103257143D01*
X114585714Y-103295238D01*
X114509524Y-103314286D01*
X114357143Y-103314286D01*
X114319048Y-103295238D01*
X114300000Y-103276191D01*
X114280952Y-103238095D01*
X114280952Y-103161905D01*
X114300000Y-103123810D01*
X114319048Y-103104762D01*
X114357143Y-103085714D01*
X114452381Y-103085714D01*
X114490476Y-103104762D01*
X114509524Y-103123810D01*
X114528571Y-103161905D01*
X114528571Y-103238095D01*
X114509524Y-103276191D01*
X114490476Y-103295238D01*
X114452381Y-103314286D01*
D11*
X139459714Y-100993524D02*
X140126381Y-100993524D01*
X139078762Y-100755428D02*
X139793048Y-100517333D01*
X139793048Y-101136381D01*
X140126381Y-101517333D02*
X139126381Y-101517333D01*
X139745429Y-101612571D02*
X140126381Y-101898286D01*
X139459714Y-101898286D02*
X139840667Y-101517333D01*
X139126381Y-102231619D02*
X139126381Y-102898286D01*
X140126381Y-102469714D01*
D13*
X141404952Y-101426858D02*
X141214476Y-101293524D01*
X141404952Y-101198286D02*
X141004952Y-101198286D01*
X141004952Y-101350667D01*
X141024000Y-101388762D01*
X141043048Y-101407810D01*
X141081143Y-101426858D01*
X141138286Y-101426858D01*
X141176381Y-101407810D01*
X141195429Y-101388762D01*
X141214476Y-101350667D01*
X141214476Y-101198286D01*
X141404952Y-101807810D02*
X141404952Y-101579238D01*
X141404952Y-101693524D02*
X141004952Y-101693524D01*
X141062095Y-101655429D01*
X141100190Y-101617334D01*
X141119238Y-101579238D01*
X141004952Y-102055429D02*
X141004952Y-102093524D01*
X141024000Y-102131619D01*
X141043048Y-102150667D01*
X141081143Y-102169714D01*
X141157333Y-102188762D01*
X141252571Y-102188762D01*
X141328762Y-102169714D01*
X141366857Y-102150667D01*
X141385905Y-102131619D01*
X141404952Y-102093524D01*
X141404952Y-102055429D01*
X141385905Y-102017333D01*
X141366857Y-101998286D01*
X141328762Y-101979238D01*
X141252571Y-101960190D01*
X141157333Y-101960190D01*
X141081143Y-101979238D01*
X141043048Y-101998286D01*
X141024000Y-102017333D01*
X141004952Y-102055429D01*
D11*
X134887714Y-100993524D02*
X135554381Y-100993524D01*
X134506762Y-100755428D02*
X135221048Y-100517333D01*
X135221048Y-101136381D01*
X135554381Y-101517333D02*
X134554381Y-101517333D01*
X135173429Y-101612571D02*
X135554381Y-101898286D01*
X134887714Y-101898286D02*
X135268667Y-101517333D01*
X134554381Y-102231619D02*
X134554381Y-102898286D01*
X135554381Y-102469714D01*
D13*
X136832952Y-101426858D02*
X136642476Y-101293524D01*
X136832952Y-101198286D02*
X136432952Y-101198286D01*
X136432952Y-101350667D01*
X136452000Y-101388762D01*
X136471048Y-101407810D01*
X136509143Y-101426858D01*
X136566286Y-101426858D01*
X136604381Y-101407810D01*
X136623429Y-101388762D01*
X136642476Y-101350667D01*
X136642476Y-101198286D01*
X136832952Y-101807810D02*
X136832952Y-101579238D01*
X136832952Y-101693524D02*
X136432952Y-101693524D01*
X136490095Y-101655429D01*
X136528190Y-101617334D01*
X136547238Y-101579238D01*
X136832952Y-102188762D02*
X136832952Y-101960190D01*
X136832952Y-102074476D02*
X136432952Y-102074476D01*
X136490095Y-102036381D01*
X136528190Y-101998286D01*
X136547238Y-101960190D01*
D11*
X137935714Y-100993524D02*
X138602381Y-100993524D01*
X137554762Y-100755428D02*
X138269048Y-100517333D01*
X138269048Y-101136381D01*
X138602381Y-101517333D02*
X137602381Y-101517333D01*
X138221429Y-101612571D02*
X138602381Y-101898286D01*
X137935714Y-101898286D02*
X138316667Y-101517333D01*
X137602381Y-102231619D02*
X137602381Y-102898286D01*
X138602381Y-102469714D01*
D13*
X139880952Y-101426858D02*
X139690476Y-101293524D01*
X139880952Y-101198286D02*
X139480952Y-101198286D01*
X139480952Y-101350667D01*
X139500000Y-101388762D01*
X139519048Y-101407810D01*
X139557143Y-101426858D01*
X139614286Y-101426858D01*
X139652381Y-101407810D01*
X139671429Y-101388762D01*
X139690476Y-101350667D01*
X139690476Y-101198286D01*
X139880952Y-101807810D02*
X139880952Y-101579238D01*
X139880952Y-101693524D02*
X139480952Y-101693524D01*
X139538095Y-101655429D01*
X139576190Y-101617334D01*
X139595238Y-101579238D01*
X139519048Y-101960190D02*
X139500000Y-101979238D01*
X139480952Y-102017333D01*
X139480952Y-102112571D01*
X139500000Y-102150667D01*
X139519048Y-102169714D01*
X139557143Y-102188762D01*
X139595238Y-102188762D01*
X139652381Y-102169714D01*
X139880952Y-101941143D01*
X139880952Y-102188762D01*
D11*
X136411714Y-100993524D02*
X137078381Y-100993524D01*
X136030762Y-100755428D02*
X136745048Y-100517333D01*
X136745048Y-101136381D01*
X137078381Y-101517333D02*
X136078381Y-101517333D01*
X136697429Y-101612571D02*
X137078381Y-101898286D01*
X136411714Y-101898286D02*
X136792667Y-101517333D01*
X136078381Y-102231619D02*
X136078381Y-102898286D01*
X137078381Y-102469714D01*
D13*
X138356952Y-101426858D02*
X138166476Y-101293524D01*
X138356952Y-101198286D02*
X137956952Y-101198286D01*
X137956952Y-101350667D01*
X137976000Y-101388762D01*
X137995048Y-101407810D01*
X138033143Y-101426858D01*
X138090286Y-101426858D01*
X138128381Y-101407810D01*
X138147429Y-101388762D01*
X138166476Y-101350667D01*
X138166476Y-101198286D01*
X138356952Y-101807810D02*
X138356952Y-101579238D01*
X138356952Y-101693524D02*
X137956952Y-101693524D01*
X138014095Y-101655429D01*
X138052190Y-101617334D01*
X138071238Y-101579238D01*
X137956952Y-101941143D02*
X137956952Y-102188762D01*
X138109333Y-102055429D01*
X138109333Y-102112571D01*
X138128381Y-102150667D01*
X138147429Y-102169714D01*
X138185524Y-102188762D01*
X138280762Y-102188762D01*
X138318857Y-102169714D01*
X138337905Y-102150667D01*
X138356952Y-102112571D01*
X138356952Y-101998286D01*
X138337905Y-101960190D01*
X138318857Y-101941143D01*
D11*
X133363714Y-100993524D02*
X134030381Y-100993524D01*
X132982762Y-100755428D02*
X133697048Y-100517333D01*
X133697048Y-101136381D01*
X134030381Y-101517333D02*
X133030381Y-101517333D01*
X133649429Y-101612571D02*
X134030381Y-101898286D01*
X133363714Y-101898286D02*
X133744667Y-101517333D01*
X133030381Y-102231619D02*
X133030381Y-102898286D01*
X134030381Y-102469714D01*
D13*
X135308952Y-101426858D02*
X135118476Y-101293524D01*
X135308952Y-101198286D02*
X134908952Y-101198286D01*
X134908952Y-101350667D01*
X134928000Y-101388762D01*
X134947048Y-101407810D01*
X134985143Y-101426858D01*
X135042286Y-101426858D01*
X135080381Y-101407810D01*
X135099429Y-101388762D01*
X135118476Y-101350667D01*
X135118476Y-101198286D01*
X135308952Y-101807810D02*
X135308952Y-101579238D01*
X135308952Y-101693524D02*
X134908952Y-101693524D01*
X134966095Y-101655429D01*
X135004190Y-101617334D01*
X135023238Y-101579238D01*
X135042286Y-102150667D02*
X135308952Y-102150667D01*
X134889905Y-102055429D02*
X135175619Y-101960190D01*
X135175619Y-102207810D01*
D11*
X177829619Y-112637905D02*
X177782000Y-112685524D01*
X177734381Y-112780762D01*
X177734381Y-113018858D01*
X177782000Y-113114096D01*
X177829619Y-113161715D01*
X177924857Y-113209334D01*
X178020095Y-113209334D01*
X178162952Y-113161715D01*
X178734381Y-112590286D01*
X178734381Y-113209334D01*
X177734381Y-113828381D02*
X177734381Y-113923620D01*
X177782000Y-114018858D01*
X177829619Y-114066477D01*
X177924857Y-114114096D01*
X178115333Y-114161715D01*
X178353429Y-114161715D01*
X178543905Y-114114096D01*
X178639143Y-114066477D01*
X178686762Y-114018858D01*
X178734381Y-113923620D01*
X178734381Y-113828381D01*
X178686762Y-113733143D01*
X178639143Y-113685524D01*
X178543905Y-113637905D01*
X178353429Y-113590286D01*
X178115333Y-113590286D01*
X177924857Y-113637905D01*
X177829619Y-113685524D01*
X177782000Y-113733143D01*
X177734381Y-113828381D01*
X177734381Y-114780762D02*
X177734381Y-114876001D01*
X177782000Y-114971239D01*
X177829619Y-115018858D01*
X177924857Y-115066477D01*
X178115333Y-115114096D01*
X178353429Y-115114096D01*
X178543905Y-115066477D01*
X178639143Y-115018858D01*
X178686762Y-114971239D01*
X178734381Y-114876001D01*
X178734381Y-114780762D01*
X178686762Y-114685524D01*
X178639143Y-114637905D01*
X178543905Y-114590286D01*
X178353429Y-114542667D01*
X178115333Y-114542667D01*
X177924857Y-114590286D01*
X177829619Y-114637905D01*
X177782000Y-114685524D01*
X177734381Y-114780762D01*
D13*
X180012952Y-113618858D02*
X179822476Y-113485524D01*
X180012952Y-113390286D02*
X179612952Y-113390286D01*
X179612952Y-113542667D01*
X179632000Y-113580762D01*
X179651048Y-113599810D01*
X179689143Y-113618858D01*
X179746286Y-113618858D01*
X179784381Y-113599810D01*
X179803429Y-113580762D01*
X179822476Y-113542667D01*
X179822476Y-113390286D01*
X180012952Y-113999810D02*
X180012952Y-113771238D01*
X180012952Y-113885524D02*
X179612952Y-113885524D01*
X179670095Y-113847429D01*
X179708190Y-113809334D01*
X179727238Y-113771238D01*
X179612952Y-114361714D02*
X179612952Y-114171238D01*
X179803429Y-114152190D01*
X179784381Y-114171238D01*
X179765333Y-114209333D01*
X179765333Y-114304571D01*
X179784381Y-114342667D01*
X179803429Y-114361714D01*
X179841524Y-114380762D01*
X179936762Y-114380762D01*
X179974857Y-114361714D01*
X179993905Y-114342667D01*
X180012952Y-114304571D01*
X180012952Y-114209333D01*
X179993905Y-114171238D01*
X179974857Y-114152190D01*
D11*
X168761905Y-101097619D02*
X168714286Y-101050000D01*
X168619048Y-101002381D01*
X168380952Y-101002381D01*
X168285714Y-101050000D01*
X168238095Y-101097619D01*
X168190476Y-101192857D01*
X168190476Y-101288095D01*
X168238095Y-101430952D01*
X168809524Y-102002381D01*
X168190476Y-102002381D01*
X167809524Y-101097619D02*
X167761905Y-101050000D01*
X167666667Y-101002381D01*
X167428571Y-101002381D01*
X167333333Y-101050000D01*
X167285714Y-101097619D01*
X167238095Y-101192857D01*
X167238095Y-101288095D01*
X167285714Y-101430952D01*
X167857143Y-102002381D01*
X167238095Y-102002381D01*
D13*
X168257142Y-100180952D02*
X168390476Y-99990476D01*
X168485714Y-100180952D02*
X168485714Y-99780952D01*
X168333333Y-99780952D01*
X168295238Y-99800000D01*
X168276190Y-99819048D01*
X168257142Y-99857143D01*
X168257142Y-99914286D01*
X168276190Y-99952381D01*
X168295238Y-99971429D01*
X168333333Y-99990476D01*
X168485714Y-99990476D01*
X167876190Y-100180952D02*
X168104762Y-100180952D01*
X167990476Y-100180952D02*
X167990476Y-99780952D01*
X168028571Y-99838095D01*
X168066666Y-99876190D01*
X168104762Y-99895238D01*
X167533333Y-99780952D02*
X167609524Y-99780952D01*
X167647619Y-99800000D01*
X167666667Y-99819048D01*
X167704762Y-99876190D01*
X167723810Y-99952381D01*
X167723810Y-100104762D01*
X167704762Y-100142857D01*
X167685714Y-100161905D01*
X167647619Y-100180952D01*
X167571429Y-100180952D01*
X167533333Y-100161905D01*
X167514286Y-100142857D01*
X167495238Y-100104762D01*
X167495238Y-100009524D01*
X167514286Y-99971429D01*
X167533333Y-99952381D01*
X167571429Y-99933333D01*
X167647619Y-99933333D01*
X167685714Y-99952381D01*
X167704762Y-99971429D01*
X167723810Y-100009524D01*
D11*
X171638381Y-82974096D02*
X171638381Y-82783619D01*
X171686000Y-82688381D01*
X171733619Y-82640762D01*
X171876476Y-82545524D01*
X172066952Y-82497905D01*
X172447905Y-82497905D01*
X172543143Y-82545524D01*
X172590762Y-82593143D01*
X172638381Y-82688381D01*
X172638381Y-82878858D01*
X172590762Y-82974096D01*
X172543143Y-83021715D01*
X172447905Y-83069334D01*
X172209810Y-83069334D01*
X172114571Y-83021715D01*
X172066952Y-82974096D01*
X172019333Y-82878858D01*
X172019333Y-82688381D01*
X172066952Y-82593143D01*
X172114571Y-82545524D01*
X172209810Y-82497905D01*
X172066952Y-83640762D02*
X172019333Y-83545524D01*
X171971714Y-83497905D01*
X171876476Y-83450286D01*
X171828857Y-83450286D01*
X171733619Y-83497905D01*
X171686000Y-83545524D01*
X171638381Y-83640762D01*
X171638381Y-83831239D01*
X171686000Y-83926477D01*
X171733619Y-83974096D01*
X171828857Y-84021715D01*
X171876476Y-84021715D01*
X171971714Y-83974096D01*
X172019333Y-83926477D01*
X172066952Y-83831239D01*
X172066952Y-83640762D01*
X172114571Y-83545524D01*
X172162190Y-83497905D01*
X172257429Y-83450286D01*
X172447905Y-83450286D01*
X172543143Y-83497905D01*
X172590762Y-83545524D01*
X172638381Y-83640762D01*
X172638381Y-83831239D01*
X172590762Y-83926477D01*
X172543143Y-83974096D01*
X172447905Y-84021715D01*
X172257429Y-84021715D01*
X172162190Y-83974096D01*
X172114571Y-83926477D01*
X172066952Y-83831239D01*
X171638381Y-84640762D02*
X171638381Y-84736001D01*
X171686000Y-84831239D01*
X171733619Y-84878858D01*
X171828857Y-84926477D01*
X172019333Y-84974096D01*
X172257429Y-84974096D01*
X172447905Y-84926477D01*
X172543143Y-84878858D01*
X172590762Y-84831239D01*
X172638381Y-84736001D01*
X172638381Y-84640762D01*
X172590762Y-84545524D01*
X172543143Y-84497905D01*
X172447905Y-84450286D01*
X172257429Y-84402667D01*
X172019333Y-84402667D01*
X171828857Y-84450286D01*
X171733619Y-84497905D01*
X171686000Y-84545524D01*
X171638381Y-84640762D01*
D13*
X173916952Y-83478858D02*
X173726476Y-83345524D01*
X173916952Y-83250286D02*
X173516952Y-83250286D01*
X173516952Y-83402667D01*
X173536000Y-83440762D01*
X173555048Y-83459810D01*
X173593143Y-83478858D01*
X173650286Y-83478858D01*
X173688381Y-83459810D01*
X173707429Y-83440762D01*
X173726476Y-83402667D01*
X173726476Y-83250286D01*
X173916952Y-83859810D02*
X173916952Y-83631238D01*
X173916952Y-83745524D02*
X173516952Y-83745524D01*
X173574095Y-83707429D01*
X173612190Y-83669334D01*
X173631238Y-83631238D01*
X173516952Y-83993143D02*
X173516952Y-84259810D01*
X173916952Y-84088381D01*
D11*
X171638381Y-89238096D02*
X171638381Y-89047619D01*
X171686000Y-88952381D01*
X171733619Y-88904762D01*
X171876476Y-88809524D01*
X172066952Y-88761905D01*
X172447905Y-88761905D01*
X172543143Y-88809524D01*
X172590762Y-88857143D01*
X172638381Y-88952381D01*
X172638381Y-89142858D01*
X172590762Y-89238096D01*
X172543143Y-89285715D01*
X172447905Y-89333334D01*
X172209810Y-89333334D01*
X172114571Y-89285715D01*
X172066952Y-89238096D01*
X172019333Y-89142858D01*
X172019333Y-88952381D01*
X172066952Y-88857143D01*
X172114571Y-88809524D01*
X172209810Y-88761905D01*
X172066952Y-89904762D02*
X172019333Y-89809524D01*
X171971714Y-89761905D01*
X171876476Y-89714286D01*
X171828857Y-89714286D01*
X171733619Y-89761905D01*
X171686000Y-89809524D01*
X171638381Y-89904762D01*
X171638381Y-90095239D01*
X171686000Y-90190477D01*
X171733619Y-90238096D01*
X171828857Y-90285715D01*
X171876476Y-90285715D01*
X171971714Y-90238096D01*
X172019333Y-90190477D01*
X172066952Y-90095239D01*
X172066952Y-89904762D01*
X172114571Y-89809524D01*
X172162190Y-89761905D01*
X172257429Y-89714286D01*
X172447905Y-89714286D01*
X172543143Y-89761905D01*
X172590762Y-89809524D01*
X172638381Y-89904762D01*
X172638381Y-90095239D01*
X172590762Y-90190477D01*
X172543143Y-90238096D01*
X172447905Y-90285715D01*
X172257429Y-90285715D01*
X172162190Y-90238096D01*
X172114571Y-90190477D01*
X172066952Y-90095239D01*
X171638381Y-90904762D02*
X171638381Y-91000001D01*
X171686000Y-91095239D01*
X171733619Y-91142858D01*
X171828857Y-91190477D01*
X172019333Y-91238096D01*
X172257429Y-91238096D01*
X172447905Y-91190477D01*
X172543143Y-91142858D01*
X172590762Y-91095239D01*
X172638381Y-91000001D01*
X172638381Y-90904762D01*
X172590762Y-90809524D01*
X172543143Y-90761905D01*
X172447905Y-90714286D01*
X172257429Y-90666667D01*
X172019333Y-90666667D01*
X171828857Y-90714286D01*
X171733619Y-90761905D01*
X171686000Y-90809524D01*
X171638381Y-90904762D01*
D13*
X173916952Y-89742858D02*
X173726476Y-89609524D01*
X173916952Y-89514286D02*
X173516952Y-89514286D01*
X173516952Y-89666667D01*
X173536000Y-89704762D01*
X173555048Y-89723810D01*
X173593143Y-89742858D01*
X173650286Y-89742858D01*
X173688381Y-89723810D01*
X173707429Y-89704762D01*
X173726476Y-89666667D01*
X173726476Y-89514286D01*
X173916952Y-90123810D02*
X173916952Y-89895238D01*
X173916952Y-90009524D02*
X173516952Y-90009524D01*
X173574095Y-89971429D01*
X173612190Y-89933334D01*
X173631238Y-89895238D01*
X173688381Y-90352381D02*
X173669333Y-90314286D01*
X173650286Y-90295238D01*
X173612190Y-90276190D01*
X173593143Y-90276190D01*
X173555048Y-90295238D01*
X173536000Y-90314286D01*
X173516952Y-90352381D01*
X173516952Y-90428571D01*
X173536000Y-90466667D01*
X173555048Y-90485714D01*
X173593143Y-90504762D01*
X173612190Y-90504762D01*
X173650286Y-90485714D01*
X173669333Y-90466667D01*
X173688381Y-90428571D01*
X173688381Y-90352381D01*
X173707429Y-90314286D01*
X173726476Y-90295238D01*
X173764571Y-90276190D01*
X173840762Y-90276190D01*
X173878857Y-90295238D01*
X173897905Y-90314286D01*
X173916952Y-90352381D01*
X173916952Y-90428571D01*
X173897905Y-90466667D01*
X173878857Y-90485714D01*
X173840762Y-90504762D01*
X173764571Y-90504762D01*
X173726476Y-90485714D01*
X173707429Y-90466667D01*
X173688381Y-90428571D01*
D11*
X168261905Y-103097619D02*
X168214286Y-103050000D01*
X168119048Y-103002381D01*
X167880952Y-103002381D01*
X167785714Y-103050000D01*
X167738095Y-103097619D01*
X167690476Y-103192857D01*
X167690476Y-103288095D01*
X167738095Y-103430952D01*
X168309524Y-104002381D01*
X167690476Y-104002381D01*
X167309524Y-103097619D02*
X167261905Y-103050000D01*
X167166667Y-103002381D01*
X166928571Y-103002381D01*
X166833333Y-103050000D01*
X166785714Y-103097619D01*
X166738095Y-103192857D01*
X166738095Y-103288095D01*
X166785714Y-103430952D01*
X167357143Y-104002381D01*
X166738095Y-104002381D01*
D13*
X167757142Y-102180952D02*
X167890476Y-101990476D01*
X167985714Y-102180952D02*
X167985714Y-101780952D01*
X167833333Y-101780952D01*
X167795238Y-101800000D01*
X167776190Y-101819048D01*
X167757142Y-101857143D01*
X167757142Y-101914286D01*
X167776190Y-101952381D01*
X167795238Y-101971429D01*
X167833333Y-101990476D01*
X167985714Y-101990476D01*
X167376190Y-102180952D02*
X167604762Y-102180952D01*
X167490476Y-102180952D02*
X167490476Y-101780952D01*
X167528571Y-101838095D01*
X167566666Y-101876190D01*
X167604762Y-101895238D01*
X167185714Y-102180952D02*
X167109524Y-102180952D01*
X167071429Y-102161905D01*
X167052381Y-102142857D01*
X167014286Y-102085714D01*
X166995238Y-102009524D01*
X166995238Y-101857143D01*
X167014286Y-101819048D01*
X167033333Y-101800000D01*
X167071429Y-101780952D01*
X167147619Y-101780952D01*
X167185714Y-101800000D01*
X167204762Y-101819048D01*
X167223810Y-101857143D01*
X167223810Y-101952381D01*
X167204762Y-101990476D01*
X167185714Y-102009524D01*
X167147619Y-102028571D01*
X167071429Y-102028571D01*
X167033333Y-102009524D01*
X167014286Y-101990476D01*
X166995238Y-101952381D01*
D11*
X117011238Y-115286381D02*
X117582667Y-115286381D01*
X117296953Y-115286381D02*
X117296953Y-114286381D01*
X117392191Y-114429238D01*
X117487429Y-114524476D01*
X117582667Y-114572095D01*
X116392191Y-114286381D02*
X116296952Y-114286381D01*
X116201714Y-114334000D01*
X116154095Y-114381619D01*
X116106476Y-114476857D01*
X116058857Y-114667333D01*
X116058857Y-114905429D01*
X116106476Y-115095905D01*
X116154095Y-115191143D01*
X116201714Y-115238762D01*
X116296952Y-115286381D01*
X116392191Y-115286381D01*
X116487429Y-115238762D01*
X116535048Y-115191143D01*
X116582667Y-115095905D01*
X116630286Y-114905429D01*
X116630286Y-114667333D01*
X116582667Y-114476857D01*
X116535048Y-114381619D01*
X116487429Y-114334000D01*
X116392191Y-114286381D01*
X115630286Y-115286381D02*
X115630286Y-114286381D01*
X115535048Y-114905429D02*
X115249333Y-115286381D01*
X115249333Y-114619714D02*
X115630286Y-115000667D01*
D13*
X116673142Y-113464952D02*
X116806476Y-113274476D01*
X116901714Y-113464952D02*
X116901714Y-113064952D01*
X116749333Y-113064952D01*
X116711238Y-113084000D01*
X116692190Y-113103048D01*
X116673142Y-113141143D01*
X116673142Y-113198286D01*
X116692190Y-113236381D01*
X116711238Y-113255429D01*
X116749333Y-113274476D01*
X116901714Y-113274476D01*
X116520762Y-113103048D02*
X116501714Y-113084000D01*
X116463619Y-113064952D01*
X116368381Y-113064952D01*
X116330285Y-113084000D01*
X116311238Y-113103048D01*
X116292190Y-113141143D01*
X116292190Y-113179238D01*
X116311238Y-113236381D01*
X116539809Y-113464952D01*
X116292190Y-113464952D01*
X116044571Y-113064952D02*
X116006476Y-113064952D01*
X115968381Y-113084000D01*
X115949333Y-113103048D01*
X115930286Y-113141143D01*
X115911238Y-113217333D01*
X115911238Y-113312571D01*
X115930286Y-113388762D01*
X115949333Y-113426857D01*
X115968381Y-113445905D01*
X116006476Y-113464952D01*
X116044571Y-113464952D01*
X116082667Y-113445905D01*
X116101714Y-113426857D01*
X116120762Y-113388762D01*
X116139810Y-113312571D01*
X116139810Y-113217333D01*
X116120762Y-113141143D01*
X116101714Y-113103048D01*
X116082667Y-113084000D01*
X116044571Y-113064952D01*
D11*
X127980762Y-108285619D02*
X127933143Y-108238000D01*
X127837905Y-108190381D01*
X127599809Y-108190381D01*
X127504571Y-108238000D01*
X127456952Y-108285619D01*
X127409333Y-108380857D01*
X127409333Y-108476095D01*
X127456952Y-108618952D01*
X128028381Y-109190381D01*
X127409333Y-109190381D01*
X126980762Y-109095143D02*
X126933143Y-109142762D01*
X126980762Y-109190381D01*
X127028381Y-109142762D01*
X126980762Y-109095143D01*
X126980762Y-109190381D01*
X126552191Y-108285619D02*
X126504572Y-108238000D01*
X126409334Y-108190381D01*
X126171238Y-108190381D01*
X126076000Y-108238000D01*
X126028381Y-108285619D01*
X125980762Y-108380857D01*
X125980762Y-108476095D01*
X126028381Y-108618952D01*
X126599810Y-109190381D01*
X125980762Y-109190381D01*
X125552191Y-109190381D02*
X125552191Y-108190381D01*
X125456953Y-108809429D02*
X125171238Y-109190381D01*
X125171238Y-108523714D02*
X125552191Y-108904667D01*
D13*
X126833142Y-107368952D02*
X126966476Y-107178476D01*
X127061714Y-107368952D02*
X127061714Y-106968952D01*
X126909333Y-106968952D01*
X126871238Y-106988000D01*
X126852190Y-107007048D01*
X126833142Y-107045143D01*
X126833142Y-107102286D01*
X126852190Y-107140381D01*
X126871238Y-107159429D01*
X126909333Y-107178476D01*
X127061714Y-107178476D01*
X126680762Y-107007048D02*
X126661714Y-106988000D01*
X126623619Y-106968952D01*
X126528381Y-106968952D01*
X126490285Y-106988000D01*
X126471238Y-107007048D01*
X126452190Y-107045143D01*
X126452190Y-107083238D01*
X126471238Y-107140381D01*
X126699809Y-107368952D01*
X126452190Y-107368952D01*
X126299810Y-107007048D02*
X126280762Y-106988000D01*
X126242667Y-106968952D01*
X126147429Y-106968952D01*
X126109333Y-106988000D01*
X126090286Y-107007048D01*
X126071238Y-107045143D01*
X126071238Y-107083238D01*
X126090286Y-107140381D01*
X126318857Y-107368952D01*
X126071238Y-107368952D01*
D11*
X110678381Y-105114286D02*
X110678381Y-104923809D01*
X110726000Y-104828571D01*
X110773619Y-104780952D01*
X110916476Y-104685714D01*
X111106952Y-104638095D01*
X111487905Y-104638095D01*
X111583143Y-104685714D01*
X111630762Y-104733333D01*
X111678381Y-104828571D01*
X111678381Y-105019048D01*
X111630762Y-105114286D01*
X111583143Y-105161905D01*
X111487905Y-105209524D01*
X111249810Y-105209524D01*
X111154571Y-105161905D01*
X111106952Y-105114286D01*
X111059333Y-105019048D01*
X111059333Y-104828571D01*
X111106952Y-104733333D01*
X111154571Y-104685714D01*
X111249810Y-104638095D01*
X110678381Y-105828571D02*
X110678381Y-105923810D01*
X110726000Y-106019048D01*
X110773619Y-106066667D01*
X110868857Y-106114286D01*
X111059333Y-106161905D01*
X111297429Y-106161905D01*
X111487905Y-106114286D01*
X111583143Y-106066667D01*
X111630762Y-106019048D01*
X111678381Y-105923810D01*
X111678381Y-105828571D01*
X111630762Y-105733333D01*
X111583143Y-105685714D01*
X111487905Y-105638095D01*
X111297429Y-105590476D01*
X111059333Y-105590476D01*
X110868857Y-105638095D01*
X110773619Y-105685714D01*
X110726000Y-105733333D01*
X110678381Y-105828571D01*
D13*
X112956952Y-105142858D02*
X112766476Y-105009524D01*
X112956952Y-104914286D02*
X112556952Y-104914286D01*
X112556952Y-105066667D01*
X112576000Y-105104762D01*
X112595048Y-105123810D01*
X112633143Y-105142858D01*
X112690286Y-105142858D01*
X112728381Y-105123810D01*
X112747429Y-105104762D01*
X112766476Y-105066667D01*
X112766476Y-104914286D01*
X112595048Y-105295238D02*
X112576000Y-105314286D01*
X112556952Y-105352381D01*
X112556952Y-105447619D01*
X112576000Y-105485715D01*
X112595048Y-105504762D01*
X112633143Y-105523810D01*
X112671238Y-105523810D01*
X112728381Y-105504762D01*
X112956952Y-105276191D01*
X112956952Y-105523810D01*
X112690286Y-105866667D02*
X112956952Y-105866667D01*
X112537905Y-105771429D02*
X112823619Y-105676190D01*
X112823619Y-105923810D01*
D11*
X113778381Y-109814286D02*
X113778381Y-109623809D01*
X113826000Y-109528571D01*
X113873619Y-109480952D01*
X114016476Y-109385714D01*
X114206952Y-109338095D01*
X114587905Y-109338095D01*
X114683143Y-109385714D01*
X114730762Y-109433333D01*
X114778381Y-109528571D01*
X114778381Y-109719048D01*
X114730762Y-109814286D01*
X114683143Y-109861905D01*
X114587905Y-109909524D01*
X114349810Y-109909524D01*
X114254571Y-109861905D01*
X114206952Y-109814286D01*
X114159333Y-109719048D01*
X114159333Y-109528571D01*
X114206952Y-109433333D01*
X114254571Y-109385714D01*
X114349810Y-109338095D01*
X113778381Y-110528571D02*
X113778381Y-110623810D01*
X113826000Y-110719048D01*
X113873619Y-110766667D01*
X113968857Y-110814286D01*
X114159333Y-110861905D01*
X114397429Y-110861905D01*
X114587905Y-110814286D01*
X114683143Y-110766667D01*
X114730762Y-110719048D01*
X114778381Y-110623810D01*
X114778381Y-110528571D01*
X114730762Y-110433333D01*
X114683143Y-110385714D01*
X114587905Y-110338095D01*
X114397429Y-110290476D01*
X114159333Y-110290476D01*
X113968857Y-110338095D01*
X113873619Y-110385714D01*
X113826000Y-110433333D01*
X113778381Y-110528571D01*
D13*
X112956952Y-109842858D02*
X112766476Y-109709524D01*
X112956952Y-109614286D02*
X112556952Y-109614286D01*
X112556952Y-109766667D01*
X112576000Y-109804762D01*
X112595048Y-109823810D01*
X112633143Y-109842858D01*
X112690286Y-109842858D01*
X112728381Y-109823810D01*
X112747429Y-109804762D01*
X112766476Y-109766667D01*
X112766476Y-109614286D01*
X112595048Y-109995238D02*
X112576000Y-110014286D01*
X112556952Y-110052381D01*
X112556952Y-110147619D01*
X112576000Y-110185715D01*
X112595048Y-110204762D01*
X112633143Y-110223810D01*
X112671238Y-110223810D01*
X112728381Y-110204762D01*
X112956952Y-109976191D01*
X112956952Y-110223810D01*
X112556952Y-110585714D02*
X112556952Y-110395238D01*
X112747429Y-110376190D01*
X112728381Y-110395238D01*
X112709333Y-110433333D01*
X112709333Y-110528571D01*
X112728381Y-110566667D01*
X112747429Y-110585714D01*
X112785524Y-110604762D01*
X112880762Y-110604762D01*
X112918857Y-110585714D01*
X112937905Y-110566667D01*
X112956952Y-110528571D01*
X112956952Y-110433333D01*
X112937905Y-110395238D01*
X112918857Y-110376190D01*
D11*
X121434000Y-101551381D02*
X121434000Y-100551381D01*
X121434000Y-101027571D02*
X120862571Y-101027571D01*
X120862571Y-101551381D02*
X120862571Y-100551381D01*
X119862571Y-101551381D02*
X120434000Y-101551381D01*
X120148286Y-101551381D02*
X120148286Y-100551381D01*
X120243524Y-100694238D01*
X120338762Y-100789476D01*
X120434000Y-100837095D01*
X118910190Y-101551381D02*
X119481619Y-101551381D01*
X119195905Y-101551381D02*
X119195905Y-100551381D01*
X119291143Y-100694238D01*
X119386381Y-100789476D01*
X119481619Y-100837095D01*
X118291143Y-100551381D02*
X118195904Y-100551381D01*
X118100666Y-100599000D01*
X118053047Y-100646619D01*
X118005428Y-100741857D01*
X117957809Y-100932333D01*
X117957809Y-101170429D01*
X118005428Y-101360905D01*
X118053047Y-101456143D01*
X118100666Y-101503762D01*
X118195904Y-101551381D01*
X118291143Y-101551381D01*
X118386381Y-101503762D01*
X118434000Y-101456143D01*
X118481619Y-101360905D01*
X118529238Y-101170429D01*
X118529238Y-100932333D01*
X118481619Y-100741857D01*
X118434000Y-100646619D01*
X118386381Y-100599000D01*
X118291143Y-100551381D01*
X117576857Y-100646619D02*
X117529238Y-100599000D01*
X117434000Y-100551381D01*
X117195904Y-100551381D01*
X117100666Y-100599000D01*
X117053047Y-100646619D01*
X117005428Y-100741857D01*
X117005428Y-100837095D01*
X117053047Y-100979952D01*
X117624476Y-101551381D01*
X117005428Y-101551381D01*
X116576857Y-101551381D02*
X116576857Y-100551381D01*
X116005428Y-101551381D01*
X116005428Y-100551381D01*
X115053047Y-101551381D02*
X115529238Y-101551381D01*
X115529238Y-100551381D01*
X114862571Y-100551381D02*
X114291142Y-100551381D01*
X114576857Y-101551381D02*
X114576857Y-100551381D01*
X118695905Y-93051381D02*
X118695905Y-93860905D01*
X118648286Y-93956143D01*
X118600667Y-94003762D01*
X118505429Y-94051381D01*
X118314952Y-94051381D01*
X118219714Y-94003762D01*
X118172095Y-93956143D01*
X118124476Y-93860905D01*
X118124476Y-93051381D01*
X117743524Y-93051381D02*
X117124476Y-93051381D01*
X117457810Y-93432333D01*
X117314952Y-93432333D01*
X117219714Y-93479952D01*
X117172095Y-93527571D01*
X117124476Y-93622810D01*
X117124476Y-93860905D01*
X117172095Y-93956143D01*
X117219714Y-94003762D01*
X117314952Y-94051381D01*
X117600667Y-94051381D01*
X117695905Y-94003762D01*
X117743524Y-93956143D01*
X121396953Y-110775381D02*
X120825524Y-110775381D01*
X121111239Y-111775381D02*
X121111239Y-110775381D01*
X120206476Y-110775381D02*
X120206476Y-111489667D01*
X120254096Y-111632524D01*
X120349334Y-111727762D01*
X120492191Y-111775381D01*
X120587429Y-111775381D01*
X119777905Y-111489667D02*
X119301714Y-111489667D01*
X119873143Y-111775381D02*
X119539810Y-110775381D01*
X119206476Y-111775381D01*
X118349333Y-111775381D02*
X118920762Y-111775381D01*
X118635048Y-111775381D02*
X118635048Y-110775381D01*
X118730286Y-110918238D01*
X118825524Y-111013476D01*
X118920762Y-111061095D01*
X117730286Y-110775381D02*
X117635047Y-110775381D01*
X117539809Y-110823000D01*
X117492190Y-110870619D01*
X117444571Y-110965857D01*
X117396952Y-111156333D01*
X117396952Y-111394429D01*
X117444571Y-111584905D01*
X117492190Y-111680143D01*
X117539809Y-111727762D01*
X117635047Y-111775381D01*
X117730286Y-111775381D01*
X117825524Y-111727762D01*
X117873143Y-111680143D01*
X117920762Y-111584905D01*
X117968381Y-111394429D01*
X117968381Y-111156333D01*
X117920762Y-110965857D01*
X117873143Y-110870619D01*
X117825524Y-110823000D01*
X117730286Y-110775381D01*
X116539809Y-111108714D02*
X116539809Y-111775381D01*
X116777905Y-110727762D02*
X117016000Y-111442048D01*
X116396952Y-111442048D01*
X115825524Y-110775381D02*
X115730285Y-110775381D01*
X115635047Y-110823000D01*
X115587428Y-110870619D01*
X115539809Y-110965857D01*
X115492190Y-111156333D01*
X115492190Y-111394429D01*
X115539809Y-111584905D01*
X115587428Y-111680143D01*
X115635047Y-111727762D01*
X115730285Y-111775381D01*
X115825524Y-111775381D01*
X115920762Y-111727762D01*
X115968381Y-111680143D01*
X116016000Y-111584905D01*
X116063619Y-111394429D01*
X116063619Y-111156333D01*
X116016000Y-110965857D01*
X115968381Y-110870619D01*
X115920762Y-110823000D01*
X115825524Y-110775381D01*
X115206476Y-110775381D02*
X114635047Y-110775381D01*
X114920762Y-111775381D02*
X114920762Y-110775381D01*
X118777905Y-107275381D02*
X118777905Y-108084905D01*
X118730286Y-108180143D01*
X118682667Y-108227762D01*
X118587429Y-108275381D01*
X118396952Y-108275381D01*
X118301714Y-108227762D01*
X118254095Y-108180143D01*
X118206476Y-108084905D01*
X118206476Y-107275381D01*
X117301714Y-107275381D02*
X117492191Y-107275381D01*
X117587429Y-107323000D01*
X117635048Y-107370619D01*
X117730286Y-107513476D01*
X117777905Y-107703952D01*
X117777905Y-108084905D01*
X117730286Y-108180143D01*
X117682667Y-108227762D01*
X117587429Y-108275381D01*
X117396952Y-108275381D01*
X117301714Y-108227762D01*
X117254095Y-108180143D01*
X117206476Y-108084905D01*
X117206476Y-107846810D01*
X117254095Y-107751571D01*
X117301714Y-107703952D01*
X117396952Y-107656333D01*
X117587429Y-107656333D01*
X117682667Y-107703952D01*
X117730286Y-107751571D01*
X117777905Y-107846810D01*
X144796190Y-83010856D02*
X145272381Y-83010856D01*
X144272381Y-82677523D02*
X144796190Y-83010856D01*
X144272381Y-83344190D01*
X144367619Y-83629904D02*
X144320000Y-83677523D01*
X144272381Y-83772761D01*
X144272381Y-84010857D01*
X144320000Y-84106095D01*
X144367619Y-84153714D01*
X144462857Y-84201333D01*
X144558095Y-84201333D01*
X144700952Y-84153714D01*
X145272381Y-83582285D01*
X145272381Y-84201333D01*
X145272381Y-85534666D02*
X145224762Y-85439428D01*
X145177143Y-85391809D01*
X145081905Y-85344190D01*
X144796190Y-85344190D01*
X144700952Y-85391809D01*
X144653333Y-85439428D01*
X144605714Y-85534666D01*
X144605714Y-85677524D01*
X144653333Y-85772762D01*
X144700952Y-85820381D01*
X144796190Y-85868000D01*
X145081905Y-85868000D01*
X145177143Y-85820381D01*
X145224762Y-85772762D01*
X145272381Y-85677524D01*
X145272381Y-85534666D01*
X145272381Y-86296571D02*
X144605714Y-86296571D01*
X144796190Y-86296571D02*
X144700952Y-86344190D01*
X144653333Y-86391809D01*
X144605714Y-86487047D01*
X144605714Y-86582286D01*
X145224762Y-87629905D02*
X145272381Y-87772762D01*
X145272381Y-88010858D01*
X145224762Y-88106096D01*
X145177143Y-88153715D01*
X145081905Y-88201334D01*
X144986667Y-88201334D01*
X144891429Y-88153715D01*
X144843810Y-88106096D01*
X144796190Y-88010858D01*
X144748571Y-87820381D01*
X144700952Y-87725143D01*
X144653333Y-87677524D01*
X144558095Y-87629905D01*
X144462857Y-87629905D01*
X144367619Y-87677524D01*
X144320000Y-87725143D01*
X144272381Y-87820381D01*
X144272381Y-88058477D01*
X144320000Y-88201334D01*
X145224762Y-88582286D02*
X145272381Y-88725143D01*
X145272381Y-88963239D01*
X145224762Y-89058477D01*
X145177143Y-89106096D01*
X145081905Y-89153715D01*
X144986667Y-89153715D01*
X144891429Y-89106096D01*
X144843810Y-89058477D01*
X144796190Y-88963239D01*
X144748571Y-88772762D01*
X144700952Y-88677524D01*
X144653333Y-88629905D01*
X144558095Y-88582286D01*
X144462857Y-88582286D01*
X144367619Y-88629905D01*
X144320000Y-88677524D01*
X144272381Y-88772762D01*
X144272381Y-89010858D01*
X144320000Y-89153715D01*
X144700952Y-89725143D02*
X144653333Y-89629905D01*
X144605714Y-89582286D01*
X144510476Y-89534667D01*
X144462857Y-89534667D01*
X144367619Y-89582286D01*
X144320000Y-89629905D01*
X144272381Y-89725143D01*
X144272381Y-89915620D01*
X144320000Y-90010858D01*
X144367619Y-90058477D01*
X144462857Y-90106096D01*
X144510476Y-90106096D01*
X144605714Y-90058477D01*
X144653333Y-90010858D01*
X144700952Y-89915620D01*
X144700952Y-89725143D01*
X144748571Y-89629905D01*
X144796190Y-89582286D01*
X144891429Y-89534667D01*
X145081905Y-89534667D01*
X145177143Y-89582286D01*
X145224762Y-89629905D01*
X145272381Y-89725143D01*
X145272381Y-89915620D01*
X145224762Y-90010858D01*
X145177143Y-90058477D01*
X145081905Y-90106096D01*
X144891429Y-90106096D01*
X144796190Y-90058477D01*
X144748571Y-90010858D01*
X144700952Y-89915620D01*
X144272381Y-91010858D02*
X144272381Y-90534667D01*
X144748571Y-90487048D01*
X144700952Y-90534667D01*
X144653333Y-90629905D01*
X144653333Y-90868001D01*
X144700952Y-90963239D01*
X144748571Y-91010858D01*
X144843810Y-91058477D01*
X145081905Y-91058477D01*
X145177143Y-91010858D01*
X145224762Y-90963239D01*
X145272381Y-90868001D01*
X145272381Y-90629905D01*
X145224762Y-90534667D01*
X145177143Y-90487048D01*
X144272381Y-91963239D02*
X144272381Y-91487048D01*
X144748571Y-91439429D01*
X144700952Y-91487048D01*
X144653333Y-91582286D01*
X144653333Y-91820382D01*
X144700952Y-91915620D01*
X144748571Y-91963239D01*
X144843810Y-92010858D01*
X145081905Y-92010858D01*
X145177143Y-91963239D01*
X145224762Y-91915620D01*
X145272381Y-91820382D01*
X145272381Y-91582286D01*
X145224762Y-91487048D01*
X145177143Y-91439429D01*
X144272381Y-92629905D02*
X144272381Y-92725144D01*
X144320000Y-92820382D01*
X144367619Y-92868001D01*
X144462857Y-92915620D01*
X144653333Y-92963239D01*
X144891429Y-92963239D01*
X145081905Y-92915620D01*
X145177143Y-92868001D01*
X145224762Y-92820382D01*
X145272381Y-92725144D01*
X145272381Y-92629905D01*
X145224762Y-92534667D01*
X145177143Y-92487048D01*
X145081905Y-92439429D01*
X144891429Y-92391810D01*
X144653333Y-92391810D01*
X144462857Y-92439429D01*
X144367619Y-92487048D01*
X144320000Y-92534667D01*
X144272381Y-92629905D01*
D13*
X147915237Y-87594190D02*
X147748570Y-88094190D01*
X147581904Y-87594190D01*
X147486666Y-87594190D02*
X147200952Y-87594190D01*
X147343809Y-88094190D02*
X147343809Y-87594190D01*
X146772381Y-88094190D02*
X147058095Y-88094190D01*
X146915238Y-88094190D02*
X146915238Y-87594190D01*
X146962857Y-87665619D01*
X147010476Y-87713238D01*
X147058095Y-87737048D01*
D11*
X120364381Y-83841429D02*
X120364381Y-83270000D01*
X120364381Y-83555714D02*
X119364381Y-83555714D01*
X119507238Y-83460476D01*
X119602476Y-83365238D01*
X119650095Y-83270000D01*
X119459619Y-84222381D02*
X119412000Y-84270000D01*
X119364381Y-84365238D01*
X119364381Y-84603334D01*
X119412000Y-84698572D01*
X119459619Y-84746191D01*
X119554857Y-84793810D01*
X119650095Y-84793810D01*
X119792952Y-84746191D01*
X120364381Y-84174762D01*
X120364381Y-84793810D01*
X119697714Y-85222381D02*
X120697714Y-85222381D01*
X119745333Y-85222381D02*
X119697714Y-85317619D01*
X119697714Y-85508096D01*
X119745333Y-85603334D01*
X119792952Y-85650953D01*
X119888190Y-85698572D01*
X120173905Y-85698572D01*
X120269143Y-85650953D01*
X120316762Y-85603334D01*
X120364381Y-85508096D01*
X120364381Y-85317619D01*
X120316762Y-85222381D01*
X119697714Y-85984286D02*
X119697714Y-86365238D01*
X120364381Y-86127143D02*
X119507238Y-86127143D01*
X119412000Y-86174762D01*
X119364381Y-86270000D01*
X119364381Y-86365238D01*
X123019143Y-84603334D02*
X123066762Y-84555715D01*
X123114381Y-84412858D01*
X123114381Y-84317620D01*
X123066762Y-84174762D01*
X122971524Y-84079524D01*
X122876286Y-84031905D01*
X122685810Y-83984286D01*
X122542952Y-83984286D01*
X122352476Y-84031905D01*
X122257238Y-84079524D01*
X122162000Y-84174762D01*
X122114381Y-84317620D01*
X122114381Y-84412858D01*
X122162000Y-84555715D01*
X122209619Y-84603334D01*
X123114381Y-85079524D02*
X123114381Y-85270000D01*
X123066762Y-85365239D01*
X123019143Y-85412858D01*
X122876286Y-85508096D01*
X122685810Y-85555715D01*
X122304857Y-85555715D01*
X122209619Y-85508096D01*
X122162000Y-85460477D01*
X122114381Y-85365239D01*
X122114381Y-85174762D01*
X122162000Y-85079524D01*
X122209619Y-85031905D01*
X122304857Y-84984286D01*
X122542952Y-84984286D01*
X122638190Y-85031905D01*
X122685810Y-85079524D01*
X122733429Y-85174762D01*
X122733429Y-85365239D01*
X122685810Y-85460477D01*
X122638190Y-85508096D01*
X122542952Y-85555715D01*
X131032381Y-81941429D02*
X131032381Y-81370000D01*
X131032381Y-81655714D02*
X130032381Y-81655714D01*
X130175238Y-81560476D01*
X130270476Y-81465238D01*
X130318095Y-81370000D01*
X130127619Y-82322381D02*
X130080000Y-82370000D01*
X130032381Y-82465238D01*
X130032381Y-82703334D01*
X130080000Y-82798572D01*
X130127619Y-82846191D01*
X130222857Y-82893810D01*
X130318095Y-82893810D01*
X130460952Y-82846191D01*
X131032381Y-82274762D01*
X131032381Y-82893810D01*
X130365714Y-83322381D02*
X131365714Y-83322381D01*
X130413333Y-83322381D02*
X130365714Y-83417619D01*
X130365714Y-83608096D01*
X130413333Y-83703334D01*
X130460952Y-83750953D01*
X130556190Y-83798572D01*
X130841905Y-83798572D01*
X130937143Y-83750953D01*
X130984762Y-83703334D01*
X131032381Y-83608096D01*
X131032381Y-83417619D01*
X130984762Y-83322381D01*
X130365714Y-84084286D02*
X130365714Y-84465238D01*
X131032381Y-84227143D02*
X130175238Y-84227143D01*
X130080000Y-84274762D01*
X130032381Y-84370000D01*
X130032381Y-84465238D01*
X131437143Y-82177143D02*
X131484762Y-82129524D01*
X131532381Y-81986667D01*
X131532381Y-81891429D01*
X131484762Y-81748571D01*
X131389524Y-81653333D01*
X131294286Y-81605714D01*
X131103810Y-81558095D01*
X130960952Y-81558095D01*
X130770476Y-81605714D01*
X130675238Y-81653333D01*
X130580000Y-81748571D01*
X130532381Y-81891429D01*
X130532381Y-81986667D01*
X130580000Y-82129524D01*
X130627619Y-82177143D01*
X131532381Y-83129524D02*
X131532381Y-82558095D01*
X131532381Y-82843809D02*
X130532381Y-82843809D01*
X130675238Y-82748571D01*
X130770476Y-82653333D01*
X130818095Y-82558095D01*
X130532381Y-83462857D02*
X130532381Y-84081905D01*
X130913333Y-83748571D01*
X130913333Y-83891429D01*
X130960952Y-83986667D01*
X131008571Y-84034286D01*
X131103810Y-84081905D01*
X131341905Y-84081905D01*
X131437143Y-84034286D01*
X131484762Y-83986667D01*
X131532381Y-83891429D01*
X131532381Y-83605714D01*
X131484762Y-83510476D01*
X131437143Y-83462857D01*
X133973429Y-80303143D02*
X134021048Y-80350762D01*
X134163905Y-80398381D01*
X134259143Y-80398381D01*
X134402001Y-80350762D01*
X134497239Y-80255524D01*
X134544858Y-80160286D01*
X134592477Y-79969810D01*
X134592477Y-79826952D01*
X134544858Y-79636476D01*
X134497239Y-79541238D01*
X134402001Y-79446000D01*
X134259143Y-79398381D01*
X134163905Y-79398381D01*
X134021048Y-79446000D01*
X133973429Y-79493619D01*
X133544858Y-80398381D02*
X133544858Y-79731714D01*
X133544858Y-79922190D02*
X133497239Y-79826952D01*
X133449620Y-79779333D01*
X133354382Y-79731714D01*
X133259143Y-79731714D01*
X133021048Y-79731714D02*
X132782953Y-80398381D01*
X132544857Y-79731714D02*
X132782953Y-80398381D01*
X132878191Y-80636476D01*
X132925810Y-80684095D01*
X133021048Y-80731714D01*
X132211524Y-80350762D02*
X132116286Y-80398381D01*
X131925810Y-80398381D01*
X131830571Y-80350762D01*
X131782952Y-80255524D01*
X131782952Y-80207905D01*
X131830571Y-80112667D01*
X131925810Y-80065048D01*
X132068667Y-80065048D01*
X132163905Y-80017429D01*
X132211524Y-79922190D01*
X132211524Y-79874571D01*
X132163905Y-79779333D01*
X132068667Y-79731714D01*
X131925810Y-79731714D01*
X131830571Y-79779333D01*
X131497238Y-79731714D02*
X131116286Y-79731714D01*
X131354381Y-79398381D02*
X131354381Y-80255524D01*
X131306762Y-80350762D01*
X131211524Y-80398381D01*
X131116286Y-80398381D01*
X130354380Y-80398381D02*
X130354380Y-79874571D01*
X130401999Y-79779333D01*
X130497237Y-79731714D01*
X130687714Y-79731714D01*
X130782952Y-79779333D01*
X130354380Y-80350762D02*
X130449618Y-80398381D01*
X130687714Y-80398381D01*
X130782952Y-80350762D01*
X130830571Y-80255524D01*
X130830571Y-80160286D01*
X130782952Y-80065048D01*
X130687714Y-80017429D01*
X130449618Y-80017429D01*
X130354380Y-79969810D01*
X129735333Y-80398381D02*
X129830571Y-80350762D01*
X129878190Y-80255524D01*
X129878190Y-79398381D01*
X128592475Y-80398381D02*
X128592475Y-79398381D01*
X128021046Y-80398381D02*
X128449618Y-79826952D01*
X128021046Y-79398381D02*
X128592475Y-79969810D01*
X127687713Y-79398381D02*
X127021046Y-80398381D01*
X127021046Y-79398381D02*
X127687713Y-80398381D01*
X126640094Y-80017429D02*
X125878189Y-80017429D01*
X125497237Y-79398381D02*
X124830570Y-79398381D01*
X125259142Y-80398381D01*
X123735332Y-79493619D02*
X123687713Y-79446000D01*
X123592475Y-79398381D01*
X123354379Y-79398381D01*
X123259141Y-79446000D01*
X123211522Y-79493619D01*
X123163903Y-79588857D01*
X123163903Y-79684095D01*
X123211522Y-79826952D01*
X123782951Y-80398381D01*
X123163903Y-80398381D01*
X122259141Y-79398381D02*
X122735332Y-79398381D01*
X122782951Y-79874571D01*
X122735332Y-79826952D01*
X122640094Y-79779333D01*
X122401998Y-79779333D01*
X122306760Y-79826952D01*
X122259141Y-79874571D01*
X122211522Y-79969810D01*
X122211522Y-80207905D01*
X122259141Y-80303143D01*
X122306760Y-80350762D01*
X122401998Y-80398381D01*
X122640094Y-80398381D01*
X122735332Y-80350762D01*
X122782951Y-80303143D01*
X121782951Y-80398381D02*
X121782951Y-79398381D01*
X121449617Y-80112667D01*
X121116284Y-79398381D01*
X121116284Y-80398381D01*
X120640094Y-80398381D02*
X120640094Y-79398381D01*
X120640094Y-79874571D02*
X120068665Y-79874571D01*
X120068665Y-80398381D02*
X120068665Y-79398381D01*
X119687713Y-79731714D02*
X119163903Y-79731714D01*
X119687713Y-80398381D01*
X119163903Y-80398381D01*
X126997238Y-84193619D02*
X127092476Y-84146000D01*
X127187714Y-84050762D01*
X127330571Y-83907905D01*
X127425810Y-83860286D01*
X127521048Y-83860286D01*
X127473429Y-84098381D02*
X127568667Y-84050762D01*
X127663905Y-83955524D01*
X127711524Y-83765048D01*
X127711524Y-83431714D01*
X127663905Y-83241238D01*
X127568667Y-83146000D01*
X127473429Y-83098381D01*
X127282952Y-83098381D01*
X127187714Y-83146000D01*
X127092476Y-83241238D01*
X127044857Y-83431714D01*
X127044857Y-83765048D01*
X127092476Y-83955524D01*
X127187714Y-84050762D01*
X127282952Y-84098381D01*
X127473429Y-84098381D01*
X126092476Y-84098381D02*
X126663905Y-84098381D01*
X126378191Y-84098381D02*
X126378191Y-83098381D01*
X126473429Y-83241238D01*
X126568667Y-83336476D01*
X126663905Y-83384095D01*
X173695429Y-113785143D02*
X173743048Y-113832762D01*
X173885905Y-113880381D01*
X173981143Y-113880381D01*
X174124001Y-113832762D01*
X174219239Y-113737524D01*
X174266858Y-113642286D01*
X174314477Y-113451810D01*
X174314477Y-113308952D01*
X174266858Y-113118476D01*
X174219239Y-113023238D01*
X174124001Y-112928000D01*
X173981143Y-112880381D01*
X173885905Y-112880381D01*
X173743048Y-112928000D01*
X173695429Y-112975619D01*
X173266858Y-113880381D02*
X173266858Y-113213714D01*
X173266858Y-113404190D02*
X173219239Y-113308952D01*
X173171620Y-113261333D01*
X173076382Y-113213714D01*
X172981143Y-113213714D01*
X172743048Y-113213714D02*
X172504953Y-113880381D01*
X172266857Y-113213714D02*
X172504953Y-113880381D01*
X172600191Y-114118476D01*
X172647810Y-114166095D01*
X172743048Y-114213714D01*
X171933524Y-113832762D02*
X171838286Y-113880381D01*
X171647810Y-113880381D01*
X171552571Y-113832762D01*
X171504952Y-113737524D01*
X171504952Y-113689905D01*
X171552571Y-113594667D01*
X171647810Y-113547048D01*
X171790667Y-113547048D01*
X171885905Y-113499429D01*
X171933524Y-113404190D01*
X171933524Y-113356571D01*
X171885905Y-113261333D01*
X171790667Y-113213714D01*
X171647810Y-113213714D01*
X171552571Y-113261333D01*
X171219238Y-113213714D02*
X170838286Y-113213714D01*
X171076381Y-112880381D02*
X171076381Y-113737524D01*
X171028762Y-113832762D01*
X170933524Y-113880381D01*
X170838286Y-113880381D01*
X170076380Y-113880381D02*
X170076380Y-113356571D01*
X170123999Y-113261333D01*
X170219237Y-113213714D01*
X170409714Y-113213714D01*
X170504952Y-113261333D01*
X170076380Y-113832762D02*
X170171618Y-113880381D01*
X170409714Y-113880381D01*
X170504952Y-113832762D01*
X170552571Y-113737524D01*
X170552571Y-113642286D01*
X170504952Y-113547048D01*
X170409714Y-113499429D01*
X170171618Y-113499429D01*
X170076380Y-113451810D01*
X169457333Y-113880381D02*
X169552571Y-113832762D01*
X169600190Y-113737524D01*
X169600190Y-112880381D01*
X168314475Y-113880381D02*
X168314475Y-112880381D01*
X167743046Y-113880381D02*
X168171618Y-113308952D01*
X167743046Y-112880381D02*
X168314475Y-113451810D01*
X167409713Y-112880381D02*
X166743046Y-113880381D01*
X166743046Y-112880381D02*
X167409713Y-113880381D01*
X166362094Y-113499429D02*
X165600189Y-113499429D01*
X165219237Y-112880381D02*
X164552570Y-112880381D01*
X164981142Y-113880381D01*
X163457332Y-112975619D02*
X163409713Y-112928000D01*
X163314475Y-112880381D01*
X163076379Y-112880381D01*
X162981141Y-112928000D01*
X162933522Y-112975619D01*
X162885903Y-113070857D01*
X162885903Y-113166095D01*
X162933522Y-113308952D01*
X163504951Y-113880381D01*
X162885903Y-113880381D01*
X161981141Y-112880381D02*
X162457332Y-112880381D01*
X162504951Y-113356571D01*
X162457332Y-113308952D01*
X162362094Y-113261333D01*
X162123998Y-113261333D01*
X162028760Y-113308952D01*
X161981141Y-113356571D01*
X161933522Y-113451810D01*
X161933522Y-113689905D01*
X161981141Y-113785143D01*
X162028760Y-113832762D01*
X162123998Y-113880381D01*
X162362094Y-113880381D01*
X162457332Y-113832762D01*
X162504951Y-113785143D01*
X161504951Y-113880381D02*
X161504951Y-112880381D01*
X161171617Y-113594667D01*
X160838284Y-112880381D01*
X160838284Y-113880381D01*
X160362094Y-113880381D02*
X160362094Y-112880381D01*
X160362094Y-113356571D02*
X159790665Y-113356571D01*
X159790665Y-113880381D02*
X159790665Y-112880381D01*
X159409713Y-113213714D02*
X158885903Y-113213714D01*
X159409713Y-113880381D01*
X158885903Y-113880381D01*
X166719238Y-110275619D02*
X166814476Y-110228000D01*
X166909714Y-110132762D01*
X167052571Y-109989905D01*
X167147810Y-109942286D01*
X167243048Y-109942286D01*
X167195429Y-110180381D02*
X167290667Y-110132762D01*
X167385905Y-110037524D01*
X167433524Y-109847048D01*
X167433524Y-109513714D01*
X167385905Y-109323238D01*
X167290667Y-109228000D01*
X167195429Y-109180381D01*
X167004952Y-109180381D01*
X166909714Y-109228000D01*
X166814476Y-109323238D01*
X166766857Y-109513714D01*
X166766857Y-109847048D01*
X166814476Y-110037524D01*
X166909714Y-110132762D01*
X167004952Y-110180381D01*
X167195429Y-110180381D01*
X166385905Y-109275619D02*
X166338286Y-109228000D01*
X166243048Y-109180381D01*
X166004952Y-109180381D01*
X165909714Y-109228000D01*
X165862095Y-109275619D01*
X165814476Y-109370857D01*
X165814476Y-109466095D01*
X165862095Y-109608952D01*
X166433524Y-110180381D01*
X165814476Y-110180381D01*
X162062381Y-79494857D02*
X161062381Y-79494857D01*
X161776667Y-79828191D01*
X161062381Y-80161524D01*
X162062381Y-80161524D01*
X162062381Y-80685333D02*
X162062381Y-80875809D01*
X162014762Y-80971048D01*
X161967143Y-81018667D01*
X161824286Y-81113905D01*
X161633810Y-81161524D01*
X161252857Y-81161524D01*
X161157619Y-81113905D01*
X161110000Y-81066286D01*
X161062381Y-80971048D01*
X161062381Y-80780571D01*
X161110000Y-80685333D01*
X161157619Y-80637714D01*
X161252857Y-80590095D01*
X161490952Y-80590095D01*
X161586190Y-80637714D01*
X161633810Y-80685333D01*
X161681429Y-80780571D01*
X161681429Y-80971048D01*
X161633810Y-81066286D01*
X161586190Y-81113905D01*
X161490952Y-81161524D01*
X161062381Y-82066286D02*
X161062381Y-81590095D01*
X161538571Y-81542476D01*
X161490952Y-81590095D01*
X161443333Y-81685333D01*
X161443333Y-81923429D01*
X161490952Y-82018667D01*
X161538571Y-82066286D01*
X161633810Y-82113905D01*
X161871905Y-82113905D01*
X161967143Y-82066286D01*
X162014762Y-82018667D01*
X162062381Y-81923429D01*
X162062381Y-81685333D01*
X162014762Y-81590095D01*
X161967143Y-81542476D01*
X162062381Y-83066286D02*
X162062381Y-82494857D01*
X162062381Y-82780571D02*
X161062381Y-82780571D01*
X161205238Y-82685333D01*
X161300476Y-82590095D01*
X161348095Y-82494857D01*
X161062381Y-83923429D02*
X161062381Y-83732952D01*
X161110000Y-83637714D01*
X161157619Y-83590095D01*
X161300476Y-83494857D01*
X161490952Y-83447238D01*
X161871905Y-83447238D01*
X161967143Y-83494857D01*
X162014762Y-83542476D01*
X162062381Y-83637714D01*
X162062381Y-83828191D01*
X162014762Y-83923429D01*
X161967143Y-83971048D01*
X161871905Y-84018667D01*
X161633810Y-84018667D01*
X161538571Y-83971048D01*
X161490952Y-83923429D01*
X161443333Y-83828191D01*
X161443333Y-83637714D01*
X161490952Y-83542476D01*
X161538571Y-83494857D01*
X161633810Y-83447238D01*
X161062381Y-84637714D02*
X161062381Y-84732953D01*
X161110000Y-84828191D01*
X161157619Y-84875810D01*
X161252857Y-84923429D01*
X161443333Y-84971048D01*
X161681429Y-84971048D01*
X161871905Y-84923429D01*
X161967143Y-84875810D01*
X162014762Y-84828191D01*
X162062381Y-84732953D01*
X162062381Y-84637714D01*
X162014762Y-84542476D01*
X161967143Y-84494857D01*
X161871905Y-84447238D01*
X161681429Y-84399619D01*
X161443333Y-84399619D01*
X161252857Y-84447238D01*
X161157619Y-84494857D01*
X161110000Y-84542476D01*
X161062381Y-84637714D01*
X161681429Y-85399619D02*
X161681429Y-86161524D01*
X161062381Y-86542476D02*
X162062381Y-86780571D01*
X161348095Y-86971048D01*
X162062381Y-87161524D01*
X161062381Y-87399619D01*
X162062381Y-87780571D02*
X161062381Y-87780571D01*
X161776667Y-88113905D01*
X161062381Y-88447238D01*
X162062381Y-88447238D01*
X162062381Y-88923428D02*
X161062381Y-88923428D01*
X162062381Y-89494857D01*
X161062381Y-89494857D01*
X161062381Y-90399619D02*
X161062381Y-90209142D01*
X161110000Y-90113904D01*
X161157619Y-90066285D01*
X161300476Y-89971047D01*
X161490952Y-89923428D01*
X161871905Y-89923428D01*
X161967143Y-89971047D01*
X162014762Y-90018666D01*
X162062381Y-90113904D01*
X162062381Y-90304381D01*
X162014762Y-90399619D01*
X161967143Y-90447238D01*
X161871905Y-90494857D01*
X161633810Y-90494857D01*
X161538571Y-90447238D01*
X161490952Y-90399619D01*
X161443333Y-90304381D01*
X161443333Y-90113904D01*
X161490952Y-90018666D01*
X161538571Y-89971047D01*
X161633810Y-89923428D01*
X161062381Y-90780571D02*
X161062381Y-91352000D01*
X162062381Y-91066285D02*
X161062381Y-91066285D01*
X162062381Y-91685333D02*
X161062381Y-91685333D01*
X161062381Y-92066286D01*
X161110000Y-92161524D01*
X161157619Y-92209143D01*
X161252857Y-92256762D01*
X161395714Y-92256762D01*
X161490952Y-92209143D01*
X161538571Y-92161524D01*
X161586190Y-92066286D01*
X161586190Y-91685333D01*
X156932381Y-85090095D02*
X157741905Y-85090095D01*
X157837143Y-85137714D01*
X157884762Y-85185333D01*
X157932381Y-85280571D01*
X157932381Y-85471048D01*
X157884762Y-85566286D01*
X157837143Y-85613905D01*
X157741905Y-85661524D01*
X156932381Y-85661524D01*
X156932381Y-86042476D02*
X156932381Y-86709143D01*
X157932381Y-86280571D01*
X134444952Y-100432381D02*
X134778286Y-99956190D01*
X135016381Y-100432381D02*
X135016381Y-99432381D01*
X134635428Y-99432381D01*
X134540190Y-99480000D01*
X134492571Y-99527619D01*
X134444952Y-99622857D01*
X134444952Y-99765714D01*
X134492571Y-99860952D01*
X134540190Y-99908571D01*
X134635428Y-99956190D01*
X135016381Y-99956190D01*
X134159238Y-99432381D02*
X133587809Y-99432381D01*
X133873524Y-100432381D02*
X133873524Y-99432381D01*
X132778285Y-100432381D02*
X133254476Y-100432381D01*
X133254476Y-99432381D01*
X132302095Y-99860952D02*
X132397333Y-99813333D01*
X132444952Y-99765714D01*
X132492571Y-99670476D01*
X132492571Y-99622857D01*
X132444952Y-99527619D01*
X132397333Y-99480000D01*
X132302095Y-99432381D01*
X132111618Y-99432381D01*
X132016380Y-99480000D01*
X131968761Y-99527619D01*
X131921142Y-99622857D01*
X131921142Y-99670476D01*
X131968761Y-99765714D01*
X132016380Y-99813333D01*
X132111618Y-99860952D01*
X132302095Y-99860952D01*
X132397333Y-99908571D01*
X132444952Y-99956190D01*
X132492571Y-100051429D01*
X132492571Y-100241905D01*
X132444952Y-100337143D01*
X132397333Y-100384762D01*
X132302095Y-100432381D01*
X132111618Y-100432381D01*
X132016380Y-100384762D01*
X131968761Y-100337143D01*
X131921142Y-100241905D01*
X131921142Y-100051429D01*
X131968761Y-99956190D01*
X132016380Y-99908571D01*
X132111618Y-99860952D01*
X131540190Y-99527619D02*
X131492571Y-99480000D01*
X131397333Y-99432381D01*
X131159237Y-99432381D01*
X131063999Y-99480000D01*
X131016380Y-99527619D01*
X130968761Y-99622857D01*
X130968761Y-99718095D01*
X131016380Y-99860952D01*
X131587809Y-100432381D01*
X130968761Y-100432381D01*
X130349714Y-99432381D02*
X130254475Y-99432381D01*
X130159237Y-99480000D01*
X130111618Y-99527619D01*
X130063999Y-99622857D01*
X130016380Y-99813333D01*
X130016380Y-100051429D01*
X130063999Y-100241905D01*
X130111618Y-100337143D01*
X130159237Y-100384762D01*
X130254475Y-100432381D01*
X130349714Y-100432381D01*
X130444952Y-100384762D01*
X130492571Y-100337143D01*
X130540190Y-100241905D01*
X130587809Y-100051429D01*
X130587809Y-99813333D01*
X130540190Y-99622857D01*
X130492571Y-99527619D01*
X130444952Y-99480000D01*
X130349714Y-99432381D01*
X129063999Y-100432381D02*
X129635428Y-100432381D01*
X129349714Y-100432381D02*
X129349714Y-99432381D01*
X129444952Y-99575238D01*
X129540190Y-99670476D01*
X129635428Y-99718095D01*
X128063999Y-100337143D02*
X128111618Y-100384762D01*
X128254475Y-100432381D01*
X128349713Y-100432381D01*
X128492571Y-100384762D01*
X128587809Y-100289524D01*
X128635428Y-100194286D01*
X128683047Y-100003810D01*
X128683047Y-99860952D01*
X128635428Y-99670476D01*
X128587809Y-99575238D01*
X128492571Y-99480000D01*
X128349713Y-99432381D01*
X128254475Y-99432381D01*
X128111618Y-99480000D01*
X128063999Y-99527619D01*
X127635428Y-100432381D02*
X127635428Y-99432381D01*
X127254475Y-99432381D01*
X127159237Y-99480000D01*
X127111618Y-99527619D01*
X127063999Y-99622857D01*
X127063999Y-99765714D01*
X127111618Y-99860952D01*
X127159237Y-99908571D01*
X127254475Y-99956190D01*
X127635428Y-99956190D01*
X131825905Y-93432381D02*
X131825905Y-94241905D01*
X131778286Y-94337143D01*
X131730667Y-94384762D01*
X131635429Y-94432381D01*
X131444952Y-94432381D01*
X131349714Y-94384762D01*
X131302095Y-94337143D01*
X131254476Y-94241905D01*
X131254476Y-93432381D01*
X130254476Y-94432381D02*
X130825905Y-94432381D01*
X130540191Y-94432381D02*
X130540191Y-93432381D01*
X130635429Y-93575238D01*
X130730667Y-93670476D01*
X130825905Y-93718095D01*
M02*
