M48
;DRILL file {KiCad 4.0.7-e2-6376~58~ubuntu16.04.1} date Thu Feb 15 13:13:52 2018
;FORMAT={3:3/ absolute / metric / suppress leading zeros}
FMAT,2
METRIC,TZ
T1C0.400
T2C0.900
T3C1.000
T4C2.300
%
G90
G05
M71
T1
X112833Y-107809
X114076Y-109701
X117348Y-81788
X120971Y-89916
X120971Y-95504
X121513Y-82638
X123500Y-87000
X124815Y-93117
X124898Y-102536
X124968Y-99060
X125374Y-100679
X125400Y-103400
X125639Y-105321
X126400Y-101000
X126492Y-89916
X127000Y-98552
X128459Y-99897
X128524Y-92964
X128524Y-96012
X128591Y-101453
X129540Y-87884
X130000Y-111400
X130500Y-87085
X130800Y-111400
X131064Y-87884
X131800Y-111400
X131887Y-101453
X132105Y-87813
X132600Y-111400
X133000Y-101427
X133439Y-95231
X133500Y-97000
X133525Y-93836
X133535Y-99983
X133604Y-81788
X134112Y-101453
X136652Y-88392
X136652Y-90424
X136652Y-99061
X137160Y-96011
X137672Y-90729
X138842Y-91447
X139921Y-81358
X140017Y-96272
X142000Y-89500
X142240Y-91440
X142614Y-98436
X142839Y-103563
X143350Y-101392
X144020Y-97943
X144511Y-86760
X145327Y-95465
X145482Y-96326
X145500Y-93000
X146039Y-103767
X146212Y-102051
X146950Y-93026
X148614Y-107963
X148844Y-95504
X149513Y-93518
X149577Y-109354
X150000Y-108500
X150200Y-112452
X150876Y-92964
X151800Y-102093
X151835Y-105228
X152619Y-99878
X153729Y-91307
X154167Y-109467
X154456Y-97866
X154511Y-86002
X155591Y-89493
X155599Y-97201
X155742Y-116671
X156200Y-98517
X156949Y-89284
X157014Y-99356
X157864Y-108146
X157988Y-84328
X158194Y-111002
X158529Y-107468
X158540Y-89157
X158801Y-113039
X158809Y-110398
X160317Y-93378
X160528Y-83312
X160600Y-106400
X161799Y-110261
X162003Y-91103
X162052Y-88900
X162052Y-102311
X162560Y-99568
X163909Y-104440
X165065Y-104431
X167132Y-110744
X167993Y-93401
X168148Y-104581
X169005Y-94413
X174244Y-96012
X177292Y-98044
T2
X115648Y-117152
X115648Y-119652
X118364Y-103124
X120864Y-103124
X146400Y-117152
X146400Y-119652
X173000Y-99750
X173000Y-102290
X175000Y-99750
X175000Y-102290
X177000Y-83460
X177000Y-86000
X177000Y-88540
X177000Y-113460
X177000Y-116000
X177000Y-118540
T3
X109500Y-89600
X109500Y-92140
X109500Y-94680
X109500Y-97220
X109500Y-99760
X109500Y-102300
X109500Y-104840
X109500Y-107380
X109500Y-109920
X109500Y-112460
X134620Y-86868
X142220Y-86868
X151384Y-118872
X153924Y-118872
X156464Y-118872
X159004Y-118872
T4
X177700Y-95020
X177700Y-107020
T0
M30
