G04 #@! TF.FileFunction,Copper,L1,Top,Mixed*
%FSLAX46Y46*%
G04 Gerber Fmt 4.6, Leading zero omitted, Abs format (unit mm)*
G04 Created by KiCad (PCBNEW 4.0.7-e2-6376~58~ubuntu16.04.1) date Sat Oct 21 11:32:05 2017*
%MOMM*%
%LPD*%
G01*
G04 APERTURE LIST*
%ADD10C,0.100000*%
%ADD11R,2.000000X2.000000*%
%ADD12C,2.000000*%
%ADD13R,1.200000X0.750000*%
%ADD14R,0.750000X1.200000*%
%ADD15R,2.000000X2.500000*%
%ADD16R,2.500000X2.000000*%
%ADD17R,1.800000X1.800000*%
%ADD18C,1.800000*%
%ADD19R,0.900000X1.200000*%
%ADD20R,1.200000X0.900000*%
%ADD21C,1.520000*%
%ADD22C,2.700000*%
%ADD23R,1.700000X1.700000*%
%ADD24O,1.700000X1.700000*%
%ADD25R,1.600000X1.600000*%
%ADD26C,1.600000*%
%ADD27R,3.750000X1.050000*%
%ADD28R,8.300000X10.500000*%
%ADD29C,0.600000*%
%ADD30C,0.300000*%
%ADD31C,0.500000*%
%ADD32C,0.250000*%
%ADD33C,0.150000*%
%ADD34C,0.700000*%
%ADD35C,0.200000*%
%ADD36C,0.254000*%
G04 APERTURE END LIST*
D10*
D11*
X142220000Y-86868000D03*
D12*
X134620000Y-86868000D03*
D13*
X121000000Y-88000000D03*
X119100000Y-88000000D03*
X126116000Y-85344000D03*
X128016000Y-85344000D03*
D14*
X152908000Y-84196000D03*
X152908000Y-82296000D03*
X113284000Y-84328000D03*
X113284000Y-82428000D03*
D13*
X126116000Y-87376000D03*
X128016000Y-87376000D03*
D14*
X118550000Y-96500000D03*
X118550000Y-98400000D03*
D15*
X126556000Y-82804000D03*
X130556000Y-82804000D03*
D16*
X131064000Y-91980000D03*
X131064000Y-95980000D03*
D17*
X177000000Y-118540000D03*
D18*
X177000000Y-116000000D03*
X177000000Y-113460000D03*
D17*
X177000000Y-88540000D03*
D18*
X177000000Y-86000000D03*
X177000000Y-83460000D03*
D19*
X150368000Y-84328000D03*
X150368000Y-82128000D03*
D20*
X118300000Y-107500000D03*
X120500000Y-107500000D03*
D19*
X144000000Y-103500000D03*
X144000000Y-105700000D03*
D21*
X173000000Y-102290000D03*
X173000000Y-99750000D03*
X175000000Y-99750000D03*
X175000000Y-102290000D03*
D22*
X177700000Y-107020000D03*
X177700000Y-95020000D03*
D23*
X159004000Y-118872000D03*
D24*
X156464000Y-118872000D03*
X153924000Y-118872000D03*
X151384000Y-118872000D03*
D23*
X109500000Y-89600000D03*
D24*
X109500000Y-92140000D03*
X109500000Y-94680000D03*
X109500000Y-97220000D03*
X109500000Y-99760000D03*
X109500000Y-102300000D03*
X109500000Y-104840000D03*
X109500000Y-107380000D03*
X109500000Y-109920000D03*
X109500000Y-112460000D03*
D25*
X115648000Y-119652000D03*
D26*
X115648000Y-117152000D03*
D25*
X144112000Y-117152000D03*
D26*
X144112000Y-119652000D03*
D19*
X156464000Y-84668000D03*
X156464000Y-86868000D03*
X159512000Y-84752000D03*
X159512000Y-86952000D03*
D25*
X120864000Y-103124000D03*
D26*
X118364000Y-103124000D03*
D27*
X134112000Y-117856000D03*
X134112000Y-112776000D03*
D28*
X123612000Y-115316000D03*
D29*
X159000000Y-107000000D03*
X150876000Y-92964000D03*
X132105400Y-87812880D03*
X161544000Y-98044000D03*
X158886768Y-95386769D03*
X162052000Y-88900000D03*
X129540000Y-87884000D03*
X124945669Y-102638331D03*
X160528000Y-83312000D03*
X121512897Y-82638449D03*
X167132000Y-110744000D03*
X133604000Y-81788000D03*
X117348000Y-81788000D03*
X124815413Y-93116587D03*
X128524000Y-92964000D03*
X120971000Y-89916000D03*
X120971000Y-95504000D03*
X131572000Y-111586000D03*
X126492000Y-89916000D03*
X133524933Y-93835941D03*
X114808000Y-111252000D03*
X112776000Y-109220000D03*
X174244000Y-96012000D03*
X144272000Y-91440000D03*
X137668000Y-90999000D03*
X141732000Y-97536000D03*
X128524000Y-96012000D03*
X148339042Y-109524494D03*
X152660236Y-109938228D03*
X160588087Y-110804087D03*
X142240000Y-100584000D03*
X136652000Y-99061000D03*
X137160000Y-96011000D03*
X166728818Y-94433374D03*
X164082643Y-104547870D03*
X167758445Y-95463000D03*
X164918748Y-104581000D03*
X151834934Y-105228354D03*
X126190192Y-104608507D03*
X148844000Y-95504000D03*
X147282783Y-109686995D03*
X152284861Y-103328368D03*
X136652000Y-90424000D03*
X144272000Y-98552000D03*
X138684000Y-91440000D03*
X156972000Y-99486248D03*
X145327083Y-95464917D03*
X153450842Y-99095804D03*
X145481523Y-96326477D03*
X128016000Y-102740053D03*
X133176499Y-102027501D03*
X125373856Y-100678830D03*
X128458824Y-99897012D03*
X127449743Y-100316517D03*
X131887417Y-101551593D03*
X124968000Y-99060000D03*
X127000000Y-98552000D03*
X142240000Y-91440000D03*
X131064000Y-87884000D03*
X155207242Y-97412322D03*
X152800770Y-91710109D03*
X177292000Y-98044000D03*
X161036000Y-92964000D03*
X161705586Y-106701464D03*
X164693047Y-98128373D03*
X150876000Y-112310000D03*
X123952000Y-108204000D03*
X124865265Y-104285501D03*
X156464000Y-98552000D03*
X154824999Y-86360000D03*
X158496000Y-87884000D03*
X158760000Y-91440000D03*
X157988000Y-84328000D03*
X161687813Y-109361495D03*
X144805320Y-92592104D03*
X139000000Y-106000000D03*
X154000000Y-89500000D03*
X133439199Y-95231100D03*
X133500000Y-97000000D03*
X136652000Y-88392000D03*
X133534515Y-99982864D03*
X134112000Y-101600000D03*
X137668000Y-115316000D03*
X130392247Y-87212247D03*
X158496000Y-101667000D03*
X168148000Y-104581000D03*
X158496000Y-114300000D03*
X145500000Y-102000000D03*
X150000000Y-108500000D03*
X157663379Y-109489255D03*
X149500000Y-93500000D03*
X162560000Y-99568000D03*
X162052000Y-102310814D03*
X155448000Y-115824000D03*
D30*
X118550000Y-98400000D02*
X118550000Y-102938000D01*
X118550000Y-102938000D02*
X118364000Y-103124000D01*
X119100000Y-88000000D02*
X119100000Y-85051346D01*
X119100000Y-85051346D02*
X121512897Y-82638449D01*
X161544000Y-98044000D02*
X162220002Y-98044000D01*
X162220002Y-98044000D02*
X163360001Y-99183999D01*
X163360001Y-102639999D02*
X159000000Y-107000000D01*
X163360001Y-99183999D02*
X163360001Y-102639999D01*
X158886768Y-95386769D02*
X158462504Y-95386769D01*
X158320743Y-95528530D02*
X153016266Y-95528530D01*
X150876000Y-93388264D02*
X150876000Y-92964000D01*
X158462504Y-95386769D02*
X158320743Y-95528530D01*
X153016266Y-95528530D02*
X150876000Y-93388264D01*
D31*
X145288000Y-80400000D02*
X133604000Y-80400000D01*
X152908000Y-80400000D02*
X145288000Y-80400000D01*
X150876000Y-121600000D02*
X144272000Y-121600000D01*
X144272000Y-121600000D02*
X140716000Y-121600000D01*
D30*
X144112000Y-120783370D02*
X144272000Y-120943370D01*
X144112000Y-119652000D02*
X144112000Y-120783370D01*
X144272000Y-120943370D02*
X144272000Y-121600000D01*
X134620000Y-86868000D02*
X133050280Y-86868000D01*
X133050280Y-86868000D02*
X132105400Y-87812880D01*
X158886768Y-95386769D02*
X159186768Y-95686768D01*
X159186768Y-95686768D02*
X161544000Y-98044000D01*
D31*
X163068000Y-87400000D02*
X161800000Y-87400000D01*
X171200000Y-87400000D02*
X163068000Y-87400000D01*
D30*
X163068000Y-87400000D02*
X163068000Y-87884000D01*
X163068000Y-87884000D02*
X162052000Y-88900000D01*
X128016000Y-87376000D02*
X129032000Y-87376000D01*
X129032000Y-87376000D02*
X129540000Y-87884000D01*
D32*
X175000000Y-99750000D02*
X175000000Y-97720000D01*
X175000000Y-97720000D02*
X177700000Y-95020000D01*
D30*
X167132000Y-110744000D02*
X167132000Y-114600000D01*
D31*
X123612000Y-115316000D02*
X123612000Y-120866000D01*
X123612000Y-120866000D02*
X124346000Y-121600000D01*
D30*
X124346000Y-121600000D02*
X124460000Y-121600000D01*
D31*
X140716000Y-121600000D02*
X124460000Y-121600000D01*
X161600000Y-121600000D02*
X150876000Y-121600000D01*
D30*
X151384000Y-118872000D02*
X151384000Y-121092000D01*
X151384000Y-121092000D02*
X150876000Y-121600000D01*
D31*
X161600000Y-80400000D02*
X152908000Y-80400000D01*
D30*
X152908000Y-82296000D02*
X152908000Y-80400000D01*
X128016000Y-87376000D02*
X128016000Y-85344000D01*
D31*
X117348000Y-80400000D02*
X113284000Y-80400000D01*
X113284000Y-80400000D02*
X111700000Y-80400000D01*
D30*
X113284000Y-82428000D02*
X113284000Y-80400000D01*
X160528000Y-83312000D02*
X161600000Y-83312000D01*
X160528000Y-83312000D02*
X160528000Y-83736000D01*
X160528000Y-83736000D02*
X159512000Y-84752000D01*
D31*
X161600000Y-87200000D02*
X161600000Y-83312000D01*
X161600000Y-83312000D02*
X161600000Y-81788000D01*
D30*
X161600000Y-83414000D02*
X161600000Y-83312000D01*
D31*
X132588000Y-80400000D02*
X128524000Y-80400000D01*
X128524000Y-80400000D02*
X121920000Y-80400000D01*
D33*
X128016000Y-85344000D02*
X128016000Y-84819000D01*
X128524000Y-84311000D02*
X128524000Y-80400000D01*
X128016000Y-84819000D02*
X128524000Y-84311000D01*
D31*
X121920000Y-80400000D02*
X117348000Y-80400000D01*
D30*
X121920000Y-82231346D02*
X121920000Y-80400000D01*
X121512897Y-82638449D02*
X121920000Y-82231346D01*
D31*
X183600000Y-80400000D02*
X183600000Y-85852000D01*
D30*
X178272792Y-86000000D02*
X178420792Y-85852000D01*
D31*
X183600000Y-85852000D02*
X183600000Y-94996000D01*
D30*
X177000000Y-86000000D02*
X178272792Y-86000000D01*
X178420792Y-85852000D02*
X183600000Y-85852000D01*
D31*
X161600000Y-81788000D02*
X161600000Y-80400000D01*
X183600000Y-94996000D02*
X183600000Y-107188000D01*
D30*
X177700000Y-95020000D02*
X183576000Y-95020000D01*
X183576000Y-95020000D02*
X183600000Y-94996000D01*
D31*
X183600000Y-107188000D02*
X183600000Y-115824000D01*
X183600000Y-115824000D02*
X183600000Y-121600000D01*
D30*
X183432000Y-107020000D02*
X183600000Y-107188000D01*
X177700000Y-107020000D02*
X183432000Y-107020000D01*
D31*
X171200000Y-114600000D02*
X167132000Y-114600000D01*
X167132000Y-114600000D02*
X161900000Y-114600000D01*
X133604000Y-80400000D02*
X132588000Y-80400000D01*
D30*
X133604000Y-80400000D02*
X133604000Y-81788000D01*
X117348000Y-80400000D02*
X117348000Y-81788000D01*
D31*
X111700000Y-80400000D02*
X111700000Y-90424000D01*
X111700000Y-90424000D02*
X111700000Y-97560000D01*
X161600000Y-114800000D02*
X161600000Y-121600000D01*
X161800000Y-114600000D02*
X161600000Y-114800000D01*
X161900000Y-114600000D02*
X161800000Y-114600000D01*
X171400000Y-114800000D02*
X171200000Y-114600000D01*
X171400000Y-114900000D02*
X171400000Y-114800000D01*
X171400000Y-121600000D02*
X171400000Y-114900000D01*
X183600000Y-121600000D02*
X171400000Y-121600000D01*
X171400000Y-80400000D02*
X183600000Y-80400000D01*
X171400000Y-80400000D02*
X171400000Y-87200000D01*
X171400000Y-87200000D02*
X171200000Y-87400000D01*
X161800000Y-87400000D02*
X161600000Y-87200000D01*
X111700000Y-97560000D02*
X109500000Y-99760000D01*
X109500000Y-102300000D02*
X109500000Y-99760000D01*
D32*
X120971000Y-89916000D02*
X118647000Y-89916000D01*
X118647000Y-89916000D02*
X113284000Y-84553000D01*
X113284000Y-84553000D02*
X113284000Y-84328000D01*
X121000000Y-88000000D02*
X121000000Y-89887000D01*
X121000000Y-89887000D02*
X120971000Y-89916000D01*
X120864000Y-102148000D02*
X120971000Y-102041000D01*
X120971000Y-102041000D02*
X120971000Y-95504000D01*
X120864000Y-103124000D02*
X120864000Y-102148000D01*
X124815413Y-93116587D02*
X122428000Y-95504000D01*
X122428000Y-95504000D02*
X120971000Y-95504000D01*
X131064000Y-91980000D02*
X130814000Y-91980000D01*
X130814000Y-91980000D02*
X129830000Y-92964000D01*
X129830000Y-92964000D02*
X128524000Y-92964000D01*
X120971000Y-89916000D02*
X120971000Y-95504000D01*
X134112000Y-112776000D02*
X132762000Y-112776000D01*
X132762000Y-112776000D02*
X131572000Y-111586000D01*
X126492000Y-89916000D02*
X125190999Y-88614999D01*
X126116000Y-85344000D02*
X125266000Y-85344000D01*
X125266000Y-85344000D02*
X125190999Y-85419001D01*
X125190999Y-85419001D02*
X125190999Y-88614999D01*
X126556000Y-82804000D02*
X126556000Y-84904000D01*
X126556000Y-84904000D02*
X126116000Y-85344000D01*
X133458059Y-93835941D02*
X133524933Y-93835941D01*
X131314000Y-95980000D02*
X133458059Y-93835941D01*
X126116000Y-87376000D02*
X126341000Y-87376000D01*
X133524933Y-93411677D02*
X133524933Y-93835941D01*
X133524933Y-91360933D02*
X133524933Y-93411677D01*
X126341000Y-87376000D02*
X128373000Y-89408000D01*
X128373000Y-89408000D02*
X131572000Y-89408000D01*
X131572000Y-89408000D02*
X133524933Y-91360933D01*
X131064000Y-95980000D02*
X131314000Y-95980000D01*
X117925000Y-96500000D02*
X118550000Y-96500000D01*
X112776000Y-101649000D02*
X117925000Y-96500000D01*
X112776000Y-109220000D02*
X112776000Y-101649000D01*
X112776000Y-109220000D02*
X114808000Y-111252000D01*
X144272000Y-91440000D02*
X144801887Y-90910113D01*
X144801887Y-90910113D02*
X157379111Y-90910113D01*
X157379111Y-90910113D02*
X158483999Y-92015001D01*
X158483999Y-92015001D02*
X170247001Y-92015001D01*
X170247001Y-92015001D02*
X173944001Y-95712001D01*
X173944001Y-95712001D02*
X174244000Y-96012000D01*
X137668000Y-90999000D02*
X137668000Y-93472000D01*
X137668000Y-93472000D02*
X141732000Y-97536000D01*
X130382998Y-98044000D02*
X128524000Y-96185002D01*
X128524000Y-96185002D02*
X128524000Y-96012000D01*
X135128000Y-98044000D02*
X130382998Y-98044000D01*
X135636000Y-97536000D02*
X135128000Y-98044000D01*
X135636000Y-90588998D02*
X135636000Y-97536000D01*
X150368000Y-84328000D02*
X150368000Y-84478000D01*
X150368000Y-84478000D02*
X142830999Y-92015001D01*
X142830999Y-92015001D02*
X140840699Y-92015001D01*
X140840699Y-92015001D02*
X138674697Y-89848999D01*
X136375999Y-89848999D02*
X135636000Y-90588998D01*
X138674697Y-89848999D02*
X136375999Y-89848999D01*
X148339042Y-109100230D02*
X148339042Y-109524494D01*
X148339042Y-106258778D02*
X148339042Y-109100230D01*
X142240000Y-100584000D02*
X142664264Y-100584000D01*
X142664264Y-100584000D02*
X148339042Y-106258778D01*
X152960235Y-110238227D02*
X152660236Y-109938228D01*
X160588087Y-110804087D02*
X153526095Y-110804087D01*
X153526095Y-110804087D02*
X152960235Y-110238227D01*
X136652000Y-96519000D02*
X137160000Y-96011000D01*
X136652000Y-99061000D02*
X136652000Y-96519000D01*
X166728818Y-101901695D02*
X166728818Y-94857638D01*
X164082643Y-104547870D02*
X166728818Y-101901695D01*
X166728818Y-94857638D02*
X166728818Y-94433374D01*
X167758445Y-95887264D02*
X167758445Y-95463000D01*
X164918748Y-104581000D02*
X167758445Y-101741303D01*
X167758445Y-101741303D02*
X167758445Y-95887264D01*
D34*
X120500000Y-107500000D02*
X121800000Y-107500000D01*
X121800000Y-107500000D02*
X123864498Y-105435502D01*
X123864498Y-105435502D02*
X125363197Y-105435502D01*
X125363197Y-105435502D02*
X125890193Y-104908506D01*
X125890193Y-104908506D02*
X126190192Y-104608507D01*
D32*
X140529656Y-104219787D02*
X146181740Y-109871871D01*
X146181740Y-110144538D02*
X147289202Y-111252000D01*
X126190192Y-104608507D02*
X126578912Y-104219787D01*
X151626011Y-109098591D02*
X151626011Y-108540314D01*
X126578912Y-104219787D02*
X140529656Y-104219787D01*
X147289202Y-111252000D02*
X149472602Y-111252000D01*
X149472602Y-111252000D02*
X151626011Y-109098591D01*
X151834934Y-108331391D02*
X151834934Y-105652618D01*
X151626011Y-108540314D02*
X151834934Y-108331391D01*
X151834934Y-105652618D02*
X151834934Y-105228354D01*
X146181740Y-109871871D02*
X146181740Y-110144538D01*
X141963999Y-100008999D02*
X141664999Y-100307999D01*
X151843171Y-104303380D02*
X151820525Y-104280734D01*
X153825298Y-104303380D02*
X151843171Y-104303380D01*
X151820525Y-104280734D02*
X149475808Y-104280734D01*
X149475808Y-104280734D02*
X145204073Y-100008999D01*
X153664045Y-96903542D02*
X154957442Y-98196939D01*
X141664999Y-100307999D02*
X141664999Y-101164999D01*
X157148223Y-97934921D02*
X158670990Y-99457688D01*
X155509446Y-98196939D02*
X155771464Y-97934921D01*
X155771464Y-97934921D02*
X157148223Y-97934921D01*
X148844000Y-95504000D02*
X150243542Y-96903542D01*
X154957442Y-98196939D02*
X155509446Y-98196939D01*
X158670990Y-99457688D02*
X153825298Y-104303380D01*
X150243542Y-96903542D02*
X153664045Y-96903542D01*
X145204073Y-100008999D02*
X141963999Y-100008999D01*
X141664999Y-101164999D02*
X144000000Y-103500000D01*
X147282783Y-109132783D02*
X147282783Y-109262731D01*
X144000000Y-105850000D02*
X147282783Y-109132783D01*
X144000000Y-105700000D02*
X144000000Y-105850000D01*
X147282783Y-109262731D02*
X147282783Y-109686995D01*
X151984862Y-103028369D02*
X152284861Y-103328368D01*
X151962216Y-103005723D02*
X151984862Y-103028369D01*
X151232080Y-103005723D02*
X151962216Y-103005723D01*
X136652000Y-90424000D02*
X138650357Y-90424000D01*
X138650357Y-90424000D02*
X151232080Y-103005723D01*
X138684000Y-92964000D02*
X144272000Y-98552000D01*
X138684000Y-91440000D02*
X138684000Y-92964000D01*
X145327083Y-95464917D02*
X145751347Y-95464917D01*
X152509395Y-99186249D02*
X153174841Y-98520803D01*
X156547736Y-99486248D02*
X156972000Y-99486248D01*
X148977705Y-99186249D02*
X152509395Y-99186249D01*
X145751347Y-95464917D02*
X146106524Y-95820094D01*
X146106524Y-95820094D02*
X146106524Y-96315068D01*
X154692288Y-99486248D02*
X156547736Y-99486248D01*
X146106524Y-96315068D02*
X148977705Y-99186249D01*
X153726843Y-98520803D02*
X154692288Y-99486248D01*
X153174841Y-98520803D02*
X153726843Y-98520803D01*
X145481523Y-96326477D02*
X148743530Y-99588484D01*
X152958162Y-99588484D02*
X153150843Y-99395803D01*
X153150843Y-99395803D02*
X153450842Y-99095804D01*
X148743530Y-99588484D02*
X152958162Y-99588484D01*
D33*
X128440264Y-102740053D02*
X128016000Y-102740053D01*
X132463947Y-102740053D02*
X128440264Y-102740053D01*
X133176499Y-102027501D02*
X132463947Y-102740053D01*
D32*
X125673855Y-100378831D02*
X125373856Y-100678830D01*
X126455673Y-99597013D02*
X125673855Y-100378831D01*
X128158825Y-99597013D02*
X126455673Y-99597013D01*
X128458824Y-99897012D02*
X128158825Y-99597013D01*
X127749742Y-100616516D02*
X127449743Y-100316517D01*
X128684819Y-101551593D02*
X127749742Y-100616516D01*
X131887417Y-101551593D02*
X128684819Y-101551593D01*
D35*
X124968000Y-99060000D02*
X126492000Y-99060000D01*
X126492000Y-99060000D02*
X127000000Y-98552000D01*
D32*
X142240000Y-91440000D02*
X140208000Y-89408000D01*
X140208000Y-89408000D02*
X133096000Y-89408000D01*
X132588000Y-89408000D02*
X131064000Y-87884000D01*
X133096000Y-89408000D02*
X132588000Y-89408000D01*
X153924000Y-118872000D02*
X151824999Y-116772999D01*
X151824999Y-116772999D02*
X151824999Y-109960278D01*
X151824999Y-109960278D02*
X153850541Y-107934736D01*
X153850541Y-107934736D02*
X153850541Y-107376458D01*
X153850541Y-107376458D02*
X156003998Y-105223001D01*
X156003998Y-105223001D02*
X156740001Y-105223001D01*
X156740001Y-105223001D02*
X159071001Y-102892001D01*
X159071001Y-102892001D02*
X159071001Y-99291999D01*
X159071001Y-99291999D02*
X157191324Y-97412322D01*
X157191324Y-97412322D02*
X155631506Y-97412322D01*
X155631506Y-97412322D02*
X155207242Y-97412322D01*
X154054661Y-92964000D02*
X153100769Y-92010108D01*
X153100769Y-92010108D02*
X152800770Y-91710109D01*
X161036000Y-92964000D02*
X154054661Y-92964000D01*
X156464000Y-118872000D02*
X169672000Y-105664000D01*
X169672000Y-105664000D02*
X173157802Y-105664000D01*
X173157802Y-105664000D02*
X174244000Y-105664000D01*
X174244000Y-105664000D02*
X177292000Y-102616000D01*
X177292000Y-102616000D02*
X177292000Y-98044000D01*
X145431729Y-110455202D02*
X147286527Y-112310000D01*
X123952000Y-108204000D02*
X125542868Y-108204000D01*
X125542868Y-108204000D02*
X128771345Y-104975523D01*
X128771345Y-104975523D02*
X140175328Y-104975523D01*
X150451736Y-112310000D02*
X150876000Y-112310000D01*
X140175328Y-104975523D02*
X145431729Y-110231924D01*
X145431729Y-110231924D02*
X145431729Y-110455202D01*
X147286527Y-112310000D02*
X150451736Y-112310000D01*
X161705586Y-105513732D02*
X161705586Y-106277200D01*
X164236575Y-98584845D02*
X164236575Y-102982743D01*
X164236575Y-102982743D02*
X161705586Y-105513732D01*
X164693047Y-98128373D02*
X164236575Y-98584845D01*
X161705586Y-106277200D02*
X161705586Y-106701464D01*
X157547001Y-99210737D02*
X157547001Y-99844001D01*
X156464000Y-98552000D02*
X156888264Y-98552000D01*
X153487633Y-103903369D02*
X152008860Y-103903369D01*
X152008860Y-103903369D02*
X151804492Y-103699001D01*
X157547001Y-99844001D02*
X153487633Y-103903369D01*
X139065271Y-99608988D02*
X135283569Y-103390690D01*
X125165264Y-103985502D02*
X124865265Y-104285501D01*
X150640480Y-103699001D02*
X146550467Y-99608988D01*
X125760076Y-103390690D02*
X125165264Y-103985502D01*
X151804492Y-103699001D02*
X150640480Y-103699001D01*
X146550467Y-99608988D02*
X139065271Y-99608988D01*
X156888264Y-98552000D02*
X157547001Y-99210737D01*
X135283569Y-103390690D02*
X125760076Y-103390690D01*
X156464000Y-86868000D02*
X155332999Y-86868000D01*
X155332999Y-86868000D02*
X154824999Y-86360000D01*
X158496000Y-87884000D02*
X158580000Y-87884000D01*
X158580000Y-87884000D02*
X159512000Y-86952000D01*
X159512000Y-86952000D02*
X159495000Y-86952000D01*
X158760000Y-91440000D02*
X158760000Y-91015736D01*
X158760000Y-91015736D02*
X157920999Y-90176735D01*
X157920999Y-90176735D02*
X157920999Y-87443001D01*
X157920999Y-87443001D02*
X157988000Y-87376000D01*
X157988000Y-84328000D02*
X157988000Y-87376000D01*
D30*
X119452998Y-109220000D02*
X119500000Y-109220000D01*
X119500000Y-109220000D02*
X128524000Y-109220000D01*
X118300000Y-107500000D02*
X118300000Y-108200000D01*
X119320000Y-109220000D02*
X119500000Y-109220000D01*
X118300000Y-108200000D02*
X119320000Y-109220000D01*
X118364000Y-110308998D02*
X118364000Y-117986000D01*
X130048000Y-115142000D02*
X132762000Y-117856000D01*
X130048000Y-110744000D02*
X130048000Y-115142000D01*
X128524000Y-109220000D02*
X130048000Y-110744000D01*
X118364000Y-110308998D02*
X119452998Y-109220000D01*
X116698000Y-119652000D02*
X115648000Y-119652000D01*
X118364000Y-117986000D02*
X116698000Y-119652000D01*
D32*
X132762000Y-117856000D02*
X134112000Y-117856000D01*
D31*
X164226522Y-94462731D02*
X165489813Y-93199440D01*
X167411271Y-93199440D02*
X169298485Y-95086654D01*
X151164107Y-91931758D02*
X153695080Y-94462731D01*
X153695080Y-94462731D02*
X164226522Y-94462731D01*
X169298485Y-95086654D02*
X169298485Y-101750823D01*
X165489813Y-93199440D02*
X167411271Y-93199440D01*
X169298485Y-101750823D02*
X161987812Y-109061496D01*
X145465666Y-91931758D02*
X151164107Y-91931758D01*
X144805320Y-92592104D02*
X145465666Y-91931758D01*
X161987812Y-109061496D02*
X161687813Y-109361495D01*
D30*
X137668000Y-115316000D02*
X137668000Y-107332000D01*
X137668000Y-107332000D02*
X139000000Y-106000000D01*
X152908000Y-88408000D02*
X152908000Y-86500000D01*
X152908000Y-86500000D02*
X152908000Y-84196000D01*
X154000000Y-89500000D02*
X152908000Y-88408000D01*
X133500000Y-95291901D02*
X133439199Y-95231100D01*
X133500000Y-97000000D02*
X133500000Y-95291901D01*
X150368000Y-82128000D02*
X149818000Y-82128000D01*
X149818000Y-82128000D02*
X148738723Y-83207277D01*
X148738723Y-83207277D02*
X141836723Y-83207277D01*
X150368000Y-82128000D02*
X150368000Y-82278000D01*
X150368000Y-82278000D02*
X152286000Y-84196000D01*
X152286000Y-84196000D02*
X152433000Y-84196000D01*
X152433000Y-84196000D02*
X152908000Y-84196000D01*
X141836723Y-83207277D02*
X136652000Y-88392000D01*
D35*
X134112000Y-101600000D02*
X134112000Y-100560349D01*
X134112000Y-100560349D02*
X133534515Y-99982864D01*
D30*
X152908000Y-84196000D02*
X155992000Y-84196000D01*
X155992000Y-84196000D02*
X156464000Y-84668000D01*
X130556000Y-82804000D02*
X130556000Y-84354000D01*
X130556000Y-84354000D02*
X130392247Y-84517753D01*
X130392247Y-84517753D02*
X130392247Y-87212247D01*
D32*
X158920264Y-114300000D02*
X158496000Y-114300000D01*
X168148000Y-105312077D02*
X159160077Y-114300000D01*
X159160077Y-114300000D02*
X158920264Y-114300000D01*
X168148000Y-104581000D02*
X168148000Y-105312077D01*
X171083000Y-101667000D02*
X171062000Y-101667000D01*
X171062000Y-101667000D02*
X168148000Y-104581000D01*
X171083000Y-101667000D02*
X173000000Y-99750000D01*
X158496000Y-114254000D02*
X158496000Y-114300000D01*
D30*
X150000000Y-108500000D02*
X150000000Y-106500000D01*
X150000000Y-106500000D02*
X145500000Y-102000000D01*
X161388089Y-111188089D02*
X161388089Y-110420085D01*
X160457259Y-109489255D02*
X158087643Y-109489255D01*
X159667911Y-111604089D02*
X160972089Y-111604089D01*
X158087643Y-109489255D02*
X157663379Y-109489255D01*
X160972089Y-111604089D02*
X161388089Y-111188089D01*
X155448000Y-115824000D02*
X159667911Y-111604089D01*
D35*
X157663379Y-109064991D02*
X157663379Y-109489255D01*
X157663379Y-106699435D02*
X157663379Y-109064991D01*
X162052000Y-102310814D02*
X157663379Y-106699435D01*
D30*
X161388089Y-110420085D02*
X160457259Y-109489255D01*
X162560000Y-99568000D02*
X160230899Y-99568000D01*
X160230899Y-99568000D02*
X156941431Y-96278532D01*
X156941431Y-96278532D02*
X152278532Y-96278532D01*
X152278532Y-96278532D02*
X149500000Y-93500000D01*
D35*
X162052000Y-101867000D02*
X162052000Y-100076000D01*
X162052000Y-100076000D02*
X162560000Y-99568000D01*
X162052000Y-102310814D02*
X162052000Y-101867000D01*
D36*
G36*
X161290000Y-87000000D02*
X161344046Y-87271705D01*
X161497954Y-87502046D01*
X161728295Y-87655954D01*
X162000000Y-87710000D01*
X171000000Y-87710000D01*
X171271705Y-87655954D01*
X171295581Y-87640000D01*
X175452560Y-87640000D01*
X175452560Y-89440000D01*
X175496838Y-89675317D01*
X175635910Y-89891441D01*
X175848110Y-90036431D01*
X176100000Y-90087440D01*
X177900000Y-90087440D01*
X178135317Y-90043162D01*
X178351441Y-89904090D01*
X178496431Y-89691890D01*
X178547440Y-89440000D01*
X178547440Y-87640000D01*
X178503162Y-87404683D01*
X178364090Y-87188559D01*
X178160426Y-87049402D01*
X178194718Y-87015110D01*
X178080161Y-86900553D01*
X178336643Y-86814148D01*
X178546458Y-86240664D01*
X178520839Y-85630540D01*
X178336643Y-85185852D01*
X178080159Y-85099446D01*
X177179605Y-86000000D01*
X177193748Y-86014143D01*
X177014143Y-86193748D01*
X177000000Y-86179605D01*
X176985858Y-86193748D01*
X176806253Y-86014143D01*
X176820395Y-86000000D01*
X175919841Y-85099446D01*
X175663357Y-85185852D01*
X175453542Y-85759336D01*
X175479161Y-86369460D01*
X175663357Y-86814148D01*
X175919839Y-86900553D01*
X175805282Y-87015110D01*
X175841760Y-87051588D01*
X175648559Y-87175910D01*
X175503569Y-87388110D01*
X175452560Y-87640000D01*
X171295581Y-87640000D01*
X171502046Y-87502046D01*
X171655954Y-87271705D01*
X171710000Y-87000000D01*
X171710000Y-83763991D01*
X175464735Y-83763991D01*
X175697932Y-84328371D01*
X176129357Y-84760551D01*
X176150194Y-84769203D01*
X176099446Y-84919841D01*
X177000000Y-85820395D01*
X177900554Y-84919841D01*
X177849965Y-84769673D01*
X177868371Y-84762068D01*
X178300551Y-84330643D01*
X178534733Y-83766670D01*
X178535265Y-83156009D01*
X178302068Y-82591629D01*
X177870643Y-82159449D01*
X177306670Y-81925267D01*
X176696009Y-81924735D01*
X176131629Y-82157932D01*
X175699449Y-82589357D01*
X175465267Y-83153330D01*
X175464735Y-83763991D01*
X171710000Y-83763991D01*
X171710000Y-80710000D01*
X183290000Y-80710000D01*
X183290000Y-121290000D01*
X171710000Y-121290000D01*
X171710000Y-117640000D01*
X175452560Y-117640000D01*
X175452560Y-119440000D01*
X175496838Y-119675317D01*
X175635910Y-119891441D01*
X175848110Y-120036431D01*
X176100000Y-120087440D01*
X177900000Y-120087440D01*
X178135317Y-120043162D01*
X178351441Y-119904090D01*
X178496431Y-119691890D01*
X178547440Y-119440000D01*
X178547440Y-117640000D01*
X178503162Y-117404683D01*
X178364090Y-117188559D01*
X178151890Y-117043569D01*
X178131466Y-117039433D01*
X178300551Y-116870643D01*
X178534733Y-116306670D01*
X178535265Y-115696009D01*
X178302068Y-115131629D01*
X177900818Y-114729677D01*
X178300551Y-114330643D01*
X178534733Y-113766670D01*
X178535265Y-113156009D01*
X178302068Y-112591629D01*
X177870643Y-112159449D01*
X177306670Y-111925267D01*
X176696009Y-111924735D01*
X176131629Y-112157932D01*
X175699449Y-112589357D01*
X175465267Y-113153330D01*
X175464735Y-113763991D01*
X175697932Y-114328371D01*
X176099182Y-114730323D01*
X175699449Y-115129357D01*
X175465267Y-115693330D01*
X175464735Y-116303991D01*
X175697932Y-116868371D01*
X175865880Y-117036613D01*
X175864683Y-117036838D01*
X175648559Y-117175910D01*
X175503569Y-117388110D01*
X175452560Y-117640000D01*
X171710000Y-117640000D01*
X171710000Y-115000000D01*
X171655954Y-114728295D01*
X171502046Y-114497954D01*
X171271705Y-114344046D01*
X171000000Y-114290000D01*
X162120802Y-114290000D01*
X167985209Y-108425593D01*
X176474012Y-108425593D01*
X176615478Y-108728782D01*
X177351955Y-109013737D01*
X178141418Y-108995164D01*
X178784522Y-108728782D01*
X178925988Y-108425593D01*
X177700000Y-107199605D01*
X176474012Y-108425593D01*
X167985209Y-108425593D01*
X169738847Y-106671955D01*
X175706263Y-106671955D01*
X175724836Y-107461418D01*
X175991218Y-108104522D01*
X176294407Y-108245988D01*
X177520395Y-107020000D01*
X177879605Y-107020000D01*
X179105593Y-108245988D01*
X179408782Y-108104522D01*
X179693737Y-107368045D01*
X179675164Y-106578582D01*
X179408782Y-105935478D01*
X179105593Y-105794012D01*
X177879605Y-107020000D01*
X177520395Y-107020000D01*
X176294407Y-105794012D01*
X175991218Y-105935478D01*
X175706263Y-106671955D01*
X169738847Y-106671955D01*
X169986802Y-106424000D01*
X174244000Y-106424000D01*
X174534839Y-106366148D01*
X174781401Y-106201401D01*
X175368395Y-105614407D01*
X176474012Y-105614407D01*
X177700000Y-106840395D01*
X178925988Y-105614407D01*
X178784522Y-105311218D01*
X178048045Y-105026263D01*
X177258582Y-105044836D01*
X176615478Y-105311218D01*
X176474012Y-105614407D01*
X175368395Y-105614407D01*
X177829401Y-103153401D01*
X177994148Y-102906839D01*
X178052000Y-102616000D01*
X178052000Y-98606463D01*
X178084192Y-98574327D01*
X178226838Y-98230799D01*
X178227162Y-97858833D01*
X178085117Y-97515057D01*
X177822327Y-97251808D01*
X177478799Y-97109162D01*
X177106833Y-97108838D01*
X176763057Y-97250883D01*
X176499808Y-97513673D01*
X176357162Y-97857201D01*
X176356838Y-98229167D01*
X176498883Y-98572943D01*
X176532000Y-98606118D01*
X176532000Y-102301198D01*
X176394872Y-102438326D01*
X176395242Y-102013735D01*
X176183313Y-101500828D01*
X175791236Y-101108066D01*
X175595066Y-101026609D01*
X175729941Y-100970742D01*
X175799159Y-100728764D01*
X175000000Y-99929605D01*
X174200841Y-100728764D01*
X174270059Y-100970742D01*
X174414862Y-101022382D01*
X174210828Y-101106687D01*
X173999976Y-101317171D01*
X173791236Y-101108066D01*
X173579262Y-101020046D01*
X173789172Y-100933313D01*
X174181934Y-100541236D01*
X174290419Y-100279976D01*
X174820395Y-99750000D01*
X175179605Y-99750000D01*
X175978764Y-100549159D01*
X176220742Y-100479941D01*
X176407155Y-99957220D01*
X176379341Y-99402951D01*
X176220742Y-99020059D01*
X175978764Y-98950841D01*
X175179605Y-99750000D01*
X174820395Y-99750000D01*
X174290405Y-99220010D01*
X174183313Y-98960828D01*
X173994052Y-98771236D01*
X174200841Y-98771236D01*
X175000000Y-99570395D01*
X175799159Y-98771236D01*
X175729941Y-98529258D01*
X175207220Y-98342845D01*
X174652951Y-98370659D01*
X174270059Y-98529258D01*
X174200841Y-98771236D01*
X173994052Y-98771236D01*
X173791236Y-98568066D01*
X173278700Y-98355242D01*
X172723735Y-98354758D01*
X172210828Y-98566687D01*
X171818066Y-98958764D01*
X171605242Y-99471300D01*
X171604758Y-100026265D01*
X171617674Y-100057524D01*
X170587886Y-101087312D01*
X170524599Y-101129599D01*
X170183485Y-101470713D01*
X170183485Y-95086659D01*
X170183486Y-95086654D01*
X170119060Y-94762769D01*
X170116118Y-94747979D01*
X169924275Y-94460864D01*
X169924272Y-94460862D01*
X168238412Y-92775001D01*
X169932199Y-92775001D01*
X173308878Y-96151680D01*
X173308838Y-96197167D01*
X173450883Y-96540943D01*
X173713673Y-96804192D01*
X174057201Y-96946838D01*
X174429167Y-96947162D01*
X174772943Y-96805117D01*
X175036192Y-96542327D01*
X175084664Y-96425593D01*
X176474012Y-96425593D01*
X176615478Y-96728782D01*
X177351955Y-97013737D01*
X178141418Y-96995164D01*
X178784522Y-96728782D01*
X178925988Y-96425593D01*
X177700000Y-95199605D01*
X176474012Y-96425593D01*
X175084664Y-96425593D01*
X175178838Y-96198799D01*
X175179162Y-95826833D01*
X175037117Y-95483057D01*
X174774327Y-95219808D01*
X174430799Y-95077162D01*
X174383923Y-95077121D01*
X173978757Y-94671955D01*
X175706263Y-94671955D01*
X175724836Y-95461418D01*
X175991218Y-96104522D01*
X176294407Y-96245988D01*
X177520395Y-95020000D01*
X177879605Y-95020000D01*
X179105593Y-96245988D01*
X179408782Y-96104522D01*
X179693737Y-95368045D01*
X179675164Y-94578582D01*
X179408782Y-93935478D01*
X179105593Y-93794012D01*
X177879605Y-95020000D01*
X177520395Y-95020000D01*
X176294407Y-93794012D01*
X175991218Y-93935478D01*
X175706263Y-94671955D01*
X173978757Y-94671955D01*
X172921209Y-93614407D01*
X176474012Y-93614407D01*
X177700000Y-94840395D01*
X178925988Y-93614407D01*
X178784522Y-93311218D01*
X178048045Y-93026263D01*
X177258582Y-93044836D01*
X176615478Y-93311218D01*
X176474012Y-93614407D01*
X172921209Y-93614407D01*
X170784402Y-91477600D01*
X170537840Y-91312853D01*
X170247001Y-91255001D01*
X159695162Y-91255001D01*
X159695162Y-91254833D01*
X159553117Y-90911057D01*
X159485755Y-90843578D01*
X159462148Y-90724897D01*
X159297401Y-90478335D01*
X158680999Y-89861933D01*
X158680999Y-88819162D01*
X158681167Y-88819162D01*
X159024943Y-88677117D01*
X159288192Y-88414327D01*
X159377421Y-88199440D01*
X159962000Y-88199440D01*
X160197317Y-88155162D01*
X160413441Y-88016090D01*
X160558431Y-87803890D01*
X160609440Y-87552000D01*
X160609440Y-86352000D01*
X160565162Y-86116683D01*
X160426090Y-85900559D01*
X160357994Y-85854031D01*
X160500327Y-85711698D01*
X160597000Y-85478309D01*
X160597000Y-85037750D01*
X160438250Y-84879000D01*
X159639000Y-84879000D01*
X159639000Y-84899000D01*
X159385000Y-84899000D01*
X159385000Y-84879000D01*
X159365000Y-84879000D01*
X159365000Y-84625000D01*
X159385000Y-84625000D01*
X159385000Y-83675750D01*
X159639000Y-83675750D01*
X159639000Y-84625000D01*
X160438250Y-84625000D01*
X160597000Y-84466250D01*
X160597000Y-84025691D01*
X160500327Y-83792302D01*
X160321699Y-83613673D01*
X160088310Y-83517000D01*
X159797750Y-83517000D01*
X159639000Y-83675750D01*
X159385000Y-83675750D01*
X159226250Y-83517000D01*
X158935690Y-83517000D01*
X158702301Y-83613673D01*
X158649132Y-83666842D01*
X158518327Y-83535808D01*
X158174799Y-83393162D01*
X157802833Y-83392838D01*
X157459057Y-83534883D01*
X157377584Y-83616214D01*
X157165890Y-83471569D01*
X156914000Y-83420560D01*
X156040061Y-83420560D01*
X155992000Y-83411000D01*
X153895630Y-83411000D01*
X153886162Y-83360683D01*
X153819671Y-83257354D01*
X153821327Y-83255698D01*
X153918000Y-83022309D01*
X153918000Y-82581750D01*
X153759250Y-82423000D01*
X153035000Y-82423000D01*
X153035000Y-82443000D01*
X152781000Y-82443000D01*
X152781000Y-82423000D01*
X152056750Y-82423000D01*
X151898000Y-82581750D01*
X151898000Y-82697842D01*
X151465440Y-82265282D01*
X151465440Y-81569691D01*
X151898000Y-81569691D01*
X151898000Y-82010250D01*
X152056750Y-82169000D01*
X152781000Y-82169000D01*
X152781000Y-81219750D01*
X153035000Y-81219750D01*
X153035000Y-82169000D01*
X153759250Y-82169000D01*
X153918000Y-82010250D01*
X153918000Y-81569691D01*
X153821327Y-81336302D01*
X153642699Y-81157673D01*
X153409310Y-81061000D01*
X153193750Y-81061000D01*
X153035000Y-81219750D01*
X152781000Y-81219750D01*
X152622250Y-81061000D01*
X152406690Y-81061000D01*
X152173301Y-81157673D01*
X151994673Y-81336302D01*
X151898000Y-81569691D01*
X151465440Y-81569691D01*
X151465440Y-81528000D01*
X151421162Y-81292683D01*
X151282090Y-81076559D01*
X151069890Y-80931569D01*
X150818000Y-80880560D01*
X149918000Y-80880560D01*
X149682683Y-80924838D01*
X149466559Y-81063910D01*
X149321569Y-81276110D01*
X149270560Y-81528000D01*
X149270560Y-81567817D01*
X149262921Y-81572921D01*
X148413565Y-82422277D01*
X141836728Y-82422277D01*
X141836723Y-82422276D01*
X141536317Y-82482032D01*
X141281644Y-82652198D01*
X136476995Y-87456847D01*
X136466833Y-87456838D01*
X136123057Y-87598883D01*
X136074733Y-87647122D01*
X136265908Y-87132539D01*
X136241856Y-86482540D01*
X136039387Y-85993736D01*
X135772532Y-85895073D01*
X134799605Y-86868000D01*
X134813748Y-86882143D01*
X134634143Y-87061748D01*
X134620000Y-87047605D01*
X133647073Y-88020532D01*
X133745736Y-88287387D01*
X134355461Y-88513908D01*
X135005460Y-88489856D01*
X135494264Y-88287387D01*
X135592926Y-88020534D01*
X135707206Y-88134814D01*
X135774213Y-88067807D01*
X135717162Y-88205201D01*
X135716838Y-88577167D01*
X135746106Y-88648000D01*
X132902802Y-88648000D01*
X131999122Y-87744320D01*
X131999162Y-87698833D01*
X131857117Y-87355057D01*
X131594327Y-87091808D01*
X131304413Y-86971424D01*
X131185364Y-86683304D01*
X131177247Y-86675173D01*
X131177247Y-86603461D01*
X132974092Y-86603461D01*
X132998144Y-87253460D01*
X133200613Y-87742264D01*
X133467468Y-87840927D01*
X134440395Y-86868000D01*
X133467468Y-85895073D01*
X133200613Y-85993736D01*
X132974092Y-86603461D01*
X131177247Y-86603461D01*
X131177247Y-85715468D01*
X133647073Y-85715468D01*
X134620000Y-86688395D01*
X135592927Y-85715468D01*
X135494264Y-85448613D01*
X134884539Y-85222092D01*
X134234540Y-85246144D01*
X133745736Y-85448613D01*
X133647073Y-85715468D01*
X131177247Y-85715468D01*
X131177247Y-84810051D01*
X131249818Y-84701440D01*
X131556000Y-84701440D01*
X131791317Y-84657162D01*
X132007441Y-84518090D01*
X132152431Y-84305890D01*
X132203440Y-84054000D01*
X132203440Y-81554000D01*
X132159162Y-81318683D01*
X132020090Y-81102559D01*
X131807890Y-80957569D01*
X131556000Y-80906560D01*
X129556000Y-80906560D01*
X129320683Y-80950838D01*
X129104559Y-81089910D01*
X128959569Y-81302110D01*
X128908560Y-81554000D01*
X128908560Y-84054000D01*
X128952838Y-84289317D01*
X129091910Y-84505441D01*
X129304110Y-84650431D01*
X129556000Y-84701440D01*
X129607247Y-84701440D01*
X129607247Y-86674741D01*
X129600055Y-86681920D01*
X129457409Y-87025448D01*
X129457085Y-87397414D01*
X129599130Y-87741190D01*
X129861920Y-88004439D01*
X130151834Y-88124823D01*
X130270883Y-88412943D01*
X130505530Y-88648000D01*
X128687802Y-88648000D01*
X128425802Y-88386000D01*
X128742309Y-88386000D01*
X128975698Y-88289327D01*
X129154327Y-88110699D01*
X129251000Y-87877310D01*
X129251000Y-87661750D01*
X129092250Y-87503000D01*
X128143000Y-87503000D01*
X128143000Y-87523000D01*
X127889000Y-87523000D01*
X127889000Y-87503000D01*
X127869000Y-87503000D01*
X127869000Y-87249000D01*
X127889000Y-87249000D01*
X127889000Y-86524750D01*
X128143000Y-86524750D01*
X128143000Y-87249000D01*
X129092250Y-87249000D01*
X129251000Y-87090250D01*
X129251000Y-86874690D01*
X129154327Y-86641301D01*
X128975698Y-86462673D01*
X128742309Y-86366000D01*
X128301750Y-86366000D01*
X128143000Y-86524750D01*
X127889000Y-86524750D01*
X127730250Y-86366000D01*
X127289691Y-86366000D01*
X127056302Y-86462673D01*
X127054932Y-86464043D01*
X126967890Y-86404569D01*
X126748969Y-86360236D01*
X126951317Y-86322162D01*
X127054646Y-86255671D01*
X127056302Y-86257327D01*
X127289691Y-86354000D01*
X127730250Y-86354000D01*
X127889000Y-86195250D01*
X127889000Y-85471000D01*
X128143000Y-85471000D01*
X128143000Y-86195250D01*
X128301750Y-86354000D01*
X128742309Y-86354000D01*
X128975698Y-86257327D01*
X129154327Y-86078699D01*
X129251000Y-85845310D01*
X129251000Y-85629750D01*
X129092250Y-85471000D01*
X128143000Y-85471000D01*
X127889000Y-85471000D01*
X127869000Y-85471000D01*
X127869000Y-85217000D01*
X127889000Y-85217000D01*
X127889000Y-85197000D01*
X128143000Y-85197000D01*
X128143000Y-85217000D01*
X129092250Y-85217000D01*
X129251000Y-85058250D01*
X129251000Y-84842690D01*
X129154327Y-84609301D01*
X128975698Y-84430673D01*
X128742309Y-84334000D01*
X128301750Y-84334000D01*
X128143002Y-84492748D01*
X128143002Y-84334000D01*
X128133224Y-84334000D01*
X128152431Y-84305890D01*
X128203440Y-84054000D01*
X128203440Y-81554000D01*
X128159162Y-81318683D01*
X128020090Y-81102559D01*
X127807890Y-80957569D01*
X127556000Y-80906560D01*
X125556000Y-80906560D01*
X125320683Y-80950838D01*
X125104559Y-81089910D01*
X124959569Y-81302110D01*
X124908560Y-81554000D01*
X124908560Y-84054000D01*
X124952838Y-84289317D01*
X125083659Y-84492619D01*
X125064559Y-84504910D01*
X124967488Y-84646978D01*
X124728599Y-84806599D01*
X124653598Y-84881600D01*
X124488851Y-85128162D01*
X124430999Y-85419001D01*
X124430999Y-88614999D01*
X124488851Y-88905838D01*
X124653598Y-89152400D01*
X125556878Y-90055680D01*
X125556838Y-90101167D01*
X125698883Y-90444943D01*
X125961673Y-90708192D01*
X126305201Y-90850838D01*
X126677167Y-90851162D01*
X127020943Y-90709117D01*
X127284192Y-90446327D01*
X127426838Y-90102799D01*
X127427162Y-89730833D01*
X127290653Y-89400455D01*
X127835599Y-89945401D01*
X128082161Y-90110148D01*
X128373000Y-90168000D01*
X131257198Y-90168000D01*
X131421758Y-90332560D01*
X129814000Y-90332560D01*
X129578683Y-90376838D01*
X129362559Y-90515910D01*
X129217569Y-90728110D01*
X129166560Y-90980000D01*
X129166560Y-92204000D01*
X129086463Y-92204000D01*
X129054327Y-92171808D01*
X128710799Y-92029162D01*
X128338833Y-92028838D01*
X127995057Y-92170883D01*
X127731808Y-92433673D01*
X127589162Y-92777201D01*
X127588838Y-93149167D01*
X127730883Y-93492943D01*
X127993673Y-93756192D01*
X128337201Y-93898838D01*
X128709167Y-93899162D01*
X129052943Y-93757117D01*
X129086118Y-93724000D01*
X129830000Y-93724000D01*
X130120839Y-93666148D01*
X130178770Y-93627440D01*
X132314000Y-93627440D01*
X132549317Y-93583162D01*
X132642351Y-93523296D01*
X132604325Y-93614873D01*
X131886638Y-94332560D01*
X129814000Y-94332560D01*
X129578683Y-94376838D01*
X129362559Y-94515910D01*
X129217569Y-94728110D01*
X129166560Y-94980000D01*
X129166560Y-95332237D01*
X129054327Y-95219808D01*
X128710799Y-95077162D01*
X128338833Y-95076838D01*
X127995057Y-95218883D01*
X127731808Y-95481673D01*
X127589162Y-95825201D01*
X127588838Y-96197167D01*
X127730883Y-96540943D01*
X127993673Y-96804192D01*
X128121443Y-96857247D01*
X129845597Y-98581401D01*
X130092158Y-98746148D01*
X130382998Y-98804000D01*
X135128000Y-98804000D01*
X135418839Y-98746148D01*
X135665401Y-98581401D01*
X135892000Y-98354802D01*
X135892000Y-98498537D01*
X135859808Y-98530673D01*
X135717162Y-98874201D01*
X135716838Y-99246167D01*
X135858883Y-99589943D01*
X136121673Y-99853192D01*
X136465201Y-99995838D01*
X136837167Y-99996162D01*
X137180943Y-99854117D01*
X137444192Y-99591327D01*
X137586838Y-99247799D01*
X137587162Y-98875833D01*
X137445117Y-98532057D01*
X137412000Y-98498882D01*
X137412000Y-96918547D01*
X137688943Y-96804117D01*
X137952192Y-96541327D01*
X138094838Y-96197799D01*
X138095162Y-95825833D01*
X137953117Y-95482057D01*
X137690327Y-95218808D01*
X137346799Y-95076162D01*
X136974833Y-95075838D01*
X136631057Y-95217883D01*
X136396000Y-95452530D01*
X136396000Y-91330103D01*
X136465201Y-91358838D01*
X136805133Y-91359134D01*
X136874883Y-91527943D01*
X136908000Y-91561118D01*
X136908000Y-93472000D01*
X136965852Y-93762839D01*
X137130599Y-94009401D01*
X140796878Y-97675680D01*
X140796838Y-97721167D01*
X140938883Y-98064943D01*
X141201673Y-98328192D01*
X141545201Y-98470838D01*
X141917167Y-98471162D01*
X142260943Y-98329117D01*
X142524192Y-98066327D01*
X142579156Y-97933958D01*
X143336878Y-98691680D01*
X143336838Y-98737167D01*
X143383041Y-98848988D01*
X139065271Y-98848988D01*
X138774431Y-98906840D01*
X138527870Y-99071587D01*
X134968767Y-102630690D01*
X133895702Y-102630690D01*
X133968691Y-102557828D01*
X133978218Y-102534884D01*
X134297167Y-102535162D01*
X134640943Y-102393117D01*
X134904192Y-102130327D01*
X135046838Y-101786799D01*
X135047162Y-101414833D01*
X134905117Y-101071057D01*
X134847000Y-101012838D01*
X134847000Y-100560349D01*
X134791051Y-100279077D01*
X134730460Y-100188396D01*
X134631723Y-100040625D01*
X134469607Y-99878509D01*
X134469677Y-99797697D01*
X134327632Y-99453921D01*
X134064842Y-99190672D01*
X133721314Y-99048026D01*
X133349348Y-99047702D01*
X133005572Y-99189747D01*
X132742323Y-99452537D01*
X132599677Y-99796065D01*
X132599353Y-100168031D01*
X132741398Y-100511807D01*
X133004188Y-100775056D01*
X133347716Y-100917702D01*
X133377000Y-100917728D01*
X133377000Y-101012581D01*
X133319808Y-101069673D01*
X133310281Y-101092617D01*
X132991332Y-101092339D01*
X132750453Y-101191868D01*
X132680534Y-101022650D01*
X132417744Y-100759401D01*
X132074216Y-100616755D01*
X131702250Y-100616431D01*
X131358474Y-100758476D01*
X131325299Y-100791593D01*
X128999621Y-100791593D01*
X128924357Y-100716329D01*
X128987767Y-100690129D01*
X129251016Y-100427339D01*
X129393662Y-100083811D01*
X129393986Y-99711845D01*
X129251941Y-99368069D01*
X128989151Y-99104820D01*
X128645623Y-98962174D01*
X128550275Y-98962091D01*
X128449664Y-98894865D01*
X128158825Y-98837013D01*
X127894056Y-98837013D01*
X127934838Y-98738799D01*
X127935162Y-98366833D01*
X127793117Y-98023057D01*
X127530327Y-97759808D01*
X127186799Y-97617162D01*
X126814833Y-97616838D01*
X126471057Y-97758883D01*
X126207808Y-98021673D01*
X126081855Y-98325000D01*
X125555419Y-98325000D01*
X125498327Y-98267808D01*
X125154799Y-98125162D01*
X124782833Y-98124838D01*
X124439057Y-98266883D01*
X124175808Y-98529673D01*
X124033162Y-98873201D01*
X124032838Y-99245167D01*
X124174883Y-99588943D01*
X124437673Y-99852192D01*
X124748994Y-99981465D01*
X124581664Y-100148503D01*
X124439018Y-100492031D01*
X124438694Y-100863997D01*
X124580739Y-101207773D01*
X124843529Y-101471022D01*
X125187057Y-101613668D01*
X125559023Y-101613992D01*
X125902799Y-101471947D01*
X126166048Y-101209157D01*
X126308694Y-100865629D01*
X126308735Y-100818753D01*
X126547101Y-100580387D01*
X126656626Y-100845460D01*
X126919416Y-101108709D01*
X127262944Y-101251355D01*
X127309820Y-101251396D01*
X127863343Y-101804919D01*
X127830833Y-101804891D01*
X127487057Y-101946936D01*
X127223808Y-102209726D01*
X127081162Y-102553254D01*
X127081095Y-102630690D01*
X125760076Y-102630690D01*
X125469236Y-102688542D01*
X125222675Y-102853289D01*
X124725585Y-103350379D01*
X124680098Y-103350339D01*
X124336322Y-103492384D01*
X124073073Y-103755174D01*
X123930427Y-104098702D01*
X123930121Y-104450502D01*
X123864498Y-104450502D01*
X123487555Y-104525481D01*
X123167998Y-104739002D01*
X121412214Y-106494786D01*
X121351890Y-106453569D01*
X121100000Y-106402560D01*
X119900000Y-106402560D01*
X119664683Y-106446838D01*
X119448559Y-106585910D01*
X119400866Y-106655711D01*
X119364090Y-106598559D01*
X119151890Y-106453569D01*
X118900000Y-106402560D01*
X117700000Y-106402560D01*
X117464683Y-106446838D01*
X117248559Y-106585910D01*
X117103569Y-106798110D01*
X117052560Y-107050000D01*
X117052560Y-107950000D01*
X117096838Y-108185317D01*
X117235910Y-108401441D01*
X117448110Y-108546431D01*
X117630137Y-108583292D01*
X117744921Y-108755079D01*
X118276341Y-109286499D01*
X117808921Y-109753919D01*
X117638755Y-110008591D01*
X117590513Y-110251117D01*
X117579000Y-110308998D01*
X117579000Y-117660842D01*
X116868837Y-118371005D01*
X116699890Y-118255569D01*
X116461799Y-118207354D01*
X116476139Y-118159745D01*
X115648000Y-117331605D01*
X114819861Y-118159745D01*
X114834145Y-118207167D01*
X114612683Y-118248838D01*
X114396559Y-118387910D01*
X114251569Y-118600110D01*
X114200560Y-118852000D01*
X114200560Y-120452000D01*
X114244838Y-120687317D01*
X114383910Y-120903441D01*
X114596110Y-121048431D01*
X114848000Y-121099440D01*
X116448000Y-121099440D01*
X116683317Y-121055162D01*
X116899441Y-120916090D01*
X117044431Y-120703890D01*
X117095440Y-120452000D01*
X117095440Y-120312410D01*
X117253079Y-120207079D01*
X118827000Y-118633158D01*
X118827000Y-120692310D01*
X118923673Y-120925699D01*
X119102302Y-121104327D01*
X119335691Y-121201000D01*
X123326250Y-121201000D01*
X123485000Y-121042250D01*
X123485000Y-115443000D01*
X123739000Y-115443000D01*
X123739000Y-121042250D01*
X123897750Y-121201000D01*
X127888309Y-121201000D01*
X128121698Y-121104327D01*
X128300327Y-120925699D01*
X128397000Y-120692310D01*
X128397000Y-120659745D01*
X143283861Y-120659745D01*
X143357995Y-120905864D01*
X143895223Y-121098965D01*
X144465454Y-121071778D01*
X144866005Y-120905864D01*
X144940139Y-120659745D01*
X144112000Y-119831605D01*
X143283861Y-120659745D01*
X128397000Y-120659745D01*
X128397000Y-119435223D01*
X142665035Y-119435223D01*
X142692222Y-120005454D01*
X142858136Y-120406005D01*
X143104255Y-120480139D01*
X143932395Y-119652000D01*
X144291605Y-119652000D01*
X145119745Y-120480139D01*
X145365864Y-120406005D01*
X145558965Y-119868777D01*
X145531778Y-119298546D01*
X145502927Y-119228892D01*
X149942514Y-119228892D01*
X150188817Y-119753358D01*
X150617076Y-120143645D01*
X151027110Y-120313476D01*
X151257000Y-120192155D01*
X151257000Y-118999000D01*
X150063181Y-118999000D01*
X149942514Y-119228892D01*
X145502927Y-119228892D01*
X145365864Y-118897995D01*
X145119745Y-118823861D01*
X144291605Y-119652000D01*
X143932395Y-119652000D01*
X143104255Y-118823861D01*
X142858136Y-118897995D01*
X142665035Y-119435223D01*
X128397000Y-119435223D01*
X128397000Y-115601750D01*
X128238250Y-115443000D01*
X123739000Y-115443000D01*
X123485000Y-115443000D01*
X123465000Y-115443000D01*
X123465000Y-115189000D01*
X123485000Y-115189000D01*
X123485000Y-115169000D01*
X123739000Y-115169000D01*
X123739000Y-115189000D01*
X128238250Y-115189000D01*
X128397000Y-115030250D01*
X128397000Y-110203158D01*
X129263000Y-111069157D01*
X129263000Y-115142000D01*
X129322755Y-115442407D01*
X129492921Y-115697079D01*
X131589560Y-117793718D01*
X131589560Y-118381000D01*
X131633838Y-118616317D01*
X131772910Y-118832441D01*
X131985110Y-118977431D01*
X132237000Y-119028440D01*
X135987000Y-119028440D01*
X136222317Y-118984162D01*
X136438441Y-118845090D01*
X136583431Y-118632890D01*
X136634440Y-118381000D01*
X136634440Y-117331000D01*
X136590162Y-117095683D01*
X136451090Y-116879559D01*
X136238890Y-116734569D01*
X135987000Y-116683560D01*
X132699718Y-116683560D01*
X132368158Y-116352000D01*
X142664560Y-116352000D01*
X142664560Y-117952000D01*
X142708838Y-118187317D01*
X142847910Y-118403441D01*
X143060110Y-118548431D01*
X143298201Y-118596646D01*
X143283861Y-118644255D01*
X144112000Y-119472395D01*
X144940139Y-118644255D01*
X144925855Y-118596833D01*
X145147317Y-118555162D01*
X145363441Y-118416090D01*
X145508431Y-118203890D01*
X145559440Y-117952000D01*
X145559440Y-116352000D01*
X145515162Y-116116683D01*
X145376090Y-115900559D01*
X145163890Y-115755569D01*
X144912000Y-115704560D01*
X143312000Y-115704560D01*
X143076683Y-115748838D01*
X142860559Y-115887910D01*
X142715569Y-116100110D01*
X142664560Y-116352000D01*
X132368158Y-116352000D01*
X130833000Y-114816842D01*
X130833000Y-112169155D01*
X131041673Y-112378192D01*
X131385201Y-112520838D01*
X131432077Y-112520879D01*
X131589560Y-112678362D01*
X131589560Y-113301000D01*
X131633838Y-113536317D01*
X131772910Y-113752441D01*
X131985110Y-113897431D01*
X132237000Y-113948440D01*
X135987000Y-113948440D01*
X136222317Y-113904162D01*
X136438441Y-113765090D01*
X136583431Y-113552890D01*
X136634440Y-113301000D01*
X136634440Y-112251000D01*
X136590162Y-112015683D01*
X136451090Y-111799559D01*
X136238890Y-111654569D01*
X135987000Y-111603560D01*
X132664362Y-111603560D01*
X132507122Y-111446320D01*
X132507162Y-111400833D01*
X132365117Y-111057057D01*
X132102327Y-110793808D01*
X131758799Y-110651162D01*
X131386833Y-110650838D01*
X131043057Y-110792883D01*
X130833000Y-111002574D01*
X130833000Y-110744000D01*
X130773245Y-110443594D01*
X130603079Y-110188921D01*
X130603076Y-110188919D01*
X129079079Y-108664921D01*
X128824407Y-108494755D01*
X128524000Y-108435000D01*
X126386670Y-108435000D01*
X129086147Y-105735523D01*
X138097417Y-105735523D01*
X138065162Y-105813201D01*
X138065152Y-105824691D01*
X137112921Y-106776921D01*
X136942755Y-107031593D01*
X136932009Y-107085619D01*
X136883000Y-107332000D01*
X136883000Y-114778494D01*
X136875808Y-114785673D01*
X136733162Y-115129201D01*
X136732838Y-115501167D01*
X136874883Y-115844943D01*
X137137673Y-116108192D01*
X137481201Y-116250838D01*
X137853167Y-116251162D01*
X138196943Y-116109117D01*
X138460192Y-115846327D01*
X138602838Y-115502799D01*
X138603162Y-115130833D01*
X138461117Y-114787057D01*
X138453000Y-114778926D01*
X138453000Y-107657158D01*
X139175004Y-106935153D01*
X139185167Y-106935162D01*
X139528943Y-106793117D01*
X139792192Y-106530327D01*
X139934838Y-106186799D01*
X139935162Y-105814833D01*
X139931871Y-105806868D01*
X144694455Y-110569452D01*
X144729581Y-110746041D01*
X144894328Y-110992603D01*
X146749126Y-112847401D01*
X146995688Y-113012148D01*
X147286527Y-113070000D01*
X150313537Y-113070000D01*
X150345673Y-113102192D01*
X150689201Y-113244838D01*
X151061167Y-113245162D01*
X151064999Y-113243579D01*
X151064999Y-116772999D01*
X151122851Y-117063838D01*
X151287598Y-117310400D01*
X151364198Y-117387000D01*
X151256998Y-117387000D01*
X151256998Y-117551844D01*
X151027110Y-117430524D01*
X150617076Y-117600355D01*
X150188817Y-117990642D01*
X149942514Y-118515108D01*
X150063181Y-118745000D01*
X151257000Y-118745000D01*
X151257000Y-118725000D01*
X151511000Y-118725000D01*
X151511000Y-118745000D01*
X151531000Y-118745000D01*
X151531000Y-118999000D01*
X151511000Y-118999000D01*
X151511000Y-120192155D01*
X151740890Y-120313476D01*
X152150924Y-120143645D01*
X152579183Y-119753358D01*
X152646298Y-119610447D01*
X152873946Y-119951147D01*
X153355715Y-120273054D01*
X153924000Y-120386093D01*
X154492285Y-120273054D01*
X154974054Y-119951147D01*
X155194000Y-119621974D01*
X155413946Y-119951147D01*
X155895715Y-120273054D01*
X156464000Y-120386093D01*
X157032285Y-120273054D01*
X157514054Y-119951147D01*
X157541850Y-119909548D01*
X157550838Y-119957317D01*
X157689910Y-120173441D01*
X157902110Y-120318431D01*
X158154000Y-120369440D01*
X159854000Y-120369440D01*
X160089317Y-120325162D01*
X160305441Y-120186090D01*
X160450431Y-119973890D01*
X160501440Y-119722000D01*
X160501440Y-118022000D01*
X160457162Y-117786683D01*
X160318090Y-117570559D01*
X160105890Y-117425569D01*
X159854000Y-117374560D01*
X159036242Y-117374560D01*
X161290000Y-115120802D01*
X161290000Y-121290000D01*
X111710000Y-121290000D01*
X111710000Y-116935223D01*
X114201035Y-116935223D01*
X114228222Y-117505454D01*
X114394136Y-117906005D01*
X114640255Y-117980139D01*
X115468395Y-117152000D01*
X115827605Y-117152000D01*
X116655745Y-117980139D01*
X116901864Y-117906005D01*
X117094965Y-117368777D01*
X117067778Y-116798546D01*
X116901864Y-116397995D01*
X116655745Y-116323861D01*
X115827605Y-117152000D01*
X115468395Y-117152000D01*
X114640255Y-116323861D01*
X114394136Y-116397995D01*
X114201035Y-116935223D01*
X111710000Y-116935223D01*
X111710000Y-116144255D01*
X114819861Y-116144255D01*
X115648000Y-116972395D01*
X116476139Y-116144255D01*
X116402005Y-115898136D01*
X115864777Y-115705035D01*
X115294546Y-115732222D01*
X114893995Y-115898136D01*
X114819861Y-116144255D01*
X111710000Y-116144255D01*
X111710000Y-115000000D01*
X111655954Y-114728295D01*
X111502046Y-114497954D01*
X111271705Y-114344046D01*
X111000000Y-114290000D01*
X107710000Y-114290000D01*
X107710000Y-104840000D01*
X107985907Y-104840000D01*
X108098946Y-105408285D01*
X108420853Y-105890054D01*
X108750026Y-106110000D01*
X108420853Y-106329946D01*
X108098946Y-106811715D01*
X107985907Y-107380000D01*
X108098946Y-107948285D01*
X108420853Y-108430054D01*
X108750026Y-108650000D01*
X108420853Y-108869946D01*
X108098946Y-109351715D01*
X107985907Y-109920000D01*
X108098946Y-110488285D01*
X108420853Y-110970054D01*
X108750026Y-111190000D01*
X108420853Y-111409946D01*
X108098946Y-111891715D01*
X107985907Y-112460000D01*
X108098946Y-113028285D01*
X108420853Y-113510054D01*
X108902622Y-113831961D01*
X109470907Y-113945000D01*
X109529093Y-113945000D01*
X110097378Y-113831961D01*
X110579147Y-113510054D01*
X110901054Y-113028285D01*
X111014093Y-112460000D01*
X110901054Y-111891715D01*
X110579147Y-111409946D01*
X110249974Y-111190000D01*
X110579147Y-110970054D01*
X110901054Y-110488285D01*
X111014093Y-109920000D01*
X110911687Y-109405167D01*
X111840838Y-109405167D01*
X111982883Y-109748943D01*
X112245673Y-110012192D01*
X112589201Y-110154838D01*
X112636077Y-110154879D01*
X113872878Y-111391680D01*
X113872838Y-111437167D01*
X114014883Y-111780943D01*
X114277673Y-112044192D01*
X114621201Y-112186838D01*
X114993167Y-112187162D01*
X115336943Y-112045117D01*
X115600192Y-111782327D01*
X115742838Y-111438799D01*
X115743162Y-111066833D01*
X115601117Y-110723057D01*
X115338327Y-110459808D01*
X114994799Y-110317162D01*
X114947923Y-110317121D01*
X113711122Y-109080320D01*
X113711162Y-109034833D01*
X113569117Y-108691057D01*
X113536000Y-108657882D01*
X113536000Y-104131745D01*
X117535861Y-104131745D01*
X117609995Y-104377864D01*
X118147223Y-104570965D01*
X118717454Y-104543778D01*
X119118005Y-104377864D01*
X119192139Y-104131745D01*
X118364000Y-103303605D01*
X117535861Y-104131745D01*
X113536000Y-104131745D01*
X113536000Y-102907223D01*
X116917035Y-102907223D01*
X116944222Y-103477454D01*
X117110136Y-103878005D01*
X117356255Y-103952139D01*
X118184395Y-103124000D01*
X117356255Y-102295861D01*
X117110136Y-102369995D01*
X116917035Y-102907223D01*
X113536000Y-102907223D01*
X113536000Y-102116255D01*
X117535861Y-102116255D01*
X118364000Y-102944395D01*
X119192139Y-102116255D01*
X119118005Y-101870136D01*
X118580777Y-101677035D01*
X118010546Y-101704222D01*
X117609995Y-101870136D01*
X117535861Y-102116255D01*
X113536000Y-102116255D01*
X113536000Y-101963802D01*
X116814052Y-98685750D01*
X117540000Y-98685750D01*
X117540000Y-99126309D01*
X117636673Y-99359698D01*
X117815301Y-99538327D01*
X118048690Y-99635000D01*
X118264250Y-99635000D01*
X118423000Y-99476250D01*
X118423000Y-98527000D01*
X118677000Y-98527000D01*
X118677000Y-99476250D01*
X118835750Y-99635000D01*
X119051310Y-99635000D01*
X119284699Y-99538327D01*
X119463327Y-99359698D01*
X119560000Y-99126309D01*
X119560000Y-98685750D01*
X119401250Y-98527000D01*
X118677000Y-98527000D01*
X118423000Y-98527000D01*
X117698750Y-98527000D01*
X117540000Y-98685750D01*
X116814052Y-98685750D01*
X117540000Y-97959802D01*
X117540000Y-98114250D01*
X117698750Y-98273000D01*
X118423000Y-98273000D01*
X118423000Y-98253000D01*
X118677000Y-98253000D01*
X118677000Y-98273000D01*
X119401250Y-98273000D01*
X119560000Y-98114250D01*
X119560000Y-97673691D01*
X119463327Y-97440302D01*
X119461957Y-97438932D01*
X119521431Y-97351890D01*
X119572440Y-97100000D01*
X119572440Y-95900000D01*
X119528162Y-95664683D01*
X119389090Y-95448559D01*
X119176890Y-95303569D01*
X118925000Y-95252560D01*
X118175000Y-95252560D01*
X117939683Y-95296838D01*
X117723559Y-95435910D01*
X117578569Y-95648110D01*
X117534801Y-95864242D01*
X117387599Y-95962599D01*
X112238599Y-101111599D01*
X112073852Y-101358161D01*
X112016000Y-101649000D01*
X112016000Y-108657537D01*
X111983808Y-108689673D01*
X111841162Y-109033201D01*
X111840838Y-109405167D01*
X110911687Y-109405167D01*
X110901054Y-109351715D01*
X110579147Y-108869946D01*
X110249974Y-108650000D01*
X110579147Y-108430054D01*
X110901054Y-107948285D01*
X111014093Y-107380000D01*
X110901054Y-106811715D01*
X110579147Y-106329946D01*
X110249974Y-106110000D01*
X110579147Y-105890054D01*
X110901054Y-105408285D01*
X111014093Y-104840000D01*
X110901054Y-104271715D01*
X110579147Y-103789946D01*
X110238447Y-103562298D01*
X110381358Y-103495183D01*
X110771645Y-103066924D01*
X110941476Y-102656890D01*
X110820155Y-102427000D01*
X109627000Y-102427000D01*
X109627000Y-102447000D01*
X109373000Y-102447000D01*
X109373000Y-102427000D01*
X108179845Y-102427000D01*
X108058524Y-102656890D01*
X108228355Y-103066924D01*
X108618642Y-103495183D01*
X108761553Y-103562298D01*
X108420853Y-103789946D01*
X108098946Y-104271715D01*
X107985907Y-104840000D01*
X107710000Y-104840000D01*
X107710000Y-100116890D01*
X108058524Y-100116890D01*
X108228355Y-100526924D01*
X108618642Y-100955183D01*
X108777954Y-101030000D01*
X108618642Y-101104817D01*
X108228355Y-101533076D01*
X108058524Y-101943110D01*
X108179845Y-102173000D01*
X109373000Y-102173000D01*
X109373000Y-99887000D01*
X109627000Y-99887000D01*
X109627000Y-102173000D01*
X110820155Y-102173000D01*
X110941476Y-101943110D01*
X110771645Y-101533076D01*
X110381358Y-101104817D01*
X110222046Y-101030000D01*
X110381358Y-100955183D01*
X110771645Y-100526924D01*
X110941476Y-100116890D01*
X110820155Y-99887000D01*
X109627000Y-99887000D01*
X109373000Y-99887000D01*
X108179845Y-99887000D01*
X108058524Y-100116890D01*
X107710000Y-100116890D01*
X107710000Y-92140000D01*
X107985907Y-92140000D01*
X108098946Y-92708285D01*
X108420853Y-93190054D01*
X108750026Y-93410000D01*
X108420853Y-93629946D01*
X108098946Y-94111715D01*
X107985907Y-94680000D01*
X108098946Y-95248285D01*
X108420853Y-95730054D01*
X108750026Y-95950000D01*
X108420853Y-96169946D01*
X108098946Y-96651715D01*
X107985907Y-97220000D01*
X108098946Y-97788285D01*
X108420853Y-98270054D01*
X108761553Y-98497702D01*
X108618642Y-98564817D01*
X108228355Y-98993076D01*
X108058524Y-99403110D01*
X108179845Y-99633000D01*
X109373000Y-99633000D01*
X109373000Y-99613000D01*
X109627000Y-99613000D01*
X109627000Y-99633000D01*
X110820155Y-99633000D01*
X110941476Y-99403110D01*
X110771645Y-98993076D01*
X110381358Y-98564817D01*
X110238447Y-98497702D01*
X110579147Y-98270054D01*
X110901054Y-97788285D01*
X111014093Y-97220000D01*
X110901054Y-96651715D01*
X110579147Y-96169946D01*
X110249974Y-95950000D01*
X110579147Y-95730054D01*
X110901054Y-95248285D01*
X111014093Y-94680000D01*
X110901054Y-94111715D01*
X110579147Y-93629946D01*
X110249974Y-93410000D01*
X110579147Y-93190054D01*
X110901054Y-92708285D01*
X111014093Y-92140000D01*
X110901054Y-91571715D01*
X110579147Y-91089946D01*
X110537548Y-91062150D01*
X110585317Y-91053162D01*
X110801441Y-90914090D01*
X110946431Y-90701890D01*
X110997440Y-90450000D01*
X110997440Y-88750000D01*
X110953162Y-88514683D01*
X110814090Y-88298559D01*
X110601890Y-88153569D01*
X110350000Y-88102560D01*
X108650000Y-88102560D01*
X108414683Y-88146838D01*
X108198559Y-88285910D01*
X108053569Y-88498110D01*
X108002560Y-88750000D01*
X108002560Y-90450000D01*
X108046838Y-90685317D01*
X108185910Y-90901441D01*
X108398110Y-91046431D01*
X108465541Y-91060086D01*
X108420853Y-91089946D01*
X108098946Y-91571715D01*
X107985907Y-92140000D01*
X107710000Y-92140000D01*
X107710000Y-87910000D01*
X111300000Y-87910000D01*
X111571705Y-87855954D01*
X111802046Y-87702046D01*
X111955954Y-87471705D01*
X112010000Y-87200000D01*
X112010000Y-83728000D01*
X112261560Y-83728000D01*
X112261560Y-84928000D01*
X112305838Y-85163317D01*
X112444910Y-85379441D01*
X112657110Y-85524431D01*
X112909000Y-85575440D01*
X113231638Y-85575440D01*
X118109599Y-90453401D01*
X118356160Y-90618148D01*
X118647000Y-90676000D01*
X120211000Y-90676000D01*
X120211000Y-94941537D01*
X120178808Y-94973673D01*
X120036162Y-95317201D01*
X120035838Y-95689167D01*
X120177883Y-96032943D01*
X120211000Y-96066118D01*
X120211000Y-101676560D01*
X120064000Y-101676560D01*
X119828683Y-101720838D01*
X119612559Y-101859910D01*
X119467569Y-102072110D01*
X119419354Y-102310201D01*
X119371745Y-102295861D01*
X118543605Y-103124000D01*
X119371745Y-103952139D01*
X119419167Y-103937855D01*
X119460838Y-104159317D01*
X119599910Y-104375441D01*
X119812110Y-104520431D01*
X120064000Y-104571440D01*
X121664000Y-104571440D01*
X121899317Y-104527162D01*
X122115441Y-104388090D01*
X122260431Y-104175890D01*
X122311440Y-103924000D01*
X122311440Y-102324000D01*
X122267162Y-102088683D01*
X122128090Y-101872559D01*
X121915890Y-101727569D01*
X121731000Y-101690128D01*
X121731000Y-96264000D01*
X122428000Y-96264000D01*
X122718839Y-96206148D01*
X122965401Y-96041401D01*
X124955093Y-94051709D01*
X125000580Y-94051749D01*
X125344356Y-93909704D01*
X125607605Y-93646914D01*
X125750251Y-93303386D01*
X125750575Y-92931420D01*
X125608530Y-92587644D01*
X125345740Y-92324395D01*
X125002212Y-92181749D01*
X124630246Y-92181425D01*
X124286470Y-92323470D01*
X124023221Y-92586260D01*
X123880575Y-92929788D01*
X123880534Y-92976664D01*
X122113198Y-94744000D01*
X121731000Y-94744000D01*
X121731000Y-90478463D01*
X121763192Y-90446327D01*
X121905838Y-90102799D01*
X121906162Y-89730833D01*
X121764117Y-89387057D01*
X121760000Y-89382933D01*
X121760000Y-88992334D01*
X121835317Y-88978162D01*
X122051441Y-88839090D01*
X122196431Y-88626890D01*
X122247440Y-88375000D01*
X122247440Y-87625000D01*
X122203162Y-87389683D01*
X122064090Y-87173559D01*
X121851890Y-87028569D01*
X121600000Y-86977560D01*
X120400000Y-86977560D01*
X120164683Y-87021838D01*
X120061354Y-87088329D01*
X120059698Y-87086673D01*
X119826309Y-86990000D01*
X119385750Y-86990000D01*
X119227000Y-87148750D01*
X119227000Y-87873000D01*
X119247000Y-87873000D01*
X119247000Y-88127000D01*
X119227000Y-88127000D01*
X119227000Y-88851250D01*
X119385750Y-89010000D01*
X119826309Y-89010000D01*
X120059698Y-88913327D01*
X120061068Y-88911957D01*
X120148110Y-88971431D01*
X120240000Y-88990039D01*
X120240000Y-89156000D01*
X118961802Y-89156000D01*
X118815026Y-89009224D01*
X118973000Y-88851250D01*
X118973000Y-88127000D01*
X118023750Y-88127000D01*
X117978276Y-88172474D01*
X117304492Y-87498690D01*
X117865000Y-87498690D01*
X117865000Y-87714250D01*
X118023750Y-87873000D01*
X118973000Y-87873000D01*
X118973000Y-87148750D01*
X118814250Y-86990000D01*
X118373691Y-86990000D01*
X118140302Y-87086673D01*
X117961673Y-87265301D01*
X117865000Y-87498690D01*
X117304492Y-87498690D01*
X114306440Y-84500638D01*
X114306440Y-83728000D01*
X114262162Y-83492683D01*
X114195671Y-83389354D01*
X114197327Y-83387698D01*
X114294000Y-83154309D01*
X114294000Y-82713750D01*
X114135250Y-82555000D01*
X113411000Y-82555000D01*
X113411000Y-82575000D01*
X113157000Y-82575000D01*
X113157000Y-82555000D01*
X112432750Y-82555000D01*
X112274000Y-82713750D01*
X112274000Y-83154309D01*
X112370673Y-83387698D01*
X112372043Y-83389068D01*
X112312569Y-83476110D01*
X112261560Y-83728000D01*
X112010000Y-83728000D01*
X112010000Y-81701691D01*
X112274000Y-81701691D01*
X112274000Y-82142250D01*
X112432750Y-82301000D01*
X113157000Y-82301000D01*
X113157000Y-81351750D01*
X113411000Y-81351750D01*
X113411000Y-82301000D01*
X114135250Y-82301000D01*
X114294000Y-82142250D01*
X114294000Y-81701691D01*
X114197327Y-81468302D01*
X114018699Y-81289673D01*
X113785310Y-81193000D01*
X113569750Y-81193000D01*
X113411000Y-81351750D01*
X113157000Y-81351750D01*
X112998250Y-81193000D01*
X112782690Y-81193000D01*
X112549301Y-81289673D01*
X112370673Y-81468302D01*
X112274000Y-81701691D01*
X112010000Y-81701691D01*
X112010000Y-80710000D01*
X161290000Y-80710000D01*
X161290000Y-87000000D01*
X161290000Y-87000000D01*
G37*
X161290000Y-87000000D02*
X161344046Y-87271705D01*
X161497954Y-87502046D01*
X161728295Y-87655954D01*
X162000000Y-87710000D01*
X171000000Y-87710000D01*
X171271705Y-87655954D01*
X171295581Y-87640000D01*
X175452560Y-87640000D01*
X175452560Y-89440000D01*
X175496838Y-89675317D01*
X175635910Y-89891441D01*
X175848110Y-90036431D01*
X176100000Y-90087440D01*
X177900000Y-90087440D01*
X178135317Y-90043162D01*
X178351441Y-89904090D01*
X178496431Y-89691890D01*
X178547440Y-89440000D01*
X178547440Y-87640000D01*
X178503162Y-87404683D01*
X178364090Y-87188559D01*
X178160426Y-87049402D01*
X178194718Y-87015110D01*
X178080161Y-86900553D01*
X178336643Y-86814148D01*
X178546458Y-86240664D01*
X178520839Y-85630540D01*
X178336643Y-85185852D01*
X178080159Y-85099446D01*
X177179605Y-86000000D01*
X177193748Y-86014143D01*
X177014143Y-86193748D01*
X177000000Y-86179605D01*
X176985858Y-86193748D01*
X176806253Y-86014143D01*
X176820395Y-86000000D01*
X175919841Y-85099446D01*
X175663357Y-85185852D01*
X175453542Y-85759336D01*
X175479161Y-86369460D01*
X175663357Y-86814148D01*
X175919839Y-86900553D01*
X175805282Y-87015110D01*
X175841760Y-87051588D01*
X175648559Y-87175910D01*
X175503569Y-87388110D01*
X175452560Y-87640000D01*
X171295581Y-87640000D01*
X171502046Y-87502046D01*
X171655954Y-87271705D01*
X171710000Y-87000000D01*
X171710000Y-83763991D01*
X175464735Y-83763991D01*
X175697932Y-84328371D01*
X176129357Y-84760551D01*
X176150194Y-84769203D01*
X176099446Y-84919841D01*
X177000000Y-85820395D01*
X177900554Y-84919841D01*
X177849965Y-84769673D01*
X177868371Y-84762068D01*
X178300551Y-84330643D01*
X178534733Y-83766670D01*
X178535265Y-83156009D01*
X178302068Y-82591629D01*
X177870643Y-82159449D01*
X177306670Y-81925267D01*
X176696009Y-81924735D01*
X176131629Y-82157932D01*
X175699449Y-82589357D01*
X175465267Y-83153330D01*
X175464735Y-83763991D01*
X171710000Y-83763991D01*
X171710000Y-80710000D01*
X183290000Y-80710000D01*
X183290000Y-121290000D01*
X171710000Y-121290000D01*
X171710000Y-117640000D01*
X175452560Y-117640000D01*
X175452560Y-119440000D01*
X175496838Y-119675317D01*
X175635910Y-119891441D01*
X175848110Y-120036431D01*
X176100000Y-120087440D01*
X177900000Y-120087440D01*
X178135317Y-120043162D01*
X178351441Y-119904090D01*
X178496431Y-119691890D01*
X178547440Y-119440000D01*
X178547440Y-117640000D01*
X178503162Y-117404683D01*
X178364090Y-117188559D01*
X178151890Y-117043569D01*
X178131466Y-117039433D01*
X178300551Y-116870643D01*
X178534733Y-116306670D01*
X178535265Y-115696009D01*
X178302068Y-115131629D01*
X177900818Y-114729677D01*
X178300551Y-114330643D01*
X178534733Y-113766670D01*
X178535265Y-113156009D01*
X178302068Y-112591629D01*
X177870643Y-112159449D01*
X177306670Y-111925267D01*
X176696009Y-111924735D01*
X176131629Y-112157932D01*
X175699449Y-112589357D01*
X175465267Y-113153330D01*
X175464735Y-113763991D01*
X175697932Y-114328371D01*
X176099182Y-114730323D01*
X175699449Y-115129357D01*
X175465267Y-115693330D01*
X175464735Y-116303991D01*
X175697932Y-116868371D01*
X175865880Y-117036613D01*
X175864683Y-117036838D01*
X175648559Y-117175910D01*
X175503569Y-117388110D01*
X175452560Y-117640000D01*
X171710000Y-117640000D01*
X171710000Y-115000000D01*
X171655954Y-114728295D01*
X171502046Y-114497954D01*
X171271705Y-114344046D01*
X171000000Y-114290000D01*
X162120802Y-114290000D01*
X167985209Y-108425593D01*
X176474012Y-108425593D01*
X176615478Y-108728782D01*
X177351955Y-109013737D01*
X178141418Y-108995164D01*
X178784522Y-108728782D01*
X178925988Y-108425593D01*
X177700000Y-107199605D01*
X176474012Y-108425593D01*
X167985209Y-108425593D01*
X169738847Y-106671955D01*
X175706263Y-106671955D01*
X175724836Y-107461418D01*
X175991218Y-108104522D01*
X176294407Y-108245988D01*
X177520395Y-107020000D01*
X177879605Y-107020000D01*
X179105593Y-108245988D01*
X179408782Y-108104522D01*
X179693737Y-107368045D01*
X179675164Y-106578582D01*
X179408782Y-105935478D01*
X179105593Y-105794012D01*
X177879605Y-107020000D01*
X177520395Y-107020000D01*
X176294407Y-105794012D01*
X175991218Y-105935478D01*
X175706263Y-106671955D01*
X169738847Y-106671955D01*
X169986802Y-106424000D01*
X174244000Y-106424000D01*
X174534839Y-106366148D01*
X174781401Y-106201401D01*
X175368395Y-105614407D01*
X176474012Y-105614407D01*
X177700000Y-106840395D01*
X178925988Y-105614407D01*
X178784522Y-105311218D01*
X178048045Y-105026263D01*
X177258582Y-105044836D01*
X176615478Y-105311218D01*
X176474012Y-105614407D01*
X175368395Y-105614407D01*
X177829401Y-103153401D01*
X177994148Y-102906839D01*
X178052000Y-102616000D01*
X178052000Y-98606463D01*
X178084192Y-98574327D01*
X178226838Y-98230799D01*
X178227162Y-97858833D01*
X178085117Y-97515057D01*
X177822327Y-97251808D01*
X177478799Y-97109162D01*
X177106833Y-97108838D01*
X176763057Y-97250883D01*
X176499808Y-97513673D01*
X176357162Y-97857201D01*
X176356838Y-98229167D01*
X176498883Y-98572943D01*
X176532000Y-98606118D01*
X176532000Y-102301198D01*
X176394872Y-102438326D01*
X176395242Y-102013735D01*
X176183313Y-101500828D01*
X175791236Y-101108066D01*
X175595066Y-101026609D01*
X175729941Y-100970742D01*
X175799159Y-100728764D01*
X175000000Y-99929605D01*
X174200841Y-100728764D01*
X174270059Y-100970742D01*
X174414862Y-101022382D01*
X174210828Y-101106687D01*
X173999976Y-101317171D01*
X173791236Y-101108066D01*
X173579262Y-101020046D01*
X173789172Y-100933313D01*
X174181934Y-100541236D01*
X174290419Y-100279976D01*
X174820395Y-99750000D01*
X175179605Y-99750000D01*
X175978764Y-100549159D01*
X176220742Y-100479941D01*
X176407155Y-99957220D01*
X176379341Y-99402951D01*
X176220742Y-99020059D01*
X175978764Y-98950841D01*
X175179605Y-99750000D01*
X174820395Y-99750000D01*
X174290405Y-99220010D01*
X174183313Y-98960828D01*
X173994052Y-98771236D01*
X174200841Y-98771236D01*
X175000000Y-99570395D01*
X175799159Y-98771236D01*
X175729941Y-98529258D01*
X175207220Y-98342845D01*
X174652951Y-98370659D01*
X174270059Y-98529258D01*
X174200841Y-98771236D01*
X173994052Y-98771236D01*
X173791236Y-98568066D01*
X173278700Y-98355242D01*
X172723735Y-98354758D01*
X172210828Y-98566687D01*
X171818066Y-98958764D01*
X171605242Y-99471300D01*
X171604758Y-100026265D01*
X171617674Y-100057524D01*
X170587886Y-101087312D01*
X170524599Y-101129599D01*
X170183485Y-101470713D01*
X170183485Y-95086659D01*
X170183486Y-95086654D01*
X170119060Y-94762769D01*
X170116118Y-94747979D01*
X169924275Y-94460864D01*
X169924272Y-94460862D01*
X168238412Y-92775001D01*
X169932199Y-92775001D01*
X173308878Y-96151680D01*
X173308838Y-96197167D01*
X173450883Y-96540943D01*
X173713673Y-96804192D01*
X174057201Y-96946838D01*
X174429167Y-96947162D01*
X174772943Y-96805117D01*
X175036192Y-96542327D01*
X175084664Y-96425593D01*
X176474012Y-96425593D01*
X176615478Y-96728782D01*
X177351955Y-97013737D01*
X178141418Y-96995164D01*
X178784522Y-96728782D01*
X178925988Y-96425593D01*
X177700000Y-95199605D01*
X176474012Y-96425593D01*
X175084664Y-96425593D01*
X175178838Y-96198799D01*
X175179162Y-95826833D01*
X175037117Y-95483057D01*
X174774327Y-95219808D01*
X174430799Y-95077162D01*
X174383923Y-95077121D01*
X173978757Y-94671955D01*
X175706263Y-94671955D01*
X175724836Y-95461418D01*
X175991218Y-96104522D01*
X176294407Y-96245988D01*
X177520395Y-95020000D01*
X177879605Y-95020000D01*
X179105593Y-96245988D01*
X179408782Y-96104522D01*
X179693737Y-95368045D01*
X179675164Y-94578582D01*
X179408782Y-93935478D01*
X179105593Y-93794012D01*
X177879605Y-95020000D01*
X177520395Y-95020000D01*
X176294407Y-93794012D01*
X175991218Y-93935478D01*
X175706263Y-94671955D01*
X173978757Y-94671955D01*
X172921209Y-93614407D01*
X176474012Y-93614407D01*
X177700000Y-94840395D01*
X178925988Y-93614407D01*
X178784522Y-93311218D01*
X178048045Y-93026263D01*
X177258582Y-93044836D01*
X176615478Y-93311218D01*
X176474012Y-93614407D01*
X172921209Y-93614407D01*
X170784402Y-91477600D01*
X170537840Y-91312853D01*
X170247001Y-91255001D01*
X159695162Y-91255001D01*
X159695162Y-91254833D01*
X159553117Y-90911057D01*
X159485755Y-90843578D01*
X159462148Y-90724897D01*
X159297401Y-90478335D01*
X158680999Y-89861933D01*
X158680999Y-88819162D01*
X158681167Y-88819162D01*
X159024943Y-88677117D01*
X159288192Y-88414327D01*
X159377421Y-88199440D01*
X159962000Y-88199440D01*
X160197317Y-88155162D01*
X160413441Y-88016090D01*
X160558431Y-87803890D01*
X160609440Y-87552000D01*
X160609440Y-86352000D01*
X160565162Y-86116683D01*
X160426090Y-85900559D01*
X160357994Y-85854031D01*
X160500327Y-85711698D01*
X160597000Y-85478309D01*
X160597000Y-85037750D01*
X160438250Y-84879000D01*
X159639000Y-84879000D01*
X159639000Y-84899000D01*
X159385000Y-84899000D01*
X159385000Y-84879000D01*
X159365000Y-84879000D01*
X159365000Y-84625000D01*
X159385000Y-84625000D01*
X159385000Y-83675750D01*
X159639000Y-83675750D01*
X159639000Y-84625000D01*
X160438250Y-84625000D01*
X160597000Y-84466250D01*
X160597000Y-84025691D01*
X160500327Y-83792302D01*
X160321699Y-83613673D01*
X160088310Y-83517000D01*
X159797750Y-83517000D01*
X159639000Y-83675750D01*
X159385000Y-83675750D01*
X159226250Y-83517000D01*
X158935690Y-83517000D01*
X158702301Y-83613673D01*
X158649132Y-83666842D01*
X158518327Y-83535808D01*
X158174799Y-83393162D01*
X157802833Y-83392838D01*
X157459057Y-83534883D01*
X157377584Y-83616214D01*
X157165890Y-83471569D01*
X156914000Y-83420560D01*
X156040061Y-83420560D01*
X155992000Y-83411000D01*
X153895630Y-83411000D01*
X153886162Y-83360683D01*
X153819671Y-83257354D01*
X153821327Y-83255698D01*
X153918000Y-83022309D01*
X153918000Y-82581750D01*
X153759250Y-82423000D01*
X153035000Y-82423000D01*
X153035000Y-82443000D01*
X152781000Y-82443000D01*
X152781000Y-82423000D01*
X152056750Y-82423000D01*
X151898000Y-82581750D01*
X151898000Y-82697842D01*
X151465440Y-82265282D01*
X151465440Y-81569691D01*
X151898000Y-81569691D01*
X151898000Y-82010250D01*
X152056750Y-82169000D01*
X152781000Y-82169000D01*
X152781000Y-81219750D01*
X153035000Y-81219750D01*
X153035000Y-82169000D01*
X153759250Y-82169000D01*
X153918000Y-82010250D01*
X153918000Y-81569691D01*
X153821327Y-81336302D01*
X153642699Y-81157673D01*
X153409310Y-81061000D01*
X153193750Y-81061000D01*
X153035000Y-81219750D01*
X152781000Y-81219750D01*
X152622250Y-81061000D01*
X152406690Y-81061000D01*
X152173301Y-81157673D01*
X151994673Y-81336302D01*
X151898000Y-81569691D01*
X151465440Y-81569691D01*
X151465440Y-81528000D01*
X151421162Y-81292683D01*
X151282090Y-81076559D01*
X151069890Y-80931569D01*
X150818000Y-80880560D01*
X149918000Y-80880560D01*
X149682683Y-80924838D01*
X149466559Y-81063910D01*
X149321569Y-81276110D01*
X149270560Y-81528000D01*
X149270560Y-81567817D01*
X149262921Y-81572921D01*
X148413565Y-82422277D01*
X141836728Y-82422277D01*
X141836723Y-82422276D01*
X141536317Y-82482032D01*
X141281644Y-82652198D01*
X136476995Y-87456847D01*
X136466833Y-87456838D01*
X136123057Y-87598883D01*
X136074733Y-87647122D01*
X136265908Y-87132539D01*
X136241856Y-86482540D01*
X136039387Y-85993736D01*
X135772532Y-85895073D01*
X134799605Y-86868000D01*
X134813748Y-86882143D01*
X134634143Y-87061748D01*
X134620000Y-87047605D01*
X133647073Y-88020532D01*
X133745736Y-88287387D01*
X134355461Y-88513908D01*
X135005460Y-88489856D01*
X135494264Y-88287387D01*
X135592926Y-88020534D01*
X135707206Y-88134814D01*
X135774213Y-88067807D01*
X135717162Y-88205201D01*
X135716838Y-88577167D01*
X135746106Y-88648000D01*
X132902802Y-88648000D01*
X131999122Y-87744320D01*
X131999162Y-87698833D01*
X131857117Y-87355057D01*
X131594327Y-87091808D01*
X131304413Y-86971424D01*
X131185364Y-86683304D01*
X131177247Y-86675173D01*
X131177247Y-86603461D01*
X132974092Y-86603461D01*
X132998144Y-87253460D01*
X133200613Y-87742264D01*
X133467468Y-87840927D01*
X134440395Y-86868000D01*
X133467468Y-85895073D01*
X133200613Y-85993736D01*
X132974092Y-86603461D01*
X131177247Y-86603461D01*
X131177247Y-85715468D01*
X133647073Y-85715468D01*
X134620000Y-86688395D01*
X135592927Y-85715468D01*
X135494264Y-85448613D01*
X134884539Y-85222092D01*
X134234540Y-85246144D01*
X133745736Y-85448613D01*
X133647073Y-85715468D01*
X131177247Y-85715468D01*
X131177247Y-84810051D01*
X131249818Y-84701440D01*
X131556000Y-84701440D01*
X131791317Y-84657162D01*
X132007441Y-84518090D01*
X132152431Y-84305890D01*
X132203440Y-84054000D01*
X132203440Y-81554000D01*
X132159162Y-81318683D01*
X132020090Y-81102559D01*
X131807890Y-80957569D01*
X131556000Y-80906560D01*
X129556000Y-80906560D01*
X129320683Y-80950838D01*
X129104559Y-81089910D01*
X128959569Y-81302110D01*
X128908560Y-81554000D01*
X128908560Y-84054000D01*
X128952838Y-84289317D01*
X129091910Y-84505441D01*
X129304110Y-84650431D01*
X129556000Y-84701440D01*
X129607247Y-84701440D01*
X129607247Y-86674741D01*
X129600055Y-86681920D01*
X129457409Y-87025448D01*
X129457085Y-87397414D01*
X129599130Y-87741190D01*
X129861920Y-88004439D01*
X130151834Y-88124823D01*
X130270883Y-88412943D01*
X130505530Y-88648000D01*
X128687802Y-88648000D01*
X128425802Y-88386000D01*
X128742309Y-88386000D01*
X128975698Y-88289327D01*
X129154327Y-88110699D01*
X129251000Y-87877310D01*
X129251000Y-87661750D01*
X129092250Y-87503000D01*
X128143000Y-87503000D01*
X128143000Y-87523000D01*
X127889000Y-87523000D01*
X127889000Y-87503000D01*
X127869000Y-87503000D01*
X127869000Y-87249000D01*
X127889000Y-87249000D01*
X127889000Y-86524750D01*
X128143000Y-86524750D01*
X128143000Y-87249000D01*
X129092250Y-87249000D01*
X129251000Y-87090250D01*
X129251000Y-86874690D01*
X129154327Y-86641301D01*
X128975698Y-86462673D01*
X128742309Y-86366000D01*
X128301750Y-86366000D01*
X128143000Y-86524750D01*
X127889000Y-86524750D01*
X127730250Y-86366000D01*
X127289691Y-86366000D01*
X127056302Y-86462673D01*
X127054932Y-86464043D01*
X126967890Y-86404569D01*
X126748969Y-86360236D01*
X126951317Y-86322162D01*
X127054646Y-86255671D01*
X127056302Y-86257327D01*
X127289691Y-86354000D01*
X127730250Y-86354000D01*
X127889000Y-86195250D01*
X127889000Y-85471000D01*
X128143000Y-85471000D01*
X128143000Y-86195250D01*
X128301750Y-86354000D01*
X128742309Y-86354000D01*
X128975698Y-86257327D01*
X129154327Y-86078699D01*
X129251000Y-85845310D01*
X129251000Y-85629750D01*
X129092250Y-85471000D01*
X128143000Y-85471000D01*
X127889000Y-85471000D01*
X127869000Y-85471000D01*
X127869000Y-85217000D01*
X127889000Y-85217000D01*
X127889000Y-85197000D01*
X128143000Y-85197000D01*
X128143000Y-85217000D01*
X129092250Y-85217000D01*
X129251000Y-85058250D01*
X129251000Y-84842690D01*
X129154327Y-84609301D01*
X128975698Y-84430673D01*
X128742309Y-84334000D01*
X128301750Y-84334000D01*
X128143002Y-84492748D01*
X128143002Y-84334000D01*
X128133224Y-84334000D01*
X128152431Y-84305890D01*
X128203440Y-84054000D01*
X128203440Y-81554000D01*
X128159162Y-81318683D01*
X128020090Y-81102559D01*
X127807890Y-80957569D01*
X127556000Y-80906560D01*
X125556000Y-80906560D01*
X125320683Y-80950838D01*
X125104559Y-81089910D01*
X124959569Y-81302110D01*
X124908560Y-81554000D01*
X124908560Y-84054000D01*
X124952838Y-84289317D01*
X125083659Y-84492619D01*
X125064559Y-84504910D01*
X124967488Y-84646978D01*
X124728599Y-84806599D01*
X124653598Y-84881600D01*
X124488851Y-85128162D01*
X124430999Y-85419001D01*
X124430999Y-88614999D01*
X124488851Y-88905838D01*
X124653598Y-89152400D01*
X125556878Y-90055680D01*
X125556838Y-90101167D01*
X125698883Y-90444943D01*
X125961673Y-90708192D01*
X126305201Y-90850838D01*
X126677167Y-90851162D01*
X127020943Y-90709117D01*
X127284192Y-90446327D01*
X127426838Y-90102799D01*
X127427162Y-89730833D01*
X127290653Y-89400455D01*
X127835599Y-89945401D01*
X128082161Y-90110148D01*
X128373000Y-90168000D01*
X131257198Y-90168000D01*
X131421758Y-90332560D01*
X129814000Y-90332560D01*
X129578683Y-90376838D01*
X129362559Y-90515910D01*
X129217569Y-90728110D01*
X129166560Y-90980000D01*
X129166560Y-92204000D01*
X129086463Y-92204000D01*
X129054327Y-92171808D01*
X128710799Y-92029162D01*
X128338833Y-92028838D01*
X127995057Y-92170883D01*
X127731808Y-92433673D01*
X127589162Y-92777201D01*
X127588838Y-93149167D01*
X127730883Y-93492943D01*
X127993673Y-93756192D01*
X128337201Y-93898838D01*
X128709167Y-93899162D01*
X129052943Y-93757117D01*
X129086118Y-93724000D01*
X129830000Y-93724000D01*
X130120839Y-93666148D01*
X130178770Y-93627440D01*
X132314000Y-93627440D01*
X132549317Y-93583162D01*
X132642351Y-93523296D01*
X132604325Y-93614873D01*
X131886638Y-94332560D01*
X129814000Y-94332560D01*
X129578683Y-94376838D01*
X129362559Y-94515910D01*
X129217569Y-94728110D01*
X129166560Y-94980000D01*
X129166560Y-95332237D01*
X129054327Y-95219808D01*
X128710799Y-95077162D01*
X128338833Y-95076838D01*
X127995057Y-95218883D01*
X127731808Y-95481673D01*
X127589162Y-95825201D01*
X127588838Y-96197167D01*
X127730883Y-96540943D01*
X127993673Y-96804192D01*
X128121443Y-96857247D01*
X129845597Y-98581401D01*
X130092158Y-98746148D01*
X130382998Y-98804000D01*
X135128000Y-98804000D01*
X135418839Y-98746148D01*
X135665401Y-98581401D01*
X135892000Y-98354802D01*
X135892000Y-98498537D01*
X135859808Y-98530673D01*
X135717162Y-98874201D01*
X135716838Y-99246167D01*
X135858883Y-99589943D01*
X136121673Y-99853192D01*
X136465201Y-99995838D01*
X136837167Y-99996162D01*
X137180943Y-99854117D01*
X137444192Y-99591327D01*
X137586838Y-99247799D01*
X137587162Y-98875833D01*
X137445117Y-98532057D01*
X137412000Y-98498882D01*
X137412000Y-96918547D01*
X137688943Y-96804117D01*
X137952192Y-96541327D01*
X138094838Y-96197799D01*
X138095162Y-95825833D01*
X137953117Y-95482057D01*
X137690327Y-95218808D01*
X137346799Y-95076162D01*
X136974833Y-95075838D01*
X136631057Y-95217883D01*
X136396000Y-95452530D01*
X136396000Y-91330103D01*
X136465201Y-91358838D01*
X136805133Y-91359134D01*
X136874883Y-91527943D01*
X136908000Y-91561118D01*
X136908000Y-93472000D01*
X136965852Y-93762839D01*
X137130599Y-94009401D01*
X140796878Y-97675680D01*
X140796838Y-97721167D01*
X140938883Y-98064943D01*
X141201673Y-98328192D01*
X141545201Y-98470838D01*
X141917167Y-98471162D01*
X142260943Y-98329117D01*
X142524192Y-98066327D01*
X142579156Y-97933958D01*
X143336878Y-98691680D01*
X143336838Y-98737167D01*
X143383041Y-98848988D01*
X139065271Y-98848988D01*
X138774431Y-98906840D01*
X138527870Y-99071587D01*
X134968767Y-102630690D01*
X133895702Y-102630690D01*
X133968691Y-102557828D01*
X133978218Y-102534884D01*
X134297167Y-102535162D01*
X134640943Y-102393117D01*
X134904192Y-102130327D01*
X135046838Y-101786799D01*
X135047162Y-101414833D01*
X134905117Y-101071057D01*
X134847000Y-101012838D01*
X134847000Y-100560349D01*
X134791051Y-100279077D01*
X134730460Y-100188396D01*
X134631723Y-100040625D01*
X134469607Y-99878509D01*
X134469677Y-99797697D01*
X134327632Y-99453921D01*
X134064842Y-99190672D01*
X133721314Y-99048026D01*
X133349348Y-99047702D01*
X133005572Y-99189747D01*
X132742323Y-99452537D01*
X132599677Y-99796065D01*
X132599353Y-100168031D01*
X132741398Y-100511807D01*
X133004188Y-100775056D01*
X133347716Y-100917702D01*
X133377000Y-100917728D01*
X133377000Y-101012581D01*
X133319808Y-101069673D01*
X133310281Y-101092617D01*
X132991332Y-101092339D01*
X132750453Y-101191868D01*
X132680534Y-101022650D01*
X132417744Y-100759401D01*
X132074216Y-100616755D01*
X131702250Y-100616431D01*
X131358474Y-100758476D01*
X131325299Y-100791593D01*
X128999621Y-100791593D01*
X128924357Y-100716329D01*
X128987767Y-100690129D01*
X129251016Y-100427339D01*
X129393662Y-100083811D01*
X129393986Y-99711845D01*
X129251941Y-99368069D01*
X128989151Y-99104820D01*
X128645623Y-98962174D01*
X128550275Y-98962091D01*
X128449664Y-98894865D01*
X128158825Y-98837013D01*
X127894056Y-98837013D01*
X127934838Y-98738799D01*
X127935162Y-98366833D01*
X127793117Y-98023057D01*
X127530327Y-97759808D01*
X127186799Y-97617162D01*
X126814833Y-97616838D01*
X126471057Y-97758883D01*
X126207808Y-98021673D01*
X126081855Y-98325000D01*
X125555419Y-98325000D01*
X125498327Y-98267808D01*
X125154799Y-98125162D01*
X124782833Y-98124838D01*
X124439057Y-98266883D01*
X124175808Y-98529673D01*
X124033162Y-98873201D01*
X124032838Y-99245167D01*
X124174883Y-99588943D01*
X124437673Y-99852192D01*
X124748994Y-99981465D01*
X124581664Y-100148503D01*
X124439018Y-100492031D01*
X124438694Y-100863997D01*
X124580739Y-101207773D01*
X124843529Y-101471022D01*
X125187057Y-101613668D01*
X125559023Y-101613992D01*
X125902799Y-101471947D01*
X126166048Y-101209157D01*
X126308694Y-100865629D01*
X126308735Y-100818753D01*
X126547101Y-100580387D01*
X126656626Y-100845460D01*
X126919416Y-101108709D01*
X127262944Y-101251355D01*
X127309820Y-101251396D01*
X127863343Y-101804919D01*
X127830833Y-101804891D01*
X127487057Y-101946936D01*
X127223808Y-102209726D01*
X127081162Y-102553254D01*
X127081095Y-102630690D01*
X125760076Y-102630690D01*
X125469236Y-102688542D01*
X125222675Y-102853289D01*
X124725585Y-103350379D01*
X124680098Y-103350339D01*
X124336322Y-103492384D01*
X124073073Y-103755174D01*
X123930427Y-104098702D01*
X123930121Y-104450502D01*
X123864498Y-104450502D01*
X123487555Y-104525481D01*
X123167998Y-104739002D01*
X121412214Y-106494786D01*
X121351890Y-106453569D01*
X121100000Y-106402560D01*
X119900000Y-106402560D01*
X119664683Y-106446838D01*
X119448559Y-106585910D01*
X119400866Y-106655711D01*
X119364090Y-106598559D01*
X119151890Y-106453569D01*
X118900000Y-106402560D01*
X117700000Y-106402560D01*
X117464683Y-106446838D01*
X117248559Y-106585910D01*
X117103569Y-106798110D01*
X117052560Y-107050000D01*
X117052560Y-107950000D01*
X117096838Y-108185317D01*
X117235910Y-108401441D01*
X117448110Y-108546431D01*
X117630137Y-108583292D01*
X117744921Y-108755079D01*
X118276341Y-109286499D01*
X117808921Y-109753919D01*
X117638755Y-110008591D01*
X117590513Y-110251117D01*
X117579000Y-110308998D01*
X117579000Y-117660842D01*
X116868837Y-118371005D01*
X116699890Y-118255569D01*
X116461799Y-118207354D01*
X116476139Y-118159745D01*
X115648000Y-117331605D01*
X114819861Y-118159745D01*
X114834145Y-118207167D01*
X114612683Y-118248838D01*
X114396559Y-118387910D01*
X114251569Y-118600110D01*
X114200560Y-118852000D01*
X114200560Y-120452000D01*
X114244838Y-120687317D01*
X114383910Y-120903441D01*
X114596110Y-121048431D01*
X114848000Y-121099440D01*
X116448000Y-121099440D01*
X116683317Y-121055162D01*
X116899441Y-120916090D01*
X117044431Y-120703890D01*
X117095440Y-120452000D01*
X117095440Y-120312410D01*
X117253079Y-120207079D01*
X118827000Y-118633158D01*
X118827000Y-120692310D01*
X118923673Y-120925699D01*
X119102302Y-121104327D01*
X119335691Y-121201000D01*
X123326250Y-121201000D01*
X123485000Y-121042250D01*
X123485000Y-115443000D01*
X123739000Y-115443000D01*
X123739000Y-121042250D01*
X123897750Y-121201000D01*
X127888309Y-121201000D01*
X128121698Y-121104327D01*
X128300327Y-120925699D01*
X128397000Y-120692310D01*
X128397000Y-120659745D01*
X143283861Y-120659745D01*
X143357995Y-120905864D01*
X143895223Y-121098965D01*
X144465454Y-121071778D01*
X144866005Y-120905864D01*
X144940139Y-120659745D01*
X144112000Y-119831605D01*
X143283861Y-120659745D01*
X128397000Y-120659745D01*
X128397000Y-119435223D01*
X142665035Y-119435223D01*
X142692222Y-120005454D01*
X142858136Y-120406005D01*
X143104255Y-120480139D01*
X143932395Y-119652000D01*
X144291605Y-119652000D01*
X145119745Y-120480139D01*
X145365864Y-120406005D01*
X145558965Y-119868777D01*
X145531778Y-119298546D01*
X145502927Y-119228892D01*
X149942514Y-119228892D01*
X150188817Y-119753358D01*
X150617076Y-120143645D01*
X151027110Y-120313476D01*
X151257000Y-120192155D01*
X151257000Y-118999000D01*
X150063181Y-118999000D01*
X149942514Y-119228892D01*
X145502927Y-119228892D01*
X145365864Y-118897995D01*
X145119745Y-118823861D01*
X144291605Y-119652000D01*
X143932395Y-119652000D01*
X143104255Y-118823861D01*
X142858136Y-118897995D01*
X142665035Y-119435223D01*
X128397000Y-119435223D01*
X128397000Y-115601750D01*
X128238250Y-115443000D01*
X123739000Y-115443000D01*
X123485000Y-115443000D01*
X123465000Y-115443000D01*
X123465000Y-115189000D01*
X123485000Y-115189000D01*
X123485000Y-115169000D01*
X123739000Y-115169000D01*
X123739000Y-115189000D01*
X128238250Y-115189000D01*
X128397000Y-115030250D01*
X128397000Y-110203158D01*
X129263000Y-111069157D01*
X129263000Y-115142000D01*
X129322755Y-115442407D01*
X129492921Y-115697079D01*
X131589560Y-117793718D01*
X131589560Y-118381000D01*
X131633838Y-118616317D01*
X131772910Y-118832441D01*
X131985110Y-118977431D01*
X132237000Y-119028440D01*
X135987000Y-119028440D01*
X136222317Y-118984162D01*
X136438441Y-118845090D01*
X136583431Y-118632890D01*
X136634440Y-118381000D01*
X136634440Y-117331000D01*
X136590162Y-117095683D01*
X136451090Y-116879559D01*
X136238890Y-116734569D01*
X135987000Y-116683560D01*
X132699718Y-116683560D01*
X132368158Y-116352000D01*
X142664560Y-116352000D01*
X142664560Y-117952000D01*
X142708838Y-118187317D01*
X142847910Y-118403441D01*
X143060110Y-118548431D01*
X143298201Y-118596646D01*
X143283861Y-118644255D01*
X144112000Y-119472395D01*
X144940139Y-118644255D01*
X144925855Y-118596833D01*
X145147317Y-118555162D01*
X145363441Y-118416090D01*
X145508431Y-118203890D01*
X145559440Y-117952000D01*
X145559440Y-116352000D01*
X145515162Y-116116683D01*
X145376090Y-115900559D01*
X145163890Y-115755569D01*
X144912000Y-115704560D01*
X143312000Y-115704560D01*
X143076683Y-115748838D01*
X142860559Y-115887910D01*
X142715569Y-116100110D01*
X142664560Y-116352000D01*
X132368158Y-116352000D01*
X130833000Y-114816842D01*
X130833000Y-112169155D01*
X131041673Y-112378192D01*
X131385201Y-112520838D01*
X131432077Y-112520879D01*
X131589560Y-112678362D01*
X131589560Y-113301000D01*
X131633838Y-113536317D01*
X131772910Y-113752441D01*
X131985110Y-113897431D01*
X132237000Y-113948440D01*
X135987000Y-113948440D01*
X136222317Y-113904162D01*
X136438441Y-113765090D01*
X136583431Y-113552890D01*
X136634440Y-113301000D01*
X136634440Y-112251000D01*
X136590162Y-112015683D01*
X136451090Y-111799559D01*
X136238890Y-111654569D01*
X135987000Y-111603560D01*
X132664362Y-111603560D01*
X132507122Y-111446320D01*
X132507162Y-111400833D01*
X132365117Y-111057057D01*
X132102327Y-110793808D01*
X131758799Y-110651162D01*
X131386833Y-110650838D01*
X131043057Y-110792883D01*
X130833000Y-111002574D01*
X130833000Y-110744000D01*
X130773245Y-110443594D01*
X130603079Y-110188921D01*
X130603076Y-110188919D01*
X129079079Y-108664921D01*
X128824407Y-108494755D01*
X128524000Y-108435000D01*
X126386670Y-108435000D01*
X129086147Y-105735523D01*
X138097417Y-105735523D01*
X138065162Y-105813201D01*
X138065152Y-105824691D01*
X137112921Y-106776921D01*
X136942755Y-107031593D01*
X136932009Y-107085619D01*
X136883000Y-107332000D01*
X136883000Y-114778494D01*
X136875808Y-114785673D01*
X136733162Y-115129201D01*
X136732838Y-115501167D01*
X136874883Y-115844943D01*
X137137673Y-116108192D01*
X137481201Y-116250838D01*
X137853167Y-116251162D01*
X138196943Y-116109117D01*
X138460192Y-115846327D01*
X138602838Y-115502799D01*
X138603162Y-115130833D01*
X138461117Y-114787057D01*
X138453000Y-114778926D01*
X138453000Y-107657158D01*
X139175004Y-106935153D01*
X139185167Y-106935162D01*
X139528943Y-106793117D01*
X139792192Y-106530327D01*
X139934838Y-106186799D01*
X139935162Y-105814833D01*
X139931871Y-105806868D01*
X144694455Y-110569452D01*
X144729581Y-110746041D01*
X144894328Y-110992603D01*
X146749126Y-112847401D01*
X146995688Y-113012148D01*
X147286527Y-113070000D01*
X150313537Y-113070000D01*
X150345673Y-113102192D01*
X150689201Y-113244838D01*
X151061167Y-113245162D01*
X151064999Y-113243579D01*
X151064999Y-116772999D01*
X151122851Y-117063838D01*
X151287598Y-117310400D01*
X151364198Y-117387000D01*
X151256998Y-117387000D01*
X151256998Y-117551844D01*
X151027110Y-117430524D01*
X150617076Y-117600355D01*
X150188817Y-117990642D01*
X149942514Y-118515108D01*
X150063181Y-118745000D01*
X151257000Y-118745000D01*
X151257000Y-118725000D01*
X151511000Y-118725000D01*
X151511000Y-118745000D01*
X151531000Y-118745000D01*
X151531000Y-118999000D01*
X151511000Y-118999000D01*
X151511000Y-120192155D01*
X151740890Y-120313476D01*
X152150924Y-120143645D01*
X152579183Y-119753358D01*
X152646298Y-119610447D01*
X152873946Y-119951147D01*
X153355715Y-120273054D01*
X153924000Y-120386093D01*
X154492285Y-120273054D01*
X154974054Y-119951147D01*
X155194000Y-119621974D01*
X155413946Y-119951147D01*
X155895715Y-120273054D01*
X156464000Y-120386093D01*
X157032285Y-120273054D01*
X157514054Y-119951147D01*
X157541850Y-119909548D01*
X157550838Y-119957317D01*
X157689910Y-120173441D01*
X157902110Y-120318431D01*
X158154000Y-120369440D01*
X159854000Y-120369440D01*
X160089317Y-120325162D01*
X160305441Y-120186090D01*
X160450431Y-119973890D01*
X160501440Y-119722000D01*
X160501440Y-118022000D01*
X160457162Y-117786683D01*
X160318090Y-117570559D01*
X160105890Y-117425569D01*
X159854000Y-117374560D01*
X159036242Y-117374560D01*
X161290000Y-115120802D01*
X161290000Y-121290000D01*
X111710000Y-121290000D01*
X111710000Y-116935223D01*
X114201035Y-116935223D01*
X114228222Y-117505454D01*
X114394136Y-117906005D01*
X114640255Y-117980139D01*
X115468395Y-117152000D01*
X115827605Y-117152000D01*
X116655745Y-117980139D01*
X116901864Y-117906005D01*
X117094965Y-117368777D01*
X117067778Y-116798546D01*
X116901864Y-116397995D01*
X116655745Y-116323861D01*
X115827605Y-117152000D01*
X115468395Y-117152000D01*
X114640255Y-116323861D01*
X114394136Y-116397995D01*
X114201035Y-116935223D01*
X111710000Y-116935223D01*
X111710000Y-116144255D01*
X114819861Y-116144255D01*
X115648000Y-116972395D01*
X116476139Y-116144255D01*
X116402005Y-115898136D01*
X115864777Y-115705035D01*
X115294546Y-115732222D01*
X114893995Y-115898136D01*
X114819861Y-116144255D01*
X111710000Y-116144255D01*
X111710000Y-115000000D01*
X111655954Y-114728295D01*
X111502046Y-114497954D01*
X111271705Y-114344046D01*
X111000000Y-114290000D01*
X107710000Y-114290000D01*
X107710000Y-104840000D01*
X107985907Y-104840000D01*
X108098946Y-105408285D01*
X108420853Y-105890054D01*
X108750026Y-106110000D01*
X108420853Y-106329946D01*
X108098946Y-106811715D01*
X107985907Y-107380000D01*
X108098946Y-107948285D01*
X108420853Y-108430054D01*
X108750026Y-108650000D01*
X108420853Y-108869946D01*
X108098946Y-109351715D01*
X107985907Y-109920000D01*
X108098946Y-110488285D01*
X108420853Y-110970054D01*
X108750026Y-111190000D01*
X108420853Y-111409946D01*
X108098946Y-111891715D01*
X107985907Y-112460000D01*
X108098946Y-113028285D01*
X108420853Y-113510054D01*
X108902622Y-113831961D01*
X109470907Y-113945000D01*
X109529093Y-113945000D01*
X110097378Y-113831961D01*
X110579147Y-113510054D01*
X110901054Y-113028285D01*
X111014093Y-112460000D01*
X110901054Y-111891715D01*
X110579147Y-111409946D01*
X110249974Y-111190000D01*
X110579147Y-110970054D01*
X110901054Y-110488285D01*
X111014093Y-109920000D01*
X110911687Y-109405167D01*
X111840838Y-109405167D01*
X111982883Y-109748943D01*
X112245673Y-110012192D01*
X112589201Y-110154838D01*
X112636077Y-110154879D01*
X113872878Y-111391680D01*
X113872838Y-111437167D01*
X114014883Y-111780943D01*
X114277673Y-112044192D01*
X114621201Y-112186838D01*
X114993167Y-112187162D01*
X115336943Y-112045117D01*
X115600192Y-111782327D01*
X115742838Y-111438799D01*
X115743162Y-111066833D01*
X115601117Y-110723057D01*
X115338327Y-110459808D01*
X114994799Y-110317162D01*
X114947923Y-110317121D01*
X113711122Y-109080320D01*
X113711162Y-109034833D01*
X113569117Y-108691057D01*
X113536000Y-108657882D01*
X113536000Y-104131745D01*
X117535861Y-104131745D01*
X117609995Y-104377864D01*
X118147223Y-104570965D01*
X118717454Y-104543778D01*
X119118005Y-104377864D01*
X119192139Y-104131745D01*
X118364000Y-103303605D01*
X117535861Y-104131745D01*
X113536000Y-104131745D01*
X113536000Y-102907223D01*
X116917035Y-102907223D01*
X116944222Y-103477454D01*
X117110136Y-103878005D01*
X117356255Y-103952139D01*
X118184395Y-103124000D01*
X117356255Y-102295861D01*
X117110136Y-102369995D01*
X116917035Y-102907223D01*
X113536000Y-102907223D01*
X113536000Y-102116255D01*
X117535861Y-102116255D01*
X118364000Y-102944395D01*
X119192139Y-102116255D01*
X119118005Y-101870136D01*
X118580777Y-101677035D01*
X118010546Y-101704222D01*
X117609995Y-101870136D01*
X117535861Y-102116255D01*
X113536000Y-102116255D01*
X113536000Y-101963802D01*
X116814052Y-98685750D01*
X117540000Y-98685750D01*
X117540000Y-99126309D01*
X117636673Y-99359698D01*
X117815301Y-99538327D01*
X118048690Y-99635000D01*
X118264250Y-99635000D01*
X118423000Y-99476250D01*
X118423000Y-98527000D01*
X118677000Y-98527000D01*
X118677000Y-99476250D01*
X118835750Y-99635000D01*
X119051310Y-99635000D01*
X119284699Y-99538327D01*
X119463327Y-99359698D01*
X119560000Y-99126309D01*
X119560000Y-98685750D01*
X119401250Y-98527000D01*
X118677000Y-98527000D01*
X118423000Y-98527000D01*
X117698750Y-98527000D01*
X117540000Y-98685750D01*
X116814052Y-98685750D01*
X117540000Y-97959802D01*
X117540000Y-98114250D01*
X117698750Y-98273000D01*
X118423000Y-98273000D01*
X118423000Y-98253000D01*
X118677000Y-98253000D01*
X118677000Y-98273000D01*
X119401250Y-98273000D01*
X119560000Y-98114250D01*
X119560000Y-97673691D01*
X119463327Y-97440302D01*
X119461957Y-97438932D01*
X119521431Y-97351890D01*
X119572440Y-97100000D01*
X119572440Y-95900000D01*
X119528162Y-95664683D01*
X119389090Y-95448559D01*
X119176890Y-95303569D01*
X118925000Y-95252560D01*
X118175000Y-95252560D01*
X117939683Y-95296838D01*
X117723559Y-95435910D01*
X117578569Y-95648110D01*
X117534801Y-95864242D01*
X117387599Y-95962599D01*
X112238599Y-101111599D01*
X112073852Y-101358161D01*
X112016000Y-101649000D01*
X112016000Y-108657537D01*
X111983808Y-108689673D01*
X111841162Y-109033201D01*
X111840838Y-109405167D01*
X110911687Y-109405167D01*
X110901054Y-109351715D01*
X110579147Y-108869946D01*
X110249974Y-108650000D01*
X110579147Y-108430054D01*
X110901054Y-107948285D01*
X111014093Y-107380000D01*
X110901054Y-106811715D01*
X110579147Y-106329946D01*
X110249974Y-106110000D01*
X110579147Y-105890054D01*
X110901054Y-105408285D01*
X111014093Y-104840000D01*
X110901054Y-104271715D01*
X110579147Y-103789946D01*
X110238447Y-103562298D01*
X110381358Y-103495183D01*
X110771645Y-103066924D01*
X110941476Y-102656890D01*
X110820155Y-102427000D01*
X109627000Y-102427000D01*
X109627000Y-102447000D01*
X109373000Y-102447000D01*
X109373000Y-102427000D01*
X108179845Y-102427000D01*
X108058524Y-102656890D01*
X108228355Y-103066924D01*
X108618642Y-103495183D01*
X108761553Y-103562298D01*
X108420853Y-103789946D01*
X108098946Y-104271715D01*
X107985907Y-104840000D01*
X107710000Y-104840000D01*
X107710000Y-100116890D01*
X108058524Y-100116890D01*
X108228355Y-100526924D01*
X108618642Y-100955183D01*
X108777954Y-101030000D01*
X108618642Y-101104817D01*
X108228355Y-101533076D01*
X108058524Y-101943110D01*
X108179845Y-102173000D01*
X109373000Y-102173000D01*
X109373000Y-99887000D01*
X109627000Y-99887000D01*
X109627000Y-102173000D01*
X110820155Y-102173000D01*
X110941476Y-101943110D01*
X110771645Y-101533076D01*
X110381358Y-101104817D01*
X110222046Y-101030000D01*
X110381358Y-100955183D01*
X110771645Y-100526924D01*
X110941476Y-100116890D01*
X110820155Y-99887000D01*
X109627000Y-99887000D01*
X109373000Y-99887000D01*
X108179845Y-99887000D01*
X108058524Y-100116890D01*
X107710000Y-100116890D01*
X107710000Y-92140000D01*
X107985907Y-92140000D01*
X108098946Y-92708285D01*
X108420853Y-93190054D01*
X108750026Y-93410000D01*
X108420853Y-93629946D01*
X108098946Y-94111715D01*
X107985907Y-94680000D01*
X108098946Y-95248285D01*
X108420853Y-95730054D01*
X108750026Y-95950000D01*
X108420853Y-96169946D01*
X108098946Y-96651715D01*
X107985907Y-97220000D01*
X108098946Y-97788285D01*
X108420853Y-98270054D01*
X108761553Y-98497702D01*
X108618642Y-98564817D01*
X108228355Y-98993076D01*
X108058524Y-99403110D01*
X108179845Y-99633000D01*
X109373000Y-99633000D01*
X109373000Y-99613000D01*
X109627000Y-99613000D01*
X109627000Y-99633000D01*
X110820155Y-99633000D01*
X110941476Y-99403110D01*
X110771645Y-98993076D01*
X110381358Y-98564817D01*
X110238447Y-98497702D01*
X110579147Y-98270054D01*
X110901054Y-97788285D01*
X111014093Y-97220000D01*
X110901054Y-96651715D01*
X110579147Y-96169946D01*
X110249974Y-95950000D01*
X110579147Y-95730054D01*
X110901054Y-95248285D01*
X111014093Y-94680000D01*
X110901054Y-94111715D01*
X110579147Y-93629946D01*
X110249974Y-93410000D01*
X110579147Y-93190054D01*
X110901054Y-92708285D01*
X111014093Y-92140000D01*
X110901054Y-91571715D01*
X110579147Y-91089946D01*
X110537548Y-91062150D01*
X110585317Y-91053162D01*
X110801441Y-90914090D01*
X110946431Y-90701890D01*
X110997440Y-90450000D01*
X110997440Y-88750000D01*
X110953162Y-88514683D01*
X110814090Y-88298559D01*
X110601890Y-88153569D01*
X110350000Y-88102560D01*
X108650000Y-88102560D01*
X108414683Y-88146838D01*
X108198559Y-88285910D01*
X108053569Y-88498110D01*
X108002560Y-88750000D01*
X108002560Y-90450000D01*
X108046838Y-90685317D01*
X108185910Y-90901441D01*
X108398110Y-91046431D01*
X108465541Y-91060086D01*
X108420853Y-91089946D01*
X108098946Y-91571715D01*
X107985907Y-92140000D01*
X107710000Y-92140000D01*
X107710000Y-87910000D01*
X111300000Y-87910000D01*
X111571705Y-87855954D01*
X111802046Y-87702046D01*
X111955954Y-87471705D01*
X112010000Y-87200000D01*
X112010000Y-83728000D01*
X112261560Y-83728000D01*
X112261560Y-84928000D01*
X112305838Y-85163317D01*
X112444910Y-85379441D01*
X112657110Y-85524431D01*
X112909000Y-85575440D01*
X113231638Y-85575440D01*
X118109599Y-90453401D01*
X118356160Y-90618148D01*
X118647000Y-90676000D01*
X120211000Y-90676000D01*
X120211000Y-94941537D01*
X120178808Y-94973673D01*
X120036162Y-95317201D01*
X120035838Y-95689167D01*
X120177883Y-96032943D01*
X120211000Y-96066118D01*
X120211000Y-101676560D01*
X120064000Y-101676560D01*
X119828683Y-101720838D01*
X119612559Y-101859910D01*
X119467569Y-102072110D01*
X119419354Y-102310201D01*
X119371745Y-102295861D01*
X118543605Y-103124000D01*
X119371745Y-103952139D01*
X119419167Y-103937855D01*
X119460838Y-104159317D01*
X119599910Y-104375441D01*
X119812110Y-104520431D01*
X120064000Y-104571440D01*
X121664000Y-104571440D01*
X121899317Y-104527162D01*
X122115441Y-104388090D01*
X122260431Y-104175890D01*
X122311440Y-103924000D01*
X122311440Y-102324000D01*
X122267162Y-102088683D01*
X122128090Y-101872559D01*
X121915890Y-101727569D01*
X121731000Y-101690128D01*
X121731000Y-96264000D01*
X122428000Y-96264000D01*
X122718839Y-96206148D01*
X122965401Y-96041401D01*
X124955093Y-94051709D01*
X125000580Y-94051749D01*
X125344356Y-93909704D01*
X125607605Y-93646914D01*
X125750251Y-93303386D01*
X125750575Y-92931420D01*
X125608530Y-92587644D01*
X125345740Y-92324395D01*
X125002212Y-92181749D01*
X124630246Y-92181425D01*
X124286470Y-92323470D01*
X124023221Y-92586260D01*
X123880575Y-92929788D01*
X123880534Y-92976664D01*
X122113198Y-94744000D01*
X121731000Y-94744000D01*
X121731000Y-90478463D01*
X121763192Y-90446327D01*
X121905838Y-90102799D01*
X121906162Y-89730833D01*
X121764117Y-89387057D01*
X121760000Y-89382933D01*
X121760000Y-88992334D01*
X121835317Y-88978162D01*
X122051441Y-88839090D01*
X122196431Y-88626890D01*
X122247440Y-88375000D01*
X122247440Y-87625000D01*
X122203162Y-87389683D01*
X122064090Y-87173559D01*
X121851890Y-87028569D01*
X121600000Y-86977560D01*
X120400000Y-86977560D01*
X120164683Y-87021838D01*
X120061354Y-87088329D01*
X120059698Y-87086673D01*
X119826309Y-86990000D01*
X119385750Y-86990000D01*
X119227000Y-87148750D01*
X119227000Y-87873000D01*
X119247000Y-87873000D01*
X119247000Y-88127000D01*
X119227000Y-88127000D01*
X119227000Y-88851250D01*
X119385750Y-89010000D01*
X119826309Y-89010000D01*
X120059698Y-88913327D01*
X120061068Y-88911957D01*
X120148110Y-88971431D01*
X120240000Y-88990039D01*
X120240000Y-89156000D01*
X118961802Y-89156000D01*
X118815026Y-89009224D01*
X118973000Y-88851250D01*
X118973000Y-88127000D01*
X118023750Y-88127000D01*
X117978276Y-88172474D01*
X117304492Y-87498690D01*
X117865000Y-87498690D01*
X117865000Y-87714250D01*
X118023750Y-87873000D01*
X118973000Y-87873000D01*
X118973000Y-87148750D01*
X118814250Y-86990000D01*
X118373691Y-86990000D01*
X118140302Y-87086673D01*
X117961673Y-87265301D01*
X117865000Y-87498690D01*
X117304492Y-87498690D01*
X114306440Y-84500638D01*
X114306440Y-83728000D01*
X114262162Y-83492683D01*
X114195671Y-83389354D01*
X114197327Y-83387698D01*
X114294000Y-83154309D01*
X114294000Y-82713750D01*
X114135250Y-82555000D01*
X113411000Y-82555000D01*
X113411000Y-82575000D01*
X113157000Y-82575000D01*
X113157000Y-82555000D01*
X112432750Y-82555000D01*
X112274000Y-82713750D01*
X112274000Y-83154309D01*
X112370673Y-83387698D01*
X112372043Y-83389068D01*
X112312569Y-83476110D01*
X112261560Y-83728000D01*
X112010000Y-83728000D01*
X112010000Y-81701691D01*
X112274000Y-81701691D01*
X112274000Y-82142250D01*
X112432750Y-82301000D01*
X113157000Y-82301000D01*
X113157000Y-81351750D01*
X113411000Y-81351750D01*
X113411000Y-82301000D01*
X114135250Y-82301000D01*
X114294000Y-82142250D01*
X114294000Y-81701691D01*
X114197327Y-81468302D01*
X114018699Y-81289673D01*
X113785310Y-81193000D01*
X113569750Y-81193000D01*
X113411000Y-81351750D01*
X113157000Y-81351750D01*
X112998250Y-81193000D01*
X112782690Y-81193000D01*
X112549301Y-81289673D01*
X112370673Y-81468302D01*
X112274000Y-81701691D01*
X112010000Y-81701691D01*
X112010000Y-80710000D01*
X161290000Y-80710000D01*
X161290000Y-87000000D01*
G36*
X163476575Y-102667941D02*
X161168185Y-104976331D01*
X161003438Y-105222893D01*
X160945586Y-105513732D01*
X160945586Y-106139001D01*
X160913394Y-106171137D01*
X160770748Y-106514665D01*
X160770424Y-106886631D01*
X160912469Y-107230407D01*
X161175259Y-107493656D01*
X161518787Y-107636302D01*
X161890753Y-107636626D01*
X162234529Y-107494581D01*
X162497778Y-107231791D01*
X162640424Y-106888263D01*
X162640748Y-106516297D01*
X162498703Y-106172521D01*
X162465586Y-106139346D01*
X162465586Y-105828534D01*
X163268411Y-105025709D01*
X163289526Y-105076813D01*
X163552316Y-105340062D01*
X163895844Y-105482708D01*
X164267810Y-105483032D01*
X164347711Y-105450018D01*
X161362022Y-108435706D01*
X161362020Y-108435709D01*
X161278978Y-108518750D01*
X161158870Y-108568378D01*
X160895621Y-108831168D01*
X160887488Y-108850754D01*
X160757666Y-108764010D01*
X160457259Y-108704255D01*
X158398379Y-108704255D01*
X158398379Y-107003881D01*
X162156355Y-103245906D01*
X162237167Y-103245976D01*
X162580943Y-103103931D01*
X162844192Y-102841141D01*
X162986838Y-102497613D01*
X162987162Y-102125647D01*
X162845117Y-101781871D01*
X162787000Y-101723652D01*
X162787000Y-100485877D01*
X163088943Y-100361117D01*
X163352192Y-100098327D01*
X163476575Y-99798781D01*
X163476575Y-102667941D01*
X163476575Y-102667941D01*
G37*
X163476575Y-102667941D02*
X161168185Y-104976331D01*
X161003438Y-105222893D01*
X160945586Y-105513732D01*
X160945586Y-106139001D01*
X160913394Y-106171137D01*
X160770748Y-106514665D01*
X160770424Y-106886631D01*
X160912469Y-107230407D01*
X161175259Y-107493656D01*
X161518787Y-107636302D01*
X161890753Y-107636626D01*
X162234529Y-107494581D01*
X162497778Y-107231791D01*
X162640424Y-106888263D01*
X162640748Y-106516297D01*
X162498703Y-106172521D01*
X162465586Y-106139346D01*
X162465586Y-105828534D01*
X163268411Y-105025709D01*
X163289526Y-105076813D01*
X163552316Y-105340062D01*
X163895844Y-105482708D01*
X164267810Y-105483032D01*
X164347711Y-105450018D01*
X161362022Y-108435706D01*
X161362020Y-108435709D01*
X161278978Y-108518750D01*
X161158870Y-108568378D01*
X160895621Y-108831168D01*
X160887488Y-108850754D01*
X160757666Y-108764010D01*
X160457259Y-108704255D01*
X158398379Y-108704255D01*
X158398379Y-107003881D01*
X162156355Y-103245906D01*
X162237167Y-103245976D01*
X162580943Y-103103931D01*
X162844192Y-102841141D01*
X162986838Y-102497613D01*
X162987162Y-102125647D01*
X162845117Y-101781871D01*
X162787000Y-101723652D01*
X162787000Y-100485877D01*
X163088943Y-100361117D01*
X163352192Y-100098327D01*
X163476575Y-99798781D01*
X163476575Y-102667941D01*
G36*
X153069288Y-95088518D02*
X153069290Y-95088521D01*
X153356405Y-95280364D01*
X153695080Y-95347731D01*
X164226517Y-95347731D01*
X164226522Y-95347732D01*
X164553488Y-95282693D01*
X164565197Y-95280364D01*
X164852312Y-95088521D01*
X164852313Y-95088520D01*
X165856392Y-94084440D01*
X165861305Y-94084440D01*
X165793980Y-94246575D01*
X165793656Y-94618541D01*
X165935701Y-94962317D01*
X165968818Y-94995492D01*
X165968818Y-101586893D01*
X164996575Y-102559136D01*
X164996575Y-99014629D01*
X165221990Y-98921490D01*
X165485239Y-98658700D01*
X165627885Y-98315172D01*
X165628209Y-97943206D01*
X165486164Y-97599430D01*
X165223374Y-97336181D01*
X164879846Y-97193535D01*
X164507880Y-97193211D01*
X164164104Y-97335256D01*
X163900855Y-97598046D01*
X163758209Y-97941574D01*
X163758168Y-97988450D01*
X163699174Y-98047444D01*
X163534427Y-98294006D01*
X163476575Y-98584845D01*
X163476575Y-99337849D01*
X163353117Y-99039057D01*
X163090327Y-98775808D01*
X162746799Y-98633162D01*
X162374833Y-98632838D01*
X162031057Y-98774883D01*
X162022926Y-98783000D01*
X160556057Y-98783000D01*
X157496510Y-95723453D01*
X157241838Y-95553287D01*
X156941431Y-95493532D01*
X152603690Y-95493532D01*
X150435153Y-93324995D01*
X150435162Y-93314833D01*
X150293117Y-92971057D01*
X150139087Y-92816758D01*
X150797527Y-92816758D01*
X153069288Y-95088518D01*
X153069288Y-95088518D01*
G37*
X153069288Y-95088518D02*
X153069290Y-95088521D01*
X153356405Y-95280364D01*
X153695080Y-95347731D01*
X164226517Y-95347731D01*
X164226522Y-95347732D01*
X164553488Y-95282693D01*
X164565197Y-95280364D01*
X164852312Y-95088521D01*
X164852313Y-95088520D01*
X165856392Y-94084440D01*
X165861305Y-94084440D01*
X165793980Y-94246575D01*
X165793656Y-94618541D01*
X165935701Y-94962317D01*
X165968818Y-94995492D01*
X165968818Y-101586893D01*
X164996575Y-102559136D01*
X164996575Y-99014629D01*
X165221990Y-98921490D01*
X165485239Y-98658700D01*
X165627885Y-98315172D01*
X165628209Y-97943206D01*
X165486164Y-97599430D01*
X165223374Y-97336181D01*
X164879846Y-97193535D01*
X164507880Y-97193211D01*
X164164104Y-97335256D01*
X163900855Y-97598046D01*
X163758209Y-97941574D01*
X163758168Y-97988450D01*
X163699174Y-98047444D01*
X163534427Y-98294006D01*
X163476575Y-98584845D01*
X163476575Y-99337849D01*
X163353117Y-99039057D01*
X163090327Y-98775808D01*
X162746799Y-98633162D01*
X162374833Y-98632838D01*
X162031057Y-98774883D01*
X162022926Y-98783000D01*
X160556057Y-98783000D01*
X157496510Y-95723453D01*
X157241838Y-95553287D01*
X156941431Y-95493532D01*
X152603690Y-95493532D01*
X150435153Y-93324995D01*
X150435162Y-93314833D01*
X150293117Y-92971057D01*
X150139087Y-92816758D01*
X150797527Y-92816758D01*
X153069288Y-95088518D01*
M02*
