G04 #@! TF.FileFunction,Soldermask,Top*
%FSLAX46Y46*%
G04 Gerber Fmt 4.6, Leading zero omitted, Abs format (unit mm)*
G04 Created by KiCad (PCBNEW 4.0.7-e2-6376~58~ubuntu16.04.1) date Sat Oct 21 11:32:06 2017*
%MOMM*%
%LPD*%
G01*
G04 APERTURE LIST*
%ADD10C,0.100000*%
%ADD11R,2.400000X2.400000*%
%ADD12C,2.400000*%
%ADD13R,1.600000X1.150000*%
%ADD14R,1.150000X1.600000*%
%ADD15R,2.400000X2.900000*%
%ADD16R,2.900000X2.400000*%
%ADD17R,2.200000X2.200000*%
%ADD18C,2.200000*%
%ADD19R,1.300000X1.600000*%
%ADD20R,1.600000X1.300000*%
%ADD21C,1.920000*%
%ADD22C,3.100000*%
%ADD23R,2.100000X2.100000*%
%ADD24O,2.100000X2.100000*%
%ADD25R,2.000000X2.000000*%
%ADD26C,2.000000*%
%ADD27R,4.150000X1.450000*%
%ADD28R,8.700000X10.900000*%
G04 APERTURE END LIST*
D10*
D11*
X142220000Y-86868000D03*
D12*
X134620000Y-86868000D03*
D13*
X121000000Y-88000000D03*
X119100000Y-88000000D03*
X126116000Y-85344000D03*
X128016000Y-85344000D03*
D14*
X152908000Y-84196000D03*
X152908000Y-82296000D03*
X113284000Y-84328000D03*
X113284000Y-82428000D03*
D13*
X126116000Y-87376000D03*
X128016000Y-87376000D03*
D14*
X118550000Y-96500000D03*
X118550000Y-98400000D03*
D15*
X126556000Y-82804000D03*
X130556000Y-82804000D03*
D16*
X131064000Y-91980000D03*
X131064000Y-95980000D03*
D17*
X177000000Y-118540000D03*
D18*
X177000000Y-116000000D03*
X177000000Y-113460000D03*
D17*
X177000000Y-88540000D03*
D18*
X177000000Y-86000000D03*
X177000000Y-83460000D03*
D19*
X150368000Y-84328000D03*
X150368000Y-82128000D03*
D20*
X118300000Y-107500000D03*
X120500000Y-107500000D03*
D19*
X144000000Y-103500000D03*
X144000000Y-105700000D03*
D21*
X173000000Y-102290000D03*
X173000000Y-99750000D03*
X175000000Y-99750000D03*
X175000000Y-102290000D03*
D22*
X177700000Y-107020000D03*
X177700000Y-95020000D03*
D23*
X159004000Y-118872000D03*
D24*
X156464000Y-118872000D03*
X153924000Y-118872000D03*
X151384000Y-118872000D03*
D23*
X109500000Y-89600000D03*
D24*
X109500000Y-92140000D03*
X109500000Y-94680000D03*
X109500000Y-97220000D03*
X109500000Y-99760000D03*
X109500000Y-102300000D03*
X109500000Y-104840000D03*
X109500000Y-107380000D03*
X109500000Y-109920000D03*
X109500000Y-112460000D03*
D25*
X115648000Y-119652000D03*
D26*
X115648000Y-117152000D03*
D25*
X144112000Y-117152000D03*
D26*
X144112000Y-119652000D03*
D19*
X156464000Y-84668000D03*
X156464000Y-86868000D03*
X159512000Y-84752000D03*
X159512000Y-86952000D03*
D25*
X120864000Y-103124000D03*
D26*
X118364000Y-103124000D03*
D27*
X134112000Y-117856000D03*
X134112000Y-112776000D03*
D28*
X123612000Y-115316000D03*
M02*
