M48
;DRILL file {KiCad 4.0.7-e2-6376~58~ubuntu16.04.1} date Sat Oct 21 11:32:35 2017
;FORMAT={-:-/ absolute / metric / decimal}
FMAT,2
METRIC,TZ
T1C0.400
T2C0.800
T3C0.810
T4C0.900
T5C1.000
T6C2.300
%
G90
G05
M71
T1
X112.776Y-109.22
X114.808Y-111.252
X117.348Y-81.788
X120.971Y-89.916
X120.971Y-95.504
X121.513Y-82.638
X123.952Y-108.204
X124.815Y-93.117
X124.865Y-104.286
X124.946Y-102.638
X124.968Y-99.06
X125.374Y-100.679
X126.19Y-104.609
X126.492Y-89.916
X127.Y-98.552
X127.45Y-100.317
X128.016Y-102.74
X128.459Y-99.897
X128.524Y-92.964
X128.524Y-96.012
X129.54Y-87.884
X130.392Y-87.212
X131.064Y-87.884
X131.572Y-111.586
X131.887Y-101.552
X132.105Y-87.813
X133.176Y-102.028
X133.439Y-95.231
X133.5Y-97.
X133.525Y-93.836
X133.535Y-99.983
X133.604Y-81.788
X134.112Y-101.6
X136.652Y-88.392
X136.652Y-90.424
X136.652Y-99.061
X137.16Y-96.011
X137.668Y-90.999
X137.668Y-115.316
X138.684Y-91.44
X139.Y-106.
X141.732Y-97.536
X142.24Y-91.44
X142.24Y-100.584
X144.272Y-91.44
X144.272Y-98.552
X144.805Y-92.592
X145.327Y-95.465
X145.482Y-96.326
X145.5Y-102.
X147.283Y-109.687
X148.339Y-109.524
X148.844Y-95.504
X149.5Y-93.5
X150.Y-108.5
X150.876Y-92.964
X150.876Y-112.31
X151.835Y-105.228
X152.285Y-103.328
X152.66Y-109.938
X152.801Y-91.71
X153.451Y-99.096
X154.Y-89.5
X154.825Y-86.36
X155.207Y-97.412
X155.448Y-115.824
X156.464Y-98.552
X156.972Y-99.486
X157.663Y-109.489
X157.988Y-84.328
X158.496Y-87.884
X158.496Y-101.667
X158.496Y-114.3
X158.76Y-91.44
X158.887Y-95.387
X159.Y-107.
X160.528Y-83.312
X160.588Y-110.804
X161.036Y-92.964
X161.544Y-98.044
X161.688Y-109.361
X161.706Y-106.701
X162.052Y-88.9
X162.052Y-102.311
X162.56Y-99.568
X164.083Y-104.548
X164.693Y-98.128
X164.919Y-104.581
X166.729Y-94.433
X167.132Y-110.744
X167.758Y-95.463
X168.148Y-104.581
X174.244Y-96.012
X177.292Y-98.044
T2
X115.648Y-117.152
X115.648Y-119.652
X118.364Y-103.124
X120.864Y-103.124
X144.112Y-117.152
X144.112Y-119.652
T3
X173.Y-99.75
X173.Y-102.29
X175.Y-99.75
X175.Y-102.29
T4
X177.Y-83.46
X177.Y-86.
X177.Y-88.54
X177.Y-113.46
X177.Y-116.
X177.Y-118.54
T5
X109.5Y-89.6
X109.5Y-92.14
X109.5Y-94.68
X109.5Y-97.22
X109.5Y-99.76
X109.5Y-102.3
X109.5Y-104.84
X109.5Y-107.38
X109.5Y-109.92
X109.5Y-112.46
X134.62Y-86.868
X142.22Y-86.868
X151.384Y-118.872
X153.924Y-118.872
X156.464Y-118.872
X159.004Y-118.872
T6
X177.7Y-95.02
X177.7Y-107.02
T0
M30
