G04 #@! TF.FileFunction,Copper,L2,Bot,Mixed*
%FSLAX46Y46*%
G04 Gerber Fmt 4.6, Leading zero omitted, Abs format (unit mm)*
G04 Created by KiCad (PCBNEW 4.0.7-e2-6376~58~ubuntu16.04.1) date Sat Oct 21 11:32:06 2017*
%MOMM*%
%LPD*%
G01*
G04 APERTURE LIST*
%ADD10C,0.100000*%
%ADD11R,2.000000X3.800000*%
%ADD12R,2.000000X1.500000*%
%ADD13R,2.000000X2.000000*%
%ADD14C,2.000000*%
%ADD15R,1.200000X0.750000*%
%ADD16R,0.750000X1.200000*%
%ADD17R,0.600000X1.100000*%
%ADD18R,0.350000X0.350000*%
%ADD19R,0.900000X0.800000*%
%ADD20R,1.100000X0.600000*%
%ADD21R,1.000000X1.000000*%
%ADD22R,1.800000X1.800000*%
%ADD23C,1.800000*%
%ADD24R,0.900000X1.200000*%
%ADD25R,1.200000X0.900000*%
%ADD26R,1.500000X0.600000*%
%ADD27R,1.550000X0.600000*%
%ADD28R,0.800000X0.900000*%
%ADD29C,1.520000*%
%ADD30C,2.700000*%
%ADD31R,1.700000X1.700000*%
%ADD32O,1.700000X1.700000*%
%ADD33R,1.600000X1.600000*%
%ADD34C,1.600000*%
%ADD35R,2.100000X1.700000*%
%ADD36R,0.550000X1.750000*%
%ADD37R,1.300000X0.250000*%
%ADD38R,0.250000X1.300000*%
%ADD39C,0.600000*%
%ADD40C,0.250000*%
%ADD41C,0.300000*%
%ADD42C,0.200000*%
%ADD43C,0.150000*%
%ADD44C,0.500000*%
%ADD45C,0.600000*%
%ADD46C,0.700000*%
%ADD47C,0.253000*%
%ADD48C,0.254000*%
G04 APERTURE END LIST*
D10*
G36*
X161048101Y-102736023D02*
X160871324Y-102912800D01*
X160164217Y-102205693D01*
X160340994Y-102028916D01*
X161048101Y-102736023D01*
X161048101Y-102736023D01*
G37*
G36*
X160694548Y-103089577D02*
X160517771Y-103266354D01*
X159810664Y-102559247D01*
X159987441Y-102382470D01*
X160694548Y-103089577D01*
X160694548Y-103089577D01*
G37*
G36*
X160340994Y-103443130D02*
X160164217Y-103619907D01*
X159457110Y-102912800D01*
X159633887Y-102736023D01*
X160340994Y-103443130D01*
X160340994Y-103443130D01*
G37*
G36*
X159987441Y-103796683D02*
X159810664Y-103973460D01*
X159103557Y-103266353D01*
X159280334Y-103089576D01*
X159987441Y-103796683D01*
X159987441Y-103796683D01*
G37*
G36*
X159633888Y-104150237D02*
X159457111Y-104327014D01*
X158750004Y-103619907D01*
X158926781Y-103443130D01*
X159633888Y-104150237D01*
X159633888Y-104150237D01*
G37*
G36*
X159280334Y-104503790D02*
X159103557Y-104680567D01*
X158396450Y-103973460D01*
X158573227Y-103796683D01*
X159280334Y-104503790D01*
X159280334Y-104503790D01*
G37*
G36*
X158926781Y-104857344D02*
X158750004Y-105034121D01*
X158042897Y-104327014D01*
X158219674Y-104150237D01*
X158926781Y-104857344D01*
X158926781Y-104857344D01*
G37*
G36*
X158573227Y-105210897D02*
X158396450Y-105387674D01*
X157689343Y-104680567D01*
X157866120Y-104503790D01*
X158573227Y-105210897D01*
X158573227Y-105210897D01*
G37*
G36*
X158219674Y-105564450D02*
X158042897Y-105741227D01*
X157335790Y-105034120D01*
X157512567Y-104857343D01*
X158219674Y-105564450D01*
X158219674Y-105564450D01*
G37*
G36*
X157866121Y-105918004D02*
X157689344Y-106094781D01*
X156982237Y-105387674D01*
X157159014Y-105210897D01*
X157866121Y-105918004D01*
X157866121Y-105918004D01*
G37*
G36*
X157512567Y-106271557D02*
X157335790Y-106448334D01*
X156628683Y-105741227D01*
X156805460Y-105564450D01*
X157512567Y-106271557D01*
X157512567Y-106271557D01*
G37*
G36*
X157159014Y-106625111D02*
X156982237Y-106801888D01*
X156275130Y-106094781D01*
X156451907Y-105918004D01*
X157159014Y-106625111D01*
X157159014Y-106625111D01*
G37*
G36*
X156805460Y-106978664D02*
X156628683Y-107155441D01*
X155921576Y-106448334D01*
X156098353Y-106271557D01*
X156805460Y-106978664D01*
X156805460Y-106978664D01*
G37*
G36*
X156451907Y-107332217D02*
X156275130Y-107508994D01*
X155568023Y-106801887D01*
X155744800Y-106625110D01*
X156451907Y-107332217D01*
X156451907Y-107332217D01*
G37*
G36*
X156098354Y-107685771D02*
X155921577Y-107862548D01*
X155214470Y-107155441D01*
X155391247Y-106978664D01*
X156098354Y-107685771D01*
X156098354Y-107685771D01*
G37*
G36*
X155744800Y-108039324D02*
X155568023Y-108216101D01*
X154860916Y-107508994D01*
X155037693Y-107332217D01*
X155744800Y-108039324D01*
X155744800Y-108039324D01*
G37*
G36*
X152279977Y-108216101D02*
X152103200Y-108039324D01*
X152810307Y-107332217D01*
X152987084Y-107508994D01*
X152279977Y-108216101D01*
X152279977Y-108216101D01*
G37*
G36*
X151926423Y-107862548D02*
X151749646Y-107685771D01*
X152456753Y-106978664D01*
X152633530Y-107155441D01*
X151926423Y-107862548D01*
X151926423Y-107862548D01*
G37*
G36*
X151572870Y-107508994D02*
X151396093Y-107332217D01*
X152103200Y-106625110D01*
X152279977Y-106801887D01*
X151572870Y-107508994D01*
X151572870Y-107508994D01*
G37*
G36*
X151219317Y-107155441D02*
X151042540Y-106978664D01*
X151749647Y-106271557D01*
X151926424Y-106448334D01*
X151219317Y-107155441D01*
X151219317Y-107155441D01*
G37*
G36*
X150865763Y-106801888D02*
X150688986Y-106625111D01*
X151396093Y-105918004D01*
X151572870Y-106094781D01*
X150865763Y-106801888D01*
X150865763Y-106801888D01*
G37*
G36*
X150512210Y-106448334D02*
X150335433Y-106271557D01*
X151042540Y-105564450D01*
X151219317Y-105741227D01*
X150512210Y-106448334D01*
X150512210Y-106448334D01*
G37*
G36*
X150158656Y-106094781D02*
X149981879Y-105918004D01*
X150688986Y-105210897D01*
X150865763Y-105387674D01*
X150158656Y-106094781D01*
X150158656Y-106094781D01*
G37*
G36*
X149805103Y-105741227D02*
X149628326Y-105564450D01*
X150335433Y-104857343D01*
X150512210Y-105034120D01*
X149805103Y-105741227D01*
X149805103Y-105741227D01*
G37*
G36*
X149451550Y-105387674D02*
X149274773Y-105210897D01*
X149981880Y-104503790D01*
X150158657Y-104680567D01*
X149451550Y-105387674D01*
X149451550Y-105387674D01*
G37*
G36*
X149097996Y-105034121D02*
X148921219Y-104857344D01*
X149628326Y-104150237D01*
X149805103Y-104327014D01*
X149097996Y-105034121D01*
X149097996Y-105034121D01*
G37*
G36*
X148744443Y-104680567D02*
X148567666Y-104503790D01*
X149274773Y-103796683D01*
X149451550Y-103973460D01*
X148744443Y-104680567D01*
X148744443Y-104680567D01*
G37*
G36*
X148390889Y-104327014D02*
X148214112Y-104150237D01*
X148921219Y-103443130D01*
X149097996Y-103619907D01*
X148390889Y-104327014D01*
X148390889Y-104327014D01*
G37*
G36*
X148037336Y-103973460D02*
X147860559Y-103796683D01*
X148567666Y-103089576D01*
X148744443Y-103266353D01*
X148037336Y-103973460D01*
X148037336Y-103973460D01*
G37*
G36*
X147683783Y-103619907D02*
X147507006Y-103443130D01*
X148214113Y-102736023D01*
X148390890Y-102912800D01*
X147683783Y-103619907D01*
X147683783Y-103619907D01*
G37*
G36*
X147330229Y-103266354D02*
X147153452Y-103089577D01*
X147860559Y-102382470D01*
X148037336Y-102559247D01*
X147330229Y-103266354D01*
X147330229Y-103266354D01*
G37*
G36*
X146976676Y-102912800D02*
X146799899Y-102736023D01*
X147507006Y-102028916D01*
X147683783Y-102205693D01*
X146976676Y-102912800D01*
X146976676Y-102912800D01*
G37*
G36*
X147683783Y-99978307D02*
X147507006Y-100155084D01*
X146799899Y-99447977D01*
X146976676Y-99271200D01*
X147683783Y-99978307D01*
X147683783Y-99978307D01*
G37*
G36*
X148037336Y-99624753D02*
X147860559Y-99801530D01*
X147153452Y-99094423D01*
X147330229Y-98917646D01*
X148037336Y-99624753D01*
X148037336Y-99624753D01*
G37*
G36*
X148390890Y-99271200D02*
X148214113Y-99447977D01*
X147507006Y-98740870D01*
X147683783Y-98564093D01*
X148390890Y-99271200D01*
X148390890Y-99271200D01*
G37*
G36*
X148744443Y-98917647D02*
X148567666Y-99094424D01*
X147860559Y-98387317D01*
X148037336Y-98210540D01*
X148744443Y-98917647D01*
X148744443Y-98917647D01*
G37*
G36*
X149097996Y-98564093D02*
X148921219Y-98740870D01*
X148214112Y-98033763D01*
X148390889Y-97856986D01*
X149097996Y-98564093D01*
X149097996Y-98564093D01*
G37*
G36*
X149451550Y-98210540D02*
X149274773Y-98387317D01*
X148567666Y-97680210D01*
X148744443Y-97503433D01*
X149451550Y-98210540D01*
X149451550Y-98210540D01*
G37*
G36*
X149805103Y-97856986D02*
X149628326Y-98033763D01*
X148921219Y-97326656D01*
X149097996Y-97149879D01*
X149805103Y-97856986D01*
X149805103Y-97856986D01*
G37*
G36*
X150158657Y-97503433D02*
X149981880Y-97680210D01*
X149274773Y-96973103D01*
X149451550Y-96796326D01*
X150158657Y-97503433D01*
X150158657Y-97503433D01*
G37*
G36*
X150512210Y-97149880D02*
X150335433Y-97326657D01*
X149628326Y-96619550D01*
X149805103Y-96442773D01*
X150512210Y-97149880D01*
X150512210Y-97149880D01*
G37*
G36*
X150865763Y-96796326D02*
X150688986Y-96973103D01*
X149981879Y-96265996D01*
X150158656Y-96089219D01*
X150865763Y-96796326D01*
X150865763Y-96796326D01*
G37*
G36*
X151219317Y-96442773D02*
X151042540Y-96619550D01*
X150335433Y-95912443D01*
X150512210Y-95735666D01*
X151219317Y-96442773D01*
X151219317Y-96442773D01*
G37*
G36*
X151572870Y-96089219D02*
X151396093Y-96265996D01*
X150688986Y-95558889D01*
X150865763Y-95382112D01*
X151572870Y-96089219D01*
X151572870Y-96089219D01*
G37*
G36*
X151926424Y-95735666D02*
X151749647Y-95912443D01*
X151042540Y-95205336D01*
X151219317Y-95028559D01*
X151926424Y-95735666D01*
X151926424Y-95735666D01*
G37*
G36*
X152279977Y-95382113D02*
X152103200Y-95558890D01*
X151396093Y-94851783D01*
X151572870Y-94675006D01*
X152279977Y-95382113D01*
X152279977Y-95382113D01*
G37*
G36*
X152633530Y-95028559D02*
X152456753Y-95205336D01*
X151749646Y-94498229D01*
X151926423Y-94321452D01*
X152633530Y-95028559D01*
X152633530Y-95028559D01*
G37*
G36*
X152987084Y-94675006D02*
X152810307Y-94851783D01*
X152103200Y-94144676D01*
X152279977Y-93967899D01*
X152987084Y-94675006D01*
X152987084Y-94675006D01*
G37*
G36*
X155037693Y-94851783D02*
X154860916Y-94675006D01*
X155568023Y-93967899D01*
X155744800Y-94144676D01*
X155037693Y-94851783D01*
X155037693Y-94851783D01*
G37*
G36*
X155391247Y-95205336D02*
X155214470Y-95028559D01*
X155921577Y-94321452D01*
X156098354Y-94498229D01*
X155391247Y-95205336D01*
X155391247Y-95205336D01*
G37*
G36*
X155744800Y-95558890D02*
X155568023Y-95382113D01*
X156275130Y-94675006D01*
X156451907Y-94851783D01*
X155744800Y-95558890D01*
X155744800Y-95558890D01*
G37*
G36*
X156098353Y-95912443D02*
X155921576Y-95735666D01*
X156628683Y-95028559D01*
X156805460Y-95205336D01*
X156098353Y-95912443D01*
X156098353Y-95912443D01*
G37*
G36*
X156451907Y-96265996D02*
X156275130Y-96089219D01*
X156982237Y-95382112D01*
X157159014Y-95558889D01*
X156451907Y-96265996D01*
X156451907Y-96265996D01*
G37*
G36*
X156805460Y-96619550D02*
X156628683Y-96442773D01*
X157335790Y-95735666D01*
X157512567Y-95912443D01*
X156805460Y-96619550D01*
X156805460Y-96619550D01*
G37*
G36*
X157159014Y-96973103D02*
X156982237Y-96796326D01*
X157689344Y-96089219D01*
X157866121Y-96265996D01*
X157159014Y-96973103D01*
X157159014Y-96973103D01*
G37*
G36*
X157512567Y-97326657D02*
X157335790Y-97149880D01*
X158042897Y-96442773D01*
X158219674Y-96619550D01*
X157512567Y-97326657D01*
X157512567Y-97326657D01*
G37*
G36*
X157866120Y-97680210D02*
X157689343Y-97503433D01*
X158396450Y-96796326D01*
X158573227Y-96973103D01*
X157866120Y-97680210D01*
X157866120Y-97680210D01*
G37*
G36*
X158219674Y-98033763D02*
X158042897Y-97856986D01*
X158750004Y-97149879D01*
X158926781Y-97326656D01*
X158219674Y-98033763D01*
X158219674Y-98033763D01*
G37*
G36*
X158573227Y-98387317D02*
X158396450Y-98210540D01*
X159103557Y-97503433D01*
X159280334Y-97680210D01*
X158573227Y-98387317D01*
X158573227Y-98387317D01*
G37*
G36*
X158926781Y-98740870D02*
X158750004Y-98564093D01*
X159457111Y-97856986D01*
X159633888Y-98033763D01*
X158926781Y-98740870D01*
X158926781Y-98740870D01*
G37*
G36*
X159280334Y-99094424D02*
X159103557Y-98917647D01*
X159810664Y-98210540D01*
X159987441Y-98387317D01*
X159280334Y-99094424D01*
X159280334Y-99094424D01*
G37*
G36*
X159633887Y-99447977D02*
X159457110Y-99271200D01*
X160164217Y-98564093D01*
X160340994Y-98740870D01*
X159633887Y-99447977D01*
X159633887Y-99447977D01*
G37*
G36*
X159987441Y-99801530D02*
X159810664Y-99624753D01*
X160517771Y-98917646D01*
X160694548Y-99094423D01*
X159987441Y-99801530D01*
X159987441Y-99801530D01*
G37*
G36*
X160340994Y-100155084D02*
X160164217Y-99978307D01*
X160871324Y-99271200D01*
X161048101Y-99447977D01*
X160340994Y-100155084D01*
X160340994Y-100155084D01*
G37*
D11*
X141252000Y-117152000D03*
D12*
X134952000Y-117152000D03*
X134952000Y-114852000D03*
X134952000Y-119452000D03*
D13*
X142220000Y-86868000D03*
D14*
X134620000Y-86868000D03*
D15*
X120904000Y-81534000D03*
X119004000Y-81534000D03*
D16*
X118458000Y-118652000D03*
X118458000Y-116752000D03*
D15*
X113289000Y-81534000D03*
X115189000Y-81534000D03*
D16*
X129872000Y-112712000D03*
X129872000Y-114612000D03*
D15*
X132042000Y-116752000D03*
X130142000Y-116752000D03*
X132042000Y-119292000D03*
X130142000Y-119292000D03*
D16*
X146304000Y-117988000D03*
X146304000Y-119888000D03*
X148336000Y-117988000D03*
X148336000Y-119888000D03*
D15*
X146812000Y-115824000D03*
X148712000Y-115824000D03*
X169164000Y-106172000D03*
X167264000Y-106172000D03*
X163200000Y-106172000D03*
X165100000Y-106172000D03*
D17*
X113284000Y-116164000D03*
X113284000Y-118364000D03*
D18*
X132080000Y-113487000D03*
X132080000Y-114937000D03*
D19*
X138208000Y-98486000D03*
X138208000Y-96586000D03*
X140208000Y-97536000D03*
D18*
X142748000Y-113792000D03*
X141298000Y-113792000D03*
D20*
X159680000Y-115824000D03*
X157480000Y-115824000D03*
D21*
X139934000Y-83820000D03*
X137434000Y-83820000D03*
D22*
X177000000Y-118540000D03*
D23*
X177000000Y-116000000D03*
X177000000Y-113460000D03*
D22*
X177000000Y-88540000D03*
D23*
X177000000Y-86000000D03*
X177000000Y-83460000D03*
D24*
X119380000Y-85512000D03*
X119380000Y-83312000D03*
X117348000Y-85512000D03*
X117348000Y-83312000D03*
X115316000Y-85512000D03*
X115316000Y-83312000D03*
X113284000Y-85512000D03*
X113284000Y-83312000D03*
X123444000Y-104308000D03*
X123444000Y-102108000D03*
X173736000Y-110068000D03*
X173736000Y-112268000D03*
D25*
X114976000Y-103632000D03*
X112776000Y-103632000D03*
X112776000Y-101600000D03*
X114976000Y-101600000D03*
D24*
X141224000Y-102784000D03*
X141224000Y-100584000D03*
X136652000Y-102784000D03*
X136652000Y-100584000D03*
X139700000Y-102784000D03*
X139700000Y-100584000D03*
X138176000Y-102784000D03*
X138176000Y-100584000D03*
X135128000Y-102784000D03*
X135128000Y-100584000D03*
X179832000Y-114976000D03*
X179832000Y-112776000D03*
D25*
X169332000Y-103632000D03*
X167132000Y-103632000D03*
D24*
X173736000Y-84836000D03*
X173736000Y-82636000D03*
X173736000Y-91100000D03*
X173736000Y-88900000D03*
D25*
X169332000Y-101600000D03*
X167132000Y-101600000D03*
X117516000Y-113284000D03*
X115316000Y-113284000D03*
X127676000Y-107188000D03*
X125476000Y-107188000D03*
D24*
X112776000Y-107864000D03*
X112776000Y-105664000D03*
X112776000Y-110744000D03*
X112776000Y-112944000D03*
D26*
X122584000Y-89154000D03*
X122584000Y-90424000D03*
X122584000Y-91694000D03*
X122584000Y-92964000D03*
X122584000Y-94234000D03*
X122584000Y-95504000D03*
X122584000Y-96774000D03*
X122584000Y-98044000D03*
X113284000Y-98044000D03*
X113284000Y-96774000D03*
X113284000Y-95504000D03*
X113284000Y-94234000D03*
X113284000Y-92964000D03*
X113284000Y-91694000D03*
X113284000Y-90424000D03*
X113284000Y-89154000D03*
D27*
X120716000Y-105918000D03*
X120716000Y-107188000D03*
X120716000Y-108458000D03*
X120716000Y-109728000D03*
X115316000Y-109728000D03*
X115316000Y-108458000D03*
X115316000Y-107188000D03*
X115316000Y-105918000D03*
D28*
X148270000Y-88868000D03*
X146370000Y-88868000D03*
X147320000Y-86868000D03*
D29*
X173000000Y-102290000D03*
X173000000Y-99750000D03*
X175000000Y-99750000D03*
X175000000Y-102290000D03*
D30*
X177700000Y-107020000D03*
X177700000Y-95020000D03*
D31*
X159004000Y-118872000D03*
D32*
X156464000Y-118872000D03*
X153924000Y-118872000D03*
X151384000Y-118872000D03*
D31*
X109500000Y-89600000D03*
D32*
X109500000Y-92140000D03*
X109500000Y-94680000D03*
X109500000Y-97220000D03*
X109500000Y-99760000D03*
X109500000Y-102300000D03*
X109500000Y-104840000D03*
X109500000Y-107380000D03*
X109500000Y-109920000D03*
X109500000Y-112460000D03*
D33*
X115648000Y-119652000D03*
D34*
X115648000Y-117152000D03*
D33*
X144112000Y-117152000D03*
D34*
X144112000Y-119652000D03*
D16*
X121412000Y-85720000D03*
X121412000Y-83820000D03*
X132080000Y-83820000D03*
X132080000Y-81920000D03*
D35*
X123952000Y-82296000D03*
X129852000Y-82296000D03*
X129852000Y-84996000D03*
X123952000Y-84996000D03*
X169574000Y-111078000D03*
X163674000Y-111078000D03*
X163674000Y-108378000D03*
X169574000Y-108378000D03*
D36*
X155575000Y-82152000D03*
X156845000Y-82152000D03*
X158115000Y-82152000D03*
X159385000Y-82152000D03*
X159385000Y-89552000D03*
X158115000Y-89552000D03*
X156845000Y-89552000D03*
X155575000Y-89552000D03*
D33*
X120864000Y-103124000D03*
D34*
X118364000Y-103124000D03*
D37*
X135414000Y-91230000D03*
X135414000Y-91730000D03*
X135414000Y-92230000D03*
X135414000Y-92730000D03*
X135414000Y-93230000D03*
X135414000Y-93730000D03*
X135414000Y-94230000D03*
X135414000Y-94730000D03*
X135414000Y-95230000D03*
X135414000Y-95730000D03*
X135414000Y-96230000D03*
X135414000Y-96730000D03*
D38*
X133814000Y-98330000D03*
X133314000Y-98330000D03*
X132814000Y-98330000D03*
X132314000Y-98330000D03*
X131814000Y-98330000D03*
X131314000Y-98330000D03*
X130814000Y-98330000D03*
X130314000Y-98330000D03*
X129814000Y-98330000D03*
X129314000Y-98330000D03*
X128814000Y-98330000D03*
X128314000Y-98330000D03*
D37*
X126714000Y-96730000D03*
X126714000Y-96230000D03*
X126714000Y-95730000D03*
X126714000Y-95230000D03*
X126714000Y-94730000D03*
X126714000Y-94230000D03*
X126714000Y-93730000D03*
X126714000Y-93230000D03*
X126714000Y-92730000D03*
X126714000Y-92230000D03*
X126714000Y-91730000D03*
X126714000Y-91230000D03*
D38*
X128314000Y-89630000D03*
X128814000Y-89630000D03*
X129314000Y-89630000D03*
X129814000Y-89630000D03*
X130314000Y-89630000D03*
X130814000Y-89630000D03*
X131314000Y-89630000D03*
X131814000Y-89630000D03*
X132314000Y-89630000D03*
X132814000Y-89630000D03*
X133314000Y-89630000D03*
X133814000Y-89630000D03*
D39*
X159000000Y-107000000D03*
X150876000Y-92964000D03*
X132105400Y-87812880D03*
X161544000Y-98044000D03*
X158886768Y-95386769D03*
X162052000Y-88900000D03*
X129540000Y-87884000D03*
X124945669Y-102638331D03*
X160528000Y-83312000D03*
X121512897Y-82638449D03*
X167132000Y-110744000D03*
X133604000Y-81788000D03*
X117348000Y-81788000D03*
X124815413Y-93116587D03*
X128524000Y-92964000D03*
X120971000Y-89916000D03*
X120971000Y-95504000D03*
X131572000Y-111586000D03*
X126492000Y-89916000D03*
X133524933Y-93835941D03*
X114808000Y-111252000D03*
X112776000Y-109220000D03*
X174244000Y-96012000D03*
X144272000Y-91440000D03*
X137668000Y-90999000D03*
X141732000Y-97536000D03*
X128524000Y-96012000D03*
X148339042Y-109524494D03*
X152660236Y-109938228D03*
X160588087Y-110804087D03*
X142240000Y-100584000D03*
X136652000Y-99061000D03*
X137160000Y-96011000D03*
X166728818Y-94433374D03*
X164082643Y-104547870D03*
X167758445Y-95463000D03*
X164918748Y-104581000D03*
X151834934Y-105228354D03*
X126190192Y-104608507D03*
X148844000Y-95504000D03*
X147282783Y-109686995D03*
X152284861Y-103328368D03*
X136652000Y-90424000D03*
X144272000Y-98552000D03*
X138684000Y-91440000D03*
X156972000Y-99486248D03*
X145327083Y-95464917D03*
X153450842Y-99095804D03*
X145481523Y-96326477D03*
X128016000Y-102740053D03*
X133176499Y-102027501D03*
X125373856Y-100678830D03*
X128458824Y-99897012D03*
X127449743Y-100316517D03*
X131887417Y-101551593D03*
X124968000Y-99060000D03*
X127000000Y-98552000D03*
X142240000Y-91440000D03*
X131064000Y-87884000D03*
X155207242Y-97412322D03*
X152800770Y-91710109D03*
X177292000Y-98044000D03*
X161036000Y-92964000D03*
X161705586Y-106701464D03*
X164693047Y-98128373D03*
X150876000Y-112310000D03*
X123952000Y-108204000D03*
X124865265Y-104285501D03*
X156464000Y-98552000D03*
X154824999Y-86360000D03*
X158496000Y-87884000D03*
X158760000Y-91440000D03*
X157988000Y-84328000D03*
X161687813Y-109361495D03*
X144805320Y-92592104D03*
X139000000Y-106000000D03*
X154000000Y-89500000D03*
X133439199Y-95231100D03*
X133500000Y-97000000D03*
X136652000Y-88392000D03*
X133534515Y-99982864D03*
X134112000Y-101600000D03*
X137668000Y-115316000D03*
X130392247Y-87212247D03*
X158496000Y-101667000D03*
X168148000Y-104581000D03*
X158496000Y-114300000D03*
X145500000Y-102000000D03*
X150000000Y-108500000D03*
X157663379Y-109489255D03*
X149500000Y-93500000D03*
X162560000Y-99568000D03*
X162052000Y-102310814D03*
X155448000Y-115824000D03*
D40*
X112776000Y-112268000D02*
X112776000Y-112118000D01*
X139934000Y-83820000D02*
X139934000Y-85832000D01*
X139934000Y-85832000D02*
X140970000Y-86868000D01*
X140970000Y-86868000D02*
X142220000Y-86868000D01*
X142220000Y-86868000D02*
X147320000Y-86868000D01*
D41*
X152214430Y-102000000D02*
X150000000Y-102000000D01*
X150000000Y-102000000D02*
X148500000Y-102000000D01*
X153000000Y-105024418D02*
X153000000Y-104987418D01*
X153000000Y-104987418D02*
X152140951Y-104128369D01*
X150000000Y-102227509D02*
X150000000Y-102000000D01*
X152140951Y-104128369D02*
X151900860Y-104128369D01*
X151900860Y-104128369D02*
X150000000Y-102227509D01*
X155330200Y-105115770D02*
X152214430Y-102000000D01*
D40*
X148500000Y-102000000D02*
X147595394Y-102824412D01*
X153000000Y-106591484D02*
X152191588Y-107420606D01*
X153000000Y-105024418D02*
X153000000Y-106591484D01*
X156717072Y-106359946D02*
X155330200Y-105115770D01*
X158499999Y-107000000D02*
X158103944Y-107396055D01*
X158103944Y-107396055D02*
X156717072Y-106359946D01*
X159000000Y-107000000D02*
X158499999Y-107000000D01*
D41*
X134000000Y-96230000D02*
X133730000Y-96230000D01*
X133730000Y-96230000D02*
X133531101Y-96031101D01*
X133531101Y-96031101D02*
X132482899Y-96031101D01*
X132482899Y-96031101D02*
X131814000Y-96700000D01*
D40*
X131814000Y-96700000D02*
X130396002Y-96700000D01*
X130396002Y-96700000D02*
X128426002Y-94730000D01*
D41*
X128426002Y-94730000D02*
X128200000Y-94730000D01*
D40*
X128200000Y-91730000D02*
X128474002Y-91730000D01*
X128474002Y-91730000D02*
X129324001Y-92579999D01*
X129324001Y-92579999D02*
X129324001Y-93605999D01*
X129324001Y-93605999D02*
X128200000Y-94730000D01*
D42*
X129814000Y-91116000D02*
X128814000Y-91116000D01*
X129814000Y-91116000D02*
X129814000Y-89630000D01*
D40*
X128814000Y-91116000D02*
X128200000Y-91730000D01*
X126714000Y-91730000D02*
X128200000Y-91730000D01*
X126714000Y-94730000D02*
X128200000Y-94730000D01*
X131814000Y-98330000D02*
X131814000Y-96700000D01*
X135414000Y-96230000D02*
X134000000Y-96230000D01*
X137434000Y-83820000D02*
X137434000Y-84570000D01*
X137434000Y-84570000D02*
X135136000Y-86868000D01*
X135136000Y-86868000D02*
X134620000Y-86868000D01*
D42*
X161544000Y-98044000D02*
X160252606Y-99359588D01*
X150876000Y-93472000D02*
X152191588Y-94763394D01*
X150876000Y-92964000D02*
X150876000Y-93472000D01*
D41*
X142240000Y-120396000D02*
X142240000Y-120392630D01*
X142240000Y-120392630D02*
X142980630Y-119652000D01*
X142980630Y-119652000D02*
X144112000Y-119652000D01*
X137196000Y-120396000D02*
X142240000Y-120396000D01*
X134952000Y-119452000D02*
X136252000Y-119452000D01*
X136252000Y-119452000D02*
X137196000Y-120396000D01*
D40*
X131814000Y-89630000D02*
X132314000Y-89630000D01*
D43*
X132105400Y-87812880D02*
X132105400Y-87820500D01*
X132105400Y-87812880D02*
X131805401Y-88112879D01*
X131805401Y-88112879D02*
X131814000Y-89630000D01*
D41*
X162052000Y-88900000D02*
X160010010Y-90941990D01*
X160010010Y-90941990D02*
X160010010Y-94263527D01*
X160010010Y-94263527D02*
X158886768Y-95386769D01*
D43*
X129814000Y-89630000D02*
X129814000Y-88392000D01*
X129623736Y-88392000D02*
X129813989Y-88392000D01*
X129540000Y-87884000D02*
X129540000Y-88308264D01*
X129540000Y-88308264D02*
X129623736Y-88392000D01*
D41*
X146304000Y-119888000D02*
X148336000Y-119888000D01*
X146304000Y-119888000D02*
X144348000Y-119888000D01*
X144348000Y-119888000D02*
X144112000Y-119652000D01*
X167132000Y-110744000D02*
X167132000Y-106304000D01*
X167132000Y-106304000D02*
X167264000Y-106172000D01*
X148712000Y-115824000D02*
X149538081Y-115824000D01*
X149538081Y-115824000D02*
X151384000Y-117669919D01*
X151384000Y-117669919D02*
X151384000Y-118872000D01*
X130142000Y-116752000D02*
X130142000Y-114882000D01*
X130142000Y-114882000D02*
X129872000Y-114612000D01*
X118458000Y-116752000D02*
X127957000Y-116752000D01*
X127957000Y-116752000D02*
X129872000Y-114837000D01*
X129872000Y-114837000D02*
X129872000Y-114612000D01*
D42*
X123444000Y-104308000D02*
X123444000Y-104158000D01*
X123444000Y-104158000D02*
X124945669Y-102656331D01*
X124945669Y-102656331D02*
X124945669Y-102638331D01*
X122428000Y-104648000D02*
X122768000Y-104308000D01*
X122768000Y-104308000D02*
X123444000Y-104308000D01*
X119888000Y-104648000D02*
X122428000Y-104648000D01*
X118364000Y-103124000D02*
X119888000Y-104648000D01*
D41*
X120716000Y-107188000D02*
X125476000Y-107188000D01*
X118364000Y-103124000D02*
X117564001Y-103923999D01*
X117564001Y-103923999D02*
X117564001Y-105111001D01*
X117564001Y-105111001D02*
X117570999Y-105117999D01*
X159385000Y-82152000D02*
X159385000Y-82169000D01*
X159385000Y-82169000D02*
X160528000Y-83312000D01*
X121412000Y-83820000D02*
X121412000Y-82739346D01*
X121412000Y-82739346D02*
X121512897Y-82638449D01*
X133839009Y-85071009D02*
X133604000Y-84836000D01*
X133604000Y-84836000D02*
X133604000Y-81788000D01*
X134620000Y-86868000D02*
X134112000Y-86868000D01*
X134112000Y-86868000D02*
X133839009Y-86595009D01*
X133839009Y-86595009D02*
X133839009Y-85071009D01*
X165100000Y-106172000D02*
X167264000Y-106172000D01*
X115316000Y-113284000D02*
X115316000Y-116820000D01*
X115316000Y-116820000D02*
X115648000Y-117152000D01*
X112776000Y-103632000D02*
X112926000Y-103632000D01*
X119641000Y-107188000D02*
X120716000Y-107188000D01*
X112926000Y-103632000D02*
X114411999Y-105117999D01*
X114411999Y-105117999D02*
X117570999Y-105117999D01*
X117570999Y-105117999D02*
X119641000Y-107188000D01*
X133604000Y-81788000D02*
X132212000Y-81788000D01*
X132212000Y-81788000D02*
X132080000Y-81920000D01*
X117348000Y-81788000D02*
X119258000Y-81788000D01*
X119258000Y-81788000D02*
X119512000Y-81534000D01*
X117348000Y-81788000D02*
X115443000Y-81788000D01*
X115443000Y-81788000D02*
X115189000Y-81534000D01*
D44*
X112776000Y-101600000D02*
X112776000Y-103632000D01*
X112776000Y-101600000D02*
X110200000Y-101600000D01*
X110200000Y-101600000D02*
X109500000Y-102300000D01*
D41*
X130142000Y-119292000D02*
X130142000Y-120562000D01*
X130142000Y-120562000D02*
X133592000Y-120562000D01*
X133592000Y-120562000D02*
X134702000Y-119452000D01*
X134702000Y-119452000D02*
X134952000Y-119452000D01*
X130142000Y-116752000D02*
X130142000Y-119292000D01*
X130142000Y-116752000D02*
X129917000Y-116752000D01*
X118458000Y-116752000D02*
X116048000Y-116752000D01*
X116048000Y-116752000D02*
X115648000Y-117152000D01*
D45*
X135202000Y-119452000D02*
X134952000Y-119452000D01*
X134712000Y-119692000D02*
X134952000Y-119452000D01*
D40*
X126714000Y-93230000D02*
X124928826Y-93230000D01*
X124928826Y-93230000D02*
X124815413Y-93116587D01*
X128524000Y-92964000D02*
X128258000Y-93230000D01*
X128258000Y-93230000D02*
X126714000Y-93230000D01*
X122584000Y-90424000D02*
X121479000Y-90424000D01*
X121479000Y-90424000D02*
X120971000Y-89916000D01*
D43*
X122584000Y-96774000D02*
X122134000Y-96774000D01*
X122134000Y-96774000D02*
X120971000Y-95611000D01*
X120971000Y-95611000D02*
X120971000Y-95504000D01*
D40*
X120904000Y-81534000D02*
X120904000Y-82159000D01*
X120904000Y-82159000D02*
X119751000Y-83312000D01*
X119248000Y-83180000D02*
X119380000Y-83312000D01*
X117348000Y-83312000D02*
X119380000Y-83312000D01*
X113284000Y-83312000D02*
X113284000Y-81539000D01*
X113284000Y-81539000D02*
X113289000Y-81534000D01*
X113284000Y-83312000D02*
X115316000Y-83312000D01*
X131572000Y-111637000D02*
X130497000Y-112712000D01*
X130497000Y-112712000D02*
X129872000Y-112712000D01*
D42*
X131412000Y-112942000D02*
X131957000Y-113487000D01*
X129877000Y-112942000D02*
X131412000Y-112942000D01*
X129872000Y-112712000D02*
X129872000Y-112937000D01*
X129872000Y-112937000D02*
X129877000Y-112942000D01*
D43*
X126492000Y-89916000D02*
X126492000Y-90957999D01*
X126492000Y-90957999D02*
X126714000Y-91230000D01*
X132812217Y-88391535D02*
X132814000Y-89630000D01*
X132864001Y-87144001D02*
X132864001Y-88339751D01*
X132864001Y-88339751D02*
X132812217Y-88391535D01*
X132080000Y-86360000D02*
X132864001Y-87144001D01*
X128216000Y-86360000D02*
X132080000Y-86360000D01*
X123952000Y-82296000D02*
X124152000Y-82296000D01*
X124152000Y-82296000D02*
X128216000Y-86360000D01*
D42*
X123952000Y-82296000D02*
X122702000Y-82296000D01*
X122702000Y-82296000D02*
X122428000Y-82570000D01*
X122428000Y-82570000D02*
X122428000Y-85344000D01*
X122428000Y-85344000D02*
X122052000Y-85720000D01*
X122052000Y-85720000D02*
X121412000Y-85720000D01*
D43*
X133314000Y-85753999D02*
X133263999Y-85753999D01*
X133263999Y-85703998D02*
X133263999Y-85753999D01*
X133263999Y-85753999D02*
X133314000Y-89630000D01*
X132080000Y-84570000D02*
X132130001Y-84570000D01*
X132130001Y-84570000D02*
X133263999Y-85703998D01*
X132080000Y-83820000D02*
X132080000Y-84570000D01*
D42*
X129852000Y-82296000D02*
X129852000Y-83346000D01*
X130326000Y-83820000D02*
X131505000Y-83820000D01*
X129852000Y-83346000D02*
X130326000Y-83820000D01*
X131505000Y-83820000D02*
X132080000Y-83820000D01*
D40*
X134418992Y-94730000D02*
X133824932Y-94135940D01*
X135414000Y-94730000D02*
X134418992Y-94730000D01*
X133824932Y-94135940D02*
X133524933Y-93835941D01*
X159616209Y-104309335D02*
X159191946Y-103885072D01*
X164342626Y-105156000D02*
X164341535Y-105157091D01*
X160463965Y-105157091D02*
X159616209Y-104309335D01*
X164341535Y-105157091D02*
X160463965Y-105157091D01*
X167923000Y-105156000D02*
X164342626Y-105156000D01*
X168939000Y-106172000D02*
X167923000Y-105156000D01*
X169164000Y-106172000D02*
X168939000Y-106172000D01*
X168939000Y-106172000D02*
X168198999Y-106912001D01*
X168198999Y-106912001D02*
X168198999Y-109902999D01*
X168198999Y-109902999D02*
X169374000Y-111078000D01*
X169374000Y-111078000D02*
X169574000Y-111078000D01*
X163200000Y-106172000D02*
X163425000Y-106172000D01*
X163425000Y-106172000D02*
X164455999Y-107202999D01*
X164984001Y-107202999D02*
X165049001Y-107267999D01*
X164455999Y-107202999D02*
X164984001Y-107202999D01*
X163874000Y-111078000D02*
X163674000Y-111078000D01*
X165049001Y-107267999D02*
X165049001Y-109902999D01*
X165049001Y-109902999D02*
X163874000Y-111078000D01*
X163200000Y-106172000D02*
X162300000Y-106172000D01*
X160263767Y-105664000D02*
X158838392Y-104238625D01*
X161792000Y-105664000D02*
X160263767Y-105664000D01*
X162300000Y-106172000D02*
X161792000Y-105664000D01*
X114808000Y-111252000D02*
X114808000Y-110236000D01*
X114808000Y-110236000D02*
X115316000Y-109728000D01*
X112776000Y-107864000D02*
X112776000Y-109220000D01*
X112776000Y-107864000D02*
X112776000Y-110744000D01*
D42*
X138176000Y-100584000D02*
X138176000Y-98518000D01*
X138176000Y-98518000D02*
X138208000Y-98486000D01*
D40*
X138208000Y-98486000D02*
X134070001Y-98486000D01*
X134070001Y-98486000D02*
X133814000Y-98330000D01*
X136444001Y-96730000D02*
X135414000Y-96730000D01*
D42*
X139700000Y-100584000D02*
X139700000Y-99784000D01*
X139700000Y-99784000D02*
X139192000Y-99276000D01*
X139192000Y-99276000D02*
X139192000Y-97520000D01*
X139192000Y-97520000D02*
X138258000Y-96586000D01*
X138258000Y-96586000D02*
X138208000Y-96586000D01*
D40*
X138208000Y-96586000D02*
X136688002Y-96586000D01*
X136688002Y-96586000D02*
X136444001Y-96730000D01*
X144306002Y-91474002D02*
X143746999Y-90914999D01*
X137752001Y-90914999D02*
X137668000Y-90999000D01*
X143746999Y-90914999D02*
X137752001Y-90914999D01*
X179832000Y-112776000D02*
X179832000Y-101600000D01*
X179832000Y-101600000D02*
X179475001Y-101243001D01*
X141732000Y-97536000D02*
X140208000Y-97536000D01*
X179475001Y-101243001D02*
X174244000Y-96012000D01*
X179832000Y-114976000D02*
X179832000Y-116858000D01*
X179832000Y-116858000D02*
X178150000Y-118540000D01*
X178150000Y-118540000D02*
X177000000Y-118540000D01*
X176824000Y-118364000D02*
X177000000Y-118540000D01*
X173736000Y-110068000D02*
X173736000Y-110218000D01*
X173736000Y-110218000D02*
X173754000Y-110236000D01*
X173754000Y-110236000D02*
X175260000Y-110236000D01*
X175260000Y-110236000D02*
X177000000Y-111976000D01*
X177000000Y-111976000D02*
X177000000Y-113460000D01*
X173736000Y-88900000D02*
X176640000Y-88900000D01*
X176640000Y-88900000D02*
X177000000Y-88540000D01*
X173736000Y-82636000D02*
X176176000Y-82636000D01*
X176176000Y-82636000D02*
X177000000Y-83460000D01*
X119380000Y-85512000D02*
X119380000Y-85662000D01*
X119380000Y-85662000D02*
X122584000Y-88866000D01*
X122584000Y-88866000D02*
X122584000Y-89154000D01*
D43*
X122584000Y-89154000D02*
X122134000Y-89154000D01*
X124954988Y-91948000D02*
X124968000Y-91948000D01*
X125300001Y-92280001D02*
X126714000Y-92230000D01*
X124968000Y-91948000D02*
X125300001Y-92280001D01*
X123952000Y-90072000D02*
X123952000Y-90945012D01*
X123952000Y-90945012D02*
X124954988Y-91948000D01*
X122584000Y-89154000D02*
X123034000Y-89154000D01*
X123034000Y-89154000D02*
X123952000Y-90072000D01*
D40*
X149923602Y-110513229D02*
X149699453Y-110289080D01*
X125838999Y-99533753D02*
X125838999Y-98406999D01*
X146821743Y-110253001D02*
X136558247Y-110253001D01*
X146857822Y-110289080D02*
X146821743Y-110253001D01*
X149699453Y-110289080D02*
X146857822Y-110289080D01*
X124968000Y-97536000D02*
X124968000Y-97076000D01*
X125838999Y-98406999D02*
X124968000Y-97536000D01*
X125814000Y-96230000D02*
X126714000Y-96230000D01*
X136558247Y-110253001D02*
X125838999Y-99533753D01*
X124968000Y-97076000D02*
X125814000Y-96230000D01*
X155302858Y-107774159D02*
X155302858Y-108146608D01*
X155302858Y-108146608D02*
X152936237Y-110513229D01*
X152936237Y-110513229D02*
X149923602Y-110513229D01*
X128524000Y-96012000D02*
X128306000Y-96230000D01*
X128306000Y-96230000D02*
X126714000Y-96230000D01*
X117348000Y-85512000D02*
X117348000Y-87458000D01*
X117348000Y-87458000D02*
X121584000Y-91694000D01*
X121584000Y-91694000D02*
X122584000Y-91694000D01*
D43*
X117348000Y-85662000D02*
X117348000Y-85512000D01*
X122584000Y-91694000D02*
X122134000Y-91694000D01*
X122584000Y-91694000D02*
X124206000Y-91694000D01*
X124206000Y-91694000D02*
X125242000Y-92730000D01*
X125242000Y-92730000D02*
X126714000Y-92730000D01*
X122584000Y-91694000D02*
X123034000Y-91694000D01*
D40*
X115316000Y-85512000D02*
X115316000Y-88686000D01*
X115316000Y-88686000D02*
X122134000Y-95504000D01*
X122134000Y-95504000D02*
X122584000Y-95504000D01*
D43*
X122584000Y-95504000D02*
X123584000Y-95504000D01*
X125814000Y-93730000D02*
X126714000Y-93730000D01*
X125358000Y-93730000D02*
X125814000Y-93730000D01*
X123584000Y-95504000D02*
X125358000Y-93730000D01*
D40*
X113284000Y-85512000D02*
X113284000Y-87376000D01*
X113284000Y-87376000D02*
X120345999Y-94437999D01*
X122134000Y-98044000D02*
X122584000Y-98044000D01*
X120345999Y-94437999D02*
X120345999Y-96255999D01*
X120345999Y-96255999D02*
X122134000Y-98044000D01*
D43*
X113284000Y-85512000D02*
X113284000Y-85662000D01*
X123952000Y-95772410D02*
X123952000Y-95701699D01*
X123952000Y-97676000D02*
X123952000Y-95772410D01*
X123584000Y-98044000D02*
X123952000Y-97676000D01*
X122584000Y-98044000D02*
X123584000Y-98044000D01*
X125473700Y-94179999D02*
X126714000Y-94230000D01*
X123952000Y-95701699D02*
X125473700Y-94179999D01*
D42*
X124277010Y-96194990D02*
X125166999Y-95305001D01*
X125166999Y-95305001D02*
X126714000Y-95230000D01*
X123444000Y-102108000D02*
X123444000Y-101308000D01*
X123444000Y-101308000D02*
X124277010Y-100474990D01*
X124277010Y-100474990D02*
X124277010Y-96194990D01*
D40*
X152246502Y-109524494D02*
X148763306Y-109524494D01*
X152660236Y-109938228D02*
X152246502Y-109524494D01*
X148763306Y-109524494D02*
X148339042Y-109524494D01*
X160888086Y-111104086D02*
X160588087Y-110804087D01*
X162368000Y-112584000D02*
X160888086Y-111104086D01*
X172720000Y-112584000D02*
X162368000Y-112584000D01*
X173736000Y-112268000D02*
X173036000Y-112268000D01*
X173036000Y-112268000D02*
X172720000Y-112584000D01*
X143746999Y-97518999D02*
X143746999Y-97911001D01*
X143746999Y-97911001D02*
X141224000Y-100434000D01*
D43*
X141224000Y-100434000D02*
X141224000Y-100584000D01*
D40*
X141458000Y-95230000D02*
X143746999Y-97518999D01*
X139934000Y-95230000D02*
X141458000Y-95230000D01*
X142240000Y-100584000D02*
X141224000Y-100584000D01*
X135414000Y-95230000D02*
X139934000Y-95230000D01*
X116840000Y-102618000D02*
X116840000Y-93530000D01*
X116840000Y-93530000D02*
X113734000Y-90424000D01*
X113734000Y-90424000D02*
X113284000Y-90424000D01*
X114976000Y-103632000D02*
X115826000Y-103632000D01*
X115826000Y-103632000D02*
X116840000Y-102618000D01*
X114976000Y-101600000D02*
X114976000Y-100650000D01*
X114554000Y-96774000D02*
X113284000Y-96774000D01*
X115316000Y-97536000D02*
X114554000Y-96774000D01*
X115316000Y-100310000D02*
X115316000Y-97536000D01*
X114976000Y-100650000D02*
X115316000Y-100310000D01*
D43*
X137160000Y-96011000D02*
X136735736Y-96011000D01*
X136735736Y-96011000D02*
X136404735Y-95679999D01*
X136404735Y-95679999D02*
X136404001Y-95679999D01*
X136404001Y-95679999D02*
X135414000Y-95730000D01*
D40*
X136652000Y-100584000D02*
X136652000Y-99061000D01*
D43*
X135128000Y-100584000D02*
X134006381Y-100584000D01*
X134006381Y-100584000D02*
X133882516Y-100707865D01*
X133882516Y-100707865D02*
X133186514Y-100707865D01*
X133186514Y-100707865D02*
X132763999Y-100285350D01*
X132763999Y-100285350D02*
X132814000Y-98330000D01*
D40*
X175000000Y-102290000D02*
X173658000Y-103632000D01*
X173658000Y-103632000D02*
X169332000Y-103632000D01*
D42*
X153784761Y-97770780D02*
X151908745Y-95894764D01*
X167282000Y-103632000D02*
X168148000Y-102766000D01*
X154347563Y-97770780D02*
X153784761Y-97770780D01*
X151908745Y-95894764D02*
X151484482Y-95470501D01*
X167707096Y-100630094D02*
X157206877Y-100630094D01*
X168148000Y-101070998D02*
X167707096Y-100630094D01*
X157206877Y-100630094D02*
X154347563Y-97770780D01*
X168148000Y-102766000D02*
X168148000Y-101070998D01*
D40*
X167132000Y-103632000D02*
X167282000Y-103632000D01*
X167028817Y-94133375D02*
X166728818Y-94433374D01*
X173736000Y-84836000D02*
X173736000Y-87426192D01*
X173736000Y-87426192D02*
X167028817Y-94133375D01*
X161268957Y-104547870D02*
X163658379Y-104547870D01*
X159899052Y-103177965D02*
X161268957Y-104547870D01*
X163658379Y-104547870D02*
X164082643Y-104547870D01*
X172121445Y-91100000D02*
X168058444Y-95163001D01*
X168058444Y-95163001D02*
X167758445Y-95463000D01*
X173736000Y-91100000D02*
X172121445Y-91100000D01*
X164918748Y-104581000D02*
X164918748Y-103724286D01*
X164918748Y-103724286D02*
X164557272Y-103362810D01*
X164557272Y-103362810D02*
X161341810Y-103362810D01*
D42*
X161341810Y-103362810D02*
X160684923Y-103362810D01*
X160684923Y-103362810D02*
X160252606Y-102824412D01*
D40*
X169332000Y-101600000D02*
X172310000Y-101600000D01*
X172310000Y-101600000D02*
X173000000Y-102290000D01*
D42*
X153477665Y-98170791D02*
X151130928Y-95824054D01*
X166282000Y-101600000D02*
X165774000Y-101092000D01*
X165774000Y-101092000D02*
X157103083Y-101092000D01*
X157103083Y-101092000D02*
X154181874Y-98170791D01*
X154181874Y-98170791D02*
X153477665Y-98170791D01*
X167132000Y-101600000D02*
X166282000Y-101600000D01*
D40*
X117516000Y-113284000D02*
X117516000Y-107643000D01*
X117516000Y-107643000D02*
X115791000Y-105918000D01*
X115791000Y-105918000D02*
X115316000Y-105918000D01*
X151892000Y-105646547D02*
X151961407Y-105577140D01*
X151961407Y-105577140D02*
X151961407Y-105354827D01*
X151961407Y-105354827D02*
X151834934Y-105228354D01*
D42*
X151130928Y-106359946D02*
X151892000Y-105646547D01*
X151892000Y-105646547D02*
X151892000Y-105664000D01*
D46*
X126246507Y-104608507D02*
X126190192Y-104608507D01*
X127676000Y-106038000D02*
X126246507Y-104608507D01*
X127676000Y-107188000D02*
X127676000Y-106038000D01*
D40*
X148270000Y-88868000D02*
X148270000Y-94930000D01*
X148270000Y-94930000D02*
X148844000Y-95504000D01*
X147282783Y-108923815D02*
X147282783Y-109262731D01*
X148635009Y-107571589D02*
X147282783Y-108923815D01*
X149476411Y-107571589D02*
X148635009Y-107571589D01*
X150113976Y-106934024D02*
X149476411Y-107571589D01*
X147282783Y-109262731D02*
X147282783Y-109686995D01*
D43*
X150777375Y-106006392D02*
X150113976Y-106680000D01*
X150113976Y-106680000D02*
X150113976Y-106934024D01*
D40*
X113792000Y-106139000D02*
X114841000Y-107188000D01*
X114841000Y-107188000D02*
X115316000Y-107188000D01*
X113792000Y-105980000D02*
X113792000Y-106139000D01*
X112776000Y-105664000D02*
X113476000Y-105664000D01*
X113476000Y-105664000D02*
X113792000Y-105980000D01*
X112776000Y-105664000D02*
X110324000Y-105664000D01*
X110324000Y-105664000D02*
X109500000Y-104840000D01*
X113792000Y-112628000D02*
X113792000Y-109507000D01*
X113792000Y-109507000D02*
X114841000Y-108458000D01*
X114841000Y-108458000D02*
X115316000Y-108458000D01*
X112776000Y-112944000D02*
X113476000Y-112944000D01*
X113476000Y-112944000D02*
X113792000Y-112628000D01*
X111252000Y-109132000D02*
X111252000Y-111270000D01*
X111252000Y-111270000D02*
X112776000Y-112794000D01*
X112776000Y-112794000D02*
X112776000Y-112944000D01*
X109500000Y-107380000D02*
X111252000Y-109132000D01*
X153108540Y-107331486D02*
X154073905Y-106366121D01*
X154073905Y-106366121D02*
X154073905Y-105117412D01*
X154073905Y-105117412D02*
X152584860Y-103628367D01*
X152584860Y-103628367D02*
X152284861Y-103328368D01*
D42*
X153108540Y-107331486D02*
X153058540Y-107331486D01*
D40*
X135846000Y-91230000D02*
X136652000Y-90424000D01*
D42*
X153058540Y-107331486D02*
X152545142Y-107774159D01*
D40*
X135414000Y-91230000D02*
X135846000Y-91230000D01*
D43*
X144780000Y-103124000D02*
X145621480Y-103965480D01*
X145621480Y-103965480D02*
X147302839Y-103965480D01*
X147302839Y-103965480D02*
X147948948Y-103177965D01*
X138684000Y-91440000D02*
X138259736Y-91440000D01*
D42*
X144272000Y-98552000D02*
X144272000Y-102616000D01*
X144272000Y-102616000D02*
X144780000Y-103124000D01*
D43*
X136214000Y-91730000D02*
X135414000Y-91730000D01*
X137969736Y-91730000D02*
X136214000Y-91730000D01*
X138259736Y-91440000D02*
X137969736Y-91730000D01*
X158711733Y-99486248D02*
X157396264Y-99486248D01*
X159545499Y-98652482D02*
X158711733Y-99486248D01*
X157396264Y-99486248D02*
X156972000Y-99486248D01*
D41*
X142092166Y-92230000D02*
X145327083Y-95464917D01*
X135414000Y-92230000D02*
X142092166Y-92230000D01*
D40*
X153875106Y-99095804D02*
X153450842Y-99095804D01*
X154046197Y-99095804D02*
X153875106Y-99095804D01*
X154455518Y-102684178D02*
X154455518Y-99505125D01*
X154455518Y-99505125D02*
X154046197Y-99095804D01*
X157424179Y-105652839D02*
X154455518Y-102684178D01*
D41*
X135414000Y-92730000D02*
X141672926Y-92730000D01*
X145269403Y-96326477D02*
X145481523Y-96326477D01*
X141672926Y-92730000D02*
X145269403Y-96326477D01*
X135414000Y-93230000D02*
X141465806Y-93230000D01*
X141465806Y-93230000D02*
X147595394Y-99359588D01*
X135414000Y-93730000D02*
X141258699Y-93730000D01*
X141258699Y-93730000D02*
X147241841Y-99713142D01*
D40*
X154055507Y-102957181D02*
X156267994Y-105169668D01*
X149330048Y-99670814D02*
X154055507Y-99670814D01*
X135414000Y-94230000D02*
X141157645Y-94230000D01*
X154055507Y-99670814D02*
X154055507Y-102957181D01*
X145288000Y-98360355D02*
X145288000Y-99568000D01*
X141157645Y-94230000D02*
X145288000Y-98360355D01*
X145288000Y-99568000D02*
X146150411Y-100430411D01*
X146150411Y-100430411D02*
X148570451Y-100430411D01*
X148570451Y-100430411D02*
X149330048Y-99670814D01*
D42*
X156267994Y-105169668D02*
X157070625Y-106006392D01*
X149624028Y-110744000D02*
X136019947Y-110744000D01*
X149768268Y-110888240D02*
X149624028Y-110744000D01*
X155656412Y-107420606D02*
X156080675Y-107844869D01*
X156080675Y-107844869D02*
X156080675Y-109095325D01*
X156080675Y-109095325D02*
X154287760Y-110888240D01*
X128315999Y-103040052D02*
X128016000Y-102740053D01*
X136019947Y-110744000D02*
X128315999Y-103040052D01*
X154287760Y-110888240D02*
X149768268Y-110888240D01*
D43*
X132364001Y-100790739D02*
X132314000Y-98330000D01*
X133176499Y-101603237D02*
X132364001Y-100790739D01*
X133176499Y-102027501D02*
X133176499Y-101603237D01*
D42*
X136424822Y-106937528D02*
X136437528Y-106937528D01*
X136437528Y-106937528D02*
X137270661Y-107770661D01*
X137270661Y-107770661D02*
X145477572Y-107770661D01*
X145477572Y-107770661D02*
X146310705Y-106937528D01*
X149009608Y-104238625D02*
X146310705Y-106937528D01*
X131239010Y-101751716D02*
X131314000Y-98330000D01*
X136424822Y-106937528D02*
X131239010Y-101751716D01*
D43*
X131263999Y-98380001D02*
X131263999Y-98330000D01*
D42*
X130814000Y-101927760D02*
X137031911Y-108145671D01*
X137031911Y-108145671D02*
X145774328Y-108145671D01*
X145774328Y-108145671D02*
X149181364Y-104738635D01*
X130814000Y-98330000D02*
X130814000Y-101927760D01*
D41*
X149181364Y-104738635D02*
X149181364Y-104738622D01*
X149181364Y-104738622D02*
X149345484Y-104574502D01*
D42*
X145964819Y-108650744D02*
X149669831Y-104945732D01*
X136829864Y-108650744D02*
X145964819Y-108650744D01*
X130314000Y-98330000D02*
X130314000Y-102134880D01*
X130314000Y-102134880D02*
X136829864Y-108650744D01*
X149669831Y-104945732D02*
X149681374Y-104945732D01*
D41*
X149681374Y-104945732D02*
X149716701Y-104945732D01*
X149716701Y-104945732D02*
X149716708Y-104945725D01*
D42*
X136653070Y-109181070D02*
X145929483Y-109181070D01*
X129814000Y-102342000D02*
X136653070Y-109181070D01*
X129814000Y-98330000D02*
X129814000Y-102342000D01*
X149387005Y-105723548D02*
X149646005Y-105723548D01*
X149646005Y-105723548D02*
X150070268Y-105299285D01*
X145929483Y-109181070D02*
X149387005Y-105723548D01*
D40*
X136582086Y-109711140D02*
X129264001Y-102393055D01*
X148469320Y-107171578D02*
X145929758Y-109711140D01*
X145929758Y-109711140D02*
X136582086Y-109711140D01*
X150423821Y-105652839D02*
X148905082Y-107171578D01*
X148905082Y-107171578D02*
X148469320Y-107171578D01*
D42*
X129264001Y-102393055D02*
X129314000Y-98330000D01*
D40*
X125673855Y-100978829D02*
X125373856Y-100678830D01*
X125673855Y-101289855D02*
X125673855Y-100978829D01*
X135636000Y-111252000D02*
X125673855Y-101289855D01*
X128758823Y-99597013D02*
X128458824Y-99897012D01*
X128814000Y-99541836D02*
X128758823Y-99597013D01*
X128814000Y-98330000D02*
X128814000Y-99541836D01*
D42*
X135636000Y-111252000D02*
X154454344Y-111252000D01*
X154454344Y-111252000D02*
X156972000Y-108734344D01*
X156972000Y-108734344D02*
X156972000Y-108135169D01*
X156972000Y-108135169D02*
X156442282Y-107605451D01*
X156442282Y-107605451D02*
X156009965Y-107067052D01*
D40*
X144629349Y-107370651D02*
X137706475Y-107370651D01*
X137706475Y-107370651D02*
X136776574Y-106440750D01*
X145393269Y-106440750D02*
X145393269Y-106606731D01*
X145393269Y-106606731D02*
X144629349Y-107370651D01*
X127449743Y-99719257D02*
X127449743Y-100316517D01*
X128314000Y-98330000D02*
X128314000Y-98855000D01*
X128314000Y-98855000D02*
X127449743Y-99719257D01*
X148302501Y-103531518D02*
X145393269Y-106440750D01*
X136776574Y-106440750D02*
X131887417Y-101551593D01*
D42*
X124968000Y-99060000D02*
X124637925Y-99390075D01*
X124637925Y-99390075D02*
X124637925Y-101049996D01*
X124637925Y-101049996D02*
X127958865Y-104370936D01*
X127958865Y-104370936D02*
X127958865Y-104526871D01*
X127958865Y-104526871D02*
X135191994Y-111760000D01*
X135191994Y-111760000D02*
X154962344Y-111760000D01*
D40*
X154962344Y-111760000D02*
X156768347Y-111760000D01*
X156768347Y-111760000D02*
X159860927Y-108667420D01*
X159860927Y-108667420D02*
X159860927Y-106161191D01*
X159860927Y-106161191D02*
X159423284Y-105723548D01*
X159423284Y-105723548D02*
X158201995Y-105723548D01*
X158201995Y-105723548D02*
X157777732Y-105299285D01*
D42*
X127000000Y-98552000D02*
X127000000Y-97016000D01*
X127000000Y-97016000D02*
X126714000Y-96730000D01*
D40*
X130814000Y-90053996D02*
X130814000Y-88589998D01*
X146611256Y-94839916D02*
X145627084Y-94839916D01*
X149363161Y-97591821D02*
X146611256Y-94839916D01*
X145627084Y-94827084D02*
X142240000Y-91440000D01*
X145627084Y-94839916D02*
X145627084Y-94827084D01*
X131064000Y-88339998D02*
X130814000Y-88589998D01*
X131064000Y-87884000D02*
X131064000Y-88339998D01*
D44*
X113284000Y-98044000D02*
X111760000Y-98044000D01*
X111760000Y-98044000D02*
X110936000Y-97220000D01*
X110936000Y-97220000D02*
X109500000Y-97220000D01*
X111760000Y-95504000D02*
X110936000Y-94680000D01*
X110936000Y-94680000D02*
X109500000Y-94680000D01*
X113284000Y-95504000D02*
X111760000Y-95504000D01*
X113284000Y-91694000D02*
X109946000Y-91694000D01*
X109946000Y-91694000D02*
X109500000Y-92140000D01*
X109500000Y-89600000D02*
X110850000Y-89600000D01*
X110850000Y-89600000D02*
X111296000Y-89154000D01*
X111296000Y-89154000D02*
X113284000Y-89154000D01*
D43*
X151838035Y-95116948D02*
X154062684Y-97412322D01*
X154782978Y-97412322D02*
X155207242Y-97412322D01*
X154062684Y-97412322D02*
X154782978Y-97412322D01*
D40*
X171043098Y-95436999D02*
X170066102Y-96413995D01*
X170066102Y-96413995D02*
X164485995Y-96413995D01*
X164485995Y-96413995D02*
X161335999Y-93263999D01*
X177292000Y-98044000D02*
X174684999Y-95436999D01*
X161335999Y-93263999D02*
X161036000Y-92964000D01*
X174684999Y-95436999D02*
X171043098Y-95436999D01*
X152800770Y-91907753D02*
X152800770Y-91710109D01*
X155302858Y-94409841D02*
X152800770Y-91907753D01*
X150876000Y-112310000D02*
X156784047Y-112310000D01*
X156784047Y-112310000D02*
X161281322Y-107812725D01*
X161281322Y-107125728D02*
X161705586Y-106701464D01*
X161281322Y-107812725D02*
X161281322Y-107125728D01*
X164393048Y-97828374D02*
X164693047Y-98128373D01*
X163378679Y-96814005D02*
X164393048Y-97828374D01*
X158555548Y-96814005D02*
X163378679Y-96814005D01*
X158131285Y-97238268D02*
X158555548Y-96814005D01*
X123456592Y-109207408D02*
X123952000Y-108712000D01*
X123952000Y-108712000D02*
X123952000Y-108204000D01*
X123437704Y-109207408D02*
X123456592Y-109207408D01*
X120716000Y-109728000D02*
X122917112Y-109728000D01*
X122917112Y-109728000D02*
X123437704Y-109207408D01*
X120716000Y-105918000D02*
X123657030Y-105918000D01*
X123657030Y-105918000D02*
X124865265Y-104709765D01*
X124865265Y-104709765D02*
X124865265Y-104285501D01*
X157524660Y-98552000D02*
X158484839Y-97591821D01*
X156464000Y-98552000D02*
X157524660Y-98552000D01*
X154824999Y-86360000D02*
X151927300Y-89257698D01*
X151927300Y-89257698D02*
X156464000Y-93794398D01*
X156464000Y-93794398D02*
X156464000Y-93955806D01*
X156464000Y-93955806D02*
X156080675Y-94339131D01*
X156080675Y-94339131D02*
X155656412Y-94763394D01*
X154824999Y-84027001D02*
X154824999Y-86360000D01*
X155551000Y-82128000D02*
X155575000Y-82152000D01*
X155575000Y-82152000D02*
X155575000Y-83277000D01*
X155575000Y-83277000D02*
X154824999Y-84027001D01*
X158115000Y-89552000D02*
X158115000Y-88265000D01*
X158115000Y-88265000D02*
X158496000Y-87884000D01*
X158115000Y-89552000D02*
X158115000Y-93011913D01*
X158115000Y-93011913D02*
X156434228Y-94692685D01*
X156434228Y-94692685D02*
X156009965Y-95116948D01*
X158760000Y-91440000D02*
X158760000Y-93074019D01*
X158760000Y-93074019D02*
X156363518Y-95470501D01*
X156845000Y-82152000D02*
X156845000Y-82752000D01*
X156845000Y-82752000D02*
X157988000Y-83895000D01*
X157988000Y-83895000D02*
X157988000Y-83903736D01*
X157988000Y-83903736D02*
X157988000Y-84328000D01*
X156972000Y-82279000D02*
X156845000Y-82152000D01*
X159385000Y-89552000D02*
X159385000Y-93156126D01*
X159385000Y-93156126D02*
X156717072Y-95824054D01*
X114598000Y-119652000D02*
X115648000Y-119652000D01*
X118458000Y-118652000D02*
X116648000Y-118652000D01*
X116648000Y-118652000D02*
X115648000Y-119652000D01*
X113284000Y-118364000D02*
X113284000Y-118614000D01*
X113284000Y-118614000D02*
X114322000Y-119652000D01*
X114322000Y-119652000D02*
X114598000Y-119652000D01*
D44*
X161250250Y-109799058D02*
X161387814Y-109661494D01*
X160320309Y-109799058D02*
X161250250Y-109799058D01*
X156544377Y-113574990D02*
X160320309Y-109799058D01*
X143403001Y-113016999D02*
X143960992Y-113574990D01*
X143960992Y-113574990D02*
X156544377Y-113574990D01*
X141298000Y-113117000D02*
X141398001Y-113016999D01*
X161387814Y-109661494D02*
X161687813Y-109361495D01*
X141298000Y-113792000D02*
X141298000Y-113117000D01*
X141398001Y-113016999D02*
X143403001Y-113016999D01*
X146370000Y-88868000D02*
X146370000Y-91027424D01*
X146370000Y-91027424D02*
X145105319Y-92292105D01*
X145105319Y-92292105D02*
X144805320Y-92592104D01*
X120716000Y-108458000D02*
X119441000Y-108458000D01*
X119441000Y-108458000D02*
X118872000Y-109027000D01*
X118872000Y-109027000D02*
X118872000Y-110039002D01*
X118872000Y-110039002D02*
X119518997Y-110685999D01*
X134952000Y-113108000D02*
X134952000Y-114852000D01*
X119518997Y-110685999D02*
X132529999Y-110685999D01*
X132529999Y-110685999D02*
X134952000Y-113108000D01*
X134952000Y-114852000D02*
X136799998Y-114852000D01*
X136799998Y-114852000D02*
X137859998Y-113792000D01*
X137859998Y-113792000D02*
X140623000Y-113792000D01*
X140623000Y-113792000D02*
X141298000Y-113792000D01*
X132042000Y-116752000D02*
X132042000Y-114975000D01*
X132042000Y-114975000D02*
X132080000Y-114937000D01*
X132080000Y-114937000D02*
X132682000Y-114937000D01*
X132682000Y-114937000D02*
X134867000Y-114937000D01*
X134867000Y-114937000D02*
X134952000Y-114852000D01*
D41*
X139700000Y-102784000D02*
X138176000Y-102784000D01*
X141224000Y-102784000D02*
X139700000Y-102784000D01*
X146812000Y-116499000D02*
X146304000Y-117007000D01*
X146304000Y-117007000D02*
X146304000Y-117988000D01*
X144112000Y-117152000D02*
X145468000Y-117152000D01*
X145468000Y-117152000D02*
X146304000Y-117988000D01*
X139000000Y-106000000D02*
X138176000Y-105176000D01*
X138176000Y-105176000D02*
X138176000Y-102784000D01*
X155575000Y-89552000D02*
X154052000Y-89552000D01*
X154052000Y-89552000D02*
X154000000Y-89500000D01*
D42*
X131314000Y-91130000D02*
X133399002Y-91130000D01*
X133399002Y-91130000D02*
X133889001Y-90640001D01*
X133889001Y-90640001D02*
X133814000Y-89630000D01*
X130314000Y-91130000D02*
X130364010Y-91130000D01*
X130364010Y-91130000D02*
X130314000Y-89630000D01*
X131314000Y-91130000D02*
X130364010Y-91130000D01*
D41*
X133139200Y-94931101D02*
X133439199Y-95231100D01*
X131314000Y-91130000D02*
X131314000Y-93105901D01*
X131314000Y-93105901D02*
X133139200Y-94931101D01*
X133314000Y-97100000D02*
X133400000Y-97100000D01*
X133400000Y-97100000D02*
X133500000Y-97000000D01*
D40*
X133314000Y-98330000D02*
X133314000Y-97100000D01*
X131314000Y-91130000D02*
X131314000Y-89630000D01*
D41*
X128314000Y-88000000D02*
X128314000Y-87925998D01*
X128314000Y-87925998D02*
X129155999Y-87083999D01*
X129155999Y-87083999D02*
X130263999Y-87083999D01*
X130263999Y-87083999D02*
X130392247Y-87212247D01*
D40*
X128314000Y-89630000D02*
X128314000Y-88000000D01*
D41*
X159930000Y-115824000D02*
X161454000Y-114300000D01*
X161454000Y-114300000D02*
X175300000Y-114300000D01*
X175300000Y-114300000D02*
X177000000Y-116000000D01*
D43*
X159930000Y-115824000D02*
X159680000Y-115824000D01*
D41*
X136652000Y-88392000D02*
X135414000Y-89630000D01*
X135414000Y-89630000D02*
X133814000Y-89630000D01*
X134952000Y-117152000D02*
X141252000Y-117152000D01*
D43*
X133534515Y-99982864D02*
X133510864Y-99982864D01*
D42*
X135128000Y-102616000D02*
X134112000Y-101600000D01*
X133314000Y-99786000D02*
X133314000Y-98600000D01*
X133510864Y-99982864D02*
X133314000Y-99786000D01*
X135128000Y-102784000D02*
X135128000Y-102616000D01*
X138176000Y-102784000D02*
X136652000Y-102784000D01*
X135128000Y-102784000D02*
X136652000Y-102784000D01*
D41*
X149860000Y-119888000D02*
X149860000Y-118837000D01*
X149860000Y-118837000D02*
X149011000Y-117988000D01*
X149011000Y-117988000D02*
X148336000Y-117988000D01*
X146304000Y-117988000D02*
X148336000Y-117988000D01*
X146812000Y-115824000D02*
X146812000Y-116499000D01*
X150960001Y-120988001D02*
X149860000Y-119888000D01*
X161036000Y-120396000D02*
X160443999Y-120988001D01*
X160443999Y-120988001D02*
X150960001Y-120988001D01*
X161036000Y-117780000D02*
X161036000Y-120396000D01*
X159680000Y-115824000D02*
X159680000Y-116424000D01*
X159680000Y-116424000D02*
X161036000Y-117780000D01*
X137668000Y-115316000D02*
X137668000Y-116332000D01*
X137668000Y-116332000D02*
X136848000Y-117152000D01*
X136848000Y-117152000D02*
X134952000Y-117152000D01*
D42*
X130338999Y-88392000D02*
X130338999Y-87174999D01*
X130338999Y-88392000D02*
X130314000Y-89630000D01*
D47*
X128814000Y-89630000D02*
X129314000Y-89630000D01*
X128314000Y-89630000D02*
X128814000Y-89630000D01*
D41*
X132042000Y-119292000D02*
X132042000Y-118617000D01*
X132042000Y-118617000D02*
X133507000Y-117152000D01*
X133507000Y-117152000D02*
X134952000Y-117152000D01*
X144112000Y-117152000D02*
X141252000Y-117152000D01*
D46*
X109500000Y-112460000D02*
X109580000Y-112460000D01*
X109580000Y-112460000D02*
X113284000Y-116164000D01*
D42*
X154026540Y-98545802D02*
X154922324Y-99476939D01*
X156937393Y-101492008D02*
X154922324Y-99476939D01*
X158496000Y-101667000D02*
X157112385Y-101667000D01*
X157112385Y-101667000D02*
X156937393Y-101492008D01*
X158496000Y-101667000D02*
X158920264Y-101667000D01*
X163490811Y-101535813D02*
X166535998Y-104581000D01*
X166535998Y-104581000D02*
X167723736Y-104581000D01*
X158920264Y-101667000D02*
X159051451Y-101535813D01*
X159051451Y-101535813D02*
X163490811Y-101535813D01*
X167723736Y-104581000D02*
X168148000Y-104581000D01*
X154922324Y-99476939D02*
X154940000Y-99459262D01*
X150423821Y-96531161D02*
X152438462Y-98545802D01*
X152438462Y-98545802D02*
X154026540Y-98545802D01*
D40*
X158496000Y-114300000D02*
X142831000Y-114300000D01*
X142831000Y-114300000D02*
X142748000Y-114217000D01*
X142748000Y-114217000D02*
X142748000Y-113792000D01*
D42*
X155000000Y-105634112D02*
X156363518Y-106713499D01*
X150299999Y-108799999D02*
X152453213Y-108799999D01*
X152453213Y-108799999D02*
X155000000Y-106253212D01*
X150000000Y-108500000D02*
X150299999Y-108799999D01*
X155000000Y-106253212D02*
X155000000Y-105634112D01*
D41*
X145500000Y-102000000D02*
X146779208Y-102000000D01*
D40*
X146779208Y-102000000D02*
X147241841Y-102470858D01*
D42*
X150586899Y-108299861D02*
X150200139Y-108299861D01*
X151838035Y-107067052D02*
X150586899Y-108299861D01*
X150200139Y-108299861D02*
X150000000Y-108500000D01*
X157663379Y-107956600D02*
X157663379Y-109064991D01*
X157663379Y-109064991D02*
X157663379Y-109489255D01*
D40*
X153000000Y-93903998D02*
X152545142Y-94409841D01*
D41*
X149500000Y-93500000D02*
X149500000Y-93075736D01*
X149500000Y-93075736D02*
X150411737Y-92163999D01*
X150411737Y-92163999D02*
X151260001Y-92163999D01*
X151260001Y-92163999D02*
X153000000Y-93903998D01*
D42*
X162052000Y-102310814D02*
X160606159Y-102470858D01*
X162560000Y-99568000D02*
X160857382Y-99568000D01*
X160857382Y-99568000D02*
X160606159Y-99713142D01*
X157663379Y-107956600D02*
X156363518Y-106713499D01*
D41*
X157480000Y-115824000D02*
X155448000Y-115824000D01*
X157480000Y-116424000D02*
X157706000Y-116424000D01*
X157706000Y-116424000D02*
X159004000Y-117722000D01*
X159004000Y-117722000D02*
X159004000Y-118872000D01*
X157480000Y-115824000D02*
X157480000Y-116424000D01*
D48*
G36*
X161290000Y-87000000D02*
X161344046Y-87271705D01*
X161497954Y-87502046D01*
X161728295Y-87655954D01*
X162000000Y-87710000D01*
X171000000Y-87710000D01*
X171271705Y-87655954D01*
X171502046Y-87502046D01*
X171655954Y-87271705D01*
X171710000Y-87000000D01*
X171710000Y-80710000D01*
X183290000Y-80710000D01*
X183290000Y-121290000D01*
X171710000Y-121290000D01*
X171710000Y-115085000D01*
X174974842Y-115085000D01*
X175499861Y-115610019D01*
X175465267Y-115693330D01*
X175464735Y-116303991D01*
X175697932Y-116868371D01*
X175865880Y-117036613D01*
X175864683Y-117036838D01*
X175648559Y-117175910D01*
X175503569Y-117388110D01*
X175452560Y-117640000D01*
X175452560Y-119440000D01*
X175496838Y-119675317D01*
X175635910Y-119891441D01*
X175848110Y-120036431D01*
X176100000Y-120087440D01*
X177900000Y-120087440D01*
X178135317Y-120043162D01*
X178351441Y-119904090D01*
X178496431Y-119691890D01*
X178547440Y-119440000D01*
X178547440Y-119170920D01*
X178687401Y-119077401D01*
X180369401Y-117395401D01*
X180534148Y-117148840D01*
X180592000Y-116858000D01*
X180592000Y-116131105D01*
X180733441Y-116040090D01*
X180878431Y-115827890D01*
X180929440Y-115576000D01*
X180929440Y-114376000D01*
X180885162Y-114140683D01*
X180746090Y-113924559D01*
X180676289Y-113876866D01*
X180733441Y-113840090D01*
X180878431Y-113627890D01*
X180929440Y-113376000D01*
X180929440Y-112176000D01*
X180885162Y-111940683D01*
X180746090Y-111724559D01*
X180592000Y-111619274D01*
X180592000Y-101600000D01*
X180534148Y-101309161D01*
X180369401Y-101062599D01*
X177982572Y-98675770D01*
X178084192Y-98574327D01*
X178226838Y-98230799D01*
X178227162Y-97858833D01*
X178085117Y-97515057D01*
X177822327Y-97251808D01*
X177478799Y-97109162D01*
X177431923Y-97109121D01*
X177326810Y-97004008D01*
X177351955Y-97013737D01*
X178141418Y-96995164D01*
X178784522Y-96728782D01*
X178925988Y-96425593D01*
X177700000Y-95199605D01*
X177685858Y-95213748D01*
X177506253Y-95034143D01*
X177520395Y-95020000D01*
X177879605Y-95020000D01*
X179105593Y-96245988D01*
X179408782Y-96104522D01*
X179693737Y-95368045D01*
X179675164Y-94578582D01*
X179408782Y-93935478D01*
X179105593Y-93794012D01*
X177879605Y-95020000D01*
X177520395Y-95020000D01*
X176294407Y-93794012D01*
X175991218Y-93935478D01*
X175706263Y-94671955D01*
X175723405Y-95400603D01*
X175222400Y-94899598D01*
X174975838Y-94734851D01*
X174684999Y-94676999D01*
X171043098Y-94676999D01*
X170752259Y-94734851D01*
X170505697Y-94899598D01*
X169751300Y-95653995D01*
X168691541Y-95653995D01*
X168693283Y-95649799D01*
X168693324Y-95602923D01*
X170681840Y-93614407D01*
X176474012Y-93614407D01*
X177700000Y-94840395D01*
X178925988Y-93614407D01*
X178784522Y-93311218D01*
X178048045Y-93026263D01*
X177258582Y-93044836D01*
X176615478Y-93311218D01*
X176474012Y-93614407D01*
X170681840Y-93614407D01*
X172436247Y-91860000D01*
X172668666Y-91860000D01*
X172682838Y-91935317D01*
X172821910Y-92151441D01*
X173034110Y-92296431D01*
X173286000Y-92347440D01*
X174186000Y-92347440D01*
X174421317Y-92303162D01*
X174637441Y-92164090D01*
X174782431Y-91951890D01*
X174833440Y-91700000D01*
X174833440Y-90500000D01*
X174789162Y-90264683D01*
X174650090Y-90048559D01*
X174580289Y-90000866D01*
X174637441Y-89964090D01*
X174782431Y-89751890D01*
X174801039Y-89660000D01*
X175493956Y-89660000D01*
X175496838Y-89675317D01*
X175635910Y-89891441D01*
X175848110Y-90036431D01*
X176100000Y-90087440D01*
X177900000Y-90087440D01*
X178135317Y-90043162D01*
X178351441Y-89904090D01*
X178496431Y-89691890D01*
X178547440Y-89440000D01*
X178547440Y-87640000D01*
X178503162Y-87404683D01*
X178364090Y-87188559D01*
X178160426Y-87049402D01*
X178194718Y-87015110D01*
X178080161Y-86900553D01*
X178336643Y-86814148D01*
X178546458Y-86240664D01*
X178520839Y-85630540D01*
X178336643Y-85185852D01*
X178080159Y-85099446D01*
X177179605Y-86000000D01*
X177193748Y-86014143D01*
X177014143Y-86193748D01*
X177000000Y-86179605D01*
X176985858Y-86193748D01*
X176806253Y-86014143D01*
X176820395Y-86000000D01*
X175919841Y-85099446D01*
X175663357Y-85185852D01*
X175453542Y-85759336D01*
X175479161Y-86369460D01*
X175663357Y-86814148D01*
X175919839Y-86900553D01*
X175805282Y-87015110D01*
X175841760Y-87051588D01*
X175648559Y-87175910D01*
X175503569Y-87388110D01*
X175452560Y-87640000D01*
X175452560Y-88140000D01*
X174803334Y-88140000D01*
X174789162Y-88064683D01*
X174650090Y-87848559D01*
X174440475Y-87705335D01*
X174496000Y-87426192D01*
X174496000Y-85991105D01*
X174637441Y-85900090D01*
X174782431Y-85687890D01*
X174833440Y-85436000D01*
X174833440Y-84236000D01*
X174789162Y-84000683D01*
X174650090Y-83784559D01*
X174580289Y-83736866D01*
X174637441Y-83700090D01*
X174782431Y-83487890D01*
X174801039Y-83396000D01*
X175465056Y-83396000D01*
X175464735Y-83763991D01*
X175697932Y-84328371D01*
X176129357Y-84760551D01*
X176150194Y-84769203D01*
X176099446Y-84919841D01*
X177000000Y-85820395D01*
X177900554Y-84919841D01*
X177849965Y-84769673D01*
X177868371Y-84762068D01*
X178300551Y-84330643D01*
X178534733Y-83766670D01*
X178535265Y-83156009D01*
X178302068Y-82591629D01*
X177870643Y-82159449D01*
X177306670Y-81925267D01*
X176696009Y-81924735D01*
X176545974Y-81986728D01*
X176466839Y-81933852D01*
X176176000Y-81876000D01*
X174803334Y-81876000D01*
X174789162Y-81800683D01*
X174650090Y-81584559D01*
X174437890Y-81439569D01*
X174186000Y-81388560D01*
X173286000Y-81388560D01*
X173050683Y-81432838D01*
X172834559Y-81571910D01*
X172689569Y-81784110D01*
X172638560Y-82036000D01*
X172638560Y-83236000D01*
X172682838Y-83471317D01*
X172821910Y-83687441D01*
X172891711Y-83735134D01*
X172834559Y-83771910D01*
X172689569Y-83984110D01*
X172638560Y-84236000D01*
X172638560Y-85436000D01*
X172682838Y-85671317D01*
X172821910Y-85887441D01*
X172976000Y-85992726D01*
X172976000Y-87111390D01*
X166589138Y-93498252D01*
X166543651Y-93498212D01*
X166199875Y-93640257D01*
X165936626Y-93903047D01*
X165793980Y-94246575D01*
X165793656Y-94618541D01*
X165935701Y-94962317D01*
X166198491Y-95225566D01*
X166542019Y-95368212D01*
X166823527Y-95368457D01*
X166823283Y-95648167D01*
X166825691Y-95653995D01*
X164800797Y-95653995D01*
X161971122Y-92824320D01*
X161971162Y-92778833D01*
X161829117Y-92435057D01*
X161566327Y-92171808D01*
X161222799Y-92029162D01*
X160850833Y-92028838D01*
X160507057Y-92170883D01*
X160243808Y-92433673D01*
X160145000Y-92671628D01*
X160145000Y-90841975D01*
X160256431Y-90678890D01*
X160307440Y-90427000D01*
X160307440Y-88677000D01*
X160263162Y-88441683D01*
X160124090Y-88225559D01*
X159911890Y-88080569D01*
X159660000Y-88029560D01*
X159430874Y-88029560D01*
X159431162Y-87698833D01*
X159289117Y-87355057D01*
X159026327Y-87091808D01*
X158682799Y-86949162D01*
X158310833Y-86948838D01*
X157967057Y-87090883D01*
X157703808Y-87353673D01*
X157561162Y-87697201D01*
X157561114Y-87752271D01*
X157412852Y-87974161D01*
X157389317Y-88092477D01*
X157371890Y-88080569D01*
X157120000Y-88029560D01*
X156570000Y-88029560D01*
X156334683Y-88073838D01*
X156209723Y-88154248D01*
X156101890Y-88080569D01*
X155850000Y-88029560D01*
X155300000Y-88029560D01*
X155064683Y-88073838D01*
X154848559Y-88212910D01*
X154703569Y-88425110D01*
X154652560Y-88677000D01*
X154652560Y-88767000D01*
X154589416Y-88767000D01*
X154530327Y-88707808D01*
X154186799Y-88565162D01*
X153814833Y-88564838D01*
X153610558Y-88649243D01*
X154964678Y-87295122D01*
X155010166Y-87295162D01*
X155353942Y-87153117D01*
X155617191Y-86890327D01*
X155759837Y-86546799D01*
X155760161Y-86174833D01*
X155618116Y-85831057D01*
X155584999Y-85797882D01*
X155584999Y-84341803D01*
X156112401Y-83814401D01*
X156264485Y-83586791D01*
X156318110Y-83623431D01*
X156570000Y-83674440D01*
X156692638Y-83674440D01*
X157084332Y-84066134D01*
X157053162Y-84141201D01*
X157052838Y-84513167D01*
X157194883Y-84856943D01*
X157457673Y-85120192D01*
X157801201Y-85262838D01*
X158173167Y-85263162D01*
X158516943Y-85121117D01*
X158780192Y-84858327D01*
X158922838Y-84514799D01*
X158923162Y-84142833D01*
X158781117Y-83799057D01*
X158715925Y-83733752D01*
X158690148Y-83604161D01*
X158682804Y-83593170D01*
X158740815Y-83555841D01*
X158750301Y-83565327D01*
X158983690Y-83662000D01*
X159099250Y-83662000D01*
X159258000Y-83503250D01*
X159258000Y-82279000D01*
X159512000Y-82279000D01*
X159512000Y-83503250D01*
X159670750Y-83662000D01*
X159786310Y-83662000D01*
X160019699Y-83565327D01*
X160198327Y-83386698D01*
X160295000Y-83153309D01*
X160295000Y-82437750D01*
X160136250Y-82279000D01*
X159512000Y-82279000D01*
X159258000Y-82279000D01*
X159238000Y-82279000D01*
X159238000Y-82025000D01*
X159258000Y-82025000D01*
X159258000Y-82005000D01*
X159512000Y-82005000D01*
X159512000Y-82025000D01*
X160136250Y-82025000D01*
X160295000Y-81866250D01*
X160295000Y-81150691D01*
X160198327Y-80917302D01*
X160019699Y-80738673D01*
X159950476Y-80710000D01*
X161290000Y-80710000D01*
X161290000Y-87000000D01*
X161290000Y-87000000D01*
G37*
X161290000Y-87000000D02*
X161344046Y-87271705D01*
X161497954Y-87502046D01*
X161728295Y-87655954D01*
X162000000Y-87710000D01*
X171000000Y-87710000D01*
X171271705Y-87655954D01*
X171502046Y-87502046D01*
X171655954Y-87271705D01*
X171710000Y-87000000D01*
X171710000Y-80710000D01*
X183290000Y-80710000D01*
X183290000Y-121290000D01*
X171710000Y-121290000D01*
X171710000Y-115085000D01*
X174974842Y-115085000D01*
X175499861Y-115610019D01*
X175465267Y-115693330D01*
X175464735Y-116303991D01*
X175697932Y-116868371D01*
X175865880Y-117036613D01*
X175864683Y-117036838D01*
X175648559Y-117175910D01*
X175503569Y-117388110D01*
X175452560Y-117640000D01*
X175452560Y-119440000D01*
X175496838Y-119675317D01*
X175635910Y-119891441D01*
X175848110Y-120036431D01*
X176100000Y-120087440D01*
X177900000Y-120087440D01*
X178135317Y-120043162D01*
X178351441Y-119904090D01*
X178496431Y-119691890D01*
X178547440Y-119440000D01*
X178547440Y-119170920D01*
X178687401Y-119077401D01*
X180369401Y-117395401D01*
X180534148Y-117148840D01*
X180592000Y-116858000D01*
X180592000Y-116131105D01*
X180733441Y-116040090D01*
X180878431Y-115827890D01*
X180929440Y-115576000D01*
X180929440Y-114376000D01*
X180885162Y-114140683D01*
X180746090Y-113924559D01*
X180676289Y-113876866D01*
X180733441Y-113840090D01*
X180878431Y-113627890D01*
X180929440Y-113376000D01*
X180929440Y-112176000D01*
X180885162Y-111940683D01*
X180746090Y-111724559D01*
X180592000Y-111619274D01*
X180592000Y-101600000D01*
X180534148Y-101309161D01*
X180369401Y-101062599D01*
X177982572Y-98675770D01*
X178084192Y-98574327D01*
X178226838Y-98230799D01*
X178227162Y-97858833D01*
X178085117Y-97515057D01*
X177822327Y-97251808D01*
X177478799Y-97109162D01*
X177431923Y-97109121D01*
X177326810Y-97004008D01*
X177351955Y-97013737D01*
X178141418Y-96995164D01*
X178784522Y-96728782D01*
X178925988Y-96425593D01*
X177700000Y-95199605D01*
X177685858Y-95213748D01*
X177506253Y-95034143D01*
X177520395Y-95020000D01*
X177879605Y-95020000D01*
X179105593Y-96245988D01*
X179408782Y-96104522D01*
X179693737Y-95368045D01*
X179675164Y-94578582D01*
X179408782Y-93935478D01*
X179105593Y-93794012D01*
X177879605Y-95020000D01*
X177520395Y-95020000D01*
X176294407Y-93794012D01*
X175991218Y-93935478D01*
X175706263Y-94671955D01*
X175723405Y-95400603D01*
X175222400Y-94899598D01*
X174975838Y-94734851D01*
X174684999Y-94676999D01*
X171043098Y-94676999D01*
X170752259Y-94734851D01*
X170505697Y-94899598D01*
X169751300Y-95653995D01*
X168691541Y-95653995D01*
X168693283Y-95649799D01*
X168693324Y-95602923D01*
X170681840Y-93614407D01*
X176474012Y-93614407D01*
X177700000Y-94840395D01*
X178925988Y-93614407D01*
X178784522Y-93311218D01*
X178048045Y-93026263D01*
X177258582Y-93044836D01*
X176615478Y-93311218D01*
X176474012Y-93614407D01*
X170681840Y-93614407D01*
X172436247Y-91860000D01*
X172668666Y-91860000D01*
X172682838Y-91935317D01*
X172821910Y-92151441D01*
X173034110Y-92296431D01*
X173286000Y-92347440D01*
X174186000Y-92347440D01*
X174421317Y-92303162D01*
X174637441Y-92164090D01*
X174782431Y-91951890D01*
X174833440Y-91700000D01*
X174833440Y-90500000D01*
X174789162Y-90264683D01*
X174650090Y-90048559D01*
X174580289Y-90000866D01*
X174637441Y-89964090D01*
X174782431Y-89751890D01*
X174801039Y-89660000D01*
X175493956Y-89660000D01*
X175496838Y-89675317D01*
X175635910Y-89891441D01*
X175848110Y-90036431D01*
X176100000Y-90087440D01*
X177900000Y-90087440D01*
X178135317Y-90043162D01*
X178351441Y-89904090D01*
X178496431Y-89691890D01*
X178547440Y-89440000D01*
X178547440Y-87640000D01*
X178503162Y-87404683D01*
X178364090Y-87188559D01*
X178160426Y-87049402D01*
X178194718Y-87015110D01*
X178080161Y-86900553D01*
X178336643Y-86814148D01*
X178546458Y-86240664D01*
X178520839Y-85630540D01*
X178336643Y-85185852D01*
X178080159Y-85099446D01*
X177179605Y-86000000D01*
X177193748Y-86014143D01*
X177014143Y-86193748D01*
X177000000Y-86179605D01*
X176985858Y-86193748D01*
X176806253Y-86014143D01*
X176820395Y-86000000D01*
X175919841Y-85099446D01*
X175663357Y-85185852D01*
X175453542Y-85759336D01*
X175479161Y-86369460D01*
X175663357Y-86814148D01*
X175919839Y-86900553D01*
X175805282Y-87015110D01*
X175841760Y-87051588D01*
X175648559Y-87175910D01*
X175503569Y-87388110D01*
X175452560Y-87640000D01*
X175452560Y-88140000D01*
X174803334Y-88140000D01*
X174789162Y-88064683D01*
X174650090Y-87848559D01*
X174440475Y-87705335D01*
X174496000Y-87426192D01*
X174496000Y-85991105D01*
X174637441Y-85900090D01*
X174782431Y-85687890D01*
X174833440Y-85436000D01*
X174833440Y-84236000D01*
X174789162Y-84000683D01*
X174650090Y-83784559D01*
X174580289Y-83736866D01*
X174637441Y-83700090D01*
X174782431Y-83487890D01*
X174801039Y-83396000D01*
X175465056Y-83396000D01*
X175464735Y-83763991D01*
X175697932Y-84328371D01*
X176129357Y-84760551D01*
X176150194Y-84769203D01*
X176099446Y-84919841D01*
X177000000Y-85820395D01*
X177900554Y-84919841D01*
X177849965Y-84769673D01*
X177868371Y-84762068D01*
X178300551Y-84330643D01*
X178534733Y-83766670D01*
X178535265Y-83156009D01*
X178302068Y-82591629D01*
X177870643Y-82159449D01*
X177306670Y-81925267D01*
X176696009Y-81924735D01*
X176545974Y-81986728D01*
X176466839Y-81933852D01*
X176176000Y-81876000D01*
X174803334Y-81876000D01*
X174789162Y-81800683D01*
X174650090Y-81584559D01*
X174437890Y-81439569D01*
X174186000Y-81388560D01*
X173286000Y-81388560D01*
X173050683Y-81432838D01*
X172834559Y-81571910D01*
X172689569Y-81784110D01*
X172638560Y-82036000D01*
X172638560Y-83236000D01*
X172682838Y-83471317D01*
X172821910Y-83687441D01*
X172891711Y-83735134D01*
X172834559Y-83771910D01*
X172689569Y-83984110D01*
X172638560Y-84236000D01*
X172638560Y-85436000D01*
X172682838Y-85671317D01*
X172821910Y-85887441D01*
X172976000Y-85992726D01*
X172976000Y-87111390D01*
X166589138Y-93498252D01*
X166543651Y-93498212D01*
X166199875Y-93640257D01*
X165936626Y-93903047D01*
X165793980Y-94246575D01*
X165793656Y-94618541D01*
X165935701Y-94962317D01*
X166198491Y-95225566D01*
X166542019Y-95368212D01*
X166823527Y-95368457D01*
X166823283Y-95648167D01*
X166825691Y-95653995D01*
X164800797Y-95653995D01*
X161971122Y-92824320D01*
X161971162Y-92778833D01*
X161829117Y-92435057D01*
X161566327Y-92171808D01*
X161222799Y-92029162D01*
X160850833Y-92028838D01*
X160507057Y-92170883D01*
X160243808Y-92433673D01*
X160145000Y-92671628D01*
X160145000Y-90841975D01*
X160256431Y-90678890D01*
X160307440Y-90427000D01*
X160307440Y-88677000D01*
X160263162Y-88441683D01*
X160124090Y-88225559D01*
X159911890Y-88080569D01*
X159660000Y-88029560D01*
X159430874Y-88029560D01*
X159431162Y-87698833D01*
X159289117Y-87355057D01*
X159026327Y-87091808D01*
X158682799Y-86949162D01*
X158310833Y-86948838D01*
X157967057Y-87090883D01*
X157703808Y-87353673D01*
X157561162Y-87697201D01*
X157561114Y-87752271D01*
X157412852Y-87974161D01*
X157389317Y-88092477D01*
X157371890Y-88080569D01*
X157120000Y-88029560D01*
X156570000Y-88029560D01*
X156334683Y-88073838D01*
X156209723Y-88154248D01*
X156101890Y-88080569D01*
X155850000Y-88029560D01*
X155300000Y-88029560D01*
X155064683Y-88073838D01*
X154848559Y-88212910D01*
X154703569Y-88425110D01*
X154652560Y-88677000D01*
X154652560Y-88767000D01*
X154589416Y-88767000D01*
X154530327Y-88707808D01*
X154186799Y-88565162D01*
X153814833Y-88564838D01*
X153610558Y-88649243D01*
X154964678Y-87295122D01*
X155010166Y-87295162D01*
X155353942Y-87153117D01*
X155617191Y-86890327D01*
X155759837Y-86546799D01*
X155760161Y-86174833D01*
X155618116Y-85831057D01*
X155584999Y-85797882D01*
X155584999Y-84341803D01*
X156112401Y-83814401D01*
X156264485Y-83586791D01*
X156318110Y-83623431D01*
X156570000Y-83674440D01*
X156692638Y-83674440D01*
X157084332Y-84066134D01*
X157053162Y-84141201D01*
X157052838Y-84513167D01*
X157194883Y-84856943D01*
X157457673Y-85120192D01*
X157801201Y-85262838D01*
X158173167Y-85263162D01*
X158516943Y-85121117D01*
X158780192Y-84858327D01*
X158922838Y-84514799D01*
X158923162Y-84142833D01*
X158781117Y-83799057D01*
X158715925Y-83733752D01*
X158690148Y-83604161D01*
X158682804Y-83593170D01*
X158740815Y-83555841D01*
X158750301Y-83565327D01*
X158983690Y-83662000D01*
X159099250Y-83662000D01*
X159258000Y-83503250D01*
X159258000Y-82279000D01*
X159512000Y-82279000D01*
X159512000Y-83503250D01*
X159670750Y-83662000D01*
X159786310Y-83662000D01*
X160019699Y-83565327D01*
X160198327Y-83386698D01*
X160295000Y-83153309D01*
X160295000Y-82437750D01*
X160136250Y-82279000D01*
X159512000Y-82279000D01*
X159258000Y-82279000D01*
X159238000Y-82279000D01*
X159238000Y-82025000D01*
X159258000Y-82025000D01*
X159258000Y-82005000D01*
X159512000Y-82005000D01*
X159512000Y-82025000D01*
X160136250Y-82025000D01*
X160295000Y-81866250D01*
X160295000Y-81150691D01*
X160198327Y-80917302D01*
X160019699Y-80738673D01*
X159950476Y-80710000D01*
X161290000Y-80710000D01*
X161290000Y-87000000D01*
G36*
X116756000Y-107957802D02*
X116756000Y-112216666D01*
X116680683Y-112230838D01*
X116464559Y-112369910D01*
X116418031Y-112438006D01*
X116275698Y-112295673D01*
X116042309Y-112199000D01*
X115601750Y-112199000D01*
X115443000Y-112357750D01*
X115443000Y-113157000D01*
X115463000Y-113157000D01*
X115463000Y-113411000D01*
X115443000Y-113411000D01*
X115443000Y-114210250D01*
X115601750Y-114369000D01*
X116042309Y-114369000D01*
X116275698Y-114272327D01*
X116416936Y-114131090D01*
X116451910Y-114185441D01*
X116664110Y-114330431D01*
X116916000Y-114381440D01*
X118116000Y-114381440D01*
X118351317Y-114337162D01*
X118567441Y-114198090D01*
X118712431Y-113985890D01*
X118763440Y-113734000D01*
X118763440Y-112834000D01*
X118719162Y-112598683D01*
X118580090Y-112382559D01*
X118367890Y-112237569D01*
X118276000Y-112218961D01*
X118276000Y-110694582D01*
X118893205Y-111311786D01*
X118893207Y-111311789D01*
X119180322Y-111503632D01*
X119236513Y-111514809D01*
X119518997Y-111571000D01*
X119519002Y-111570999D01*
X129165082Y-111570999D01*
X129045559Y-111647910D01*
X128900569Y-111860110D01*
X128849560Y-112112000D01*
X128849560Y-113312000D01*
X128893838Y-113547317D01*
X128960329Y-113650646D01*
X128958673Y-113652302D01*
X128862000Y-113885691D01*
X128862000Y-114326250D01*
X129020750Y-114485000D01*
X129745000Y-114485000D01*
X129745000Y-114465000D01*
X129999000Y-114465000D01*
X129999000Y-114485000D01*
X130723250Y-114485000D01*
X130882000Y-114326250D01*
X130882000Y-113885691D01*
X130795557Y-113677000D01*
X131107554Y-113677000D01*
X131295804Y-113865251D01*
X131301838Y-113897317D01*
X131440910Y-114113441D01*
X131586083Y-114212633D01*
X131453559Y-114297910D01*
X131423463Y-114341958D01*
X131416210Y-114349210D01*
X131314529Y-114501387D01*
X131308569Y-114510110D01*
X131308512Y-114510393D01*
X131224367Y-114636325D01*
X131224367Y-114636326D01*
X131156999Y-114975000D01*
X131157000Y-114975005D01*
X131157000Y-115805808D01*
X131103354Y-115840329D01*
X131101698Y-115838673D01*
X130868309Y-115742000D01*
X130615026Y-115742000D01*
X130785327Y-115571698D01*
X130882000Y-115338309D01*
X130882000Y-114897750D01*
X130723250Y-114739000D01*
X129999000Y-114739000D01*
X129999000Y-114759000D01*
X129745000Y-114759000D01*
X129745000Y-114739000D01*
X129020750Y-114739000D01*
X128862000Y-114897750D01*
X128862000Y-115338309D01*
X128958673Y-115571698D01*
X129137301Y-115750327D01*
X129266444Y-115803820D01*
X129182302Y-115838673D01*
X129003673Y-116017301D01*
X128907000Y-116250690D01*
X128907000Y-116466250D01*
X129065750Y-116625000D01*
X130015000Y-116625000D01*
X130015000Y-116605000D01*
X130269000Y-116605000D01*
X130269000Y-116625000D01*
X130289000Y-116625000D01*
X130289000Y-116879000D01*
X130269000Y-116879000D01*
X130269000Y-117603250D01*
X130427750Y-117762000D01*
X130868309Y-117762000D01*
X131101698Y-117665327D01*
X131103068Y-117663957D01*
X131190110Y-117723431D01*
X131442000Y-117774440D01*
X131774402Y-117774440D01*
X131486921Y-118061921D01*
X131334690Y-118289752D01*
X131206683Y-118313838D01*
X131103354Y-118380329D01*
X131101698Y-118378673D01*
X130868309Y-118282000D01*
X130427750Y-118282000D01*
X130269000Y-118440750D01*
X130269000Y-119165000D01*
X130289000Y-119165000D01*
X130289000Y-119419000D01*
X130269000Y-119419000D01*
X130269000Y-120143250D01*
X130427750Y-120302000D01*
X130868309Y-120302000D01*
X131101698Y-120205327D01*
X131103068Y-120203957D01*
X131190110Y-120263431D01*
X131442000Y-120314440D01*
X132642000Y-120314440D01*
X132877317Y-120270162D01*
X133093441Y-120131090D01*
X133238431Y-119918890D01*
X133275112Y-119737750D01*
X133317000Y-119737750D01*
X133317000Y-120328310D01*
X133413673Y-120561699D01*
X133592302Y-120740327D01*
X133825691Y-120837000D01*
X134666250Y-120837000D01*
X134825000Y-120678250D01*
X134825000Y-119579000D01*
X135079000Y-119579000D01*
X135079000Y-120678250D01*
X135237750Y-120837000D01*
X136078309Y-120837000D01*
X136311698Y-120740327D01*
X136392280Y-120659745D01*
X143283861Y-120659745D01*
X143357995Y-120905864D01*
X143895223Y-121098965D01*
X144465454Y-121071778D01*
X144866005Y-120905864D01*
X144940139Y-120659745D01*
X144112000Y-119831605D01*
X143283861Y-120659745D01*
X136392280Y-120659745D01*
X136490327Y-120561699D01*
X136587000Y-120328310D01*
X136587000Y-119737750D01*
X136428250Y-119579000D01*
X135079000Y-119579000D01*
X134825000Y-119579000D01*
X133475750Y-119579000D01*
X133317000Y-119737750D01*
X133275112Y-119737750D01*
X133289440Y-119667000D01*
X133289440Y-118917000D01*
X133245162Y-118681683D01*
X133183422Y-118585736D01*
X133404350Y-118364808D01*
X133317000Y-118575690D01*
X133317000Y-119166250D01*
X133475750Y-119325000D01*
X134825000Y-119325000D01*
X134825000Y-119305000D01*
X135079000Y-119305000D01*
X135079000Y-119325000D01*
X136428250Y-119325000D01*
X136587000Y-119166250D01*
X136587000Y-118575690D01*
X136490327Y-118342301D01*
X136448366Y-118300340D01*
X136548431Y-118153890D01*
X136592352Y-117937000D01*
X139604560Y-117937000D01*
X139604560Y-119052000D01*
X139648838Y-119287317D01*
X139787910Y-119503441D01*
X140000110Y-119648431D01*
X140252000Y-119699440D01*
X142252000Y-119699440D01*
X142487317Y-119655162D01*
X142669919Y-119537661D01*
X142692222Y-120005454D01*
X142858136Y-120406005D01*
X143104255Y-120480139D01*
X143932395Y-119652000D01*
X143104255Y-118823861D01*
X142899440Y-118885554D01*
X142899440Y-118438650D01*
X143060110Y-118548431D01*
X143298201Y-118596646D01*
X143283861Y-118644255D01*
X144112000Y-119472395D01*
X144940139Y-118644255D01*
X144925855Y-118596833D01*
X145147317Y-118555162D01*
X145281560Y-118468779D01*
X145281560Y-118588000D01*
X145325838Y-118823317D01*
X145392329Y-118926646D01*
X145390673Y-118928302D01*
X145384545Y-118943096D01*
X145365864Y-118897995D01*
X145119745Y-118823861D01*
X144291605Y-119652000D01*
X145119745Y-120480139D01*
X145294000Y-120427651D01*
X145294000Y-120614309D01*
X145390673Y-120847698D01*
X145569301Y-121026327D01*
X145802690Y-121123000D01*
X146018250Y-121123000D01*
X146177000Y-120964250D01*
X146177000Y-120015000D01*
X146431000Y-120015000D01*
X146431000Y-120964250D01*
X146589750Y-121123000D01*
X146805310Y-121123000D01*
X147038699Y-121026327D01*
X147217327Y-120847698D01*
X147314000Y-120614309D01*
X147314000Y-120173750D01*
X147326000Y-120173750D01*
X147326000Y-120614309D01*
X147422673Y-120847698D01*
X147601301Y-121026327D01*
X147834690Y-121123000D01*
X148050250Y-121123000D01*
X148209000Y-120964250D01*
X148209000Y-120015000D01*
X147484750Y-120015000D01*
X147326000Y-120173750D01*
X147314000Y-120173750D01*
X147155250Y-120015000D01*
X146431000Y-120015000D01*
X146177000Y-120015000D01*
X146157000Y-120015000D01*
X146157000Y-119761000D01*
X146177000Y-119761000D01*
X146177000Y-119741000D01*
X146431000Y-119741000D01*
X146431000Y-119761000D01*
X147155250Y-119761000D01*
X147314000Y-119602250D01*
X147314000Y-119161691D01*
X147217327Y-118928302D01*
X147215957Y-118926932D01*
X147275431Y-118839890D01*
X147288977Y-118773000D01*
X147348370Y-118773000D01*
X147357838Y-118823317D01*
X147424329Y-118926646D01*
X147422673Y-118928302D01*
X147326000Y-119161691D01*
X147326000Y-119602250D01*
X147484750Y-119761000D01*
X148209000Y-119761000D01*
X148209000Y-119741000D01*
X148463000Y-119741000D01*
X148463000Y-119761000D01*
X148483000Y-119761000D01*
X148483000Y-120015000D01*
X148463000Y-120015000D01*
X148463000Y-120964250D01*
X148621750Y-121123000D01*
X148837310Y-121123000D01*
X149070699Y-121026327D01*
X149249327Y-120847698D01*
X149346000Y-120614309D01*
X149346000Y-120484158D01*
X150151842Y-121290000D01*
X111710000Y-121290000D01*
X111710000Y-115983000D01*
X112336560Y-116609560D01*
X112336560Y-116714000D01*
X112380838Y-116949317D01*
X112519910Y-117165441D01*
X112665083Y-117264633D01*
X112532559Y-117349910D01*
X112387569Y-117562110D01*
X112336560Y-117814000D01*
X112336560Y-118914000D01*
X112380838Y-119149317D01*
X112519910Y-119365441D01*
X112732110Y-119510431D01*
X112984000Y-119561440D01*
X113156638Y-119561440D01*
X113784599Y-120189401D01*
X114031161Y-120354148D01*
X114200560Y-120387844D01*
X114200560Y-120452000D01*
X114244838Y-120687317D01*
X114383910Y-120903441D01*
X114596110Y-121048431D01*
X114848000Y-121099440D01*
X116448000Y-121099440D01*
X116683317Y-121055162D01*
X116899441Y-120916090D01*
X117044431Y-120703890D01*
X117095440Y-120452000D01*
X117095440Y-119412000D01*
X117465666Y-119412000D01*
X117479838Y-119487317D01*
X117618910Y-119703441D01*
X117831110Y-119848431D01*
X118083000Y-119899440D01*
X118833000Y-119899440D01*
X119068317Y-119855162D01*
X119284441Y-119716090D01*
X119378964Y-119577750D01*
X128907000Y-119577750D01*
X128907000Y-119793310D01*
X129003673Y-120026699D01*
X129182302Y-120205327D01*
X129415691Y-120302000D01*
X129856250Y-120302000D01*
X130015000Y-120143250D01*
X130015000Y-119419000D01*
X129065750Y-119419000D01*
X128907000Y-119577750D01*
X119378964Y-119577750D01*
X119429431Y-119503890D01*
X119480440Y-119252000D01*
X119480440Y-118790690D01*
X128907000Y-118790690D01*
X128907000Y-119006250D01*
X129065750Y-119165000D01*
X130015000Y-119165000D01*
X130015000Y-118440750D01*
X129856250Y-118282000D01*
X129415691Y-118282000D01*
X129182302Y-118378673D01*
X129003673Y-118557301D01*
X128907000Y-118790690D01*
X119480440Y-118790690D01*
X119480440Y-118052000D01*
X119436162Y-117816683D01*
X119369671Y-117713354D01*
X119371327Y-117711698D01*
X119468000Y-117478309D01*
X119468000Y-117037750D01*
X128907000Y-117037750D01*
X128907000Y-117253310D01*
X129003673Y-117486699D01*
X129182302Y-117665327D01*
X129415691Y-117762000D01*
X129856250Y-117762000D01*
X130015000Y-117603250D01*
X130015000Y-116879000D01*
X129065750Y-116879000D01*
X128907000Y-117037750D01*
X119468000Y-117037750D01*
X119309250Y-116879000D01*
X118585000Y-116879000D01*
X118585000Y-116899000D01*
X118331000Y-116899000D01*
X118331000Y-116879000D01*
X117606750Y-116879000D01*
X117448000Y-117037750D01*
X117448000Y-117478309D01*
X117544673Y-117711698D01*
X117546043Y-117713068D01*
X117486569Y-117800110D01*
X117467961Y-117892000D01*
X116906898Y-117892000D01*
X117094965Y-117368777D01*
X117067778Y-116798546D01*
X116901864Y-116397995D01*
X116655745Y-116323861D01*
X115827605Y-117152000D01*
X115841748Y-117166142D01*
X115662143Y-117345748D01*
X115648000Y-117331605D01*
X114819861Y-118159745D01*
X114834145Y-118207167D01*
X114612683Y-118248838D01*
X114396559Y-118387910D01*
X114289459Y-118544657D01*
X114231440Y-118486638D01*
X114231440Y-117814000D01*
X114187162Y-117578683D01*
X114048090Y-117362559D01*
X113902917Y-117263367D01*
X114035441Y-117178090D01*
X114180431Y-116965890D01*
X114186641Y-116935223D01*
X114201035Y-116935223D01*
X114228222Y-117505454D01*
X114394136Y-117906005D01*
X114640255Y-117980139D01*
X115468395Y-117152000D01*
X114640255Y-116323861D01*
X114394136Y-116397995D01*
X114201035Y-116935223D01*
X114186641Y-116935223D01*
X114231440Y-116714000D01*
X114231440Y-116352826D01*
X114269000Y-116164000D01*
X114265073Y-116144255D01*
X114819861Y-116144255D01*
X115648000Y-116972395D01*
X116476139Y-116144255D01*
X116440427Y-116025691D01*
X117448000Y-116025691D01*
X117448000Y-116466250D01*
X117606750Y-116625000D01*
X118331000Y-116625000D01*
X118331000Y-115675750D01*
X118585000Y-115675750D01*
X118585000Y-116625000D01*
X119309250Y-116625000D01*
X119468000Y-116466250D01*
X119468000Y-116025691D01*
X119371327Y-115792302D01*
X119192699Y-115613673D01*
X118959310Y-115517000D01*
X118743750Y-115517000D01*
X118585000Y-115675750D01*
X118331000Y-115675750D01*
X118172250Y-115517000D01*
X117956690Y-115517000D01*
X117723301Y-115613673D01*
X117544673Y-115792302D01*
X117448000Y-116025691D01*
X116440427Y-116025691D01*
X116402005Y-115898136D01*
X115864777Y-115705035D01*
X115294546Y-115732222D01*
X114893995Y-115898136D01*
X114819861Y-116144255D01*
X114265073Y-116144255D01*
X114231440Y-115975174D01*
X114231440Y-115614000D01*
X114187162Y-115378683D01*
X114048090Y-115162559D01*
X113835890Y-115017569D01*
X113584000Y-114966560D01*
X113479560Y-114966560D01*
X112704440Y-114191440D01*
X113226000Y-114191440D01*
X113461317Y-114147162D01*
X113677441Y-114008090D01*
X113822431Y-113795890D01*
X113866199Y-113579758D01*
X114013401Y-113481401D01*
X114083800Y-113411002D01*
X114239748Y-113411002D01*
X114081000Y-113569750D01*
X114081000Y-113860310D01*
X114177673Y-114093699D01*
X114356302Y-114272327D01*
X114589691Y-114369000D01*
X115030250Y-114369000D01*
X115189000Y-114210250D01*
X115189000Y-113411000D01*
X115169000Y-113411000D01*
X115169000Y-113157000D01*
X115189000Y-113157000D01*
X115189000Y-112357750D01*
X115030250Y-112199000D01*
X114589691Y-112199000D01*
X114552000Y-112214612D01*
X114552000Y-112158103D01*
X114621201Y-112186838D01*
X114993167Y-112187162D01*
X115336943Y-112045117D01*
X115600192Y-111782327D01*
X115742838Y-111438799D01*
X115743162Y-111066833D01*
X115601117Y-110723057D01*
X115568000Y-110689882D01*
X115568000Y-110675440D01*
X116091000Y-110675440D01*
X116326317Y-110631162D01*
X116542441Y-110492090D01*
X116687431Y-110279890D01*
X116738440Y-110028000D01*
X116738440Y-109428000D01*
X116694162Y-109192683D01*
X116630322Y-109093472D01*
X116687431Y-109009890D01*
X116738440Y-108758000D01*
X116738440Y-108158000D01*
X116694162Y-107922683D01*
X116645937Y-107847739D01*
X116756000Y-107957802D01*
X116756000Y-107957802D01*
G37*
X116756000Y-107957802D02*
X116756000Y-112216666D01*
X116680683Y-112230838D01*
X116464559Y-112369910D01*
X116418031Y-112438006D01*
X116275698Y-112295673D01*
X116042309Y-112199000D01*
X115601750Y-112199000D01*
X115443000Y-112357750D01*
X115443000Y-113157000D01*
X115463000Y-113157000D01*
X115463000Y-113411000D01*
X115443000Y-113411000D01*
X115443000Y-114210250D01*
X115601750Y-114369000D01*
X116042309Y-114369000D01*
X116275698Y-114272327D01*
X116416936Y-114131090D01*
X116451910Y-114185441D01*
X116664110Y-114330431D01*
X116916000Y-114381440D01*
X118116000Y-114381440D01*
X118351317Y-114337162D01*
X118567441Y-114198090D01*
X118712431Y-113985890D01*
X118763440Y-113734000D01*
X118763440Y-112834000D01*
X118719162Y-112598683D01*
X118580090Y-112382559D01*
X118367890Y-112237569D01*
X118276000Y-112218961D01*
X118276000Y-110694582D01*
X118893205Y-111311786D01*
X118893207Y-111311789D01*
X119180322Y-111503632D01*
X119236513Y-111514809D01*
X119518997Y-111571000D01*
X119519002Y-111570999D01*
X129165082Y-111570999D01*
X129045559Y-111647910D01*
X128900569Y-111860110D01*
X128849560Y-112112000D01*
X128849560Y-113312000D01*
X128893838Y-113547317D01*
X128960329Y-113650646D01*
X128958673Y-113652302D01*
X128862000Y-113885691D01*
X128862000Y-114326250D01*
X129020750Y-114485000D01*
X129745000Y-114485000D01*
X129745000Y-114465000D01*
X129999000Y-114465000D01*
X129999000Y-114485000D01*
X130723250Y-114485000D01*
X130882000Y-114326250D01*
X130882000Y-113885691D01*
X130795557Y-113677000D01*
X131107554Y-113677000D01*
X131295804Y-113865251D01*
X131301838Y-113897317D01*
X131440910Y-114113441D01*
X131586083Y-114212633D01*
X131453559Y-114297910D01*
X131423463Y-114341958D01*
X131416210Y-114349210D01*
X131314529Y-114501387D01*
X131308569Y-114510110D01*
X131308512Y-114510393D01*
X131224367Y-114636325D01*
X131224367Y-114636326D01*
X131156999Y-114975000D01*
X131157000Y-114975005D01*
X131157000Y-115805808D01*
X131103354Y-115840329D01*
X131101698Y-115838673D01*
X130868309Y-115742000D01*
X130615026Y-115742000D01*
X130785327Y-115571698D01*
X130882000Y-115338309D01*
X130882000Y-114897750D01*
X130723250Y-114739000D01*
X129999000Y-114739000D01*
X129999000Y-114759000D01*
X129745000Y-114759000D01*
X129745000Y-114739000D01*
X129020750Y-114739000D01*
X128862000Y-114897750D01*
X128862000Y-115338309D01*
X128958673Y-115571698D01*
X129137301Y-115750327D01*
X129266444Y-115803820D01*
X129182302Y-115838673D01*
X129003673Y-116017301D01*
X128907000Y-116250690D01*
X128907000Y-116466250D01*
X129065750Y-116625000D01*
X130015000Y-116625000D01*
X130015000Y-116605000D01*
X130269000Y-116605000D01*
X130269000Y-116625000D01*
X130289000Y-116625000D01*
X130289000Y-116879000D01*
X130269000Y-116879000D01*
X130269000Y-117603250D01*
X130427750Y-117762000D01*
X130868309Y-117762000D01*
X131101698Y-117665327D01*
X131103068Y-117663957D01*
X131190110Y-117723431D01*
X131442000Y-117774440D01*
X131774402Y-117774440D01*
X131486921Y-118061921D01*
X131334690Y-118289752D01*
X131206683Y-118313838D01*
X131103354Y-118380329D01*
X131101698Y-118378673D01*
X130868309Y-118282000D01*
X130427750Y-118282000D01*
X130269000Y-118440750D01*
X130269000Y-119165000D01*
X130289000Y-119165000D01*
X130289000Y-119419000D01*
X130269000Y-119419000D01*
X130269000Y-120143250D01*
X130427750Y-120302000D01*
X130868309Y-120302000D01*
X131101698Y-120205327D01*
X131103068Y-120203957D01*
X131190110Y-120263431D01*
X131442000Y-120314440D01*
X132642000Y-120314440D01*
X132877317Y-120270162D01*
X133093441Y-120131090D01*
X133238431Y-119918890D01*
X133275112Y-119737750D01*
X133317000Y-119737750D01*
X133317000Y-120328310D01*
X133413673Y-120561699D01*
X133592302Y-120740327D01*
X133825691Y-120837000D01*
X134666250Y-120837000D01*
X134825000Y-120678250D01*
X134825000Y-119579000D01*
X135079000Y-119579000D01*
X135079000Y-120678250D01*
X135237750Y-120837000D01*
X136078309Y-120837000D01*
X136311698Y-120740327D01*
X136392280Y-120659745D01*
X143283861Y-120659745D01*
X143357995Y-120905864D01*
X143895223Y-121098965D01*
X144465454Y-121071778D01*
X144866005Y-120905864D01*
X144940139Y-120659745D01*
X144112000Y-119831605D01*
X143283861Y-120659745D01*
X136392280Y-120659745D01*
X136490327Y-120561699D01*
X136587000Y-120328310D01*
X136587000Y-119737750D01*
X136428250Y-119579000D01*
X135079000Y-119579000D01*
X134825000Y-119579000D01*
X133475750Y-119579000D01*
X133317000Y-119737750D01*
X133275112Y-119737750D01*
X133289440Y-119667000D01*
X133289440Y-118917000D01*
X133245162Y-118681683D01*
X133183422Y-118585736D01*
X133404350Y-118364808D01*
X133317000Y-118575690D01*
X133317000Y-119166250D01*
X133475750Y-119325000D01*
X134825000Y-119325000D01*
X134825000Y-119305000D01*
X135079000Y-119305000D01*
X135079000Y-119325000D01*
X136428250Y-119325000D01*
X136587000Y-119166250D01*
X136587000Y-118575690D01*
X136490327Y-118342301D01*
X136448366Y-118300340D01*
X136548431Y-118153890D01*
X136592352Y-117937000D01*
X139604560Y-117937000D01*
X139604560Y-119052000D01*
X139648838Y-119287317D01*
X139787910Y-119503441D01*
X140000110Y-119648431D01*
X140252000Y-119699440D01*
X142252000Y-119699440D01*
X142487317Y-119655162D01*
X142669919Y-119537661D01*
X142692222Y-120005454D01*
X142858136Y-120406005D01*
X143104255Y-120480139D01*
X143932395Y-119652000D01*
X143104255Y-118823861D01*
X142899440Y-118885554D01*
X142899440Y-118438650D01*
X143060110Y-118548431D01*
X143298201Y-118596646D01*
X143283861Y-118644255D01*
X144112000Y-119472395D01*
X144940139Y-118644255D01*
X144925855Y-118596833D01*
X145147317Y-118555162D01*
X145281560Y-118468779D01*
X145281560Y-118588000D01*
X145325838Y-118823317D01*
X145392329Y-118926646D01*
X145390673Y-118928302D01*
X145384545Y-118943096D01*
X145365864Y-118897995D01*
X145119745Y-118823861D01*
X144291605Y-119652000D01*
X145119745Y-120480139D01*
X145294000Y-120427651D01*
X145294000Y-120614309D01*
X145390673Y-120847698D01*
X145569301Y-121026327D01*
X145802690Y-121123000D01*
X146018250Y-121123000D01*
X146177000Y-120964250D01*
X146177000Y-120015000D01*
X146431000Y-120015000D01*
X146431000Y-120964250D01*
X146589750Y-121123000D01*
X146805310Y-121123000D01*
X147038699Y-121026327D01*
X147217327Y-120847698D01*
X147314000Y-120614309D01*
X147314000Y-120173750D01*
X147326000Y-120173750D01*
X147326000Y-120614309D01*
X147422673Y-120847698D01*
X147601301Y-121026327D01*
X147834690Y-121123000D01*
X148050250Y-121123000D01*
X148209000Y-120964250D01*
X148209000Y-120015000D01*
X147484750Y-120015000D01*
X147326000Y-120173750D01*
X147314000Y-120173750D01*
X147155250Y-120015000D01*
X146431000Y-120015000D01*
X146177000Y-120015000D01*
X146157000Y-120015000D01*
X146157000Y-119761000D01*
X146177000Y-119761000D01*
X146177000Y-119741000D01*
X146431000Y-119741000D01*
X146431000Y-119761000D01*
X147155250Y-119761000D01*
X147314000Y-119602250D01*
X147314000Y-119161691D01*
X147217327Y-118928302D01*
X147215957Y-118926932D01*
X147275431Y-118839890D01*
X147288977Y-118773000D01*
X147348370Y-118773000D01*
X147357838Y-118823317D01*
X147424329Y-118926646D01*
X147422673Y-118928302D01*
X147326000Y-119161691D01*
X147326000Y-119602250D01*
X147484750Y-119761000D01*
X148209000Y-119761000D01*
X148209000Y-119741000D01*
X148463000Y-119741000D01*
X148463000Y-119761000D01*
X148483000Y-119761000D01*
X148483000Y-120015000D01*
X148463000Y-120015000D01*
X148463000Y-120964250D01*
X148621750Y-121123000D01*
X148837310Y-121123000D01*
X149070699Y-121026327D01*
X149249327Y-120847698D01*
X149346000Y-120614309D01*
X149346000Y-120484158D01*
X150151842Y-121290000D01*
X111710000Y-121290000D01*
X111710000Y-115983000D01*
X112336560Y-116609560D01*
X112336560Y-116714000D01*
X112380838Y-116949317D01*
X112519910Y-117165441D01*
X112665083Y-117264633D01*
X112532559Y-117349910D01*
X112387569Y-117562110D01*
X112336560Y-117814000D01*
X112336560Y-118914000D01*
X112380838Y-119149317D01*
X112519910Y-119365441D01*
X112732110Y-119510431D01*
X112984000Y-119561440D01*
X113156638Y-119561440D01*
X113784599Y-120189401D01*
X114031161Y-120354148D01*
X114200560Y-120387844D01*
X114200560Y-120452000D01*
X114244838Y-120687317D01*
X114383910Y-120903441D01*
X114596110Y-121048431D01*
X114848000Y-121099440D01*
X116448000Y-121099440D01*
X116683317Y-121055162D01*
X116899441Y-120916090D01*
X117044431Y-120703890D01*
X117095440Y-120452000D01*
X117095440Y-119412000D01*
X117465666Y-119412000D01*
X117479838Y-119487317D01*
X117618910Y-119703441D01*
X117831110Y-119848431D01*
X118083000Y-119899440D01*
X118833000Y-119899440D01*
X119068317Y-119855162D01*
X119284441Y-119716090D01*
X119378964Y-119577750D01*
X128907000Y-119577750D01*
X128907000Y-119793310D01*
X129003673Y-120026699D01*
X129182302Y-120205327D01*
X129415691Y-120302000D01*
X129856250Y-120302000D01*
X130015000Y-120143250D01*
X130015000Y-119419000D01*
X129065750Y-119419000D01*
X128907000Y-119577750D01*
X119378964Y-119577750D01*
X119429431Y-119503890D01*
X119480440Y-119252000D01*
X119480440Y-118790690D01*
X128907000Y-118790690D01*
X128907000Y-119006250D01*
X129065750Y-119165000D01*
X130015000Y-119165000D01*
X130015000Y-118440750D01*
X129856250Y-118282000D01*
X129415691Y-118282000D01*
X129182302Y-118378673D01*
X129003673Y-118557301D01*
X128907000Y-118790690D01*
X119480440Y-118790690D01*
X119480440Y-118052000D01*
X119436162Y-117816683D01*
X119369671Y-117713354D01*
X119371327Y-117711698D01*
X119468000Y-117478309D01*
X119468000Y-117037750D01*
X128907000Y-117037750D01*
X128907000Y-117253310D01*
X129003673Y-117486699D01*
X129182302Y-117665327D01*
X129415691Y-117762000D01*
X129856250Y-117762000D01*
X130015000Y-117603250D01*
X130015000Y-116879000D01*
X129065750Y-116879000D01*
X128907000Y-117037750D01*
X119468000Y-117037750D01*
X119309250Y-116879000D01*
X118585000Y-116879000D01*
X118585000Y-116899000D01*
X118331000Y-116899000D01*
X118331000Y-116879000D01*
X117606750Y-116879000D01*
X117448000Y-117037750D01*
X117448000Y-117478309D01*
X117544673Y-117711698D01*
X117546043Y-117713068D01*
X117486569Y-117800110D01*
X117467961Y-117892000D01*
X116906898Y-117892000D01*
X117094965Y-117368777D01*
X117067778Y-116798546D01*
X116901864Y-116397995D01*
X116655745Y-116323861D01*
X115827605Y-117152000D01*
X115841748Y-117166142D01*
X115662143Y-117345748D01*
X115648000Y-117331605D01*
X114819861Y-118159745D01*
X114834145Y-118207167D01*
X114612683Y-118248838D01*
X114396559Y-118387910D01*
X114289459Y-118544657D01*
X114231440Y-118486638D01*
X114231440Y-117814000D01*
X114187162Y-117578683D01*
X114048090Y-117362559D01*
X113902917Y-117263367D01*
X114035441Y-117178090D01*
X114180431Y-116965890D01*
X114186641Y-116935223D01*
X114201035Y-116935223D01*
X114228222Y-117505454D01*
X114394136Y-117906005D01*
X114640255Y-117980139D01*
X115468395Y-117152000D01*
X114640255Y-116323861D01*
X114394136Y-116397995D01*
X114201035Y-116935223D01*
X114186641Y-116935223D01*
X114231440Y-116714000D01*
X114231440Y-116352826D01*
X114269000Y-116164000D01*
X114265073Y-116144255D01*
X114819861Y-116144255D01*
X115648000Y-116972395D01*
X116476139Y-116144255D01*
X116440427Y-116025691D01*
X117448000Y-116025691D01*
X117448000Y-116466250D01*
X117606750Y-116625000D01*
X118331000Y-116625000D01*
X118331000Y-115675750D01*
X118585000Y-115675750D01*
X118585000Y-116625000D01*
X119309250Y-116625000D01*
X119468000Y-116466250D01*
X119468000Y-116025691D01*
X119371327Y-115792302D01*
X119192699Y-115613673D01*
X118959310Y-115517000D01*
X118743750Y-115517000D01*
X118585000Y-115675750D01*
X118331000Y-115675750D01*
X118172250Y-115517000D01*
X117956690Y-115517000D01*
X117723301Y-115613673D01*
X117544673Y-115792302D01*
X117448000Y-116025691D01*
X116440427Y-116025691D01*
X116402005Y-115898136D01*
X115864777Y-115705035D01*
X115294546Y-115732222D01*
X114893995Y-115898136D01*
X114819861Y-116144255D01*
X114265073Y-116144255D01*
X114231440Y-115975174D01*
X114231440Y-115614000D01*
X114187162Y-115378683D01*
X114048090Y-115162559D01*
X113835890Y-115017569D01*
X113584000Y-114966560D01*
X113479560Y-114966560D01*
X112704440Y-114191440D01*
X113226000Y-114191440D01*
X113461317Y-114147162D01*
X113677441Y-114008090D01*
X113822431Y-113795890D01*
X113866199Y-113579758D01*
X114013401Y-113481401D01*
X114083800Y-113411002D01*
X114239748Y-113411002D01*
X114081000Y-113569750D01*
X114081000Y-113860310D01*
X114177673Y-114093699D01*
X114356302Y-114272327D01*
X114589691Y-114369000D01*
X115030250Y-114369000D01*
X115189000Y-114210250D01*
X115189000Y-113411000D01*
X115169000Y-113411000D01*
X115169000Y-113157000D01*
X115189000Y-113157000D01*
X115189000Y-112357750D01*
X115030250Y-112199000D01*
X114589691Y-112199000D01*
X114552000Y-112214612D01*
X114552000Y-112158103D01*
X114621201Y-112186838D01*
X114993167Y-112187162D01*
X115336943Y-112045117D01*
X115600192Y-111782327D01*
X115742838Y-111438799D01*
X115743162Y-111066833D01*
X115601117Y-110723057D01*
X115568000Y-110689882D01*
X115568000Y-110675440D01*
X116091000Y-110675440D01*
X116326317Y-110631162D01*
X116542441Y-110492090D01*
X116687431Y-110279890D01*
X116738440Y-110028000D01*
X116738440Y-109428000D01*
X116694162Y-109192683D01*
X116630322Y-109093472D01*
X116687431Y-109009890D01*
X116738440Y-108758000D01*
X116738440Y-108158000D01*
X116694162Y-107922683D01*
X116645937Y-107847739D01*
X116756000Y-107957802D01*
G36*
X154655808Y-115293673D02*
X154513162Y-115637201D01*
X154512838Y-116009167D01*
X154654883Y-116352943D01*
X154917673Y-116616192D01*
X155261201Y-116758838D01*
X155633167Y-116759162D01*
X155976943Y-116617117D01*
X155985074Y-116609000D01*
X156515025Y-116609000D01*
X156678110Y-116720431D01*
X156763677Y-116737759D01*
X156924921Y-116979079D01*
X157179594Y-117149245D01*
X157356221Y-117184379D01*
X157719105Y-117547263D01*
X157702559Y-117557910D01*
X157557569Y-117770110D01*
X157543914Y-117837541D01*
X157514054Y-117792853D01*
X157032285Y-117470946D01*
X156464000Y-117357907D01*
X155895715Y-117470946D01*
X155413946Y-117792853D01*
X155194000Y-118122026D01*
X154974054Y-117792853D01*
X154492285Y-117470946D01*
X153924000Y-117357907D01*
X153355715Y-117470946D01*
X152873946Y-117792853D01*
X152646298Y-118133553D01*
X152579183Y-117990642D01*
X152150924Y-117600355D01*
X151740890Y-117430524D01*
X151511000Y-117551845D01*
X151511000Y-118745000D01*
X151531000Y-118745000D01*
X151531000Y-118999000D01*
X151511000Y-118999000D01*
X151511000Y-119019000D01*
X151257000Y-119019000D01*
X151257000Y-118999000D01*
X151237000Y-118999000D01*
X151237000Y-118745000D01*
X151257000Y-118745000D01*
X151257000Y-117551845D01*
X151027110Y-117430524D01*
X150617076Y-117600355D01*
X150188817Y-117990642D01*
X150168040Y-118034882D01*
X149566079Y-117432921D01*
X149338248Y-117280690D01*
X149314162Y-117152683D01*
X149175090Y-116936559D01*
X149024990Y-116834000D01*
X149438309Y-116834000D01*
X149671698Y-116737327D01*
X149850327Y-116558699D01*
X149947000Y-116325310D01*
X149947000Y-116109750D01*
X149788250Y-115951000D01*
X148839000Y-115951000D01*
X148839000Y-115971000D01*
X148585000Y-115971000D01*
X148585000Y-115951000D01*
X148565000Y-115951000D01*
X148565000Y-115697000D01*
X148585000Y-115697000D01*
X148585000Y-115677000D01*
X148839000Y-115677000D01*
X148839000Y-115697000D01*
X149788250Y-115697000D01*
X149947000Y-115538250D01*
X149947000Y-115322690D01*
X149850327Y-115089301D01*
X149821026Y-115060000D01*
X154889889Y-115060000D01*
X154655808Y-115293673D01*
X154655808Y-115293673D01*
G37*
X154655808Y-115293673D02*
X154513162Y-115637201D01*
X154512838Y-116009167D01*
X154654883Y-116352943D01*
X154917673Y-116616192D01*
X155261201Y-116758838D01*
X155633167Y-116759162D01*
X155976943Y-116617117D01*
X155985074Y-116609000D01*
X156515025Y-116609000D01*
X156678110Y-116720431D01*
X156763677Y-116737759D01*
X156924921Y-116979079D01*
X157179594Y-117149245D01*
X157356221Y-117184379D01*
X157719105Y-117547263D01*
X157702559Y-117557910D01*
X157557569Y-117770110D01*
X157543914Y-117837541D01*
X157514054Y-117792853D01*
X157032285Y-117470946D01*
X156464000Y-117357907D01*
X155895715Y-117470946D01*
X155413946Y-117792853D01*
X155194000Y-118122026D01*
X154974054Y-117792853D01*
X154492285Y-117470946D01*
X153924000Y-117357907D01*
X153355715Y-117470946D01*
X152873946Y-117792853D01*
X152646298Y-118133553D01*
X152579183Y-117990642D01*
X152150924Y-117600355D01*
X151740890Y-117430524D01*
X151511000Y-117551845D01*
X151511000Y-118745000D01*
X151531000Y-118745000D01*
X151531000Y-118999000D01*
X151511000Y-118999000D01*
X151511000Y-119019000D01*
X151257000Y-119019000D01*
X151257000Y-118999000D01*
X151237000Y-118999000D01*
X151237000Y-118745000D01*
X151257000Y-118745000D01*
X151257000Y-117551845D01*
X151027110Y-117430524D01*
X150617076Y-117600355D01*
X150188817Y-117990642D01*
X150168040Y-118034882D01*
X149566079Y-117432921D01*
X149338248Y-117280690D01*
X149314162Y-117152683D01*
X149175090Y-116936559D01*
X149024990Y-116834000D01*
X149438309Y-116834000D01*
X149671698Y-116737327D01*
X149850327Y-116558699D01*
X149947000Y-116325310D01*
X149947000Y-116109750D01*
X149788250Y-115951000D01*
X148839000Y-115951000D01*
X148839000Y-115971000D01*
X148585000Y-115971000D01*
X148585000Y-115951000D01*
X148565000Y-115951000D01*
X148565000Y-115697000D01*
X148585000Y-115697000D01*
X148585000Y-115677000D01*
X148839000Y-115677000D01*
X148839000Y-115697000D01*
X149788250Y-115697000D01*
X149947000Y-115538250D01*
X149947000Y-115322690D01*
X149850327Y-115089301D01*
X149821026Y-115060000D01*
X154889889Y-115060000D01*
X154655808Y-115293673D01*
G36*
X173308838Y-96197167D02*
X173450883Y-96540943D01*
X173713673Y-96804192D01*
X174057201Y-96946838D01*
X174104077Y-96946879D01*
X175662353Y-98505155D01*
X175207220Y-98342845D01*
X174652951Y-98370659D01*
X174270059Y-98529258D01*
X174200841Y-98771236D01*
X175000000Y-99570395D01*
X175014143Y-99556253D01*
X175193748Y-99735858D01*
X175179605Y-99750000D01*
X175978764Y-100549159D01*
X176220742Y-100479941D01*
X176407155Y-99957220D01*
X176379341Y-99402951D01*
X176251491Y-99094293D01*
X179072000Y-101914802D01*
X179072000Y-105533308D01*
X179039542Y-105500850D01*
X178925987Y-105614405D01*
X178784522Y-105311218D01*
X178048045Y-105026263D01*
X177258582Y-105044836D01*
X176615478Y-105311218D01*
X176474012Y-105614407D01*
X177700000Y-106840395D01*
X177714143Y-106826253D01*
X177893748Y-107005858D01*
X177879605Y-107020000D01*
X177893748Y-107034143D01*
X177714143Y-107213748D01*
X177700000Y-107199605D01*
X176474012Y-108425593D01*
X176615478Y-108728782D01*
X177351955Y-109013737D01*
X178141418Y-108995164D01*
X178784522Y-108728782D01*
X178925987Y-108425595D01*
X179039542Y-108539150D01*
X179072000Y-108506692D01*
X179072000Y-111620895D01*
X178930559Y-111711910D01*
X178785569Y-111924110D01*
X178734560Y-112176000D01*
X178734560Y-113376000D01*
X178778838Y-113611317D01*
X178917910Y-113827441D01*
X178987711Y-113875134D01*
X178930559Y-113911910D01*
X178785569Y-114124110D01*
X178734560Y-114376000D01*
X178734560Y-115576000D01*
X178778838Y-115811317D01*
X178917910Y-116027441D01*
X179072000Y-116132726D01*
X179072000Y-116543198D01*
X178388580Y-117226618D01*
X178364090Y-117188559D01*
X178151890Y-117043569D01*
X178131466Y-117039433D01*
X178300551Y-116870643D01*
X178534733Y-116306670D01*
X178535265Y-115696009D01*
X178302068Y-115131629D01*
X177900818Y-114729677D01*
X178300551Y-114330643D01*
X178534733Y-113766670D01*
X178535265Y-113156009D01*
X178302068Y-112591629D01*
X177870643Y-112159449D01*
X177760000Y-112113506D01*
X177760000Y-111976000D01*
X177702148Y-111685161D01*
X177537401Y-111438599D01*
X175797401Y-109698599D01*
X175550839Y-109533852D01*
X175260000Y-109476000D01*
X174833440Y-109476000D01*
X174833440Y-109468000D01*
X174789162Y-109232683D01*
X174650090Y-109016559D01*
X174437890Y-108871569D01*
X174186000Y-108820560D01*
X173286000Y-108820560D01*
X173050683Y-108864838D01*
X172834559Y-109003910D01*
X172689569Y-109216110D01*
X172638560Y-109468000D01*
X172638560Y-110668000D01*
X172682838Y-110903317D01*
X172821910Y-111119441D01*
X172891711Y-111167134D01*
X172834559Y-111203910D01*
X172689569Y-111416110D01*
X172645801Y-111632242D01*
X172498599Y-111730599D01*
X172405198Y-111824000D01*
X171271440Y-111824000D01*
X171271440Y-110228000D01*
X171227162Y-109992683D01*
X171088090Y-109776559D01*
X171018289Y-109728866D01*
X171075441Y-109692090D01*
X171220431Y-109479890D01*
X171271440Y-109228000D01*
X171271440Y-107528000D01*
X171227162Y-107292683D01*
X171088090Y-107076559D01*
X170875890Y-106931569D01*
X170624000Y-106880560D01*
X170304628Y-106880560D01*
X170360431Y-106798890D01*
X170386135Y-106671955D01*
X175706263Y-106671955D01*
X175724836Y-107461418D01*
X175991218Y-108104522D01*
X176294407Y-108245988D01*
X177520395Y-107020000D01*
X176294407Y-105794012D01*
X175991218Y-105935478D01*
X175706263Y-106671955D01*
X170386135Y-106671955D01*
X170411440Y-106547000D01*
X170411440Y-105797000D01*
X170367162Y-105561683D01*
X170228090Y-105345559D01*
X170015890Y-105200569D01*
X169764000Y-105149560D01*
X168991362Y-105149560D01*
X168943988Y-105102186D01*
X169082838Y-104767799D01*
X169082871Y-104729440D01*
X169932000Y-104729440D01*
X170167317Y-104685162D01*
X170383441Y-104546090D01*
X170488726Y-104392000D01*
X173658000Y-104392000D01*
X173948839Y-104334148D01*
X174195401Y-104169401D01*
X174692149Y-103672653D01*
X174721300Y-103684758D01*
X175276265Y-103685242D01*
X175789172Y-103473313D01*
X176181934Y-103081236D01*
X176394758Y-102568700D01*
X176395242Y-102013735D01*
X176183313Y-101500828D01*
X175791236Y-101108066D01*
X175595066Y-101026609D01*
X175729941Y-100970742D01*
X175799159Y-100728764D01*
X175000000Y-99929605D01*
X174200841Y-100728764D01*
X174270059Y-100970742D01*
X174414862Y-101022382D01*
X174210828Y-101106687D01*
X173999976Y-101317171D01*
X173791236Y-101108066D01*
X173579262Y-101020046D01*
X173789172Y-100933313D01*
X174181934Y-100541236D01*
X174290419Y-100279976D01*
X174820395Y-99750000D01*
X174290405Y-99220010D01*
X174183313Y-98960828D01*
X173791236Y-98568066D01*
X173278700Y-98355242D01*
X172723735Y-98354758D01*
X172210828Y-98566687D01*
X171818066Y-98958764D01*
X171605242Y-99471300D01*
X171604758Y-100026265D01*
X171816687Y-100539172D01*
X172116990Y-100840000D01*
X170487105Y-100840000D01*
X170396090Y-100698559D01*
X170183890Y-100553569D01*
X169932000Y-100502560D01*
X168732000Y-100502560D01*
X168636903Y-100520454D01*
X168226819Y-100110371D01*
X167988368Y-99951043D01*
X167972326Y-99947852D01*
X167707096Y-99895094D01*
X163436582Y-99895094D01*
X163494838Y-99754799D01*
X163495162Y-99382833D01*
X163353117Y-99039057D01*
X163090327Y-98775808D01*
X162746799Y-98633162D01*
X162374833Y-98632838D01*
X162031057Y-98774883D01*
X161972838Y-98833000D01*
X161348742Y-98833000D01*
X161329133Y-98813391D01*
X161240325Y-98752711D01*
X161232875Y-98734725D01*
X161211619Y-98713469D01*
X161182893Y-98713469D01*
X161131430Y-98678306D01*
X161176457Y-98678306D01*
X161211619Y-98713469D01*
X161211620Y-98713469D01*
X161176457Y-98678306D01*
X161131430Y-98678306D01*
X160968257Y-98642909D01*
X160940848Y-98497243D01*
X160898725Y-98433728D01*
X160898725Y-98400575D01*
X160898724Y-98400574D01*
X160898725Y-98400574D01*
X160898725Y-98400575D01*
X160931879Y-98433728D01*
X160898725Y-98400574D01*
X160898724Y-98400574D01*
X160877469Y-98379319D01*
X160857025Y-98370851D01*
X160798803Y-98283061D01*
X160622026Y-98106284D01*
X160513152Y-98031893D01*
X160445250Y-97929508D01*
X160268473Y-97752731D01*
X160159600Y-97678341D01*
X160091697Y-97575954D01*
X160089748Y-97574005D01*
X163063877Y-97574005D01*
X163757925Y-98268053D01*
X163757885Y-98313540D01*
X163899930Y-98657316D01*
X164162720Y-98920565D01*
X164506248Y-99063211D01*
X164878214Y-99063535D01*
X165221990Y-98921490D01*
X165485239Y-98658700D01*
X165627885Y-98315172D01*
X165628209Y-97943206D01*
X165486164Y-97599430D01*
X165223374Y-97336181D01*
X164879846Y-97193535D01*
X164832970Y-97193494D01*
X164813471Y-97173995D01*
X170066102Y-97173995D01*
X170356941Y-97116143D01*
X170603503Y-96951396D01*
X171357900Y-96196999D01*
X173308838Y-96196999D01*
X173308838Y-96197167D01*
X173308838Y-96197167D01*
G37*
X173308838Y-96197167D02*
X173450883Y-96540943D01*
X173713673Y-96804192D01*
X174057201Y-96946838D01*
X174104077Y-96946879D01*
X175662353Y-98505155D01*
X175207220Y-98342845D01*
X174652951Y-98370659D01*
X174270059Y-98529258D01*
X174200841Y-98771236D01*
X175000000Y-99570395D01*
X175014143Y-99556253D01*
X175193748Y-99735858D01*
X175179605Y-99750000D01*
X175978764Y-100549159D01*
X176220742Y-100479941D01*
X176407155Y-99957220D01*
X176379341Y-99402951D01*
X176251491Y-99094293D01*
X179072000Y-101914802D01*
X179072000Y-105533308D01*
X179039542Y-105500850D01*
X178925987Y-105614405D01*
X178784522Y-105311218D01*
X178048045Y-105026263D01*
X177258582Y-105044836D01*
X176615478Y-105311218D01*
X176474012Y-105614407D01*
X177700000Y-106840395D01*
X177714143Y-106826253D01*
X177893748Y-107005858D01*
X177879605Y-107020000D01*
X177893748Y-107034143D01*
X177714143Y-107213748D01*
X177700000Y-107199605D01*
X176474012Y-108425593D01*
X176615478Y-108728782D01*
X177351955Y-109013737D01*
X178141418Y-108995164D01*
X178784522Y-108728782D01*
X178925987Y-108425595D01*
X179039542Y-108539150D01*
X179072000Y-108506692D01*
X179072000Y-111620895D01*
X178930559Y-111711910D01*
X178785569Y-111924110D01*
X178734560Y-112176000D01*
X178734560Y-113376000D01*
X178778838Y-113611317D01*
X178917910Y-113827441D01*
X178987711Y-113875134D01*
X178930559Y-113911910D01*
X178785569Y-114124110D01*
X178734560Y-114376000D01*
X178734560Y-115576000D01*
X178778838Y-115811317D01*
X178917910Y-116027441D01*
X179072000Y-116132726D01*
X179072000Y-116543198D01*
X178388580Y-117226618D01*
X178364090Y-117188559D01*
X178151890Y-117043569D01*
X178131466Y-117039433D01*
X178300551Y-116870643D01*
X178534733Y-116306670D01*
X178535265Y-115696009D01*
X178302068Y-115131629D01*
X177900818Y-114729677D01*
X178300551Y-114330643D01*
X178534733Y-113766670D01*
X178535265Y-113156009D01*
X178302068Y-112591629D01*
X177870643Y-112159449D01*
X177760000Y-112113506D01*
X177760000Y-111976000D01*
X177702148Y-111685161D01*
X177537401Y-111438599D01*
X175797401Y-109698599D01*
X175550839Y-109533852D01*
X175260000Y-109476000D01*
X174833440Y-109476000D01*
X174833440Y-109468000D01*
X174789162Y-109232683D01*
X174650090Y-109016559D01*
X174437890Y-108871569D01*
X174186000Y-108820560D01*
X173286000Y-108820560D01*
X173050683Y-108864838D01*
X172834559Y-109003910D01*
X172689569Y-109216110D01*
X172638560Y-109468000D01*
X172638560Y-110668000D01*
X172682838Y-110903317D01*
X172821910Y-111119441D01*
X172891711Y-111167134D01*
X172834559Y-111203910D01*
X172689569Y-111416110D01*
X172645801Y-111632242D01*
X172498599Y-111730599D01*
X172405198Y-111824000D01*
X171271440Y-111824000D01*
X171271440Y-110228000D01*
X171227162Y-109992683D01*
X171088090Y-109776559D01*
X171018289Y-109728866D01*
X171075441Y-109692090D01*
X171220431Y-109479890D01*
X171271440Y-109228000D01*
X171271440Y-107528000D01*
X171227162Y-107292683D01*
X171088090Y-107076559D01*
X170875890Y-106931569D01*
X170624000Y-106880560D01*
X170304628Y-106880560D01*
X170360431Y-106798890D01*
X170386135Y-106671955D01*
X175706263Y-106671955D01*
X175724836Y-107461418D01*
X175991218Y-108104522D01*
X176294407Y-108245988D01*
X177520395Y-107020000D01*
X176294407Y-105794012D01*
X175991218Y-105935478D01*
X175706263Y-106671955D01*
X170386135Y-106671955D01*
X170411440Y-106547000D01*
X170411440Y-105797000D01*
X170367162Y-105561683D01*
X170228090Y-105345559D01*
X170015890Y-105200569D01*
X169764000Y-105149560D01*
X168991362Y-105149560D01*
X168943988Y-105102186D01*
X169082838Y-104767799D01*
X169082871Y-104729440D01*
X169932000Y-104729440D01*
X170167317Y-104685162D01*
X170383441Y-104546090D01*
X170488726Y-104392000D01*
X173658000Y-104392000D01*
X173948839Y-104334148D01*
X174195401Y-104169401D01*
X174692149Y-103672653D01*
X174721300Y-103684758D01*
X175276265Y-103685242D01*
X175789172Y-103473313D01*
X176181934Y-103081236D01*
X176394758Y-102568700D01*
X176395242Y-102013735D01*
X176183313Y-101500828D01*
X175791236Y-101108066D01*
X175595066Y-101026609D01*
X175729941Y-100970742D01*
X175799159Y-100728764D01*
X175000000Y-99929605D01*
X174200841Y-100728764D01*
X174270059Y-100970742D01*
X174414862Y-101022382D01*
X174210828Y-101106687D01*
X173999976Y-101317171D01*
X173791236Y-101108066D01*
X173579262Y-101020046D01*
X173789172Y-100933313D01*
X174181934Y-100541236D01*
X174290419Y-100279976D01*
X174820395Y-99750000D01*
X174290405Y-99220010D01*
X174183313Y-98960828D01*
X173791236Y-98568066D01*
X173278700Y-98355242D01*
X172723735Y-98354758D01*
X172210828Y-98566687D01*
X171818066Y-98958764D01*
X171605242Y-99471300D01*
X171604758Y-100026265D01*
X171816687Y-100539172D01*
X172116990Y-100840000D01*
X170487105Y-100840000D01*
X170396090Y-100698559D01*
X170183890Y-100553569D01*
X169932000Y-100502560D01*
X168732000Y-100502560D01*
X168636903Y-100520454D01*
X168226819Y-100110371D01*
X167988368Y-99951043D01*
X167972326Y-99947852D01*
X167707096Y-99895094D01*
X163436582Y-99895094D01*
X163494838Y-99754799D01*
X163495162Y-99382833D01*
X163353117Y-99039057D01*
X163090327Y-98775808D01*
X162746799Y-98633162D01*
X162374833Y-98632838D01*
X162031057Y-98774883D01*
X161972838Y-98833000D01*
X161348742Y-98833000D01*
X161329133Y-98813391D01*
X161240325Y-98752711D01*
X161232875Y-98734725D01*
X161211619Y-98713469D01*
X161182893Y-98713469D01*
X161131430Y-98678306D01*
X161176457Y-98678306D01*
X161211619Y-98713469D01*
X161211620Y-98713469D01*
X161176457Y-98678306D01*
X161131430Y-98678306D01*
X160968257Y-98642909D01*
X160940848Y-98497243D01*
X160898725Y-98433728D01*
X160898725Y-98400575D01*
X160898724Y-98400574D01*
X160898725Y-98400574D01*
X160898725Y-98400575D01*
X160931879Y-98433728D01*
X160898725Y-98400574D01*
X160898724Y-98400574D01*
X160877469Y-98379319D01*
X160857025Y-98370851D01*
X160798803Y-98283061D01*
X160622026Y-98106284D01*
X160513152Y-98031893D01*
X160445250Y-97929508D01*
X160268473Y-97752731D01*
X160159600Y-97678341D01*
X160091697Y-97575954D01*
X160089748Y-97574005D01*
X163063877Y-97574005D01*
X163757925Y-98268053D01*
X163757885Y-98313540D01*
X163899930Y-98657316D01*
X164162720Y-98920565D01*
X164506248Y-99063211D01*
X164878214Y-99063535D01*
X165221990Y-98921490D01*
X165485239Y-98658700D01*
X165627885Y-98315172D01*
X165628209Y-97943206D01*
X165486164Y-97599430D01*
X165223374Y-97336181D01*
X164879846Y-97193535D01*
X164832970Y-97193494D01*
X164813471Y-97173995D01*
X170066102Y-97173995D01*
X170356941Y-97116143D01*
X170603503Y-96951396D01*
X171357900Y-96196999D01*
X173308838Y-96196999D01*
X173308838Y-96197167D01*
G36*
X112092569Y-80907110D02*
X112041560Y-81159000D01*
X112041560Y-81909000D01*
X112085838Y-82144317D01*
X112224910Y-82360441D01*
X112279966Y-82398059D01*
X112237569Y-82460110D01*
X112186560Y-82712000D01*
X112186560Y-83912000D01*
X112230838Y-84147317D01*
X112369910Y-84363441D01*
X112439711Y-84411134D01*
X112382559Y-84447910D01*
X112237569Y-84660110D01*
X112186560Y-84912000D01*
X112186560Y-86112000D01*
X112230838Y-86347317D01*
X112369910Y-86563441D01*
X112524000Y-86668726D01*
X112524000Y-87376000D01*
X112581852Y-87666839D01*
X112746599Y-87913401D01*
X113039758Y-88206560D01*
X112534000Y-88206560D01*
X112298683Y-88250838D01*
X112270458Y-88269000D01*
X111296005Y-88269000D01*
X111296000Y-88268999D01*
X110976464Y-88332560D01*
X110957325Y-88336367D01*
X110874171Y-88391928D01*
X110814090Y-88298559D01*
X110601890Y-88153569D01*
X110350000Y-88102560D01*
X108650000Y-88102560D01*
X108414683Y-88146838D01*
X108198559Y-88285910D01*
X108053569Y-88498110D01*
X108002560Y-88750000D01*
X108002560Y-90450000D01*
X108046838Y-90685317D01*
X108185910Y-90901441D01*
X108398110Y-91046431D01*
X108465541Y-91060086D01*
X108420853Y-91089946D01*
X108098946Y-91571715D01*
X107985907Y-92140000D01*
X108098946Y-92708285D01*
X108420853Y-93190054D01*
X108750026Y-93410000D01*
X108420853Y-93629946D01*
X108098946Y-94111715D01*
X107985907Y-94680000D01*
X108098946Y-95248285D01*
X108420853Y-95730054D01*
X108750026Y-95950000D01*
X108420853Y-96169946D01*
X108098946Y-96651715D01*
X107985907Y-97220000D01*
X108098946Y-97788285D01*
X108420853Y-98270054D01*
X108761553Y-98497702D01*
X108618642Y-98564817D01*
X108228355Y-98993076D01*
X108058524Y-99403110D01*
X108179845Y-99633000D01*
X109373000Y-99633000D01*
X109373000Y-99613000D01*
X109627000Y-99613000D01*
X109627000Y-99633000D01*
X110820155Y-99633000D01*
X110941476Y-99403110D01*
X110771645Y-98993076D01*
X110381358Y-98564817D01*
X110238447Y-98497702D01*
X110579147Y-98270054D01*
X110641362Y-98176942D01*
X111134208Y-98669787D01*
X111134210Y-98669790D01*
X111421325Y-98861633D01*
X111450323Y-98867401D01*
X111760000Y-98929001D01*
X111760005Y-98929000D01*
X112265380Y-98929000D01*
X112282110Y-98940431D01*
X112534000Y-98991440D01*
X114034000Y-98991440D01*
X114269317Y-98947162D01*
X114485441Y-98808090D01*
X114556000Y-98704823D01*
X114556000Y-99995198D01*
X114438599Y-100112599D01*
X114273852Y-100359161D01*
X114240247Y-100528104D01*
X114140683Y-100546838D01*
X113924559Y-100685910D01*
X113878031Y-100754006D01*
X113735698Y-100611673D01*
X113502309Y-100515000D01*
X113061750Y-100515000D01*
X112903000Y-100673750D01*
X112903000Y-101473000D01*
X112923000Y-101473000D01*
X112923000Y-101727000D01*
X112903000Y-101727000D01*
X112903000Y-102526250D01*
X112992750Y-102616000D01*
X112903000Y-102705750D01*
X112903000Y-103505000D01*
X112923000Y-103505000D01*
X112923000Y-103759000D01*
X112903000Y-103759000D01*
X112903000Y-103779000D01*
X112649000Y-103779000D01*
X112649000Y-103759000D01*
X111699750Y-103759000D01*
X111541000Y-103917750D01*
X111541000Y-104208310D01*
X111637673Y-104441699D01*
X111816302Y-104620327D01*
X111850835Y-104634631D01*
X111729569Y-104812110D01*
X111710961Y-104904000D01*
X111001363Y-104904000D01*
X111014093Y-104840000D01*
X110901054Y-104271715D01*
X110579147Y-103789946D01*
X110238447Y-103562298D01*
X110381358Y-103495183D01*
X110771645Y-103066924D01*
X110941476Y-102656890D01*
X110820155Y-102427000D01*
X109627000Y-102427000D01*
X109627000Y-102447000D01*
X109373000Y-102447000D01*
X109373000Y-102427000D01*
X108179845Y-102427000D01*
X108058524Y-102656890D01*
X108228355Y-103066924D01*
X108618642Y-103495183D01*
X108761553Y-103562298D01*
X108420853Y-103789946D01*
X108098946Y-104271715D01*
X107985907Y-104840000D01*
X108098946Y-105408285D01*
X108420853Y-105890054D01*
X108750026Y-106110000D01*
X108420853Y-106329946D01*
X108098946Y-106811715D01*
X107985907Y-107380000D01*
X108098946Y-107948285D01*
X108420853Y-108430054D01*
X108750026Y-108650000D01*
X108420853Y-108869946D01*
X108098946Y-109351715D01*
X107985907Y-109920000D01*
X108098946Y-110488285D01*
X108420853Y-110970054D01*
X108750026Y-111190000D01*
X108420853Y-111409946D01*
X108098946Y-111891715D01*
X107985907Y-112460000D01*
X108098946Y-113028285D01*
X108420853Y-113510054D01*
X108902622Y-113831961D01*
X109470907Y-113945000D01*
X109529093Y-113945000D01*
X109648290Y-113921290D01*
X110017000Y-114290000D01*
X107710000Y-114290000D01*
X107710000Y-100116890D01*
X108058524Y-100116890D01*
X108228355Y-100526924D01*
X108618642Y-100955183D01*
X108777954Y-101030000D01*
X108618642Y-101104817D01*
X108228355Y-101533076D01*
X108058524Y-101943110D01*
X108179845Y-102173000D01*
X109373000Y-102173000D01*
X109373000Y-99887000D01*
X109627000Y-99887000D01*
X109627000Y-102173000D01*
X110820155Y-102173000D01*
X110941476Y-101943110D01*
X110917719Y-101885750D01*
X111541000Y-101885750D01*
X111541000Y-102176310D01*
X111637673Y-102409699D01*
X111816302Y-102588327D01*
X111883110Y-102616000D01*
X111816302Y-102643673D01*
X111637673Y-102822301D01*
X111541000Y-103055690D01*
X111541000Y-103346250D01*
X111699750Y-103505000D01*
X112649000Y-103505000D01*
X112649000Y-102705750D01*
X112559250Y-102616000D01*
X112649000Y-102526250D01*
X112649000Y-101727000D01*
X111699750Y-101727000D01*
X111541000Y-101885750D01*
X110917719Y-101885750D01*
X110771645Y-101533076D01*
X110381358Y-101104817D01*
X110222046Y-101030000D01*
X110235482Y-101023690D01*
X111541000Y-101023690D01*
X111541000Y-101314250D01*
X111699750Y-101473000D01*
X112649000Y-101473000D01*
X112649000Y-100673750D01*
X112490250Y-100515000D01*
X112049691Y-100515000D01*
X111816302Y-100611673D01*
X111637673Y-100790301D01*
X111541000Y-101023690D01*
X110235482Y-101023690D01*
X110381358Y-100955183D01*
X110771645Y-100526924D01*
X110941476Y-100116890D01*
X110820155Y-99887000D01*
X109627000Y-99887000D01*
X109373000Y-99887000D01*
X108179845Y-99887000D01*
X108058524Y-100116890D01*
X107710000Y-100116890D01*
X107710000Y-87910000D01*
X111300000Y-87910000D01*
X111571705Y-87855954D01*
X111802046Y-87702046D01*
X111955954Y-87471705D01*
X112010000Y-87200000D01*
X112010000Y-80710000D01*
X112227248Y-80710000D01*
X112092569Y-80907110D01*
X112092569Y-80907110D01*
G37*
X112092569Y-80907110D02*
X112041560Y-81159000D01*
X112041560Y-81909000D01*
X112085838Y-82144317D01*
X112224910Y-82360441D01*
X112279966Y-82398059D01*
X112237569Y-82460110D01*
X112186560Y-82712000D01*
X112186560Y-83912000D01*
X112230838Y-84147317D01*
X112369910Y-84363441D01*
X112439711Y-84411134D01*
X112382559Y-84447910D01*
X112237569Y-84660110D01*
X112186560Y-84912000D01*
X112186560Y-86112000D01*
X112230838Y-86347317D01*
X112369910Y-86563441D01*
X112524000Y-86668726D01*
X112524000Y-87376000D01*
X112581852Y-87666839D01*
X112746599Y-87913401D01*
X113039758Y-88206560D01*
X112534000Y-88206560D01*
X112298683Y-88250838D01*
X112270458Y-88269000D01*
X111296005Y-88269000D01*
X111296000Y-88268999D01*
X110976464Y-88332560D01*
X110957325Y-88336367D01*
X110874171Y-88391928D01*
X110814090Y-88298559D01*
X110601890Y-88153569D01*
X110350000Y-88102560D01*
X108650000Y-88102560D01*
X108414683Y-88146838D01*
X108198559Y-88285910D01*
X108053569Y-88498110D01*
X108002560Y-88750000D01*
X108002560Y-90450000D01*
X108046838Y-90685317D01*
X108185910Y-90901441D01*
X108398110Y-91046431D01*
X108465541Y-91060086D01*
X108420853Y-91089946D01*
X108098946Y-91571715D01*
X107985907Y-92140000D01*
X108098946Y-92708285D01*
X108420853Y-93190054D01*
X108750026Y-93410000D01*
X108420853Y-93629946D01*
X108098946Y-94111715D01*
X107985907Y-94680000D01*
X108098946Y-95248285D01*
X108420853Y-95730054D01*
X108750026Y-95950000D01*
X108420853Y-96169946D01*
X108098946Y-96651715D01*
X107985907Y-97220000D01*
X108098946Y-97788285D01*
X108420853Y-98270054D01*
X108761553Y-98497702D01*
X108618642Y-98564817D01*
X108228355Y-98993076D01*
X108058524Y-99403110D01*
X108179845Y-99633000D01*
X109373000Y-99633000D01*
X109373000Y-99613000D01*
X109627000Y-99613000D01*
X109627000Y-99633000D01*
X110820155Y-99633000D01*
X110941476Y-99403110D01*
X110771645Y-98993076D01*
X110381358Y-98564817D01*
X110238447Y-98497702D01*
X110579147Y-98270054D01*
X110641362Y-98176942D01*
X111134208Y-98669787D01*
X111134210Y-98669790D01*
X111421325Y-98861633D01*
X111450323Y-98867401D01*
X111760000Y-98929001D01*
X111760005Y-98929000D01*
X112265380Y-98929000D01*
X112282110Y-98940431D01*
X112534000Y-98991440D01*
X114034000Y-98991440D01*
X114269317Y-98947162D01*
X114485441Y-98808090D01*
X114556000Y-98704823D01*
X114556000Y-99995198D01*
X114438599Y-100112599D01*
X114273852Y-100359161D01*
X114240247Y-100528104D01*
X114140683Y-100546838D01*
X113924559Y-100685910D01*
X113878031Y-100754006D01*
X113735698Y-100611673D01*
X113502309Y-100515000D01*
X113061750Y-100515000D01*
X112903000Y-100673750D01*
X112903000Y-101473000D01*
X112923000Y-101473000D01*
X112923000Y-101727000D01*
X112903000Y-101727000D01*
X112903000Y-102526250D01*
X112992750Y-102616000D01*
X112903000Y-102705750D01*
X112903000Y-103505000D01*
X112923000Y-103505000D01*
X112923000Y-103759000D01*
X112903000Y-103759000D01*
X112903000Y-103779000D01*
X112649000Y-103779000D01*
X112649000Y-103759000D01*
X111699750Y-103759000D01*
X111541000Y-103917750D01*
X111541000Y-104208310D01*
X111637673Y-104441699D01*
X111816302Y-104620327D01*
X111850835Y-104634631D01*
X111729569Y-104812110D01*
X111710961Y-104904000D01*
X111001363Y-104904000D01*
X111014093Y-104840000D01*
X110901054Y-104271715D01*
X110579147Y-103789946D01*
X110238447Y-103562298D01*
X110381358Y-103495183D01*
X110771645Y-103066924D01*
X110941476Y-102656890D01*
X110820155Y-102427000D01*
X109627000Y-102427000D01*
X109627000Y-102447000D01*
X109373000Y-102447000D01*
X109373000Y-102427000D01*
X108179845Y-102427000D01*
X108058524Y-102656890D01*
X108228355Y-103066924D01*
X108618642Y-103495183D01*
X108761553Y-103562298D01*
X108420853Y-103789946D01*
X108098946Y-104271715D01*
X107985907Y-104840000D01*
X108098946Y-105408285D01*
X108420853Y-105890054D01*
X108750026Y-106110000D01*
X108420853Y-106329946D01*
X108098946Y-106811715D01*
X107985907Y-107380000D01*
X108098946Y-107948285D01*
X108420853Y-108430054D01*
X108750026Y-108650000D01*
X108420853Y-108869946D01*
X108098946Y-109351715D01*
X107985907Y-109920000D01*
X108098946Y-110488285D01*
X108420853Y-110970054D01*
X108750026Y-111190000D01*
X108420853Y-111409946D01*
X108098946Y-111891715D01*
X107985907Y-112460000D01*
X108098946Y-113028285D01*
X108420853Y-113510054D01*
X108902622Y-113831961D01*
X109470907Y-113945000D01*
X109529093Y-113945000D01*
X109648290Y-113921290D01*
X110017000Y-114290000D01*
X107710000Y-114290000D01*
X107710000Y-100116890D01*
X108058524Y-100116890D01*
X108228355Y-100526924D01*
X108618642Y-100955183D01*
X108777954Y-101030000D01*
X108618642Y-101104817D01*
X108228355Y-101533076D01*
X108058524Y-101943110D01*
X108179845Y-102173000D01*
X109373000Y-102173000D01*
X109373000Y-99887000D01*
X109627000Y-99887000D01*
X109627000Y-102173000D01*
X110820155Y-102173000D01*
X110941476Y-101943110D01*
X110917719Y-101885750D01*
X111541000Y-101885750D01*
X111541000Y-102176310D01*
X111637673Y-102409699D01*
X111816302Y-102588327D01*
X111883110Y-102616000D01*
X111816302Y-102643673D01*
X111637673Y-102822301D01*
X111541000Y-103055690D01*
X111541000Y-103346250D01*
X111699750Y-103505000D01*
X112649000Y-103505000D01*
X112649000Y-102705750D01*
X112559250Y-102616000D01*
X112649000Y-102526250D01*
X112649000Y-101727000D01*
X111699750Y-101727000D01*
X111541000Y-101885750D01*
X110917719Y-101885750D01*
X110771645Y-101533076D01*
X110381358Y-101104817D01*
X110222046Y-101030000D01*
X110235482Y-101023690D01*
X111541000Y-101023690D01*
X111541000Y-101314250D01*
X111699750Y-101473000D01*
X112649000Y-101473000D01*
X112649000Y-100673750D01*
X112490250Y-100515000D01*
X112049691Y-100515000D01*
X111816302Y-100611673D01*
X111637673Y-100790301D01*
X111541000Y-101023690D01*
X110235482Y-101023690D01*
X110381358Y-100955183D01*
X110771645Y-100526924D01*
X110941476Y-100116890D01*
X110820155Y-99887000D01*
X109627000Y-99887000D01*
X109373000Y-99887000D01*
X108179845Y-99887000D01*
X108058524Y-100116890D01*
X107710000Y-100116890D01*
X107710000Y-87910000D01*
X111300000Y-87910000D01*
X111571705Y-87855954D01*
X111802046Y-87702046D01*
X111955954Y-87471705D01*
X112010000Y-87200000D01*
X112010000Y-80710000D01*
X112227248Y-80710000D01*
X112092569Y-80907110D01*
G36*
X165227000Y-106045000D02*
X166176250Y-106045000D01*
X166182000Y-106039250D01*
X166187750Y-106045000D01*
X167137000Y-106045000D01*
X167137000Y-106025000D01*
X167391000Y-106025000D01*
X167391000Y-106045000D01*
X167411000Y-106045000D01*
X167411000Y-106299000D01*
X167391000Y-106299000D01*
X167391000Y-107023250D01*
X167438999Y-107071249D01*
X167438999Y-109902999D01*
X167496851Y-110193838D01*
X167661598Y-110440400D01*
X167876560Y-110655362D01*
X167876560Y-111824000D01*
X165371440Y-111824000D01*
X165371440Y-110655362D01*
X165586402Y-110440400D01*
X165751149Y-110193839D01*
X165809001Y-109902999D01*
X165809001Y-107267999D01*
X165791895Y-107182000D01*
X165826309Y-107182000D01*
X166059698Y-107085327D01*
X166182000Y-106963026D01*
X166304302Y-107085327D01*
X166537691Y-107182000D01*
X166978250Y-107182000D01*
X167137000Y-107023250D01*
X167137000Y-106299000D01*
X166187750Y-106299000D01*
X166182000Y-106304750D01*
X166176250Y-106299000D01*
X165227000Y-106299000D01*
X165227000Y-106319000D01*
X164973000Y-106319000D01*
X164973000Y-106299000D01*
X164953000Y-106299000D01*
X164953000Y-106045000D01*
X164973000Y-106045000D01*
X164973000Y-106025000D01*
X165227000Y-106025000D01*
X165227000Y-106045000D01*
X165227000Y-106045000D01*
G37*
X165227000Y-106045000D02*
X166176250Y-106045000D01*
X166182000Y-106039250D01*
X166187750Y-106045000D01*
X167137000Y-106045000D01*
X167137000Y-106025000D01*
X167391000Y-106025000D01*
X167391000Y-106045000D01*
X167411000Y-106045000D01*
X167411000Y-106299000D01*
X167391000Y-106299000D01*
X167391000Y-107023250D01*
X167438999Y-107071249D01*
X167438999Y-109902999D01*
X167496851Y-110193838D01*
X167661598Y-110440400D01*
X167876560Y-110655362D01*
X167876560Y-111824000D01*
X165371440Y-111824000D01*
X165371440Y-110655362D01*
X165586402Y-110440400D01*
X165751149Y-110193839D01*
X165809001Y-109902999D01*
X165809001Y-107267999D01*
X165791895Y-107182000D01*
X165826309Y-107182000D01*
X166059698Y-107085327D01*
X166182000Y-106963026D01*
X166304302Y-107085327D01*
X166537691Y-107182000D01*
X166978250Y-107182000D01*
X167137000Y-107023250D01*
X167137000Y-106299000D01*
X166187750Y-106299000D01*
X166182000Y-106304750D01*
X166176250Y-106299000D01*
X165227000Y-106299000D01*
X165227000Y-106319000D01*
X164973000Y-106319000D01*
X164973000Y-106299000D01*
X164953000Y-106299000D01*
X164953000Y-106045000D01*
X164973000Y-106045000D01*
X164973000Y-106025000D01*
X165227000Y-106025000D01*
X165227000Y-106045000D01*
G36*
X119585999Y-94752801D02*
X119585999Y-96255999D01*
X119643851Y-96546838D01*
X119808598Y-96793400D01*
X121186560Y-98171362D01*
X121186560Y-98344000D01*
X121230838Y-98579317D01*
X121369910Y-98795441D01*
X121582110Y-98940431D01*
X121834000Y-98991440D01*
X123334000Y-98991440D01*
X123542010Y-98952300D01*
X123542010Y-100170543D01*
X122924277Y-100788277D01*
X122859007Y-100885961D01*
X122758683Y-100904838D01*
X122542559Y-101043910D01*
X122397569Y-101256110D01*
X122346560Y-101508000D01*
X122346560Y-102708000D01*
X122390838Y-102943317D01*
X122529910Y-103159441D01*
X122598006Y-103205969D01*
X122455673Y-103348302D01*
X122359000Y-103581691D01*
X122359000Y-104022250D01*
X122517750Y-104181000D01*
X123317000Y-104181000D01*
X123317000Y-104161000D01*
X123571000Y-104161000D01*
X123571000Y-104181000D01*
X123591000Y-104181000D01*
X123591000Y-104435000D01*
X123571000Y-104435000D01*
X123571000Y-104455000D01*
X123317000Y-104455000D01*
X123317000Y-104435000D01*
X122517750Y-104435000D01*
X122359000Y-104593750D01*
X122359000Y-105034309D01*
X122410235Y-105158000D01*
X121942563Y-105158000D01*
X121742890Y-105021569D01*
X121491000Y-104970560D01*
X119941000Y-104970560D01*
X119705683Y-105014838D01*
X119489559Y-105153910D01*
X119344569Y-105366110D01*
X119293560Y-105618000D01*
X119293560Y-106218000D01*
X119337838Y-106453317D01*
X119396178Y-106543980D01*
X119306000Y-106761690D01*
X119306000Y-106902250D01*
X119464750Y-107061000D01*
X120589000Y-107061000D01*
X120589000Y-107041000D01*
X120843000Y-107041000D01*
X120843000Y-107061000D01*
X121967250Y-107061000D01*
X122126000Y-106902250D01*
X122126000Y-106761690D01*
X122091334Y-106678000D01*
X123657030Y-106678000D01*
X123947869Y-106620148D01*
X123960527Y-106611690D01*
X124241000Y-106611690D01*
X124241000Y-106902250D01*
X124399750Y-107061000D01*
X125349000Y-107061000D01*
X125349000Y-106261750D01*
X125190250Y-106103000D01*
X124749691Y-106103000D01*
X124516302Y-106199673D01*
X124337673Y-106378301D01*
X124241000Y-106611690D01*
X123960527Y-106611690D01*
X124194431Y-106455401D01*
X125402666Y-105247166D01*
X125428855Y-105207971D01*
X125493692Y-105305007D01*
X125663407Y-105418407D01*
X126581674Y-106336674D01*
X126578031Y-106342006D01*
X126435698Y-106199673D01*
X126202309Y-106103000D01*
X125761750Y-106103000D01*
X125603000Y-106261750D01*
X125603000Y-107061000D01*
X125623000Y-107061000D01*
X125623000Y-107315000D01*
X125603000Y-107315000D01*
X125603000Y-108114250D01*
X125761750Y-108273000D01*
X126202309Y-108273000D01*
X126435698Y-108176327D01*
X126576936Y-108035090D01*
X126611910Y-108089441D01*
X126824110Y-108234431D01*
X127076000Y-108285440D01*
X128276000Y-108285440D01*
X128511317Y-108241162D01*
X128727441Y-108102090D01*
X128872431Y-107889890D01*
X128923440Y-107638000D01*
X128923440Y-106738000D01*
X128879162Y-106502683D01*
X128850159Y-106457611D01*
X132193546Y-109800999D01*
X123918915Y-109800999D01*
X123937071Y-109782843D01*
X123993993Y-109744809D01*
X124489401Y-109249401D01*
X124654148Y-109002839D01*
X124698482Y-108779957D01*
X124744192Y-108734327D01*
X124886838Y-108390799D01*
X124886941Y-108273000D01*
X125190250Y-108273000D01*
X125349000Y-108114250D01*
X125349000Y-107315000D01*
X124399750Y-107315000D01*
X124355574Y-107359176D01*
X124138799Y-107269162D01*
X123766833Y-107268838D01*
X123423057Y-107410883D01*
X123159808Y-107673673D01*
X123017162Y-108017201D01*
X123016838Y-108389167D01*
X123070400Y-108518798D01*
X122957225Y-108631973D01*
X122900303Y-108670007D01*
X122602310Y-108968000D01*
X122095914Y-108968000D01*
X122138440Y-108758000D01*
X122138440Y-108158000D01*
X122094162Y-107922683D01*
X122035822Y-107832020D01*
X122126000Y-107614310D01*
X122126000Y-107473750D01*
X121967250Y-107315000D01*
X120843000Y-107315000D01*
X120843000Y-107335000D01*
X120589000Y-107335000D01*
X120589000Y-107315000D01*
X119464750Y-107315000D01*
X119306000Y-107473750D01*
X119306000Y-107599852D01*
X119102326Y-107640366D01*
X119022192Y-107693910D01*
X118815210Y-107832210D01*
X118815208Y-107832213D01*
X118276000Y-108371420D01*
X118276000Y-107643000D01*
X118271586Y-107620810D01*
X118218148Y-107352160D01*
X118053401Y-107105599D01*
X116738440Y-105790638D01*
X116738440Y-105618000D01*
X116694162Y-105382683D01*
X116555090Y-105166559D01*
X116342890Y-105021569D01*
X116091000Y-104970560D01*
X114541000Y-104970560D01*
X114305683Y-105014838D01*
X114089559Y-105153910D01*
X114069731Y-105182929D01*
X114013401Y-105126599D01*
X113866785Y-105028634D01*
X113829162Y-104828683D01*
X113703635Y-104633608D01*
X113735698Y-104620327D01*
X113876936Y-104479090D01*
X113911910Y-104533441D01*
X114124110Y-104678431D01*
X114376000Y-104729440D01*
X115576000Y-104729440D01*
X115811317Y-104685162D01*
X116027441Y-104546090D01*
X116172431Y-104333890D01*
X116181070Y-104291230D01*
X116363401Y-104169401D01*
X116401057Y-104131745D01*
X117535861Y-104131745D01*
X117609995Y-104377864D01*
X118147223Y-104570965D01*
X118717454Y-104543778D01*
X119118005Y-104377864D01*
X119192139Y-104131745D01*
X118364000Y-103303605D01*
X117535861Y-104131745D01*
X116401057Y-104131745D01*
X116976770Y-103556032D01*
X117110136Y-103878005D01*
X117356255Y-103952139D01*
X118184395Y-103124000D01*
X118543605Y-103124000D01*
X119371745Y-103952139D01*
X119419167Y-103937855D01*
X119460838Y-104159317D01*
X119599910Y-104375441D01*
X119812110Y-104520431D01*
X120064000Y-104571440D01*
X121664000Y-104571440D01*
X121899317Y-104527162D01*
X122115441Y-104388090D01*
X122260431Y-104175890D01*
X122311440Y-103924000D01*
X122311440Y-102324000D01*
X122267162Y-102088683D01*
X122128090Y-101872559D01*
X121915890Y-101727569D01*
X121664000Y-101676560D01*
X120064000Y-101676560D01*
X119828683Y-101720838D01*
X119612559Y-101859910D01*
X119467569Y-102072110D01*
X119419354Y-102310201D01*
X119371745Y-102295861D01*
X118543605Y-103124000D01*
X118184395Y-103124000D01*
X118170252Y-103109858D01*
X118349858Y-102930252D01*
X118364000Y-102944395D01*
X119192139Y-102116255D01*
X119118005Y-101870136D01*
X118580777Y-101677035D01*
X118010546Y-101704222D01*
X117609995Y-101870136D01*
X117600000Y-101903319D01*
X117600000Y-93530000D01*
X117571347Y-93385954D01*
X117542148Y-93239160D01*
X117377401Y-92992599D01*
X114681440Y-90296638D01*
X114681440Y-90124000D01*
X114637162Y-89888683D01*
X114573322Y-89789472D01*
X114593353Y-89760155D01*
X119585999Y-94752801D01*
X119585999Y-94752801D01*
G37*
X119585999Y-94752801D02*
X119585999Y-96255999D01*
X119643851Y-96546838D01*
X119808598Y-96793400D01*
X121186560Y-98171362D01*
X121186560Y-98344000D01*
X121230838Y-98579317D01*
X121369910Y-98795441D01*
X121582110Y-98940431D01*
X121834000Y-98991440D01*
X123334000Y-98991440D01*
X123542010Y-98952300D01*
X123542010Y-100170543D01*
X122924277Y-100788277D01*
X122859007Y-100885961D01*
X122758683Y-100904838D01*
X122542559Y-101043910D01*
X122397569Y-101256110D01*
X122346560Y-101508000D01*
X122346560Y-102708000D01*
X122390838Y-102943317D01*
X122529910Y-103159441D01*
X122598006Y-103205969D01*
X122455673Y-103348302D01*
X122359000Y-103581691D01*
X122359000Y-104022250D01*
X122517750Y-104181000D01*
X123317000Y-104181000D01*
X123317000Y-104161000D01*
X123571000Y-104161000D01*
X123571000Y-104181000D01*
X123591000Y-104181000D01*
X123591000Y-104435000D01*
X123571000Y-104435000D01*
X123571000Y-104455000D01*
X123317000Y-104455000D01*
X123317000Y-104435000D01*
X122517750Y-104435000D01*
X122359000Y-104593750D01*
X122359000Y-105034309D01*
X122410235Y-105158000D01*
X121942563Y-105158000D01*
X121742890Y-105021569D01*
X121491000Y-104970560D01*
X119941000Y-104970560D01*
X119705683Y-105014838D01*
X119489559Y-105153910D01*
X119344569Y-105366110D01*
X119293560Y-105618000D01*
X119293560Y-106218000D01*
X119337838Y-106453317D01*
X119396178Y-106543980D01*
X119306000Y-106761690D01*
X119306000Y-106902250D01*
X119464750Y-107061000D01*
X120589000Y-107061000D01*
X120589000Y-107041000D01*
X120843000Y-107041000D01*
X120843000Y-107061000D01*
X121967250Y-107061000D01*
X122126000Y-106902250D01*
X122126000Y-106761690D01*
X122091334Y-106678000D01*
X123657030Y-106678000D01*
X123947869Y-106620148D01*
X123960527Y-106611690D01*
X124241000Y-106611690D01*
X124241000Y-106902250D01*
X124399750Y-107061000D01*
X125349000Y-107061000D01*
X125349000Y-106261750D01*
X125190250Y-106103000D01*
X124749691Y-106103000D01*
X124516302Y-106199673D01*
X124337673Y-106378301D01*
X124241000Y-106611690D01*
X123960527Y-106611690D01*
X124194431Y-106455401D01*
X125402666Y-105247166D01*
X125428855Y-105207971D01*
X125493692Y-105305007D01*
X125663407Y-105418407D01*
X126581674Y-106336674D01*
X126578031Y-106342006D01*
X126435698Y-106199673D01*
X126202309Y-106103000D01*
X125761750Y-106103000D01*
X125603000Y-106261750D01*
X125603000Y-107061000D01*
X125623000Y-107061000D01*
X125623000Y-107315000D01*
X125603000Y-107315000D01*
X125603000Y-108114250D01*
X125761750Y-108273000D01*
X126202309Y-108273000D01*
X126435698Y-108176327D01*
X126576936Y-108035090D01*
X126611910Y-108089441D01*
X126824110Y-108234431D01*
X127076000Y-108285440D01*
X128276000Y-108285440D01*
X128511317Y-108241162D01*
X128727441Y-108102090D01*
X128872431Y-107889890D01*
X128923440Y-107638000D01*
X128923440Y-106738000D01*
X128879162Y-106502683D01*
X128850159Y-106457611D01*
X132193546Y-109800999D01*
X123918915Y-109800999D01*
X123937071Y-109782843D01*
X123993993Y-109744809D01*
X124489401Y-109249401D01*
X124654148Y-109002839D01*
X124698482Y-108779957D01*
X124744192Y-108734327D01*
X124886838Y-108390799D01*
X124886941Y-108273000D01*
X125190250Y-108273000D01*
X125349000Y-108114250D01*
X125349000Y-107315000D01*
X124399750Y-107315000D01*
X124355574Y-107359176D01*
X124138799Y-107269162D01*
X123766833Y-107268838D01*
X123423057Y-107410883D01*
X123159808Y-107673673D01*
X123017162Y-108017201D01*
X123016838Y-108389167D01*
X123070400Y-108518798D01*
X122957225Y-108631973D01*
X122900303Y-108670007D01*
X122602310Y-108968000D01*
X122095914Y-108968000D01*
X122138440Y-108758000D01*
X122138440Y-108158000D01*
X122094162Y-107922683D01*
X122035822Y-107832020D01*
X122126000Y-107614310D01*
X122126000Y-107473750D01*
X121967250Y-107315000D01*
X120843000Y-107315000D01*
X120843000Y-107335000D01*
X120589000Y-107335000D01*
X120589000Y-107315000D01*
X119464750Y-107315000D01*
X119306000Y-107473750D01*
X119306000Y-107599852D01*
X119102326Y-107640366D01*
X119022192Y-107693910D01*
X118815210Y-107832210D01*
X118815208Y-107832213D01*
X118276000Y-108371420D01*
X118276000Y-107643000D01*
X118271586Y-107620810D01*
X118218148Y-107352160D01*
X118053401Y-107105599D01*
X116738440Y-105790638D01*
X116738440Y-105618000D01*
X116694162Y-105382683D01*
X116555090Y-105166559D01*
X116342890Y-105021569D01*
X116091000Y-104970560D01*
X114541000Y-104970560D01*
X114305683Y-105014838D01*
X114089559Y-105153910D01*
X114069731Y-105182929D01*
X114013401Y-105126599D01*
X113866785Y-105028634D01*
X113829162Y-104828683D01*
X113703635Y-104633608D01*
X113735698Y-104620327D01*
X113876936Y-104479090D01*
X113911910Y-104533441D01*
X114124110Y-104678431D01*
X114376000Y-104729440D01*
X115576000Y-104729440D01*
X115811317Y-104685162D01*
X116027441Y-104546090D01*
X116172431Y-104333890D01*
X116181070Y-104291230D01*
X116363401Y-104169401D01*
X116401057Y-104131745D01*
X117535861Y-104131745D01*
X117609995Y-104377864D01*
X118147223Y-104570965D01*
X118717454Y-104543778D01*
X119118005Y-104377864D01*
X119192139Y-104131745D01*
X118364000Y-103303605D01*
X117535861Y-104131745D01*
X116401057Y-104131745D01*
X116976770Y-103556032D01*
X117110136Y-103878005D01*
X117356255Y-103952139D01*
X118184395Y-103124000D01*
X118543605Y-103124000D01*
X119371745Y-103952139D01*
X119419167Y-103937855D01*
X119460838Y-104159317D01*
X119599910Y-104375441D01*
X119812110Y-104520431D01*
X120064000Y-104571440D01*
X121664000Y-104571440D01*
X121899317Y-104527162D01*
X122115441Y-104388090D01*
X122260431Y-104175890D01*
X122311440Y-103924000D01*
X122311440Y-102324000D01*
X122267162Y-102088683D01*
X122128090Y-101872559D01*
X121915890Y-101727569D01*
X121664000Y-101676560D01*
X120064000Y-101676560D01*
X119828683Y-101720838D01*
X119612559Y-101859910D01*
X119467569Y-102072110D01*
X119419354Y-102310201D01*
X119371745Y-102295861D01*
X118543605Y-103124000D01*
X118184395Y-103124000D01*
X118170252Y-103109858D01*
X118349858Y-102930252D01*
X118364000Y-102944395D01*
X119192139Y-102116255D01*
X119118005Y-101870136D01*
X118580777Y-101677035D01*
X118010546Y-101704222D01*
X117609995Y-101870136D01*
X117600000Y-101903319D01*
X117600000Y-93530000D01*
X117571347Y-93385954D01*
X117542148Y-93239160D01*
X117377401Y-92992599D01*
X114681440Y-90296638D01*
X114681440Y-90124000D01*
X114637162Y-89888683D01*
X114573322Y-89789472D01*
X114593353Y-89760155D01*
X119585999Y-94752801D01*
G36*
X159100927Y-108352618D02*
X158467237Y-108986308D01*
X158456496Y-108960312D01*
X158398379Y-108902093D01*
X158398379Y-107956600D01*
X158396751Y-107948417D01*
X158398196Y-107940199D01*
X158368833Y-107808061D01*
X158342430Y-107675328D01*
X158337795Y-107668392D01*
X158335985Y-107660245D01*
X158258281Y-107549390D01*
X158183102Y-107436877D01*
X158176166Y-107432242D01*
X158171376Y-107425409D01*
X157701120Y-106975687D01*
X157705809Y-106964365D01*
X157793599Y-106906143D01*
X157970376Y-106729366D01*
X158044766Y-106620493D01*
X158147153Y-106552590D01*
X158216195Y-106483548D01*
X159100927Y-106483548D01*
X159100927Y-108352618D01*
X159100927Y-108352618D01*
G37*
X159100927Y-108352618D02*
X158467237Y-108986308D01*
X158456496Y-108960312D01*
X158398379Y-108902093D01*
X158398379Y-107956600D01*
X158396751Y-107948417D01*
X158398196Y-107940199D01*
X158368833Y-107808061D01*
X158342430Y-107675328D01*
X158337795Y-107668392D01*
X158335985Y-107660245D01*
X158258281Y-107549390D01*
X158183102Y-107436877D01*
X158176166Y-107432242D01*
X158171376Y-107425409D01*
X157701120Y-106975687D01*
X157705809Y-106964365D01*
X157793599Y-106906143D01*
X157970376Y-106729366D01*
X158044766Y-106620493D01*
X158147153Y-106552590D01*
X158216195Y-106483548D01*
X159100927Y-106483548D01*
X159100927Y-108352618D01*
G36*
X145613010Y-100967812D02*
X145859571Y-101132559D01*
X146150411Y-101190411D01*
X148570451Y-101190411D01*
X148861290Y-101132559D01*
X149107852Y-100967812D01*
X149644850Y-100430814D01*
X153295507Y-100430814D01*
X153295507Y-102957181D01*
X153353359Y-103248020D01*
X153502458Y-103471163D01*
X153219983Y-103188688D01*
X153220023Y-103143201D01*
X153077978Y-102799425D01*
X152815188Y-102536176D01*
X152471660Y-102393530D01*
X152099694Y-102393206D01*
X151755918Y-102535251D01*
X151492669Y-102798041D01*
X151350023Y-103141569D01*
X151349699Y-103513535D01*
X151491744Y-103857311D01*
X151754534Y-104120560D01*
X152098062Y-104263206D01*
X152144938Y-104263247D01*
X152284189Y-104402498D01*
X152021733Y-104293516D01*
X151649767Y-104293192D01*
X151305991Y-104435237D01*
X151052278Y-104688507D01*
X151037922Y-104678698D01*
X150970019Y-104576311D01*
X150793242Y-104399534D01*
X150684368Y-104325143D01*
X150616466Y-104222758D01*
X150439689Y-104045981D01*
X150330813Y-103971589D01*
X150262912Y-103869205D01*
X150086135Y-103692428D01*
X149977262Y-103618038D01*
X149909359Y-103515651D01*
X149732582Y-103338874D01*
X149623706Y-103264482D01*
X149555805Y-103162098D01*
X149379028Y-102985321D01*
X149270155Y-102910931D01*
X149202252Y-102808544D01*
X149025475Y-102631767D01*
X148916601Y-102557376D01*
X148848699Y-102454991D01*
X148671922Y-102278214D01*
X148583112Y-102217533D01*
X148575663Y-102199549D01*
X148554407Y-102178293D01*
X148525683Y-102178293D01*
X148474219Y-102143129D01*
X148519244Y-102143129D01*
X148554407Y-102178293D01*
X148554408Y-102178293D01*
X148519244Y-102143129D01*
X148474219Y-102143129D01*
X148311046Y-102107732D01*
X148283637Y-101962066D01*
X148241513Y-101898549D01*
X148241513Y-101865399D01*
X148241512Y-101865398D01*
X148241513Y-101865398D01*
X148241513Y-101865399D01*
X148274664Y-101898549D01*
X148241513Y-101865398D01*
X148241512Y-101865398D01*
X148220257Y-101844143D01*
X148199815Y-101835676D01*
X148141592Y-101747884D01*
X147964815Y-101571107D01*
X147767112Y-101436022D01*
X147515950Y-101381538D01*
X147300187Y-101422136D01*
X147079614Y-101274755D01*
X146779208Y-101215000D01*
X146037506Y-101215000D01*
X146030327Y-101207808D01*
X145686799Y-101065162D01*
X145314833Y-101064838D01*
X145007000Y-101192032D01*
X145007000Y-100361802D01*
X145613010Y-100967812D01*
X145613010Y-100967812D01*
G37*
X145613010Y-100967812D02*
X145859571Y-101132559D01*
X146150411Y-101190411D01*
X148570451Y-101190411D01*
X148861290Y-101132559D01*
X149107852Y-100967812D01*
X149644850Y-100430814D01*
X153295507Y-100430814D01*
X153295507Y-102957181D01*
X153353359Y-103248020D01*
X153502458Y-103471163D01*
X153219983Y-103188688D01*
X153220023Y-103143201D01*
X153077978Y-102799425D01*
X152815188Y-102536176D01*
X152471660Y-102393530D01*
X152099694Y-102393206D01*
X151755918Y-102535251D01*
X151492669Y-102798041D01*
X151350023Y-103141569D01*
X151349699Y-103513535D01*
X151491744Y-103857311D01*
X151754534Y-104120560D01*
X152098062Y-104263206D01*
X152144938Y-104263247D01*
X152284189Y-104402498D01*
X152021733Y-104293516D01*
X151649767Y-104293192D01*
X151305991Y-104435237D01*
X151052278Y-104688507D01*
X151037922Y-104678698D01*
X150970019Y-104576311D01*
X150793242Y-104399534D01*
X150684368Y-104325143D01*
X150616466Y-104222758D01*
X150439689Y-104045981D01*
X150330813Y-103971589D01*
X150262912Y-103869205D01*
X150086135Y-103692428D01*
X149977262Y-103618038D01*
X149909359Y-103515651D01*
X149732582Y-103338874D01*
X149623706Y-103264482D01*
X149555805Y-103162098D01*
X149379028Y-102985321D01*
X149270155Y-102910931D01*
X149202252Y-102808544D01*
X149025475Y-102631767D01*
X148916601Y-102557376D01*
X148848699Y-102454991D01*
X148671922Y-102278214D01*
X148583112Y-102217533D01*
X148575663Y-102199549D01*
X148554407Y-102178293D01*
X148525683Y-102178293D01*
X148474219Y-102143129D01*
X148519244Y-102143129D01*
X148554407Y-102178293D01*
X148554408Y-102178293D01*
X148519244Y-102143129D01*
X148474219Y-102143129D01*
X148311046Y-102107732D01*
X148283637Y-101962066D01*
X148241513Y-101898549D01*
X148241513Y-101865399D01*
X148241512Y-101865398D01*
X148241513Y-101865398D01*
X148241513Y-101865399D01*
X148274664Y-101898549D01*
X148241513Y-101865398D01*
X148241512Y-101865398D01*
X148220257Y-101844143D01*
X148199815Y-101835676D01*
X148141592Y-101747884D01*
X147964815Y-101571107D01*
X147767112Y-101436022D01*
X147515950Y-101381538D01*
X147300187Y-101422136D01*
X147079614Y-101274755D01*
X146779208Y-101215000D01*
X146037506Y-101215000D01*
X146030327Y-101207808D01*
X145686799Y-101065162D01*
X145314833Y-101064838D01*
X145007000Y-101192032D01*
X145007000Y-100361802D01*
X145613010Y-100967812D01*
G36*
X126175009Y-103626527D02*
X125813249Y-103698486D01*
X125673084Y-103792141D01*
X125658382Y-103756558D01*
X125395592Y-103493309D01*
X125052064Y-103350663D01*
X124680098Y-103350339D01*
X124469256Y-103437457D01*
X124432327Y-103348302D01*
X124291090Y-103207064D01*
X124345441Y-103172090D01*
X124490431Y-102959890D01*
X124541440Y-102708000D01*
X124541440Y-101992957D01*
X126175009Y-103626527D01*
X126175009Y-103626527D01*
G37*
X126175009Y-103626527D02*
X125813249Y-103698486D01*
X125673084Y-103792141D01*
X125658382Y-103756558D01*
X125395592Y-103493309D01*
X125052064Y-103350663D01*
X124680098Y-103350339D01*
X124469256Y-103437457D01*
X124432327Y-103348302D01*
X124291090Y-103207064D01*
X124345441Y-103172090D01*
X124490431Y-102959890D01*
X124541440Y-102708000D01*
X124541440Y-101992957D01*
X126175009Y-103626527D01*
G36*
X128189000Y-90927440D02*
X128439000Y-90927440D01*
X128568589Y-90903056D01*
X128689000Y-90927440D01*
X128939000Y-90927440D01*
X129068589Y-90903056D01*
X129189000Y-90927440D01*
X129439000Y-90927440D01*
X129544705Y-90907550D01*
X129562690Y-90915000D01*
X129592750Y-90915000D01*
X129613062Y-90894688D01*
X129620708Y-90893249D01*
X129621481Y-90916435D01*
X129579000Y-91130000D01*
X129634949Y-91411272D01*
X129794277Y-91649723D01*
X130032728Y-91809051D01*
X130314000Y-91865000D01*
X130529000Y-91865000D01*
X130529000Y-93105901D01*
X130588755Y-93406308D01*
X130758921Y-93660980D01*
X132504046Y-95406105D01*
X132504037Y-95416267D01*
X132646082Y-95760043D01*
X132908872Y-96023292D01*
X133161501Y-96128193D01*
X132971057Y-96206883D01*
X132707808Y-96469673D01*
X132565162Y-96813201D01*
X132565070Y-96918665D01*
X132538410Y-97052691D01*
X132439000Y-97032560D01*
X132189000Y-97032560D01*
X132083295Y-97052450D01*
X132065310Y-97045000D01*
X132035250Y-97045000D01*
X132014938Y-97065312D01*
X131953683Y-97076838D01*
X131813273Y-97167190D01*
X131690890Y-97083569D01*
X131616192Y-97068442D01*
X131592750Y-97045000D01*
X131562690Y-97045000D01*
X131542247Y-97053468D01*
X131439000Y-97032560D01*
X131189000Y-97032560D01*
X131059411Y-97056944D01*
X130939000Y-97032560D01*
X130689000Y-97032560D01*
X130559411Y-97056944D01*
X130439000Y-97032560D01*
X130189000Y-97032560D01*
X130059411Y-97056944D01*
X129939000Y-97032560D01*
X129689000Y-97032560D01*
X129559411Y-97056944D01*
X129439000Y-97032560D01*
X129189000Y-97032560D01*
X129059411Y-97056944D01*
X128939000Y-97032560D01*
X128689000Y-97032560D01*
X128559411Y-97056944D01*
X128439000Y-97032560D01*
X128189000Y-97032560D01*
X127967025Y-97074328D01*
X127984102Y-96990000D01*
X128306000Y-96990000D01*
X128522178Y-96946999D01*
X128709167Y-96947162D01*
X129052943Y-96805117D01*
X129316192Y-96542327D01*
X129458838Y-96198799D01*
X129459162Y-95826833D01*
X129317117Y-95483057D01*
X129054327Y-95219808D01*
X128710799Y-95077162D01*
X128338833Y-95076838D01*
X128011440Y-95212114D01*
X128011440Y-95105000D01*
X127991550Y-94999295D01*
X127999000Y-94981310D01*
X127999000Y-94951250D01*
X127978688Y-94930938D01*
X127967162Y-94869683D01*
X127876810Y-94729273D01*
X127960431Y-94606890D01*
X127975558Y-94532192D01*
X127999000Y-94508750D01*
X127999000Y-94478690D01*
X127990532Y-94458247D01*
X128011440Y-94355000D01*
X128011440Y-94105000D01*
X127989801Y-93990000D01*
X128258000Y-93990000D01*
X128548839Y-93932148D01*
X128598351Y-93899065D01*
X128709167Y-93899162D01*
X129052943Y-93757117D01*
X129316192Y-93494327D01*
X129458838Y-93150799D01*
X129459162Y-92778833D01*
X129317117Y-92435057D01*
X129054327Y-92171808D01*
X128710799Y-92029162D01*
X128338833Y-92028838D01*
X128011440Y-92164114D01*
X128011440Y-92105000D01*
X127991550Y-91999295D01*
X127999000Y-91981310D01*
X127999000Y-91951250D01*
X127978688Y-91930938D01*
X127967162Y-91869683D01*
X127876810Y-91729273D01*
X127960431Y-91606890D01*
X127975558Y-91532192D01*
X127999000Y-91508750D01*
X127999000Y-91478690D01*
X127990532Y-91458247D01*
X128011440Y-91355000D01*
X128011440Y-91105000D01*
X127969672Y-90883025D01*
X128189000Y-90927440D01*
X128189000Y-90927440D01*
G37*
X128189000Y-90927440D02*
X128439000Y-90927440D01*
X128568589Y-90903056D01*
X128689000Y-90927440D01*
X128939000Y-90927440D01*
X129068589Y-90903056D01*
X129189000Y-90927440D01*
X129439000Y-90927440D01*
X129544705Y-90907550D01*
X129562690Y-90915000D01*
X129592750Y-90915000D01*
X129613062Y-90894688D01*
X129620708Y-90893249D01*
X129621481Y-90916435D01*
X129579000Y-91130000D01*
X129634949Y-91411272D01*
X129794277Y-91649723D01*
X130032728Y-91809051D01*
X130314000Y-91865000D01*
X130529000Y-91865000D01*
X130529000Y-93105901D01*
X130588755Y-93406308D01*
X130758921Y-93660980D01*
X132504046Y-95406105D01*
X132504037Y-95416267D01*
X132646082Y-95760043D01*
X132908872Y-96023292D01*
X133161501Y-96128193D01*
X132971057Y-96206883D01*
X132707808Y-96469673D01*
X132565162Y-96813201D01*
X132565070Y-96918665D01*
X132538410Y-97052691D01*
X132439000Y-97032560D01*
X132189000Y-97032560D01*
X132083295Y-97052450D01*
X132065310Y-97045000D01*
X132035250Y-97045000D01*
X132014938Y-97065312D01*
X131953683Y-97076838D01*
X131813273Y-97167190D01*
X131690890Y-97083569D01*
X131616192Y-97068442D01*
X131592750Y-97045000D01*
X131562690Y-97045000D01*
X131542247Y-97053468D01*
X131439000Y-97032560D01*
X131189000Y-97032560D01*
X131059411Y-97056944D01*
X130939000Y-97032560D01*
X130689000Y-97032560D01*
X130559411Y-97056944D01*
X130439000Y-97032560D01*
X130189000Y-97032560D01*
X130059411Y-97056944D01*
X129939000Y-97032560D01*
X129689000Y-97032560D01*
X129559411Y-97056944D01*
X129439000Y-97032560D01*
X129189000Y-97032560D01*
X129059411Y-97056944D01*
X128939000Y-97032560D01*
X128689000Y-97032560D01*
X128559411Y-97056944D01*
X128439000Y-97032560D01*
X128189000Y-97032560D01*
X127967025Y-97074328D01*
X127984102Y-96990000D01*
X128306000Y-96990000D01*
X128522178Y-96946999D01*
X128709167Y-96947162D01*
X129052943Y-96805117D01*
X129316192Y-96542327D01*
X129458838Y-96198799D01*
X129459162Y-95826833D01*
X129317117Y-95483057D01*
X129054327Y-95219808D01*
X128710799Y-95077162D01*
X128338833Y-95076838D01*
X128011440Y-95212114D01*
X128011440Y-95105000D01*
X127991550Y-94999295D01*
X127999000Y-94981310D01*
X127999000Y-94951250D01*
X127978688Y-94930938D01*
X127967162Y-94869683D01*
X127876810Y-94729273D01*
X127960431Y-94606890D01*
X127975558Y-94532192D01*
X127999000Y-94508750D01*
X127999000Y-94478690D01*
X127990532Y-94458247D01*
X128011440Y-94355000D01*
X128011440Y-94105000D01*
X127989801Y-93990000D01*
X128258000Y-93990000D01*
X128548839Y-93932148D01*
X128598351Y-93899065D01*
X128709167Y-93899162D01*
X129052943Y-93757117D01*
X129316192Y-93494327D01*
X129458838Y-93150799D01*
X129459162Y-92778833D01*
X129317117Y-92435057D01*
X129054327Y-92171808D01*
X128710799Y-92029162D01*
X128338833Y-92028838D01*
X128011440Y-92164114D01*
X128011440Y-92105000D01*
X127991550Y-91999295D01*
X127999000Y-91981310D01*
X127999000Y-91951250D01*
X127978688Y-91930938D01*
X127967162Y-91869683D01*
X127876810Y-91729273D01*
X127960431Y-91606890D01*
X127975558Y-91532192D01*
X127999000Y-91508750D01*
X127999000Y-91478690D01*
X127990532Y-91458247D01*
X128011440Y-91355000D01*
X128011440Y-91105000D01*
X127969672Y-90883025D01*
X128189000Y-90927440D01*
G36*
X160242883Y-93492943D02*
X160505673Y-93756192D01*
X160849201Y-93898838D01*
X160896077Y-93898879D01*
X163051203Y-96054005D01*
X158569747Y-96054005D01*
X158500706Y-95984964D01*
X158391833Y-95910574D01*
X158323930Y-95808187D01*
X158147153Y-95631410D01*
X158050535Y-95565393D01*
X159922401Y-93693527D01*
X160087148Y-93446965D01*
X160131583Y-93223576D01*
X160242883Y-93492943D01*
X160242883Y-93492943D01*
G37*
X160242883Y-93492943D02*
X160505673Y-93756192D01*
X160849201Y-93898838D01*
X160896077Y-93898879D01*
X163051203Y-96054005D01*
X158569747Y-96054005D01*
X158500706Y-95984964D01*
X158391833Y-95910574D01*
X158323930Y-95808187D01*
X158147153Y-95631410D01*
X158050535Y-95565393D01*
X159922401Y-93693527D01*
X160087148Y-93446965D01*
X160131583Y-93223576D01*
X160242883Y-93492943D01*
G36*
X151659051Y-93673207D02*
X151645391Y-93686867D01*
X151584711Y-93775675D01*
X151566725Y-93783125D01*
X151545469Y-93804381D01*
X151545469Y-93833107D01*
X151510306Y-93884570D01*
X151474909Y-94047743D01*
X151329243Y-94075152D01*
X151265728Y-94117275D01*
X151232575Y-94117275D01*
X151211319Y-94138531D01*
X151202851Y-94158975D01*
X151115061Y-94217197D01*
X150938284Y-94393974D01*
X150863893Y-94502848D01*
X150761508Y-94570750D01*
X150584731Y-94747527D01*
X150510341Y-94856400D01*
X150407954Y-94924303D01*
X150231177Y-95101080D01*
X150156785Y-95209956D01*
X150054401Y-95277857D01*
X149877624Y-95454634D01*
X149803234Y-95563507D01*
X149778935Y-95579622D01*
X149779162Y-95318833D01*
X149637117Y-94975057D01*
X149374327Y-94711808D01*
X149030799Y-94569162D01*
X149030000Y-94569161D01*
X149030000Y-94317242D01*
X149313201Y-94434838D01*
X149685167Y-94435162D01*
X150028943Y-94293117D01*
X150205092Y-94117275D01*
X151232574Y-94117275D01*
X151232575Y-94117275D01*
X151269933Y-94079916D01*
X151232574Y-94117275D01*
X150205092Y-94117275D01*
X150292192Y-94030327D01*
X150374085Y-93833107D01*
X151516742Y-93833107D01*
X151545469Y-93804381D01*
X151545469Y-93804380D01*
X151516742Y-93833107D01*
X150374085Y-93833107D01*
X150434838Y-93686799D01*
X150435162Y-93314833D01*
X150416420Y-93269474D01*
X150736895Y-92948999D01*
X150934843Y-92948999D01*
X151659051Y-93673207D01*
X151659051Y-93673207D01*
G37*
X151659051Y-93673207D02*
X151645391Y-93686867D01*
X151584711Y-93775675D01*
X151566725Y-93783125D01*
X151545469Y-93804381D01*
X151545469Y-93833107D01*
X151510306Y-93884570D01*
X151474909Y-94047743D01*
X151329243Y-94075152D01*
X151265728Y-94117275D01*
X151232575Y-94117275D01*
X151211319Y-94138531D01*
X151202851Y-94158975D01*
X151115061Y-94217197D01*
X150938284Y-94393974D01*
X150863893Y-94502848D01*
X150761508Y-94570750D01*
X150584731Y-94747527D01*
X150510341Y-94856400D01*
X150407954Y-94924303D01*
X150231177Y-95101080D01*
X150156785Y-95209956D01*
X150054401Y-95277857D01*
X149877624Y-95454634D01*
X149803234Y-95563507D01*
X149778935Y-95579622D01*
X149779162Y-95318833D01*
X149637117Y-94975057D01*
X149374327Y-94711808D01*
X149030799Y-94569162D01*
X149030000Y-94569161D01*
X149030000Y-94317242D01*
X149313201Y-94434838D01*
X149685167Y-94435162D01*
X150028943Y-94293117D01*
X150205092Y-94117275D01*
X151232574Y-94117275D01*
X151232575Y-94117275D01*
X151269933Y-94079916D01*
X151232574Y-94117275D01*
X150205092Y-94117275D01*
X150292192Y-94030327D01*
X150374085Y-93833107D01*
X151516742Y-93833107D01*
X151545469Y-93804381D01*
X151545469Y-93804380D01*
X151516742Y-93833107D01*
X150374085Y-93833107D01*
X150434838Y-93686799D01*
X150435162Y-93314833D01*
X150416420Y-93269474D01*
X150736895Y-92948999D01*
X150934843Y-92948999D01*
X151659051Y-93673207D01*
G36*
X154848559Y-80812910D02*
X154703569Y-81025110D01*
X154652560Y-81277000D01*
X154652560Y-83027000D01*
X154668022Y-83109176D01*
X154287598Y-83489600D01*
X154122851Y-83736162D01*
X154064999Y-84027001D01*
X154064999Y-85797537D01*
X154032807Y-85829673D01*
X153890161Y-86173201D01*
X153890120Y-86220076D01*
X151389899Y-88720297D01*
X151225152Y-88966858D01*
X151200011Y-89093248D01*
X151167300Y-89257698D01*
X151225152Y-89548537D01*
X151389899Y-89795099D01*
X152441631Y-90846831D01*
X152271827Y-90916992D01*
X152008578Y-91179782D01*
X151865932Y-91523310D01*
X151865813Y-91659653D01*
X151815080Y-91608920D01*
X151560408Y-91438754D01*
X151260001Y-91378999D01*
X150411737Y-91378999D01*
X150111331Y-91438754D01*
X149856658Y-91608920D01*
X149030000Y-92435578D01*
X149030000Y-89840931D01*
X149121441Y-89782090D01*
X149266431Y-89569890D01*
X149317440Y-89318000D01*
X149317440Y-88418000D01*
X149273162Y-88182683D01*
X149134090Y-87966559D01*
X148921890Y-87821569D01*
X148670000Y-87770560D01*
X148179319Y-87770560D01*
X148316431Y-87569890D01*
X148367440Y-87318000D01*
X148367440Y-86418000D01*
X148323162Y-86182683D01*
X148184090Y-85966559D01*
X147971890Y-85821569D01*
X147720000Y-85770560D01*
X146920000Y-85770560D01*
X146684683Y-85814838D01*
X146468559Y-85953910D01*
X146363274Y-86108000D01*
X143867440Y-86108000D01*
X143867440Y-85868000D01*
X143823162Y-85632683D01*
X143684090Y-85416559D01*
X143471890Y-85271569D01*
X143220000Y-85220560D01*
X141220000Y-85220560D01*
X140984683Y-85264838D01*
X140768559Y-85403910D01*
X140694000Y-85513031D01*
X140694000Y-84907279D01*
X140885441Y-84784090D01*
X141030431Y-84571890D01*
X141081440Y-84320000D01*
X141081440Y-83320000D01*
X141037162Y-83084683D01*
X140898090Y-82868559D01*
X140685890Y-82723569D01*
X140434000Y-82672560D01*
X139434000Y-82672560D01*
X139198683Y-82716838D01*
X138982559Y-82855910D01*
X138837569Y-83068110D01*
X138786560Y-83320000D01*
X138786560Y-84320000D01*
X138830838Y-84555317D01*
X138969910Y-84771441D01*
X139174000Y-84910890D01*
X139174000Y-85832000D01*
X139231852Y-86122839D01*
X139396599Y-86369401D01*
X140432599Y-87405401D01*
X140572560Y-87498920D01*
X140572560Y-87868000D01*
X140616838Y-88103317D01*
X140755910Y-88319441D01*
X140968110Y-88464431D01*
X141220000Y-88515440D01*
X143220000Y-88515440D01*
X143455317Y-88471162D01*
X143671441Y-88332090D01*
X143816431Y-88119890D01*
X143867440Y-87868000D01*
X143867440Y-87628000D01*
X146364895Y-87628000D01*
X146455910Y-87769441D01*
X146457548Y-87770560D01*
X145970000Y-87770560D01*
X145734683Y-87814838D01*
X145518559Y-87953910D01*
X145373569Y-88166110D01*
X145322560Y-88418000D01*
X145322560Y-89318000D01*
X145366838Y-89553317D01*
X145485000Y-89736946D01*
X145485000Y-90660845D01*
X145114725Y-91031119D01*
X145065117Y-90911057D01*
X144802327Y-90647808D01*
X144458799Y-90505162D01*
X144411923Y-90505121D01*
X144284400Y-90377598D01*
X144037838Y-90212851D01*
X143746999Y-90154999D01*
X138073558Y-90154999D01*
X137854799Y-90064162D01*
X137514867Y-90063866D01*
X137445117Y-89895057D01*
X137182327Y-89631808D01*
X136838799Y-89489162D01*
X136665147Y-89489011D01*
X136827005Y-89327153D01*
X136837167Y-89327162D01*
X137180943Y-89185117D01*
X137444192Y-88922327D01*
X137586838Y-88578799D01*
X137587162Y-88206833D01*
X137445117Y-87863057D01*
X137182327Y-87599808D01*
X136838799Y-87457162D01*
X136466833Y-87456838D01*
X136123057Y-87598883D01*
X136074733Y-87647122D01*
X136265908Y-87132539D01*
X136241856Y-86482540D01*
X136039387Y-85993736D01*
X135772532Y-85895073D01*
X134799605Y-86868000D01*
X134813748Y-86882143D01*
X134634143Y-87061748D01*
X134620000Y-87047605D01*
X134605858Y-87061748D01*
X134426253Y-86882143D01*
X134440395Y-86868000D01*
X134426253Y-86853858D01*
X134605858Y-86674253D01*
X134620000Y-86688395D01*
X135592927Y-85715468D01*
X135494264Y-85448613D01*
X134884539Y-85222092D01*
X134234540Y-85246144D01*
X133903724Y-85383173D01*
X133816046Y-85251953D01*
X133786073Y-85231925D01*
X133766045Y-85201952D01*
X133082510Y-84518417D01*
X133102440Y-84420000D01*
X133102440Y-84105750D01*
X136299000Y-84105750D01*
X136299000Y-84446310D01*
X136395673Y-84679699D01*
X136574302Y-84858327D01*
X136807691Y-84955000D01*
X137148250Y-84955000D01*
X137307000Y-84796250D01*
X137307000Y-83947000D01*
X137561000Y-83947000D01*
X137561000Y-84796250D01*
X137719750Y-84955000D01*
X138060309Y-84955000D01*
X138293698Y-84858327D01*
X138472327Y-84679699D01*
X138569000Y-84446310D01*
X138569000Y-84105750D01*
X138410250Y-83947000D01*
X137561000Y-83947000D01*
X137307000Y-83947000D01*
X136457750Y-83947000D01*
X136299000Y-84105750D01*
X133102440Y-84105750D01*
X133102440Y-83220000D01*
X133097490Y-83193690D01*
X136299000Y-83193690D01*
X136299000Y-83534250D01*
X136457750Y-83693000D01*
X137307000Y-83693000D01*
X137307000Y-82843750D01*
X137561000Y-82843750D01*
X137561000Y-83693000D01*
X138410250Y-83693000D01*
X138569000Y-83534250D01*
X138569000Y-83193690D01*
X138472327Y-82960301D01*
X138293698Y-82781673D01*
X138060309Y-82685000D01*
X137719750Y-82685000D01*
X137561000Y-82843750D01*
X137307000Y-82843750D01*
X137148250Y-82685000D01*
X136807691Y-82685000D01*
X136574302Y-82781673D01*
X136395673Y-82960301D01*
X136299000Y-83193690D01*
X133097490Y-83193690D01*
X133058162Y-82984683D01*
X132991671Y-82881354D01*
X132993327Y-82879698D01*
X133090000Y-82646309D01*
X133090000Y-82205750D01*
X132931250Y-82047000D01*
X132207000Y-82047000D01*
X132207000Y-82067000D01*
X131953000Y-82067000D01*
X131953000Y-82047000D01*
X131933000Y-82047000D01*
X131933000Y-81793000D01*
X131953000Y-81793000D01*
X131953000Y-81773000D01*
X132207000Y-81773000D01*
X132207000Y-81793000D01*
X132931250Y-81793000D01*
X133090000Y-81634250D01*
X133090000Y-81193691D01*
X132993327Y-80960302D01*
X132814699Y-80781673D01*
X132641665Y-80710000D01*
X155008486Y-80710000D01*
X154848559Y-80812910D01*
X154848559Y-80812910D01*
G37*
X154848559Y-80812910D02*
X154703569Y-81025110D01*
X154652560Y-81277000D01*
X154652560Y-83027000D01*
X154668022Y-83109176D01*
X154287598Y-83489600D01*
X154122851Y-83736162D01*
X154064999Y-84027001D01*
X154064999Y-85797537D01*
X154032807Y-85829673D01*
X153890161Y-86173201D01*
X153890120Y-86220076D01*
X151389899Y-88720297D01*
X151225152Y-88966858D01*
X151200011Y-89093248D01*
X151167300Y-89257698D01*
X151225152Y-89548537D01*
X151389899Y-89795099D01*
X152441631Y-90846831D01*
X152271827Y-90916992D01*
X152008578Y-91179782D01*
X151865932Y-91523310D01*
X151865813Y-91659653D01*
X151815080Y-91608920D01*
X151560408Y-91438754D01*
X151260001Y-91378999D01*
X150411737Y-91378999D01*
X150111331Y-91438754D01*
X149856658Y-91608920D01*
X149030000Y-92435578D01*
X149030000Y-89840931D01*
X149121441Y-89782090D01*
X149266431Y-89569890D01*
X149317440Y-89318000D01*
X149317440Y-88418000D01*
X149273162Y-88182683D01*
X149134090Y-87966559D01*
X148921890Y-87821569D01*
X148670000Y-87770560D01*
X148179319Y-87770560D01*
X148316431Y-87569890D01*
X148367440Y-87318000D01*
X148367440Y-86418000D01*
X148323162Y-86182683D01*
X148184090Y-85966559D01*
X147971890Y-85821569D01*
X147720000Y-85770560D01*
X146920000Y-85770560D01*
X146684683Y-85814838D01*
X146468559Y-85953910D01*
X146363274Y-86108000D01*
X143867440Y-86108000D01*
X143867440Y-85868000D01*
X143823162Y-85632683D01*
X143684090Y-85416559D01*
X143471890Y-85271569D01*
X143220000Y-85220560D01*
X141220000Y-85220560D01*
X140984683Y-85264838D01*
X140768559Y-85403910D01*
X140694000Y-85513031D01*
X140694000Y-84907279D01*
X140885441Y-84784090D01*
X141030431Y-84571890D01*
X141081440Y-84320000D01*
X141081440Y-83320000D01*
X141037162Y-83084683D01*
X140898090Y-82868559D01*
X140685890Y-82723569D01*
X140434000Y-82672560D01*
X139434000Y-82672560D01*
X139198683Y-82716838D01*
X138982559Y-82855910D01*
X138837569Y-83068110D01*
X138786560Y-83320000D01*
X138786560Y-84320000D01*
X138830838Y-84555317D01*
X138969910Y-84771441D01*
X139174000Y-84910890D01*
X139174000Y-85832000D01*
X139231852Y-86122839D01*
X139396599Y-86369401D01*
X140432599Y-87405401D01*
X140572560Y-87498920D01*
X140572560Y-87868000D01*
X140616838Y-88103317D01*
X140755910Y-88319441D01*
X140968110Y-88464431D01*
X141220000Y-88515440D01*
X143220000Y-88515440D01*
X143455317Y-88471162D01*
X143671441Y-88332090D01*
X143816431Y-88119890D01*
X143867440Y-87868000D01*
X143867440Y-87628000D01*
X146364895Y-87628000D01*
X146455910Y-87769441D01*
X146457548Y-87770560D01*
X145970000Y-87770560D01*
X145734683Y-87814838D01*
X145518559Y-87953910D01*
X145373569Y-88166110D01*
X145322560Y-88418000D01*
X145322560Y-89318000D01*
X145366838Y-89553317D01*
X145485000Y-89736946D01*
X145485000Y-90660845D01*
X145114725Y-91031119D01*
X145065117Y-90911057D01*
X144802327Y-90647808D01*
X144458799Y-90505162D01*
X144411923Y-90505121D01*
X144284400Y-90377598D01*
X144037838Y-90212851D01*
X143746999Y-90154999D01*
X138073558Y-90154999D01*
X137854799Y-90064162D01*
X137514867Y-90063866D01*
X137445117Y-89895057D01*
X137182327Y-89631808D01*
X136838799Y-89489162D01*
X136665147Y-89489011D01*
X136827005Y-89327153D01*
X136837167Y-89327162D01*
X137180943Y-89185117D01*
X137444192Y-88922327D01*
X137586838Y-88578799D01*
X137587162Y-88206833D01*
X137445117Y-87863057D01*
X137182327Y-87599808D01*
X136838799Y-87457162D01*
X136466833Y-87456838D01*
X136123057Y-87598883D01*
X136074733Y-87647122D01*
X136265908Y-87132539D01*
X136241856Y-86482540D01*
X136039387Y-85993736D01*
X135772532Y-85895073D01*
X134799605Y-86868000D01*
X134813748Y-86882143D01*
X134634143Y-87061748D01*
X134620000Y-87047605D01*
X134605858Y-87061748D01*
X134426253Y-86882143D01*
X134440395Y-86868000D01*
X134426253Y-86853858D01*
X134605858Y-86674253D01*
X134620000Y-86688395D01*
X135592927Y-85715468D01*
X135494264Y-85448613D01*
X134884539Y-85222092D01*
X134234540Y-85246144D01*
X133903724Y-85383173D01*
X133816046Y-85251953D01*
X133786073Y-85231925D01*
X133766045Y-85201952D01*
X133082510Y-84518417D01*
X133102440Y-84420000D01*
X133102440Y-84105750D01*
X136299000Y-84105750D01*
X136299000Y-84446310D01*
X136395673Y-84679699D01*
X136574302Y-84858327D01*
X136807691Y-84955000D01*
X137148250Y-84955000D01*
X137307000Y-84796250D01*
X137307000Y-83947000D01*
X137561000Y-83947000D01*
X137561000Y-84796250D01*
X137719750Y-84955000D01*
X138060309Y-84955000D01*
X138293698Y-84858327D01*
X138472327Y-84679699D01*
X138569000Y-84446310D01*
X138569000Y-84105750D01*
X138410250Y-83947000D01*
X137561000Y-83947000D01*
X137307000Y-83947000D01*
X136457750Y-83947000D01*
X136299000Y-84105750D01*
X133102440Y-84105750D01*
X133102440Y-83220000D01*
X133097490Y-83193690D01*
X136299000Y-83193690D01*
X136299000Y-83534250D01*
X136457750Y-83693000D01*
X137307000Y-83693000D01*
X137307000Y-82843750D01*
X137561000Y-82843750D01*
X137561000Y-83693000D01*
X138410250Y-83693000D01*
X138569000Y-83534250D01*
X138569000Y-83193690D01*
X138472327Y-82960301D01*
X138293698Y-82781673D01*
X138060309Y-82685000D01*
X137719750Y-82685000D01*
X137561000Y-82843750D01*
X137307000Y-82843750D01*
X137148250Y-82685000D01*
X136807691Y-82685000D01*
X136574302Y-82781673D01*
X136395673Y-82960301D01*
X136299000Y-83193690D01*
X133097490Y-83193690D01*
X133058162Y-82984683D01*
X132991671Y-82881354D01*
X132993327Y-82879698D01*
X133090000Y-82646309D01*
X133090000Y-82205750D01*
X132931250Y-82047000D01*
X132207000Y-82047000D01*
X132207000Y-82067000D01*
X131953000Y-82067000D01*
X131953000Y-82047000D01*
X131933000Y-82047000D01*
X131933000Y-81793000D01*
X131953000Y-81793000D01*
X131953000Y-81773000D01*
X132207000Y-81773000D01*
X132207000Y-81793000D01*
X132931250Y-81793000D01*
X133090000Y-81634250D01*
X133090000Y-81193691D01*
X132993327Y-80960302D01*
X132814699Y-80781673D01*
X132641665Y-80710000D01*
X155008486Y-80710000D01*
X154848559Y-80812910D01*
G36*
X132154001Y-87438093D02*
X132154001Y-88130257D01*
X132129195Y-88255909D01*
X132108367Y-88360617D01*
X132092750Y-88345000D01*
X132035250Y-88345000D01*
X132015847Y-88364403D01*
X131941002Y-88395405D01*
X131941002Y-88345000D01*
X131884979Y-88345000D01*
X131998838Y-88070799D01*
X131999162Y-87698833D01*
X131857117Y-87355057D01*
X131594327Y-87091808D01*
X131541808Y-87070000D01*
X131785908Y-87070000D01*
X132154001Y-87438093D01*
X132154001Y-87438093D01*
G37*
X132154001Y-87438093D02*
X132154001Y-88130257D01*
X132129195Y-88255909D01*
X132108367Y-88360617D01*
X132092750Y-88345000D01*
X132035250Y-88345000D01*
X132015847Y-88364403D01*
X131941002Y-88395405D01*
X131941002Y-88345000D01*
X131884979Y-88345000D01*
X131998838Y-88070799D01*
X131999162Y-87698833D01*
X131857117Y-87355057D01*
X131594327Y-87091808D01*
X131541808Y-87070000D01*
X131785908Y-87070000D01*
X132154001Y-87438093D01*
G36*
X129603999Y-88356249D02*
X129592750Y-88345000D01*
X129562690Y-88345000D01*
X129542247Y-88353468D01*
X129439000Y-88332560D01*
X129189000Y-88332560D01*
X129074000Y-88354199D01*
X129074000Y-88276156D01*
X129481157Y-87868999D01*
X129603999Y-87868999D01*
X129603999Y-88356249D01*
X129603999Y-88356249D01*
G37*
X129603999Y-88356249D02*
X129592750Y-88345000D01*
X129562690Y-88345000D01*
X129542247Y-88353468D01*
X129439000Y-88332560D01*
X129189000Y-88332560D01*
X129074000Y-88354199D01*
X129074000Y-88276156D01*
X129481157Y-87868999D01*
X129603999Y-87868999D01*
X129603999Y-88356249D01*
G36*
X121539000Y-83693000D02*
X121559000Y-83693000D01*
X121559000Y-83947000D01*
X121539000Y-83947000D01*
X121539000Y-83967000D01*
X121285000Y-83967000D01*
X121285000Y-83947000D01*
X121265000Y-83947000D01*
X121265000Y-83693000D01*
X121285000Y-83693000D01*
X121285000Y-83673000D01*
X121539000Y-83673000D01*
X121539000Y-83693000D01*
X121539000Y-83693000D01*
G37*
X121539000Y-83693000D02*
X121559000Y-83693000D01*
X121559000Y-83947000D01*
X121539000Y-83947000D01*
X121539000Y-83967000D01*
X121285000Y-83967000D01*
X121285000Y-83947000D01*
X121265000Y-83947000D01*
X121265000Y-83693000D01*
X121285000Y-83693000D01*
X121285000Y-83673000D01*
X121539000Y-83673000D01*
X121539000Y-83693000D01*
G36*
X117865673Y-80799301D02*
X117769000Y-81032690D01*
X117769000Y-81248250D01*
X117927750Y-81407000D01*
X118877000Y-81407000D01*
X118877000Y-81387000D01*
X119131000Y-81387000D01*
X119131000Y-81407000D01*
X119151000Y-81407000D01*
X119151000Y-81661000D01*
X119131000Y-81661000D01*
X119131000Y-81681000D01*
X118877000Y-81681000D01*
X118877000Y-81661000D01*
X117927750Y-81661000D01*
X117769000Y-81819750D01*
X117769000Y-82035310D01*
X117781116Y-82064560D01*
X116898000Y-82064560D01*
X116662683Y-82108838D01*
X116446559Y-82247910D01*
X116330887Y-82417202D01*
X116271349Y-82324677D01*
X116327327Y-82268699D01*
X116424000Y-82035310D01*
X116424000Y-81819750D01*
X116265250Y-81661000D01*
X115316000Y-81661000D01*
X115316000Y-81681000D01*
X115062000Y-81681000D01*
X115062000Y-81661000D01*
X115042000Y-81661000D01*
X115042000Y-81407000D01*
X115062000Y-81407000D01*
X115062000Y-81387000D01*
X115316000Y-81387000D01*
X115316000Y-81407000D01*
X116265250Y-81407000D01*
X116424000Y-81248250D01*
X116424000Y-81032690D01*
X116327327Y-80799301D01*
X116238026Y-80710000D01*
X117954974Y-80710000D01*
X117865673Y-80799301D01*
X117865673Y-80799301D01*
G37*
X117865673Y-80799301D02*
X117769000Y-81032690D01*
X117769000Y-81248250D01*
X117927750Y-81407000D01*
X118877000Y-81407000D01*
X118877000Y-81387000D01*
X119131000Y-81387000D01*
X119131000Y-81407000D01*
X119151000Y-81407000D01*
X119151000Y-81661000D01*
X119131000Y-81661000D01*
X119131000Y-81681000D01*
X118877000Y-81681000D01*
X118877000Y-81661000D01*
X117927750Y-81661000D01*
X117769000Y-81819750D01*
X117769000Y-82035310D01*
X117781116Y-82064560D01*
X116898000Y-82064560D01*
X116662683Y-82108838D01*
X116446559Y-82247910D01*
X116330887Y-82417202D01*
X116271349Y-82324677D01*
X116327327Y-82268699D01*
X116424000Y-82035310D01*
X116424000Y-81819750D01*
X116265250Y-81661000D01*
X115316000Y-81661000D01*
X115316000Y-81681000D01*
X115062000Y-81681000D01*
X115062000Y-81661000D01*
X115042000Y-81661000D01*
X115042000Y-81407000D01*
X115062000Y-81407000D01*
X115062000Y-81387000D01*
X115316000Y-81387000D01*
X115316000Y-81407000D01*
X116265250Y-81407000D01*
X116424000Y-81248250D01*
X116424000Y-81032690D01*
X116327327Y-80799301D01*
X116238026Y-80710000D01*
X117954974Y-80710000D01*
X117865673Y-80799301D01*
M02*
