G04 #@! TF.FileFunction,Paste,Bot*
%FSLAX46Y46*%
G04 Gerber Fmt 4.6, Leading zero omitted, Abs format (unit mm)*
G04 Created by KiCad (PCBNEW 4.0.7-e2-6376~58~ubuntu16.04.1) date Sat Oct 21 11:32:06 2017*
%MOMM*%
%LPD*%
G01*
G04 APERTURE LIST*
%ADD10C,0.100000*%
%ADD11R,2.000000X3.800000*%
%ADD12R,2.000000X1.500000*%
%ADD13R,1.200000X0.750000*%
%ADD14R,0.750000X1.200000*%
%ADD15R,0.600000X1.100000*%
%ADD16R,0.350000X0.350000*%
%ADD17R,0.900000X0.800000*%
%ADD18R,1.100000X0.600000*%
%ADD19R,1.000000X1.000000*%
%ADD20R,0.900000X1.200000*%
%ADD21R,1.200000X0.900000*%
%ADD22R,1.500000X0.600000*%
%ADD23R,1.550000X0.600000*%
%ADD24R,0.800000X0.900000*%
%ADD25R,2.100000X1.700000*%
%ADD26R,0.550000X1.750000*%
%ADD27R,1.300000X0.250000*%
%ADD28R,0.250000X1.300000*%
G04 APERTURE END LIST*
D10*
G36*
X161048101Y-102736023D02*
X160871324Y-102912800D01*
X160164217Y-102205693D01*
X160340994Y-102028916D01*
X161048101Y-102736023D01*
X161048101Y-102736023D01*
G37*
G36*
X160694548Y-103089577D02*
X160517771Y-103266354D01*
X159810664Y-102559247D01*
X159987441Y-102382470D01*
X160694548Y-103089577D01*
X160694548Y-103089577D01*
G37*
G36*
X160340994Y-103443130D02*
X160164217Y-103619907D01*
X159457110Y-102912800D01*
X159633887Y-102736023D01*
X160340994Y-103443130D01*
X160340994Y-103443130D01*
G37*
G36*
X159987441Y-103796683D02*
X159810664Y-103973460D01*
X159103557Y-103266353D01*
X159280334Y-103089576D01*
X159987441Y-103796683D01*
X159987441Y-103796683D01*
G37*
G36*
X159633888Y-104150237D02*
X159457111Y-104327014D01*
X158750004Y-103619907D01*
X158926781Y-103443130D01*
X159633888Y-104150237D01*
X159633888Y-104150237D01*
G37*
G36*
X159280334Y-104503790D02*
X159103557Y-104680567D01*
X158396450Y-103973460D01*
X158573227Y-103796683D01*
X159280334Y-104503790D01*
X159280334Y-104503790D01*
G37*
G36*
X158926781Y-104857344D02*
X158750004Y-105034121D01*
X158042897Y-104327014D01*
X158219674Y-104150237D01*
X158926781Y-104857344D01*
X158926781Y-104857344D01*
G37*
G36*
X158573227Y-105210897D02*
X158396450Y-105387674D01*
X157689343Y-104680567D01*
X157866120Y-104503790D01*
X158573227Y-105210897D01*
X158573227Y-105210897D01*
G37*
G36*
X158219674Y-105564450D02*
X158042897Y-105741227D01*
X157335790Y-105034120D01*
X157512567Y-104857343D01*
X158219674Y-105564450D01*
X158219674Y-105564450D01*
G37*
G36*
X157866121Y-105918004D02*
X157689344Y-106094781D01*
X156982237Y-105387674D01*
X157159014Y-105210897D01*
X157866121Y-105918004D01*
X157866121Y-105918004D01*
G37*
G36*
X157512567Y-106271557D02*
X157335790Y-106448334D01*
X156628683Y-105741227D01*
X156805460Y-105564450D01*
X157512567Y-106271557D01*
X157512567Y-106271557D01*
G37*
G36*
X157159014Y-106625111D02*
X156982237Y-106801888D01*
X156275130Y-106094781D01*
X156451907Y-105918004D01*
X157159014Y-106625111D01*
X157159014Y-106625111D01*
G37*
G36*
X156805460Y-106978664D02*
X156628683Y-107155441D01*
X155921576Y-106448334D01*
X156098353Y-106271557D01*
X156805460Y-106978664D01*
X156805460Y-106978664D01*
G37*
G36*
X156451907Y-107332217D02*
X156275130Y-107508994D01*
X155568023Y-106801887D01*
X155744800Y-106625110D01*
X156451907Y-107332217D01*
X156451907Y-107332217D01*
G37*
G36*
X156098354Y-107685771D02*
X155921577Y-107862548D01*
X155214470Y-107155441D01*
X155391247Y-106978664D01*
X156098354Y-107685771D01*
X156098354Y-107685771D01*
G37*
G36*
X155744800Y-108039324D02*
X155568023Y-108216101D01*
X154860916Y-107508994D01*
X155037693Y-107332217D01*
X155744800Y-108039324D01*
X155744800Y-108039324D01*
G37*
G36*
X152279977Y-108216101D02*
X152103200Y-108039324D01*
X152810307Y-107332217D01*
X152987084Y-107508994D01*
X152279977Y-108216101D01*
X152279977Y-108216101D01*
G37*
G36*
X151926423Y-107862548D02*
X151749646Y-107685771D01*
X152456753Y-106978664D01*
X152633530Y-107155441D01*
X151926423Y-107862548D01*
X151926423Y-107862548D01*
G37*
G36*
X151572870Y-107508994D02*
X151396093Y-107332217D01*
X152103200Y-106625110D01*
X152279977Y-106801887D01*
X151572870Y-107508994D01*
X151572870Y-107508994D01*
G37*
G36*
X151219317Y-107155441D02*
X151042540Y-106978664D01*
X151749647Y-106271557D01*
X151926424Y-106448334D01*
X151219317Y-107155441D01*
X151219317Y-107155441D01*
G37*
G36*
X150865763Y-106801888D02*
X150688986Y-106625111D01*
X151396093Y-105918004D01*
X151572870Y-106094781D01*
X150865763Y-106801888D01*
X150865763Y-106801888D01*
G37*
G36*
X150512210Y-106448334D02*
X150335433Y-106271557D01*
X151042540Y-105564450D01*
X151219317Y-105741227D01*
X150512210Y-106448334D01*
X150512210Y-106448334D01*
G37*
G36*
X150158656Y-106094781D02*
X149981879Y-105918004D01*
X150688986Y-105210897D01*
X150865763Y-105387674D01*
X150158656Y-106094781D01*
X150158656Y-106094781D01*
G37*
G36*
X149805103Y-105741227D02*
X149628326Y-105564450D01*
X150335433Y-104857343D01*
X150512210Y-105034120D01*
X149805103Y-105741227D01*
X149805103Y-105741227D01*
G37*
G36*
X149451550Y-105387674D02*
X149274773Y-105210897D01*
X149981880Y-104503790D01*
X150158657Y-104680567D01*
X149451550Y-105387674D01*
X149451550Y-105387674D01*
G37*
G36*
X149097996Y-105034121D02*
X148921219Y-104857344D01*
X149628326Y-104150237D01*
X149805103Y-104327014D01*
X149097996Y-105034121D01*
X149097996Y-105034121D01*
G37*
G36*
X148744443Y-104680567D02*
X148567666Y-104503790D01*
X149274773Y-103796683D01*
X149451550Y-103973460D01*
X148744443Y-104680567D01*
X148744443Y-104680567D01*
G37*
G36*
X148390889Y-104327014D02*
X148214112Y-104150237D01*
X148921219Y-103443130D01*
X149097996Y-103619907D01*
X148390889Y-104327014D01*
X148390889Y-104327014D01*
G37*
G36*
X148037336Y-103973460D02*
X147860559Y-103796683D01*
X148567666Y-103089576D01*
X148744443Y-103266353D01*
X148037336Y-103973460D01*
X148037336Y-103973460D01*
G37*
G36*
X147683783Y-103619907D02*
X147507006Y-103443130D01*
X148214113Y-102736023D01*
X148390890Y-102912800D01*
X147683783Y-103619907D01*
X147683783Y-103619907D01*
G37*
G36*
X147330229Y-103266354D02*
X147153452Y-103089577D01*
X147860559Y-102382470D01*
X148037336Y-102559247D01*
X147330229Y-103266354D01*
X147330229Y-103266354D01*
G37*
G36*
X146976676Y-102912800D02*
X146799899Y-102736023D01*
X147507006Y-102028916D01*
X147683783Y-102205693D01*
X146976676Y-102912800D01*
X146976676Y-102912800D01*
G37*
G36*
X147683783Y-99978307D02*
X147507006Y-100155084D01*
X146799899Y-99447977D01*
X146976676Y-99271200D01*
X147683783Y-99978307D01*
X147683783Y-99978307D01*
G37*
G36*
X148037336Y-99624753D02*
X147860559Y-99801530D01*
X147153452Y-99094423D01*
X147330229Y-98917646D01*
X148037336Y-99624753D01*
X148037336Y-99624753D01*
G37*
G36*
X148390890Y-99271200D02*
X148214113Y-99447977D01*
X147507006Y-98740870D01*
X147683783Y-98564093D01*
X148390890Y-99271200D01*
X148390890Y-99271200D01*
G37*
G36*
X148744443Y-98917647D02*
X148567666Y-99094424D01*
X147860559Y-98387317D01*
X148037336Y-98210540D01*
X148744443Y-98917647D01*
X148744443Y-98917647D01*
G37*
G36*
X149097996Y-98564093D02*
X148921219Y-98740870D01*
X148214112Y-98033763D01*
X148390889Y-97856986D01*
X149097996Y-98564093D01*
X149097996Y-98564093D01*
G37*
G36*
X149451550Y-98210540D02*
X149274773Y-98387317D01*
X148567666Y-97680210D01*
X148744443Y-97503433D01*
X149451550Y-98210540D01*
X149451550Y-98210540D01*
G37*
G36*
X149805103Y-97856986D02*
X149628326Y-98033763D01*
X148921219Y-97326656D01*
X149097996Y-97149879D01*
X149805103Y-97856986D01*
X149805103Y-97856986D01*
G37*
G36*
X150158657Y-97503433D02*
X149981880Y-97680210D01*
X149274773Y-96973103D01*
X149451550Y-96796326D01*
X150158657Y-97503433D01*
X150158657Y-97503433D01*
G37*
G36*
X150512210Y-97149880D02*
X150335433Y-97326657D01*
X149628326Y-96619550D01*
X149805103Y-96442773D01*
X150512210Y-97149880D01*
X150512210Y-97149880D01*
G37*
G36*
X150865763Y-96796326D02*
X150688986Y-96973103D01*
X149981879Y-96265996D01*
X150158656Y-96089219D01*
X150865763Y-96796326D01*
X150865763Y-96796326D01*
G37*
G36*
X151219317Y-96442773D02*
X151042540Y-96619550D01*
X150335433Y-95912443D01*
X150512210Y-95735666D01*
X151219317Y-96442773D01*
X151219317Y-96442773D01*
G37*
G36*
X151572870Y-96089219D02*
X151396093Y-96265996D01*
X150688986Y-95558889D01*
X150865763Y-95382112D01*
X151572870Y-96089219D01*
X151572870Y-96089219D01*
G37*
G36*
X151926424Y-95735666D02*
X151749647Y-95912443D01*
X151042540Y-95205336D01*
X151219317Y-95028559D01*
X151926424Y-95735666D01*
X151926424Y-95735666D01*
G37*
G36*
X152279977Y-95382113D02*
X152103200Y-95558890D01*
X151396093Y-94851783D01*
X151572870Y-94675006D01*
X152279977Y-95382113D01*
X152279977Y-95382113D01*
G37*
G36*
X152633530Y-95028559D02*
X152456753Y-95205336D01*
X151749646Y-94498229D01*
X151926423Y-94321452D01*
X152633530Y-95028559D01*
X152633530Y-95028559D01*
G37*
G36*
X152987084Y-94675006D02*
X152810307Y-94851783D01*
X152103200Y-94144676D01*
X152279977Y-93967899D01*
X152987084Y-94675006D01*
X152987084Y-94675006D01*
G37*
G36*
X155037693Y-94851783D02*
X154860916Y-94675006D01*
X155568023Y-93967899D01*
X155744800Y-94144676D01*
X155037693Y-94851783D01*
X155037693Y-94851783D01*
G37*
G36*
X155391247Y-95205336D02*
X155214470Y-95028559D01*
X155921577Y-94321452D01*
X156098354Y-94498229D01*
X155391247Y-95205336D01*
X155391247Y-95205336D01*
G37*
G36*
X155744800Y-95558890D02*
X155568023Y-95382113D01*
X156275130Y-94675006D01*
X156451907Y-94851783D01*
X155744800Y-95558890D01*
X155744800Y-95558890D01*
G37*
G36*
X156098353Y-95912443D02*
X155921576Y-95735666D01*
X156628683Y-95028559D01*
X156805460Y-95205336D01*
X156098353Y-95912443D01*
X156098353Y-95912443D01*
G37*
G36*
X156451907Y-96265996D02*
X156275130Y-96089219D01*
X156982237Y-95382112D01*
X157159014Y-95558889D01*
X156451907Y-96265996D01*
X156451907Y-96265996D01*
G37*
G36*
X156805460Y-96619550D02*
X156628683Y-96442773D01*
X157335790Y-95735666D01*
X157512567Y-95912443D01*
X156805460Y-96619550D01*
X156805460Y-96619550D01*
G37*
G36*
X157159014Y-96973103D02*
X156982237Y-96796326D01*
X157689344Y-96089219D01*
X157866121Y-96265996D01*
X157159014Y-96973103D01*
X157159014Y-96973103D01*
G37*
G36*
X157512567Y-97326657D02*
X157335790Y-97149880D01*
X158042897Y-96442773D01*
X158219674Y-96619550D01*
X157512567Y-97326657D01*
X157512567Y-97326657D01*
G37*
G36*
X157866120Y-97680210D02*
X157689343Y-97503433D01*
X158396450Y-96796326D01*
X158573227Y-96973103D01*
X157866120Y-97680210D01*
X157866120Y-97680210D01*
G37*
G36*
X158219674Y-98033763D02*
X158042897Y-97856986D01*
X158750004Y-97149879D01*
X158926781Y-97326656D01*
X158219674Y-98033763D01*
X158219674Y-98033763D01*
G37*
G36*
X158573227Y-98387317D02*
X158396450Y-98210540D01*
X159103557Y-97503433D01*
X159280334Y-97680210D01*
X158573227Y-98387317D01*
X158573227Y-98387317D01*
G37*
G36*
X158926781Y-98740870D02*
X158750004Y-98564093D01*
X159457111Y-97856986D01*
X159633888Y-98033763D01*
X158926781Y-98740870D01*
X158926781Y-98740870D01*
G37*
G36*
X159280334Y-99094424D02*
X159103557Y-98917647D01*
X159810664Y-98210540D01*
X159987441Y-98387317D01*
X159280334Y-99094424D01*
X159280334Y-99094424D01*
G37*
G36*
X159633887Y-99447977D02*
X159457110Y-99271200D01*
X160164217Y-98564093D01*
X160340994Y-98740870D01*
X159633887Y-99447977D01*
X159633887Y-99447977D01*
G37*
G36*
X159987441Y-99801530D02*
X159810664Y-99624753D01*
X160517771Y-98917646D01*
X160694548Y-99094423D01*
X159987441Y-99801530D01*
X159987441Y-99801530D01*
G37*
G36*
X160340994Y-100155084D02*
X160164217Y-99978307D01*
X160871324Y-99271200D01*
X161048101Y-99447977D01*
X160340994Y-100155084D01*
X160340994Y-100155084D01*
G37*
D11*
X141252000Y-117152000D03*
D12*
X134952000Y-117152000D03*
X134952000Y-114852000D03*
X134952000Y-119452000D03*
D13*
X120904000Y-81534000D03*
X119004000Y-81534000D03*
D14*
X118458000Y-118652000D03*
X118458000Y-116752000D03*
D13*
X113289000Y-81534000D03*
X115189000Y-81534000D03*
D14*
X129872000Y-112712000D03*
X129872000Y-114612000D03*
D13*
X132042000Y-116752000D03*
X130142000Y-116752000D03*
X132042000Y-119292000D03*
X130142000Y-119292000D03*
D14*
X146304000Y-117988000D03*
X146304000Y-119888000D03*
X148336000Y-117988000D03*
X148336000Y-119888000D03*
D13*
X146812000Y-115824000D03*
X148712000Y-115824000D03*
X169164000Y-106172000D03*
X167264000Y-106172000D03*
X163200000Y-106172000D03*
X165100000Y-106172000D03*
D15*
X113284000Y-116164000D03*
X113284000Y-118364000D03*
D16*
X132080000Y-113487000D03*
X132080000Y-114937000D03*
D17*
X138208000Y-98486000D03*
X138208000Y-96586000D03*
X140208000Y-97536000D03*
D16*
X142748000Y-113792000D03*
X141298000Y-113792000D03*
D18*
X159680000Y-115824000D03*
X157480000Y-115824000D03*
D19*
X139934000Y-83820000D03*
X137434000Y-83820000D03*
D20*
X119380000Y-85512000D03*
X119380000Y-83312000D03*
X117348000Y-85512000D03*
X117348000Y-83312000D03*
X115316000Y-85512000D03*
X115316000Y-83312000D03*
X113284000Y-85512000D03*
X113284000Y-83312000D03*
X123444000Y-104308000D03*
X123444000Y-102108000D03*
X173736000Y-110068000D03*
X173736000Y-112268000D03*
D21*
X114976000Y-103632000D03*
X112776000Y-103632000D03*
X112776000Y-101600000D03*
X114976000Y-101600000D03*
D20*
X141224000Y-102784000D03*
X141224000Y-100584000D03*
X136652000Y-102784000D03*
X136652000Y-100584000D03*
X139700000Y-102784000D03*
X139700000Y-100584000D03*
X138176000Y-102784000D03*
X138176000Y-100584000D03*
X135128000Y-102784000D03*
X135128000Y-100584000D03*
X179832000Y-114976000D03*
X179832000Y-112776000D03*
D21*
X169332000Y-103632000D03*
X167132000Y-103632000D03*
D20*
X173736000Y-84836000D03*
X173736000Y-82636000D03*
X173736000Y-91100000D03*
X173736000Y-88900000D03*
D21*
X169332000Y-101600000D03*
X167132000Y-101600000D03*
X117516000Y-113284000D03*
X115316000Y-113284000D03*
X127676000Y-107188000D03*
X125476000Y-107188000D03*
D20*
X112776000Y-107864000D03*
X112776000Y-105664000D03*
X112776000Y-110744000D03*
X112776000Y-112944000D03*
D22*
X122584000Y-89154000D03*
X122584000Y-90424000D03*
X122584000Y-91694000D03*
X122584000Y-92964000D03*
X122584000Y-94234000D03*
X122584000Y-95504000D03*
X122584000Y-96774000D03*
X122584000Y-98044000D03*
X113284000Y-98044000D03*
X113284000Y-96774000D03*
X113284000Y-95504000D03*
X113284000Y-94234000D03*
X113284000Y-92964000D03*
X113284000Y-91694000D03*
X113284000Y-90424000D03*
X113284000Y-89154000D03*
D23*
X120716000Y-105918000D03*
X120716000Y-107188000D03*
X120716000Y-108458000D03*
X120716000Y-109728000D03*
X115316000Y-109728000D03*
X115316000Y-108458000D03*
X115316000Y-107188000D03*
X115316000Y-105918000D03*
D24*
X148270000Y-88868000D03*
X146370000Y-88868000D03*
X147320000Y-86868000D03*
D14*
X121412000Y-85720000D03*
X121412000Y-83820000D03*
X132080000Y-83820000D03*
X132080000Y-81920000D03*
D25*
X123952000Y-82296000D03*
X129852000Y-82296000D03*
X129852000Y-84996000D03*
X123952000Y-84996000D03*
X169574000Y-111078000D03*
X163674000Y-111078000D03*
X163674000Y-108378000D03*
X169574000Y-108378000D03*
D26*
X155575000Y-82152000D03*
X156845000Y-82152000D03*
X158115000Y-82152000D03*
X159385000Y-82152000D03*
X159385000Y-89552000D03*
X158115000Y-89552000D03*
X156845000Y-89552000D03*
X155575000Y-89552000D03*
D27*
X135414000Y-91230000D03*
X135414000Y-91730000D03*
X135414000Y-92230000D03*
X135414000Y-92730000D03*
X135414000Y-93230000D03*
X135414000Y-93730000D03*
X135414000Y-94230000D03*
X135414000Y-94730000D03*
X135414000Y-95230000D03*
X135414000Y-95730000D03*
X135414000Y-96230000D03*
X135414000Y-96730000D03*
D28*
X133814000Y-98330000D03*
X133314000Y-98330000D03*
X132814000Y-98330000D03*
X132314000Y-98330000D03*
X131814000Y-98330000D03*
X131314000Y-98330000D03*
X130814000Y-98330000D03*
X130314000Y-98330000D03*
X129814000Y-98330000D03*
X129314000Y-98330000D03*
X128814000Y-98330000D03*
X128314000Y-98330000D03*
D27*
X126714000Y-96730000D03*
X126714000Y-96230000D03*
X126714000Y-95730000D03*
X126714000Y-95230000D03*
X126714000Y-94730000D03*
X126714000Y-94230000D03*
X126714000Y-93730000D03*
X126714000Y-93230000D03*
X126714000Y-92730000D03*
X126714000Y-92230000D03*
X126714000Y-91730000D03*
X126714000Y-91230000D03*
D28*
X128314000Y-89630000D03*
X128814000Y-89630000D03*
X129314000Y-89630000D03*
X129814000Y-89630000D03*
X130314000Y-89630000D03*
X130814000Y-89630000D03*
X131314000Y-89630000D03*
X131814000Y-89630000D03*
X132314000Y-89630000D03*
X132814000Y-89630000D03*
X133314000Y-89630000D03*
X133814000Y-89630000D03*
M02*
