G04 #@! TF.FileFunction,Legend,Top*
%FSLAX46Y46*%
G04 Gerber Fmt 4.6, Leading zero omitted, Abs format (unit mm)*
G04 Created by KiCad (PCBNEW 4.0.7-e2-6376~58~ubuntu16.04.1) date Sat Oct 21 11:32:06 2017*
%MOMM*%
%LPD*%
G01*
G04 APERTURE LIST*
%ADD10C,0.100000*%
%ADD11C,0.300000*%
%ADD12C,0.010000*%
%ADD13C,0.120000*%
%ADD14C,0.200000*%
%ADD15C,0.254000*%
%ADD16C,0.150000*%
G04 APERTURE END LIST*
D10*
D11*
X111571429Y-105403571D02*
X111571429Y-103903571D01*
X111571429Y-104617857D02*
X112428572Y-104617857D01*
X112428572Y-105403571D02*
X112428572Y-103903571D01*
X112464286Y-107953571D02*
X111750000Y-107953571D01*
X111750000Y-106453571D01*
X112357143Y-100250000D02*
X112214286Y-100178571D01*
X112000000Y-100178571D01*
X111785715Y-100250000D01*
X111642857Y-100392857D01*
X111571429Y-100535714D01*
X111500000Y-100821429D01*
X111500000Y-101035714D01*
X111571429Y-101321429D01*
X111642857Y-101464286D01*
X111785715Y-101607143D01*
X112000000Y-101678571D01*
X112142857Y-101678571D01*
X112357143Y-101607143D01*
X112428572Y-101535714D01*
X112428572Y-101035714D01*
X112142857Y-101035714D01*
X113071429Y-101678571D02*
X113071429Y-100178571D01*
X113928572Y-101678571D01*
X113928572Y-100178571D01*
X114642858Y-101678571D02*
X114642858Y-100178571D01*
X115000001Y-100178571D01*
X115214286Y-100250000D01*
X115357144Y-100392857D01*
X115428572Y-100535714D01*
X115500001Y-100821429D01*
X115500001Y-101035714D01*
X115428572Y-101321429D01*
X115357144Y-101464286D01*
X115214286Y-101607143D01*
X115000001Y-101678571D01*
X114642858Y-101678571D01*
X111428572Y-88853571D02*
X112285715Y-88853571D01*
X111857144Y-90353571D02*
X111857144Y-88853571D01*
X112642858Y-88853571D02*
X113642858Y-90353571D01*
X113642858Y-88853571D02*
X112642858Y-90353571D01*
X114214286Y-89782143D02*
X115357143Y-89782143D01*
X114785714Y-90353571D02*
X114785714Y-89210714D01*
X111428572Y-91403571D02*
X112285715Y-91403571D01*
X111857144Y-92903571D02*
X111857144Y-91403571D01*
X112642858Y-91403571D02*
X113642858Y-92903571D01*
X113642858Y-91403571D02*
X112642858Y-92903571D01*
X114214286Y-92332143D02*
X115357143Y-92332143D01*
X112321429Y-95453571D02*
X111821429Y-94739286D01*
X111464286Y-95453571D02*
X111464286Y-93953571D01*
X112035714Y-93953571D01*
X112178572Y-94025000D01*
X112250000Y-94096429D01*
X112321429Y-94239286D01*
X112321429Y-94453571D01*
X112250000Y-94596429D01*
X112178572Y-94667857D01*
X112035714Y-94739286D01*
X111464286Y-94739286D01*
X112821429Y-93953571D02*
X113821429Y-95453571D01*
X113821429Y-93953571D02*
X112821429Y-95453571D01*
X114392857Y-94882143D02*
X115535714Y-94882143D01*
X114964285Y-95453571D02*
X114964285Y-94310714D01*
X112321429Y-98003571D02*
X111821429Y-97289286D01*
X111464286Y-98003571D02*
X111464286Y-96503571D01*
X112035714Y-96503571D01*
X112178572Y-96575000D01*
X112250000Y-96646429D01*
X112321429Y-96789286D01*
X112321429Y-97003571D01*
X112250000Y-97146429D01*
X112178572Y-97217857D01*
X112035714Y-97289286D01*
X111464286Y-97289286D01*
X112821429Y-96503571D02*
X113821429Y-98003571D01*
X113821429Y-96503571D02*
X112821429Y-98003571D01*
X114392857Y-97432143D02*
X115535714Y-97432143D01*
D12*
G36*
X126378629Y-103769066D02*
X126418111Y-103769467D01*
X126533800Y-103772259D01*
X126630689Y-103780550D01*
X126712081Y-103795232D01*
X126781277Y-103817193D01*
X126841580Y-103847322D01*
X126896292Y-103886510D01*
X126915833Y-103903532D01*
X126948250Y-103943363D01*
X126977480Y-103997413D01*
X127000009Y-104057323D01*
X127012321Y-104114739D01*
X127013600Y-104135956D01*
X127005583Y-104194769D01*
X126984101Y-104259013D01*
X126953001Y-104319821D01*
X126916134Y-104368330D01*
X126910146Y-104374182D01*
X126859421Y-104415321D01*
X126803875Y-104447435D01*
X126740304Y-104471365D01*
X126665506Y-104487953D01*
X126576278Y-104498041D01*
X126469418Y-104502469D01*
X126420472Y-104502845D01*
X126358238Y-104502545D01*
X126314472Y-104501292D01*
X126285069Y-104498554D01*
X126265921Y-104493801D01*
X126252923Y-104486501D01*
X126245955Y-104480267D01*
X126239374Y-104472694D01*
X126234212Y-104462924D01*
X126230297Y-104448340D01*
X126227457Y-104426326D01*
X126225520Y-104394264D01*
X126224316Y-104349536D01*
X126223672Y-104289526D01*
X126223417Y-104211617D01*
X126223378Y-104135956D01*
X126223130Y-104035041D01*
X126223183Y-103954427D01*
X126224143Y-103915822D01*
X126370133Y-103915822D01*
X126370133Y-104356089D01*
X126463266Y-104356004D01*
X126519307Y-104354396D01*
X126578001Y-104350256D01*
X126626972Y-104344464D01*
X126628462Y-104344226D01*
X126707608Y-104325090D01*
X126768998Y-104295287D01*
X126815695Y-104252878D01*
X126845365Y-104206961D01*
X126863647Y-104156026D01*
X126862229Y-104108200D01*
X126841012Y-104056933D01*
X126799511Y-104003899D01*
X126742002Y-103964600D01*
X126667250Y-103938331D01*
X126617292Y-103929035D01*
X126560584Y-103922507D01*
X126500481Y-103917782D01*
X126449361Y-103915817D01*
X126446333Y-103915808D01*
X126370133Y-103915822D01*
X126224143Y-103915822D01*
X126224740Y-103891851D01*
X126229002Y-103845055D01*
X126237170Y-103811778D01*
X126250444Y-103789759D01*
X126270026Y-103776739D01*
X126297117Y-103770457D01*
X126332918Y-103768653D01*
X126378629Y-103769066D01*
X126378629Y-103769066D01*
G37*
X126378629Y-103769066D02*
X126418111Y-103769467D01*
X126533800Y-103772259D01*
X126630689Y-103780550D01*
X126712081Y-103795232D01*
X126781277Y-103817193D01*
X126841580Y-103847322D01*
X126896292Y-103886510D01*
X126915833Y-103903532D01*
X126948250Y-103943363D01*
X126977480Y-103997413D01*
X127000009Y-104057323D01*
X127012321Y-104114739D01*
X127013600Y-104135956D01*
X127005583Y-104194769D01*
X126984101Y-104259013D01*
X126953001Y-104319821D01*
X126916134Y-104368330D01*
X126910146Y-104374182D01*
X126859421Y-104415321D01*
X126803875Y-104447435D01*
X126740304Y-104471365D01*
X126665506Y-104487953D01*
X126576278Y-104498041D01*
X126469418Y-104502469D01*
X126420472Y-104502845D01*
X126358238Y-104502545D01*
X126314472Y-104501292D01*
X126285069Y-104498554D01*
X126265921Y-104493801D01*
X126252923Y-104486501D01*
X126245955Y-104480267D01*
X126239374Y-104472694D01*
X126234212Y-104462924D01*
X126230297Y-104448340D01*
X126227457Y-104426326D01*
X126225520Y-104394264D01*
X126224316Y-104349536D01*
X126223672Y-104289526D01*
X126223417Y-104211617D01*
X126223378Y-104135956D01*
X126223130Y-104035041D01*
X126223183Y-103954427D01*
X126224143Y-103915822D01*
X126370133Y-103915822D01*
X126370133Y-104356089D01*
X126463266Y-104356004D01*
X126519307Y-104354396D01*
X126578001Y-104350256D01*
X126626972Y-104344464D01*
X126628462Y-104344226D01*
X126707608Y-104325090D01*
X126768998Y-104295287D01*
X126815695Y-104252878D01*
X126845365Y-104206961D01*
X126863647Y-104156026D01*
X126862229Y-104108200D01*
X126841012Y-104056933D01*
X126799511Y-104003899D01*
X126742002Y-103964600D01*
X126667250Y-103938331D01*
X126617292Y-103929035D01*
X126560584Y-103922507D01*
X126500481Y-103917782D01*
X126449361Y-103915817D01*
X126446333Y-103915808D01*
X126370133Y-103915822D01*
X126224143Y-103915822D01*
X126224740Y-103891851D01*
X126229002Y-103845055D01*
X126237170Y-103811778D01*
X126250444Y-103789759D01*
X126270026Y-103776739D01*
X126297117Y-103770457D01*
X126332918Y-103768653D01*
X126378629Y-103769066D01*
G36*
X127787206Y-103769146D02*
X127856614Y-103769518D01*
X127909003Y-103770385D01*
X127947153Y-103771946D01*
X127973841Y-103774403D01*
X127991847Y-103777957D01*
X128003951Y-103782810D01*
X128012931Y-103789161D01*
X128016182Y-103792084D01*
X128035957Y-103823142D01*
X128039518Y-103858828D01*
X128026509Y-103890510D01*
X128020494Y-103896913D01*
X128010765Y-103903121D01*
X127995099Y-103907910D01*
X127970592Y-103911514D01*
X127934339Y-103914164D01*
X127883435Y-103916095D01*
X127814974Y-103917539D01*
X127752383Y-103918418D01*
X127504666Y-103921467D01*
X127501281Y-103986378D01*
X127497895Y-104051289D01*
X127666042Y-104051289D01*
X127739041Y-104051919D01*
X127792483Y-104054553D01*
X127829372Y-104060309D01*
X127852712Y-104070304D01*
X127865506Y-104085656D01*
X127870758Y-104107482D01*
X127871555Y-104127738D01*
X127869077Y-104152592D01*
X127859723Y-104170906D01*
X127840617Y-104183637D01*
X127808882Y-104191741D01*
X127761641Y-104196176D01*
X127696017Y-104197899D01*
X127660199Y-104198045D01*
X127499022Y-104198045D01*
X127499022Y-104356089D01*
X127747378Y-104356089D01*
X127828787Y-104356202D01*
X127890658Y-104356712D01*
X127936032Y-104357870D01*
X127967946Y-104359930D01*
X127989441Y-104363146D01*
X128003557Y-104367772D01*
X128013332Y-104374059D01*
X128018311Y-104378667D01*
X128035390Y-104405560D01*
X128040889Y-104429467D01*
X128033037Y-104458667D01*
X128018311Y-104480267D01*
X128010454Y-104487066D01*
X128000312Y-104492346D01*
X127985156Y-104496298D01*
X127962259Y-104499113D01*
X127928891Y-104500982D01*
X127882325Y-104502098D01*
X127819833Y-104502651D01*
X127738686Y-104502833D01*
X127696578Y-104502845D01*
X127606402Y-104502765D01*
X127536076Y-104502398D01*
X127482871Y-104501552D01*
X127444060Y-104500036D01*
X127416913Y-104497659D01*
X127398702Y-104494229D01*
X127386700Y-104489554D01*
X127378178Y-104483444D01*
X127374844Y-104480267D01*
X127368245Y-104472670D01*
X127363073Y-104462870D01*
X127359154Y-104448239D01*
X127356316Y-104426152D01*
X127354385Y-104393982D01*
X127353188Y-104349103D01*
X127352552Y-104288889D01*
X127352303Y-104210713D01*
X127352266Y-104137923D01*
X127352300Y-104044707D01*
X127352535Y-103971431D01*
X127353170Y-103915458D01*
X127354406Y-103874151D01*
X127356444Y-103844872D01*
X127359483Y-103824984D01*
X127363723Y-103811850D01*
X127369365Y-103802832D01*
X127376609Y-103795293D01*
X127378394Y-103793612D01*
X127387055Y-103786172D01*
X127397118Y-103780409D01*
X127411375Y-103776112D01*
X127432617Y-103773064D01*
X127463636Y-103771051D01*
X127507223Y-103769860D01*
X127566169Y-103769275D01*
X127643266Y-103769083D01*
X127697999Y-103769067D01*
X127787206Y-103769146D01*
X127787206Y-103769146D01*
G37*
X127787206Y-103769146D02*
X127856614Y-103769518D01*
X127909003Y-103770385D01*
X127947153Y-103771946D01*
X127973841Y-103774403D01*
X127991847Y-103777957D01*
X128003951Y-103782810D01*
X128012931Y-103789161D01*
X128016182Y-103792084D01*
X128035957Y-103823142D01*
X128039518Y-103858828D01*
X128026509Y-103890510D01*
X128020494Y-103896913D01*
X128010765Y-103903121D01*
X127995099Y-103907910D01*
X127970592Y-103911514D01*
X127934339Y-103914164D01*
X127883435Y-103916095D01*
X127814974Y-103917539D01*
X127752383Y-103918418D01*
X127504666Y-103921467D01*
X127501281Y-103986378D01*
X127497895Y-104051289D01*
X127666042Y-104051289D01*
X127739041Y-104051919D01*
X127792483Y-104054553D01*
X127829372Y-104060309D01*
X127852712Y-104070304D01*
X127865506Y-104085656D01*
X127870758Y-104107482D01*
X127871555Y-104127738D01*
X127869077Y-104152592D01*
X127859723Y-104170906D01*
X127840617Y-104183637D01*
X127808882Y-104191741D01*
X127761641Y-104196176D01*
X127696017Y-104197899D01*
X127660199Y-104198045D01*
X127499022Y-104198045D01*
X127499022Y-104356089D01*
X127747378Y-104356089D01*
X127828787Y-104356202D01*
X127890658Y-104356712D01*
X127936032Y-104357870D01*
X127967946Y-104359930D01*
X127989441Y-104363146D01*
X128003557Y-104367772D01*
X128013332Y-104374059D01*
X128018311Y-104378667D01*
X128035390Y-104405560D01*
X128040889Y-104429467D01*
X128033037Y-104458667D01*
X128018311Y-104480267D01*
X128010454Y-104487066D01*
X128000312Y-104492346D01*
X127985156Y-104496298D01*
X127962259Y-104499113D01*
X127928891Y-104500982D01*
X127882325Y-104502098D01*
X127819833Y-104502651D01*
X127738686Y-104502833D01*
X127696578Y-104502845D01*
X127606402Y-104502765D01*
X127536076Y-104502398D01*
X127482871Y-104501552D01*
X127444060Y-104500036D01*
X127416913Y-104497659D01*
X127398702Y-104494229D01*
X127386700Y-104489554D01*
X127378178Y-104483444D01*
X127374844Y-104480267D01*
X127368245Y-104472670D01*
X127363073Y-104462870D01*
X127359154Y-104448239D01*
X127356316Y-104426152D01*
X127354385Y-104393982D01*
X127353188Y-104349103D01*
X127352552Y-104288889D01*
X127352303Y-104210713D01*
X127352266Y-104137923D01*
X127352300Y-104044707D01*
X127352535Y-103971431D01*
X127353170Y-103915458D01*
X127354406Y-103874151D01*
X127356444Y-103844872D01*
X127359483Y-103824984D01*
X127363723Y-103811850D01*
X127369365Y-103802832D01*
X127376609Y-103795293D01*
X127378394Y-103793612D01*
X127387055Y-103786172D01*
X127397118Y-103780409D01*
X127411375Y-103776112D01*
X127432617Y-103773064D01*
X127463636Y-103771051D01*
X127507223Y-103769860D01*
X127566169Y-103769275D01*
X127643266Y-103769083D01*
X127697999Y-103769067D01*
X127787206Y-103769146D01*
G36*
X128808297Y-103770351D02*
X128883112Y-103775581D01*
X128952694Y-103783750D01*
X129012998Y-103794550D01*
X129059980Y-103807673D01*
X129089594Y-103822813D01*
X129094140Y-103827269D01*
X129109946Y-103861850D01*
X129105153Y-103897351D01*
X129080636Y-103927725D01*
X129079466Y-103928596D01*
X129065046Y-103937954D01*
X129049992Y-103942876D01*
X129028995Y-103943473D01*
X128996743Y-103939861D01*
X128947927Y-103932154D01*
X128944000Y-103931505D01*
X128871261Y-103922569D01*
X128792783Y-103918161D01*
X128714073Y-103918119D01*
X128640639Y-103922279D01*
X128577989Y-103930479D01*
X128531630Y-103942557D01*
X128528584Y-103943771D01*
X128494952Y-103962615D01*
X128483136Y-103981685D01*
X128492386Y-104000439D01*
X128521953Y-104018337D01*
X128571089Y-104034837D01*
X128639043Y-104049396D01*
X128684355Y-104056406D01*
X128778544Y-104069889D01*
X128853456Y-104082214D01*
X128912283Y-104094449D01*
X128958215Y-104107661D01*
X128994445Y-104122917D01*
X129024162Y-104141285D01*
X129050558Y-104163831D01*
X129071770Y-104185971D01*
X129096935Y-104216819D01*
X129109319Y-104243345D01*
X129113192Y-104276026D01*
X129113333Y-104287995D01*
X129110424Y-104327712D01*
X129098798Y-104357259D01*
X129078677Y-104383486D01*
X129037784Y-104423576D01*
X128992183Y-104454149D01*
X128938487Y-104476203D01*
X128873308Y-104490735D01*
X128793256Y-104498741D01*
X128694943Y-104501218D01*
X128678711Y-104501177D01*
X128613151Y-104499818D01*
X128548134Y-104496730D01*
X128490748Y-104492356D01*
X128448078Y-104487140D01*
X128444628Y-104486541D01*
X128402204Y-104476491D01*
X128366220Y-104463796D01*
X128345850Y-104452190D01*
X128326893Y-104421572D01*
X128325573Y-104385918D01*
X128341915Y-104354144D01*
X128345571Y-104350551D01*
X128360685Y-104339876D01*
X128379585Y-104335276D01*
X128408838Y-104336059D01*
X128444349Y-104340127D01*
X128484030Y-104343762D01*
X128539655Y-104346828D01*
X128604594Y-104349053D01*
X128672215Y-104350164D01*
X128690000Y-104350237D01*
X128757872Y-104349964D01*
X128807546Y-104348646D01*
X128843390Y-104345827D01*
X128869776Y-104341050D01*
X128891074Y-104333857D01*
X128903874Y-104327867D01*
X128932000Y-104311233D01*
X128949932Y-104296168D01*
X128952553Y-104291897D01*
X128947024Y-104274263D01*
X128920740Y-104257192D01*
X128875522Y-104241458D01*
X128813192Y-104227838D01*
X128794829Y-104224804D01*
X128698910Y-104209738D01*
X128622359Y-104197146D01*
X128562220Y-104186111D01*
X128515540Y-104175720D01*
X128479363Y-104165056D01*
X128450735Y-104153205D01*
X128426702Y-104139251D01*
X128404308Y-104122281D01*
X128380598Y-104101378D01*
X128372620Y-104094049D01*
X128344647Y-104066699D01*
X128329840Y-104045029D01*
X128324048Y-104020232D01*
X128323111Y-103988983D01*
X128333425Y-103927705D01*
X128364248Y-103875640D01*
X128415405Y-103832958D01*
X128486717Y-103799825D01*
X128537600Y-103784964D01*
X128592900Y-103775366D01*
X128659147Y-103769936D01*
X128732294Y-103768367D01*
X128808297Y-103770351D01*
X128808297Y-103770351D01*
G37*
X128808297Y-103770351D02*
X128883112Y-103775581D01*
X128952694Y-103783750D01*
X129012998Y-103794550D01*
X129059980Y-103807673D01*
X129089594Y-103822813D01*
X129094140Y-103827269D01*
X129109946Y-103861850D01*
X129105153Y-103897351D01*
X129080636Y-103927725D01*
X129079466Y-103928596D01*
X129065046Y-103937954D01*
X129049992Y-103942876D01*
X129028995Y-103943473D01*
X128996743Y-103939861D01*
X128947927Y-103932154D01*
X128944000Y-103931505D01*
X128871261Y-103922569D01*
X128792783Y-103918161D01*
X128714073Y-103918119D01*
X128640639Y-103922279D01*
X128577989Y-103930479D01*
X128531630Y-103942557D01*
X128528584Y-103943771D01*
X128494952Y-103962615D01*
X128483136Y-103981685D01*
X128492386Y-104000439D01*
X128521953Y-104018337D01*
X128571089Y-104034837D01*
X128639043Y-104049396D01*
X128684355Y-104056406D01*
X128778544Y-104069889D01*
X128853456Y-104082214D01*
X128912283Y-104094449D01*
X128958215Y-104107661D01*
X128994445Y-104122917D01*
X129024162Y-104141285D01*
X129050558Y-104163831D01*
X129071770Y-104185971D01*
X129096935Y-104216819D01*
X129109319Y-104243345D01*
X129113192Y-104276026D01*
X129113333Y-104287995D01*
X129110424Y-104327712D01*
X129098798Y-104357259D01*
X129078677Y-104383486D01*
X129037784Y-104423576D01*
X128992183Y-104454149D01*
X128938487Y-104476203D01*
X128873308Y-104490735D01*
X128793256Y-104498741D01*
X128694943Y-104501218D01*
X128678711Y-104501177D01*
X128613151Y-104499818D01*
X128548134Y-104496730D01*
X128490748Y-104492356D01*
X128448078Y-104487140D01*
X128444628Y-104486541D01*
X128402204Y-104476491D01*
X128366220Y-104463796D01*
X128345850Y-104452190D01*
X128326893Y-104421572D01*
X128325573Y-104385918D01*
X128341915Y-104354144D01*
X128345571Y-104350551D01*
X128360685Y-104339876D01*
X128379585Y-104335276D01*
X128408838Y-104336059D01*
X128444349Y-104340127D01*
X128484030Y-104343762D01*
X128539655Y-104346828D01*
X128604594Y-104349053D01*
X128672215Y-104350164D01*
X128690000Y-104350237D01*
X128757872Y-104349964D01*
X128807546Y-104348646D01*
X128843390Y-104345827D01*
X128869776Y-104341050D01*
X128891074Y-104333857D01*
X128903874Y-104327867D01*
X128932000Y-104311233D01*
X128949932Y-104296168D01*
X128952553Y-104291897D01*
X128947024Y-104274263D01*
X128920740Y-104257192D01*
X128875522Y-104241458D01*
X128813192Y-104227838D01*
X128794829Y-104224804D01*
X128698910Y-104209738D01*
X128622359Y-104197146D01*
X128562220Y-104186111D01*
X128515540Y-104175720D01*
X128479363Y-104165056D01*
X128450735Y-104153205D01*
X128426702Y-104139251D01*
X128404308Y-104122281D01*
X128380598Y-104101378D01*
X128372620Y-104094049D01*
X128344647Y-104066699D01*
X128329840Y-104045029D01*
X128324048Y-104020232D01*
X128323111Y-103988983D01*
X128333425Y-103927705D01*
X128364248Y-103875640D01*
X128415405Y-103832958D01*
X128486717Y-103799825D01*
X128537600Y-103784964D01*
X128592900Y-103775366D01*
X128659147Y-103769936D01*
X128732294Y-103768367D01*
X128808297Y-103770351D01*
G36*
X129576178Y-103791645D02*
X129582758Y-103799218D01*
X129587921Y-103808987D01*
X129591836Y-103823571D01*
X129594676Y-103845585D01*
X129596613Y-103877648D01*
X129597817Y-103922375D01*
X129598461Y-103982385D01*
X129598716Y-104060294D01*
X129598755Y-104135956D01*
X129598686Y-104229802D01*
X129598362Y-104303689D01*
X129597614Y-104360232D01*
X129596268Y-104402049D01*
X129594154Y-104431757D01*
X129591100Y-104451973D01*
X129586934Y-104465314D01*
X129581484Y-104474398D01*
X129576178Y-104480267D01*
X129543174Y-104499947D01*
X129508009Y-104498181D01*
X129476545Y-104476717D01*
X129469316Y-104468337D01*
X129463666Y-104458614D01*
X129459401Y-104444861D01*
X129456327Y-104424389D01*
X129454248Y-104394512D01*
X129452970Y-104352541D01*
X129452299Y-104295789D01*
X129452041Y-104221567D01*
X129452000Y-104137537D01*
X129452000Y-103824485D01*
X129479709Y-103796776D01*
X129513863Y-103773463D01*
X129546994Y-103772623D01*
X129576178Y-103791645D01*
X129576178Y-103791645D01*
G37*
X129576178Y-103791645D02*
X129582758Y-103799218D01*
X129587921Y-103808987D01*
X129591836Y-103823571D01*
X129594676Y-103845585D01*
X129596613Y-103877648D01*
X129597817Y-103922375D01*
X129598461Y-103982385D01*
X129598716Y-104060294D01*
X129598755Y-104135956D01*
X129598686Y-104229802D01*
X129598362Y-104303689D01*
X129597614Y-104360232D01*
X129596268Y-104402049D01*
X129594154Y-104431757D01*
X129591100Y-104451973D01*
X129586934Y-104465314D01*
X129581484Y-104474398D01*
X129576178Y-104480267D01*
X129543174Y-104499947D01*
X129508009Y-104498181D01*
X129476545Y-104476717D01*
X129469316Y-104468337D01*
X129463666Y-104458614D01*
X129459401Y-104444861D01*
X129456327Y-104424389D01*
X129454248Y-104394512D01*
X129452970Y-104352541D01*
X129452299Y-104295789D01*
X129452041Y-104221567D01*
X129452000Y-104137537D01*
X129452000Y-103824485D01*
X129479709Y-103796776D01*
X129513863Y-103773463D01*
X129546994Y-103772623D01*
X129576178Y-103791645D01*
G36*
X130549919Y-103774599D02*
X130618435Y-103786095D01*
X130671057Y-103803967D01*
X130705292Y-103827499D01*
X130714621Y-103840924D01*
X130724107Y-103872148D01*
X130717723Y-103900395D01*
X130697570Y-103927182D01*
X130666255Y-103939713D01*
X130620817Y-103938696D01*
X130585674Y-103931906D01*
X130507581Y-103918971D01*
X130427774Y-103917742D01*
X130338445Y-103928241D01*
X130313771Y-103932690D01*
X130230709Y-103956108D01*
X130165727Y-103990945D01*
X130119539Y-104036604D01*
X130092855Y-104092494D01*
X130087337Y-104121388D01*
X130090949Y-104180012D01*
X130114271Y-104231879D01*
X130155176Y-104275978D01*
X130211541Y-104311299D01*
X130281240Y-104336829D01*
X130362148Y-104351559D01*
X130452140Y-104354478D01*
X130549090Y-104344575D01*
X130554564Y-104343641D01*
X130593125Y-104336459D01*
X130614506Y-104329521D01*
X130623773Y-104319227D01*
X130625994Y-104301976D01*
X130626044Y-104292841D01*
X130626044Y-104254489D01*
X130557569Y-104254489D01*
X130497100Y-104250347D01*
X130455835Y-104237147D01*
X130431825Y-104213730D01*
X130423123Y-104178936D01*
X130423017Y-104174394D01*
X130428108Y-104144654D01*
X130445567Y-104123419D01*
X130478061Y-104109366D01*
X130528257Y-104101173D01*
X130576877Y-104098161D01*
X130647544Y-104096433D01*
X130698802Y-104099070D01*
X130733761Y-104108800D01*
X130755530Y-104128353D01*
X130767220Y-104160456D01*
X130771940Y-104207838D01*
X130772800Y-104270071D01*
X130771391Y-104339535D01*
X130767152Y-104386786D01*
X130760064Y-104412012D01*
X130758689Y-104413988D01*
X130719772Y-104445508D01*
X130662714Y-104470470D01*
X130591131Y-104488340D01*
X130508642Y-104498586D01*
X130418861Y-104500673D01*
X130325408Y-104494068D01*
X130270444Y-104485956D01*
X130184234Y-104461554D01*
X130104108Y-104421662D01*
X130037023Y-104369887D01*
X130026827Y-104359539D01*
X129993698Y-104316035D01*
X129963806Y-104262118D01*
X129940643Y-104205592D01*
X129927702Y-104154259D01*
X129926142Y-104134544D01*
X129932782Y-104093419D01*
X129950432Y-104042252D01*
X129975703Y-103988394D01*
X130005211Y-103939195D01*
X130031281Y-103906334D01*
X130092235Y-103857452D01*
X130171031Y-103818545D01*
X130264843Y-103790494D01*
X130370850Y-103774179D01*
X130468000Y-103770192D01*
X130549919Y-103774599D01*
X130549919Y-103774599D01*
G37*
X130549919Y-103774599D02*
X130618435Y-103786095D01*
X130671057Y-103803967D01*
X130705292Y-103827499D01*
X130714621Y-103840924D01*
X130724107Y-103872148D01*
X130717723Y-103900395D01*
X130697570Y-103927182D01*
X130666255Y-103939713D01*
X130620817Y-103938696D01*
X130585674Y-103931906D01*
X130507581Y-103918971D01*
X130427774Y-103917742D01*
X130338445Y-103928241D01*
X130313771Y-103932690D01*
X130230709Y-103956108D01*
X130165727Y-103990945D01*
X130119539Y-104036604D01*
X130092855Y-104092494D01*
X130087337Y-104121388D01*
X130090949Y-104180012D01*
X130114271Y-104231879D01*
X130155176Y-104275978D01*
X130211541Y-104311299D01*
X130281240Y-104336829D01*
X130362148Y-104351559D01*
X130452140Y-104354478D01*
X130549090Y-104344575D01*
X130554564Y-104343641D01*
X130593125Y-104336459D01*
X130614506Y-104329521D01*
X130623773Y-104319227D01*
X130625994Y-104301976D01*
X130626044Y-104292841D01*
X130626044Y-104254489D01*
X130557569Y-104254489D01*
X130497100Y-104250347D01*
X130455835Y-104237147D01*
X130431825Y-104213730D01*
X130423123Y-104178936D01*
X130423017Y-104174394D01*
X130428108Y-104144654D01*
X130445567Y-104123419D01*
X130478061Y-104109366D01*
X130528257Y-104101173D01*
X130576877Y-104098161D01*
X130647544Y-104096433D01*
X130698802Y-104099070D01*
X130733761Y-104108800D01*
X130755530Y-104128353D01*
X130767220Y-104160456D01*
X130771940Y-104207838D01*
X130772800Y-104270071D01*
X130771391Y-104339535D01*
X130767152Y-104386786D01*
X130760064Y-104412012D01*
X130758689Y-104413988D01*
X130719772Y-104445508D01*
X130662714Y-104470470D01*
X130591131Y-104488340D01*
X130508642Y-104498586D01*
X130418861Y-104500673D01*
X130325408Y-104494068D01*
X130270444Y-104485956D01*
X130184234Y-104461554D01*
X130104108Y-104421662D01*
X130037023Y-104369887D01*
X130026827Y-104359539D01*
X129993698Y-104316035D01*
X129963806Y-104262118D01*
X129940643Y-104205592D01*
X129927702Y-104154259D01*
X129926142Y-104134544D01*
X129932782Y-104093419D01*
X129950432Y-104042252D01*
X129975703Y-103988394D01*
X130005211Y-103939195D01*
X130031281Y-103906334D01*
X130092235Y-103857452D01*
X130171031Y-103818545D01*
X130264843Y-103790494D01*
X130370850Y-103774179D01*
X130468000Y-103770192D01*
X130549919Y-103774599D01*
G36*
X131199886Y-103773448D02*
X131223452Y-103787273D01*
X131254265Y-103809881D01*
X131293922Y-103842338D01*
X131344020Y-103885708D01*
X131406157Y-103941058D01*
X131481928Y-104009451D01*
X131568666Y-104088084D01*
X131749289Y-104251878D01*
X131754933Y-104032029D01*
X131756971Y-103956351D01*
X131758937Y-103899994D01*
X131761266Y-103859706D01*
X131764394Y-103832235D01*
X131768755Y-103814329D01*
X131774784Y-103802737D01*
X131782916Y-103794208D01*
X131787228Y-103790623D01*
X131821759Y-103771670D01*
X131854617Y-103774441D01*
X131880682Y-103790633D01*
X131907333Y-103812199D01*
X131910648Y-104127151D01*
X131911565Y-104219779D01*
X131912032Y-104292544D01*
X131911887Y-104348161D01*
X131910968Y-104389342D01*
X131909113Y-104418803D01*
X131906161Y-104439255D01*
X131901950Y-104453413D01*
X131896318Y-104463991D01*
X131890073Y-104472474D01*
X131876561Y-104488207D01*
X131863117Y-104498636D01*
X131847876Y-104502639D01*
X131828974Y-104499094D01*
X131804545Y-104486879D01*
X131772727Y-104464871D01*
X131731652Y-104431949D01*
X131679458Y-104386991D01*
X131614278Y-104328875D01*
X131540444Y-104262099D01*
X131275155Y-104021458D01*
X131269511Y-104240589D01*
X131267469Y-104316128D01*
X131265498Y-104372354D01*
X131263161Y-104412524D01*
X131260019Y-104439896D01*
X131255636Y-104457728D01*
X131249576Y-104469279D01*
X131241400Y-104477807D01*
X131237216Y-104481282D01*
X131200235Y-104500372D01*
X131165292Y-104497493D01*
X131134864Y-104473100D01*
X131127903Y-104463286D01*
X131122477Y-104451826D01*
X131118397Y-104435968D01*
X131115471Y-104412963D01*
X131113508Y-104380062D01*
X131112317Y-104334516D01*
X131111708Y-104273573D01*
X131111489Y-104194486D01*
X131111466Y-104135956D01*
X131111540Y-104044407D01*
X131111887Y-103972687D01*
X131112699Y-103918045D01*
X131114167Y-103877732D01*
X131116481Y-103848998D01*
X131119833Y-103829093D01*
X131124412Y-103815268D01*
X131130411Y-103804772D01*
X131134864Y-103798811D01*
X131146150Y-103784691D01*
X131156699Y-103774029D01*
X131168107Y-103767892D01*
X131181970Y-103767343D01*
X131199886Y-103773448D01*
X131199886Y-103773448D01*
G37*
X131199886Y-103773448D02*
X131223452Y-103787273D01*
X131254265Y-103809881D01*
X131293922Y-103842338D01*
X131344020Y-103885708D01*
X131406157Y-103941058D01*
X131481928Y-104009451D01*
X131568666Y-104088084D01*
X131749289Y-104251878D01*
X131754933Y-104032029D01*
X131756971Y-103956351D01*
X131758937Y-103899994D01*
X131761266Y-103859706D01*
X131764394Y-103832235D01*
X131768755Y-103814329D01*
X131774784Y-103802737D01*
X131782916Y-103794208D01*
X131787228Y-103790623D01*
X131821759Y-103771670D01*
X131854617Y-103774441D01*
X131880682Y-103790633D01*
X131907333Y-103812199D01*
X131910648Y-104127151D01*
X131911565Y-104219779D01*
X131912032Y-104292544D01*
X131911887Y-104348161D01*
X131910968Y-104389342D01*
X131909113Y-104418803D01*
X131906161Y-104439255D01*
X131901950Y-104453413D01*
X131896318Y-104463991D01*
X131890073Y-104472474D01*
X131876561Y-104488207D01*
X131863117Y-104498636D01*
X131847876Y-104502639D01*
X131828974Y-104499094D01*
X131804545Y-104486879D01*
X131772727Y-104464871D01*
X131731652Y-104431949D01*
X131679458Y-104386991D01*
X131614278Y-104328875D01*
X131540444Y-104262099D01*
X131275155Y-104021458D01*
X131269511Y-104240589D01*
X131267469Y-104316128D01*
X131265498Y-104372354D01*
X131263161Y-104412524D01*
X131260019Y-104439896D01*
X131255636Y-104457728D01*
X131249576Y-104469279D01*
X131241400Y-104477807D01*
X131237216Y-104481282D01*
X131200235Y-104500372D01*
X131165292Y-104497493D01*
X131134864Y-104473100D01*
X131127903Y-104463286D01*
X131122477Y-104451826D01*
X131118397Y-104435968D01*
X131115471Y-104412963D01*
X131113508Y-104380062D01*
X131112317Y-104334516D01*
X131111708Y-104273573D01*
X131111489Y-104194486D01*
X131111466Y-104135956D01*
X131111540Y-104044407D01*
X131111887Y-103972687D01*
X131112699Y-103918045D01*
X131114167Y-103877732D01*
X131116481Y-103848998D01*
X131119833Y-103829093D01*
X131124412Y-103815268D01*
X131130411Y-103804772D01*
X131134864Y-103798811D01*
X131146150Y-103784691D01*
X131156699Y-103774029D01*
X131168107Y-103767892D01*
X131181970Y-103767343D01*
X131199886Y-103773448D01*
G36*
X132730343Y-103769260D02*
X132806701Y-103770174D01*
X132865217Y-103772311D01*
X132908255Y-103776175D01*
X132938183Y-103782267D01*
X132957368Y-103791090D01*
X132968176Y-103803146D01*
X132972973Y-103818939D01*
X132974127Y-103838970D01*
X132974133Y-103841335D01*
X132973131Y-103863992D01*
X132968396Y-103881503D01*
X132957333Y-103894574D01*
X132937348Y-103903913D01*
X132905846Y-103910227D01*
X132860232Y-103914222D01*
X132797913Y-103916606D01*
X132716293Y-103918086D01*
X132691277Y-103918414D01*
X132449200Y-103921467D01*
X132445814Y-103986378D01*
X132442429Y-104051289D01*
X132610576Y-104051289D01*
X132676266Y-104051531D01*
X132723172Y-104052556D01*
X132755083Y-104054811D01*
X132775791Y-104058742D01*
X132789084Y-104064798D01*
X132798755Y-104073424D01*
X132798817Y-104073493D01*
X132816356Y-104107112D01*
X132815722Y-104143448D01*
X132797314Y-104174423D01*
X132793671Y-104177607D01*
X132780741Y-104185812D01*
X132763024Y-104191521D01*
X132736570Y-104195162D01*
X132697432Y-104197167D01*
X132641662Y-104197964D01*
X132605994Y-104198045D01*
X132443555Y-104198045D01*
X132443555Y-104356089D01*
X132690161Y-104356089D01*
X132771580Y-104356231D01*
X132833410Y-104356814D01*
X132878637Y-104358068D01*
X132910248Y-104360227D01*
X132931231Y-104363523D01*
X132944573Y-104368189D01*
X132953261Y-104374457D01*
X132955450Y-104376733D01*
X132971614Y-104408280D01*
X132972797Y-104444168D01*
X132959536Y-104475285D01*
X132949043Y-104485271D01*
X132938129Y-104490769D01*
X132921217Y-104495022D01*
X132895633Y-104498180D01*
X132858701Y-104500392D01*
X132807746Y-104501806D01*
X132740094Y-104502572D01*
X132653069Y-104502838D01*
X132633394Y-104502845D01*
X132544911Y-104502787D01*
X132476227Y-104502467D01*
X132424564Y-104501667D01*
X132387145Y-104500167D01*
X132361190Y-104497749D01*
X132343922Y-104494194D01*
X132332562Y-104489282D01*
X132324332Y-104482795D01*
X132319817Y-104478138D01*
X132313021Y-104469889D01*
X132307712Y-104459669D01*
X132303706Y-104444800D01*
X132300821Y-104422602D01*
X132298874Y-104390393D01*
X132297681Y-104345496D01*
X132297061Y-104285228D01*
X132296829Y-104206911D01*
X132296800Y-104140994D01*
X132296871Y-104048628D01*
X132297208Y-103976117D01*
X132297998Y-103920737D01*
X132299426Y-103879765D01*
X132301679Y-103850478D01*
X132304943Y-103830153D01*
X132309404Y-103816066D01*
X132315248Y-103805495D01*
X132320197Y-103798811D01*
X132343594Y-103769067D01*
X132633774Y-103769067D01*
X132730343Y-103769260D01*
X132730343Y-103769260D01*
G37*
X132730343Y-103769260D02*
X132806701Y-103770174D01*
X132865217Y-103772311D01*
X132908255Y-103776175D01*
X132938183Y-103782267D01*
X132957368Y-103791090D01*
X132968176Y-103803146D01*
X132972973Y-103818939D01*
X132974127Y-103838970D01*
X132974133Y-103841335D01*
X132973131Y-103863992D01*
X132968396Y-103881503D01*
X132957333Y-103894574D01*
X132937348Y-103903913D01*
X132905846Y-103910227D01*
X132860232Y-103914222D01*
X132797913Y-103916606D01*
X132716293Y-103918086D01*
X132691277Y-103918414D01*
X132449200Y-103921467D01*
X132445814Y-103986378D01*
X132442429Y-104051289D01*
X132610576Y-104051289D01*
X132676266Y-104051531D01*
X132723172Y-104052556D01*
X132755083Y-104054811D01*
X132775791Y-104058742D01*
X132789084Y-104064798D01*
X132798755Y-104073424D01*
X132798817Y-104073493D01*
X132816356Y-104107112D01*
X132815722Y-104143448D01*
X132797314Y-104174423D01*
X132793671Y-104177607D01*
X132780741Y-104185812D01*
X132763024Y-104191521D01*
X132736570Y-104195162D01*
X132697432Y-104197167D01*
X132641662Y-104197964D01*
X132605994Y-104198045D01*
X132443555Y-104198045D01*
X132443555Y-104356089D01*
X132690161Y-104356089D01*
X132771580Y-104356231D01*
X132833410Y-104356814D01*
X132878637Y-104358068D01*
X132910248Y-104360227D01*
X132931231Y-104363523D01*
X132944573Y-104368189D01*
X132953261Y-104374457D01*
X132955450Y-104376733D01*
X132971614Y-104408280D01*
X132972797Y-104444168D01*
X132959536Y-104475285D01*
X132949043Y-104485271D01*
X132938129Y-104490769D01*
X132921217Y-104495022D01*
X132895633Y-104498180D01*
X132858701Y-104500392D01*
X132807746Y-104501806D01*
X132740094Y-104502572D01*
X132653069Y-104502838D01*
X132633394Y-104502845D01*
X132544911Y-104502787D01*
X132476227Y-104502467D01*
X132424564Y-104501667D01*
X132387145Y-104500167D01*
X132361190Y-104497749D01*
X132343922Y-104494194D01*
X132332562Y-104489282D01*
X132324332Y-104482795D01*
X132319817Y-104478138D01*
X132313021Y-104469889D01*
X132307712Y-104459669D01*
X132303706Y-104444800D01*
X132300821Y-104422602D01*
X132298874Y-104390393D01*
X132297681Y-104345496D01*
X132297061Y-104285228D01*
X132296829Y-104206911D01*
X132296800Y-104140994D01*
X132296871Y-104048628D01*
X132297208Y-103976117D01*
X132297998Y-103920737D01*
X132299426Y-103879765D01*
X132301679Y-103850478D01*
X132304943Y-103830153D01*
X132309404Y-103816066D01*
X132315248Y-103805495D01*
X132320197Y-103798811D01*
X132343594Y-103769067D01*
X132633774Y-103769067D01*
X132730343Y-103769260D01*
G36*
X133518309Y-103769275D02*
X133647288Y-103773636D01*
X133756991Y-103786861D01*
X133849226Y-103809741D01*
X133925802Y-103843070D01*
X133988527Y-103887638D01*
X134039212Y-103944236D01*
X134079663Y-104013658D01*
X134080459Y-104015351D01*
X134104601Y-104077483D01*
X134113203Y-104132509D01*
X134106231Y-104187887D01*
X134083654Y-104251073D01*
X134079372Y-104260689D01*
X134050172Y-104316966D01*
X134017356Y-104360451D01*
X133975002Y-104397417D01*
X133917190Y-104434135D01*
X133913831Y-104436052D01*
X133863504Y-104460227D01*
X133806621Y-104478282D01*
X133739527Y-104490839D01*
X133658565Y-104498522D01*
X133560082Y-104501953D01*
X133525286Y-104502251D01*
X133359594Y-104502845D01*
X133336197Y-104473100D01*
X133329257Y-104463319D01*
X133323842Y-104451897D01*
X133319765Y-104436095D01*
X133316837Y-104413175D01*
X133314867Y-104380396D01*
X133314225Y-104356089D01*
X133470844Y-104356089D01*
X133564726Y-104356089D01*
X133619664Y-104354483D01*
X133676060Y-104350255D01*
X133722345Y-104344292D01*
X133725139Y-104343790D01*
X133807348Y-104321736D01*
X133871114Y-104288600D01*
X133918452Y-104242847D01*
X133951382Y-104182939D01*
X133957108Y-104167061D01*
X133962721Y-104142333D01*
X133960291Y-104117902D01*
X133948467Y-104085400D01*
X133941340Y-104069434D01*
X133918000Y-104027006D01*
X133889880Y-103997240D01*
X133858940Y-103976511D01*
X133796966Y-103949537D01*
X133717651Y-103929998D01*
X133625253Y-103918746D01*
X133558333Y-103916270D01*
X133470844Y-103915822D01*
X133470844Y-104356089D01*
X133314225Y-104356089D01*
X133313668Y-104335021D01*
X133313050Y-104274311D01*
X133312825Y-104195526D01*
X133312800Y-104133920D01*
X133312800Y-103824485D01*
X133340509Y-103796776D01*
X133352806Y-103785544D01*
X133366103Y-103777853D01*
X133384672Y-103773040D01*
X133412786Y-103770446D01*
X133454717Y-103769410D01*
X133514737Y-103769270D01*
X133518309Y-103769275D01*
X133518309Y-103769275D01*
G37*
X133518309Y-103769275D02*
X133647288Y-103773636D01*
X133756991Y-103786861D01*
X133849226Y-103809741D01*
X133925802Y-103843070D01*
X133988527Y-103887638D01*
X134039212Y-103944236D01*
X134079663Y-104013658D01*
X134080459Y-104015351D01*
X134104601Y-104077483D01*
X134113203Y-104132509D01*
X134106231Y-104187887D01*
X134083654Y-104251073D01*
X134079372Y-104260689D01*
X134050172Y-104316966D01*
X134017356Y-104360451D01*
X133975002Y-104397417D01*
X133917190Y-104434135D01*
X133913831Y-104436052D01*
X133863504Y-104460227D01*
X133806621Y-104478282D01*
X133739527Y-104490839D01*
X133658565Y-104498522D01*
X133560082Y-104501953D01*
X133525286Y-104502251D01*
X133359594Y-104502845D01*
X133336197Y-104473100D01*
X133329257Y-104463319D01*
X133323842Y-104451897D01*
X133319765Y-104436095D01*
X133316837Y-104413175D01*
X133314867Y-104380396D01*
X133314225Y-104356089D01*
X133470844Y-104356089D01*
X133564726Y-104356089D01*
X133619664Y-104354483D01*
X133676060Y-104350255D01*
X133722345Y-104344292D01*
X133725139Y-104343790D01*
X133807348Y-104321736D01*
X133871114Y-104288600D01*
X133918452Y-104242847D01*
X133951382Y-104182939D01*
X133957108Y-104167061D01*
X133962721Y-104142333D01*
X133960291Y-104117902D01*
X133948467Y-104085400D01*
X133941340Y-104069434D01*
X133918000Y-104027006D01*
X133889880Y-103997240D01*
X133858940Y-103976511D01*
X133796966Y-103949537D01*
X133717651Y-103929998D01*
X133625253Y-103918746D01*
X133558333Y-103916270D01*
X133470844Y-103915822D01*
X133470844Y-104356089D01*
X133314225Y-104356089D01*
X133313668Y-104335021D01*
X133313050Y-104274311D01*
X133312825Y-104195526D01*
X133312800Y-104133920D01*
X133312800Y-103824485D01*
X133340509Y-103796776D01*
X133352806Y-103785544D01*
X133366103Y-103777853D01*
X133384672Y-103773040D01*
X133412786Y-103770446D01*
X133454717Y-103769410D01*
X133514737Y-103769270D01*
X133518309Y-103769275D01*
G36*
X136244665Y-103771034D02*
X136264255Y-103778035D01*
X136265010Y-103778377D01*
X136291613Y-103798678D01*
X136306270Y-103819561D01*
X136309138Y-103829352D01*
X136308996Y-103842361D01*
X136304961Y-103860895D01*
X136296146Y-103887257D01*
X136281669Y-103923752D01*
X136260645Y-103972687D01*
X136232188Y-104036365D01*
X136195415Y-104117093D01*
X136175175Y-104161216D01*
X136138625Y-104239985D01*
X136104315Y-104312423D01*
X136073552Y-104375880D01*
X136047648Y-104427708D01*
X136027910Y-104465259D01*
X136015650Y-104485884D01*
X136013224Y-104488733D01*
X135982183Y-104501302D01*
X135947121Y-104499619D01*
X135919000Y-104484332D01*
X135917854Y-104483089D01*
X135906668Y-104466154D01*
X135887904Y-104433170D01*
X135863875Y-104388380D01*
X135836897Y-104336032D01*
X135827201Y-104316742D01*
X135754014Y-104170150D01*
X135674240Y-104329393D01*
X135645767Y-104384415D01*
X135619350Y-104432132D01*
X135597148Y-104468893D01*
X135581319Y-104491044D01*
X135575954Y-104495741D01*
X135534257Y-104502102D01*
X135499849Y-104488733D01*
X135489728Y-104474446D01*
X135472214Y-104442692D01*
X135448735Y-104396597D01*
X135420720Y-104339285D01*
X135389599Y-104273880D01*
X135356799Y-104203507D01*
X135323750Y-104131291D01*
X135291881Y-104060355D01*
X135262619Y-103993825D01*
X135237395Y-103934826D01*
X135217636Y-103886481D01*
X135204772Y-103851915D01*
X135200231Y-103834253D01*
X135200277Y-103833613D01*
X135211326Y-103811388D01*
X135233410Y-103788753D01*
X135234710Y-103787768D01*
X135261853Y-103772425D01*
X135286958Y-103772574D01*
X135296368Y-103775466D01*
X135307834Y-103781718D01*
X135320010Y-103794014D01*
X135334357Y-103814908D01*
X135352336Y-103846949D01*
X135375407Y-103892688D01*
X135405030Y-103954677D01*
X135431745Y-104011898D01*
X135462480Y-104078226D01*
X135490021Y-104137874D01*
X135512938Y-104187725D01*
X135529798Y-104224664D01*
X135539173Y-104245573D01*
X135540540Y-104248845D01*
X135546689Y-104243497D01*
X135560822Y-104221109D01*
X135581057Y-104184946D01*
X135605515Y-104138277D01*
X135615248Y-104119022D01*
X135648217Y-104054004D01*
X135673643Y-104006654D01*
X135693612Y-103974219D01*
X135710210Y-103953946D01*
X135725524Y-103943082D01*
X135741640Y-103938875D01*
X135752143Y-103938400D01*
X135770670Y-103940042D01*
X135786904Y-103946831D01*
X135803035Y-103961566D01*
X135821251Y-103987044D01*
X135843739Y-104026061D01*
X135872689Y-104081414D01*
X135888662Y-104112903D01*
X135914570Y-104163087D01*
X135937167Y-104204704D01*
X135954458Y-104234242D01*
X135964450Y-104248189D01*
X135965809Y-104248770D01*
X135972261Y-104237793D01*
X135986708Y-104209290D01*
X136007703Y-104166244D01*
X136033797Y-104111638D01*
X136063546Y-104048454D01*
X136078180Y-104017071D01*
X136116250Y-103936078D01*
X136146905Y-103873756D01*
X136171737Y-103828071D01*
X136192337Y-103796989D01*
X136210298Y-103778478D01*
X136227210Y-103770504D01*
X136244665Y-103771034D01*
X136244665Y-103771034D01*
G37*
X136244665Y-103771034D02*
X136264255Y-103778035D01*
X136265010Y-103778377D01*
X136291613Y-103798678D01*
X136306270Y-103819561D01*
X136309138Y-103829352D01*
X136308996Y-103842361D01*
X136304961Y-103860895D01*
X136296146Y-103887257D01*
X136281669Y-103923752D01*
X136260645Y-103972687D01*
X136232188Y-104036365D01*
X136195415Y-104117093D01*
X136175175Y-104161216D01*
X136138625Y-104239985D01*
X136104315Y-104312423D01*
X136073552Y-104375880D01*
X136047648Y-104427708D01*
X136027910Y-104465259D01*
X136015650Y-104485884D01*
X136013224Y-104488733D01*
X135982183Y-104501302D01*
X135947121Y-104499619D01*
X135919000Y-104484332D01*
X135917854Y-104483089D01*
X135906668Y-104466154D01*
X135887904Y-104433170D01*
X135863875Y-104388380D01*
X135836897Y-104336032D01*
X135827201Y-104316742D01*
X135754014Y-104170150D01*
X135674240Y-104329393D01*
X135645767Y-104384415D01*
X135619350Y-104432132D01*
X135597148Y-104468893D01*
X135581319Y-104491044D01*
X135575954Y-104495741D01*
X135534257Y-104502102D01*
X135499849Y-104488733D01*
X135489728Y-104474446D01*
X135472214Y-104442692D01*
X135448735Y-104396597D01*
X135420720Y-104339285D01*
X135389599Y-104273880D01*
X135356799Y-104203507D01*
X135323750Y-104131291D01*
X135291881Y-104060355D01*
X135262619Y-103993825D01*
X135237395Y-103934826D01*
X135217636Y-103886481D01*
X135204772Y-103851915D01*
X135200231Y-103834253D01*
X135200277Y-103833613D01*
X135211326Y-103811388D01*
X135233410Y-103788753D01*
X135234710Y-103787768D01*
X135261853Y-103772425D01*
X135286958Y-103772574D01*
X135296368Y-103775466D01*
X135307834Y-103781718D01*
X135320010Y-103794014D01*
X135334357Y-103814908D01*
X135352336Y-103846949D01*
X135375407Y-103892688D01*
X135405030Y-103954677D01*
X135431745Y-104011898D01*
X135462480Y-104078226D01*
X135490021Y-104137874D01*
X135512938Y-104187725D01*
X135529798Y-104224664D01*
X135539173Y-104245573D01*
X135540540Y-104248845D01*
X135546689Y-104243497D01*
X135560822Y-104221109D01*
X135581057Y-104184946D01*
X135605515Y-104138277D01*
X135615248Y-104119022D01*
X135648217Y-104054004D01*
X135673643Y-104006654D01*
X135693612Y-103974219D01*
X135710210Y-103953946D01*
X135725524Y-103943082D01*
X135741640Y-103938875D01*
X135752143Y-103938400D01*
X135770670Y-103940042D01*
X135786904Y-103946831D01*
X135803035Y-103961566D01*
X135821251Y-103987044D01*
X135843739Y-104026061D01*
X135872689Y-104081414D01*
X135888662Y-104112903D01*
X135914570Y-104163087D01*
X135937167Y-104204704D01*
X135954458Y-104234242D01*
X135964450Y-104248189D01*
X135965809Y-104248770D01*
X135972261Y-104237793D01*
X135986708Y-104209290D01*
X136007703Y-104166244D01*
X136033797Y-104111638D01*
X136063546Y-104048454D01*
X136078180Y-104017071D01*
X136116250Y-103936078D01*
X136146905Y-103873756D01*
X136171737Y-103828071D01*
X136192337Y-103796989D01*
X136210298Y-103778478D01*
X136227210Y-103770504D01*
X136244665Y-103771034D01*
G36*
X136688614Y-103775877D02*
X136712327Y-103790647D01*
X136738978Y-103812227D01*
X136738978Y-104133773D01*
X136738893Y-104227830D01*
X136738529Y-104301932D01*
X136737724Y-104358704D01*
X136736313Y-104400768D01*
X136734133Y-104430748D01*
X136731021Y-104451267D01*
X136726814Y-104464949D01*
X136721348Y-104474416D01*
X136717472Y-104479082D01*
X136686034Y-104499575D01*
X136650233Y-104498739D01*
X136618873Y-104481264D01*
X136592222Y-104459684D01*
X136592222Y-103812227D01*
X136618873Y-103790647D01*
X136644594Y-103774949D01*
X136665600Y-103769067D01*
X136688614Y-103775877D01*
X136688614Y-103775877D01*
G37*
X136688614Y-103775877D02*
X136712327Y-103790647D01*
X136738978Y-103812227D01*
X136738978Y-104133773D01*
X136738893Y-104227830D01*
X136738529Y-104301932D01*
X136737724Y-104358704D01*
X136736313Y-104400768D01*
X136734133Y-104430748D01*
X136731021Y-104451267D01*
X136726814Y-104464949D01*
X136721348Y-104474416D01*
X136717472Y-104479082D01*
X136686034Y-104499575D01*
X136650233Y-104498739D01*
X136618873Y-104481264D01*
X136592222Y-104459684D01*
X136592222Y-103812227D01*
X136618873Y-103790647D01*
X136644594Y-103774949D01*
X136665600Y-103769067D01*
X136688614Y-103775877D01*
G36*
X137463065Y-103769163D02*
X137541772Y-103769542D01*
X137602863Y-103770333D01*
X137648817Y-103771670D01*
X137682114Y-103773683D01*
X137705236Y-103776506D01*
X137720662Y-103780269D01*
X137730871Y-103785105D01*
X137735813Y-103788822D01*
X137761457Y-103821358D01*
X137764559Y-103855138D01*
X137748711Y-103885826D01*
X137738348Y-103898089D01*
X137727196Y-103906450D01*
X137711035Y-103911657D01*
X137685642Y-103914457D01*
X137646798Y-103915596D01*
X137590280Y-103915821D01*
X137579180Y-103915822D01*
X137433244Y-103915822D01*
X137433244Y-104186756D01*
X137433148Y-104272154D01*
X137432711Y-104337864D01*
X137431712Y-104386774D01*
X137429928Y-104421773D01*
X137427137Y-104445749D01*
X137423117Y-104461593D01*
X137417645Y-104472191D01*
X137410666Y-104480267D01*
X137377734Y-104500112D01*
X137343354Y-104498548D01*
X137312176Y-104475906D01*
X137309886Y-104473100D01*
X137302429Y-104462492D01*
X137296747Y-104450081D01*
X137292601Y-104432850D01*
X137289750Y-104407784D01*
X137287954Y-104371867D01*
X137286972Y-104322083D01*
X137286564Y-104255417D01*
X137286489Y-104179589D01*
X137286489Y-103915822D01*
X137147127Y-103915822D01*
X137087322Y-103915418D01*
X137045918Y-103913840D01*
X137018748Y-103910547D01*
X137001646Y-103904992D01*
X136990443Y-103896631D01*
X136989083Y-103895178D01*
X136972725Y-103861939D01*
X136974172Y-103824362D01*
X136992978Y-103791645D01*
X137000250Y-103785298D01*
X137009627Y-103780266D01*
X137023609Y-103776396D01*
X137044696Y-103773537D01*
X137075389Y-103771535D01*
X137118189Y-103770239D01*
X137175595Y-103769498D01*
X137250110Y-103769158D01*
X137344233Y-103769068D01*
X137364260Y-103769067D01*
X137463065Y-103769163D01*
X137463065Y-103769163D01*
G37*
X137463065Y-103769163D02*
X137541772Y-103769542D01*
X137602863Y-103770333D01*
X137648817Y-103771670D01*
X137682114Y-103773683D01*
X137705236Y-103776506D01*
X137720662Y-103780269D01*
X137730871Y-103785105D01*
X137735813Y-103788822D01*
X137761457Y-103821358D01*
X137764559Y-103855138D01*
X137748711Y-103885826D01*
X137738348Y-103898089D01*
X137727196Y-103906450D01*
X137711035Y-103911657D01*
X137685642Y-103914457D01*
X137646798Y-103915596D01*
X137590280Y-103915821D01*
X137579180Y-103915822D01*
X137433244Y-103915822D01*
X137433244Y-104186756D01*
X137433148Y-104272154D01*
X137432711Y-104337864D01*
X137431712Y-104386774D01*
X137429928Y-104421773D01*
X137427137Y-104445749D01*
X137423117Y-104461593D01*
X137417645Y-104472191D01*
X137410666Y-104480267D01*
X137377734Y-104500112D01*
X137343354Y-104498548D01*
X137312176Y-104475906D01*
X137309886Y-104473100D01*
X137302429Y-104462492D01*
X137296747Y-104450081D01*
X137292601Y-104432850D01*
X137289750Y-104407784D01*
X137287954Y-104371867D01*
X137286972Y-104322083D01*
X137286564Y-104255417D01*
X137286489Y-104179589D01*
X137286489Y-103915822D01*
X137147127Y-103915822D01*
X137087322Y-103915418D01*
X137045918Y-103913840D01*
X137018748Y-103910547D01*
X137001646Y-103904992D01*
X136990443Y-103896631D01*
X136989083Y-103895178D01*
X136972725Y-103861939D01*
X136974172Y-103824362D01*
X136992978Y-103791645D01*
X137000250Y-103785298D01*
X137009627Y-103780266D01*
X137023609Y-103776396D01*
X137044696Y-103773537D01*
X137075389Y-103771535D01*
X137118189Y-103770239D01*
X137175595Y-103769498D01*
X137250110Y-103769158D01*
X137344233Y-103769068D01*
X137364260Y-103769067D01*
X137463065Y-103769163D01*
G36*
X138728823Y-103774533D02*
X138760202Y-103796776D01*
X138787911Y-103824485D01*
X138787911Y-104133920D01*
X138787838Y-104225799D01*
X138787495Y-104297840D01*
X138786692Y-104352780D01*
X138785241Y-104393360D01*
X138782952Y-104422317D01*
X138779636Y-104442391D01*
X138775105Y-104456321D01*
X138769169Y-104466845D01*
X138764514Y-104473100D01*
X138733783Y-104497673D01*
X138698496Y-104500341D01*
X138666245Y-104485271D01*
X138655588Y-104476374D01*
X138648464Y-104464557D01*
X138644167Y-104445526D01*
X138641991Y-104414992D01*
X138641228Y-104368662D01*
X138641155Y-104332871D01*
X138641155Y-104198045D01*
X138144444Y-104198045D01*
X138144444Y-104320700D01*
X138143931Y-104376787D01*
X138141876Y-104415333D01*
X138137508Y-104441361D01*
X138130056Y-104459897D01*
X138121047Y-104473100D01*
X138090144Y-104497604D01*
X138055196Y-104500506D01*
X138021738Y-104483089D01*
X138012604Y-104473959D01*
X138006152Y-104461855D01*
X138001897Y-104443001D01*
X137999352Y-104413620D01*
X137998029Y-104369937D01*
X137997443Y-104308175D01*
X137997375Y-104294000D01*
X137996891Y-104177631D01*
X137996641Y-104081727D01*
X137996723Y-104004177D01*
X137997231Y-103942869D01*
X137998262Y-103895690D01*
X137999913Y-103860530D01*
X138002279Y-103835276D01*
X138005457Y-103817817D01*
X138009544Y-103806041D01*
X138014634Y-103797835D01*
X138020266Y-103791645D01*
X138052128Y-103771844D01*
X138085357Y-103774533D01*
X138116735Y-103796776D01*
X138129433Y-103811126D01*
X138137526Y-103826978D01*
X138142042Y-103849554D01*
X138144006Y-103884078D01*
X138144444Y-103935776D01*
X138144444Y-104051289D01*
X138641155Y-104051289D01*
X138641155Y-103932756D01*
X138641662Y-103878148D01*
X138643698Y-103841275D01*
X138648035Y-103817307D01*
X138655447Y-103801415D01*
X138663733Y-103791645D01*
X138695594Y-103771844D01*
X138728823Y-103774533D01*
X138728823Y-103774533D01*
G37*
X138728823Y-103774533D02*
X138760202Y-103796776D01*
X138787911Y-103824485D01*
X138787911Y-104133920D01*
X138787838Y-104225799D01*
X138787495Y-104297840D01*
X138786692Y-104352780D01*
X138785241Y-104393360D01*
X138782952Y-104422317D01*
X138779636Y-104442391D01*
X138775105Y-104456321D01*
X138769169Y-104466845D01*
X138764514Y-104473100D01*
X138733783Y-104497673D01*
X138698496Y-104500341D01*
X138666245Y-104485271D01*
X138655588Y-104476374D01*
X138648464Y-104464557D01*
X138644167Y-104445526D01*
X138641991Y-104414992D01*
X138641228Y-104368662D01*
X138641155Y-104332871D01*
X138641155Y-104198045D01*
X138144444Y-104198045D01*
X138144444Y-104320700D01*
X138143931Y-104376787D01*
X138141876Y-104415333D01*
X138137508Y-104441361D01*
X138130056Y-104459897D01*
X138121047Y-104473100D01*
X138090144Y-104497604D01*
X138055196Y-104500506D01*
X138021738Y-104483089D01*
X138012604Y-104473959D01*
X138006152Y-104461855D01*
X138001897Y-104443001D01*
X137999352Y-104413620D01*
X137998029Y-104369937D01*
X137997443Y-104308175D01*
X137997375Y-104294000D01*
X137996891Y-104177631D01*
X137996641Y-104081727D01*
X137996723Y-104004177D01*
X137997231Y-103942869D01*
X137998262Y-103895690D01*
X137999913Y-103860530D01*
X138002279Y-103835276D01*
X138005457Y-103817817D01*
X138009544Y-103806041D01*
X138014634Y-103797835D01*
X138020266Y-103791645D01*
X138052128Y-103771844D01*
X138085357Y-103774533D01*
X138116735Y-103796776D01*
X138129433Y-103811126D01*
X138137526Y-103826978D01*
X138142042Y-103849554D01*
X138144006Y-103884078D01*
X138144444Y-103935776D01*
X138144444Y-104051289D01*
X138641155Y-104051289D01*
X138641155Y-103932756D01*
X138641662Y-103878148D01*
X138643698Y-103841275D01*
X138648035Y-103817307D01*
X138655447Y-103801415D01*
X138663733Y-103791645D01*
X138695594Y-103771844D01*
X138728823Y-103774533D01*
G36*
X129553600Y-98989054D02*
X129564465Y-99102993D01*
X129596082Y-99210616D01*
X129646985Y-99309615D01*
X129715707Y-99397684D01*
X129800781Y-99472516D01*
X129897768Y-99530384D01*
X130004036Y-99570005D01*
X130111050Y-99588573D01*
X130216700Y-99587434D01*
X130318875Y-99567930D01*
X130415466Y-99531406D01*
X130504362Y-99479205D01*
X130583454Y-99412673D01*
X130650631Y-99333152D01*
X130703783Y-99241987D01*
X130740801Y-99140523D01*
X130759573Y-99030102D01*
X130761511Y-98980206D01*
X130761511Y-98892267D01*
X130813440Y-98892267D01*
X130849747Y-98895111D01*
X130876645Y-98906911D01*
X130903751Y-98930649D01*
X130942133Y-98969031D01*
X130942133Y-101160602D01*
X130942124Y-101422739D01*
X130942092Y-101663241D01*
X130942028Y-101883048D01*
X130941924Y-102083101D01*
X130941773Y-102264344D01*
X130941566Y-102427716D01*
X130941294Y-102574160D01*
X130940950Y-102704617D01*
X130940526Y-102820029D01*
X130940013Y-102921338D01*
X130939403Y-103009484D01*
X130938688Y-103085410D01*
X130937860Y-103150057D01*
X130936911Y-103204367D01*
X130935833Y-103249280D01*
X130934617Y-103285740D01*
X130933255Y-103314687D01*
X130931739Y-103337063D01*
X130930062Y-103353809D01*
X130928214Y-103365868D01*
X130926187Y-103374180D01*
X130923975Y-103379687D01*
X130922892Y-103381537D01*
X130918729Y-103388549D01*
X130915195Y-103394996D01*
X130911365Y-103400900D01*
X130906318Y-103406286D01*
X130899129Y-103411178D01*
X130888877Y-103415598D01*
X130874636Y-103419572D01*
X130855486Y-103423121D01*
X130830501Y-103426270D01*
X130798760Y-103429042D01*
X130759338Y-103431461D01*
X130711314Y-103433551D01*
X130653763Y-103435335D01*
X130585763Y-103436837D01*
X130506390Y-103438080D01*
X130414721Y-103439089D01*
X130309834Y-103439885D01*
X130190804Y-103440494D01*
X130056710Y-103440939D01*
X129906627Y-103441243D01*
X129739633Y-103441430D01*
X129554804Y-103441524D01*
X129351217Y-103441548D01*
X129127950Y-103441525D01*
X128884078Y-103441480D01*
X128618679Y-103441437D01*
X128580296Y-103441432D01*
X128313318Y-103441389D01*
X128067998Y-103441318D01*
X127843417Y-103441213D01*
X127638655Y-103441066D01*
X127452794Y-103440869D01*
X127284912Y-103440616D01*
X127134092Y-103440300D01*
X126999413Y-103439913D01*
X126879956Y-103439447D01*
X126774801Y-103438897D01*
X126683029Y-103438253D01*
X126603721Y-103437511D01*
X126535957Y-103436661D01*
X126478818Y-103435697D01*
X126431383Y-103434611D01*
X126392734Y-103433397D01*
X126361951Y-103432047D01*
X126338115Y-103430555D01*
X126320306Y-103428911D01*
X126307605Y-103427111D01*
X126299092Y-103425145D01*
X126294734Y-103423477D01*
X126286272Y-103419906D01*
X126278503Y-103417270D01*
X126271398Y-103414634D01*
X126264927Y-103411062D01*
X126259061Y-103405621D01*
X126253771Y-103397375D01*
X126249026Y-103385390D01*
X126244798Y-103368731D01*
X126241057Y-103346463D01*
X126237773Y-103317652D01*
X126234917Y-103281363D01*
X126232460Y-103236661D01*
X126230371Y-103182611D01*
X126228622Y-103118279D01*
X126227183Y-103042730D01*
X126226024Y-102955030D01*
X126225117Y-102854243D01*
X126224431Y-102739434D01*
X126223937Y-102609670D01*
X126223605Y-102464015D01*
X126223407Y-102301535D01*
X126223313Y-102121295D01*
X126223292Y-101922360D01*
X126223315Y-101703796D01*
X126223354Y-101464668D01*
X126223378Y-101204040D01*
X126223378Y-101161889D01*
X126223364Y-100898992D01*
X126223339Y-100657732D01*
X126223329Y-100437165D01*
X126223358Y-100236352D01*
X126223452Y-100054349D01*
X126223638Y-99890216D01*
X126223941Y-99743011D01*
X126224386Y-99611792D01*
X126224966Y-99501867D01*
X126527803Y-99501867D01*
X126567593Y-99559711D01*
X126578764Y-99575479D01*
X126588834Y-99589441D01*
X126597862Y-99602784D01*
X126605903Y-99616693D01*
X126613014Y-99632356D01*
X126619253Y-99650958D01*
X126624675Y-99673686D01*
X126629338Y-99701727D01*
X126633299Y-99736267D01*
X126636615Y-99778492D01*
X126639341Y-99829589D01*
X126641536Y-99890744D01*
X126643255Y-99963144D01*
X126644556Y-100047975D01*
X126645495Y-100146422D01*
X126646130Y-100259674D01*
X126646516Y-100388916D01*
X126646712Y-100535334D01*
X126646773Y-100700116D01*
X126646757Y-100884447D01*
X126646720Y-101089513D01*
X126646711Y-101212133D01*
X126646735Y-101429082D01*
X126646769Y-101624642D01*
X126646757Y-101799999D01*
X126646642Y-101956341D01*
X126646370Y-102094857D01*
X126645882Y-102216734D01*
X126645124Y-102323160D01*
X126644038Y-102415322D01*
X126642569Y-102494409D01*
X126640660Y-102561608D01*
X126638256Y-102618107D01*
X126635299Y-102665093D01*
X126631734Y-102703755D01*
X126627505Y-102735280D01*
X126622554Y-102760855D01*
X126616827Y-102781670D01*
X126610267Y-102798911D01*
X126602817Y-102813765D01*
X126594421Y-102827422D01*
X126585024Y-102841069D01*
X126574568Y-102855893D01*
X126568477Y-102864783D01*
X126529704Y-102922400D01*
X127061268Y-102922400D01*
X127184517Y-102922365D01*
X127287013Y-102922215D01*
X127370580Y-102921878D01*
X127437044Y-102921286D01*
X127488229Y-102920367D01*
X127525959Y-102919051D01*
X127552060Y-102917269D01*
X127568356Y-102914951D01*
X127576672Y-102912026D01*
X127578832Y-102908424D01*
X127576661Y-102904075D01*
X127575465Y-102902645D01*
X127550315Y-102865573D01*
X127524417Y-102812772D01*
X127500808Y-102750770D01*
X127492539Y-102724357D01*
X127487922Y-102706416D01*
X127484021Y-102685355D01*
X127480752Y-102659089D01*
X127478034Y-102625532D01*
X127475785Y-102582599D01*
X127473923Y-102528204D01*
X127472364Y-102460262D01*
X127471028Y-102376688D01*
X127469831Y-102275395D01*
X127468692Y-102154300D01*
X127468315Y-102109600D01*
X127467298Y-101984449D01*
X127466540Y-101880082D01*
X127466097Y-101794707D01*
X127466030Y-101726533D01*
X127466395Y-101673765D01*
X127467252Y-101634614D01*
X127468659Y-101607285D01*
X127470675Y-101589986D01*
X127473357Y-101580926D01*
X127476764Y-101578312D01*
X127480956Y-101580351D01*
X127485429Y-101584667D01*
X127495784Y-101597602D01*
X127517842Y-101626676D01*
X127550043Y-101669759D01*
X127590826Y-101724718D01*
X127638630Y-101789423D01*
X127691895Y-101861742D01*
X127749060Y-101939544D01*
X127808563Y-102020698D01*
X127868845Y-102103072D01*
X127928345Y-102184536D01*
X127985502Y-102262957D01*
X128038755Y-102336204D01*
X128086543Y-102402147D01*
X128127307Y-102458654D01*
X128159484Y-102503593D01*
X128181515Y-102534834D01*
X128186083Y-102541466D01*
X128209004Y-102578369D01*
X128235812Y-102626359D01*
X128261211Y-102675897D01*
X128264432Y-102682577D01*
X128286110Y-102730772D01*
X128298696Y-102768334D01*
X128304426Y-102804160D01*
X128305544Y-102846200D01*
X128304910Y-102922400D01*
X129459349Y-102922400D01*
X129368185Y-102828669D01*
X129321388Y-102778775D01*
X129271101Y-102722295D01*
X129225056Y-102668026D01*
X129204631Y-102642673D01*
X129174193Y-102603128D01*
X129134138Y-102549916D01*
X129085639Y-102484667D01*
X129029865Y-102409011D01*
X128967989Y-102324577D01*
X128901181Y-102232994D01*
X128830613Y-102135892D01*
X128757455Y-102034901D01*
X128682879Y-101931650D01*
X128608056Y-101827768D01*
X128534157Y-101724885D01*
X128462354Y-101624631D01*
X128393816Y-101528636D01*
X128329716Y-101438527D01*
X128271225Y-101355936D01*
X128219514Y-101282492D01*
X128175753Y-101219824D01*
X128141115Y-101169561D01*
X128116770Y-101133334D01*
X128103889Y-101112771D01*
X128102131Y-101108668D01*
X128110090Y-101097342D01*
X128130885Y-101070162D01*
X128163153Y-101028829D01*
X128205530Y-100975044D01*
X128256653Y-100910506D01*
X128315159Y-100836918D01*
X128379686Y-100755978D01*
X128448869Y-100669388D01*
X128521347Y-100578848D01*
X128595754Y-100486060D01*
X128655483Y-100411702D01*
X129666489Y-100411702D01*
X129672398Y-100424659D01*
X129686728Y-100446908D01*
X129687775Y-100448391D01*
X129706562Y-100478544D01*
X129726209Y-100515375D01*
X129730108Y-100523511D01*
X129733644Y-100531940D01*
X129736770Y-100542059D01*
X129739514Y-100555260D01*
X129741908Y-100572938D01*
X129743981Y-100596484D01*
X129745765Y-100627293D01*
X129747288Y-100666757D01*
X129748581Y-100716269D01*
X129749674Y-100777223D01*
X129750597Y-100851011D01*
X129751381Y-100939028D01*
X129752055Y-101042665D01*
X129752650Y-101163316D01*
X129753195Y-101302374D01*
X129753721Y-101461232D01*
X129754255Y-101640089D01*
X129754794Y-101825207D01*
X129755228Y-101989145D01*
X129755491Y-102133303D01*
X129755516Y-102259079D01*
X129755235Y-102367871D01*
X129754581Y-102461077D01*
X129753486Y-102540097D01*
X129751882Y-102606328D01*
X129749703Y-102661170D01*
X129746881Y-102706021D01*
X129743349Y-102742278D01*
X129739039Y-102771341D01*
X129733883Y-102794609D01*
X129727815Y-102813479D01*
X129720767Y-102829351D01*
X129712671Y-102843622D01*
X129703460Y-102857691D01*
X129694960Y-102870158D01*
X129677824Y-102896452D01*
X129667678Y-102914037D01*
X129666489Y-102917257D01*
X129677396Y-102918334D01*
X129708589Y-102919335D01*
X129757777Y-102920235D01*
X129822667Y-102921010D01*
X129900970Y-102921637D01*
X129990393Y-102922091D01*
X130088644Y-102922349D01*
X130157555Y-102922400D01*
X130262548Y-102922180D01*
X130359390Y-102921548D01*
X130445893Y-102920549D01*
X130519868Y-102919227D01*
X130579126Y-102917626D01*
X130621480Y-102915791D01*
X130644740Y-102913765D01*
X130648622Y-102912493D01*
X130640924Y-102897591D01*
X130632926Y-102889560D01*
X130619754Y-102872434D01*
X130602515Y-102842183D01*
X130590593Y-102817622D01*
X130563955Y-102758711D01*
X130560880Y-101581845D01*
X130557805Y-100404978D01*
X130112147Y-100404978D01*
X130014330Y-100405142D01*
X129923936Y-100405611D01*
X129843370Y-100406347D01*
X129775038Y-100407316D01*
X129721344Y-100408480D01*
X129684695Y-100409803D01*
X129667496Y-100411249D01*
X129666489Y-100411702D01*
X128655483Y-100411702D01*
X128670730Y-100392722D01*
X128744910Y-100300537D01*
X128816931Y-100211204D01*
X128885431Y-100126424D01*
X128949045Y-100047898D01*
X129006412Y-99977326D01*
X129056167Y-99916409D01*
X129096948Y-99866847D01*
X129114112Y-99846178D01*
X129200404Y-99745516D01*
X129277003Y-99662259D01*
X129345817Y-99594438D01*
X129408752Y-99540089D01*
X129418133Y-99532722D01*
X129457644Y-99502117D01*
X128325884Y-99501867D01*
X128331173Y-99549844D01*
X128327870Y-99607188D01*
X128306339Y-99675463D01*
X128266365Y-99755212D01*
X128221057Y-99827495D01*
X128204839Y-99850140D01*
X128176786Y-99887696D01*
X128138570Y-99938021D01*
X128091863Y-99998973D01*
X128038339Y-100068411D01*
X127979669Y-100144194D01*
X127917525Y-100224180D01*
X127853579Y-100306228D01*
X127789505Y-100388196D01*
X127726973Y-100467943D01*
X127667657Y-100543327D01*
X127613229Y-100612207D01*
X127565361Y-100672442D01*
X127525725Y-100721889D01*
X127495994Y-100758408D01*
X127477839Y-100779858D01*
X127474780Y-100783156D01*
X127471921Y-100775149D01*
X127469707Y-100744855D01*
X127468143Y-100692556D01*
X127467233Y-100618531D01*
X127466980Y-100523063D01*
X127467387Y-100406434D01*
X127468296Y-100286445D01*
X127469618Y-100154333D01*
X127471143Y-100042594D01*
X127473119Y-99949025D01*
X127475794Y-99871419D01*
X127479418Y-99807574D01*
X127484239Y-99755283D01*
X127490506Y-99712344D01*
X127498468Y-99676551D01*
X127508373Y-99645700D01*
X127520469Y-99617586D01*
X127535007Y-99590005D01*
X127549689Y-99564966D01*
X127587686Y-99501867D01*
X126527803Y-99501867D01*
X126224966Y-99501867D01*
X126224999Y-99495617D01*
X126225805Y-99393544D01*
X126226830Y-99304633D01*
X126228100Y-99227941D01*
X126229640Y-99162527D01*
X126231476Y-99107449D01*
X126233633Y-99061765D01*
X126236137Y-99024534D01*
X126239013Y-98994813D01*
X126242287Y-98971662D01*
X126245985Y-98954139D01*
X126250131Y-98941301D01*
X126254753Y-98932208D01*
X126259874Y-98925918D01*
X126265522Y-98921488D01*
X126271721Y-98917978D01*
X126278496Y-98914445D01*
X126284492Y-98910876D01*
X126289725Y-98908300D01*
X126297901Y-98905972D01*
X126310114Y-98903878D01*
X126327459Y-98902007D01*
X126351031Y-98900347D01*
X126381923Y-98898884D01*
X126421232Y-98897608D01*
X126470050Y-98896504D01*
X126529473Y-98895561D01*
X126600596Y-98894767D01*
X126684512Y-98894109D01*
X126782317Y-98893575D01*
X126895106Y-98893153D01*
X127023971Y-98892829D01*
X127170009Y-98892592D01*
X127334314Y-98892430D01*
X127517980Y-98892330D01*
X127722103Y-98892280D01*
X127933247Y-98892267D01*
X129553600Y-98892267D01*
X129553600Y-98989054D01*
X129553600Y-98989054D01*
G37*
X129553600Y-98989054D02*
X129564465Y-99102993D01*
X129596082Y-99210616D01*
X129646985Y-99309615D01*
X129715707Y-99397684D01*
X129800781Y-99472516D01*
X129897768Y-99530384D01*
X130004036Y-99570005D01*
X130111050Y-99588573D01*
X130216700Y-99587434D01*
X130318875Y-99567930D01*
X130415466Y-99531406D01*
X130504362Y-99479205D01*
X130583454Y-99412673D01*
X130650631Y-99333152D01*
X130703783Y-99241987D01*
X130740801Y-99140523D01*
X130759573Y-99030102D01*
X130761511Y-98980206D01*
X130761511Y-98892267D01*
X130813440Y-98892267D01*
X130849747Y-98895111D01*
X130876645Y-98906911D01*
X130903751Y-98930649D01*
X130942133Y-98969031D01*
X130942133Y-101160602D01*
X130942124Y-101422739D01*
X130942092Y-101663241D01*
X130942028Y-101883048D01*
X130941924Y-102083101D01*
X130941773Y-102264344D01*
X130941566Y-102427716D01*
X130941294Y-102574160D01*
X130940950Y-102704617D01*
X130940526Y-102820029D01*
X130940013Y-102921338D01*
X130939403Y-103009484D01*
X130938688Y-103085410D01*
X130937860Y-103150057D01*
X130936911Y-103204367D01*
X130935833Y-103249280D01*
X130934617Y-103285740D01*
X130933255Y-103314687D01*
X130931739Y-103337063D01*
X130930062Y-103353809D01*
X130928214Y-103365868D01*
X130926187Y-103374180D01*
X130923975Y-103379687D01*
X130922892Y-103381537D01*
X130918729Y-103388549D01*
X130915195Y-103394996D01*
X130911365Y-103400900D01*
X130906318Y-103406286D01*
X130899129Y-103411178D01*
X130888877Y-103415598D01*
X130874636Y-103419572D01*
X130855486Y-103423121D01*
X130830501Y-103426270D01*
X130798760Y-103429042D01*
X130759338Y-103431461D01*
X130711314Y-103433551D01*
X130653763Y-103435335D01*
X130585763Y-103436837D01*
X130506390Y-103438080D01*
X130414721Y-103439089D01*
X130309834Y-103439885D01*
X130190804Y-103440494D01*
X130056710Y-103440939D01*
X129906627Y-103441243D01*
X129739633Y-103441430D01*
X129554804Y-103441524D01*
X129351217Y-103441548D01*
X129127950Y-103441525D01*
X128884078Y-103441480D01*
X128618679Y-103441437D01*
X128580296Y-103441432D01*
X128313318Y-103441389D01*
X128067998Y-103441318D01*
X127843417Y-103441213D01*
X127638655Y-103441066D01*
X127452794Y-103440869D01*
X127284912Y-103440616D01*
X127134092Y-103440300D01*
X126999413Y-103439913D01*
X126879956Y-103439447D01*
X126774801Y-103438897D01*
X126683029Y-103438253D01*
X126603721Y-103437511D01*
X126535957Y-103436661D01*
X126478818Y-103435697D01*
X126431383Y-103434611D01*
X126392734Y-103433397D01*
X126361951Y-103432047D01*
X126338115Y-103430555D01*
X126320306Y-103428911D01*
X126307605Y-103427111D01*
X126299092Y-103425145D01*
X126294734Y-103423477D01*
X126286272Y-103419906D01*
X126278503Y-103417270D01*
X126271398Y-103414634D01*
X126264927Y-103411062D01*
X126259061Y-103405621D01*
X126253771Y-103397375D01*
X126249026Y-103385390D01*
X126244798Y-103368731D01*
X126241057Y-103346463D01*
X126237773Y-103317652D01*
X126234917Y-103281363D01*
X126232460Y-103236661D01*
X126230371Y-103182611D01*
X126228622Y-103118279D01*
X126227183Y-103042730D01*
X126226024Y-102955030D01*
X126225117Y-102854243D01*
X126224431Y-102739434D01*
X126223937Y-102609670D01*
X126223605Y-102464015D01*
X126223407Y-102301535D01*
X126223313Y-102121295D01*
X126223292Y-101922360D01*
X126223315Y-101703796D01*
X126223354Y-101464668D01*
X126223378Y-101204040D01*
X126223378Y-101161889D01*
X126223364Y-100898992D01*
X126223339Y-100657732D01*
X126223329Y-100437165D01*
X126223358Y-100236352D01*
X126223452Y-100054349D01*
X126223638Y-99890216D01*
X126223941Y-99743011D01*
X126224386Y-99611792D01*
X126224966Y-99501867D01*
X126527803Y-99501867D01*
X126567593Y-99559711D01*
X126578764Y-99575479D01*
X126588834Y-99589441D01*
X126597862Y-99602784D01*
X126605903Y-99616693D01*
X126613014Y-99632356D01*
X126619253Y-99650958D01*
X126624675Y-99673686D01*
X126629338Y-99701727D01*
X126633299Y-99736267D01*
X126636615Y-99778492D01*
X126639341Y-99829589D01*
X126641536Y-99890744D01*
X126643255Y-99963144D01*
X126644556Y-100047975D01*
X126645495Y-100146422D01*
X126646130Y-100259674D01*
X126646516Y-100388916D01*
X126646712Y-100535334D01*
X126646773Y-100700116D01*
X126646757Y-100884447D01*
X126646720Y-101089513D01*
X126646711Y-101212133D01*
X126646735Y-101429082D01*
X126646769Y-101624642D01*
X126646757Y-101799999D01*
X126646642Y-101956341D01*
X126646370Y-102094857D01*
X126645882Y-102216734D01*
X126645124Y-102323160D01*
X126644038Y-102415322D01*
X126642569Y-102494409D01*
X126640660Y-102561608D01*
X126638256Y-102618107D01*
X126635299Y-102665093D01*
X126631734Y-102703755D01*
X126627505Y-102735280D01*
X126622554Y-102760855D01*
X126616827Y-102781670D01*
X126610267Y-102798911D01*
X126602817Y-102813765D01*
X126594421Y-102827422D01*
X126585024Y-102841069D01*
X126574568Y-102855893D01*
X126568477Y-102864783D01*
X126529704Y-102922400D01*
X127061268Y-102922400D01*
X127184517Y-102922365D01*
X127287013Y-102922215D01*
X127370580Y-102921878D01*
X127437044Y-102921286D01*
X127488229Y-102920367D01*
X127525959Y-102919051D01*
X127552060Y-102917269D01*
X127568356Y-102914951D01*
X127576672Y-102912026D01*
X127578832Y-102908424D01*
X127576661Y-102904075D01*
X127575465Y-102902645D01*
X127550315Y-102865573D01*
X127524417Y-102812772D01*
X127500808Y-102750770D01*
X127492539Y-102724357D01*
X127487922Y-102706416D01*
X127484021Y-102685355D01*
X127480752Y-102659089D01*
X127478034Y-102625532D01*
X127475785Y-102582599D01*
X127473923Y-102528204D01*
X127472364Y-102460262D01*
X127471028Y-102376688D01*
X127469831Y-102275395D01*
X127468692Y-102154300D01*
X127468315Y-102109600D01*
X127467298Y-101984449D01*
X127466540Y-101880082D01*
X127466097Y-101794707D01*
X127466030Y-101726533D01*
X127466395Y-101673765D01*
X127467252Y-101634614D01*
X127468659Y-101607285D01*
X127470675Y-101589986D01*
X127473357Y-101580926D01*
X127476764Y-101578312D01*
X127480956Y-101580351D01*
X127485429Y-101584667D01*
X127495784Y-101597602D01*
X127517842Y-101626676D01*
X127550043Y-101669759D01*
X127590826Y-101724718D01*
X127638630Y-101789423D01*
X127691895Y-101861742D01*
X127749060Y-101939544D01*
X127808563Y-102020698D01*
X127868845Y-102103072D01*
X127928345Y-102184536D01*
X127985502Y-102262957D01*
X128038755Y-102336204D01*
X128086543Y-102402147D01*
X128127307Y-102458654D01*
X128159484Y-102503593D01*
X128181515Y-102534834D01*
X128186083Y-102541466D01*
X128209004Y-102578369D01*
X128235812Y-102626359D01*
X128261211Y-102675897D01*
X128264432Y-102682577D01*
X128286110Y-102730772D01*
X128298696Y-102768334D01*
X128304426Y-102804160D01*
X128305544Y-102846200D01*
X128304910Y-102922400D01*
X129459349Y-102922400D01*
X129368185Y-102828669D01*
X129321388Y-102778775D01*
X129271101Y-102722295D01*
X129225056Y-102668026D01*
X129204631Y-102642673D01*
X129174193Y-102603128D01*
X129134138Y-102549916D01*
X129085639Y-102484667D01*
X129029865Y-102409011D01*
X128967989Y-102324577D01*
X128901181Y-102232994D01*
X128830613Y-102135892D01*
X128757455Y-102034901D01*
X128682879Y-101931650D01*
X128608056Y-101827768D01*
X128534157Y-101724885D01*
X128462354Y-101624631D01*
X128393816Y-101528636D01*
X128329716Y-101438527D01*
X128271225Y-101355936D01*
X128219514Y-101282492D01*
X128175753Y-101219824D01*
X128141115Y-101169561D01*
X128116770Y-101133334D01*
X128103889Y-101112771D01*
X128102131Y-101108668D01*
X128110090Y-101097342D01*
X128130885Y-101070162D01*
X128163153Y-101028829D01*
X128205530Y-100975044D01*
X128256653Y-100910506D01*
X128315159Y-100836918D01*
X128379686Y-100755978D01*
X128448869Y-100669388D01*
X128521347Y-100578848D01*
X128595754Y-100486060D01*
X128655483Y-100411702D01*
X129666489Y-100411702D01*
X129672398Y-100424659D01*
X129686728Y-100446908D01*
X129687775Y-100448391D01*
X129706562Y-100478544D01*
X129726209Y-100515375D01*
X129730108Y-100523511D01*
X129733644Y-100531940D01*
X129736770Y-100542059D01*
X129739514Y-100555260D01*
X129741908Y-100572938D01*
X129743981Y-100596484D01*
X129745765Y-100627293D01*
X129747288Y-100666757D01*
X129748581Y-100716269D01*
X129749674Y-100777223D01*
X129750597Y-100851011D01*
X129751381Y-100939028D01*
X129752055Y-101042665D01*
X129752650Y-101163316D01*
X129753195Y-101302374D01*
X129753721Y-101461232D01*
X129754255Y-101640089D01*
X129754794Y-101825207D01*
X129755228Y-101989145D01*
X129755491Y-102133303D01*
X129755516Y-102259079D01*
X129755235Y-102367871D01*
X129754581Y-102461077D01*
X129753486Y-102540097D01*
X129751882Y-102606328D01*
X129749703Y-102661170D01*
X129746881Y-102706021D01*
X129743349Y-102742278D01*
X129739039Y-102771341D01*
X129733883Y-102794609D01*
X129727815Y-102813479D01*
X129720767Y-102829351D01*
X129712671Y-102843622D01*
X129703460Y-102857691D01*
X129694960Y-102870158D01*
X129677824Y-102896452D01*
X129667678Y-102914037D01*
X129666489Y-102917257D01*
X129677396Y-102918334D01*
X129708589Y-102919335D01*
X129757777Y-102920235D01*
X129822667Y-102921010D01*
X129900970Y-102921637D01*
X129990393Y-102922091D01*
X130088644Y-102922349D01*
X130157555Y-102922400D01*
X130262548Y-102922180D01*
X130359390Y-102921548D01*
X130445893Y-102920549D01*
X130519868Y-102919227D01*
X130579126Y-102917626D01*
X130621480Y-102915791D01*
X130644740Y-102913765D01*
X130648622Y-102912493D01*
X130640924Y-102897591D01*
X130632926Y-102889560D01*
X130619754Y-102872434D01*
X130602515Y-102842183D01*
X130590593Y-102817622D01*
X130563955Y-102758711D01*
X130560880Y-101581845D01*
X130557805Y-100404978D01*
X130112147Y-100404978D01*
X130014330Y-100405142D01*
X129923936Y-100405611D01*
X129843370Y-100406347D01*
X129775038Y-100407316D01*
X129721344Y-100408480D01*
X129684695Y-100409803D01*
X129667496Y-100411249D01*
X129666489Y-100411702D01*
X128655483Y-100411702D01*
X128670730Y-100392722D01*
X128744910Y-100300537D01*
X128816931Y-100211204D01*
X128885431Y-100126424D01*
X128949045Y-100047898D01*
X129006412Y-99977326D01*
X129056167Y-99916409D01*
X129096948Y-99866847D01*
X129114112Y-99846178D01*
X129200404Y-99745516D01*
X129277003Y-99662259D01*
X129345817Y-99594438D01*
X129408752Y-99540089D01*
X129418133Y-99532722D01*
X129457644Y-99502117D01*
X128325884Y-99501867D01*
X128331173Y-99549844D01*
X128327870Y-99607188D01*
X128306339Y-99675463D01*
X128266365Y-99755212D01*
X128221057Y-99827495D01*
X128204839Y-99850140D01*
X128176786Y-99887696D01*
X128138570Y-99938021D01*
X128091863Y-99998973D01*
X128038339Y-100068411D01*
X127979669Y-100144194D01*
X127917525Y-100224180D01*
X127853579Y-100306228D01*
X127789505Y-100388196D01*
X127726973Y-100467943D01*
X127667657Y-100543327D01*
X127613229Y-100612207D01*
X127565361Y-100672442D01*
X127525725Y-100721889D01*
X127495994Y-100758408D01*
X127477839Y-100779858D01*
X127474780Y-100783156D01*
X127471921Y-100775149D01*
X127469707Y-100744855D01*
X127468143Y-100692556D01*
X127467233Y-100618531D01*
X127466980Y-100523063D01*
X127467387Y-100406434D01*
X127468296Y-100286445D01*
X127469618Y-100154333D01*
X127471143Y-100042594D01*
X127473119Y-99949025D01*
X127475794Y-99871419D01*
X127479418Y-99807574D01*
X127484239Y-99755283D01*
X127490506Y-99712344D01*
X127498468Y-99676551D01*
X127508373Y-99645700D01*
X127520469Y-99617586D01*
X127535007Y-99590005D01*
X127549689Y-99564966D01*
X127587686Y-99501867D01*
X126527803Y-99501867D01*
X126224966Y-99501867D01*
X126224999Y-99495617D01*
X126225805Y-99393544D01*
X126226830Y-99304633D01*
X126228100Y-99227941D01*
X126229640Y-99162527D01*
X126231476Y-99107449D01*
X126233633Y-99061765D01*
X126236137Y-99024534D01*
X126239013Y-98994813D01*
X126242287Y-98971662D01*
X126245985Y-98954139D01*
X126250131Y-98941301D01*
X126254753Y-98932208D01*
X126259874Y-98925918D01*
X126265522Y-98921488D01*
X126271721Y-98917978D01*
X126278496Y-98914445D01*
X126284492Y-98910876D01*
X126289725Y-98908300D01*
X126297901Y-98905972D01*
X126310114Y-98903878D01*
X126327459Y-98902007D01*
X126351031Y-98900347D01*
X126381923Y-98898884D01*
X126421232Y-98897608D01*
X126470050Y-98896504D01*
X126529473Y-98895561D01*
X126600596Y-98894767D01*
X126684512Y-98894109D01*
X126782317Y-98893575D01*
X126895106Y-98893153D01*
X127023971Y-98892829D01*
X127170009Y-98892592D01*
X127334314Y-98892430D01*
X127517980Y-98892330D01*
X127722103Y-98892280D01*
X127933247Y-98892267D01*
X129553600Y-98892267D01*
X129553600Y-98989054D01*
G36*
X132828429Y-99449071D02*
X132988570Y-99470245D01*
X133152510Y-99510385D01*
X133322313Y-99569889D01*
X133500043Y-99649154D01*
X133511310Y-99654699D01*
X133569005Y-99682725D01*
X133620552Y-99706802D01*
X133662191Y-99725249D01*
X133690162Y-99736386D01*
X133699733Y-99738933D01*
X133718950Y-99743941D01*
X133723561Y-99748147D01*
X133718458Y-99758580D01*
X133702418Y-99784868D01*
X133677288Y-99824257D01*
X133644914Y-99873991D01*
X133607143Y-99931315D01*
X133565822Y-99993476D01*
X133522798Y-100057718D01*
X133479917Y-100121285D01*
X133439026Y-100181425D01*
X133401971Y-100235380D01*
X133370600Y-100280397D01*
X133346759Y-100313721D01*
X133332294Y-100332597D01*
X133330309Y-100334787D01*
X133320191Y-100330138D01*
X133297850Y-100312962D01*
X133267280Y-100286440D01*
X133251536Y-100271964D01*
X133155047Y-100196682D01*
X133048336Y-100141241D01*
X132932832Y-100106141D01*
X132809962Y-100091880D01*
X132740561Y-100093051D01*
X132619423Y-100110212D01*
X132510205Y-100146094D01*
X132412582Y-100200959D01*
X132326228Y-100275070D01*
X132250815Y-100368688D01*
X132186018Y-100482076D01*
X132148601Y-100568667D01*
X132104748Y-100704366D01*
X132072428Y-100851850D01*
X132051557Y-101007314D01*
X132042051Y-101166956D01*
X132043827Y-101326973D01*
X132056803Y-101483561D01*
X132080894Y-101632918D01*
X132116018Y-101771240D01*
X132162092Y-101894724D01*
X132178373Y-101928978D01*
X132246620Y-102043064D01*
X132327079Y-102139557D01*
X132418570Y-102217670D01*
X132519911Y-102276617D01*
X132629920Y-102315612D01*
X132747415Y-102333868D01*
X132788883Y-102335211D01*
X132910441Y-102324290D01*
X133030878Y-102291474D01*
X133148666Y-102237439D01*
X133262277Y-102162865D01*
X133353685Y-102084539D01*
X133400215Y-102040008D01*
X133581483Y-102337271D01*
X133626580Y-102411433D01*
X133667819Y-102479646D01*
X133703735Y-102539459D01*
X133732866Y-102588420D01*
X133753750Y-102624079D01*
X133764924Y-102643984D01*
X133766375Y-102647079D01*
X133758146Y-102656718D01*
X133732567Y-102673999D01*
X133692873Y-102697283D01*
X133642297Y-102724934D01*
X133584074Y-102755315D01*
X133521437Y-102786790D01*
X133457621Y-102817722D01*
X133395860Y-102846473D01*
X133339388Y-102871408D01*
X133291438Y-102890889D01*
X133267986Y-102899318D01*
X133134221Y-102937133D01*
X132996327Y-102962136D01*
X132848622Y-102975140D01*
X132721833Y-102977468D01*
X132653878Y-102976373D01*
X132588277Y-102974275D01*
X132530847Y-102971434D01*
X132487403Y-102968106D01*
X132473298Y-102966422D01*
X132334284Y-102937587D01*
X132192757Y-102892468D01*
X132055275Y-102833750D01*
X131928394Y-102764120D01*
X131850889Y-102711441D01*
X131723481Y-102603239D01*
X131605178Y-102476671D01*
X131498172Y-102334866D01*
X131404652Y-102180951D01*
X131326810Y-102018053D01*
X131282956Y-101900756D01*
X131232708Y-101717128D01*
X131199209Y-101522581D01*
X131182449Y-101321325D01*
X131182416Y-101117568D01*
X131199101Y-100915521D01*
X131232493Y-100719392D01*
X131282580Y-100533391D01*
X131286397Y-100521803D01*
X131349281Y-100359750D01*
X131426028Y-100211832D01*
X131519242Y-100073865D01*
X131631527Y-99941661D01*
X131675392Y-99896399D01*
X131811534Y-99772457D01*
X131951491Y-99669915D01*
X132097411Y-99587656D01*
X132251442Y-99524564D01*
X132415732Y-99479523D01*
X132511289Y-99462033D01*
X132670023Y-99446466D01*
X132828429Y-99449071D01*
X132828429Y-99449071D01*
G37*
X132828429Y-99449071D02*
X132988570Y-99470245D01*
X133152510Y-99510385D01*
X133322313Y-99569889D01*
X133500043Y-99649154D01*
X133511310Y-99654699D01*
X133569005Y-99682725D01*
X133620552Y-99706802D01*
X133662191Y-99725249D01*
X133690162Y-99736386D01*
X133699733Y-99738933D01*
X133718950Y-99743941D01*
X133723561Y-99748147D01*
X133718458Y-99758580D01*
X133702418Y-99784868D01*
X133677288Y-99824257D01*
X133644914Y-99873991D01*
X133607143Y-99931315D01*
X133565822Y-99993476D01*
X133522798Y-100057718D01*
X133479917Y-100121285D01*
X133439026Y-100181425D01*
X133401971Y-100235380D01*
X133370600Y-100280397D01*
X133346759Y-100313721D01*
X133332294Y-100332597D01*
X133330309Y-100334787D01*
X133320191Y-100330138D01*
X133297850Y-100312962D01*
X133267280Y-100286440D01*
X133251536Y-100271964D01*
X133155047Y-100196682D01*
X133048336Y-100141241D01*
X132932832Y-100106141D01*
X132809962Y-100091880D01*
X132740561Y-100093051D01*
X132619423Y-100110212D01*
X132510205Y-100146094D01*
X132412582Y-100200959D01*
X132326228Y-100275070D01*
X132250815Y-100368688D01*
X132186018Y-100482076D01*
X132148601Y-100568667D01*
X132104748Y-100704366D01*
X132072428Y-100851850D01*
X132051557Y-101007314D01*
X132042051Y-101166956D01*
X132043827Y-101326973D01*
X132056803Y-101483561D01*
X132080894Y-101632918D01*
X132116018Y-101771240D01*
X132162092Y-101894724D01*
X132178373Y-101928978D01*
X132246620Y-102043064D01*
X132327079Y-102139557D01*
X132418570Y-102217670D01*
X132519911Y-102276617D01*
X132629920Y-102315612D01*
X132747415Y-102333868D01*
X132788883Y-102335211D01*
X132910441Y-102324290D01*
X133030878Y-102291474D01*
X133148666Y-102237439D01*
X133262277Y-102162865D01*
X133353685Y-102084539D01*
X133400215Y-102040008D01*
X133581483Y-102337271D01*
X133626580Y-102411433D01*
X133667819Y-102479646D01*
X133703735Y-102539459D01*
X133732866Y-102588420D01*
X133753750Y-102624079D01*
X133764924Y-102643984D01*
X133766375Y-102647079D01*
X133758146Y-102656718D01*
X133732567Y-102673999D01*
X133692873Y-102697283D01*
X133642297Y-102724934D01*
X133584074Y-102755315D01*
X133521437Y-102786790D01*
X133457621Y-102817722D01*
X133395860Y-102846473D01*
X133339388Y-102871408D01*
X133291438Y-102890889D01*
X133267986Y-102899318D01*
X133134221Y-102937133D01*
X132996327Y-102962136D01*
X132848622Y-102975140D01*
X132721833Y-102977468D01*
X132653878Y-102976373D01*
X132588277Y-102974275D01*
X132530847Y-102971434D01*
X132487403Y-102968106D01*
X132473298Y-102966422D01*
X132334284Y-102937587D01*
X132192757Y-102892468D01*
X132055275Y-102833750D01*
X131928394Y-102764120D01*
X131850889Y-102711441D01*
X131723481Y-102603239D01*
X131605178Y-102476671D01*
X131498172Y-102334866D01*
X131404652Y-102180951D01*
X131326810Y-102018053D01*
X131282956Y-101900756D01*
X131232708Y-101717128D01*
X131199209Y-101522581D01*
X131182449Y-101321325D01*
X131182416Y-101117568D01*
X131199101Y-100915521D01*
X131232493Y-100719392D01*
X131282580Y-100533391D01*
X131286397Y-100521803D01*
X131349281Y-100359750D01*
X131426028Y-100211832D01*
X131519242Y-100073865D01*
X131631527Y-99941661D01*
X131675392Y-99896399D01*
X131811534Y-99772457D01*
X131951491Y-99669915D01*
X132097411Y-99587656D01*
X132251442Y-99524564D01*
X132415732Y-99479523D01*
X132511289Y-99462033D01*
X132670023Y-99446466D01*
X132828429Y-99449071D01*
G36*
X135173574Y-100366552D02*
X135325492Y-100386567D01*
X135460756Y-100420202D01*
X135580239Y-100467725D01*
X135684815Y-100529405D01*
X135762424Y-100592965D01*
X135831265Y-100667099D01*
X135885006Y-100746871D01*
X135927910Y-100839091D01*
X135943384Y-100882161D01*
X135956244Y-100921142D01*
X135967446Y-100957289D01*
X135977120Y-100992434D01*
X135985396Y-101028410D01*
X135992403Y-101067050D01*
X135998272Y-101110185D01*
X136003131Y-101159649D01*
X136007110Y-101217273D01*
X136010340Y-101284891D01*
X136012949Y-101364334D01*
X136015067Y-101457436D01*
X136016824Y-101566027D01*
X136018349Y-101691942D01*
X136019772Y-101837012D01*
X136021025Y-101979778D01*
X136022351Y-102135968D01*
X136023556Y-102271239D01*
X136024766Y-102387246D01*
X136026106Y-102485645D01*
X136027700Y-102568093D01*
X136029675Y-102636246D01*
X136032156Y-102691760D01*
X136035269Y-102736292D01*
X136039138Y-102771498D01*
X136043889Y-102799034D01*
X136049648Y-102820556D01*
X136056539Y-102837722D01*
X136064689Y-102852186D01*
X136074223Y-102865606D01*
X136085266Y-102879638D01*
X136089566Y-102885071D01*
X136105386Y-102907910D01*
X136112422Y-102923463D01*
X136112444Y-102923922D01*
X136101567Y-102926121D01*
X136070582Y-102928147D01*
X136021957Y-102929942D01*
X135958163Y-102931451D01*
X135881669Y-102932616D01*
X135794944Y-102933380D01*
X135700457Y-102933686D01*
X135689550Y-102933689D01*
X135266657Y-102933689D01*
X135263395Y-102837622D01*
X135260133Y-102741556D01*
X135198044Y-102792543D01*
X135100714Y-102860057D01*
X134990813Y-102914749D01*
X134904349Y-102944978D01*
X134835278Y-102959666D01*
X134751925Y-102969659D01*
X134662159Y-102974646D01*
X134573845Y-102974313D01*
X134494851Y-102968351D01*
X134458622Y-102962638D01*
X134318603Y-102924776D01*
X134192178Y-102869932D01*
X134080260Y-102798924D01*
X133983762Y-102712568D01*
X133903600Y-102611679D01*
X133840687Y-102497076D01*
X133796312Y-102370984D01*
X133783978Y-102314401D01*
X133776368Y-102252202D01*
X133772739Y-102177363D01*
X133772245Y-102143467D01*
X133772310Y-102140282D01*
X134532248Y-102140282D01*
X134541541Y-102215333D01*
X134569728Y-102279160D01*
X134618197Y-102334798D01*
X134623254Y-102339211D01*
X134671548Y-102374037D01*
X134723257Y-102396620D01*
X134783989Y-102408540D01*
X134859352Y-102411383D01*
X134877459Y-102410978D01*
X134931278Y-102408325D01*
X134971308Y-102402909D01*
X135006324Y-102392745D01*
X135045103Y-102375850D01*
X135055745Y-102370672D01*
X135116396Y-102334844D01*
X135163215Y-102292212D01*
X135175952Y-102276973D01*
X135220622Y-102220462D01*
X135220622Y-102024586D01*
X135220086Y-101945939D01*
X135218396Y-101887988D01*
X135215428Y-101848875D01*
X135211057Y-101826741D01*
X135206972Y-101820274D01*
X135191047Y-101817111D01*
X135157264Y-101814488D01*
X135110340Y-101812655D01*
X135054993Y-101811857D01*
X135046106Y-101811842D01*
X134925330Y-101817096D01*
X134822660Y-101833263D01*
X134736106Y-101860961D01*
X134663681Y-101900808D01*
X134608751Y-101947758D01*
X134564204Y-102005645D01*
X134539480Y-102068693D01*
X134532248Y-102140282D01*
X133772310Y-102140282D01*
X133774178Y-102049712D01*
X133782522Y-101970812D01*
X133798768Y-101899590D01*
X133824405Y-101828864D01*
X133848401Y-101776493D01*
X133907020Y-101681196D01*
X133985117Y-101593170D01*
X134080315Y-101514017D01*
X134190238Y-101445340D01*
X134312510Y-101388741D01*
X134444755Y-101345821D01*
X134509422Y-101330882D01*
X134645604Y-101308777D01*
X134794049Y-101294194D01*
X134945505Y-101287813D01*
X135072064Y-101289445D01*
X135233950Y-101296224D01*
X135226530Y-101237245D01*
X135207238Y-101138092D01*
X135176104Y-101057372D01*
X135132269Y-100994466D01*
X135074871Y-100948756D01*
X135003048Y-100919622D01*
X134915941Y-100906447D01*
X134812686Y-100908611D01*
X134774711Y-100912612D01*
X134633520Y-100937780D01*
X134496707Y-100978814D01*
X134402178Y-101016815D01*
X134357018Y-101036190D01*
X134318585Y-101051760D01*
X134292234Y-101061405D01*
X134284546Y-101063452D01*
X134274802Y-101054374D01*
X134258083Y-101025405D01*
X134234232Y-100976217D01*
X134203093Y-100906484D01*
X134164507Y-100815879D01*
X134157910Y-100800089D01*
X134127853Y-100727772D01*
X134100874Y-100662425D01*
X134078136Y-100606906D01*
X134060806Y-100564072D01*
X134050048Y-100536781D01*
X134046941Y-100527942D01*
X134056940Y-100523187D01*
X134083217Y-100517910D01*
X134111489Y-100514231D01*
X134141646Y-100509474D01*
X134189433Y-100500028D01*
X134250612Y-100486820D01*
X134320946Y-100470776D01*
X134396194Y-100452820D01*
X134424755Y-100445797D01*
X134529816Y-100420209D01*
X134617480Y-100400147D01*
X134692068Y-100384969D01*
X134757903Y-100374035D01*
X134819307Y-100366704D01*
X134880602Y-100362335D01*
X134946110Y-100360287D01*
X135004128Y-100359889D01*
X135173574Y-100366552D01*
X135173574Y-100366552D01*
G37*
X135173574Y-100366552D02*
X135325492Y-100386567D01*
X135460756Y-100420202D01*
X135580239Y-100467725D01*
X135684815Y-100529405D01*
X135762424Y-100592965D01*
X135831265Y-100667099D01*
X135885006Y-100746871D01*
X135927910Y-100839091D01*
X135943384Y-100882161D01*
X135956244Y-100921142D01*
X135967446Y-100957289D01*
X135977120Y-100992434D01*
X135985396Y-101028410D01*
X135992403Y-101067050D01*
X135998272Y-101110185D01*
X136003131Y-101159649D01*
X136007110Y-101217273D01*
X136010340Y-101284891D01*
X136012949Y-101364334D01*
X136015067Y-101457436D01*
X136016824Y-101566027D01*
X136018349Y-101691942D01*
X136019772Y-101837012D01*
X136021025Y-101979778D01*
X136022351Y-102135968D01*
X136023556Y-102271239D01*
X136024766Y-102387246D01*
X136026106Y-102485645D01*
X136027700Y-102568093D01*
X136029675Y-102636246D01*
X136032156Y-102691760D01*
X136035269Y-102736292D01*
X136039138Y-102771498D01*
X136043889Y-102799034D01*
X136049648Y-102820556D01*
X136056539Y-102837722D01*
X136064689Y-102852186D01*
X136074223Y-102865606D01*
X136085266Y-102879638D01*
X136089566Y-102885071D01*
X136105386Y-102907910D01*
X136112422Y-102923463D01*
X136112444Y-102923922D01*
X136101567Y-102926121D01*
X136070582Y-102928147D01*
X136021957Y-102929942D01*
X135958163Y-102931451D01*
X135881669Y-102932616D01*
X135794944Y-102933380D01*
X135700457Y-102933686D01*
X135689550Y-102933689D01*
X135266657Y-102933689D01*
X135263395Y-102837622D01*
X135260133Y-102741556D01*
X135198044Y-102792543D01*
X135100714Y-102860057D01*
X134990813Y-102914749D01*
X134904349Y-102944978D01*
X134835278Y-102959666D01*
X134751925Y-102969659D01*
X134662159Y-102974646D01*
X134573845Y-102974313D01*
X134494851Y-102968351D01*
X134458622Y-102962638D01*
X134318603Y-102924776D01*
X134192178Y-102869932D01*
X134080260Y-102798924D01*
X133983762Y-102712568D01*
X133903600Y-102611679D01*
X133840687Y-102497076D01*
X133796312Y-102370984D01*
X133783978Y-102314401D01*
X133776368Y-102252202D01*
X133772739Y-102177363D01*
X133772245Y-102143467D01*
X133772310Y-102140282D01*
X134532248Y-102140282D01*
X134541541Y-102215333D01*
X134569728Y-102279160D01*
X134618197Y-102334798D01*
X134623254Y-102339211D01*
X134671548Y-102374037D01*
X134723257Y-102396620D01*
X134783989Y-102408540D01*
X134859352Y-102411383D01*
X134877459Y-102410978D01*
X134931278Y-102408325D01*
X134971308Y-102402909D01*
X135006324Y-102392745D01*
X135045103Y-102375850D01*
X135055745Y-102370672D01*
X135116396Y-102334844D01*
X135163215Y-102292212D01*
X135175952Y-102276973D01*
X135220622Y-102220462D01*
X135220622Y-102024586D01*
X135220086Y-101945939D01*
X135218396Y-101887988D01*
X135215428Y-101848875D01*
X135211057Y-101826741D01*
X135206972Y-101820274D01*
X135191047Y-101817111D01*
X135157264Y-101814488D01*
X135110340Y-101812655D01*
X135054993Y-101811857D01*
X135046106Y-101811842D01*
X134925330Y-101817096D01*
X134822660Y-101833263D01*
X134736106Y-101860961D01*
X134663681Y-101900808D01*
X134608751Y-101947758D01*
X134564204Y-102005645D01*
X134539480Y-102068693D01*
X134532248Y-102140282D01*
X133772310Y-102140282D01*
X133774178Y-102049712D01*
X133782522Y-101970812D01*
X133798768Y-101899590D01*
X133824405Y-101828864D01*
X133848401Y-101776493D01*
X133907020Y-101681196D01*
X133985117Y-101593170D01*
X134080315Y-101514017D01*
X134190238Y-101445340D01*
X134312510Y-101388741D01*
X134444755Y-101345821D01*
X134509422Y-101330882D01*
X134645604Y-101308777D01*
X134794049Y-101294194D01*
X134945505Y-101287813D01*
X135072064Y-101289445D01*
X135233950Y-101296224D01*
X135226530Y-101237245D01*
X135207238Y-101138092D01*
X135176104Y-101057372D01*
X135132269Y-100994466D01*
X135074871Y-100948756D01*
X135003048Y-100919622D01*
X134915941Y-100906447D01*
X134812686Y-100908611D01*
X134774711Y-100912612D01*
X134633520Y-100937780D01*
X134496707Y-100978814D01*
X134402178Y-101016815D01*
X134357018Y-101036190D01*
X134318585Y-101051760D01*
X134292234Y-101061405D01*
X134284546Y-101063452D01*
X134274802Y-101054374D01*
X134258083Y-101025405D01*
X134234232Y-100976217D01*
X134203093Y-100906484D01*
X134164507Y-100815879D01*
X134157910Y-100800089D01*
X134127853Y-100727772D01*
X134100874Y-100662425D01*
X134078136Y-100606906D01*
X134060806Y-100564072D01*
X134050048Y-100536781D01*
X134046941Y-100527942D01*
X134056940Y-100523187D01*
X134083217Y-100517910D01*
X134111489Y-100514231D01*
X134141646Y-100509474D01*
X134189433Y-100500028D01*
X134250612Y-100486820D01*
X134320946Y-100470776D01*
X134396194Y-100452820D01*
X134424755Y-100445797D01*
X134529816Y-100420209D01*
X134617480Y-100400147D01*
X134692068Y-100384969D01*
X134757903Y-100374035D01*
X134819307Y-100366704D01*
X134880602Y-100362335D01*
X134946110Y-100360287D01*
X135004128Y-100359889D01*
X135173574Y-100366552D01*
G36*
X138686507Y-100972245D02*
X138686526Y-101206662D01*
X138686552Y-101419603D01*
X138686625Y-101612168D01*
X138686782Y-101785459D01*
X138687064Y-101940576D01*
X138687509Y-102078620D01*
X138688156Y-102200692D01*
X138689045Y-102307894D01*
X138690213Y-102401326D01*
X138691701Y-102482090D01*
X138693546Y-102551286D01*
X138695789Y-102610015D01*
X138698469Y-102659379D01*
X138701623Y-102700478D01*
X138705292Y-102734413D01*
X138709513Y-102762286D01*
X138714327Y-102785198D01*
X138719773Y-102804249D01*
X138725888Y-102820540D01*
X138732712Y-102835173D01*
X138740285Y-102849249D01*
X138748645Y-102863868D01*
X138753839Y-102872974D01*
X138788104Y-102933689D01*
X137929955Y-102933689D01*
X137929955Y-102837733D01*
X137929224Y-102794370D01*
X137927272Y-102761205D01*
X137924463Y-102743424D01*
X137923221Y-102741778D01*
X137911799Y-102748662D01*
X137889084Y-102766505D01*
X137866385Y-102785879D01*
X137811800Y-102826614D01*
X137742321Y-102867617D01*
X137665270Y-102905123D01*
X137587965Y-102935364D01*
X137557113Y-102945012D01*
X137488616Y-102959578D01*
X137405764Y-102969539D01*
X137316371Y-102974583D01*
X137228248Y-102974396D01*
X137149207Y-102968666D01*
X137111511Y-102962858D01*
X136973414Y-102924797D01*
X136846113Y-102867073D01*
X136730292Y-102790211D01*
X136626637Y-102694739D01*
X136535833Y-102581179D01*
X136469031Y-102470381D01*
X136414164Y-102353625D01*
X136372163Y-102234276D01*
X136342167Y-102108283D01*
X136323311Y-101971594D01*
X136314732Y-101820158D01*
X136314006Y-101742711D01*
X136316100Y-101685934D01*
X137145217Y-101685934D01*
X137145424Y-101779002D01*
X137148337Y-101866692D01*
X137154000Y-101943772D01*
X137162455Y-102005009D01*
X137165038Y-102017350D01*
X137196840Y-102124633D01*
X137238498Y-102211658D01*
X137290363Y-102278642D01*
X137352781Y-102325805D01*
X137426100Y-102353365D01*
X137510669Y-102361541D01*
X137606835Y-102350551D01*
X137670311Y-102334829D01*
X137719454Y-102316639D01*
X137773583Y-102290791D01*
X137814244Y-102267089D01*
X137884800Y-102220721D01*
X137884800Y-101070530D01*
X137817392Y-101026962D01*
X137738867Y-100986040D01*
X137654681Y-100959389D01*
X137569557Y-100947465D01*
X137488216Y-100950722D01*
X137415380Y-100969615D01*
X137383426Y-100985184D01*
X137325501Y-101028181D01*
X137276544Y-101084953D01*
X137235390Y-101157575D01*
X137200874Y-101248121D01*
X137171833Y-101358666D01*
X137170552Y-101364533D01*
X137160381Y-101426788D01*
X137152739Y-101504594D01*
X137147670Y-101592720D01*
X137145217Y-101685934D01*
X136316100Y-101685934D01*
X136321857Y-101529895D01*
X136343802Y-101334059D01*
X136379786Y-101155332D01*
X136429759Y-100993845D01*
X136493668Y-100849726D01*
X136571462Y-100723106D01*
X136663089Y-100614115D01*
X136768497Y-100522883D01*
X136813662Y-100491932D01*
X136914611Y-100435785D01*
X137017901Y-100396174D01*
X137127989Y-100372014D01*
X137249330Y-100362219D01*
X137341836Y-100363265D01*
X137471490Y-100374231D01*
X137584084Y-100396046D01*
X137682875Y-100429714D01*
X137771121Y-100476236D01*
X137819986Y-100510448D01*
X137849353Y-100532362D01*
X137871043Y-100547333D01*
X137879253Y-100551733D01*
X137880868Y-100540904D01*
X137882159Y-100510251D01*
X137883138Y-100462526D01*
X137883817Y-100400479D01*
X137884210Y-100326862D01*
X137884330Y-100244427D01*
X137884188Y-100155925D01*
X137883797Y-100064107D01*
X137883171Y-99971724D01*
X137882320Y-99881528D01*
X137881260Y-99796271D01*
X137880001Y-99718703D01*
X137878556Y-99651576D01*
X137876938Y-99597641D01*
X137875161Y-99559650D01*
X137874669Y-99552667D01*
X137867092Y-99482251D01*
X137855531Y-99427102D01*
X137837792Y-99379981D01*
X137811682Y-99333647D01*
X137805415Y-99324067D01*
X137780983Y-99287378D01*
X138686311Y-99287378D01*
X138686507Y-100972245D01*
X138686507Y-100972245D01*
G37*
X138686507Y-100972245D02*
X138686526Y-101206662D01*
X138686552Y-101419603D01*
X138686625Y-101612168D01*
X138686782Y-101785459D01*
X138687064Y-101940576D01*
X138687509Y-102078620D01*
X138688156Y-102200692D01*
X138689045Y-102307894D01*
X138690213Y-102401326D01*
X138691701Y-102482090D01*
X138693546Y-102551286D01*
X138695789Y-102610015D01*
X138698469Y-102659379D01*
X138701623Y-102700478D01*
X138705292Y-102734413D01*
X138709513Y-102762286D01*
X138714327Y-102785198D01*
X138719773Y-102804249D01*
X138725888Y-102820540D01*
X138732712Y-102835173D01*
X138740285Y-102849249D01*
X138748645Y-102863868D01*
X138753839Y-102872974D01*
X138788104Y-102933689D01*
X137929955Y-102933689D01*
X137929955Y-102837733D01*
X137929224Y-102794370D01*
X137927272Y-102761205D01*
X137924463Y-102743424D01*
X137923221Y-102741778D01*
X137911799Y-102748662D01*
X137889084Y-102766505D01*
X137866385Y-102785879D01*
X137811800Y-102826614D01*
X137742321Y-102867617D01*
X137665270Y-102905123D01*
X137587965Y-102935364D01*
X137557113Y-102945012D01*
X137488616Y-102959578D01*
X137405764Y-102969539D01*
X137316371Y-102974583D01*
X137228248Y-102974396D01*
X137149207Y-102968666D01*
X137111511Y-102962858D01*
X136973414Y-102924797D01*
X136846113Y-102867073D01*
X136730292Y-102790211D01*
X136626637Y-102694739D01*
X136535833Y-102581179D01*
X136469031Y-102470381D01*
X136414164Y-102353625D01*
X136372163Y-102234276D01*
X136342167Y-102108283D01*
X136323311Y-101971594D01*
X136314732Y-101820158D01*
X136314006Y-101742711D01*
X136316100Y-101685934D01*
X137145217Y-101685934D01*
X137145424Y-101779002D01*
X137148337Y-101866692D01*
X137154000Y-101943772D01*
X137162455Y-102005009D01*
X137165038Y-102017350D01*
X137196840Y-102124633D01*
X137238498Y-102211658D01*
X137290363Y-102278642D01*
X137352781Y-102325805D01*
X137426100Y-102353365D01*
X137510669Y-102361541D01*
X137606835Y-102350551D01*
X137670311Y-102334829D01*
X137719454Y-102316639D01*
X137773583Y-102290791D01*
X137814244Y-102267089D01*
X137884800Y-102220721D01*
X137884800Y-101070530D01*
X137817392Y-101026962D01*
X137738867Y-100986040D01*
X137654681Y-100959389D01*
X137569557Y-100947465D01*
X137488216Y-100950722D01*
X137415380Y-100969615D01*
X137383426Y-100985184D01*
X137325501Y-101028181D01*
X137276544Y-101084953D01*
X137235390Y-101157575D01*
X137200874Y-101248121D01*
X137171833Y-101358666D01*
X137170552Y-101364533D01*
X137160381Y-101426788D01*
X137152739Y-101504594D01*
X137147670Y-101592720D01*
X137145217Y-101685934D01*
X136316100Y-101685934D01*
X136321857Y-101529895D01*
X136343802Y-101334059D01*
X136379786Y-101155332D01*
X136429759Y-100993845D01*
X136493668Y-100849726D01*
X136571462Y-100723106D01*
X136663089Y-100614115D01*
X136768497Y-100522883D01*
X136813662Y-100491932D01*
X136914611Y-100435785D01*
X137017901Y-100396174D01*
X137127989Y-100372014D01*
X137249330Y-100362219D01*
X137341836Y-100363265D01*
X137471490Y-100374231D01*
X137584084Y-100396046D01*
X137682875Y-100429714D01*
X137771121Y-100476236D01*
X137819986Y-100510448D01*
X137849353Y-100532362D01*
X137871043Y-100547333D01*
X137879253Y-100551733D01*
X137880868Y-100540904D01*
X137882159Y-100510251D01*
X137883138Y-100462526D01*
X137883817Y-100400479D01*
X137884210Y-100326862D01*
X137884330Y-100244427D01*
X137884188Y-100155925D01*
X137883797Y-100064107D01*
X137883171Y-99971724D01*
X137882320Y-99881528D01*
X137881260Y-99796271D01*
X137880001Y-99718703D01*
X137878556Y-99651576D01*
X137876938Y-99597641D01*
X137875161Y-99559650D01*
X137874669Y-99552667D01*
X137867092Y-99482251D01*
X137855531Y-99427102D01*
X137837792Y-99379981D01*
X137811682Y-99333647D01*
X137805415Y-99324067D01*
X137780983Y-99287378D01*
X138686311Y-99287378D01*
X138686507Y-100972245D01*
G36*
X130226957Y-98526571D02*
X130323232Y-98550809D01*
X130409816Y-98593641D01*
X130484627Y-98653419D01*
X130545582Y-98728494D01*
X130590601Y-98817220D01*
X130616864Y-98913530D01*
X130622714Y-99010795D01*
X130607860Y-99104654D01*
X130574160Y-99192511D01*
X130523472Y-99271770D01*
X130457655Y-99339836D01*
X130378566Y-99394112D01*
X130288066Y-99432002D01*
X130236800Y-99444426D01*
X130192302Y-99451947D01*
X130158001Y-99454919D01*
X130125040Y-99453094D01*
X130084566Y-99446225D01*
X130051469Y-99439250D01*
X129958053Y-99407741D01*
X129874381Y-99356617D01*
X129802335Y-99287429D01*
X129743800Y-99201728D01*
X129729852Y-99174489D01*
X129713414Y-99138122D01*
X129703106Y-99107582D01*
X129697540Y-99075450D01*
X129695331Y-99034307D01*
X129695052Y-98988222D01*
X129699139Y-98903865D01*
X129712554Y-98834586D01*
X129737744Y-98773961D01*
X129777154Y-98715567D01*
X129815702Y-98671302D01*
X129887594Y-98605484D01*
X129962687Y-98560053D01*
X130045438Y-98532850D01*
X130123072Y-98522576D01*
X130226957Y-98526571D01*
X130226957Y-98526571D01*
G37*
X130226957Y-98526571D02*
X130323232Y-98550809D01*
X130409816Y-98593641D01*
X130484627Y-98653419D01*
X130545582Y-98728494D01*
X130590601Y-98817220D01*
X130616864Y-98913530D01*
X130622714Y-99010795D01*
X130607860Y-99104654D01*
X130574160Y-99192511D01*
X130523472Y-99271770D01*
X130457655Y-99339836D01*
X130378566Y-99394112D01*
X130288066Y-99432002D01*
X130236800Y-99444426D01*
X130192302Y-99451947D01*
X130158001Y-99454919D01*
X130125040Y-99453094D01*
X130084566Y-99446225D01*
X130051469Y-99439250D01*
X129958053Y-99407741D01*
X129874381Y-99356617D01*
X129802335Y-99287429D01*
X129743800Y-99201728D01*
X129729852Y-99174489D01*
X129713414Y-99138122D01*
X129703106Y-99107582D01*
X129697540Y-99075450D01*
X129695331Y-99034307D01*
X129695052Y-98988222D01*
X129699139Y-98903865D01*
X129712554Y-98834586D01*
X129737744Y-98773961D01*
X129777154Y-98715567D01*
X129815702Y-98671302D01*
X129887594Y-98605484D01*
X129962687Y-98560053D01*
X130045438Y-98532850D01*
X130123072Y-98522576D01*
X130226957Y-98526571D01*
D13*
X144520000Y-86868000D02*
G75*
G03X144520000Y-86868000I-6100000J0D01*
G01*
X120400000Y-88600000D02*
X119700000Y-88600000D01*
X119700000Y-87400000D02*
X120400000Y-87400000D01*
X126716000Y-84744000D02*
X127416000Y-84744000D01*
X127416000Y-85944000D02*
X126716000Y-85944000D01*
X152308000Y-83596000D02*
X152308000Y-82896000D01*
X153508000Y-82896000D02*
X153508000Y-83596000D01*
X112684000Y-83728000D02*
X112684000Y-83028000D01*
X113884000Y-83028000D02*
X113884000Y-83728000D01*
X126716000Y-86776000D02*
X127416000Y-86776000D01*
X127416000Y-87976000D02*
X126716000Y-87976000D01*
X119150000Y-97100000D02*
X119150000Y-97800000D01*
X117950000Y-97800000D02*
X117950000Y-97100000D01*
X129556000Y-84284000D02*
X127556000Y-84284000D01*
X127556000Y-81324000D02*
X129556000Y-81324000D01*
X129584000Y-94980000D02*
X129584000Y-92980000D01*
X132544000Y-92980000D02*
X132544000Y-94980000D01*
X175919173Y-113212185D02*
G75*
G03X175455170Y-118560000I1080827J-2787815D01*
G01*
X178080827Y-113212185D02*
G75*
G02X178544830Y-118560000I-1080827J-2787815D01*
G01*
X175919571Y-113745521D02*
G75*
G03X175920000Y-118254684I1080429J-2254479D01*
G01*
X178080429Y-113745521D02*
G75*
G02X178080000Y-118254684I-1080429J-2254479D01*
G01*
X175455000Y-118560000D02*
X175920000Y-118560000D01*
X178080000Y-118560000D02*
X178545000Y-118560000D01*
X175919173Y-83212185D02*
G75*
G03X175455170Y-88560000I1080827J-2787815D01*
G01*
X178080827Y-83212185D02*
G75*
G02X178544830Y-88560000I-1080827J-2787815D01*
G01*
X175919571Y-83745521D02*
G75*
G03X175920000Y-88254684I1080429J-2254479D01*
G01*
X178080429Y-83745521D02*
G75*
G02X178080000Y-88254684I-1080429J-2254479D01*
G01*
X175455000Y-88560000D02*
X175920000Y-88560000D01*
X178080000Y-88560000D02*
X178545000Y-88560000D01*
X151048000Y-82728000D02*
X151048000Y-83728000D01*
X149688000Y-83728000D02*
X149688000Y-82728000D01*
X119900000Y-108180000D02*
X118900000Y-108180000D01*
X118900000Y-106820000D02*
X119900000Y-106820000D01*
X143320000Y-105100000D02*
X143320000Y-104100000D01*
X144680000Y-104100000D02*
X144680000Y-105100000D01*
X179350000Y-107120000D02*
X187990000Y-107120000D01*
X170970000Y-107120000D02*
X176050000Y-107120000D01*
X179350000Y-94920000D02*
X187990000Y-94920000D01*
X170970000Y-94920000D02*
X176050000Y-94920000D01*
X187990000Y-94920000D02*
X187990000Y-107120000D01*
X170970000Y-107120000D02*
X170970000Y-94920000D01*
X150054000Y-117542000D02*
X150054000Y-120202000D01*
X157734000Y-117542000D02*
X150054000Y-117542000D01*
X157734000Y-120202000D02*
X150054000Y-120202000D01*
X157734000Y-117542000D02*
X157734000Y-120202000D01*
X159004000Y-117542000D02*
X160334000Y-117542000D01*
X160334000Y-117542000D02*
X160334000Y-118872000D01*
X108170000Y-113790000D02*
X110830000Y-113790000D01*
X108170000Y-90870000D02*
X108170000Y-113790000D01*
X110830000Y-90870000D02*
X110830000Y-113790000D01*
X108170000Y-90870000D02*
X110830000Y-90870000D01*
X108170000Y-89600000D02*
X108170000Y-88270000D01*
X108170000Y-88270000D02*
X109500000Y-88270000D01*
X114468277Y-116096278D02*
G75*
G03X114468000Y-120707580I1179723J-2305722D01*
G01*
X116827723Y-116096278D02*
G75*
G02X116828000Y-120707580I-1179723J-2305722D01*
G01*
X116827723Y-116096278D02*
G75*
G03X114468000Y-116096420I-1179723J-2305722D01*
G01*
X113098000Y-118402000D02*
X118198000Y-118402000D01*
X113098000Y-118362000D02*
X118198000Y-118362000D01*
X113099000Y-118322000D02*
X118197000Y-118322000D01*
X113100000Y-118282000D02*
X118196000Y-118282000D01*
X113102000Y-118242000D02*
X118194000Y-118242000D01*
X113105000Y-118202000D02*
X118191000Y-118202000D01*
X113109000Y-118162000D02*
X118187000Y-118162000D01*
X113113000Y-118122000D02*
X114668000Y-118122000D01*
X116628000Y-118122000D02*
X118183000Y-118122000D01*
X113117000Y-118082000D02*
X114668000Y-118082000D01*
X116628000Y-118082000D02*
X118179000Y-118082000D01*
X113123000Y-118042000D02*
X114668000Y-118042000D01*
X116628000Y-118042000D02*
X118173000Y-118042000D01*
X113129000Y-118002000D02*
X114668000Y-118002000D01*
X116628000Y-118002000D02*
X118167000Y-118002000D01*
X113135000Y-117962000D02*
X114668000Y-117962000D01*
X116628000Y-117962000D02*
X118161000Y-117962000D01*
X113142000Y-117922000D02*
X114668000Y-117922000D01*
X116628000Y-117922000D02*
X118154000Y-117922000D01*
X113150000Y-117882000D02*
X114668000Y-117882000D01*
X116628000Y-117882000D02*
X118146000Y-117882000D01*
X113159000Y-117842000D02*
X114668000Y-117842000D01*
X116628000Y-117842000D02*
X118137000Y-117842000D01*
X113168000Y-117802000D02*
X114668000Y-117802000D01*
X116628000Y-117802000D02*
X118128000Y-117802000D01*
X113178000Y-117762000D02*
X114668000Y-117762000D01*
X116628000Y-117762000D02*
X118118000Y-117762000D01*
X113188000Y-117722000D02*
X114668000Y-117722000D01*
X116628000Y-117722000D02*
X118108000Y-117722000D01*
X113200000Y-117681000D02*
X114668000Y-117681000D01*
X116628000Y-117681000D02*
X118096000Y-117681000D01*
X113212000Y-117641000D02*
X114668000Y-117641000D01*
X116628000Y-117641000D02*
X118084000Y-117641000D01*
X113224000Y-117601000D02*
X114668000Y-117601000D01*
X116628000Y-117601000D02*
X118072000Y-117601000D01*
X113238000Y-117561000D02*
X114668000Y-117561000D01*
X116628000Y-117561000D02*
X118058000Y-117561000D01*
X113252000Y-117521000D02*
X114668000Y-117521000D01*
X116628000Y-117521000D02*
X118044000Y-117521000D01*
X113266000Y-117481000D02*
X114668000Y-117481000D01*
X116628000Y-117481000D02*
X118030000Y-117481000D01*
X113282000Y-117441000D02*
X114668000Y-117441000D01*
X116628000Y-117441000D02*
X118014000Y-117441000D01*
X113298000Y-117401000D02*
X114668000Y-117401000D01*
X116628000Y-117401000D02*
X117998000Y-117401000D01*
X113315000Y-117361000D02*
X114668000Y-117361000D01*
X116628000Y-117361000D02*
X117981000Y-117361000D01*
X113333000Y-117321000D02*
X114668000Y-117321000D01*
X116628000Y-117321000D02*
X117963000Y-117321000D01*
X113352000Y-117281000D02*
X114668000Y-117281000D01*
X116628000Y-117281000D02*
X117944000Y-117281000D01*
X113372000Y-117241000D02*
X114668000Y-117241000D01*
X116628000Y-117241000D02*
X117924000Y-117241000D01*
X113392000Y-117201000D02*
X114668000Y-117201000D01*
X116628000Y-117201000D02*
X117904000Y-117201000D01*
X113414000Y-117161000D02*
X114668000Y-117161000D01*
X116628000Y-117161000D02*
X117882000Y-117161000D01*
X113436000Y-117121000D02*
X114668000Y-117121000D01*
X116628000Y-117121000D02*
X117860000Y-117121000D01*
X113459000Y-117081000D02*
X114668000Y-117081000D01*
X116628000Y-117081000D02*
X117837000Y-117081000D01*
X113483000Y-117041000D02*
X114668000Y-117041000D01*
X116628000Y-117041000D02*
X117813000Y-117041000D01*
X113508000Y-117001000D02*
X114668000Y-117001000D01*
X116628000Y-117001000D02*
X117788000Y-117001000D01*
X113535000Y-116961000D02*
X114668000Y-116961000D01*
X116628000Y-116961000D02*
X117761000Y-116961000D01*
X113562000Y-116921000D02*
X114668000Y-116921000D01*
X116628000Y-116921000D02*
X117734000Y-116921000D01*
X113590000Y-116881000D02*
X114668000Y-116881000D01*
X116628000Y-116881000D02*
X117706000Y-116881000D01*
X113620000Y-116841000D02*
X114668000Y-116841000D01*
X116628000Y-116841000D02*
X117676000Y-116841000D01*
X113651000Y-116801000D02*
X114668000Y-116801000D01*
X116628000Y-116801000D02*
X117645000Y-116801000D01*
X113683000Y-116761000D02*
X114668000Y-116761000D01*
X116628000Y-116761000D02*
X117613000Y-116761000D01*
X113716000Y-116721000D02*
X114668000Y-116721000D01*
X116628000Y-116721000D02*
X117580000Y-116721000D01*
X113751000Y-116681000D02*
X114668000Y-116681000D01*
X116628000Y-116681000D02*
X117545000Y-116681000D01*
X113787000Y-116641000D02*
X114668000Y-116641000D01*
X116628000Y-116641000D02*
X117509000Y-116641000D01*
X113825000Y-116601000D02*
X114668000Y-116601000D01*
X116628000Y-116601000D02*
X117471000Y-116601000D01*
X113865000Y-116561000D02*
X114668000Y-116561000D01*
X116628000Y-116561000D02*
X117431000Y-116561000D01*
X113906000Y-116521000D02*
X114668000Y-116521000D01*
X116628000Y-116521000D02*
X117390000Y-116521000D01*
X113949000Y-116481000D02*
X114668000Y-116481000D01*
X116628000Y-116481000D02*
X117347000Y-116481000D01*
X113994000Y-116441000D02*
X114668000Y-116441000D01*
X116628000Y-116441000D02*
X117302000Y-116441000D01*
X114042000Y-116401000D02*
X114668000Y-116401000D01*
X116628000Y-116401000D02*
X117254000Y-116401000D01*
X114092000Y-116361000D02*
X114668000Y-116361000D01*
X116628000Y-116361000D02*
X117204000Y-116361000D01*
X114144000Y-116321000D02*
X114668000Y-116321000D01*
X116628000Y-116321000D02*
X117152000Y-116321000D01*
X114200000Y-116281000D02*
X114668000Y-116281000D01*
X116628000Y-116281000D02*
X117096000Y-116281000D01*
X114258000Y-116241000D02*
X114668000Y-116241000D01*
X116628000Y-116241000D02*
X117038000Y-116241000D01*
X114321000Y-116201000D02*
X114668000Y-116201000D01*
X116628000Y-116201000D02*
X116975000Y-116201000D01*
X114387000Y-116161000D02*
X116909000Y-116161000D01*
X114459000Y-116121000D02*
X116837000Y-116121000D01*
X114536000Y-116081000D02*
X116760000Y-116081000D01*
X114620000Y-116041000D02*
X116676000Y-116041000D01*
X114714000Y-116001000D02*
X116582000Y-116001000D01*
X114819000Y-115961000D02*
X116477000Y-115961000D01*
X114941000Y-115921000D02*
X116355000Y-115921000D01*
X115089000Y-115881000D02*
X116207000Y-115881000D01*
X115294000Y-115841000D02*
X116002000Y-115841000D01*
X115648000Y-121852000D02*
X115648000Y-120652000D01*
X114998000Y-121252000D02*
X116298000Y-121252000D01*
X145291723Y-120707722D02*
G75*
G03X145292000Y-116096420I-1179723J2305722D01*
G01*
X142932277Y-120707722D02*
G75*
G02X142932000Y-116096420I1179723J2305722D01*
G01*
X142932277Y-120707722D02*
G75*
G03X145292000Y-120707580I1179723J2305722D01*
G01*
X146662000Y-118402000D02*
X141562000Y-118402000D01*
X146662000Y-118442000D02*
X141562000Y-118442000D01*
X146661000Y-118482000D02*
X141563000Y-118482000D01*
X146660000Y-118522000D02*
X141564000Y-118522000D01*
X146658000Y-118562000D02*
X141566000Y-118562000D01*
X146655000Y-118602000D02*
X141569000Y-118602000D01*
X146651000Y-118642000D02*
X141573000Y-118642000D01*
X146647000Y-118682000D02*
X145092000Y-118682000D01*
X143132000Y-118682000D02*
X141577000Y-118682000D01*
X146643000Y-118722000D02*
X145092000Y-118722000D01*
X143132000Y-118722000D02*
X141581000Y-118722000D01*
X146637000Y-118762000D02*
X145092000Y-118762000D01*
X143132000Y-118762000D02*
X141587000Y-118762000D01*
X146631000Y-118802000D02*
X145092000Y-118802000D01*
X143132000Y-118802000D02*
X141593000Y-118802000D01*
X146625000Y-118842000D02*
X145092000Y-118842000D01*
X143132000Y-118842000D02*
X141599000Y-118842000D01*
X146618000Y-118882000D02*
X145092000Y-118882000D01*
X143132000Y-118882000D02*
X141606000Y-118882000D01*
X146610000Y-118922000D02*
X145092000Y-118922000D01*
X143132000Y-118922000D02*
X141614000Y-118922000D01*
X146601000Y-118962000D02*
X145092000Y-118962000D01*
X143132000Y-118962000D02*
X141623000Y-118962000D01*
X146592000Y-119002000D02*
X145092000Y-119002000D01*
X143132000Y-119002000D02*
X141632000Y-119002000D01*
X146582000Y-119042000D02*
X145092000Y-119042000D01*
X143132000Y-119042000D02*
X141642000Y-119042000D01*
X146572000Y-119082000D02*
X145092000Y-119082000D01*
X143132000Y-119082000D02*
X141652000Y-119082000D01*
X146560000Y-119123000D02*
X145092000Y-119123000D01*
X143132000Y-119123000D02*
X141664000Y-119123000D01*
X146548000Y-119163000D02*
X145092000Y-119163000D01*
X143132000Y-119163000D02*
X141676000Y-119163000D01*
X146536000Y-119203000D02*
X145092000Y-119203000D01*
X143132000Y-119203000D02*
X141688000Y-119203000D01*
X146522000Y-119243000D02*
X145092000Y-119243000D01*
X143132000Y-119243000D02*
X141702000Y-119243000D01*
X146508000Y-119283000D02*
X145092000Y-119283000D01*
X143132000Y-119283000D02*
X141716000Y-119283000D01*
X146494000Y-119323000D02*
X145092000Y-119323000D01*
X143132000Y-119323000D02*
X141730000Y-119323000D01*
X146478000Y-119363000D02*
X145092000Y-119363000D01*
X143132000Y-119363000D02*
X141746000Y-119363000D01*
X146462000Y-119403000D02*
X145092000Y-119403000D01*
X143132000Y-119403000D02*
X141762000Y-119403000D01*
X146445000Y-119443000D02*
X145092000Y-119443000D01*
X143132000Y-119443000D02*
X141779000Y-119443000D01*
X146427000Y-119483000D02*
X145092000Y-119483000D01*
X143132000Y-119483000D02*
X141797000Y-119483000D01*
X146408000Y-119523000D02*
X145092000Y-119523000D01*
X143132000Y-119523000D02*
X141816000Y-119523000D01*
X146388000Y-119563000D02*
X145092000Y-119563000D01*
X143132000Y-119563000D02*
X141836000Y-119563000D01*
X146368000Y-119603000D02*
X145092000Y-119603000D01*
X143132000Y-119603000D02*
X141856000Y-119603000D01*
X146346000Y-119643000D02*
X145092000Y-119643000D01*
X143132000Y-119643000D02*
X141878000Y-119643000D01*
X146324000Y-119683000D02*
X145092000Y-119683000D01*
X143132000Y-119683000D02*
X141900000Y-119683000D01*
X146301000Y-119723000D02*
X145092000Y-119723000D01*
X143132000Y-119723000D02*
X141923000Y-119723000D01*
X146277000Y-119763000D02*
X145092000Y-119763000D01*
X143132000Y-119763000D02*
X141947000Y-119763000D01*
X146252000Y-119803000D02*
X145092000Y-119803000D01*
X143132000Y-119803000D02*
X141972000Y-119803000D01*
X146225000Y-119843000D02*
X145092000Y-119843000D01*
X143132000Y-119843000D02*
X141999000Y-119843000D01*
X146198000Y-119883000D02*
X145092000Y-119883000D01*
X143132000Y-119883000D02*
X142026000Y-119883000D01*
X146170000Y-119923000D02*
X145092000Y-119923000D01*
X143132000Y-119923000D02*
X142054000Y-119923000D01*
X146140000Y-119963000D02*
X145092000Y-119963000D01*
X143132000Y-119963000D02*
X142084000Y-119963000D01*
X146109000Y-120003000D02*
X145092000Y-120003000D01*
X143132000Y-120003000D02*
X142115000Y-120003000D01*
X146077000Y-120043000D02*
X145092000Y-120043000D01*
X143132000Y-120043000D02*
X142147000Y-120043000D01*
X146044000Y-120083000D02*
X145092000Y-120083000D01*
X143132000Y-120083000D02*
X142180000Y-120083000D01*
X146009000Y-120123000D02*
X145092000Y-120123000D01*
X143132000Y-120123000D02*
X142215000Y-120123000D01*
X145973000Y-120163000D02*
X145092000Y-120163000D01*
X143132000Y-120163000D02*
X142251000Y-120163000D01*
X145935000Y-120203000D02*
X145092000Y-120203000D01*
X143132000Y-120203000D02*
X142289000Y-120203000D01*
X145895000Y-120243000D02*
X145092000Y-120243000D01*
X143132000Y-120243000D02*
X142329000Y-120243000D01*
X145854000Y-120283000D02*
X145092000Y-120283000D01*
X143132000Y-120283000D02*
X142370000Y-120283000D01*
X145811000Y-120323000D02*
X145092000Y-120323000D01*
X143132000Y-120323000D02*
X142413000Y-120323000D01*
X145766000Y-120363000D02*
X145092000Y-120363000D01*
X143132000Y-120363000D02*
X142458000Y-120363000D01*
X145718000Y-120403000D02*
X145092000Y-120403000D01*
X143132000Y-120403000D02*
X142506000Y-120403000D01*
X145668000Y-120443000D02*
X145092000Y-120443000D01*
X143132000Y-120443000D02*
X142556000Y-120443000D01*
X145616000Y-120483000D02*
X145092000Y-120483000D01*
X143132000Y-120483000D02*
X142608000Y-120483000D01*
X145560000Y-120523000D02*
X145092000Y-120523000D01*
X143132000Y-120523000D02*
X142664000Y-120523000D01*
X145502000Y-120563000D02*
X145092000Y-120563000D01*
X143132000Y-120563000D02*
X142722000Y-120563000D01*
X145439000Y-120603000D02*
X145092000Y-120603000D01*
X143132000Y-120603000D02*
X142785000Y-120603000D01*
X145373000Y-120643000D02*
X142851000Y-120643000D01*
X145301000Y-120683000D02*
X142923000Y-120683000D01*
X145224000Y-120723000D02*
X143000000Y-120723000D01*
X145140000Y-120763000D02*
X143084000Y-120763000D01*
X145046000Y-120803000D02*
X143178000Y-120803000D01*
X144941000Y-120843000D02*
X143283000Y-120843000D01*
X144819000Y-120883000D02*
X143405000Y-120883000D01*
X144671000Y-120923000D02*
X143553000Y-120923000D01*
X144466000Y-120963000D02*
X143758000Y-120963000D01*
X144112000Y-114952000D02*
X144112000Y-116152000D01*
X144762000Y-115552000D02*
X143462000Y-115552000D01*
X155784000Y-86268000D02*
X155784000Y-85268000D01*
X157144000Y-85268000D02*
X157144000Y-86268000D01*
X158832000Y-86352000D02*
X158832000Y-85352000D01*
X160192000Y-85352000D02*
X160192000Y-86352000D01*
X117308278Y-104303723D02*
G75*
G03X121919580Y-104304000I2305722J1179723D01*
G01*
X117308278Y-101944277D02*
G75*
G02X121919580Y-101944000I2305722J-1179723D01*
G01*
X117308278Y-101944277D02*
G75*
G03X117308420Y-104304000I2305722J-1179723D01*
G01*
X119614000Y-105674000D02*
X119614000Y-100574000D01*
X119574000Y-105674000D02*
X119574000Y-100574000D01*
X119534000Y-105673000D02*
X119534000Y-100575000D01*
X119494000Y-105672000D02*
X119494000Y-100576000D01*
X119454000Y-105670000D02*
X119454000Y-100578000D01*
X119414000Y-105667000D02*
X119414000Y-100581000D01*
X119374000Y-105663000D02*
X119374000Y-100585000D01*
X119334000Y-105659000D02*
X119334000Y-104104000D01*
X119334000Y-102144000D02*
X119334000Y-100589000D01*
X119294000Y-105655000D02*
X119294000Y-104104000D01*
X119294000Y-102144000D02*
X119294000Y-100593000D01*
X119254000Y-105649000D02*
X119254000Y-104104000D01*
X119254000Y-102144000D02*
X119254000Y-100599000D01*
X119214000Y-105643000D02*
X119214000Y-104104000D01*
X119214000Y-102144000D02*
X119214000Y-100605000D01*
X119174000Y-105637000D02*
X119174000Y-104104000D01*
X119174000Y-102144000D02*
X119174000Y-100611000D01*
X119134000Y-105630000D02*
X119134000Y-104104000D01*
X119134000Y-102144000D02*
X119134000Y-100618000D01*
X119094000Y-105622000D02*
X119094000Y-104104000D01*
X119094000Y-102144000D02*
X119094000Y-100626000D01*
X119054000Y-105613000D02*
X119054000Y-104104000D01*
X119054000Y-102144000D02*
X119054000Y-100635000D01*
X119014000Y-105604000D02*
X119014000Y-104104000D01*
X119014000Y-102144000D02*
X119014000Y-100644000D01*
X118974000Y-105594000D02*
X118974000Y-104104000D01*
X118974000Y-102144000D02*
X118974000Y-100654000D01*
X118934000Y-105584000D02*
X118934000Y-104104000D01*
X118934000Y-102144000D02*
X118934000Y-100664000D01*
X118893000Y-105572000D02*
X118893000Y-104104000D01*
X118893000Y-102144000D02*
X118893000Y-100676000D01*
X118853000Y-105560000D02*
X118853000Y-104104000D01*
X118853000Y-102144000D02*
X118853000Y-100688000D01*
X118813000Y-105548000D02*
X118813000Y-104104000D01*
X118813000Y-102144000D02*
X118813000Y-100700000D01*
X118773000Y-105534000D02*
X118773000Y-104104000D01*
X118773000Y-102144000D02*
X118773000Y-100714000D01*
X118733000Y-105520000D02*
X118733000Y-104104000D01*
X118733000Y-102144000D02*
X118733000Y-100728000D01*
X118693000Y-105506000D02*
X118693000Y-104104000D01*
X118693000Y-102144000D02*
X118693000Y-100742000D01*
X118653000Y-105490000D02*
X118653000Y-104104000D01*
X118653000Y-102144000D02*
X118653000Y-100758000D01*
X118613000Y-105474000D02*
X118613000Y-104104000D01*
X118613000Y-102144000D02*
X118613000Y-100774000D01*
X118573000Y-105457000D02*
X118573000Y-104104000D01*
X118573000Y-102144000D02*
X118573000Y-100791000D01*
X118533000Y-105439000D02*
X118533000Y-104104000D01*
X118533000Y-102144000D02*
X118533000Y-100809000D01*
X118493000Y-105420000D02*
X118493000Y-104104000D01*
X118493000Y-102144000D02*
X118493000Y-100828000D01*
X118453000Y-105400000D02*
X118453000Y-104104000D01*
X118453000Y-102144000D02*
X118453000Y-100848000D01*
X118413000Y-105380000D02*
X118413000Y-104104000D01*
X118413000Y-102144000D02*
X118413000Y-100868000D01*
X118373000Y-105358000D02*
X118373000Y-104104000D01*
X118373000Y-102144000D02*
X118373000Y-100890000D01*
X118333000Y-105336000D02*
X118333000Y-104104000D01*
X118333000Y-102144000D02*
X118333000Y-100912000D01*
X118293000Y-105313000D02*
X118293000Y-104104000D01*
X118293000Y-102144000D02*
X118293000Y-100935000D01*
X118253000Y-105289000D02*
X118253000Y-104104000D01*
X118253000Y-102144000D02*
X118253000Y-100959000D01*
X118213000Y-105264000D02*
X118213000Y-104104000D01*
X118213000Y-102144000D02*
X118213000Y-100984000D01*
X118173000Y-105237000D02*
X118173000Y-104104000D01*
X118173000Y-102144000D02*
X118173000Y-101011000D01*
X118133000Y-105210000D02*
X118133000Y-104104000D01*
X118133000Y-102144000D02*
X118133000Y-101038000D01*
X118093000Y-105182000D02*
X118093000Y-104104000D01*
X118093000Y-102144000D02*
X118093000Y-101066000D01*
X118053000Y-105152000D02*
X118053000Y-104104000D01*
X118053000Y-102144000D02*
X118053000Y-101096000D01*
X118013000Y-105121000D02*
X118013000Y-104104000D01*
X118013000Y-102144000D02*
X118013000Y-101127000D01*
X117973000Y-105089000D02*
X117973000Y-104104000D01*
X117973000Y-102144000D02*
X117973000Y-101159000D01*
X117933000Y-105056000D02*
X117933000Y-104104000D01*
X117933000Y-102144000D02*
X117933000Y-101192000D01*
X117893000Y-105021000D02*
X117893000Y-104104000D01*
X117893000Y-102144000D02*
X117893000Y-101227000D01*
X117853000Y-104985000D02*
X117853000Y-104104000D01*
X117853000Y-102144000D02*
X117853000Y-101263000D01*
X117813000Y-104947000D02*
X117813000Y-104104000D01*
X117813000Y-102144000D02*
X117813000Y-101301000D01*
X117773000Y-104907000D02*
X117773000Y-104104000D01*
X117773000Y-102144000D02*
X117773000Y-101341000D01*
X117733000Y-104866000D02*
X117733000Y-104104000D01*
X117733000Y-102144000D02*
X117733000Y-101382000D01*
X117693000Y-104823000D02*
X117693000Y-104104000D01*
X117693000Y-102144000D02*
X117693000Y-101425000D01*
X117653000Y-104778000D02*
X117653000Y-104104000D01*
X117653000Y-102144000D02*
X117653000Y-101470000D01*
X117613000Y-104730000D02*
X117613000Y-104104000D01*
X117613000Y-102144000D02*
X117613000Y-101518000D01*
X117573000Y-104680000D02*
X117573000Y-104104000D01*
X117573000Y-102144000D02*
X117573000Y-101568000D01*
X117533000Y-104628000D02*
X117533000Y-104104000D01*
X117533000Y-102144000D02*
X117533000Y-101620000D01*
X117493000Y-104572000D02*
X117493000Y-104104000D01*
X117493000Y-102144000D02*
X117493000Y-101676000D01*
X117453000Y-104514000D02*
X117453000Y-104104000D01*
X117453000Y-102144000D02*
X117453000Y-101734000D01*
X117413000Y-104451000D02*
X117413000Y-104104000D01*
X117413000Y-102144000D02*
X117413000Y-101797000D01*
X117373000Y-104385000D02*
X117373000Y-101863000D01*
X117333000Y-104313000D02*
X117333000Y-101935000D01*
X117293000Y-104236000D02*
X117293000Y-102012000D01*
X117253000Y-104152000D02*
X117253000Y-102096000D01*
X117213000Y-104058000D02*
X117213000Y-102190000D01*
X117173000Y-103953000D02*
X117173000Y-102295000D01*
X117133000Y-103831000D02*
X117133000Y-102417000D01*
X117093000Y-103683000D02*
X117093000Y-102565000D01*
X117053000Y-103478000D02*
X117053000Y-102770000D01*
X123064000Y-103124000D02*
X121864000Y-103124000D01*
X122464000Y-103774000D02*
X122464000Y-102474000D01*
D14*
X128112000Y-110216000D02*
X131812000Y-110216000D01*
X131812000Y-110216000D02*
X131812000Y-120416000D01*
X131812000Y-120416000D02*
X128112000Y-120416000D01*
D15*
X135837000Y-118916000D02*
G75*
G03X135837000Y-118916000I-125000J0D01*
G01*
D16*
X137539048Y-93996571D02*
X137681905Y-94044190D01*
X137729524Y-94091810D01*
X137777143Y-94187048D01*
X137777143Y-94329905D01*
X137729524Y-94425143D01*
X137681905Y-94472762D01*
X137586667Y-94520381D01*
X137205714Y-94520381D01*
X137205714Y-93520381D01*
X137539048Y-93520381D01*
X137634286Y-93568000D01*
X137681905Y-93615619D01*
X137729524Y-93710857D01*
X137729524Y-93806095D01*
X137681905Y-93901333D01*
X137634286Y-93948952D01*
X137539048Y-93996571D01*
X137205714Y-93996571D01*
X138110476Y-93520381D02*
X138777143Y-93520381D01*
X138110476Y-94520381D01*
X138777143Y-94520381D01*
X139681905Y-94520381D02*
X139110476Y-94520381D01*
X139396190Y-94520381D02*
X139396190Y-93520381D01*
X139300952Y-93663238D01*
X139205714Y-93758476D01*
X139110476Y-93806095D01*
X141849048Y-89479429D02*
X142610953Y-89479429D01*
X142230001Y-89860381D02*
X142230001Y-89098476D01*
X119883334Y-89607143D02*
X119835715Y-89654762D01*
X119692858Y-89702381D01*
X119597620Y-89702381D01*
X119454762Y-89654762D01*
X119359524Y-89559524D01*
X119311905Y-89464286D01*
X119264286Y-89273810D01*
X119264286Y-89130952D01*
X119311905Y-88940476D01*
X119359524Y-88845238D01*
X119454762Y-88750000D01*
X119597620Y-88702381D01*
X119692858Y-88702381D01*
X119835715Y-88750000D01*
X119883334Y-88797619D01*
X120835715Y-89702381D02*
X120264286Y-89702381D01*
X120550000Y-89702381D02*
X120550000Y-88702381D01*
X120454762Y-88845238D01*
X120359524Y-88940476D01*
X120264286Y-88988095D01*
X126899334Y-84451143D02*
X126851715Y-84498762D01*
X126708858Y-84546381D01*
X126613620Y-84546381D01*
X126470762Y-84498762D01*
X126375524Y-84403524D01*
X126327905Y-84308286D01*
X126280286Y-84117810D01*
X126280286Y-83974952D01*
X126327905Y-83784476D01*
X126375524Y-83689238D01*
X126470762Y-83594000D01*
X126613620Y-83546381D01*
X126708858Y-83546381D01*
X126851715Y-83594000D01*
X126899334Y-83641619D01*
X127470762Y-83974952D02*
X127375524Y-83927333D01*
X127327905Y-83879714D01*
X127280286Y-83784476D01*
X127280286Y-83736857D01*
X127327905Y-83641619D01*
X127375524Y-83594000D01*
X127470762Y-83546381D01*
X127661239Y-83546381D01*
X127756477Y-83594000D01*
X127804096Y-83641619D01*
X127851715Y-83736857D01*
X127851715Y-83784476D01*
X127804096Y-83879714D01*
X127756477Y-83927333D01*
X127661239Y-83974952D01*
X127470762Y-83974952D01*
X127375524Y-84022571D01*
X127327905Y-84070190D01*
X127280286Y-84165429D01*
X127280286Y-84355905D01*
X127327905Y-84451143D01*
X127375524Y-84498762D01*
X127470762Y-84546381D01*
X127661239Y-84546381D01*
X127756477Y-84498762D01*
X127804096Y-84451143D01*
X127851715Y-84355905D01*
X127851715Y-84165429D01*
X127804096Y-84070190D01*
X127756477Y-84022571D01*
X127661239Y-83974952D01*
X152015143Y-83888857D02*
X152062762Y-83936476D01*
X152110381Y-84079333D01*
X152110381Y-84174571D01*
X152062762Y-84317429D01*
X151967524Y-84412667D01*
X151872286Y-84460286D01*
X151681810Y-84507905D01*
X151538952Y-84507905D01*
X151348476Y-84460286D01*
X151253238Y-84412667D01*
X151158000Y-84317429D01*
X151110381Y-84174571D01*
X151110381Y-84079333D01*
X151158000Y-83936476D01*
X151205619Y-83888857D01*
X152110381Y-82936476D02*
X152110381Y-83507905D01*
X152110381Y-83222191D02*
X151110381Y-83222191D01*
X151253238Y-83317429D01*
X151348476Y-83412667D01*
X151396095Y-83507905D01*
X152110381Y-81984095D02*
X152110381Y-82555524D01*
X152110381Y-82269810D02*
X151110381Y-82269810D01*
X151253238Y-82365048D01*
X151348476Y-82460286D01*
X151396095Y-82555524D01*
X112391143Y-84020857D02*
X112438762Y-84068476D01*
X112486381Y-84211333D01*
X112486381Y-84306571D01*
X112438762Y-84449429D01*
X112343524Y-84544667D01*
X112248286Y-84592286D01*
X112057810Y-84639905D01*
X111914952Y-84639905D01*
X111724476Y-84592286D01*
X111629238Y-84544667D01*
X111534000Y-84449429D01*
X111486381Y-84306571D01*
X111486381Y-84211333D01*
X111534000Y-84068476D01*
X111581619Y-84020857D01*
X112486381Y-83068476D02*
X112486381Y-83639905D01*
X112486381Y-83354191D02*
X111486381Y-83354191D01*
X111629238Y-83449429D01*
X111724476Y-83544667D01*
X111772095Y-83639905D01*
X111914952Y-82497048D02*
X111867333Y-82592286D01*
X111819714Y-82639905D01*
X111724476Y-82687524D01*
X111676857Y-82687524D01*
X111581619Y-82639905D01*
X111534000Y-82592286D01*
X111486381Y-82497048D01*
X111486381Y-82306571D01*
X111534000Y-82211333D01*
X111581619Y-82163714D01*
X111676857Y-82116095D01*
X111724476Y-82116095D01*
X111819714Y-82163714D01*
X111867333Y-82211333D01*
X111914952Y-82306571D01*
X111914952Y-82497048D01*
X111962571Y-82592286D01*
X112010190Y-82639905D01*
X112105429Y-82687524D01*
X112295905Y-82687524D01*
X112391143Y-82639905D01*
X112438762Y-82592286D01*
X112486381Y-82497048D01*
X112486381Y-82306571D01*
X112438762Y-82211333D01*
X112391143Y-82163714D01*
X112295905Y-82116095D01*
X112105429Y-82116095D01*
X112010190Y-82163714D01*
X111962571Y-82211333D01*
X111914952Y-82306571D01*
X126423143Y-86483143D02*
X126375524Y-86530762D01*
X126232667Y-86578381D01*
X126137429Y-86578381D01*
X125994571Y-86530762D01*
X125899333Y-86435524D01*
X125851714Y-86340286D01*
X125804095Y-86149810D01*
X125804095Y-86006952D01*
X125851714Y-85816476D01*
X125899333Y-85721238D01*
X125994571Y-85626000D01*
X126137429Y-85578381D01*
X126232667Y-85578381D01*
X126375524Y-85626000D01*
X126423143Y-85673619D01*
X127375524Y-86578381D02*
X126804095Y-86578381D01*
X127089809Y-86578381D02*
X127089809Y-85578381D01*
X126994571Y-85721238D01*
X126899333Y-85816476D01*
X126804095Y-85864095D01*
X127851714Y-86578381D02*
X128042190Y-86578381D01*
X128137429Y-86530762D01*
X128185048Y-86483143D01*
X128280286Y-86340286D01*
X128327905Y-86149810D01*
X128327905Y-85768857D01*
X128280286Y-85673619D01*
X128232667Y-85626000D01*
X128137429Y-85578381D01*
X127946952Y-85578381D01*
X127851714Y-85626000D01*
X127804095Y-85673619D01*
X127756476Y-85768857D01*
X127756476Y-86006952D01*
X127804095Y-86102190D01*
X127851714Y-86149810D01*
X127946952Y-86197429D01*
X128137429Y-86197429D01*
X128232667Y-86149810D01*
X128280286Y-86102190D01*
X128327905Y-86006952D01*
X120157143Y-98092857D02*
X120204762Y-98140476D01*
X120252381Y-98283333D01*
X120252381Y-98378571D01*
X120204762Y-98521429D01*
X120109524Y-98616667D01*
X120014286Y-98664286D01*
X119823810Y-98711905D01*
X119680952Y-98711905D01*
X119490476Y-98664286D01*
X119395238Y-98616667D01*
X119300000Y-98521429D01*
X119252381Y-98378571D01*
X119252381Y-98283333D01*
X119300000Y-98140476D01*
X119347619Y-98092857D01*
X119347619Y-97711905D02*
X119300000Y-97664286D01*
X119252381Y-97569048D01*
X119252381Y-97330952D01*
X119300000Y-97235714D01*
X119347619Y-97188095D01*
X119442857Y-97140476D01*
X119538095Y-97140476D01*
X119680952Y-97188095D01*
X120252381Y-97759524D01*
X120252381Y-97140476D01*
X119347619Y-96759524D02*
X119300000Y-96711905D01*
X119252381Y-96616667D01*
X119252381Y-96378571D01*
X119300000Y-96283333D01*
X119347619Y-96235714D01*
X119442857Y-96188095D01*
X119538095Y-96188095D01*
X119680952Y-96235714D01*
X120252381Y-96807143D01*
X120252381Y-96188095D01*
X128389334Y-80556381D02*
X127913143Y-80556381D01*
X127913143Y-79556381D01*
X129246477Y-80556381D02*
X128675048Y-80556381D01*
X128960762Y-80556381D02*
X128960762Y-79556381D01*
X128865524Y-79699238D01*
X128770286Y-79794476D01*
X128675048Y-79842095D01*
X134216381Y-94146666D02*
X134216381Y-94622857D01*
X133216381Y-94622857D01*
X133311619Y-93860952D02*
X133264000Y-93813333D01*
X133216381Y-93718095D01*
X133216381Y-93479999D01*
X133264000Y-93384761D01*
X133311619Y-93337142D01*
X133406857Y-93289523D01*
X133502095Y-93289523D01*
X133644952Y-93337142D01*
X134216381Y-93908571D01*
X134216381Y-93289523D01*
X173492381Y-117119047D02*
X173492381Y-117595238D01*
X172492381Y-117595238D01*
X172968571Y-116785714D02*
X172968571Y-116452380D01*
X173492381Y-116309523D02*
X173492381Y-116785714D01*
X172492381Y-116785714D01*
X172492381Y-116309523D01*
X173492381Y-115880952D02*
X172492381Y-115880952D01*
X172492381Y-115642857D01*
X172540000Y-115499999D01*
X172635238Y-115404761D01*
X172730476Y-115357142D01*
X172920952Y-115309523D01*
X173063810Y-115309523D01*
X173254286Y-115357142D01*
X173349524Y-115404761D01*
X173444762Y-115499999D01*
X173492381Y-115642857D01*
X173492381Y-115880952D01*
X173492381Y-114357142D02*
X173492381Y-114928571D01*
X173492381Y-114642857D02*
X172492381Y-114642857D01*
X172635238Y-114738095D01*
X172730476Y-114833333D01*
X172778095Y-114928571D01*
X173492381Y-87119047D02*
X173492381Y-87595238D01*
X172492381Y-87595238D01*
X172968571Y-86785714D02*
X172968571Y-86452380D01*
X173492381Y-86309523D02*
X173492381Y-86785714D01*
X172492381Y-86785714D01*
X172492381Y-86309523D01*
X173492381Y-85880952D02*
X172492381Y-85880952D01*
X172492381Y-85642857D01*
X172540000Y-85499999D01*
X172635238Y-85404761D01*
X172730476Y-85357142D01*
X172920952Y-85309523D01*
X173063810Y-85309523D01*
X173254286Y-85357142D01*
X173349524Y-85404761D01*
X173444762Y-85499999D01*
X173492381Y-85642857D01*
X173492381Y-85880952D01*
X172587619Y-84928571D02*
X172540000Y-84880952D01*
X172492381Y-84785714D01*
X172492381Y-84547618D01*
X172540000Y-84452380D01*
X172587619Y-84404761D01*
X172682857Y-84357142D01*
X172778095Y-84357142D01*
X172920952Y-84404761D01*
X173492381Y-84976190D01*
X173492381Y-84357142D01*
X149370381Y-83394666D02*
X148894190Y-83728000D01*
X149370381Y-83966095D02*
X148370381Y-83966095D01*
X148370381Y-83585142D01*
X148418000Y-83489904D01*
X148465619Y-83442285D01*
X148560857Y-83394666D01*
X148703714Y-83394666D01*
X148798952Y-83442285D01*
X148846571Y-83489904D01*
X148894190Y-83585142D01*
X148894190Y-83966095D01*
X148465619Y-83013714D02*
X148418000Y-82966095D01*
X148370381Y-82870857D01*
X148370381Y-82632761D01*
X148418000Y-82537523D01*
X148465619Y-82489904D01*
X148560857Y-82442285D01*
X148656095Y-82442285D01*
X148798952Y-82489904D01*
X149370381Y-83061333D01*
X149370381Y-82442285D01*
X118757143Y-106502381D02*
X118423809Y-106026190D01*
X118185714Y-106502381D02*
X118185714Y-105502381D01*
X118566667Y-105502381D01*
X118661905Y-105550000D01*
X118709524Y-105597619D01*
X118757143Y-105692857D01*
X118757143Y-105835714D01*
X118709524Y-105930952D01*
X118661905Y-105978571D01*
X118566667Y-106026190D01*
X118185714Y-106026190D01*
X119138095Y-105597619D02*
X119185714Y-105550000D01*
X119280952Y-105502381D01*
X119519048Y-105502381D01*
X119614286Y-105550000D01*
X119661905Y-105597619D01*
X119709524Y-105692857D01*
X119709524Y-105788095D01*
X119661905Y-105930952D01*
X119090476Y-106502381D01*
X119709524Y-106502381D01*
X120661905Y-106502381D02*
X120090476Y-106502381D01*
X120376190Y-106502381D02*
X120376190Y-105502381D01*
X120280952Y-105645238D01*
X120185714Y-105740476D01*
X120090476Y-105788095D01*
X145902381Y-105242857D02*
X145426190Y-105576191D01*
X145902381Y-105814286D02*
X144902381Y-105814286D01*
X144902381Y-105433333D01*
X144950000Y-105338095D01*
X144997619Y-105290476D01*
X145092857Y-105242857D01*
X145235714Y-105242857D01*
X145330952Y-105290476D01*
X145378571Y-105338095D01*
X145426190Y-105433333D01*
X145426190Y-105814286D01*
X144997619Y-104861905D02*
X144950000Y-104814286D01*
X144902381Y-104719048D01*
X144902381Y-104480952D01*
X144950000Y-104385714D01*
X144997619Y-104338095D01*
X145092857Y-104290476D01*
X145188095Y-104290476D01*
X145330952Y-104338095D01*
X145902381Y-104909524D01*
X145902381Y-104290476D01*
X144902381Y-103957143D02*
X144902381Y-103338095D01*
X145283333Y-103671429D01*
X145283333Y-103528571D01*
X145330952Y-103433333D01*
X145378571Y-103385714D01*
X145473810Y-103338095D01*
X145711905Y-103338095D01*
X145807143Y-103385714D01*
X145854762Y-103433333D01*
X145902381Y-103528571D01*
X145902381Y-103814286D01*
X145854762Y-103909524D01*
X145807143Y-103957143D01*
X183502381Y-102329524D02*
X184502381Y-101662857D01*
X183502381Y-101662857D02*
X184502381Y-102329524D01*
X184502381Y-101281905D02*
X183502381Y-101281905D01*
X183502381Y-100900952D01*
X183550000Y-100805714D01*
X183597619Y-100758095D01*
X183692857Y-100710476D01*
X183835714Y-100710476D01*
X183930952Y-100758095D01*
X183978571Y-100805714D01*
X184026190Y-100900952D01*
X184026190Y-101281905D01*
X184502381Y-99758095D02*
X184502381Y-100329524D01*
X184502381Y-100043810D02*
X183502381Y-100043810D01*
X183645238Y-100139048D01*
X183740476Y-100234286D01*
X183788095Y-100329524D01*
X160786381Y-120181524D02*
X161786381Y-119514857D01*
X160786381Y-119514857D02*
X161786381Y-120181524D01*
X161786381Y-119133905D02*
X160786381Y-119133905D01*
X160786381Y-118752952D01*
X160834000Y-118657714D01*
X160881619Y-118610095D01*
X160976857Y-118562476D01*
X161119714Y-118562476D01*
X161214952Y-118610095D01*
X161262571Y-118657714D01*
X161310190Y-118752952D01*
X161310190Y-119133905D01*
X160881619Y-118181524D02*
X160834000Y-118133905D01*
X160786381Y-118038667D01*
X160786381Y-117800571D01*
X160834000Y-117705333D01*
X160881619Y-117657714D01*
X160976857Y-117610095D01*
X161072095Y-117610095D01*
X161214952Y-117657714D01*
X161786381Y-118229143D01*
X161786381Y-117610095D01*
X108190476Y-86722381D02*
X108857143Y-87722381D01*
X108857143Y-86722381D02*
X108190476Y-87722381D01*
X109238095Y-87722381D02*
X109238095Y-86722381D01*
X109619048Y-86722381D01*
X109714286Y-86770000D01*
X109761905Y-86817619D01*
X109809524Y-86912857D01*
X109809524Y-87055714D01*
X109761905Y-87150952D01*
X109714286Y-87198571D01*
X109619048Y-87246190D01*
X109238095Y-87246190D01*
X110142857Y-86722381D02*
X110761905Y-86722381D01*
X110428571Y-87103333D01*
X110571429Y-87103333D01*
X110666667Y-87150952D01*
X110714286Y-87198571D01*
X110761905Y-87293810D01*
X110761905Y-87531905D01*
X110714286Y-87627143D01*
X110666667Y-87674762D01*
X110571429Y-87722381D01*
X110285714Y-87722381D01*
X110190476Y-87674762D01*
X110142857Y-87627143D01*
X112195143Y-118568666D02*
X112242762Y-118616285D01*
X112290381Y-118759142D01*
X112290381Y-118854380D01*
X112242762Y-118997238D01*
X112147524Y-119092476D01*
X112052286Y-119140095D01*
X111861810Y-119187714D01*
X111718952Y-119187714D01*
X111528476Y-119140095D01*
X111433238Y-119092476D01*
X111338000Y-118997238D01*
X111290381Y-118854380D01*
X111290381Y-118759142D01*
X111338000Y-118616285D01*
X111385619Y-118568666D01*
X111385619Y-118187714D02*
X111338000Y-118140095D01*
X111290381Y-118044857D01*
X111290381Y-117806761D01*
X111338000Y-117711523D01*
X111385619Y-117663904D01*
X111480857Y-117616285D01*
X111576095Y-117616285D01*
X111718952Y-117663904D01*
X112290381Y-118235333D01*
X112290381Y-117616285D01*
X148279143Y-119044857D02*
X148326762Y-119092476D01*
X148374381Y-119235333D01*
X148374381Y-119330571D01*
X148326762Y-119473429D01*
X148231524Y-119568667D01*
X148136286Y-119616286D01*
X147945810Y-119663905D01*
X147802952Y-119663905D01*
X147612476Y-119616286D01*
X147517238Y-119568667D01*
X147422000Y-119473429D01*
X147374381Y-119330571D01*
X147374381Y-119235333D01*
X147422000Y-119092476D01*
X147469619Y-119044857D01*
X148374381Y-118092476D02*
X148374381Y-118663905D01*
X148374381Y-118378191D02*
X147374381Y-118378191D01*
X147517238Y-118473429D01*
X147612476Y-118568667D01*
X147660095Y-118663905D01*
X147469619Y-117711524D02*
X147422000Y-117663905D01*
X147374381Y-117568667D01*
X147374381Y-117330571D01*
X147422000Y-117235333D01*
X147469619Y-117187714D01*
X147564857Y-117140095D01*
X147660095Y-117140095D01*
X147802952Y-117187714D01*
X148374381Y-117759143D01*
X148374381Y-117140095D01*
X158366381Y-86410857D02*
X157890190Y-86744191D01*
X158366381Y-86982286D02*
X157366381Y-86982286D01*
X157366381Y-86601333D01*
X157414000Y-86506095D01*
X157461619Y-86458476D01*
X157556857Y-86410857D01*
X157699714Y-86410857D01*
X157794952Y-86458476D01*
X157842571Y-86506095D01*
X157890190Y-86601333D01*
X157890190Y-86982286D01*
X157461619Y-86029905D02*
X157414000Y-85982286D01*
X157366381Y-85887048D01*
X157366381Y-85648952D01*
X157414000Y-85553714D01*
X157461619Y-85506095D01*
X157556857Y-85458476D01*
X157652095Y-85458476D01*
X157794952Y-85506095D01*
X158366381Y-86077524D01*
X158366381Y-85458476D01*
X157366381Y-84601333D02*
X157366381Y-84791810D01*
X157414000Y-84887048D01*
X157461619Y-84934667D01*
X157604476Y-85029905D01*
X157794952Y-85077524D01*
X158175905Y-85077524D01*
X158271143Y-85029905D01*
X158318762Y-84982286D01*
X158366381Y-84887048D01*
X158366381Y-84696571D01*
X158318762Y-84601333D01*
X158271143Y-84553714D01*
X158175905Y-84506095D01*
X157937810Y-84506095D01*
X157842571Y-84553714D01*
X157794952Y-84601333D01*
X157747333Y-84696571D01*
X157747333Y-84887048D01*
X157794952Y-84982286D01*
X157842571Y-85029905D01*
X157937810Y-85077524D01*
X161414381Y-86494857D02*
X160938190Y-86828191D01*
X161414381Y-87066286D02*
X160414381Y-87066286D01*
X160414381Y-86685333D01*
X160462000Y-86590095D01*
X160509619Y-86542476D01*
X160604857Y-86494857D01*
X160747714Y-86494857D01*
X160842952Y-86542476D01*
X160890571Y-86590095D01*
X160938190Y-86685333D01*
X160938190Y-87066286D01*
X160509619Y-86113905D02*
X160462000Y-86066286D01*
X160414381Y-85971048D01*
X160414381Y-85732952D01*
X160462000Y-85637714D01*
X160509619Y-85590095D01*
X160604857Y-85542476D01*
X160700095Y-85542476D01*
X160842952Y-85590095D01*
X161414381Y-86161524D01*
X161414381Y-85542476D01*
X160414381Y-85209143D02*
X160414381Y-84542476D01*
X161414381Y-84971048D01*
X118971143Y-107291143D02*
X118923524Y-107338762D01*
X118780667Y-107386381D01*
X118685429Y-107386381D01*
X118542571Y-107338762D01*
X118447333Y-107243524D01*
X118399714Y-107148286D01*
X118352095Y-106957810D01*
X118352095Y-106814952D01*
X118399714Y-106624476D01*
X118447333Y-106529238D01*
X118542571Y-106434000D01*
X118685429Y-106386381D01*
X118780667Y-106386381D01*
X118923524Y-106434000D01*
X118971143Y-106481619D01*
X119923524Y-107386381D02*
X119352095Y-107386381D01*
X119637809Y-107386381D02*
X119637809Y-106386381D01*
X119542571Y-106529238D01*
X119447333Y-106624476D01*
X119352095Y-106672095D01*
X120828286Y-106386381D02*
X120352095Y-106386381D01*
X120304476Y-106862571D01*
X120352095Y-106814952D01*
X120447333Y-106767333D01*
X120685429Y-106767333D01*
X120780667Y-106814952D01*
X120828286Y-106862571D01*
X120875905Y-106957810D01*
X120875905Y-107195905D01*
X120828286Y-107291143D01*
X120780667Y-107338762D01*
X120685429Y-107386381D01*
X120447333Y-107386381D01*
X120352095Y-107338762D01*
X120304476Y-107291143D01*
D15*
X126744381Y-114620524D02*
X126744381Y-115648619D01*
X126804857Y-115769571D01*
X126865333Y-115830048D01*
X126986286Y-115890524D01*
X127228190Y-115890524D01*
X127349143Y-115830048D01*
X127409619Y-115769571D01*
X127470095Y-115648619D01*
X127470095Y-114620524D01*
X128014381Y-114741476D02*
X128074857Y-114681000D01*
X128195809Y-114620524D01*
X128498190Y-114620524D01*
X128619143Y-114681000D01*
X128679619Y-114741476D01*
X128740095Y-114862429D01*
X128740095Y-114983381D01*
X128679619Y-115164810D01*
X127953905Y-115890524D01*
X128740095Y-115890524D01*
M02*
